Music_TCG2Credits:
	channel_count 4
	channel 1, Music_TCG2Credits_Ch1
	channel 2, Music_TCG2Credits_Ch2
	channel 3, Music_TCG2Credits_Ch3
	channel 4, Music_TCG2Credits_Ch4

Music_TCG2Credits_Ch2: ; 1de32a (77:632a)
	channel_volume 10
	duty_cycle 2
	channel_volume 15
	speed 1
	;musicdc 255
	octave 1
	note G_, 16
	;tie
	note G_, 16
	;tie
	note G_, 16
	;tie
	note G_, 16
	;tie
	note G_, 16
	;tie
	note G_, 16
	;tie
	note G_, 16
	;tie
	note G_, 4
	;tie
	note G_, 16
	;tie
	note G_, 16
	;tie
	note G_, 16
	;tie
	note G_, 16
	;tie
	note G_, 16
	;tie
	note G_, 16
	;tie
	note G_, 16
	;tie
	note G_, 4
	note G_, 16
	;tie
	note G_, 16
	;tie
	note G_, 16
	;tie
	note G_, 16
	;tie
	note G_, 16
	;tie
	note G_, 16
	;tie
	note G_, 16
	;tie
	note G_, 4
	;tie
	note G_, 16
	;tie
	note G_, 16
	;tie
	note G_, 16
	;tie
	note G_, 16
	;tie
	note G_, 16
	;tie
	note G_, 16
	;tie
	note G_, 16
	;tie
	note G_, 4
	note G_, 16
	;tie
	note G_, 16
	;tie
	note G_, 16
	;tie
	note G_, 16
	;tie
	note G_, 16
	;tie
	note G_, 16
	;tie
	note G_, 16
	;tie
	note G_, 4
	;tie
	note G_, 16
	;tie
	note G_, 16
	;tie
	note G_, 16
	;tie
	note G_, 16
	;tie
	note G_, 16
	;tie
	note G_, 16
	;tie
	note G_, 16
	;tie
	note G_, 4
	note G_, 16
	;tie
	note G_, 16
	;tie
	note G_, 16
	;tie
	note G_, 16
	;tie
	note G_, 16
	;tie
	note G_, 16
	;tie
	note G_, 16
	;tie
	note G_, 4
	;tie
	note G_, 16
	;tie
	note G_, 16
	;tie
	note G_, 16
	;tie
	note G_, 16
	;tie
	note G_, 16
	;tie
	note G_, 16
	;tie
	note G_, 16
	;tie
	note G_, 4
	channel_volume 13
	rest 15
	inc_octave
	note D_, 14
	;tie
	note D_, 15
	note D_, 14
	;tie
	note D_, 15
	inc_octave
	;musicef 252
	note A_, 14
	;tie
	note A_, 15
	inc_octave
	note D_, 14
	;tie
	note D_, 15
	;musicef 4
	dec_octave
	dec_octave
	dec_octave
	note A_, 14
	;tie
	note A_, 15
	inc_octave
	note E_, 14
	;tie
	note E_, 15
	;musicef 252
	note B_, 14
	;tie
	note B_, 15
	inc_octave
	note G_, 14
	;tie
	note G_, 15
	;musicef 4
	dec_octave
	note D_, 14
	;tie
	note D_, 15
	note A_, 14
	;tie
	note A_, 15
	inc_octave
	;musicef 252
	note A_, 14
	;tie
	note A_, 15
	inc_octave
	note D_, 14
	;tie
	note D_, 15
	;musicef 4
	dec_octave
	dec_octave
	dec_octave
	note A_, 14
	;tie
	note A_, 15
	inc_octave
	note E_, 14
	;tie
	note E_, 15
	;musicef 252
	note B_, 14
	;tie
	note B_, 15
	inc_octave
	note G_, 14
	;tie
	note G_, 15
	;musicef 4
	dec_octave
	note D_, 14
	;tie
	note D_, 15
	note D_, 14
	;tie
	note D_, 15
	inc_octave
	;musicef 252
	note A_, 14
	;tie
	note A_, 15
	inc_octave
	note D_, 14
	;tie
	note D_, 15
	;musicef 4
	dec_octave
	dec_octave
	dec_octave
	note A_, 14
	;tie
	note A_, 15
	inc_octave
	note E_, 14
	;tie
	note E_, 15
	;musicef 252
	note B_, 14
	;tie
	note B_, 15
	inc_octave
	note G_, 14
	;tie
	note G_, 15
	;musicef 4
	dec_octave
	note D_, 14
	;tie
	note D_, 15
	note A_, 14
	;tie
	note A_, 15
	inc_octave
	;musicef 252
	note A_, 14
	;tie
	note A_, 15
	inc_octave
	note D_, 14
	;tie
	note D_, 15
	;musicef 4
	dec_octave
	dec_octave
	note D_, 14
	;tie
	note D_, 15
	note A_, 14
	;tie
	note A_, 15
	inc_octave
	;musicef 252
	note F_, 14
	;tie
	note F_, 15
	note D#, 14
	;tie
	note D#, 15
	;musicef 4
	dec_octave
	note G_, 14
	;tie
	note G_, 15
	inc_octave
	note E_, 14
	;tie
	note E_, 15
	inc_octave
	;musicef 252
	note D_, 14
	;tie
	note D_, 15
	dec_octave
	note G_, 14
	;tie
	note G_, 15
	;musicef 4
	dec_octave
	dec_octave
	note G_, 14
	;tie
	note G_, 15
	inc_octave
	note D#, 14
	;tie
	note D#, 15
	inc_octave
	;musicef 252
	note D_, 14
	;tie
	note D_, 15
	dec_octave
	note C_, 14
	rest 15
	;musicef 4
	note F#, 14
	;tie
	note F#, 15
	inc_octave
	note C#, 14
	;tie
	note C#, 15
	;musicef 252
	note A_, 14
	;tie
	note A_, 15
	inc_octave
	note F#, 14
	;tie
	note F#, 15
	;musicef 4
	dec_octave
	dec_octave
	dec_octave
	note B_, 14
	;tie
	note B_, 15
	inc_octave
	note G_, 14
	;tie
	note G_, 15
	;musicef 252
	note B_, 14
	;tie
	note B_, 15
	inc_octave
	note G_, 14
	;tie
	note G_, 15
	dec_octave
	;musicef 4
	note E_, 14
	;tie
	note E_, 15
	inc_octave
	note C_, 14
	;tie
	note C_, 15
	;musicef 252
	note E_, 14
	;tie
	note E_, 15
	note C_, 14
	;tie
	note C_, 15
	dec_octave
	;musicef 4
	note E_, 14
	;tie
	note E_, 15
	inc_octave
	note C_, 14
	;tie
	note C_, 15
	;musicef 252
	note E_, 14
	;tie
	note E_, 15
	note C_, 14
	;tie
	note C_, 15
	dec_octave
	;musicef 4
	note G_, 14
	;tie
	note G_, 15
	inc_octave
	note G_, 14
	;tie
	note G_, 15
	inc_octave
	;musicef 252
	note C_, 14
	;tie
	note C_, 15
	dec_octave
	note D#, 14
	;tie
	note D#, 15
	;musicef 4
	dec_octave
	note A_, 14
	;tie
	note A_, 15
	inc_octave
	note G_, 14
	duty_cycle 1
	octave 2
	channel_volume 10
	;musice4 203
	note D_, 4
	;tie
	;musice4 214
	note D_, 4
	;tie
	;musice4 229
	note D_, 4
	;tie
	;musice4 242
	note D_, 3
	;musice4 0
	channel_volume 14
	note D_, 4
	;tie
	note D_, 3
	;tie
	note D_, 4
	;tie
	note D_, 3
	;tie
	note D_, 4
	;tie
	note D_, 4
	;tie
	note D_, 4
	;tie
	note D_, 3
	;tie
	note D_, 4
	;tie
	;musice4 227
	note D_, 3
	;tie
	;musice4 203
	note D_, 4
	;tie
	;musice4 180
	note D_, 2
	;tie
	;musice4 147
	note D_, 1
	;musice4 0
	octave 1
	;vibrato_type 5
	vibrato 29, 3, 3
	note G_, 16
	;tie
	note G_, 16
	;tie
	note G_, 16
	;tie
	note G_, 16
	;tie
	note G_, 16
	;tie
	note G_, 16
	;tie
	note G_, 16
	;tie
	note G_, 4
	note D_, 16
	;tie
	note D_, 16
	;tie
	note D_, 16
	;tie
	note D_, 16
	;tie
	note D_, 16
	;tie
	note D_, 16
	;tie
	note D_, 16
	;tie
	note D_, 4
	note G_, 15
	;tie
	note G_, 14
	;tie
	note G_, 15
	;tie
	note G_, 14
	;tie
	note G_, 15
	;tie
	note G_, 14
	;tie
	note G_, 15
	;musicf0 26
	octave 3
	;musicf1 87
	;musicf3
	note B_, 3
	inc_octave
	note C_, 11
	;tie
	note C_, 15
	;tie
	note C_, 14
	dec_octave
	note A_, 15
	;musicf2
	note F_, 14
	note F_, 15
	inc_octave
	note C_, 14
	note C_, 15
	dec_octave
	;musicf3
	note B_, 14
	duty_cycle 1
	;vibrato_type 5
	vibrato 29, 3, 3
	octave 1
	channel_volume 10
	note G_, 15
	channel_volume 14
	note G_, 14
	;tie
	note G_, 15
	;tie
	note G_, 14
	;tie
	note G_, 15
	;tie
	note G_, 14
	;tie
	note G_, 15
	;tie
	note G_, 14
	note D_, 16
	;tie
	note D_, 16
	;tie
	note D_, 16
	;tie
	note D_, 16
	;tie
	note D_, 16
	;tie
	note D_, 16
	;tie
	note D_, 16
	;tie
	note D_, 4
	note G_, 15
	;tie
	note G_, 14
	;tie
	note G_, 15
	;tie
	note G_, 14
	;tie
	note G_, 15
	;tie
	note G_, 14
	;tie
	note G_, 15
	inc_octave
	;musice4 204
	note D_, 4
	;tie
	;musice4 229
	note D_, 3
	;tie
	;musice4 0
	note D_, 7
	channel_volume 10
	note G_, 15
	channel_volume 14
	note G_, 14
	;tie
	note G_, 15
	;musice4 215
	note G_, 4
	;tie
	;musice4 236
	note G_, 3
	;tie
	;musice4 0
	note G_, 7
	;tie
	note G_, 15
	note D_, 14
	dec_octave
	note G_, 15
	;tie
	;musice4 217
	note G_, 4
	;tie
	;musice4 0
	note F#, 3
	;tie
	;musice4 213
	note F#, 4
	;tie
	;musice4 0
	note F_, 3
	note C_, 15
	;tie
	note C_, 14
	;tie
	note C_, 15
	;tie
	note C_, 14
	;tie
	note C_, 15
	;tie
	note C_, 14
	;tie
	note C_, 15
	note G_, 14
	channel_volume 10
	inc_octave
	;musice4 196
	note C_, 4
	;tie
	;musice4 211
	note C_, 4
	;tie
	;musice4 226
	note C_, 4
	;tie
	;musice4 241
	note C_, 3
	;musice4 0
	channel_volume 14
	note C_, 14
	;tie
	note C_, 15
	;tie
	note C_, 14
	;tie
	note C_, 15
	;tie
	note C_, 14
	;tie
	note C_, 15
	;tie
	note C_, 14
	dec_octave
	note B_, 15
	;tie
	note B_, 14
	;tie
	note B_, 15
	;tie
	note B_, 14
	;tie
	note B_, 15
	;tie
	note B_, 14
	;tie
	note B_, 15
	;tie
	;musice4 224
	note B_, 4
	;tie
	;musice4 192
	note B_, 3
	;tie
	;musice4 222
	note A#, 4
	;tie
	;musice4 0
	note A_, 3
	speed 4
	note E_, 15
	;tie
	note E_, 14
	note A_, 15
	;tie
	note A_, 14
	speed 1
	inc_octave
	;musice4 203
	note D_, 4
	;tie
	;musice4 214
	note D_, 4
	;tie
	;musice4 229
	note D_, 4
	;tie
	;musice4 242
	note D_, 3
	;tie
	;musice4 0
	note D_, 14
	;tie
	note D_, 15
	;tie
	;musice4 242
	note D_, 4
	;tie
	;musice4 229
	note D_, 4
	;tie
	;musice4 214
	note D_, 4
	;tie
	;musice4 203
	note D_, 3
	;musice4 0
	dec_octave
	note D_, 15
	;tie
	note D_, 14
	;tie
	note D_, 15
	;tie
	note D_, 14
	note G_, 15
	;tie
	note G_, 14
	;tie
	note G_, 15
	;tie
	note G_, 14
	note G_, 15
	inc_octave
	note D_, 14
	note G_, 15
	note A_, 4
	duty_cycle 2
	channel_volume 13
	speed 1
	;musicdc 255
	vibrato 0, 3, 3
	octave 2
	note B_, 10
	inc_octave
	speed 4
	note G_, 15
	;tie
	note G_, 14
	speed 1
	duty_cycle 1
	;vibrato_type 5
	vibrato 29, 3, 3
	channel_volume 14
	octave 1
	note C_, 15
	;tie
	note C_, 14
	;tie
	note C_, 15
	;tie
	note C_, 14
	;tie
	note C_, 15
	;tie
	note C_, 14
	;tie
	note C_, 15
	;musice4 178
	note G_, 4
	;tie
	;musice4 217
	note G_, 3
	;tie
	;musice4 0
	note G_, 7
	inc_octave
	speed 4
	note C_, 15
	;tie
	note C_, 14
	speed 1
	dec_octave
	note B_, 15
	;tie
	note B_, 14
	;tie
	note B_, 15
	;tie
	note B_, 14
	;tie
	note B_, 15
	;tie
	note B_, 14
	;tie
	note B_, 15
	;tie
	;musice4 224
	note B_, 4
	;tie
	;musice4 192
	note B_, 3
	;tie
	;musice4 222
	note A#, 4
	;tie
	;musice4 0
	note A_, 3
	speed 4
	note E_, 15
	;tie
	note E_, 14
	speed 1
	note A_, 15
	;tie
	note A_, 14
	;tie
	note A_, 15
	;tie
	note A_, 14
	;tie
	note A_, 15
	note B_, 14
	inc_octave
	note C_, 15
	note C#, 14
	;musice4 203
	note D_, 4
	;tie
	;musice4 214
	note D_, 4
	;tie
	;musice4 229
	note D_, 4
	;tie
	;musice4 242
	note D_, 3
	;tie
	;musice4 0
	note D_, 14
	;tie
	note D_, 15
	;tie
	;musice4 242
	note D_, 4
	;tie
	;musice4 229
	note D_, 4
	;tie
	;musice4 214
	note D_, 4
	;tie
	;musice4 203
	note D_, 3
	;musice4 0
	dec_octave
	note D_, 15
	;tie
	note D_, 14
	;tie
	note D_, 15
	;tie
	note D_, 14
	note G_, 15
	;tie
	note G_, 14
	;tie
	;musice4 217
	note G_, 4
	;tie
	;musice4 0
	note F#, 4
	;tie
	;musice4 213
	note F#, 4
	;tie
	;musice4 0
	note F_, 3
	note D_, 14
	;tie
	note D_, 15
	;tie
	note D_, 14
	note G_, 15
	;tie
	note G_, 14
	;tie
	note G_, 15
	;tie
	note G_, 14
	;tie
	note G_, 15
	note A_, 14
	rest 15
	note B_, 14
	;tie
	note B_, 15
	note G_, 14
	inc_octave
	note C_, 15
	;tie
	note C_, 14
	;tie
	note C_, 15
	;tie
	note C_, 14
	;tie
	note C_, 15
	;tie
	note C_, 14
	;tie
	note C_, 15
	dec_octave
	note F#, 4
	;tie
	;musice4 217
	note G_, 3
	;tie
	;musice4 0
	note G_, 7
	speed 4
	note C_, 15
	;tie
	note C_, 14
	note B_, 15
	;tie
	note B_, 14
	note A#, 15
	;tie
	note A#, 14
	speed 1
	note A_, 15
	;tie
	note A_, 14
	;tie
	note A_, 15
	;tie
	note A_, 14
	;tie
	note A_, 15
	;tie
	note A_, 14
	;tie
	note A_, 15
	inc_octave
	note D#, 4
	;tie
	;musice4 232
	note E_, 3
	;tie
	;musice4 0
	note E_, 7
	note A_, 15
	;tie
	note A_, 14
	;tie
	note A_, 15
	note E_, 14
	;tie
	note E_, 15
	dec_octave
	note A_, 14
	inc_octave
	note E_, 15
	note D#, 14
	note D_, 15
	;tie
	note D_, 14
	;tie
	note D_, 15
	;tie
	note D_, 14
	;tie
	note D_, 15
	;tie
	note D_, 14
	;tie
	note D_, 15
	dec_octave
	note A_, 14
	note D_, 15
	;tie
	note D_, 14
	;tie
	note D_, 15
	note E_, 14
	;tie
	note E_, 15
	;tie
	note E_, 14
	note F#, 15
	;tie
	note F#, 14
	note G_, 15
	;tie
	note G_, 14
	;tie
	note G_, 15
	;tie
	note G_, 14
	;tie
	note G_, 15
	;tie
	note G_, 14
	;tie
	note G_, 15
	inc_octave
	;musice4 204
	note D_, 4
	;tie
	;musice4 229
	note D_, 3
	;tie
	;musice4 0
	note D_, 7
	channel_volume 10
	note G_, 15
	channel_volume 14
	note G_, 14
	;tie
	note G_, 15
	;tie
	note G_, 14
	;tie
	note G_, 15
	;tie
	note G_, 14
	;tie
	note G_, 15
	;tie
	;musice4 236
	note G_, 4
	;tie
	;musice4 215
	note G_, 3
	;tie
	;musice4 194
	note G_, 4
	;tie
	;musice4 174
	note G_, 3
	;musice4 0
	dec_octave
	speed 4
	note G_, 15
	;tie
	note G_, 14
	;tie
	speed 1
	note G_, 15
	;tie
	note G_, 14
	;tie
	note G_, 15
	;tie
	note G_, 14
	;tie
	note G_, 15
	;tie
	note G_, 14
	note A_, 15
	note B_, 14
	inc_octave
	speed 4
	note C_, 15
	;tie
	note C_, 14
	dec_octave
	note B_, 15
	;tie
	note B_, 14
	speed 1
	note A_, 15
	;tie
	note A_, 14
	;tie
	note A_, 15
	;tie
	note A_, 14
	;tie
	note A_, 15
	inc_octave
	note C_, 14
	note C#, 15
	;musice4 204
	note D_, 4
	;tie
	;musice4 229
	note D_, 3
	;tie
	;musice4 0
	note D_, 7
	;tie
	note D_, 14
	dec_octave
	note A_, 14
	note D_, 15
	;tie
	note D_, 14
	;tie
	note D_, 15
	;tie
	note D_, 14
	note E_, 15
	note F#, 14
	speed 4
	note G_, 15
	;tie
	note G_, 14
	note F#, 15
	;tie
	note F#, 14
	note F_, 15
	;tie
	note F_, 14
	note E_, 15
	;tie
	note E_, 14
	speed 1
	note A_, 15
	;tie
	note A_, 14
	;tie
	note A_, 15
	;tie
	note A_, 14
	;tie
	note A_, 15
	;tie
	note A_, 14
	;tie
	note A_, 15
	note B_, 14
	inc_octave
	note C_, 15
	;tie
	note C_, 14
	;tie
	note C_, 15
	;tie
	;musice4 226
	note C_, 4
	;tie
	;musice4 196
	note C_, 3
	;tie
	;musice4 163
	note C_, 4
	;tie
	;musice4 133
	note C_, 3
	;musice4 0
	dec_octave
	note C_, 15
	;tie
	note C_, 14
	;tie
	note C_, 15
	;tie
	note C_, 14
	channel_volume 10
	note D_, 15
	channel_volume 14
	note D_, 14
	;tie
	note D_, 15
	;tie
	note D_, 14
	;tie
	note D_, 15
	;tie
	note D_, 14
	;tie
	note D_, 15
	note A_, 14
	inc_octave
	note D_, 15
	note B_, 7
	rest 7
	note A_, 8
	rest 7
	note G_, 7
	rest 7
	note F#, 8
	rest 7
	note E_, 7
	rest 7
	note D_, 8
	rest 7
	note C_, 7
	rest 7
	duty_cycle 1
	;vibrato_type 5
	vibrato 29, 3, 3
	channel_volume 14
	octave 1
	note G_, 15
	;tie
	note G_, 14
	;tie
	note G_, 15
	note D_, 14
	note G_, 15
	note D_, 14
	rest 15
	duty_cycle 2
	channel_volume 13
	speed 1
	vibrato 0, 3, 3
	octave 3
	rest 4
	note C_, 3
	;tie
	note C_, 7
	;tie
	note C_, 15
	;tie
	note C_, 14
	;tie
	note C_, 15
	;tie
	note C_, 14
	;tie
	note C_, 15
	;tie
	note C_, 14
	rest 15
	duty_cycle 1
	;vibrato_type 5
	vibrato 29, 3, 3
	channel_volume 14
	octave 1
	note D_, 14
	octave 1
	note G_, 15
	;tie
	note G_, 14
	;tie
	note G_, 15
	note D_, 14
	note G_, 15
	note D_, 14
	rest 15
	duty_cycle 2
	channel_volume 13
	speed 1
	vibrato 0, 3, 3
	octave 3
	rest 4
	note C_, 3
	;tie
	note C_, 7
	;tie
	note C_, 15
	;tie
	note C_, 14
	;tie
	note C_, 15
	duty_cycle 1
	;vibrato_type 5
	vibrato 29, 3, 3
	channel_volume 14
	octave 1
	note A#, 4
	;tie
	;musice4 224
	note B_, 3
	;tie
	;musice4 0
	note B_, 7
	;tie
	note B_, 15
	inc_octave
	note C_, 14
	note C#, 15
	note D_, 14
	octave 1
	note G_, 15
	;tie
	note G_, 14
	;tie
	note G_, 15
	note D_, 14
	note G_, 15
	note D_, 14
	rest 15
	duty_cycle 2
	channel_volume 13
	speed 1
	vibrato 0, 3, 3
	octave 3
	rest 4
	note C_, 3
	;tie
	note C_, 7
	;tie
	note C_, 15
	;tie
	note C_, 14
	;tie
	note C_, 15
	;tie
	note C_, 14
	;tie
	note C_, 15
	;tie
	note C_, 14
	rest 15
	duty_cycle 1
	;vibrato_type 5
	vibrato 29, 3, 3
	channel_volume 14
	octave 1
	note D_, 14
	note G_, 15
	;tie
	note G_, 14
	;tie
	note G_, 15
	note D_, 14
	note G_, 15
	note D_, 14
	rest 15
	note F_, 14
	note F_, 15
	;tie
	note F_, 14
	;tie
	note F_, 15
	note A#, 4
	;tie
	;musice4 193
	note B_, 3
	;tie
	;musice4 224
	note B_, 4
	;tie
	;musice4 240
	note B_, 3
	;tie
	;musice4 0
	note B_, 15
	inc_octave
	note C_, 7
	rest 7
	note C#, 15
	note D_, 11
	rest 3
	dec_octave
	note G_, 15
	;tie
	note G_, 14
	;tie
	note G_, 15
	note D_, 14
	note G_, 15
	note D_, 14
	rest 15
	note C_, 14
	note D_, 15
	;tie
	note D_, 14
	;tie
	note D_, 15
	inc_octave
	;musice4 147
	note D_, 4
	;tie
	;musice4 181
	note D_, 3
	;tie
	;musice4 203
	note D_, 4
	;tie
	;musice4 229
	note D_, 3
	;tie
	;musice4 0
	note D_, 15
	dec_octave
	note A_, 14
	note D_, 15
	note A_, 14
	note G_, 15
	;tie
	note G_, 14
	;tie
	note G_, 15
	inc_octave
	note G_, 14
	rest 15
	note D_, 14
	dec_octave
	note G_, 15
	note C_, 14
	note D_, 15
	note A_, 14
	inc_octave
	note C_, 15
	;musice4 147
	note D_, 4
	;tie
	;musice4 181
	note D_, 3
	;tie
	;musice4 203
	note D_, 4
	;tie
	;musice4 229
	note D_, 3
	;tie
	;musice4 0
	note D_, 15
	dec_octave
	note A_, 14
	note D_, 15
	note A_, 14
	note G_, 15
	;tie
	note G_, 14
	;tie
	note G_, 15
	note D_, 14
	note G_, 15
	note D_, 14
	rest 15
	note C_, 14
	note D_, 15
	;tie
	note D_, 14
	;tie
	note D_, 15
	inc_octave
	;musice4 147
	note D_, 4
	;tie
	;musice4 181
	note D_, 3
	;tie
	;musice4 203
	note D_, 4
	;tie
	;musice4 229
	note D_, 3
	;tie
	;musice4 0
	note D_, 15
	dec_octave
	note A_, 14
	note D_, 15
	note A_, 14
	note G_, 15
	;tie
	note G_, 14
	;tie
	note G_, 15
	inc_octave
	note G_, 14
	rest 15
	note D_, 14
	dec_octave
	note G_, 15
	note D_, 14
	note G_, 15
	;tie
	note G_, 14
	inc_octave
	inc_octave
	note D_, 15
	note C_, 14
	dec_octave
	note B_, 15
	dec_octave
	note G_, 14
	note A_, 15
	note B_, 14
	inc_octave
	channel_volume 7
	note C_, 15
	;tie
	note C_, 14
	channel_volume 14
	note C_, 15
	;tie
	note C_, 14
	;tie
	note C_, 15
	dec_octave
	note G_, 14
	;tie
	note G_, 15
	inc_octave
	;musice4 147
	note D_, 4
	;tie
	;musice4 180
	note D_, 3
	;tie
	;musice4 203
	note D_, 4
	;tie
	;musice4 229
	note D_, 3
	;tie
	;musice4 0
	note D_, 15
	note C_, 14
	dec_octave
	note G_, 15
	note C_, 14
	;tie
	note C_, 15
	inc_octave
	note C_, 14
	dec_octave
	note A_, 15
	note A#, 14
	note B_, 15
	;tie
	note B_, 14
	;tie
	note B_, 8
	rest 7
	note A#, 4
	;tie
	;musice4 222
	note A#, 3
	;tie
	;musice4 0
	note A#, 4
	;tie
	;musice4 224
	note B_, 3
	;tie
	;musice4 0
	note B_, 15
	note F#, 14
	note F_, 15
	note D#, 14
	note E_, 15
	note B_, 14
	inc_octave
	note D_, 15
	note E_, 14
	;tie
	note E_, 15
	dec_octave
	note B_, 14
	note E_, 15
	;tie
	note E_, 14
	note A_, 15
	;tie
	note A_, 14
	;tie
	note A_, 15
	note E_, 14
	note A_, 15
	note E_, 14
	note D#, 15
	note D_, 14
	note D_, 15
	note A_, 14
	inc_octave
	note C_, 15
	note D_, 14
	;tie
	note D_, 15
	;tie
	note D_, 14
	dec_octave
	note D_, 15
	;tie
	note D_, 14
.Loop1
	note G#, 11
	rest 4
	note G#, 11
	rest 3
	sound_loop 8, .Loop1
.Loop2
	note C#, 11
	rest 4
	note C#, 11
	rest 3
	sound_loop 8, .Loop2
.Loop3
	note G_, 11
	rest 4
	note G_, 11
	rest 3
	sound_loop 8, .Loop3
.Loop4
	note C#, 11
	rest 4
	note C#, 11
	rest 3
	sound_loop 4, .Loop4
.Loop5
	note C_, 11
	rest 4
	note C_, 11
	rest 3
	sound_loop 4, .Loop5
	note B_, 8
	inc_octave
	note B_, 4
	rest 3
	note A_, 4
	rest 3
	note B_, 4
	rest 3
	note F#, 8
	note D_, 4
	rest 3
	dec_octave
	note A_, 4
	rest 3
	note B_, 4
	rest 3
	inc_octave
	note D_, 4
	rest 4
	note F#, 4
	rest 3
	note A_, 4
	rest 3
	note B_, 4
	rest 3
	dec_octave
	note E_, 8
	inc_octave
	note E_, 4
	rest 3
	note D_, 4
	rest 3
	note E_, 4
	rest 3
	dec_octave
	note B_, 8
	note G_, 4
	rest 3
	note E_, 4
	rest 3
	note B_, 4
	rest 3
	inc_octave
	note E_, 4
	rest 4
	note G_, 4
	rest 3
	note B_, 4
	rest 3
	inc_octave
	note E_, 4
	rest 3
	dec_octave
	dec_octave
	note A_, 11
	rest 4
	note A_, 11
	rest 3
	note A_, 11
	rest 4
	note A_, 11
	rest 3
	note A_, 11
	rest 4
	note A_, 11
	rest 3
	inc_octave
	note C_, 11
	rest 4
	note C#, 11
	rest 3
	speed 2
	note D_, 15
	;tie
	note D_, 14
	dec_octave
	note D_, 15
	;tie
	note D_, 14
	speed 1
.Loop6
	;rept 4
	note G_, 11
	rest 4
	note G_, 11
	rest 3
	;---
	note G_, 11
	rest 4
	note G_, 11
	rest 3
	;---
	note G_, 11
	rest 4
	note G_, 11
	rest 3
	;---
	note G_, 11
	rest 4
	note G_, 11
	rest 3
	;endr
	;rept 4
	note D_, 11
	rest 4
	note D_, 11
	rest 3
	;---
	note D_, 11
	rest 4
	note D_, 11
	rest 3
	;---
	note D_, 11
	rest 4
	note D_, 11
	rest 3
	;---
	note D_, 11
	rest 4
	note D_, 11
	rest 3
	;endr
	sound_loop 3, .Loop6
.Loop7
	note G_, 11
	rest 4
	note D_, 11
	rest 3
	sound_loop 4, .Loop7
	;musicf1 102
	speed 4
	note G_, 15
	;tie
	note G_, 14
	speed 2
	note G_, 14
	sound_ret


Music_TCG2Credits_Ch1: ; 1deabb (77:6abb)
	channel_volume 10
	duty_cycle 2
	channel_volume 13
	speed 1
	;musicdc 255
	rest 15
	octave 2
	note D_, 14
	note A_, 15
	note B_, 14
	;tie
	note B_, 15
	;tie
	note B_, 14
	;tie
	note B_, 15
	;tie
	note B_, 14
	;tie
	note B_, 16
	;tie
	note B_, 16
	;tie
	note B_, 16
	;tie
	note B_, 16
	;tie
	note B_, 16
	;tie
	note B_, 16
	;tie
	note B_, 16
	;tie
	note B_, 4
	rest 15
	note E_, 14
	note G_, 15
	inc_octave
	note C_, 14
	;tie
	note C_, 15
	;tie
	note C_, 14
	;tie
	note C_, 15
	;tie
	note C_, 14
	;tie
	note C_, 16
	;tie
	note C_, 16
	;tie
	note C_, 16
	;tie
	note C_, 16
	;tie
	note C_, 16
	;tie
	note C_, 16
	;tie
	note C_, 16
	;tie
	note C_, 4
	rest 15
	dec_octave
	note D_, 14
	note A_, 15
	note B_, 14
	;tie
	note B_, 15
	;tie
	note B_, 14
	;tie
	note B_, 15
	;tie
	note B_, 14
	;tie
	note B_, 16
	;tie
	note B_, 16
	;tie
	note B_, 16
	;tie
	note B_, 16
	;tie
	note B_, 16
	;tie
	note B_, 16
	;tie
	note B_, 16
	;tie
	note B_, 4
	rest 15
	note E_, 14
	note G_, 15
	inc_octave
	note C_, 14
	;tie
	note C_, 15
	;tie
	note C_, 14
	;tie
	note C_, 15
	;tie
	note C_, 14
	;tie
	note C_, 16
	;tie
	note C_, 16
	;tie
	note C_, 16
	;tie
	note C_, 16
	;tie
	note C_, 16
	;tie
	note C_, 16
	;tie
	note C_, 16
	;tie
	note C_, 4
	channel_volume 13
	dec_octave
	dec_octave
	note G_, 16
	;tie
	note G_, 13
	inc_octave
	note G_, 16
	;tie
	note G_, 13
	note G_, 16
	;tie
	note G_, 13
	inc_octave
	;musicef 252
	note B_, 16
	;tie
	note B_, 13
	;musicef 4
	dec_octave
	dec_octave
	note D_, 16
	;tie
	note D_, 13
	inc_octave
	note D_, 16
	;tie
	note D_, 13
	note F_, 16
	;tie
	note F_, 13
	inc_octave
	;musicef 252
	note C_, 16
	;tie
	note C_, 13
	;musicef 4
	dec_octave
	dec_octave
	note G_, 16
	;tie
	note G_, 13
	inc_octave
	note G_, 16
	;tie
	note G_, 13
	note B_, 16
	;tie
	note B_, 13
	inc_octave
	;musicef 252
	note B_, 16
	;tie
	note B_, 13
	;musicef 4
	dec_octave
	dec_octave
	note D_, 16
	;tie
	note D_, 13
	inc_octave
	note D_, 16
	;tie
	note D_, 13
	note F_, 16
	;tie
	note F_, 13
	inc_octave
	;musicef 252
	note C_, 16
	;tie
	note C_, 13
	;musicef 4
	dec_octave
	dec_octave
	note G_, 16
	;tie
	note G_, 13
	inc_octave
	note G_, 16
	;tie
	note G_, 13
	note G_, 16
	;tie
	note G_, 13
	inc_octave
	;musicef 252
	note B_, 16
	;tie
	note B_, 13
	;musicef 4
	dec_octave
	dec_octave
	note D_, 16
	;tie
	note D_, 13
	inc_octave
	note D_, 16
	;tie
	note D_, 13
	note F_, 16
	;tie
	note F_, 13
	inc_octave
	;musicef 252
	note C_, 16
	;tie
	note C_, 13
	;musicef 4
	dec_octave
	dec_octave
	note G_, 16
	;tie
	note G_, 13
	inc_octave
	note G_, 16
	;tie
	note G_, 13
	note B_, 16
	;tie
	note B_, 13
	inc_octave
	;musicef 252
	note B_, 16
	;tie
	note B_, 13
	;musicef 4
	dec_octave
	dec_octave
	note G_, 16
	;tie
	note G_, 13
	inc_octave
	note F_, 16
	;tie
	note F_, 13
	note B_, 16
	;tie
	note B_, 13
	inc_octave
	;musicef 252
	note D_, 16
	;tie
	note D_, 13
	;musicef 4
	dec_octave
	note C_, 16
	;tie
	note C_, 13
	inc_octave
	note D_, 16
	;tie
	note D_, 13
	;musicef 252
	note G_, 16
	;tie
	note G_, 13
	inc_octave
	note C_, 16
	;tie
	note C_, 13
	;musicef 4
	dec_octave
	dec_octave
	dec_octave
	note C_, 16
	;tie
	note C_, 13
	inc_octave
	note D_, 16
	;tie
	note D_, 13
	note G_, 16
	;tie
	note G_, 13
	inc_octave
	;musicef 252
	note C_, 16
	;tie
	note C_, 13
	;musicef 4
	dec_octave
	dec_octave
	note B_, 16
	;tie
	note B_, 13
	inc_octave
	note A_, 16
	;tie
	note A_, 13
	inc_octave
	note D_, 16
	;tie
	note D_, 13
	inc_octave
	;musicef 252
	note D_, 16
	;tie
	note D_, 13
	;musicef 4
	dec_octave
	dec_octave
	dec_octave
	note E_, 16
	;tie
	note E_, 13
	inc_octave
	note F#, 16
	;tie
	note F#, 13
	inc_octave
	note D_, 16
	;tie
	note D_, 13
	;musicef 252
	note F#, 16
	;tie
	note F#, 13
	;musicef 4
	dec_octave
	dec_octave
	note A_, 16
	;tie
	note A_, 13
	inc_octave
	note B_, 16
	;tie
	note B_, 13
	inc_octave
	;musicef 252
	note G_, 16
	;tie
	note G_, 13
	dec_octave
	note B_, 16
	;tie
	note B_, 13
	;musicef 4
	dec_octave
	note A_, 16
	;tie
	note A_, 13
	inc_octave
	note B_, 16
	;tie
	note B_, 13
	inc_octave
	;musicef 252
	note G_, 16
	;tie
	note G_, 13
	dec_octave
	note B_, 16
	;tie
	note B_, 13
	;musicef 4
	note C_, 16
	;tie
	note C_, 13
	inc_octave
	note D#, 16
	;tie
	note D#, 13
	inc_octave
	;musicef 252
	note D_, 16
	;tie
	note D_, 13
	dec_octave
	note D_, 16
	;tie
	note D_, 13
	;musicef 4
	dec_octave
	note D_, 16
	;tie
	note D_, 13
	inc_octave
	note E_, 16
	;tie
	note E_, 13
	note F#, 15
	;musicef 252
	note D_, 14
	note C_, 15
	dec_octave
	note A_, 14
	;musicef 4
	dec_octave
	note G_, 15
	inc_octave
	note D_, 14
	note G_, 15
	note D_, 14
	note G_, 15
	inc_octave
	;musicef 252
	note A_, 14
	note B_, 15
	inc_octave
	note D_, 14
	;musicef 4
	dec_octave
	dec_octave
	dec_octave
	note D_, 15
	note A_, 14
	inc_octave
	note D_, 15
	note E_, 14
	note F_, 15
	;musicef 252
	note B_, 14
	inc_octave
	note C_, 15
	note G_, 14
	;musicef 4
	dec_octave
	dec_octave
	note G_, 15
	inc_octave
	note D_, 14
	note G_, 15
	note A_, 14
	note B_, 15
	inc_octave
	;musicef 252
	note A_, 14
	note B_, 15
	rest 14
	;musicef 4
	dec_octave
	dec_octave
	note D_, 15
	note A_, 14
	inc_octave
	note D_, 15
	note E_, 14
	note F_, 15
	;musicef 252
	note B_, 14
	inc_octave
	note C_, 15
	rest 14
	;musicef 4
	dec_octave
	dec_octave
	note G_, 15
	inc_octave
	note D_, 14
	note G_, 15
	note D_, 14
	note G_, 15
	inc_octave
	;musicef 252
	note A_, 14
	note B_, 15
	inc_octave
	note D_, 14
	;musicef 4
	dec_octave
	dec_octave
	dec_octave
	note D_, 15
	note A_, 14
	inc_octave
	note D_, 15
	note E_, 14
	note F_, 15
	;musicef 252
	note B_, 14
	inc_octave
	note C_, 15
	note G_, 14
	;musicef 4
	dec_octave
	dec_octave
	note G_, 15
	inc_octave
	note D_, 14
	note G_, 15
	note A_, 14
	note B_, 15
	inc_octave
	;musicef 252
	note A_, 14
	note B_, 15
	inc_octave
	note D_, 14
	;musicef 4
	rest 15
	dec_octave
	dec_octave
	note D_, 14
	note F_, 15
	note A_, 14
	note B_, 15
	inc_octave
	;musicef 252
	note F_, 14
	note D_, 15
	note D#, 14
	;musicef 4
	dec_octave
	note C_, 15
	note G_, 14
	inc_octave
	note D_, 15
	note E_, 14
	;musicef 252
	note G_, 15
	inc_octave
	note D_, 14
	note C_, 15
	dec_octave
	note G_, 14
	;musicef 4
	rest 15
	dec_octave
	note G_, 14
	inc_octave
	note D_, 15
	note D#, 14
	note G_, 15
	inc_octave
	;musicef 252
	note D_, 14
	note C_, 15
	;musicef 4
	dec_octave
	note C_, 14
	rest 15
	dec_octave
	note F#, 14
	note A_, 15
	inc_octave
	note C#, 14
	note D_, 15
	note A_, 14
	inc_octave
	note D_, 15
	note F#, 14
	rest 15
	dec_octave
	dec_octave
	dec_octave
	note B_, 14
	inc_octave
	note F#, 15
	note G_, 14
	inc_octave
	note D_, 15
	dec_octave
	;musicef 252
	note B_, 14
	inc_octave
	note F#, 15
	note G_, 14
	;musicef 4
	rest 15
	dec_octave
	note E_, 14
	inc_octave
	note C_, 15
	dec_octave
	note B_, 14
	inc_octave
	note C_, 15
	;musicef 252
	note G_, 14
	note C_, 15
	dec_octave
	note B_, 14
	;musicef 4
	rest 15
	note A_, 14
	inc_octave
	note C_, 15
	note G_, 14
	note F#, 15
	;musicef 252
	note D_, 14
	note C_, 15
	note D_, 14
	;musicef 4
	rest 15
	dec_octave
	note A_, 14
	inc_octave
	note C_, 15
	dec_octave
	note B_, 14
	inc_octave
	note C_, 15
	note G_, 14
	dec_octave
	note A_, 15
	inc_octave
	note C_, 10
	channel_volume 13
	note D_, 4
	;tie
	speed 4
	note D_, 15
	;tie
	note G_, 14
	speed 1
	;musicf0 5
	;musicf1 71
	octave 3
	;musicf2
	note C_, 8
	note C_, 7
	note E_, 7
	note C_, 7
	note G_, 8
	note E_, 7
	note E_, 7
	note G_, 7
	note B_, 8
	note E_, 7
	note E_, 7
	note B_, 7
	note G_, 8
	note E_, 7
	note E_, 7
	note G_, 7
	note C_, 8
	note E_, 7
	note D#, 7
	note C_, 7
	note A_, 8
	note D#, 7
	note F#, 7
	note A_, 7
	inc_octave
	note C_, 8
	dec_octave
	note F#, 7
	note A_, 7
	inc_octave
	note C_, 7
	dec_octave
	note F#, 8
	note A_, 7
	note A_, 7
	note F#, 7
	note D_, 8
	note A_, 7
	note F#, 7
	note D_, 7
	note A_, 8
	note F#, 7
	note F#, 7
	note A_, 7
	inc_octave
	note D_, 8
	dec_octave
	note F#, 7
	note F#, 7
	inc_octave
	note D_, 7
	dec_octave
	note A_, 8
	note F#, 7
	note F#, 7
	note A_, 7
	dec_octave
	note B_, 8
	inc_octave
	note F#, 7
	note E_, 7
	dec_octave
	note B_, 7
	inc_octave
	note G_, 8
	note E_, 7
	note E_, 7
	note G_, 7
	note B_, 8
	note E_, 7
	note G_, 7
	note B_, 7
	inc_octave
	note D_, 8
	dec_octave
	note G_, 7
	note G_, 7
	inc_octave
	note D_, 7
	dec_octave
	note C_, 8
	note G_, 7
	note E_, 7
	note C_, 7
	note G_, 8
	note E_, 7
	note E_, 7
	note G_, 7
	note B_, 8
	note E_, 7
	note E_, 7
	note B_, 7
	note G_, 8
	note E_, 7
	note E_, 7
	note G_, 7
	note C_, 8
	note G_, 7
	note E_, 7
	note C_, 7
	note G_, 8
	note E_, 7
	note E_, 7
	note G_, 7
	note B_, 8
	note E_, 7
	note E_, 7
	note B_, 7
	note G_, 8
	note E_, 7
	note E_, 7
	note G_, 7
	note C_, 8
	note E_, 7
	note D_, 7
	note C_, 7
	note G_, 8
	note D_, 7
	inc_octave
	note C_, 7
	dec_octave
	note G_, 7
	inc_octave
	note D_, 8
	note C_, 7
	note G_, 7
	note D_, 7
	note D_, 8
	note G_, 7
	note C_, 7
	note D_, 7
	dec_octave
	note B_, 8
	inc_octave
	note C_, 7
	dec_octave
	note G_, 7
	note B_, 7
	note D_, 8
	note G_, 7
	note C_, 7
	note D_, 7
	dec_octave
	note B_, 8
	inc_octave
	note C_, 7
	note D_, 7
	dec_octave
	note B_, 7
	inc_octave
	note G_, 8
	note D_, 7
	note B_, 7
	note G_, 7
	note C_, 8
	note B_, 7
	note E_, 7
	note C_, 7
	note G_, 8
	note E_, 7
	note E_, 7
	note G_, 7
	note B_, 8
	note E_, 7
	note E_, 7
	note B_, 7
	note G_, 8
	note E_, 7
	note E_, 7
	note G_, 7
	note C_, 8
	note E_, 7
	note D#, 7
	note C_, 7
	note A_, 8
	note D#, 7
	note D#, 7
	note A_, 7
	inc_octave
	note C_, 8
	dec_octave
	note D#, 7
	note D#, 7
	inc_octave
	note C_, 7
	note D#, 8
	dec_octave
	note D#, 7
	note A_, 7
	inc_octave
	note D#, 7
	dec_octave
	note D_, 8
	note A_, 7
	note F#, 7
	note D_, 7
	note A_, 8
	note F#, 7
	note F#, 7
	note A_, 7
	inc_octave
	note D_, 8
	dec_octave
	note F#, 7
	note F#, 7
	inc_octave
	note D_, 7
	dec_octave
	note A_, 8
	note F#, 7
	note F#, 7
	note A_, 7
	dec_octave
	note A#, 8
	inc_octave
	note F#, 7
	note C#, 7
	dec_octave
	note A#, 7
	inc_octave
	note E_, 8
	note C#, 7
	note C#, 7
	note E_, 7
	note G_, 8
	note C#, 7
	note E_, 7
	note G_, 7
	note A#, 8
	note E_, 7
	note G_, 7
	note A#, 7
	dec_octave
	note G_, 8
	inc_octave
	note G_, 7
	note C_, 7
	dec_octave
	note G_, 7
	inc_octave
	note D_, 8
	note C_, 7
	note C_, 7
	note D_, 7
	note G_, 8
	note C_, 7
	note C_, 7
	note G_, 7
	note D_, 8
	note C_, 7
	note C_, 7
	note D_, 7
	note G_, 8
	note C_, 7
	inc_octave
	note C_, 7
	dec_octave
	note G_, 7
	inc_octave
	note D_, 8
	note C_, 7
	note C_, 7
	note D_, 7
	note G_, 8
	note C_, 7
	note C_, 7
	note G_, 7
	note D_, 8
	note C_, 7
	note C_, 7
	note D_, 7
	dec_octave
	dec_octave
	note G_, 8
	inc_octave
	inc_octave
	note C_, 7
	dec_octave
	note C_, 7
	dec_octave
	note G_, 7
	inc_octave
	note D_, 8
	note C_, 7
	note G_, 7
	note D_, 7
	inc_octave
	note C_, 8
	dec_octave
	note G_, 7
	inc_octave
	note D_, 7
	note C_, 7
	note G_, 8
	note D_, 7
	note D_, 7
	note G_, 7
	note F#, 8
	note D_, 7
	note D_, 7
	note F#, 7
	note C_, 8
	note D_, 7
	dec_octave
	note A_, 7
	inc_octave
	note C_, 7
	dec_octave
	note F#, 8
	note A_, 7
	note D_, 7
	note F#, 7
	;musicf0 29
	octave 2
	;musicef 255
	;musicf1 71
	note D_, 4
	note E_, 4
	note F#, 4
	note G_, 3
	note A_, 4
	note B_, 3
	inc_octave
	note C_, 4
	note D_, 3
	;tie
	;musicf2
	note D_, 8
	note D_, 7
	;musicf0 5
	;musicf1 71
	note D_, 7
	rest 7
	;musicf2
	note G_, 8
	note D_, 7
	note D_, 7
	note G_, 7
	note A_, 8
	note D_, 7
	note D_, 7
	note A_, 7
	note B_, 8
	note D_, 7
	note D_, 7
	note B_, 7
	;musicf3
	rest 8
	;musicef 253
	note D_, 7
	;musicef 3
	note D_, 7
	rest 7
	;musicf2
	note F#, 8
	note D_, 7
	note D_, 7
	note F#, 7
	note A_, 8
	note D_, 7
	note D_, 7
	note A_, 7
	inc_octave
	note D_, 8
	dec_octave
	note D_, 7
	note D_, 7
	inc_octave
	note D_, 7
	;musicf3
	rest 8
	dec_octave
	;musicef 253
	note D_, 7
	;musicef 3
	note D_, 7
	rest 7
	;musicf2
	note F_, 8
	note D_, 7
	note D_, 7
	note F_, 7
	note A_, 8
	note D_, 7
	note D_, 7
	note A_, 7
	inc_octave
	note D_, 8
	dec_octave
	note D_, 7
	note D_, 7
	inc_octave
	note D_, 7
	;musicf3
	rest 8
	dec_octave
	;musicef 253
	note D_, 7
	;musicef 3
	note D_, 7
	rest 7
	;musicf2
	note F_, 8
	note D_, 7
	note D_, 7
	note F_, 7
	note A_, 8
	note D_, 7
	note D_, 7
	note A_, 7
	note B_, 8
	note D_, 7
	note D_, 7
	note B_, 7
	;musicf3
	rest 8
	;musicef 253
	note D_, 7
	;musicef 3
	note E_, 7
	rest 7
	;musicf2
	note G_, 8
	note E_, 7
	note E_, 7
	note G_, 7
	note A_, 8
	note E_, 7
	note E_, 7
	note A_, 7
	note B_, 8
	note E_, 7
	note E_, 7
	note B_, 7
	;musicf3
	rest 8
	;musicef 253
	note E_, 7
	;musicef 3
	note D_, 7
	rest 7
	;musicf2
	note G_, 8
	note D_, 7
	note D_, 7
	note G_, 7
	note A_, 8
	note D_, 7
	note D_, 7
	note A_, 7
	note B_, 8
	note D_, 7
	note D_, 7
	note B_, 7
	;musicf3
	rest 8
	;musicef 253
	note D_, 7
	;musicef 3
	note E_, 7
	rest 7
	;musicf2
	note G_, 8
	note E_, 7
	inc_octave
	note E_, 7
	dec_octave
	note G_, 7
	note E_, 8
	inc_octave
	note E_, 7
	note G_, 7
	dec_octave
	note E_, 7
	note E_, 8
	inc_octave
	note G_, 7
	;musicf3
	note F_, 3
	;musicf2
	note F#, 11
	;tie
	note F#, 8
	note F#, 7
	note E_, 7
	note F#, 7
	note D_, 8
	note E_, 7
	note C_, 7
	note D_, 7
	dec_octave
	note B_, 8
	inc_octave
	note C_, 7
	dec_octave
	note A_, 7
	note B_, 7
	note G_, 8
	note A_, 7
	note A_, 7
	note G_, 7
	;musicf3
	rest 8
	;musicef 253
	note A_, 7
	;musicef 3
	note D_, 7
	rest 7
	;musicf2
	note G_, 8
	note D_, 7
	note D_, 7
	note G_, 7
	note A_, 8
	note D_, 7
	note D_, 7
	note A_, 7
	note B_, 8
	note D_, 7
	note D_, 7
	note B_, 7
	;musicf3
	rest 8
	;musicef 253
	note D_, 7
	;musicef 3
	note D_, 7
	rest 7
	;musicf2
	note F#, 8
	note D_, 7
	note D_, 7
	note F#, 7
	note A_, 8
	note D_, 7
	note D_, 7
	note A_, 7
	inc_octave
	note D_, 8
	dec_octave
	note D_, 7
	note D_, 7
	inc_octave
	note D_, 7
	;musicf3
	rest 8
	dec_octave
	;musicef 253
	note D_, 7
	;musicef 3
	note D_, 7
	rest 7
	;musicf2
	note F_, 8
	note D_, 7
	inc_octave
	note D_, 7
	dec_octave
	note F_, 7
	note D_, 8
	inc_octave
	note D_, 7
	note F_, 7
	dec_octave
	note D_, 7
	note D_, 8
	inc_octave
	note F_, 7
	;musicf3
	note D#, 3
	;musicf2
	note E_, 11
	;tie
	note E_, 8
	note E_, 7
	note D_, 7
	note E_, 7
	note C_, 8
	note D_, 7
	dec_octave
	note B_, 7
	inc_octave
	note C_, 7
	dec_octave
	note A_, 8
	note B_, 7
	note G#, 7
	note A_, 7
	note A_, 8
	note G#, 7
	note B_, 7
	note A_, 7
	;musicf3
	rest 8
	;musicef 253
	note B_, 7
	;musicef 3
	note E_, 7
	rest 7
	;musicf2
	note G_, 8
	note E_, 7
	note E_, 7
	note G_, 7
	inc_octave
	note C_, 8
	dec_octave
	note E_, 7
	note E_, 7
	inc_octave
	note C_, 7
	note E_, 8
	dec_octave
	note E_, 7
	note E_, 7
	inc_octave
	note E_, 7
	;musicf3
	rest 8
	dec_octave
	;musicef 253
	note E_, 7
	;musicef 3
	note D#, 7
	rest 7
	;musicf2
	note A_, 8
	note D#, 7
	note D#, 7
	note A_, 7
	inc_octave
	note C_, 8
	dec_octave
	note D#, 7
	note D#, 7
	inc_octave
	note C_, 7
	note D#, 8
	dec_octave
	note D#, 7
	note D#, 7
	inc_octave
	note D#, 7
	;musicf3
	rest 8
	dec_octave
	;musicef 253
	note D#, 7
	;musicef 3
	note A_, 7
	rest 7
	;musicf2
	inc_octave
	note C_, 8
	dec_octave
	note A_, 7
	note A_, 7
	inc_octave
	note C_, 7
	note D#, 8
	dec_octave
	note A_, 7
	inc_octave
	note C_, 7
	note D#, 7
	note G_, 8
	note C_, 7
	note C_, 7
	;musicf3
	note F#, 4
	note G_, 3
	;musicf2
	note F#, 8
	note F#, 7
	note E_, 7
	note F#, 7
	note D_, 8
	note E_, 7
	note C_, 7
	note D_, 7
	dec_octave
	note B_, 8
	inc_octave
	note C_, 7
	dec_octave
	note A_, 7
	note B_, 7
	note G_, 8
	note A_, 7
	note F#, 7
	note G_, 7
	;musicf0 29
	;musicf3
	octave 3
	rest 15
	dec_octave
	note D_, 14
	note G_, 15
	note B_, 14
	inc_octave
	note D_, 15
	dec_octave
	note G_, 14
	note B_, 15
	note F_, 7
	inc_octave
	note F_, 7
	;tie
	speed 3
	note F_, 15
	;tie
	note F_, 14
	speed 1
	rest 15
	rest 14
	rest 15
	dec_octave
	note D_, 14
	note G_, 15
	note B_, 14
	inc_octave
	note D_, 15
	dec_octave
	note G_, 14
	note B_, 15
	note F_, 7
	inc_octave
	note F_, 7
	;tie
	speed 3
	note F_, 15
	;tie
	note F_, 14
	speed 1
	rest 15
	rest 14
	rest 15
	dec_octave
	note D_, 14
	note G_, 15
	note B_, 14
	inc_octave
	note D_, 15
	dec_octave
	note G_, 14
	note B_, 15
	note F_, 7
	inc_octave
	note F_, 7
	;tie
	speed 3
	note F_, 15
	;tie
	note F_, 14
	speed 1
	rest 15
	rest 14
	rest 15
	dec_octave
	note D_, 14
	note G_, 15
	note B_, 14
	inc_octave
	note D_, 15
	dec_octave
	note G_, 14
	note B_, 15
	note F_, 7
	inc_octave
	note F_, 7
	;tie
	speed 3
	note F_, 15
	;tie
	note F_, 14
	speed 1
	rest 15
	rest 14
	octave 1
	note G_, 15
	inc_octave
	note D_, 14
	note G_, 15
	note D_, 14
	note G_, 15
	inc_octave
	;musicef 252
	note A_, 14
	note B_, 15
	inc_octave
	note D_, 14
	;musicef 4
	dec_octave
	dec_octave
	dec_octave
	note D_, 15
	note A_, 14
	inc_octave
	note D_, 15
	note E_, 14
	note F_, 15
	;musicef 252
	note B_, 14
	inc_octave
	note C_, 15
	note G_, 14
	;musicef 4
	dec_octave
	dec_octave
	note G_, 15
	inc_octave
	note D_, 14
	note G_, 15
	note A_, 14
	note B_, 15
	inc_octave
	;musicef 252
	note A_, 14
	note B_, 15
	;musicf0 26
	octave 3
	;musicf1 87
	;musicf3
	note B_, 3
	inc_octave
	note C_, 11
	;tie
	note C_, 15
	;tie
	note C_, 14
	dec_octave
	note A_, 15
	note F_, 14
	rest 15
	inc_octave
	note C_, 14
	rest 15
	dec_octave
	note B_, 14
	;musicf0 29
	;musicf3
	vibrato 0, 3, 3
	octave 1
	note G_, 15
	inc_octave
	note D_, 14
	note G_, 15
	note D_, 14
	note G_, 15
	inc_octave
	;musicef 252
	note A_, 14
	note B_, 15
	inc_octave
	note D_, 14
	;musicef 4
	dec_octave
	dec_octave
	dec_octave
	note D_, 15
	note A_, 14
	inc_octave
	note D_, 15
	note E_, 14
	note F_, 15
	;musicef 252
	note B_, 14
	inc_octave
	note C_, 15
	note G_, 14
	;musicef 4
	dec_octave
	dec_octave
	note G_, 15
	inc_octave
	note D_, 14
	note G_, 15
	note A_, 14
	note B_, 15
	inc_octave
	;musicef 252
	note A_, 14
	note B_, 15
	inc_octave
	note D_, 14
	;musicef 4
	rest 15
	dec_octave
	dec_octave
	note D_, 14
	note F_, 15
	note A_, 14
	note B_, 15
	inc_octave
	;musicef 252
	note F_, 14
	note D_, 15
	note D#, 14
	;musicef 4
	dec_octave
	note C_, 15
	note G_, 14
	inc_octave
	note D_, 15
	note E_, 14
	;musicef 252
	note G_, 15
	inc_octave
	note D_, 14
	note C_, 15
	dec_octave
	note G_, 14
	;musicef 4
	rest 15
	dec_octave
	note G_, 14
	inc_octave
	note D_, 15
	note D#, 14
	note G_, 15
	inc_octave
	;musicef 252
	note D_, 14
	note C_, 15
	;musicef 4
	dec_octave
	note C_, 14
	rest 15
	dec_octave
	note F#, 14
	note A_, 15
	;musicf0 26
	octave 4
	note F#, 14
	;musicf0 29
	octave 3
	note D_, 15
	;musicf0 26
	octave 4
	note E_, 14
	;musicf0 29
	octave 3
	note D_, 15
	;musicf0 26
	octave 3
	note B_, 14
	;tie
	note B_, 15
	;musicf0 29
	octave 1
	note B_, 14
	inc_octave
	note F#, 15
	note G_, 14
	inc_octave
	note D_, 15
	dec_octave
	;musicef 252
	note B_, 14
	inc_octave
	note F#, 15
	note G_, 14
	;musicef 4
	rest 15
	dec_octave
	note E_, 14
	inc_octave
	note C_, 15
	dec_octave
	note B_, 14
	inc_octave
	note C_, 15
	;musicef 252
	note G_, 14
	note C_, 15
	dec_octave
	note B_, 14
	;musicef 4
	rest 15
	note A_, 14
	inc_octave
	note C_, 15
	note G_, 14
	note F#, 15
	;musicef 252
	note D_, 14
	note C_, 15
	note D_, 14
	;musicef 4
	;musicf0 5
	;musicf1 71
	octave 3
	rest 15
	note C_, 7
	rest 7
	;musicf2
	note D#, 8
	note C_, 7
	note C_, 7
	note D#, 7
	note G_, 8
	note C_, 7
	note D#, 7
	note G_, 7
	note A#, 8
	note D#, 7
	note D#, 7
	note A#, 7
	;musicf3
	rest 8
	;musicef 253
	note D#, 7
	;musicef 3
	note C_, 7
	rest 7
	;musicf2
	note D#, 8
	note C_, 7
	note C_, 7
	note D#, 7
	note G_, 8
	note C_, 7
	note D#, 7
	note G_, 7
	note A#, 8
	note D#, 7
	note D#, 7
	note A#, 7
	;musicf3
	rest 8
	;musicef 253
	note D#, 7
	;musicef 3
	note F_, 7
	rest 7
	;musicf2
	note G#, 8
	note F_, 7
	note F_, 7
	note G#, 7
	inc_octave
	note C_, 8
	dec_octave
	note F_, 7
	note G#, 7
	inc_octave
	note C_, 7
	note D#, 8
	dec_octave
	note G#, 7
	note G#, 7
	inc_octave
	note D#, 7
	;musicf3
	rest 8
	dec_octave
	;musicef 253
	note G#, 7
	;musicef 3
	note F_, 7
	rest 7
	;musicf2
	note G#, 8
	note F_, 7
	note F_, 7
	note G#, 7
	inc_octave
	note C_, 8
	dec_octave
	note F_, 7
	note G#, 7
	inc_octave
	note C_, 7
	note D#, 8
	dec_octave
	note G#, 7
	note G#, 7
	inc_octave
	note D#, 7
	;musicf3
	rest 8
	dec_octave
	;musicef 253
	note G#, 7
	;musicef 3
	note D_, 7
	rest 7
	;musicf2
	note F#, 8
	note D_, 7
	note D_, 7
	note F#, 7
	note A_, 8
	note D_, 7
	note F#, 7
	note A_, 7
	inc_octave
	note D_, 8
	dec_octave
	note F#, 7
	note F#, 7
	inc_octave
	note D_, 7
	;musicf3
	rest 8
	dec_octave
	;musicef 253
	note F#, 7
	;musicef 3
	note D_, 7
	rest 7
	;musicf2
	note F#, 8
	note D_, 7
	note D_, 7
	note F#, 7
	note A_, 8
	note D_, 7
	note F#, 7
	note A_, 7
	inc_octave
	note D_, 8
	dec_octave
	note F#, 7
	note F#, 7
	inc_octave
	note D_, 7
	;musicf3
	rest 8
	dec_octave
	;musicef 253
	note F#, 7
	;musicef 3
	note E_, 7
	rest 7
	;musicf2
	note G_, 8
	note E_, 7
	note E_, 7
	note G_, 7
	note B_, 8
	note E_, 7
	note G_, 7
	note B_, 7
	inc_octave
	note E_, 8
	dec_octave
	note G_, 7
	note G_, 7
	inc_octave
	note E_, 7
	;musicf3
	rest 8
	dec_octave
	;musicef 253
	note G_, 7
	;musicef 3
	note E_, 7
	rest 7
	;musicf2
	note G_, 8
	note E_, 7
	note E_, 7
	note G_, 7
	note B_, 8
	note E_, 7
	note G_, 7
	note B_, 7
	inc_octave
	note E_, 8
	dec_octave
	note G_, 7
	note G_, 7
	inc_octave
	note E_, 7
	;musicf3
	;musicf0 26
	octave 4
	;musicf3
	note F#, 15
	;musicf0 5
	;musicf1 71
	octave 3
	;musicf2
	note F#, 4
	note D_, 3
	note D_, 4
	note F#, 3
	note A_, 4
	note D_, 4
	inc_octave
	note D_, 4
	dec_octave
	note A_, 3
	;musicf3
	;musicf0 26
	octave 4
	note D_, 14
	;musicf0 5
	octave 5
	;musicf1 71
	;musicf2
	note D_, 4
	dec_octave
	note A_, 4
	note A_, 4
	inc_octave
	note D_, 3
	;musicf3
	;musicf0 26
	octave 3
	note B_, 14
	note E_, 15
	;musicf0 5
	;musicf1 71
	octave 3
	;musicf2
	note B_, 4
	note E_, 3
	note E_, 4
	note B_, 3
	note B_, 4
	note E_, 4
	inc_octave
	note E_, 4
	dec_octave
	note B_, 3
	;musicf3
	;musicf0 26
	octave 4
	note D_, 14
	;musicf0 5
	octave 5
	;musicf1 71
	;musicf2
	note E_, 4
	dec_octave
	note B_, 4
	note B_, 4
	inc_octave
	note E_, 3
	;musicf3
	;musicf0 26
	octave 3
	note G_, 14
	note A_, 4
	;musicf0 5
	;musicf1 71
	;musicf3
	;musicef 253
	octave 4
	note E_, 4
	rest 7
	;musicef 3
	octave 3
	note G_, 7
	rest 7
	inc_octave
	;musicf2
	note C_, 8
	dec_octave
	note G_, 7
	note G_, 7
	inc_octave
	note C_, 7
	note G_, 8
	dec_octave
	note G_, 7
	note G_, 7
	inc_octave
	note G_, 7
	;musicf0 26
	;musicf3
	octave 3
	;musicef 1
	note C_, 4
	note D_, 4
	note E_, 4
	note F_, 3
	note G_, 4
	note A_, 3
	note A#, 4
	note B_, 3
	;musicef 1
	;musicf1 70
	inc_octave
	note C_, 15
	;tie
	note C_, 14
	;tie
	note C_, 15
	note C_, 14
	dec_octave
	note A_, 15
	;tie
	note A_, 14
	;tie
	note A_, 15
	note A_, 14
	;musicef 4
	;musicf1 80
	rest 8
	octave 2
	note B_, 4
	rest 3
	;musicf2
	inc_octave
	note D_, 4
	dec_octave
	note B_, 3
	note B_, 4
	inc_octave
	note D_, 3
	note G_, 4
	dec_octave
	note B_, 4
	note B_, 4
	inc_octave
	note G_, 3
	note D_, 4
	dec_octave
	note B_, 3
	inc_octave
	note G_, 4
	note D_, 3
	;musicf3
	rest 4
	;musicef 252
	note G_, 4
	;musicef 4
	dec_octave
	note B_, 4
	rest 3
	;musicf2
	inc_octave
	note D_, 4
	dec_octave
	note B_, 3
	note B_, 4
	inc_octave
	note D_, 3
	note G_, 4
	dec_octave
	note B_, 4
	note B_, 4
	inc_octave
	note G_, 3
	note D_, 4
	dec_octave
	note B_, 3
	inc_octave
	note G_, 4
	note D_, 3
	;musicf3
	rest 4
	;musicef 252
	note G_, 4
	;musicef 4
	dec_octave
	note A_, 4
	rest 3
	;musicf2
	inc_octave
	note C_, 4
	dec_octave
	note A_, 3
	note A_, 4
	inc_octave
	note C_, 3
	note F_, 4
	dec_octave
	note A_, 4
	note A_, 4
	inc_octave
	note F_, 3
	note C_, 4
	dec_octave
	note A_, 3
	inc_octave
	note F_, 4
	note C_, 3
	;musicf3
	rest 4
	;musicef 252
	note F_, 4
	;musicef 4
	dec_octave
	note A_, 4
	rest 3
	;musicf2
	inc_octave
	note C_, 4
	dec_octave
	note A_, 3
	note A_, 4
	inc_octave
	note C_, 3
	note F_, 4
	dec_octave
	note A_, 4
	note A_, 4
	inc_octave
	note F_, 3
	note C_, 4
	dec_octave
	note A_, 3
	inc_octave
	note F_, 4
	note C_, 3
	;musicf3
	rest 4
	;musicef 252
	note F_, 4
	;musicef 4
	dec_octave
	note B_, 4
	rest 3
	;musicf2
	inc_octave
	note D_, 4
	dec_octave
	note B_, 3
	note B_, 4
	inc_octave
	note D_, 3
	note G_, 4
	dec_octave
	note B_, 4
	note B_, 4
	inc_octave
	note G_, 3
	note D_, 4
	dec_octave
	note B_, 3
	inc_octave
	note G_, 4
	note D_, 3
	;musicf3
	rest 4
	;musicef 252
	note G_, 4
	;musicef 4
	dec_octave
	note B_, 4
	rest 3
	;musicf2
	inc_octave
	note D_, 4
	dec_octave
	note B_, 3
	note B_, 4
	inc_octave
	note D_, 3
	note G_, 4
	dec_octave
	note B_, 4
	note B_, 4
	inc_octave
	note G_, 3
	note D_, 4
	dec_octave
	note B_, 3
	inc_octave
	note G_, 4
	note D_, 3
	;musicf3
	rest 4
	;musicef 252
	note G_, 4
	;musicef 4
	dec_octave
	note A_, 4
	rest 3
	;musicf2
	inc_octave
	note C_, 4
	dec_octave
	note A_, 3
	note A_, 4
	rest 3
	inc_octave
	note F_, 4
	dec_octave
	note A_, 4
	note A_, 4
	inc_octave
	note F_, 3
	note C_, 4
	dec_octave
	note A_, 3
	inc_octave
	note F_, 4
	note C_, 3
	;musicf3
	rest 4
	;musicef 252
	note F_, 4
	;musicef 4
	dec_octave
	note A_, 4
	rest 3
	;musicf2
	inc_octave
	note C_, 4
	dec_octave
	note A_, 3
	note A_, 4
	inc_octave
	note C_, 3
	note F_, 4
	dec_octave
	note A_, 4
	note A_, 4
	inc_octave
	note F_, 3
	note C_, 4
	dec_octave
	note A_, 3
	inc_octave
	note F_, 4
	note C_, 3
	;musicf3
	rest 4
	;musicef 252
	note F_, 4
	;musicef 4
	dec_octave
	note B_, 4
	rest 3
	;musicf2
	inc_octave
	note D_, 4
	dec_octave
	note B_, 3
	note B_, 4
	inc_octave
	note D_, 3
	note G_, 4
	dec_octave
	note B_, 4
	note B_, 4
	inc_octave
	note G_, 3
	note D_, 4
	dec_octave
	note B_, 3
	inc_octave
	note G_, 4
	note D_, 3
	;musicf3
	rest 4
	;musicef 252
	note G_, 4
	;musicef 4
	dec_octave
	note B_, 4
	rest 3
	;musicf2
	inc_octave
	note D_, 4
	dec_octave
	note B_, 3
	note B_, 4
	inc_octave
	note D_, 3
	note G_, 4
	dec_octave
	note B_, 4
	note B_, 4
	inc_octave
	note G_, 3
	note D_, 4
	dec_octave
	note B_, 3
	inc_octave
	note G_, 4
	note D_, 3
	;musicf3
	rest 4
	;musicef 252
	note G_, 4
	;musicef 4
	dec_octave
	note A_, 4
	rest 3
	;musicf2
	inc_octave
	note C_, 4
	dec_octave
	note A_, 3
	note A_, 4
	inc_octave
	note C_, 3
	note F_, 4
	dec_octave
	note A_, 4
	note A_, 4
	inc_octave
	note F_, 3
	note C_, 4
	dec_octave
	note A_, 3
	inc_octave
	note F_, 4
	note C_, 3
	;musicf3
	rest 4
	;musicef 252
	note F_, 4
	;musicef 4
	dec_octave
	note A_, 4
	rest 3
	;musicf2
	inc_octave
	note C_, 4
	dec_octave
	note A_, 3
	note A_, 4
	inc_octave
	note C_, 3
	note F_, 4
	dec_octave
	note A_, 4
	note A_, 4
	inc_octave
	note F_, 3
	note C_, 4
	dec_octave
	note A_, 3
	inc_octave
	note F_, 4
	note C_, 3
	dec_octave
	note B_, 4
	inc_octave
	note F_, 4
	dec_octave
	note G_, 4
	note B_, 3
	inc_octave
	note D_, 4
	dec_octave
	note G_, 3
	note B_, 4
	inc_octave
	note D_, 3
	note G_, 4
	dec_octave
	note B_, 4
	inc_octave
	note D_, 4
	note G_, 3
	note B_, 4
	note D_, 3
	note G_, 4
	note B_, 3
	inc_octave
	note D_, 4
	dec_octave
	note G_, 4
	note B_, 4
	inc_octave
	note D_, 3
	note G_, 4
	dec_octave
	note B_, 3
	inc_octave
	note D_, 4
	note G_, 3
	dec_octave
	dec_octave
	;musicf3
	note A_, 4
	note B_, 4
	inc_octave
	note D_, 4
	note G_, 3
	note B_, 4
	inc_octave
	note D_, 3
	note G_, 4
	note A_, 3
	inc_octave
	;musicf1 68
	note G_, 15
	;tie
	note G_, 14
	;tie
	note G_, 15
	;tie
	note G_, 14
	;tie
	note G_, 15
	;tie
	note G_, 14
	;tie
	note G_, 15
	;tie
	note G_, 14
	speed 2
	note G_, 14
	sound_ret


Music_TCG2Credits_Ch3: ; 1df4a3 (77:74a3)
	channel_volume 1
	;fade_wave 16
	load_wave 12, 12, 12, 12, 12, 12, 12, 12, 11, 12, 12, 12, 11, 12, 12, 12, 12, 0, 0, 0, 0, 0, 0, 0, 0, 0, 0, 0, 0, 0, 0, 11
	;musicdc 255
	speed 1
	channel_volume 1
	;musice9 96
	octave 5
	;musice8 8
	;vibrato_type 3
	vibrato 15, 3, 3
	channel_volume 2
	;musice8 8
	note G#, 3
	note A_, 12
	;tie
	note A_, 14
	;tie
	note A_, 15
	note G_, 14
	;tie
	note G_, 15
	;tie
	note G_, 14
	vibrato 0, 3, 3
	note D_, 15
	;tie
	note D_, 14
	note G#, 3
	vibrato 10, 3, 3
	;musice8 1
	note A_, 12
	;tie
	note A_, 14
	;tie
	note A_, 15
	;tie
	note A_, 14
	;musice8 8
	vibrato 0, 3, 3
	note G_, 15
	;tie
	note G_, 5
	note A_, 9
	;tie
	note A_, 15
	;musice8 4
	note B_, 14
	;musice8 8
	note B_, 3
	inc_octave
	note C_, 5
	;tie
	note C_, 14
	dec_octave
	note B_, 7
	;tie
	note B_, 15
	vibrato 16, 3, 3
	;musice8 1
	note G_, 14
	;tie
	speed 4
	note G_, 15
	;tie
	note G_, 14
	;tie
	speed 2
	note G_, 15
	;tie
	note G_, 14
	;musice8 8
	speed 1
	note G#, 3
	note A_, 12
	;tie
	note A_, 14
	;tie
	note A_, 15
	note G_, 14
	;tie
	note G_, 15
	;tie
	note G_, 14
	vibrato 0, 3, 3
	note D_, 15
	;tie
	note D_, 14
	note G#, 3
	vibrato 10, 3, 3
	;musice8 1
	note A_, 12
	;tie
	note A_, 14
	;tie
	note A_, 15
	vibrato 0, 3, 3
	;musice8 8
	note G_, 14
	;tie
	note G_, 15
	note A_, 14
	note B_, 15
	inc_octave
	;musice8 4
	note C_, 14
	;musice8 8
	note C#, 3
	note D_, 5
	;tie
	note D_, 14
	note C_, 7
	;tie
	note C_, 15
	dec_octave
	note B_, 14
	;tie
	note B_, 15
	vibrato 16, 3, 3
	;musice8 1
	note G_, 14
	;tie
	speed 4
	note G_, 15
	;tie
	note G_, 14
	;tie
	speed 1
	note G_, 2
	;tie
	speed 3
	note G_, 9
	speed 1
	;musice8 8
	channel_volume 1
	rest 15
	rest 14
	rest 15
	sound_call Branch_1dfa9d
	note B_, 15
	;tie
	note B_, 14
	vibrato 0, 3, 3
	inc_octave
	note D_, 15
	;musice8 1
	note F#, 14
	;tie
	note F#, 15
	note G_, 14
	;tie
	note G_, 15
	vibrato 14, 3, 3
	;musice8 1
	note D_, 14
	;tie
	note D_, 15
	;tie
	note D_, 14
	;tie
	note D_, 15
	;tie
	note D_, 14
	vibrato 0, 3, 3
	;musice8 8
	note C#, 3
	note D_, 12
	;tie
	note D_, 7
	note C_, 15
	;tie
	note C_, 7
	dec_octave
	;musice8 4
	note B_, 14
	;musice8 8
	note B_, 15
	;tie
	note B_, 14
	inc_octave
	note C_, 15
	dec_octave
	vibrato 14, 3, 3
	;musice8 1
	note E_, 14
	;tie
	note E_, 15
	;tie
	note E_, 14
	;tie
	note E_, 15
	;tie
	note E_, 14
	;tie
	note E_, 15
	;tie
	note E_, 14
	;tie
	note E_, 15
	;tie
	note E_, 14
	vibrato 0, 3, 3
	;musice8 8
	inc_octave
	note C#, 3
	note D_, 12
	;tie
	note D_, 7
	note C_, 15
	;tie
	note C_, 7
	dec_octave
	;musice8 4
	note B_, 14
	;musice8 8
	note B_, 15
	;tie
	note B_, 14
	inc_octave
	note C_, 15
	dec_octave
	vibrato 14, 3, 3
	;musice8 1
	note D#, 14
	;tie
	note D#, 15
	;tie
	note D#, 14
	;tie
	note D#, 15
	;tie
	note D#, 14
	vibrato 0, 3, 3
	;musice8 8
	vibrato 15, 3, 3
	note G_, 15
	;tie
	note G_, 14
	;tie
	note G_, 15
	;tie
	note G_, 14
	;musice8 1
	note A_, 15
	;tie
	note A_, 14
	;tie
	note A_, 15
	;tie
	note A_, 14
	vibrato 0, 3, 3
	;musice8 8
	channel_volume 2
	note B_, 15
	;tie
	note B_, 14
	;tie
	note B_, 15
	dec_octave
	channel_volume 1
	sound_call Branch_1dfa9d
	sound_call Branch_1dfb57
	speed 2
	note G_, 14
	speed 1
	rest 1
	rest 15
	rest 14
	rest 15
	rest 14
	rest 15
	rest 14
	note D#, 3
	;musice8 8
	vibrato 12, 3, 3
	note E_, 12
	;tie
	note E_, 14
	;tie
	note E_, 15
	vibrato 0, 3, 3
	;musice8 4
	note C_, 14
	;musice8 8
	note E_, 15
	;tie
	note E_, 14
	note A#, 3
	note B_, 12
	vibrato 14, 3, 3
	;musice8 1
	note A_, 14
	;tie
	note A_, 15
	;tie
	note A_, 14
	;tie
	note A_, 15
	;musice8 8
	vibrato 0, 3, 3
	note F_, 3
	note F#, 11
	;tie
	note F#, 15
	note E_, 14
	;tie
	note E_, 15
	vibrato 14, 3, 3
	;musice8 1
	note D_, 14
	;tie
	note D_, 14
	;tie
	note D_, 14
	;tie
	note D_, 15
	vibrato 0, 3, 3
	dec_octave
	;musice8 8
	note B_, 14
	inc_octave
	note D_, 15
	note A_, 14
	note F#, 15
	;musice8 1
	note G_, 14
	;tie
	note G_, 15
	;tie
	note G_, 14
	;tie
	note G_, 15
	vibrato 0, 3, 3
	note D_, 14
	;tie
	note D_, 15
	dec_octave
	note B_, 14
	;tie
	note B_, 15
	;musice8 8
	note B_, 3
	inc_octave
	vibrato 14, 3, 3
	note C_, 11
	;tie
	note C_, 15
	;tie
	note C_, 14
	vibrato 0, 3, 3
	;musice8 3
	note G_, 15
	;musice8 1
	note G_, 14
	;tie
	note G_, 15
	note C_, 14
	;tie
	note C_, 15
	vibrato 14, 3, 3
	;musice8 8
	dec_octave
	note B_, 14
	;tie
	note B_, 15
	;tie
	note B_, 14
	vibrato 0, 3, 3
	note A_, 15
	;tie
	note A_, 14
	note G_, 15
	;tie
	note G_, 14
	;musice8 1
	note A_, 15
	;tie
	note G_, 14
	note A_, 15
	;tie
	note A_, 14
	;tie
	note A_, 15
	inc_octave
	note D_, 14
	;tie
	note D_, 15
	;tie
	note D_, 14
	dec_octave
	;musice8 8
	note A#, 3
	vibrato 12, 3, 3
	;musice8 1
	note B_, 12
	;tie
	note B_, 14
	;tie
	note B_, 15
	;tie
	note B_, 14
	;tie
	note B_, 15
	;tie
	note B_, 14
	;tie
	note B_, 15
	;tie
	note B_, 7
	;tie
	note B_, 7
	;musice8 8
	rest 15
	rest 14
	vibrato 0, 3, 3
	;musice8 8
	inc_octave
	note D#, 3
	vibrato 12, 3, 3
	note E_, 12
	note E_, 14
	;tie
	note E_, 15
	vibrato 0, 3, 3
	;musice8 4
	note C_, 14
	;musice8 8
	note E_, 15
	;tie
	note E_, 14
	note A#, 3
	note B_, 12
	vibrato 14, 3, 3
	;musice8 1
	note A_, 14
	;tie
	note A_, 15
	;tie
	note A_, 14
	;tie
	note A_, 15
	vibrato 0, 3, 3
	note B_, 14
	;tie
	note B_, 15
	inc_octave
	note C_, 14
	;tie
	note C_, 15
	vibrato 14, 3, 3
	note D_, 14
	;tie
	note D_, 15
	;tie
	note D_, 14
	;tie
	note D_, 15
	vibrato 0, 3, 3
	;musice8 8
	note C#, 2
	note D_, 12
	;tie
	note D_, 15
	note E_, 14
	note F#, 15
	vibrato 14, 3, 3
	;musice8 1
	note G_, 14
	;tie
	note G_, 15
	;tie
	note G_, 14
	;tie
	note G_, 15
	vibrato 0, 3, 3
	note F#, 14
	;tie
	note F#, 15
	note E_, 14
	;tie
	note E_, 15
	vibrato 14, 3, 3
	note D_, 14
	;tie
	note D_, 16
	;tie
	note D_, 16
	;tie
	note D_, 16
	;tie
	note D_, 16
	;tie
	note D_, 16
	;tie
	note D_, 16
	;tie
	note D_, 16
	;tie
	note D_, 4
	;tie
	note D_, 15
	;tie
	note D_, 14
	;tie
	note D_, 15
	;tie
	note D_, 14
	;tie
	note D_, 15
	;musice8 8
	vibrato 0, 3, 3
	note F#, 3
	note G_, 11
	note F#, 15
	vibrato 14, 3, 3
	;musice8 1
	note D_, 14
	;tie
	speed 4
	note D_, 15
	;tie
	note D_, 14
	;tie
	speed 2
	note D_, 15
	;tie
	note D_, 14
	;tie
	speed 1
	note D_, 1
	;tie
	speed 2
	note D_, 14
	;musice8 8
	speed 1
	vibrato 0, 3, 3
	note C#, 3
	note D_, 12
	note C_, 14
	dec_octave
	vibrato 15, 3, 3
	;musice8 1
	note B_, 15
	;tie
	note B_, 14
	;tie
	note B_, 15
	;tie
	note B_, 14
	;tie
	note B_, 15
	vibrato 0, 3, 3
	inc_octave
	note D_, 14
	;tie
	note D_, 15
	;musice8 8
	note G#, 3
	vibrato 11, 3, 3
	;musice8 1
	note A_, 11
	;tie
	note A_, 15
	;tie
	note A_, 14
	;tie
	note A_, 15
	;tie
	note A_, 14
	;tie
	note A_, 15
	vibrato 0, 3, 3
	note G_, 14
	;tie
	note G_, 15
	vibrato 14, 3, 3
	;musice8 1
	speed 1
	note D_, 14
	;tie
	speed 4
	note D_, 15
	;tie
	note D_, 14
	;tie
	speed 1
	note D_, 15
	;tie
	note D_, 14
	;tie
	note D_, 15
	;tie
	note D_, 14
	vibrato 0, 3, 3
	dec_octave
	;musice8 8
	note B_, 15
	inc_octave
	note C_, 14
	;musice8 3
	note D_, 15
	;musice8 1
	vibrato 14, 3, 3
	note D_, 14
	;tie
	note D_, 15
	;tie
	note D_, 14
	;tie
	note D_, 15
	;tie
	note D_, 14
	;tie
	note D_, 15
	vibrato 0, 3, 3
	note C_, 14
	;tie
	note C_, 15
	dec_octave
	vibrato 14, 3, 3
	;musice8 8
	note B_, 14
	;tie
	note B_, 15
	;tie
	note B_, 14
	vibrato 0, 3, 3
	note A_, 15
	;tie
	note A_, 14
	note G_, 15
	;musice8 1
	note B_, 14
	;tie
	note B_, 15
	vibrato 14, 3, 3
	;musice8 8
	note A_, 14
	;tie
	note A_, 15
	;tie
	note A_, 14
	;tie
	note A_, 15
	vibrato 0, 3, 3
	channel_volume 2
	inc_octave
	;musice8 1
	note C_, 7
	;tie
	speed 2
	note C_, 11
	speed 8
	speed 1
	note E_, 7
	;tie
	speed 2
	note E_, 11
	speed 1
	;musice8 8
	note D_, 14
	;tie
	note D_, 15
	;musice8 4
	note C_, 14
	dec_octave
	note B_, 15
	note A_, 14
	note G_, 15
	note F#, 14
	inc_octave
	;musice8 8
	channel_volume 1
	note C#, 3
	note D_, 12
	note C_, 14
	;musice8 1
	dec_octave
	vibrato 14, 3, 3
	note B_, 15
	;tie
	note B_, 14
	;tie
	note B_, 15
	;tie
	note B_, 14
	;tie
	note B_, 15
	vibrato 0, 3, 3
	inc_octave
	note D_, 14
	;tie
	note D_, 15
	;musice8 8
	note G#, 3
	vibrato 11, 3, 3
	;musice8 1
	note A_, 11
	;tie
	note A_, 15
	;tie
	note A_, 14
	;tie
	note A_, 15
	;tie
	note A_, 14
	;tie
	note A_, 15
	vibrato 0, 3, 3
	note B_, 14
	;tie
	note B_, 15
	vibrato 14, 3, 3
	;musice8 8
	note D_, 14
	;tie
	note D_, 15
	;tie
	note D_, 14
	;tie
	note D_, 15
	;tie
	note D_, 14
	;tie
	note D_, 15
	;tie
	note D_, 14
	;tie
	note D_, 15
	vibrato 0, 3, 3
	dec_octave
	channel_volume 2
	note B_, 3
	inc_octave
	note C_, 11
	;tie
	note C_, 15
	dec_octave
	;musice8 4
	note B_, 14
	note A_, 15
	note G#, 14
	note F_, 15
	inc_octave
	;musice8 8
	channel_volume 1
	note C_, 14
	dec_octave
	note B_, 15
	inc_octave
	note C_, 14
	note C_, 15
	;tie
	note C_, 14
	;musice8 4
	note G_, 15
	;musice8 1
	note G_, 14
	;tie
	note G_, 15
	note C_, 14
	;tie
	note C_, 15
	dec_octave
	;musice8 8
	note A#, 3
	vibrato 11, 3, 3
	note B_, 11
	;tie
	note B_, 15
	;tie
	note B_, 14
	vibrato 0, 3, 3
	note A_, 15
	;tie
	note A_, 14
	note G_, 15
	;tie
	note G_, 14
	note A_, 15
	;tie
	note A_, 7
	note G_, 4
	note A_, 3
	vibrato 15, 3, 3
	note B_, 15
	;tie
	note B_, 14
	;tie
	note B_, 15
	;tie
	note B_, 14
	note A_, 15
	;tie
	note A_, 14
	;tie
	note A_, 15
	;tie
	note A_, 14
	note G_, 15
	;tie
	note G_, 14
	;tie
	note G_, 15
	;tie
	note G_, 14
	note A_, 15
	;tie
	note A_, 14
	;tie
	note A_, 15
	;tie
	note A_, 14
	note G_, 15
	;tie
	note G_, 14
	;tie
	note G_, 15
	;tie
	note G_, 14
	;tie
	note G_, 15
	;tie
	note G_, 14
	;tie
	note G_, 15
	dec_octave
	note G_, 7
	channel_volume 2
	note G_, 7
	;tie
	note G_, 15
	;tie
	note G_, 14
	;tie
	note G_, 15
	;tie
	note G_, 14
	;tie
	channel_volume 2
	;musice8 1
	note G_, 15
	;tie
	note G_, 14
	rest 15
	rest 14
	;musice8 8
.Loop1
	rest 15
	rest 14
	rest 8
	octave 3
	channel_volume 2
	;musice4 253
	note D_, 14
	note G_, 15
	note B_, 14
	inc_octave
	note D_, 15
	dec_octave
	note G_, 7
	;musice4 0
	channel_volume 1
	note G_, 7
	channel_volume 2
	note G_, 7
	;tie
	note G_, 15
	;tie
	note G_, 14
	;tie
	note G_, 15
	;tie
	note G_, 14
	;tie
	channel_volume 2
	;musice8 1
	note G_, 15
	;tie
	note G_, 14
	;musice8 8
	rest 15
	rest 14
	sound_loop 2, .Loop1
	rest 15
	rest 14
	rest 8
	octave 3
	channel_volume 2
	;musice4 253
	note D_, 14
	note G_, 15
	note B_, 14
	inc_octave
	note D_, 15
	dec_octave
	note G_, 7
	;musice4 0
	inc_octave
	channel_volume 1
	note C_, 7
	channel_volume 2
	note C_, 7
	;tie
	note C_, 15
	;tie
	note C_, 14
	;tie
	note C_, 15
	;tie
	note C_, 14
	;tie
	note C_, 15
	;tie
	note C_, 14
	channel_volume 3
	note C_, 15
	vibrato 0, 3, 3
	rest 14
	channel_volume 1
	rest 15
	rest 14
	rest 15
	sound_call Branch_1dfa9d
	sound_call Branch_1dfb57
	note G_, 15
	;tie
	note G_, 14
	;tie
	note G_, 15
	;tie
	note G_, 14
	;tie
	note G_, 15
	;tie
	note G_, 14
	;tie
	note G_, 15
	vibrato 0, 3, 3
	;musice8 8
	inc_octave
	note C_, 4
	note D_, 3
	note D#, 4
	note F_, 3
	note F#, 3
	vibrato 26, 3, 3
	note G_, 12
	;tie
	note G_, 14
	;tie
	note G_, 15
	;tie
	note G_, 14
	;tie
	note G_, 15
	;tie
	note G_, 14
	;tie
	note G_, 15
	;tie
	note G_, 14
	vibrato 29, 3, 3
	;musice8 1
	note F_, 15
	;tie
	note F_, 14
	;tie
	note F_, 15
	;tie
	note F_, 14
	;tie
	note F_, 15
	;tie
	note F_, 14
	;tie
	note F_, 1
	;tie
	speed 2
	note F_, 14
	speed 1
	;musice8 8
	vibrato 29, 3, 3
	note F#, 15
	;tie
	note F#, 14
	;tie
	note F#, 15
	;tie
	note F#, 14
	;tie
	note F#, 15
	;tie
	note F#, 14
	;tie
	note F#, 15
	;tie
	note F#, 14
	;musice8 1
	note D_, 15
	;tie
	note D_, 14
	;tie
	note D_, 15
	;tie
	note D_, 14
	;tie
	note D_, 15
	;tie
	note D_, 14
	;tie
	note D_, 15
	;musice8 8
	note F#, 4
	note G_, 3
	note A_, 4
	note A#, 3
	note B_, 15
	;tie
	note B_, 14
	;tie
	note B_, 15
	;tie
	note B_, 14
	;tie
	note B_, 15
	;tie
	note B_, 14
	;tie
	note B_, 15
	;tie
	note B_, 14
	;musice8 1
	note G_, 15
	;tie
	note G_, 14
	;tie
	note G_, 15
	;tie
	note G_, 14
	;tie
	note G_, 15
	;tie
	note G_, 14
	vibrato 0, 3, 3
	;musice8 8
	dec_octave
	note A_, 4
	note B_, 4
	inc_octave
	note C_, 4
	note D_, 3
	note E_, 4
	note F_, 3
	note G_, 4
	note G#, 3
	note G#, 3
	;musice8 1
	note A_, 12
	;tie
	note A_, 14
	;tie
	note A_, 15
	note F#, 14
	;tie
	note F#, 15
	;musice8 8
	note D_, 14
	note F#, 3
	vibrato 12, 3, 3
	note G_, 12
	;tie
	note G_, 14
	;tie
	note G_, 15
	vibrato 0, 3, 3
	note F#, 14
	note E_, 15
	dec_octave
	note B_, 14
	inc_octave
	note C_, 15
	;musice8 4
	note G_, 14
	;musice8 1
	vibrato 15, 3, 3
	note G_, 15
	;tie
	note G_, 14
	;tie
	note G_, 15
	;tie
	note G_, 14
	;tie
	note G_, 1
	;tie
	speed 2
	note G_, 14
	speed 1
	vibrato 0, 3, 3
	;musice8 8
	note F#, 3
	vibrato 12, 3, 3
	;musice8 1
	note G_, 12
	;tie
	note G_, 14
	;tie
	note G_, 15
	;tie
	note G_, 14
	vibrato 15, 3, 3
	note F#, 15
	;tie
	note F#, 14
	;tie
	note F#, 15
	;tie
	note F#, 14
	note G_, 15
	;tie
	note G_, 14
	;tie
	note G_, 15
	;tie
	note G_, 14
	;tie
	note G_, 15
	;tie
	note G_, 14
	;tie
	note G_, 15
	;tie
	note G_, 14
	;tie
	note G_, 15
	;tie
	note G_, 14
	;tie
	note G_, 15
	;tie
	note G_, 14
	vibrato 0, 3, 3
	;musice8 8
	note G#, 3
	;musice8 1
	vibrato 12, 3, 3
	;musice8 1
	note A_, 12
	;tie
	note A_, 14
	;tie
	note A_, 15
	;tie
	note A_, 14
	vibrato 0, 3, 3
	vibrato 15, 3, 3
	note G_, 15
	;tie
	note G_, 14
	;tie
	note G_, 15
	;tie
	note G_, 14
	;tie
	note G_, 15
	;tie
	note G_, 14
	;tie
	note G_, 15
	;tie
	note G_, 14
	;tie
	note G_, 15
	;tie
	note G_, 14
	;tie
	note G_, 15
	;tie
	note G_, 14
	vibrato 0, 3, 3
	;musice8 8
	note G#, 3
	vibrato 12, 3, 3
	;musice8 1
	note A_, 12
	;tie
	note A_, 14
	;tie
	note A_, 15
	;tie
	note A_, 14
	vibrato 0, 3, 3
	vibrato 15, 3, 3
	note G_, 15
	;tie
	note G_, 14
	;tie
	note G_, 15
	;tie
	note G_, 14
	;tie
	note G_, 15
	;tie
	note G_, 14
	;tie
	note G_, 15
	;tie
	note G_, 14
	;tie
	note G_, 15
	;tie
	note G_, 14
	;tie
	note G_, 15
	;tie
	note G_, 14
	vibrato 0, 3, 3
	;musice8 8
	note G#, 3
	vibrato 12, 3, 3
	;musice8 1
	note A_, 12
	;tie
	note A_, 14
	;tie
	note A_, 15
	;tie
	note A_, 14
	vibrato 0, 3, 3
	;musice8 8
	note A#, 3
	vibrato 26, 3, 3
	note B_, 12
	;tie
	note B_, 14
	;tie
	note B_, 15
	;tie
	note B_, 14
	;tie
	note B_, 15
	;tie
	note B_, 14
	;tie
	note B_, 15
	;tie
	note B_, 14
	;tie
	note B_, 15
	;tie
	note B_, 14
	;tie
	note B_, 15
	;tie
	note B_, 14
	;tie
	note B_, 15
	;tie
	note B_, 14
	;tie
	note B_, 15
	;tie
	note B_, 14
	vibrato 0, 3, 3
	;musice8 1
	speed 1
	channel_volume 2
	note B_, 14
	channel_volume 3
	note B_, 7
	rest 7
	sound_ret

Branch_1dfa9d:
	octave 3
	note A_, 14
	note B_, 15
	inc_octave
	note D_, 14
	note G_, 15
	vibrato 14, 3, 3
	;musice8 1
	note F_, 14
	;tie
	note F_, 15
	;tie
	note F_, 14
	;tie
	note F_, 15
	vibrato 0, 3, 3
	note A_, 14
	;tie
	note A_, 15
	inc_octave
	note C_, 14
	;tie
	note C_, 15
	dec_octave
	;musice8 8
	vibrato 14, 3, 3
	note B_, 14
	;tie
	note B_, 15
	;tie
	note B_, 14
	vibrato 0, 3, 3
	note G_, 15
	;musice8 1
	note D_, 14
	;tie
	note D_, 15
	note B_, 14
	;tie
	note B_, 15
	vibrato 14, 3, 3
	;musice8 8
	note A_, 14
	;tie
	note A_, 15
	;tie
	note A_, 14
	vibrato 0, 3, 3
	note F_, 15
	;musice8 1
	note C_, 14
	;tie
	note C_, 15
	note A_, 14
	;tie
	note A_, 15
	vibrato 14, 3, 3
	note G_, 14
	;tie
	note G_, 15
	;tie
	note G_, 14
	;tie
	note G_, 15
	vibrato 0, 3, 3
	;musice8 8
	dec_octave
	note A_, 14
	note B_, 15
	inc_octave
	note D_, 14
	note G_, 15
	note F_, 14
	;tie
	note F_, 15
	;musice8 1
	note A_, 14
	;tie
	note A_, 15
	inc_octave
	note C_, 14
	;tie
	note C_, 15
	note E_, 14
	;tie
	note E_, 15
	vibrato 14, 3, 3
	;musice8 8
	note D_, 14
	;tie
	note D_, 15
	;tie
	note D_, 14
	vibrato 0, 3, 3
	dec_octave
	note B_, 15
	;musice8 1
	note G_, 14
	;tie
	note G_, 15
	note F#, 14
	;tie
	note F#, 15
	vibrato 14, 3, 3
	note F_, 14
	;tie
	note F_, 15
	;tie
	note F_, 14
	;tie
	note F_, 15
	;tie
	note F_, 14
	;tie
	note F_, 15
	;tie
	note F_, 14
	;tie
	note F_, 15
	vibrato 0, 3, 3
	;musice8 8
	note D#, 14
	;musice8 1
	note E_, 15
	;tie
	note E_, 14
	;tie
	note E_, 15
	note B_, 14
	;tie
	note B_, 15
	note A_, 14
	;tie
	note A_, 15
	vibrato 14, 3, 3
	note D#, 14
	;tie
	note D#, 15
	;tie
	note D#, 14
	;tie
	note D#, 15
	vibrato 0, 3, 3
	;musice8 8
	note G#, 3
	note A_, 11
	;tie
	note A_, 15
	note G_, 14
	;musice8 4
	note A_, 15
	;musice8 8
	note A#, 3
	vibrato 11, 3, 3
	note B_, 11
	;tie
	sound_ret

Branch_1dfb57:
	octave 4
	;musice8 8
	note B_, 15
	;tie
	note B_, 14
	vibrato 0, 3, 3
	inc_octave
	note D_, 15
	;musice8 1
	note A_, 14
	;tie
	note A_, 15
	note G_, 14
	;tie
	note G_, 15
	vibrato 14, 3, 3
	note D_, 14
	;tie
	note D_, 15
	;tie
	note D_, 14
	;tie
	note D_, 15
	;tie
	note D_, 14
	vibrato 0, 3, 3
	;musice8 8
	note C#, 3
	note D_, 12
	;tie
	note D_, 7
	note C_, 15
	;tie
	note C_, 7
	dec_octave
	;musice8 4
	note B_, 14
	;musice8 8
	note B_, 15
	;tie
	note B_, 14
	inc_octave
	note C_, 15
	dec_octave
	note E_, 14
	;tie
	note E_, 15
	note G#, 3
	note A_, 11
	;tie
	note A_, 15
	;tie
	note A_, 4
	note G_, 5
	note A_, 5
	note G_, 15
	;tie
	note G_, 14
	note F#, 15
	;tie
	note F#, 14
	note E_, 15
	note F#, 14
	;tie
	note F#, 15
	vibrato 14, 3, 3
	;musice8 1
	note G_, 14
	;tie
	note G_, 15
	;tie
	note G_, 14
	;tie
	note G_, 15
	;tie
	note G_, 14
	;tie
	note G_, 15
	;tie
	note G_, 14
	;tie
	note G_, 15
	;tie
	note G_, 14
	;tie
	sound_ret


Music_TCG2Credits_Ch4: ; 1dfbb7 (77:7bb7)
	toggle_noise 6
	octave 1
	;musicdc 255
	drum_speed 4
.Loop1
	rest 15
	rest 14
	sound_loop 40, .Loop1
	drum_speed 1
.Loop2
	drum_note 4, 15
	drum_note 4, 14
	rest 15
	rest 14
	rest 15
	rest 14
	rest 15
	rest 14
	sound_loop 15, .Loop2
	drum_note 4, 15
	drum_note 4, 14
	rest 15
	rest 14
	rest 15
	rest 14
	;musicef 252
	drum_note 3, 4
	drum_note 3, 4
	drum_note 3, 4
	drum_note 3, 3
	;musicef 0
	drum_note 3, 4
	drum_note 3, 3
	drum_note 3, 4
	drum_note 3, 3
	sound_call Branch_1dfd47
	sound_call Branch_1dfd54
	sound_call Branch_1dfd47
	sound_call Branch_1dfd54
	sound_call Branch_1dfd47
	sound_call Branch_1dfd54
	drum_note 1, 15
	drum_note 1, 14
	drum_note 4, 15
	drum_note 1, 7
	drum_note 1, 7
	drum_note 2, 15
	drum_note 1, 14
	drum_note 4, 15
	drum_note 5, 14
	drum_note 4, 15
	drum_note 2, 14
	drum_note 5, 15
	;musicef 250
	drum_note 2, 4
	;musicef 252
	drum_note 2, 5
	drum_note 2, 5
	;musicef 0
	drum_note 2, 15
	drum_note 2, 14
	drum_note 4, 15
	drum_note 2, 14
	sound_call Branch_1dfd47
	sound_call Branch_1dfd54
	sound_call Branch_1dfd47
	sound_call Branch_1dfd54
	sound_call Branch_1dfd47
	sound_call Branch_1dfd54
	sound_call Branch_1dfd47
	drum_note 1, 15
	drum_note 2, 14
	drum_note 5, 15
	;musicef 250
	drum_note 2, 4
	;musicef 252
	drum_note 2, 5
	drum_note 2, 5
	;musicef 0
	drum_note 2, 15
	drum_note 2, 14
	drum_note 5, 15
	drum_note 2, 14
	sound_call Branch_1dfd61
	drum_note 4, 15
	drum_note 2, 14
	drum_note 4, 15
	drum_note 1, 14
	drum_note 2, 15
	drum_note 1, 14
	drum_note 4, 15
	;musicef 252
	drum_note 2, 4
	drum_note 2, 5
	drum_note 2, 5
	;musicef 0
	sound_call Branch_1dfd61
	drum_note 4, 15
	drum_note 2, 14
	drum_note 4, 15
	;musicef 250
	drum_note 2, 4
	;musicef 252
	drum_note 2, 5
	drum_note 2, 5
	;musicef 0
	drum_note 2, 15
	drum_note 2, 14
	drum_note 5, 15
	drum_note 1, 14
	sound_call Branch_1dfd61
	drum_note 4, 15
	drum_note 2, 14
	drum_note 4, 15
	drum_note 1, 14
	drum_note 2, 15
	drum_note 1, 14
	drum_note 4, 15
	;musicef 252
	drum_note 2, 4
	drum_note 2, 5
	drum_note 2, 5
	;musicef 0
	drum_note 1, 15
	drum_note 2, 14
	drum_note 5, 15
	;musicef 250
	drum_note 2, 4
	;musicef 252
	drum_note 2, 5
	drum_note 2, 5
	;musicef 0
	drum_note 2, 15
	drum_note 1, 14
	drum_note 1, 15
	drum_speed 6
	;musicef 2
	drum_note 6, 9
	drum_speed 1
	rest 4
	rest 14
	rest 15
	;musicef 0
	drum_note 4, 14
	drum_speed 4
	drum_note 5, 7
	drum_speed 1
	rest 1
	sound_call Branch_1dfd6e
	sound_call Branch_1dfd7a
	sound_call Branch_1dfd6e
	drum_note 1, 15
	drum_note 2, 14
	drum_note 5, 15
	drum_note 1, 7
	drum_note 1, 7
	drum_note 2, 15
	drum_note 2, 14
	drum_note 1, 15
	drum_note 2, 14
	sound_call Branch_1dfd6e
	sound_call Branch_1dfd7a
	sound_call Branch_1dfd6e
	drum_note 1, 15
	drum_note 2, 14
	drum_note 5, 15
	drum_note 1, 7
	drum_note 1, 7
	drum_note 2, 15
	drum_note 2, 14
	drum_note 1, 15
	drum_note 2, 14
	sound_call Branch_1dfd6e
	sound_call Branch_1dfd7a
	sound_call Branch_1dfd6e
	drum_note 1, 15
	drum_note 2, 14
	drum_note 5, 15
	drum_note 1, 7
	drum_note 1, 7
	drum_note 2, 15
	drum_note 2, 14
	drum_note 1, 15
	drum_note 2, 14
	sound_call Branch_1dfd6e
	drum_note 1, 15
	drum_note 2, 14
	drum_note 5, 15
	;musicef 250
	drum_note 2, 4
	;musicef 252
	drum_note 2, 5
	drum_note 2, 5
	;musicef 0
	drum_note 2, 15
	drum_note 2, 14
	drum_note 1, 15
	drum_note 2, 14
	sound_call Branch_1dfd8d
	sound_call Branch_1dfd8d
	sound_call Branch_1dfd8d
	sound_call Branch_1dfd8d
	sound_call Branch_1dfd8d
	sound_call Branch_1dfd8d
	sound_call Branch_1dfd8d
	drum_note 1, 15
	drum_note 4, 14
	drum_note 2, 15
	drum_note 4, 14
	drum_note 1, 15
	drum_note 4, 14
	drum_note 2, 15
	drum_note 2, 7
	drum_note 2, 7
	drum_note 1, 15
	drum_note 2, 7
	drum_note 2, 7
	drum_note 2, 15
	drum_note 5, 14
	drum_note 1, 15
	drum_note 2, 14
	drum_note 1, 15
	drum_note 2, 7
	drum_note 2, 7
	drum_note 2, 15
	drum_note 5, 4
	;musicef 250
	drum_note 2, 5
	;musicef 252
	drum_note 2, 5
	;musicef 0
	drum_note 2, 8
	drum_note 2, 7
	drum_note 5, 14
	drum_note 1, 15
	drum_note 4, 14
	drum_note 2, 15
	drum_note 4, 14
	drum_note 1, 15
	drum_note 4, 7
	drum_note 2, 7
	drum_note 2, 8
	drum_note 2, 7
	drum_note 2, 14
	drum_speed 7
	drum_note 6, 16
	drum_speed 1
	rest 4
	sound_call Branch_1dfd8d
	sound_call Branch_1dfd8d
	sound_call Branch_1dfd8d
	sound_call Branch_1dfd8d
	sound_call Branch_1dfd8d
	drum_note 1, 15
	drum_note 4, 14
	drum_note 2, 15
	drum_note 4, 14
	drum_note 1, 8
	drum_note 2, 7
	drum_note 4, 7
	;musicef 250
	drum_note 2, 4
	;musicef 252
	drum_note 2, 3
	;musicef 0
	drum_note 2, 8
	drum_note 2, 7
	drum_note 2, 14
	drum_note 2, 15
	drum_note 1, 7
	drum_note 1, 7
	drum_note 2, 15
	drum_note 1, 14
	drum_note 2, 8
	drum_note 1, 14
	drum_note 1, 7
	drum_note 2, 15
	drum_note 1, 14
	drum_speed 7
	drum_note 6, 16
	drum_speed 1
	rest 4
	sound_ret

Branch_1dfd47:
	octave 1
	drum_speed 1
	drum_note 1, 15
	drum_note 1, 14
	drum_note 4, 15
	drum_note 1, 7
	drum_note 1, 7
	drum_note 2, 15
	drum_note 1, 14
	drum_note 4, 15
	drum_note 1, 14
	sound_ret

Branch_1dfd54:
	octave 1
	drum_speed 1
	drum_note 1, 15
	drum_note 1, 14
	drum_note 4, 15
	drum_note 1, 7
	drum_note 1, 7
	drum_note 2, 15
	drum_note 1, 14
	drum_note 4, 15
	drum_note 2, 14
	sound_ret

Branch_1dfd61:
	octave 1
	drum_speed 1
	drum_note 1, 15
	drum_note 1, 14
	drum_note 4, 15
	drum_note 1, 7
	drum_note 1, 7
	drum_note 2, 15
	drum_note 1, 14
	drum_note 4, 15
	drum_note 5, 14
	sound_ret

Branch_1dfd6e:
	octave 1
	drum_speed 1
	drum_note 1, 15
	drum_note 1, 14
	drum_note 4, 15
	drum_note 1, 14
	drum_note 2, 15
	drum_note 1, 14
	drum_note 4, 15
	drum_note 1, 14
	sound_ret

Branch_1dfd7a:
	octave 1
	drum_speed 1
	drum_note 1, 15
	drum_note 2, 14
	drum_note 5, 15
	drum_note 1, 7
	drum_note 1, 7
	drum_note 2, 15
	drum_note 1, 14
	drum_note 4, 15
	;musicef 252
	drum_note 2, 4
	drum_note 2, 5
	drum_note 2, 5
	;musicef 0
	sound_ret

Branch_1dfd8d:
	octave 1
	drum_speed 1
	drum_note 1, 15
	drum_note 4, 14
	drum_note 2, 15
	drum_note 4, 14
	drum_note 1, 15
	drum_note 4, 14
	drum_note 2, 15
	drum_note 5, 14
	sound_ret
; 0x1dfd99
