Music_Diddly1:
	channel_count 3
	channel 1, Music_Diddly1_Ch1
	channel 2, Music_Diddly1_Ch2
	channel 3, Music_Diddly1_Ch3

Music_Diddly1_Ch2: ; 1ebc57 (7a:7c57)
	notetype1 10
	;musicf0 2
	notetype0 1
	octave 2
	note D#, 2
	note E_, 3
	note D#, 3
	note E_, 3
	;musicef 254
	note D#, 2
	note E_, 3
	;musicef 255
	note D#, 3
	note E_, 3
	;musicef 1
	note D#, 2
	note E_, 3
	;musicef 1
	note D#, 3
	note E_, 3
	note D#, 2
	note E_, 3
	note D#, 3
	note E_, 3
	note F_, 2
	note G#, 3
	note F_, 3
	note G#, 3
	note B_, 2
	inc_octave
	note D_, 3
	note F_, 3
	note G#, 3
	note F_, 2
	note G#, 3
	note B_, 3
	inc_octave
	note D_, 3
	note F_, 2
	dec_octave
	note B_, 3
	inc_octave
	note D_, 3
	note F_, 2
	note G#, 3
	note B_, 3
	inc_octave
	note D_, 3
	dec_octave
	note G#, 2
	;musicef 1
	note B_, 3
	inc_octave
	note D_, 3
	note F_, 3
	dec_octave
	;musicef 253
	note G#, 2
	note B_, 3
	inc_octave
	note D_, 3
	note F_, 3
	dec_octave
	note G#, 2
	;musicef 255
	note B_, 3
	inc_octave
	note D_, 3
	note F_, 3
	dec_octave
	;musicef 254
	note G#, 2
	note B_, 3
	inc_octave
	note D_, 3
	note F_, 3
	dec_octave
	;musicef 255
	note G#, 2
	note B_, 3
	inc_octave
	note D_, 3
	note F_, 3
	sound_ret


Music_Diddly1_Ch1: ; 1ebcb5 (7a:7cb5)
	notetype1 10
	;musicf0 2
	notetype0 1
	octave 1
	;musicef 1
	note G_, 2
	note G#, 3
	note G_, 3
	note G#, 3
	;musicef 254
	note G_, 2
	note G#, 3
	;musicef 255
	note G_, 3
	note G#, 3
	note G_, 2
	note G#, 3
	;musicef 1
	note G_, 3
	note G#, 3
	note G_, 2
	note G#, 3
	note B_, 3
	inc_octave
	note D_, 3
	dec_octave
	note B_, 2
	inc_octave
	note D_, 3
	dec_octave
	note B_, 3
	inc_octave
	note D_, 3
	dec_octave
	note B_, 2
	inc_octave
	note D_, 3
	note E_, 3
	note G#, 3
	note A#, 2
	inc_octave
	note D_, 3
	dec_octave
	note A#, 3
	inc_octave
	note D_, 3
	note E_, 2
	note D_, 3
	note E_, 3
	note G#, 3
	note E_, 2
	note G#, 3
	note A#, 3
	note G#, 3
	note A#, 2
	inc_octave
	note D_, 3
	dec_octave
	note G#, 3
	note A#, 3
	;musicef 253
	note A#, 2
	inc_octave
	note D_, 3
	dec_octave
	note G#, 3
	note A#, 3
	;musicef 254
	note A#, 2
	inc_octave
	note D_, 3
	dec_octave
	note G#, 3
	note A#, 3
	;musicef 254
	note A#, 2
	inc_octave
	note D_, 3
	dec_octave
	note G#, 3
	note A#, 3
	;musicef 255
	note A#, 2
	inc_octave
	note D_, 3
	dec_octave
	note G#, 3
	note A#, 3
	sound_ret


Music_Diddly1_Ch3: ; 1ebd17 (7a:7d17)
	notetype1 10
	;notetype2 15
	load_wave 14, 14, 14, 14, 14, 14, 14, 14, 14, 14, 14, 14, 14, 13, 12, 11, 2, 1, 0, 0, 0, 0, 0, 0, 0, 0, 0, 0, 0, 0, 0, 0
	notetype0 1
	;musicdc 255
	octave 2
	notetype1 1
	note C_, 2
	note C#, 3
	notetype1 2
	;musicef 252
	note C_, 3
	note C#, 3
	note C_, 2
	note C#, 3
	note C_, 3
	note C#, 3
	note C_, 2
	note C#, 3
	note C_, 3
	note C#, 3
	note C_, 2
	note C#, 3
	note E_, 3
	note G_, 3
	note E_, 2
	note G_, 3
	note A#, 3
	notetype1 1
	inc_octave
	note C_, 3
	dec_octave
	note G_, 2
	note A#, 3
	inc_octave
	note C_, 3
	note E_, 3
	dec_octave
	note A#, 2
	inc_octave
	note C_, 3
	note E_, 3
	note G_, 3
	note C_, 2
	note E_, 3
	note G_, 3
	note A#, 3
	note E_, 2
	note G_, 3
	note A#, 3
	inc_octave
	note C_, 3
	dec_octave
	note G_, 2
	note A#, 3
	inc_octave
	note C_, 3
	note E_, 3
	dec_octave
	notetype1 2
	note G_, 2
	note A#, 3
	inc_octave
	note C_, 3
	note E_, 3
	dec_octave
	notetype1 128
	note G_, 2
	note A#, 3
	inc_octave
	note C_, 3
	note E_, 3
	sound_ret
; 0x1ebd67
