Music_GRCastle:
	channel_count 4
	channel 1, Music_GRCastle_Ch1
	channel 2, Music_GRCastle_Ch2
	channel 3, Music_GRCastle_Ch3
	channel 4, Music_GRCastle_Ch4

Music_GRCastle_Ch2: ; 1f213c (7c:613c)
	notetype1 10
	notetype0 1
	rest 12
	;musicf0 8
	octave 1
	;vibrato_type 5
	vibrato 1, 3, 3
	;musicf1 80
	;musicf3
	;musice4 0
	note B_, 9
	rest 4
	note B_, 9
	rest 3
	rest 13
	inc_octave
	note E_, 2
	rest 2
	note E_, 1
	rest 3
	note E_, 1
	rest 3
	vibrato 7, 3, 3
	note E_, 13
	;tie
	note E_, 12
	vibrato 0, 3, 3
	note D_, 13
	note E_, 12
	note E_, 1
	rest 4
	note E_, 1
	rest 3
	note E_, 1
	rest 3
	inc_octave
	;musicf2
	note E_, 12
	note E_, 13
	;musicf3
	dec_octave
	note E_, 2
	rest 4
	rest 1
	rest 5
	note G_, 7
	note A_, 6
	note G_, 12
	note E_, 13
	note D_, 12
	note E_, 9
	rest 4
	note E_, 9
	rest 3
	rest 13
	note E_, 2
	rest 2
	note E_, 1
	rest 3
	note E_, 1
	rest 3
	vibrato 7, 3, 3
	note E_, 13
	;tie
	note E_, 12
	vibrato 0, 3, 3
	note D_, 13
	note E_, 12
	note E_, 1
	rest 4
	note E_, 1
	rest 3
	note E_, 1
	rest 3
	note A_, 3
	;tie
	;musice4 17
	note A_, 3
	;tie
	;musice4 0
	note A#, 6
	note A_, 13
	note G_, 12
.MainLoop
	;musicf0 0
	;musicf3
	octave 2
	notetype1 7
	note E_, 16
	;tie
	note E_, 9
	notetype1 11
	note E_, 16
	;tie
	note E_, 9
	;musicf0 0
	;musicef 2
	;musicf1 119
	octave 2
	;vibrato_type 5
	vibrato 37, 3, 3
	note A_, 4
	;tie
	;musice4 8
	note A_, 3
	;tie
	;musice4 16
	note A_, 3
	;tie
	;musice4 24
	note A_, 3
	;tie
	;musice4 0
	note A#, 3
	;tie
	;musice4 8
	note A#, 3
	;tie
	;musice4 16
	note A#, 3
	;tie
	;musice4 24
	note A#, 3
	;tie
	;musice4 0
	note B_, 13
	;tie
	note B_, 12
	;tie
	note B_, 13
	;tie
	note B_, 12
	;tie
	note B_, 13
	;tie
	note B_, 12
	;tie
	note B_, 13
	;tie
	note B_, 12
	;tie
	note B_, 13
	;tie
	note B_, 12
	;tie
	note B_, 9
	note B_, 16
	;musicf3
	note A_, 13
	note B_, 12
	vibrato 25, 3, 3
	inc_octave
	;musicf2
	note C_, 13
	;tie
	note C_, 12
	;tie
	note C_, 13
	;tie
	note C_, 12
	;tie
	note C_, 13
	;tie
	note C_, 12
	;tie
	note C_, 13
	note C_, 12
	vibrato 29, 3, 3
	;musicf3
	note C_, 4
	;tie
	;musice4 7
	note C_, 3
	;tie
	;musice4 14
	note C_, 3
	;tie
	;musice4 22
	note C_, 3
	;tie
	;musice4 0
	note C#, 3
	;tie
	;musice4 8
	note C#, 3
	;tie
	;musice4 16
	note C#, 3
	;tie
	;musice4 24
	note C#, 3
	;tie
	;musice4 0
	note D_, 13
	;tie
	note D_, 12
	vibrato 13, 3, 3
	;musicf2
	note C_, 13
	;tie
	note C_, 12
	;tie
	note C_, 13
	note C_, 12
	vibrato 25, 3, 3
	dec_octave
	;musicf3
	note A_, 4
	;tie
	;musice4 8
	note A_, 3
	;tie
	;musice4 16
	note A_, 3
	;tie
	;musice4 24
	note A_, 3
	;tie
	;musice4 0
	note A#, 3
	;tie
	;musice4 8
	note A#, 3
	;tie
	;musice4 16
	note A#, 3
	;tie
	;musice4 24
	note A#, 3
	;tie
	;musice4 0
	note B_, 13
	inc_octave
	note C_, 12
	dec_octave
	;musicf2
	note B_, 13
	;tie
	note B_, 12
	;tie
	note B_, 13
	;tie
	note B_, 12
	;tie
	note B_, 13
	;tie
	note B_, 12
	;tie
	note B_, 13
	;tie
	note B_, 12
	;tie
	note B_, 13
	;tie
	note B_, 12
	note B_, 13
	;tie
	note B_, 12
	vibrato 37, 3, 3
	note A_, 13
	;tie
	note A_, 12
	;tie
	note A_, 13
	;tie
	note A_, 12
	;tie
	note A_, 13
	;tie
	note A_, 12
	;tie
	note A_, 13
	note A_, 12
	;musicf3
	inc_octave
	note C_, 4
	;tie
	;musice4 7
	note C_, 3
	;tie
	;musice4 14
	note C_, 3
	;tie
	;musice4 22
	note C_, 3
	;tie
	;musice4 0
	note C#, 3
	;tie
	;musice4 8
	note C#, 3
	;tie
	;musice4 16
	note C#, 3
	;tie
	;musice4 24
	note C#, 3
	;tie
	;musice4 0
	note D_, 13
	dec_octave
	note A_, 12
	;tie
	note A_, 13
	;tie
	note A_, 12
	inc_octave
	;musicf2
	note D_, 13
	note D_, 12
	dec_octave
	note A_, 4
	;tie
	;musice4 8
	note A_, 3
	;tie
	;musice4 16
	note A_, 3
	;tie
	;musice4 24
	note A_, 3
	;tie
	;musice4 0
	note A#, 3
	;tie
	;musice4 8
	note A#, 3
	;tie
	;musice4 16
	note A#, 3
	;tie
	;musice4 24
	note A#, 3
	;tie
	;musice4 0
	note B_, 13
	;tie
	note B_, 12
	;tie
	note B_, 13
	;tie
	note B_, 12
	;tie
	note B_, 13
	;tie
	note B_, 12
	;tie
	note B_, 13
	;tie
	note B_, 12
	;tie
	note B_, 13
	;tie
	note B_, 12
	;tie
	note B_, 9
	note B_, 16
	;musicf3
	note A_, 13
	note B_, 12
	vibrato 25, 3, 3
	inc_octave
	;musicf2
	note C_, 13
	;tie
	note C_, 12
	;tie
	note C_, 13
	;tie
	note C_, 12
	;tie
	note C_, 13
	;tie
	note C_, 12
	;tie
	note C_, 13
	note C_, 12
	note C_, 4
	;tie
	;musice4 7
	note C_, 3
	;tie
	;musice4 14
	note C_, 3
	;tie
	;musice4 22
	note C_, 3
	;tie
	;musice4 0
	note C#, 3
	;tie
	;musice4 8
	note C#, 3
	;tie
	;musice4 16
	note C#, 3
	;tie
	;musice4 24
	note C#, 3
	;tie
	;musice4 0
	note D_, 13
	;tie
	note D_, 12
	vibrato 13, 3, 3
	;musicf2
	note E_, 13
	;tie
	note E_, 12
	;tie
	note E_, 13
	note E_, 12
	vibrato 25, 3, 3
	;musicf3
	note E_, 4
	;tie
	;musice4 8
	note E_, 3
	;tie
	;musice4 16
	note E_, 3
	;tie
	;musice4 24
	note E_, 3
	;tie
	;musice4 0
	note F_, 3
	;tie
	;musice4 8
	note F_, 3
	;tie
	;musice4 16
	note F_, 3
	;tie
	;musice4 24
	note F_, 3
	;tie
	;musice4 0
	note F#, 13
	note G_, 12
	;musicf2
	note F#, 13
	;tie
	note F#, 12
	;tie
	note F#, 13
	;tie
	note F#, 12
	;tie
	note F#, 13
	;tie
	note F#, 12
	;tie
	note F#, 13
	;musicf3
	note F_, 4
	note E_, 4
	note D#, 4
	note D_, 16
	;tie
	note D_, 9
	;musicf2
	note F#, 13
	note F#, 12
	;musicf3
	note F_, 4
	;musicf2
	note F#, 9
	;tie
	note F#, 12
	note F#, 13
	;musicf3
	note E_, 12
	;tie
	note E_, 13
	;tie
	note E_, 12
	;tie
	note E_, 13
	;tie
	note E_, 12
	;tie
	note E_, 16
	;tie
	note E_, 9
	;tie
	note E_, 4
	;tie
	;musice4 249
	note E_, 3
	;tie
	;musice4 242
	note E_, 3
	;tie
	;musice4 235
	note E_, 3
	;tie
	;musice4 0
	note D#, 3
	;tie
	;musice4 250
	note D#, 3
	;tie
	;musice4 244
	note D#, 3
	;tie
	;musice4 240
	note D#, 2
	;tie
	;musice4 0
	note D_, 1
	;musicf0 14
	;musicf1 71
	;musicf3
	octave 2
	notetype1 8
	note B_, 16
	;tie
	note B_, 9
	;musicf0 14
	note B_, 3
	inc_octave
	;musicef 1
	note D_, 16
	;tie
	note D_, 6
	note D#, 4
	;musicef 1
	note E_, 13
	;tie
	note E_, 12
	;tie
	note E_, 9
	note A#, 3
	vibrato 25, 3, 3
	;musicf2
	note B_, 9
	;tie
	note B_, 13
	;tie
	note B_, 12
	;tie
	note B_, 13
	;tie
	note B_, 12
	;tie
	note B_, 13
	;tie
	note B_, 12
	;tie
	note B_, 13
	note B_, 12
	;musicf3
	note A_, 16
	;tie
	note A_, 9
	note G_, 16
	;tie
	note G_, 9
	note F#, 13
	note G_, 12
	note F#, 13
	note D_, 12
	;tie
	note D_, 13
	note C_, 4
	dec_octave
	note B_, 4
	note A#, 4
	;musicf2
	note A_, 13
	;tie
	note A_, 12
	;tie
	note A_, 13
	;tie
	note A_, 12
	;tie
	note A_, 13
	;tie
	note A_, 12
	;tie
	note A_, 13
	note A_, 12
	;musicf3
	note F#, 13
	;tie
	note F#, 12
	note G_, 13
	;tie
	note G_, 12
	;tie
	note G_, 13
	inc_octave
	note D#, 3
	;musicf2
	note E_, 9
	;tie
	note E_, 13
	;tie
	note E_, 12
	;tie
	note E_, 13
	;tie
	note E_, 12
	;tie
	note E_, 13
	;tie
	note E_, 12
	;tie
	note E_, 13
	note E_, 12
	;musicf3
	note D#, 4
	note E_, 15
	note F#, 6
	;tie
	note F#, 13
	note G_, 12
	note F#, 4
	note G_, 3
	note F#, 6
	;tie
	note F#, 12
	note D_, 13
	dec_octave
	note A#, 6
	;musicf2
	note B_, 6
	;tie
	note B_, 13
	;tie
	note B_, 12
	;tie
	note B_, 13
	;tie
	note B_, 12
	;tie
	note B_, 13
	;tie
	note B_, 12
	;tie
	note B_, 13
	note B_, 12
	;musicf3
	inc_octave
	note C_, 16
	;tie
	note C_, 9
	note D_, 16
	;tie
	note D_, 9
	note D#, 4
	note E_, 13
	;tie
	note E_, 12
	;tie
	note E_, 9
	note A#, 3
	vibrato 25, 3, 3
	;musicf2
	note B_, 9
	;tie
	note B_, 13
	;tie
	note B_, 12
	;tie
	note B_, 13
	;tie
	note B_, 12
	;tie
	note B_, 13
	;tie
	note B_, 12
	;tie
	note B_, 13
	note B_, 12
	;musicf3
	note A_, 16
	;tie
	note A_, 9
	note G_, 16
	;tie
	note G_, 9
	note F#, 13
	note G_, 12
	note F#, 13
	note G#, 3
	note A_, 9
	;tie
	note A_, 13
	note G_, 4
	note F#, 4
	note E_, 4
	;musicf2
	note D_, 13
	;tie
	note D_, 12
	;tie
	note D_, 13
	;tie
	note D_, 12
	;tie
	note D_, 13
	note D_, 12
	;musicf3
	dec_octave
	note A#, 4
	note B_, 9
	;tie
	note B_, 12
	inc_octave
	note D_, 13
	;tie
	note D_, 12
	note D#, 4
	note E_, 9
	;tie
	note E_, 12
	note D_, 13
	;musicf2
	note E_, 12
	;tie
	note E_, 13
	;tie
	note E_, 12
	;tie
	note E_, 13
	;tie
	note E_, 12
	;tie
	note E_, 13
	;tie
	note E_, 12
	;tie
	note E_, 13
	note E_, 12
	;musicf3
	note E_, 13
	;tie
	note E_, 6
	note A_, 6
	;tie
	note A_, 13
	note G_, 12
	note F#, 4
	note G_, 3
	;musicf2
	note F#, 6
	;tie
	note F#, 12
	;tie
	note F#, 13
	;tie
	note F#, 12
	;tie
	note F#, 13
	;tie
	note F#, 12
	;tie
	note F#, 13
	;tie
	note F#, 12
	;tie
	note F#, 13
	;tie
	note F#, 12
	;tie
	note F#, 13
	;tie
	note F#, 12
	;tie
	note F#, 13
	;tie
	note F#, 12
	;tie
	note F#, 13
	note F#, 12
	;musicf3
	octave 1
	;musicf0 8
	;vibrato_type 5
	vibrato 50, 3, 3
	;musice4 247
.Loop1
	note E_, 16
	;tie
	note E_, 16
	;tie
	note E_, 16
	;tie
	note E_, 16
	;tie
	note E_, 16
	;tie
	note E_, 16
	;tie
	sound_loop 4, .Loop1
	note E_, 16
	;musice4 0
	;musicf0 23
	octave 3
	;musicf1 32
	;musicf2
	note E_, 7
	note B_, 6
	note A_, 6
	note E_, 6
	inc_octave
	note D_, 7
	dec_octave
	note A_, 6
	note G_, 6
	inc_octave
	note D_, 6
	note C_, 7
	dec_octave
	note G_, 6
	inc_octave
	note F_, 6
	note C_, 6
	dec_octave
	note A#, 7
	inc_octave
	note F_, 6
	note D#, 6
	dec_octave
	note A#, 6
	inc_octave
	note G#, 7
	note D#, 6
	dec_octave
	note A_, 6
	inc_octave
	note G#, 6
	note D_, 7
	dec_octave
	note A_, 6
	inc_octave
	note G_, 6
	note D_, 6
	dec_octave
	note G_, 7
	inc_octave
	note G_, 6
	note C_, 6
	dec_octave
	note G_, 6
	note F#, 7
	inc_octave
	note C_, 6
	dec_octave
	note B_, 6
	note F#, 6
	note E_, 7
	note B_, 6
	note A_, 6
	note E_, 6
	inc_octave
	note D_, 7
	dec_octave
	note A_, 6
	note G_, 6
	inc_octave
	note D_, 6
	note C_, 7
	dec_octave
	note G_, 6
	inc_octave
	note F_, 6
	note C_, 6
	dec_octave
	note A#, 7
	inc_octave
	note F_, 6
	note D#, 6
	dec_octave
	note A#, 6
	inc_octave
	note G#, 7
	note D#, 6
	dec_octave
	note A_, 6
	inc_octave
	note G#, 6
	note D_, 7
	dec_octave
	note A_, 6
	inc_octave
	note G_, 6
	note D_, 6
	dec_octave
	;musicf3
	sound_loop 0, .MainLoop


Music_GRCastle_Ch1: ; 1f2525 (7c:6525)
	notetype1 10
	notetype0 1
	rest 12
	;musicf0 8
	octave 1
	;vibrato_type 5
	vibrato 1, 3, 3
	;musicf1 80
	;musicf3
	;musice4 0
	rest 13
	rest 12
	rest 13
	note B_, 2
	rest 2
	note B_, 1
	rest 3
	note B_, 1
	rest 3
	vibrato 7, 3, 3
	note B_, 13
	;tie
	note B_, 12
	vibrato 0, 3, 3
	note A_, 13
	note B_, 12
	rest 13
	inc_octave
	;musicf2
	note B_, 12
	note B_, 13
	;musicf3
	rest 12
	note D_, 7
	rest 6
	rest 12
	dec_octave
	note B_, 13
	rest 12
	note B_, 9
	rest 4
	note B_, 9
	rest 3
	rest 13
	note B_, 2
	rest 2
	note B_, 1
	rest 3
	note B_, 1
	rest 3
	vibrato 7, 3, 3
	note B_, 13
	;tie
	note B_, 12
	vibrato 0, 3, 3
	note A_, 13
	note B_, 12
	note B_, 1
	rest 4
	note B_, 1
	rest 3
	note B_, 1
	rest 3
	inc_octave
	note E_, 3
	;tie
	;musice4 22
	note E_, 3
	;tie
	;musice4 0
	note F_, 6
	note E_, 13
	note D_, 12
	note E_, 13
	note D_, 12
	dec_octave
	note A_, 13
	note A#, 12
.MainLoop
	;musicf0 8
	octave 2
	;vibrato_type 5
	vibrato 0, 3, 3
	;musicf1 80
	note E_, 9
	rest 4
	;musicf2
	note E_, 9
	rest 3
	note E_, 9
	rest 4
	;musicf3
	note E_, 2
	rest 2
	note E_, 1
	rest 3
	note E_, 1
	rest 3
	vibrato 7, 3, 3
	note E_, 13
	;tie
	note E_, 12
	vibrato 0, 3, 3
	note D_, 13
	note E_, 12
	note E_, 2
	rest 3
	note E_, 1
	rest 3
	note E_, 1
	rest 3
	vibrato 7, 3, 3
	note G_, 12
	;tie
	note G_, 13
	vibrato 0, 3, 3
	note G_, 2
	rest 4
	note G_, 1
	rest 5
	note G_, 7
	note A_, 6
	note G_, 12
	note E_, 13
	note D_, 12
	note F_, 9
	rest 4
	;musicf2
	note F_, 9
	rest 3
	note F_, 9
	rest 4
	;musicf3
	note F_, 2
	rest 2
	note F_, 1
	rest 3
	note F_, 1
	rest 3
	vibrato 7, 3, 3
	note F_, 13
	;tie
	note F_, 12
	vibrato 0, 3, 3
	note E_, 13
	note F_, 12
	note F_, 2
	rest 3
	note F_, 1
	rest 3
	note F_, 1
	rest 3
	vibrato 7, 3, 3
	note A_, 12
	;tie
	note A_, 13
	vibrato 0, 3, 3
	note F_, 2
	rest 4
	note F_, 1
	rest 5
	note E_, 7
	note F_, 6
	note E_, 12
	note C_, 13
	note F_, 12
	note E_, 9
	rest 4
	;musicf2
	note E_, 9
	rest 3
	note E_, 9
	rest 4
	;musicf3
	note E_, 2
	rest 2
	note E_, 1
	rest 3
	note E_, 1
	rest 3
	vibrato 7, 3, 3
	note E_, 13
	;tie
	note E_, 12
	vibrato 0, 3, 3
	note D_, 13
	note E_, 12
	note E_, 2
	rest 3
	note E_, 1
	rest 3
	note E_, 1
	rest 3
	vibrato 7, 3, 3
	note G_, 12
	;tie
	note G_, 13
	vibrato 0, 3, 3
	note G_, 2
	rest 4
	note G_, 1
	rest 5
	note G_, 7
	note A_, 6
	note G_, 12
	note E_, 13
	note D_, 12
	note F_, 9
	rest 4
	;musicf2
	note F_, 9
	rest 3
	note F_, 9
	rest 4
	;musicf3
	note F_, 2
	rest 2
	note F_, 1
	rest 3
	note F_, 1
	rest 3
	vibrato 7, 3, 3
	inc_octave
	note C_, 13
	;tie
	note C_, 12
	dec_octave
	vibrato 0, 3, 3
	note E_, 13
	note F_, 12
	note F_, 2
	rest 3
	note F_, 1
	rest 3
	note F_, 1
	rest 3
	vibrato 7, 3, 3
	note A_, 12
	;tie
	note A_, 13
	vibrato 0, 3, 3
	note A_, 2
	rest 4
	note A_, 1
	rest 5
	note A_, 7
	note B_, 6
	note A_, 12
	note F_, 13
	note A_, 12
	note E_, 9
	rest 4
	;musicf2
	note E_, 9
	rest 3
	note E_, 9
	rest 4
	;musicf3
	note E_, 2
	rest 2
	note E_, 1
	rest 3
	note E_, 1
	rest 3
	vibrato 7, 3, 3
	note E_, 13
	;tie
	note E_, 12
	vibrato 0, 3, 3
	note D_, 13
	note E_, 12
	note E_, 2
	rest 3
	note E_, 1
	rest 3
	note E_, 1
	rest 3
	vibrato 7, 3, 3
	note G_, 12
	;tie
	note G_, 13
	vibrato 0, 3, 3
	note G_, 2
	rest 4
	note G_, 1
	rest 5
	note G_, 7
	note A_, 6
	note G_, 12
	note E_, 13
	note D_, 12
	note F_, 9
	rest 4
	;musicf2
	note F_, 9
	rest 3
	note F_, 9
	rest 4
	;musicf3
	note F_, 2
	rest 2
	note F_, 1
	rest 3
	note F_, 1
	rest 3
	vibrato 7, 3, 3
	note F_, 13
	;tie
	note F_, 12
	vibrato 0, 3, 3
	note E_, 13
	note F_, 12
	note F_, 2
	rest 3
	note F_, 1
	rest 3
	note F_, 1
	rest 3
	vibrato 7, 3, 3
	note A_, 12
	;tie
	note A_, 13
	vibrato 0, 3, 3
	note F_, 2
	rest 4
	note F_, 1
	rest 5
	note E_, 7
	note F_, 6
	note E_, 12
	note C_, 13
	note F_, 12
	note E_, 9
	rest 4
	;musicf2
	note E_, 9
	rest 3
	note E_, 9
	rest 4
	;musicf3
	note E_, 2
	rest 2
	note E_, 1
	rest 3
	note E_, 1
	rest 3
	vibrato 7, 3, 3
	note E_, 13
	;tie
	note E_, 12
	vibrato 0, 3, 3
	note D_, 13
	note E_, 12
	note E_, 2
	rest 3
	note E_, 1
	rest 3
	note E_, 1
	rest 3
	vibrato 7, 3, 3
	note G_, 12
	;tie
	note G_, 13
	vibrato 0, 3, 3
	note G_, 2
	rest 4
	note G_, 1
	rest 5
	note G_, 7
	note A_, 6
	note G_, 12
	note E_, 13
	note D_, 12
	note E_, 9
	rest 4
	note E_, 9
	rest 3
	note E_, 13
	note E_, 2
	rest 2
	note E_, 1
	rest 3
	note E_, 1
	rest 3
	note B_, 13
	;tie
	note B_, 12
	note A_, 13
	note B_, 12
	note E_, 2
	rest 3
	note E_, 1
	rest 3
	note E_, 1
	rest 3
	inc_octave
	note E_, 12
	dec_octave
	note A_, 13
	note B_, 12
	note E_, 7
	note F_, 6
	note E_, 12
	note D_, 13
	dec_octave
	note A_, 12
	octave 2
	;musicef 254
	note E_, 13
	;tie
	note E_, 12
	;tie
	note E_, 13
	note A#, 3
	note B_, 9
	note B_, 13
	;tie
	note B_, 12
	inc_octave
	note D_, 4
	;tie
	;musice4 6
	note D_, 3
	;tie
	;musice4 12
	note D_, 3
	;tie
	;musice4 15
	note D_, 3
	;tie
	;musice4 254
	note D#, 3
	;tie
	;musice4 5
	note D#, 3
	;tie
	;musice4 10
	note D#, 3
	;tie
	;musice4 16
	note D#, 3
	;tie
	;musice4 255
	note E_, 13
	;tie
	note E_, 12
	;tie
	note E_, 13
	;tie
	note E_, 12
	note F#, 16
	;tie
	note F#, 9
	note E_, 13
	;tie
	note E_, 12
	note D_, 13
	;tie
	note D_, 12
	;tie
	note D_, 13
	note G#, 3
	note A_, 9
	;tie
	note A_, 13
	;tie
	note A_, 12
	vibrato 25, 3, 3
	note E_, 13
	;tie
	note E_, 12
	;tie
	note E_, 13
	;tie
	note E_, 12
	;tie
	note E_, 13
	;tie
	note E_, 12
	vibrato 0, 3, 3
	dec_octave
	note B_, 13
	;tie
	note B_, 12
	inc_octave
	note E_, 13
	;tie
	note E_, 12
	note C#, 4
	note D_, 9
	;tie
	note D_, 12
	;tie
	note D_, 13
	dec_octave
	note B_, 12
	;tie
	note B_, 13
	;tie
	note B_, 12
	vibrato 25, 3, 3
	inc_octave
	note C_, 13
	;tie
	note C_, 12
	;tie
	note C_, 13
	;tie
	note C_, 12
	;tie
	note C_, 13
	;tie
	note C_, 12
	vibrato 0, 3, 3
	dec_octave
	note B_, 13
	inc_octave
	note C_, 12
	note A_, 13
	note F#, 12
	note D_, 13
	;tie
	note D_, 12
	;tie
	note D_, 13
	note E_, 12
	;tie
	note E_, 13
	;tie
	note E_, 12
	vibrato 25, 3, 3
	;musicf2
	note D_, 13
	;tie
	note D_, 12
	;tie
	note D_, 13
	;tie
	note D_, 12
	;tie
	note D_, 13
	note D_, 12
	;musicf3
	vibrato 0, 3, 3
	dec_octave
	dec_octave
	;musicef 3
	note B_, 13
	;tie
	note B_, 12
	note A_, 13
	;tie
	note A_, 12
	;musicef 253
	inc_octave
	note G_, 13
	;tie
	note G_, 12
	;tie
	note G_, 13
	note A#, 3
	note B_, 9
	;tie
	note B_, 13
	;tie
	note B_, 12
	inc_octave
	note D_, 4
	;tie
	;musice4 6
	note D_, 3
	;tie
	;musice4 12
	note D_, 3
	;tie
	;musice4 15
	note D_, 3
	;tie
	;musice4 254
	note D#, 3
	;tie
	;musice4 5
	note D#, 3
	;tie
	;musice4 10
	note D#, 3
	;tie
	;musice4 16
	note D#, 3
	;tie
	;musice4 255
	note E_, 13
	;tie
	note E_, 12
	;tie
	note E_, 13
	;tie
	note E_, 12
	note F#, 16
	;tie
	note F#, 9
	note E_, 13
	;tie
	note E_, 12
	note D_, 13
	;tie
	note D_, 12
	;tie
	note D_, 13
	note F_, 3
	note F#, 9
	;tie
	note F#, 13
	;tie
	note F#, 12
	dec_octave
	vibrato 25, 3, 3
	;musicf2
	note A_, 13
	;tie
	note A_, 12
	;tie
	note A_, 13
	;tie
	note A_, 12
	;tie
	note A_, 13
	note A_, 12
	;musicf3
	vibrato 0, 3, 3
	note A_, 13
	;tie
	note A_, 12
	note B_, 13
	;tie
	note B_, 12
	inc_octave
	note C_, 13
	;tie
	note C_, 12
	;tie
	note C_, 13
	note F#, 3
	note G_, 9
	;tie
	note G_, 13
	;tie
	note G_, 12
	dec_octave
	vibrato 25, 3, 3
	note A_, 13
	;tie
	note A_, 12
	;tie
	note A_, 13
	;tie
	note A_, 12
	;tie
	note A_, 13
	;tie
	note A_, 12
	note A_, 13
	;tie
	note A_, 12
	inc_octave
	note C_, 13
	;tie
	note C_, 12
	dec_octave
	note A_, 13
	;tie
	note A_, 12
	;tie
	note A_, 13
	inc_octave
	note D_, 3
	;tie
	;musice4 6
	note D_, 3
	;tie
	;musice4 253
	note D#, 3
	;tie
	;musice4 13
	note D#, 3
	;tie
	;musice4 254
	note E_, 13
	;tie
	note E_, 12
	note C#, 13
	;tie
	note C#, 12
	;musicf2
	note D#, 13
	;tie
	note D#, 12
	;tie
	note D#, 13
	;tie
	note D#, 12
	;tie
	note D#, 13
	;tie
	note D#, 12
	note D#, 13
	;tie
	note D#, 12
	;musicf3
	;musicf0 23
	;musicf1 32
	;musicf3
	octave 3
	note E_, 7
	rest 6
	;musicf2
	note A_, 6
	note E_, 6
	inc_octave
	note D_, 7
	dec_octave
	note A_, 6
	note G_, 6
	inc_octave
	note D_, 6
	note C_, 7
	dec_octave
	note G_, 6
	inc_octave
	note F_, 6
	note C_, 6
	dec_octave
	note A#, 7
	inc_octave
	note F_, 6
	note D#, 6
	dec_octave
	note A#, 6
	inc_octave
	note G#, 7
	note D#, 6
	dec_octave
	note A_, 6
	inc_octave
	note G#, 6
	note D_, 7
	dec_octave
	note A_, 6
	inc_octave
	note G_, 6
	note D_, 6
	dec_octave
	note G_, 7
	inc_octave
	note G_, 6
	note C_, 6
	dec_octave
	note G_, 6
	note F#, 7
	inc_octave
	note C_, 6
	dec_octave
	note B_, 6
	note F#, 6
	note E_, 7
	note B_, 6
	note A_, 6
	note E_, 6
	inc_octave
	note D_, 7
	dec_octave
	note A_, 6
	note G_, 6
	inc_octave
	note D_, 6
	note C_, 7
	dec_octave
	note G_, 6
	inc_octave
	note F_, 6
	note C_, 6
	dec_octave
	note A#, 7
	inc_octave
	note F_, 6
	note D#, 6
	dec_octave
	note A#, 6
	inc_octave
	note G#, 7
	note D#, 6
	dec_octave
	note A_, 6
	inc_octave
	note G#, 6
	note D_, 7
	dec_octave
	note A_, 6
	inc_octave
	note G_, 6
	note D_, 6
	dec_octave
	note G_, 7
	inc_octave
	note G_, 6
	note C_, 6
	dec_octave
	note G_, 6
	note F#, 7
	inc_octave
	note C_, 6
	dec_octave
	note B_, 6
	note F#, 6
	octave 3
	;musicf3
	note A_, 7
	rest 6
	;musicf2
	inc_octave
	note D_, 6
	dec_octave
	note A_, 6
	inc_octave
	note G_, 7
	note D_, 6
	note C_, 6
	note G_, 6
	note F_, 7
	note C_, 6
	note A#, 6
	note F_, 6
	note D#, 7
	note A#, 6
	note G#, 6
	note D#, 6
	inc_octave
	note C#, 7
	dec_octave
	note G#, 6
	note D_, 6
	inc_octave
	note C#, 6
	dec_octave
	note G_, 7
	note D_, 6
	inc_octave
	note C_, 6
	dec_octave
	note G_, 6
	note C_, 7
	inc_octave
	note C_, 6
	dec_octave
	note F_, 6
	note C_, 6
	dec_octave
	note B_, 7
	inc_octave
	note F_, 6
	note E_, 6
	dec_octave
	note B_, 6
	note A_, 7
	inc_octave
	note E_, 6
	note D_, 6
	dec_octave
	note A_, 6
	inc_octave
	note G_, 7
	note D_, 6
	note C_, 6
	note G_, 6
	note F_, 7
	note C_, 6
	note A#, 6
	note F_, 6
	note D#, 7
	note A#, 6
	note G#, 6
	note D#, 6
	inc_octave
	note C#, 7
	dec_octave
	note G#, 6
	note D_, 6
	inc_octave
	note C#, 6
	dec_octave
	note G_, 7
	note D_, 6
	inc_octave
	note C_, 6
	dec_octave
	note G_, 6
	dec_octave
	;musicef 2
	note G_, 7
	inc_octave
	note G_, 6
	note C_, 6
	dec_octave
	note G_, 6
	note F#, 7
	inc_octave
	note C_, 6
	dec_octave
	note B_, 6
	note F#, 6
	;musicf3
	sound_loop 0, .MainLoop


Music_GRCastle_Ch3: ; 1f2903 (7c:6903)
	notetype1 10
	notetype2 11
	notetype1 1
	;musice9 96
	;musicdc 255
	notetype0 1
	rest 12
	;vibrato_type 5
	vibrato 0, 3, 3
	octave 2
	note E_, 9
	rest 4
	note E_, 9
	rest 3
	rest 13
	rest 12
	rest 13
	rest 12
	note D_, 13
	note E_, 9
	rest 3
	rest 13
	note A_, 12
	note A#, 13
	note B_, 9
	rest 3
	inc_octave
	note D_, 13
	dec_octave
	note B_, 12
	note A_, 13
	note G_, 12
	note E_, 9
	rest 4
	note E_, 9
	rest 3
	rest 13
	rest 12
	note E_, 16
	;tie
	note E_, 9
	note D_, 13
	note E_, 9
	rest 3
	rest 13
	note A#, 12
	note A_, 13
	note G_, 12
	note A_, 13
	note G_, 12
	note D_, 13
	note D#, 12
.MainLoop
	octave 2
	note E_, 9
	rest 4
	note E_, 9
	rest 3
	rest 13
	sound_call Branch_1f2b72
	note D_, 13
	note E_, 9
	rest 3
	rest 13
	sound_call Branch_1f2b9e
	note B_, 9
	rest 3
	note A_, 13
	note B_, 12
	note D_, 13
	note D#, 12
	note E_, 9
	rest 4
	note E_, 9
	rest 3
	rest 13
	;musicec 1
	sound_call Branch_1f2b72
	note D_, 13
	note E_, 9
	rest 3
	rest 13
	;musicec 3
	sound_call Branch_1f2b9e
	note B_, 9
	rest 3
	note A_, 13
	note B_, 12
	note D_, 13
	note D#, 12
	note E_, 9
	rest 4
	note E_, 9
	rest 3
	rest 13
	sound_call Branch_1f2b72
	note D_, 13
	note E_, 9
	rest 3
	rest 13
	sound_call Branch_1f2b9e
	note B_, 9
	rest 3
	note A_, 13
	note B_, 12
	note D_, 13
	note D#, 12
	note E_, 9
	rest 4
	note E_, 9
	rest 3
	rest 13
	sound_call Branch_1f2b88
	note D_, 13
	note E_, 9
	rest 3
	rest 13
	inc_octave
	note D_, 6
	note E_, 6
	note D_, 13
	dec_octave
	note B_, 12
	note A_, 13
	note G_, 12
	note D_, 13
	note D#, 12
	note E_, 9
	rest 4
	note E_, 9
	rest 3
	rest 13
	sound_call Branch_1f2b72
	note D_, 13
	note E_, 9
	rest 3
	rest 13
	sound_call Branch_1f2b9e
	note B_, 9
	rest 3
	note A_, 13
	note B_, 12
	note D_, 13
	note D#, 12
	note E_, 9
	rest 4
	note E_, 9
	rest 3
	rest 13
	;musicec 1
	sound_call Branch_1f2b72
	note D_, 13
	note E_, 9
	rest 3
	rest 13
	;musicec 3
	sound_call Branch_1f2b9e
	note B_, 9
	rest 3
	note A_, 13
	note B_, 12
	note D_, 13
	note D#, 12
	note E_, 9
	rest 4
	note E_, 9
	rest 3
	rest 13
	rest 1
	sound_call Branch_1f2b72
	note D_, 13
	note E_, 9
	rest 3
	rest 13
	sound_call Branch_1f2b9e
	note B_, 9
	rest 3
	note A_, 13
	note B_, 12
	note D_, 13
	note D#, 12
	note E_, 9
	rest 4
	note E_, 9
	rest 3
	sound_call Branch_1f2baa
	note D_, 13
	note E_, 9
	rest 3
	sound_call Branch_1f2bbf
	note B_, 12
	inc_octave
	note D_, 13
	note E_, 12
	dec_octave
	note A#, 13
	note A_, 12
	note G_, 13
	note D_, 12
	vibrato 0, 3, 3
	note C_, 13
	;tie
	note C_, 12
	;tie
	note C_, 13
	note G_, 12
	;tie
	note G_, 13
	;tie
	note G_, 12
	vibrato 25, 3, 3
	note B_, 7
	;tie
	inc_octave
	note C_, 16
	;tie
	note C_, 2
	;tie
	note C_, 13
	;tie
	note C_, 12
	;tie
	note C_, 13
	;tie
	note C_, 12
	note D_, 16
	;tie
	note D_, 9
	note C_, 16
	;tie
	note C_, 9
	vibrato 0, 3, 3
	dec_octave
	note B_, 13
	;tie
	note B_, 12
	;tie
	note B_, 13
	note F#, 12
	;tie
	note F#, 13
	;tie
	note F#, 12
	vibrato 25, 3, 3
	note A_, 3
	;tie
	note A#, 3
	;tie
	;musice4 22
	note A#, 3
	;tie
	;musice4 0
	note B_, 3
	;tie
	note B_, 13
	;tie
	note B_, 13
	;tie
	note B_, 12
	;tie
	note B_, 13
	;tie
	note B_, 12
	note F#, 16
	;tie
	note F#, 9
	note B_, 16
	;tie
	note B_, 9
	note A_, 13
	;tie
	note A_, 12
	;tie
	note A_, 13
	note E_, 12
	;tie
	note E_, 13
	;tie
	note E_, 12
	note G_, 4
	;tie
	note G#, 3
	;tie
	note A_, 16
	;tie
	note A_, 2
	note A_, 13
	note G_, 12
	;tie
	note G_, 13
	;tie
	note G_, 12
	note F#, 16
	;tie
	note F#, 9
	note G_, 16
	;tie
	note G_, 9
	note E_, 13
	;tie
	note E_, 12
	;tie
	note E_, 13
	note A_, 3
	;tie
	note A#, 3
	;tie
	note B_, 16
	;tie
	note B_, 15
	inc_octave
	note D_, 4
	;tie
	note D#, 3
	;tie
	note E_, 16
	;tie
	note E_, 2
	;tie
	note E_, 13
	dec_octave
	note A#, 3
	;tie
	note B_, 9
	inc_octave
	note E_, 13
	dec_octave
	note B_, 12
	note E_, 16
	;tie
	note E_, 9
	note D_, 16
	;tie
	note D_, 9
	note C_, 13
	;tie
	note C_, 12
	;tie
	note C_, 13
	note G_, 12
	;tie
	note G_, 13
	;tie
	note G_, 12
	vibrato 25, 3, 3
	note B_, 7
	;tie
	inc_octave
	note C_, 16
	;tie
	note C_, 2
	;tie
	note C_, 13
	;tie
	note C_, 12
	;tie
	note C_, 13
	;tie
	note C_, 12
	note D_, 16
	;tie
	note D_, 9
	note C_, 16
	;tie
	note C_, 9
	vibrato 0, 3, 3
	dec_octave
	note B_, 13
	;tie
	note B_, 12
	;tie
	note B_, 13
	note F#, 12
	;tie
	note F#, 13
	;tie
	note F#, 12
	vibrato 25, 3, 3
	note A_, 3
	;tie
	note A#, 3
	;tie
	;musice4 22
	note A#, 3
	;tie
	;musice4 0
	note B_, 3
	;tie
	note B_, 13
	;tie
	note B_, 13
	;tie
	note B_, 12
	;tie
	note B_, 13
	;tie
	note B_, 12
	note F#, 16
	;tie
	note F#, 9
	note B_, 16
	;tie
	note B_, 9
	note F_, 13
	;tie
	note F_, 12
	;tie
	note F_, 13
	inc_octave
	note C_, 12
	;tie
	note C_, 13
	;tie
	note C_, 12
	note D#, 4
	;tie
	;musice4 24
	note D#, 3
	;tie
	;musice4 0
	note E_, 3
	;tie
	;musice4 22
	note E_, 3
	;tie
	;musice4 0
	note F_, 12
	;tie
	note F_, 13
	note C_, 12
	;tie
	note C_, 13
	;tie
	note C_, 12
	dec_octave
	note F_, 16
	;tie
	note F_, 9
	inc_octave
	note C_, 16
	;tie
	note C_, 9
	dec_octave
	note B_, 13
	;tie
	note B_, 12
	;tie
	note B_, 13
	inc_octave
	note F#, 12
	;tie
	note F#, 13
	;tie
	note F#, 12
	vibrato 40, 3, 3
	note A_, 4
	;tie
	;musice4 17
	note A_, 3
	;tie
	;musice4 0
	note A#, 3
	;tie
	;musice4 16
	note A#, 3
	;tie
	;musice4 0
	note B_, 12
	;tie
	note B_, 16
	;tie
	note B_, 16
	;tie
	note B_, 16
	;tie
	note B_, 16
	;tie
	note B_, 16
	;tie
	note B_, 2
	;tie
	;musice4 250
	note B_, 3
	;tie
	;musice4 244
	note B_, 2
	;tie
	;musice4 238
	note B_, 2
	;tie
	;musice4 232
	note B_, 2
	;tie
	;musice4 0
	note A#, 2
	;tie
	;musice4 248
	note A#, 2
	;tie
	;musice4 240
	note A#, 2
	;tie
	;musice4 232
	note A#, 2
	;tie
	;musice4 0
	note A_, 1
	vibrato 50, 3, 3
	;musicec 244
	octave 2
	notetype0 10
	note E_, 10
	;tie
	note E_, 10
	;tie
	note E_, 10
	;tie
	note E_, 10
	;tie
	note E_, 10
	;tie
	note E_, 10
	;tie
	notetype0 5
	notetype1 3
	note E_, 15
	notetype1 1
	;musicec 0
	notetype0 1
	note D_, 13
	note E_, 12
	rest 13
	inc_octave
	note D_, 3
	;tie
	note D#, 3
	;tie
	note E_, 6
	note D_, 13
	dec_octave
	note B_, 12
	note A#, 13
	note A_, 12
	note D_, 13
	note D#, 12
	sound_loop 0, .MainLoop

Branch_1f2b72:
	notetype1 2
	octave 2
	note B_, 2
	rest 2
	note B_, 1
	rest 3
	note B_, 1
	rest 3
	vibrato 7, 3, 3
	note B_, 13
	;tie
	note B_, 12
	vibrato 0, 3, 3
	notetype1 1
	octave 2
	;musicec 0
	sound_ret

Branch_1f2b88:
	notetype1 2
	octave 3
	note C_, 2
	rest 1
	note C_, 1
	rest 3
	note C_, 1
	rest 3
	vibrato 7, 3, 3
	note F_, 13
	;tie
	note F_, 12
	vibrato 0, 3, 3
	notetype1 1
	octave 2
	;musicec 0
	sound_ret

Branch_1f2b9e:
	notetype1 2
	octave 3
	note D_, 12
	;tie
	note D_, 13
	notetype1 1
	octave 2
	;musicec 0
	sound_ret

Branch_1f2baa:
	notetype1 2
	octave 2
	note B_, 13
	note B_, 2
	rest 2
	note B_, 1
	rest 3
	note B_, 1
	rest 3
	vibrato 7, 3, 3
	note B_, 13
	;tie
	note B_, 12
	vibrato 0, 3, 3
	notetype1 1
	octave 2
	sound_ret

Branch_1f2bbf:
	notetype1 2
	octave 2
	note B_, 2
	rest 3
	note B_, 1
	rest 3
	note B_, 1
	rest 3
	notetype1 1
	sound_ret


Music_GRCastle_Ch4: ; 1f2bcb (7c:6bcb)
	toggle_noise 6
	drum_speed 1
	octave 1
	;musicdc 255
	;musicef 251
	drum_note 2, 4
	drum_note 2, 4
	drum_note 2, 4
	;musicef 0
	drum_note 1, 16
	rest 9
	drum_note 4, 13
	drum_note 1, 12
	drum_note 2, 16
	rest 9
	drum_note 4, 13
	drum_note 2, 12
	drum_note 4, 13
	drum_note 1, 12
	drum_note 4, 13
	drum_note 1, 12
	drum_note 2, 16
	rest 9
	drum_note 1, 13
	drum_note 2, 4
	;musicef 252
	drum_note 2, 4
	drum_note 2, 4
	;musicef 0
	drum_note 1, 13
	drum_note 1, 12
	drum_note 2, 13
	drum_note 1, 12
	drum_note 2, 13
	drum_note 4, 6
	drum_note 2, 6
	drum_note 2, 13
	drum_note 2, 12
	drum_note 4, 13
	drum_note 2, 12
	drum_note 2, 13
	drum_note 1, 12
	drum_note 2, 13
	drum_note 1, 6
	drum_note 2, 6
	drum_note 2, 13
	drum_note 2, 4
	;musicef 252
	drum_note 2, 4
	drum_note 2, 4
	;musicef 0
.MainLoop
.Loop1
	drum_note 1, 13
	drum_note 1, 12
	drum_note 4, 13
	drum_note 1, 12
	drum_note 2, 16
	rest 9
	drum_note 1, 13
	drum_note 4, 12
	drum_note 4, 13
	drum_note 2, 12
	drum_note 4, 13
	drum_note 1, 12
	drum_note 2, 16
	rest 9
	drum_note 1, 13
	drum_note 2, 4
	;musicef 252
	drum_note 2, 4
	drum_note 2, 4
	;musicef 0
	sound_loop 3, .Loop1
	drum_note 1, 13
	drum_note 1, 12
	drum_note 4, 13
	drum_note 1, 12
	drum_note 2, 16
	rest 9
	drum_note 1, 13
	drum_note 4, 12
	drum_note 4, 13
	drum_note 2, 12
	drum_note 2, 13
	drum_note 1, 12
	drum_note 2, 13
	drum_note 2, 12
	drum_note 1, 13
	drum_note 2, 4
	;musicef 252
	drum_note 2, 4
	drum_note 2, 4
	;musicef 0
.Loop2
	drum_note 1, 13
	drum_note 1, 12
	drum_note 4, 13
	drum_note 1, 12
	drum_note 2, 16
	rest 9
	drum_note 1, 13
	drum_note 4, 12
	drum_note 4, 13
	drum_note 2, 12
	drum_note 4, 13
	drum_note 1, 12
	drum_note 2, 16
	rest 9
	drum_note 1, 13
	drum_note 2, 4
	;musicef 252
	drum_note 2, 4
	drum_note 2, 4
	;musicef 0
	sound_loop 3, .Loop2
	drum_note 1, 13
	drum_note 1, 12
	drum_note 4, 13
	drum_note 1, 12
	drum_note 2, 13
	drum_note 4, 6
	drum_note 2, 6
	drum_note 2, 13
	drum_note 5, 12
	drum_note 4, 13
	drum_note 2, 12
	drum_note 2, 13
	drum_note 4, 4
	drum_note 4, 4
	drum_note 4, 4
	drum_note 2, 13
	drum_note 4, 6
	drum_note 2, 6
	drum_note 2, 13
	drum_note 2, 4
	;musicef 254
	drum_note 2, 4
	;musicef 252
	drum_note 2, 4
	;musicef 0
	sound_call Branch_1f2d0c
	sound_call Branch_1f2d18
	sound_call Branch_1f2d0c
	drum_note 4, 13
	drum_note 1, 12
	drum_note 5, 13
	drum_note 4, 6
	drum_note 4, 6
	drum_note 4, 13
	drum_note 4, 12
	drum_note 2, 13
	drum_note 4, 4
	drum_note 4, 4
	drum_note 4, 4
	sound_call Branch_1f2d0c
	sound_call Branch_1f2d18
	sound_call Branch_1f2d0c
	drum_note 4, 13
	drum_note 1, 12
	drum_note 5, 13
	drum_note 4, 6
	drum_note 4, 6
	drum_note 2, 13
	drum_note 4, 4
	drum_note 4, 4
	drum_note 4, 4
	drum_note 2, 13
	drum_note 2, 12
	sound_call Branch_1f2d0c
	sound_call Branch_1f2d18
	sound_call Branch_1f2d0c
	drum_note 4, 13
	drum_note 1, 12
	drum_note 5, 13
	drum_note 4, 6
	drum_note 4, 6
	drum_note 4, 13
	drum_note 4, 12
	drum_note 2, 13
	drum_note 4, 4
	drum_note 4, 4
	drum_note 4, 4
	sound_call Branch_1f2d0c
	sound_call Branch_1f2d18
	sound_call Branch_1f2d0c
	drum_note 4, 13
	drum_note 1, 12
	drum_note 5, 13
	drum_note 4, 6
	drum_note 4, 6
	drum_note 2, 13
	drum_note 1, 12
	drum_note 5, 13
	;musicef 253
	drum_note 2, 4
	;musicef 252
	drum_note 2, 4
	;musicef 0
	drum_note 2, 4
	;musicef 1
	drum_speed 6
	drum_note 8, 16
	drum_speed 1
	rest 4
	;musicef 0
	rest 16
	rest 16
	rest 16
	rest 16
	rest 16
	rest 16
	rest 4
	rest 16
	rest 16
	rest 16
	rest 16
	rest 16
	rest 16
	rest 4
	rest 16
	rest 16
	rest 16
	rest 16
	rest 16
	rest 8
	;musicef 252
	drum_note 2, 4
	drum_note 2, 4
	drum_note 2, 4
	;musicef 0
	drum_note 1, 16
	rest 9
	drum_note 4, 13
	drum_note 1, 12
	drum_note 2, 16
	rest 9
	drum_note 1, 13
	drum_note 4, 12
	drum_note 4, 13
	drum_note 2, 12
	drum_note 4, 13
	drum_note 1, 12
	drum_note 2, 16
	rest 9
	drum_note 1, 13
	drum_note 2, 4
	;musicef 252
	drum_note 2, 4
	drum_note 2, 4
	;musicef 0
	drum_note 1, 16
	rest 9
	drum_note 4, 13
	drum_note 1, 12
	drum_note 2, 16
	rest 9
	drum_note 1, 13
	drum_note 2, 12
	drum_note 1, 13
	drum_note 2, 12
	drum_note 2, 13
	drum_note 2, 12
	drum_note 2, 13
	drum_note 2, 12
	drum_note 2, 13
	drum_note 1, 12
	sound_loop 0, .MainLoop

Branch_1f2d0c:
	drum_note 1, 13
	drum_note 4, 12
	drum_note 5, 13
	drum_note 1, 6
	drum_note 4, 6
	drum_note 4, 13
	drum_note 4, 12
	drum_note 5, 13
	drum_note 4, 4
	drum_note 4, 4
	drum_note 4, 4
	sound_ret

Branch_1f2d18:
	drum_note 4, 13
	drum_note 1, 12
	drum_note 5, 13
	drum_note 4, 6
	drum_note 4, 6
	drum_note 4, 13
	drum_note 4, 12
	drum_note 5, 13
	drum_note 4, 4
	drum_note 4, 4
	drum_note 4, 4
	sound_ret
; 0x1f2d24
