Music_TCG2GRDuelTheme2:
	db $C0
	dw Music_TCG2GRDuelTheme2_Ch1
	db $01
	dw Music_TCG2GRDuelTheme2_Ch2
	db $02
	dw Music_TCG2GRDuelTheme2_Ch3
	db $03
	dw Music_TCG2GRDuelTheme2_Ch4

Music_TCG2GRDuelTheme2_Ch2: 
	notetype1 10
	octave 3
	notetype0 1
	note G#, 3
	note A_, 11
	note A_, 7
	note G_, 13
	note G_, 7
	note E_, 13
	note E_, 7
	note D_, 4
	note E_, 3
	note D#, 7
	note E_, 6
	note C_, 7
	dec_octave
	note A_, 7
	note G_, 4
	note A_, 3
	note G#, 3
	note G_, 3
	note A_, 7
	note A_, 7
	vibrato 27, $33
	octave 3
	note C_, 7
	note G_, 6
	octave 4
	note D#, 4
	note E_, 3
	note E_, 7
	note E_, 13
	note E_, 14
	note E_, 13
	note E_, 14
	note E_, 13
.MainLoop
	octave 3
	note A_, 7
	note A_, 7
	callchannel Branch_1ef490
	octave 3
	note C_, 5
	note D_, 5
	note D#, 5
	note E_, 4
	note G_, 4
	note G#, 4
	octave 3
	note A_, 7
	note A_, 7
	callchannel Branch_1ef490
	octave 2
	note G_, 5
	note G#, 5
	note A_, 5
	inc_octave
	note C_, 4
	note D_, 4
	note D#, 4
	note E_, 14
	note E_, 7
	note G_, 6
	callchannel Branch_1ef5f5
	octave 3
	note F#, 13
	note F#, 14
	note F#, 13
	note F#, 14
	note F#, 13
	note F#, 14
	note F#, 13
	callchannel Branch_1ef5f5
	octave 3
	note E_, 7
	note F#, 6
	note G_, 14
	note F#, 7
	note E_, 6
	note D_, 4
	note __, 3
	note F#, 14
	note F#, 6
	note E_, 14
	note E_, 7
	note C_, 6
	callchannel Branch_1ef5f5
	octave 3
	note D_, 13
	note D_, 14
	note D_, 13
	note D_, 14
	note D_, 13
	note D_, 14
	note D_, 13
	note D_, 14
	note D_, 13
	note __, 7
	callchannel Branch_1ef602
	note E_, 14
	note E_, 7
	note G_, 6
	callchannel Branch_1ef5f5
	octave 3
	note F#, 13
	note F#, 14
	note F#, 13
	note F#, 14
	note F#, 13
	note F#, 14
	note F#, 13
	callchannel Branch_1ef5f5
	octave 3
	note E_, 7
	note F#, 6
	note G_, 14
	note F#, 7
	note E_, 6
	note D_, 4
	note __, 3
	note F#, 14
	note F#, 6
	note B_, 14
	note B_, 7
	note G_, 6
	callchannel Branch_1ef5f5
	note A_, 13
	note A_, 14
	note A_, 13
	note A_, 14
	note A_, 13
	note A_, 14
	note A_, 13
	note A_, 14
	note A_, 13
	note __, 7
	callchannel Branch_1ef615
	octave 3
	note G_, 3
	note G#, 3
	note A_, 14
	note A_, 7
	note G_, 6
	callchannel Branch_1ef5f5
	note D_, 13
	note F_, 14
	note F_, 7
	note G_, 13
	note G_, 7
	note E_, 13
	note E_, 14
	note E_, 13
	note E_, 14
	note E_, 13
	note E_, 14
	note F_, 13
	note G_, 14
	note A_, 13
	note E_, 14
	note E_, 7
	note C_, 6
	callchannel Branch_1ef5f5
	note D_, 13
	dec_octave
	note A_, 14
	note A_, 7
	inc_octave
	note D#, 3
	note E_, 3
	note E_, 14
	note C_, 13
	note C_, 14
	note C_, 13
	note C_, 14
	note C_, 13
	note C_, 14
	note C_, 13
	note D_, 5
	note E_, 5
	note F_, 5
	note F#, 4
	note G_, 4
	note G#, 4
	note A_, 14
	note A_, 7
	note G_, 6
	callchannel Branch_1ef5f5
	note D_, 13
	note F_, 14
	note F_, 7
	note G_, 13
	note G_, 7
	note F_, 7
	note F_, 6
	note A#, 3
	inc_octave
	note C_, 4
	note C_, 14
	dec_octave
	note A#, 6
	callchannel Branch_1ef5f5
	note F_, 13
	note G#, 14
	note G#, 13
	note A#, 14
	note A#, 7
	note A_, 3
	note G#, 3
	note G_, 14
	note G_, 13
	note G_, 14
	note A_, 13
	note A_, 14
	note A_, 13
	inc_octave
	note C_, 14
	note C_, 13
	note C_, 14
	dec_octave
	note B_, 13
	note B_, 14
	note B_, 13
	note G_, 7
	note G_, 7
	note __, 13
	octave 2
	note G_, 5
	note G#, 5
	note A_, 5
	inc_octave
	note C_, 4
	note D_, 4
	note D#, 4
	note E_, 14
	note E_, 7
	note G_, 6
	callchannel Branch_1ef5f5
	octave 3
	note F#, 13
	note F#, 14
	note F#, 13
	note F#, 14
	note F#, 13
	note F#, 14
	note F#, 13
	callchannel Branch_1ef5f5
	octave 3
	note E_, 7
	note F#, 6
	note G_, 14
	note F#, 7
	note E_, 6
	note D_, 4
	note __, 3
	note F#, 14
	note F#, 6
	note E_, 14
	note E_, 7
	note C_, 6
	callchannel Branch_1ef5f5
	octave 3
	note D_, 13
	note D_, 14
	note D_, 13
	note D_, 14
	note D_, 13
	note D_, 14
	note D_, 13
	note D_, 14
	note D_, 13
	note __, 7
	callchannel Branch_1ef602
	note E_, 14
	note E_, 7
	note G_, 6
	callchannel Branch_1ef5f5
	octave 3
	note F#, 13
	note F#, 14
	note F#, 13
	note F#, 14
	note F#, 13
	note F#, 14
	note F#, 13
	callchannel Branch_1ef5f5
	octave 3
	note E_, 7
	note F#, 6
	note G_, 14
	note F#, 7
	note E_, 6
	note D_, 4
	note __, 3
	note F#, 14
	note F#, 6
	note B_, 14
	note B_, 7
	note G_, 6
	callchannel Branch_1ef5f5
	note A_, 13
	note A_, 14
	note A_, 13
	note A_, 14
	note A_, 13
	note A_, 14
	note A_, 13
	note A_, 14
	note A_, 13
	note A_, 7
	callchannel Branch_1ef628
	octave 2
	note G_, 5
	note G#, 5
	note A_, 5
	inc_octave
	note C_, 4
	note D_, 4
	note D#, 4
	note E_, 14
	note E_, 7
	note G_, 6
	callchannel Branch_1ef5f5
	octave 3
	note F#, 13
	note F#, 14
	note F#, 13
	note F#, 14
	note F#, 13
	note F#, 14
	note F#, 13
	callchannel Branch_1ef5f5
	octave 3
	note E_, 7
	note F#, 6
	note G_, 14
	note F#, 7
	note E_, 6
	note D_, 4
	note __, 3
	note F#, 14
	note F#, 6
	note E_, 14
	note E_, 7
	note C_, 6
	callchannel Branch_1ef5f5
	octave 3
	note D_, 13
	note D_, 14
	note D_, 13
	note D_, 14
	note D_, 13
	note D_, 14
	note D_, 13
	note D_, 14
	note D_, 13
	note __, 7
	callchannel Branch_1ef602
	note E_, 14
	note E_, 7
	note G_, 6
	callchannel Branch_1ef5f5
	octave 3
	note F#, 13
	note F#, 14
	note F#, 13
	note F#, 14
	note F#, 13
	note F#, 14
	note F#, 13
	callchannel Branch_1ef5f5
	octave 3
	note E_, 7
	note F#, 6
	note G_, 14
	note F#, 7
	note E_, 6
	note D_, 4
	note __, 3
	note F#, 14
	note F#, 6
	note B_, 14
	note B_, 7
	note G_, 6
	callchannel Branch_1ef5f5
	note A_, 13
	note A_, 14
	note A_, 13
	note A_, 14
	note A_, 13
	note A_, 14
	note A_, 13
	note A_, 14
	note A_, 13
	octave 2
	note G_, 4
	inc_octave
	note C_, 5
	note F_, 5
	note G_, 13
	note G_, 7
	note A_, 14
	note A_, 6
	note A_, 4
	note A#, 16
	note A#, 7
	note A#, 14
	note A#, 13
	note A#, 14
	note A#, 13
	note A#, 14
	note A#, 13
	note A#, 14
	note A#, 13
	note A#, 14
	note G_, 7
	note A#, 6
	inc_octave
	note C#, 3
	note D_, 4
	note D_, 14
	note C_, 6
	note C_, 14
	dec_octave
	note A#, 7
	inc_octave
	note C_, 6
	dec_octave
	note A_, 14
	note A_, 7
	note A#, 6
	note A_, 7
	note A#, 7
	inc_octave
	note C_, 7
	note C_, 6
	dec_octave
	note A_, 14
	note A_, 7
	note F_, 6
	note F_, 14
	note D_, 7
	note F_, 6
	note G#, 3
	note A_, 11
	note A_, 13
	note A_, 14
	note A_, 13
	note A_, 14
	octave 2
	note A#, 13
	inc_octave
	note C#, 4
	note D_, 10
	dec_octave
	note A#, 13
	octave 3
	note G_, 14
	note G_, 13
	note G_, 14
	note G_, 13
	note G_, 14
	note G_, 13
	note G_, 14
	note G_, 13
	note G_, 14
	note G_, 13
	note G_, 14
	note D#, 13
	note D#, 7
	octave 2
	note A#, 5
	note A#, 2
	octave 3
	note A#, 7
	note A#, 13
	inc_octave
	note C_, 14
	note C_, 6
	dec_octave
	note A_, 14
	note A_, 7
	note A#, 6
	note A_, 7
	note A#, 7
	note A_, 7
	note A_, 6
	note F_, 14
	note F_, 7
	note D_, 6
	note F_, 7
	note D_, 7
	note G#, 3
	note A_, 10
	note A_, 14
	note A_, 13
	note A_, 14
	note A_, 13
	note A_, 14
	note A_, 13
	octave 2
	note G_, 14
	note A_, 13
	octave 3
	note G_, 14
	note G_, 7
	note A_, 6
	note G_, 7
	note A_, 7
	note A#, 7
	note G_, 6
	note B_, 4
	vibrato 14, $33
	inc_octave
	note C_, 10
	note C_, 13
	note C_, 14
	note C_, 13
	vibrato 0, $33
	note C_, 14
	note C_, 7
	dec_octave
	note A#, 6
	inc_octave
	note C_, 7
	dec_octave
	note A#, 7
	note F#, 7
	note A#, 6
	note D_, 14
	note D_, 7
	note A_, 3
	note A#, 3
	note A#, 14
	note F#, 7
	note F#, 6
	note G#, 4
	vibrato 10, $33
	note A_, 10
	note A_, 13
	note A_, 14
	vibrato 0, $33
	note G_, 13
	note G_, 7
	note G_, 7
	note D_, 13
	note D_, 7
	note E_, 14
	note E_, 6
	note F_, 14
	note F_, 8
	note F_, 5
	octave 3
	note C#, 5
	note C#, 9
	note G_, 13
	note G_, 14
	note A_, 13
	note A_, 7
	note A#, 14
	note A#, 6
	inc_octave
	note C_, 14
	note C_, 13
	note C_, 14
	vibrato 27, $33
	note D_, 13
	note D_, 14
	note D_, 13
	note D_, 14
	note D_, 13
	note D_, 14
	note D_, 13
	note D_, 14
	note D_, 13
	note D_, 14
	note D_, 13
	note D_, 14
	note D_, 13
	note C_, 14
	note C_, 13
	note C_, 14
	note D_, 13
	note D_, 14
	note D_, 13
	note D_, 14
	note D_, 13
	note D_, 14
	note D#, 3
	note E_, 10
	note E_, 14
	note E_, 8
	note E_, 5
	octave 3
	note E_, 4
	note E_, 3
	inc_octave
	note D_, 7
	dec_octave
	note B_, 4
	inc_octave
	note D_, 3
	dec_octave
	note G_, 3
	note B_, 3
	note B_, 7
	note G_, 4
	note B_, 3
	note D_, 4
	note G_, 3
	note G_, 3
	note D_, 3
	note E_, 7
	note E_, 7
	callchannel Branch_1ef490
	octave 2
	note B_, 14
	inc_octave
	note C_, 13
	note __, 14
	callchannel Branch_1ef490
	octave 3
	note C_, 5
	note D_, 5
	note D#, 5
	note E_, 4
	note G_, 4
	note G#, 4
	loopchannel 0, .MainLoop

Branch_1ef490:
	octave 3
	note C_, 5
	note C_, 8
	note __, 7
	note C_, 5
	note C_, 9
	note __, 6
	note __, 7
	note C_, 5
	note C_, 9
	note __, 6
	note D_, 14
	note C_, 13
	note __, 14
	note C_, 5
	note C_, 8
	note __, 7
	note C_, 5
	note C_, 9
	note __, 6
	note __, 7
	note C_, 5
	note C_, 9
	note __, 6
	dec_octave
	note B_, 14
	inc_octave
	note C_, 13
	note __, 14
	note C_, 5
	note C_, 8
	note __, 7
	note C_, 5
	note C_, 9
	note __, 6
	note __, 7
	note C_, 5
	note C_, 9
	note __, 6
	note D_, 14
	note C_, 13
	note __, 14
	note C_, 5
	note C_, 8
	note __, 7
	note C_, 5
	note C_, 9
	note __, 6
	note __, 7
	note C_, 5
	note C_, 9
	note __, 6
	endchannel

Branch_1ef5f5:
	octave 2
	octave 3
	note C_, 5
	note C_, 9
	endchannel

Branch_1ef602:
	octave 3
	note E_, 7
	dec_octave
	note G_, 4
	note A_, 4
	note G_, 5
	inc_octave
	note D_, 14
	note C_, 13
	octave 3
	endchannel

Branch_1ef615:
	octave 3
	note E_, 7
	dec_octave
	note G_, 4
	note A_, 4
	note G_, 5
	inc_octave
	note D_, 14
	note C_, 7
	octave 3
	endchannel

Branch_1ef628:
	octave 3
	note E_, 7
	dec_octave
	note G_, 4
	note A_, 4
	note G_, 5
	endchannel


Music_TCG2GRDuelTheme2_Ch1: 
	notetype1 10
	octave 2
	notetype0 1
	octave 3
	note E_, 14
	note __, 7
	note D_, 13
	note __, 7
	note C_, 13
	note __, 7
	dec_octave
	note G_, 4
	note __, 3
	note A_, 7
	inc_octave
	note C_, 4
	note __, 2
	dec_octave
	note A_, 7
	note E_, 7
	note D_, 4
	note __, 3
	note D#, 4
	note __, 2
	note E_, 7
	note __, 7
	octave 3
	note __, 3
	note E_, 7
	note B_, 3
	note G#, 14
	note G#, 13
	note G#, 14
	note G#, 13
	note G#, 14
	note G#, 13
.MainLoop
.Loop1
	octave 3
	note E_, 7
	note E_, 7
	callchannel Branch_1ef8d6
	note __, 14
	callchannel Branch_1ef8f0
	loopchannel 2, .Loop1
	octave 3
	note C_, 14
	note C_, 7
	note E_, 6
	callchannel Branch_1efa34
	note D_, 13
	note D_, 14
	note D_, 7
	callchannel Branch_1efa41
	note D_, 14
	note D_, 13
	callchannel Branch_1efa34
	note C_, 7
	note D_, 6
	note E_, 14
	note D_, 7
	note C_, 6
	dec_octave
	note B_, 4
	note __, 3
	inc_octave
	note D_, 14
	note D_, 6
	note C_, 14
	note C_, 7
	dec_octave
	note A_, 6
	callchannel Branch_1efa34
	octave 2
	note F#, 13
	note F#, 14
	note F#, 13
	callchannel Branch_1efa4a
	octave 2
	note F#, 14
	note F#, 13
	note F#, 14
	note F#, 13
	note __, 7
	callchannel Branch_1efa51
	octave 3
	note C_, 14
	note C_, 7
	note E_, 6
	callchannel Branch_1efa34
	note D_, 13
	note D_, 14
	note D_, 7
	callchannel Branch_1efa41
	note D_, 14
	note D_, 13
	callchannel Branch_1efa34
	note C_, 7
	note D_, 6
	note E_, 14
	note D_, 7
	note C_, 6
	dec_octave
	note B_, 4
	note __, 3
	inc_octave
	note D_, 14
	note D_, 6
	note G_, 14
	note G_, 7
	note E_, 6
	callchannel Branch_1efa34
	note F#, 13
	note F#, 14
	note F#, 13
	callchannel Branch_1efa4a
	octave 3
	note F#, 14
	note F#, 13
	note F#, 14
	note F#, 13
	note __, 7
	callchannel Branch_1efa51
	octave 3
	note __, 14
	note __, 13
	note D_, 5
	note D_, 9
	note __, 13
	note __, 7
	note D_, 5
	note D_, 2
	note D_, 13
	note F_, 14
	dec_octave
	note A#, 13
	note __, 14
	note __, 13
	note A#, 5
	note A#, 9
	note __, 13
	inc_octave
	note __, 7
	note D_, 5
	note D_, 2
	note D_, 13
	note E_, 14
	note F_, 13
.Loop2
	note __, 14
	note __, 13
	note E_, 5
	note E_, 9
	note __, 13
	note __, 7
	note E_, 5
	note E_, 2
	dec_octave
	note A_, 13
	inc_octave
	note C_, 14
	dec_octave
	note A_, 13
	inc_octave
	loopchannel 2, .Loop2
	note __, 14
	note __, 13
	note D_, 5
	note D_, 9
	note __, 13
	note __, 7
	note D_, 5
	note D_, 2
	note D_, 13
	note F_, 14
	dec_octave
	note A#, 13
	inc_octave
	note __, 14
	note __, 13
	note C#, 5
	note C#, 9
	note __, 13
	note __, 7
	note G#, 5
	note G#, 2
	note F_, 13
	dec_octave
	note A_, 5
	note A#, 5
	inc_octave
	note C_, 5
	note D_, 4
	note E_, 4
	note F_, 4
	octave 3
	note C_, 14
	note C_, 13
	note C_, 14
	note D_, 13
	note D_, 14
	note D_, 13
	note F_, 14
	note F_, 13
	note F_, 14
	note E_, 13
	note E_, 14
	note E_, 13
	note C_, 7
	note C_, 14
	note C_, 6
	note G#, 7
	note G#, 14
	note __, 6
	octave 3
	note C_, 14
	note C_, 7
	note E_, 6
	callchannel Branch_1efa34
	note D_, 13
	note D_, 14
	note D_, 7
	callchannel Branch_1efa41
	note D_, 14
	note D_, 13
	callchannel Branch_1efa34
	note C_, 7
	note D_, 6
	note E_, 14
	note D_, 7
	note C_, 6
	dec_octave
	note B_, 4
	note __, 3
	inc_octave
	note D_, 14
	note D_, 6
	note C_, 14
	note C_, 7
	dec_octave
	note A_, 6
	callchannel Branch_1efa34
	octave 2
	note F#, 13
	note F#, 14
	note F#, 13
	callchannel Branch_1efa4a
	octave 2
	note F#, 14
	note F#, 13
	note F#, 14
	note F#, 13
	note __, 7
	callchannel Branch_1efa51
	octave 3
	note C_, 14
	note C_, 7
	note E_, 6
	callchannel Branch_1efa34
	note D_, 13
	note D_, 14
	note D_, 7
	callchannel Branch_1efa41
	note D_, 14
	note D_, 13
	callchannel Branch_1efa34
	note C_, 7
	note D_, 6
	note E_, 14
	note D_, 7
	note C_, 6
	dec_octave
	note B_, 4
	note __, 3
	inc_octave
	note D_, 14
	note D_, 6
	note G_, 14
	note G_, 7
	note E_, 6
	callchannel Branch_1efa34
	note F#, 13
	note F#, 14
	note F#, 13
	callchannel Branch_1efa4a
	octave 3
	note F#, 14
	note F#, 13
	note F#, 14
	note F#, 13
	note __, 7
	callchannel Branch_1efa62
	octave 2
	note A_, 14
	note A_, 7
	inc_octave
	note C_, 6
	callchannel Branch_1efa34
	note D_, 13
	note D_, 14
	note D_, 7
	callchannel Branch_1efa41
	note D_, 14
	note D_, 13
	callchannel Branch_1efa34
	octave 2
	note A_, 7
	note B_, 6
	inc_octave
	note C_, 14
	dec_octave
	note B_, 7
	note A_, 6
	note G_, 4
	note G_, 3
	note B_, 14
	note B_, 6
	note A_, 14
	note A_, 7
	dec_octave
	note E_, 6
	callchannel Branch_1efa34
	octave 2
	note F#, 13
	note F#, 14
	note F#, 13
	callchannel Branch_1efa4a
	octave 2
	note F#, 14
	note F#, 13
	note F#, 14
	note F#, 13
	note F#, 7
	callchannel Branch_1efa51
	octave 2
	note A_, 14
	note A_, 7
	inc_octave
	note C_, 6
	callchannel Branch_1efa34
	note D_, 13
	note D_, 14
	note D_, 7
	callchannel Branch_1efa41
	note D_, 14
	note D_, 13
	callchannel Branch_1efa34
	octave 2
	note A_, 7
	note B_, 6
	inc_octave
	note C_, 14
	dec_octave
	note B_, 7
	note A_, 6
	note G_, 4
	note G_, 3
	note B_, 14
	note B_, 6
	inc_octave
	note D_, 14
	note D_, 7
	dec_octave
	note A_, 6
	callchannel Branch_1efa34
	octave 2
	note F#, 13
	note F#, 14
	note F#, 13
	callchannel Branch_1efa4a
	octave 3
	note __, 7
	note E_, 5
	note E_, 9
	note __, 6
	note C_, 5
	note C_, 9
	note __, 13
	note C_, 5
	note C_, 9
	octave 3
	note E_, 13
	note E_, 7
	note F_, 14
	note E_, 6
	octave 3
	note D#, 14
	note D#, 13
	octave 2
	note A#, 5
	note A#, 9
	note __, 13
	note __, 7
	octave 3
	note D#, 5
	note D#, 9
	dec_octave
	note G_, 6
	note A#, 14
	note G_, 13
	octave 3
	note D#, 14
	note D#, 13
	octave 2
	note A#, 5
	note A#, 9
	octave 3
	note D_, 7
	note __, 6
	note A#, 14
	note A#, 7
	note A_, 13
	note A_, 7
	note G_, 7
	note __, 6
	note F_, 14
	note F_, 7
	note G_, 6
	octave 3
	note D_, 5
	note D_, 9
	octave 3
	note A_, 7
	note __, 6
	note F_, 14
	note F_, 7
	octave 2
	note A#, 6
	inc_octave
	note D_, 14
	dec_octave
	note A#, 13
	octave 3
	note F_, 14
	note F_, 13
	note F_, 14
	note F_, 13
	note F_, 7
	octave 3
	note F_, 5
	note F_, 2
	dec_octave
	note G_, 13
	note A#, 4
	note __, 3
	note __, 7
	note G_, 13
	octave 3
	note D#, 14
	note D#, 13
	octave 2
	note A#, 5
	note A#, 9
	note __, 13
	note __, 7
	octave 3
	note D#, 5
	note D#, 9
	dec_octave
	note G_, 6
	note A#, 14
	note G_, 13
	octave 3
	note D#, 14
	note D#, 13
	octave 2
	note A#, 5
	note A#, 9
	octave 3
	note C_, 13
	octave 3
	note D#, 5
	note D#, 9
	octave 3
	note G_, 7
	note __, 13
	note A_, 14
	note __, 6
	note F_, 14
	note F_, 7
	note G_, 6
	octave 3
	note D_, 5
	note D_, 9
	octave 3
	note F_, 7
	note __, 6
	note D_, 14
	note D_, 7
	octave 2
	note F_, 6
	note A_, 14
	note F_, 13
	octave 3
	note F_, 14
	note F_, 13
	note F_, 14
	note F_, 13
	note F_, 7
	octave 3
	note D_, 5
	note D_, 2
	dec_octave
	note F_, 4
	note G_, 3
	note G_, 6
	note D#, 14
	note F_, 13
	octave 3
	note __, 14
	note __, 13
	note C_, 5
	note C_, 9
	note __, 13
	note __, 7
	note F_, 5
	note F_, 9
	dec_octave
	note G_, 6
	note A#, 14
	note G_, 13
	inc_octave
	note __, 14
	note __, 13
	note F_, 5
	note F_, 9
	note __, 13
	note __, 7
	note A#, 5
	note A#, 2
	note C_, 13
	note D#, 14
	note F_, 13
	note __, 14
	note __, 13
	octave 2
	note A#, 5
	note A#, 9
	note __, 13
	note __, 7
	note A#, 5
	note A#, 9
	note F_, 6
	note A#, 14
	note F_, 13
	inc_octave
	note __, 14
	note __, 13
	note F_, 5
	note F_, 9
	note __, 13
	note __, 7
	note F_, 5
	note F_, 9
	dec_octave
	note A#, 6
	octave 2
	note A_, 5
	note A#, 5
	inc_octave
	note C_, 5
	note D_, 4
	note E_, 4
	note F_, 4
	note F_, 14
	note F_, 7
	octave 3
	note F_, 6
	note F_, 14
	note G_, 13
	note G_, 14
	note G_, 13
	note G_, 14
	note G_, 13
	note G_, 14
	note G_, 13
	note G_, 14
	note G_, 13
	note G_, 14
	note G_, 7
	note G_, 6
	note D_, 5
	note E_, 5
	note F_, 5
	note G_, 4
	note A_, 4
	note B_, 4
	note F_, 14
	note F_, 7
	octave 3
	note F_, 6
	note F_, 14
	octave 3
	note G_, 13
	note G_, 7
	octave 3
	note G_, 5
	note G_, 9
	note __, 6
	octave 3
	note G#, 14
	note G#, 7
	note G#, 6
	note G#, 14
	note A_, 13
	note A_, 14
	note A_, 7
	note D_, 3
	note D#, 3
	dec_octave
	note B_, 4
	note B_, 3
	inc_octave
	note B_, 7
	note G_, 4
	note B_, 3
	note D_, 3
	note G_, 3
	note G_, 7
	note D_, 4
	note G_, 3
	dec_octave
	note B_, 4
	inc_octave
	note D_, 3
	note D_, 3
	dec_octave
	note B_, 3
	dec_octave
	note B_, 7
	note B_, 7
	callchannel Branch_1ef8d6
	note __, 14
	callchannel Branch_1ef8d6
	note __, 14
	callchannel Branch_1ef8d6
	note __, 14
	callchannel Branch_1ef8f0
	loopchannel 0, .MainLoop

Branch_1ef8d6:
	octave 2
	note __, 13
	note __, 14
	note __, 13
	note __, 14
	note __, 13
	note A_, 14
	note G_, 13
	note __, 14
	note __, 13
	note __, 7
	note G_, 5
	note G_, 9
	note __, 6
	note __, 7
	note G_, 5
	note G_, 9
	note __, 6
	note F#, 14
	note G_, 13
	endchannel

Branch_1ef8f0:
	octave 2
	note __, 13
	note __, 14
	note __, 13
	note __, 14
	note __, 13
	note A_, 14
	note G_, 13
	note __, 14
	note __, 13
	note __, 7
	note G_, 5
	note G_, 9
	note __, 6
	note __, 7
	note G_, 5
	note G_, 9
	note __, 6
	note B_, 14
	inc_octave
	note C_, 13
	endchannel

Branch_1efa34:
	octave 2
	octave 3
	note E_, 5
	note E_, 9
	endchannel

Branch_1efa41:
	octave 2
	octave 3
	note C_, 6
	note D_, 14
	note C_, 13
	endchannel

Branch_1efa4a:
	octave 2
	note A_, 14
	note G_, 13
	endchannel

Branch_1efa51:
	octave 2
	note G_, 5
	inc_octave
	note C_, 9
	dec_octave
	note __, 6
	note A_, 14
	note G_, 13
	endchannel

Branch_1efa62:
	octave 2
	note G_, 5
	inc_octave
	note C_, 9
	dec_octave
	note __, 6
	inc_octave
	note D_, 14
	note C_, 13
	endchannel


Music_TCG2GRDuelTheme2_Ch3: 
	notetype1 10
	notetype2 15
	notetype0 1
	notetype1 1
	octave 2
	note A_, 14
	note A_, 4
	note __, 3
	inc_octave
	note C_, 13
	note C_, 4
	note __, 3
	note D_, 13
	inc_octave
	note D_, 4
	note __, 3
	dec_octave
	note D_, 7
	note D#, 7
	note E_, 6
	dec_octave
	note G_, 7
	note E_, 7
	note G_, 7
	note G#, 6
	note A_, 7
	note __, 16
	note __, 4
	note A#, 14
	note A#, 7
	note A#, 3
	note __, 3
	note A#, 7
	inc_octave
	note F_, 4
	note __, 3
	note A#, 13
	note F_, 14
	dec_octave
	note A#, 13
.MainLoop
	callchannel Branch_1efd79
	callchannel Branch_1efd91
	callchannel Branch_1efd79
	callchannel Branch_1efd91
	callchannel Branch_1efd79
	callchannel Branch_1efd91
	callchannel Branch_1efd79
	callchannel Branch_1efd91
	callchannel Branch_1efda8
	callchannel Branch_1efdc0
	callchannel Branch_1efda8
	callchannel Branch_1efdd9
	callchannel Branch_1efda8
	callchannel Branch_1efdc0
	callchannel Branch_1efda8
	callchannel Branch_1efdd9
	octave 2
	note G_, 14
	note G_, 4
	note __, 3
	note G_, 6
	inc_octave
	note F_, 5
	note __, 2
	dec_octave
	note D_, 4
	note __, 3
	note F_, 7
	note F#, 6
	note G_, 4
	note __, 3
	inc_octave
	note A#, 5
	note __, 2
	dec_octave
	note A#, 13
	inc_octave
	note C_, 14
	dec_octave
	note A#, 13
	note G_, 14
	note G_, 4
	note __, 3
	note G_, 6
	inc_octave
	note F_, 5
	note __, 2
	dec_octave
	note D_, 4
	note __, 3
	note F_, 7
	note F#, 6
	note G_, 4
	note __, 3
	inc_octave
	note A#, 5
	note __, 2
	dec_octave
	note E_, 13
	note F_, 14
	note F#, 13
.Loop1
	octave 2
	note F_, 14
	note F_, 4
	note __, 3
	note F_, 6
	inc_octave
	note A_, 5
	note __, 2
	dec_octave
	inc_octave
	note C_, 4
	note __, 3
	note E_, 7
	note F_, 6
	dec_octave
	note F_, 4
	note __, 3
	inc_octave
	inc_octave
	note C_, 5
	note __, 2
	dec_octave
	dec_octave
	inc_octave
	note F_, 13
	dec_octave
	note A#, 14
	inc_octave
	note C_, 13
	loopchannel 2, .Loop1
	octave 2
	note G_, 14
	note G_, 4
	note __, 3
	note G_, 6
	inc_octave
	note F_, 5
	note __, 2
	dec_octave
	note D_, 4
	note __, 3
	note F_, 7
	note F#, 6
	note G_, 4
	note __, 3
	inc_octave
	note A#, 5
	note __, 2
	dec_octave
	note F_, 13
	note G_, 14
	note F_, 13
	note D#, 14
	note D#, 4
	note __, 3
	note D#, 6
	inc_octave
	note A#, 5
	note __, 2
	dec_octave
	note A#, 4
	note __, 3
	inc_octave
	note C#, 7
	note D_, 6
	note D#, 4
	note __, 3
	inc_octave
	note C#, 5
	note __, 2
	dec_octave
	dec_octave
	note D#, 13
	inc_octave
	note D#, 14
	dec_octave
	note D#, 13
	inc_octave
	note D_, 7
	dec_octave
	note A_, 4
	note __, 3
	note D_, 4
	note __, 3
	note A_, 4
	note __, 2
	note D_, 4
	note __, 3
	note A_, 4
	note __, 3
	inc_octave
	note E_, 7
	dec_octave
	note B_, 4
	note __, 2
	note E_, 4
	note __, 3
	note B_, 4
	note __, 3
	note E_, 4
	note __, 3
	note B_, 4
	note __, 2
	inc_octave
	note G_, 7
	note D_, 4
	note __, 3
	dec_octave
	note G_, 4
	note __, 3
	inc_octave
	note D_, 4
	note __, 2
	dec_octave
	note G_, 4
	note __, 3
	inc_octave
	note D_, 4
	note __, 3
	note A_, 7
	note E_, 4
	note __, 2
	dec_octave
	note A_, 4
	note __, 3
	inc_octave
	note E_, 4
	note __, 3
	dec_octave
	note A_, 4
	note __, 3
	inc_octave
	note E_, 4
	note __, 2
	note D_, 7
	dec_octave
	note A_, 4
	note __, 3
	note D_, 4
	note __, 3
	note A_, 4
	note __, 2
	note A#, 7
	inc_octave
	note F_, 4
	note __, 3
	note A#, 7
	note G#, 4
	note __, 2
	callchannel Branch_1efda8
	callchannel Branch_1efdc0
	callchannel Branch_1efda8
	callchannel Branch_1efdd9
	callchannel Branch_1efda8
	callchannel Branch_1efdc0
	callchannel Branch_1efda8
	callchannel Branch_1efdd9
	callchannel Branch_1efda8
	callchannel Branch_1efdc0
	callchannel Branch_1efda8
	callchannel Branch_1efdd9
	callchannel Branch_1efda8
	callchannel Branch_1efdc0
	callchannel Branch_1efda8
	octave 2
	note A_, 4
	note __, 3
	inc_octave
	note A_, 5
	note __, 2
	note G_, 7
	note A_, 4
	note __, 2
	note G_, 5
	note __, 2
	dec_octave
	note E_, 4
	note __, 3
	note G_, 7
	note G#, 6
	note A_, 7
	note __, 7
	note A_, 13
	note A_, 4
	note __, 3
	note G_, 14
	note G_, 3
	note __, 3
.Loop2
	octave 2
	note F_, 14
	note F_, 4
	note __, 3
	note F_, 6
	inc_octave
	note G_, 5
	note __, 2
	note C_, 4
	note __, 3
	note D#, 7
	note F_, 6
	dec_octave
	note F_, 4
	note __, 3
	inc_octave
	note A#, 5
	note __, 2
	note F_, 13
	note C_, 14
	note D#, 13
	loopchannel 2, .Loop2
	octave 2
	note F_, 14
	note F_, 4
	note __, 3
	note F_, 6
	inc_octave
	note A#, 5
	note __, 2
	note C_, 4
	note __, 3
	note D#, 7
	note F_, 6
	dec_octave
	note F_, 4
	note __, 3
	inc_octave
	inc_octave
	note F_, 5
	note __, 2
	dec_octave
	note F_, 13
	note C_, 14
	note D#, 13
	octave 2
	note F_, 14
	note F_, 4
	note __, 3
	note F_, 6
	inc_octave
	inc_octave
	note D_, 5
	note __, 2
	dec_octave
	note C_, 4
	note __, 3
	note D#, 7
	note F_, 6
	dec_octave
	note F_, 4
	note __, 3
	inc_octave
	inc_octave
	note D_, 5
	note __, 2
	dec_octave
	note F_, 13
	note C_, 14
	note D#, 13
	octave 2
	note F_, 14
	note F_, 4
	note __, 3
	note F_, 6
	inc_octave
	note G_, 5
	note __, 2
	note C_, 4
	note __, 3
	note D#, 7
	note F_, 6
	dec_octave
	note F_, 4
	note __, 3
	inc_octave
	note A#, 5
	note __, 2
	note F_, 13
	note C_, 14
	note D#, 13
	octave 2
	note F_, 14
	note F_, 4
	note __, 3
	note F_, 6
	inc_octave
	note G_, 5
	note __, 2
	note C_, 4
	note __, 3
	note D#, 7
	note F_, 6
	dec_octave
	note F_, 4
	note __, 3
	inc_octave
	note G_, 5
	note __, 2
	note F_, 13
	note C_, 14
	note D#, 13
	dec_octave
	octave 2
	note A#, 14
	note A#, 4
	note __, 3
	note A#, 6
	inc_octave
	note A_, 5
	note __, 2
	dec_octave
	note F_, 4
	note __, 3
	note A_, 7
	note A#, 6
	note A#, 4
	note __, 3
	inc_octave
	inc_octave
	note D_, 5
	note __, 2
	dec_octave
	note F_, 13
	note A_, 14
	note F_, 13
	octave 2
	note A#, 14
	note A#, 4
	note __, 3
	note A#, 6
	inc_octave
	inc_octave
	note D_, 5
	note __, 2
	dec_octave
	dec_octave
	note F_, 4
	note __, 3
	note A_, 7
	note A#, 6
	note A#, 4
	note __, 3
	inc_octave
	note A_, 5
	note __, 2
	dec_octave
	note F_, 13
	note A_, 14
	note F_, 13
	octave 2
	note G#, 14
	note G#, 4
	note __, 3
	note G#, 6
	inc_octave
	note G_, 5
	note __, 2
	note D#, 4
	note __, 3
	note G_, 7
	note G#, 6
	dec_octave
	note G#, 4
	note __, 3
	inc_octave
	inc_octave
	note C_, 5
	note __, 2
	dec_octave
	note D#, 13
	note G_, 14
	note D#, 13
	octave 2
	note D_, 14
	note D_, 4
	note __, 3
	note D_, 6
	inc_octave
	inc_octave
	note C_, 5
	note __, 2
	dec_octave
	dec_octave
	note A_, 4
	note __, 3
	inc_octave
	note C_, 7
	note D_, 6
	dec_octave
	note D_, 4
	note __, 3
	inc_octave
	inc_octave
	note F_, 5
	note __, 2
	dec_octave
	dec_octave
	note A_, 13
	inc_octave
	note C_, 14
	dec_octave
	note A_, 13
	note G_, 14
	note G_, 4
	note __, 3
	note G_, 6
	inc_octave
	note F_, 5
	note __, 2
	note D_, 4
	note __, 3
	note F_, 7
	note G_, 6
	dec_octave
	note G_, 4
	note __, 3
	inc_octave
	note F_, 5
	note __, 2
	dec_octave
	note G_, 13
	inc_octave
	note D_, 14
	note C#, 13
	dec_octave
	note D#, 14
	note D#, 4
	note __, 3
	note D#, 6
	inc_octave
	note A#, 5
	note __, 2
	dec_octave
	note A#, 4
	note __, 3
	inc_octave
	note C#, 7
	note D#, 6
	dec_octave
	note D#, 4
	note __, 3
	inc_octave
	inc_octave
	note C#, 5
	note __, 2
	dec_octave
	note D#, 13
	dec_octave
	note A#, 14
	inc_octave
	note C#, 13
	note D_, 7
	dec_octave
	note A_, 4
	note __, 3
	note D_, 4
	note __, 3
	inc_octave
	inc_octave
	note C_, 5
	note __, 1
	dec_octave
	dec_octave
	note D_, 4
	note __, 3
	note D_, 2
	note __, 5
	note E_, 13
	note E_, 4
	note __, 3
	inc_octave
	inc_octave
	note G_, 5
	note __, 2
	dec_octave
	note E_, 13
	dec_octave
	note B_, 14
	inc_octave
	note D_, 13
	note E_, 7
	dec_octave
	note E_, 4
	note __, 3
	note E_, 2
	note __, 5
	inc_octave
	inc_octave
	note D_, 5
	note __, 1
	dec_octave
	dec_octave
	note E_, 4
	note __, 3
	inc_octave
	note E_, 7
	note D_, 7
	note E_, 6
	dec_octave
	note E_, 4
	note __, 3
	inc_octave
	inc_octave
	note D_, 5
	note __, 2
	dec_octave
	dec_octave
	note B_, 13
	inc_octave
	note D_, 14
	dec_octave
	note B_, 13
	inc_octave
	note D_, 7
	dec_octave
	note A_, 4
	note __, 3
	note D_, 4
	note __, 3
	inc_octave
	inc_octave
	note C_, 5
	note __, 1
	dec_octave
	dec_octave
	note D_, 4
	note __, 3
	note D_, 2
	note __, 5
	note E_, 13
	note E_, 4
	note __, 3
	inc_octave
	inc_octave
	note D_, 5
	note __, 2
	dec_octave
	note E_, 13
	dec_octave
	note A#, 14
	inc_octave
	inc_octave
	note D_, 5
	note __, 2
	dec_octave
	dec_octave
	note A#, 3
	note __, 3
	note A#, 7
	inc_octave
	note A#, 4
	note __, 3
	dec_octave
	note E_, 13
	note E_, 14
	note E_, 4
	note __, 3
	inc_octave
	note D_, 6
	note E_, 7
	dec_octave
	note D_, 4
	note __, 3
	note D#, 4
	note __, 3
	note E_, 4
	note __, 2
	note G_, 7
	note E_, 4
	note __, 3
	note G_, 4
	note __, 3
	note G#, 4
	note __, 2
	callchannel Branch_1efd79
	callchannel Branch_1efd91
	callchannel Branch_1efd79
	callchannel Branch_1efd91
	callchannel Branch_1efd79
	callchannel Branch_1efd91
	callchannel Branch_1efd79
	callchannel Branch_1efd91
	loopchannel 0, .MainLoop

Branch_1efd79:
	octave 2
	note A_, 14
	inc_octave
	note G_, 5
	note __, 2
	dec_octave
	note A_, 6
	note A_, 4
	note __, 3
	inc_octave
	note G_, 5
	note __, 2
	dec_octave
	inc_octave
	note G_, 7
	note G#, 6
	note A_, 4
	note __, 3
	note G_, 5
	note __, 2
	note C_, 13
	note D_, 14
	note E_, 13
	endchannel

Branch_1efd91:
	octave 2
	note A_, 14
	inc_octave
	note G_, 5
	note __, 2
	dec_octave
	note A_, 6
	note A_, 4
	note __, 3
	note A_, 1
	note __, 6
	inc_octave
	note G_, 7
	note G#, 6
	note A_, 4
	note __, 3
	dec_octave
	note A_, 2
	note __, 5
	note F#, 13
	note G_, 14
	note G#, 13
	endchannel

Branch_1efda8:
	octave 2
	note A_, 14
	note A_, 4
	note __, 3
	note A_, 6
	inc_octave
	note G_, 5
	note __, 2
	dec_octave
	note E_, 4
	note __, 3
	note G_, 7
	note G#, 6
	note A_, 4
	note __, 3
	inc_octave
	inc_octave
	note C_, 5
	note __, 2
	dec_octave
	note C_, 13
	note D_, 14
	note C_, 13
	endchannel

Branch_1efdc0:
	octave 2
	note A_, 14
	note A_, 4
	note __, 3
	note A_, 6
	inc_octave
	note G_, 5
	note __, 2
	dec_octave
	note E_, 4
	note __, 3
	note G_, 7
	note G#, 6
	note A_, 4
	note __, 3
	inc_octave
	inc_octave
	note C_, 5
	note __, 2
	dec_octave
	dec_octave
	note F#, 13
	note G_, 14
	note G#, 13
	endchannel

Branch_1efdd9:
	octave 2
	note A_, 14
	note A_, 4
	note __, 3
	note A_, 6
	inc_octave
	inc_octave
	note C_, 5
	note __, 2
	dec_octave
	dec_octave
	note E_, 4
	note __, 3
	note G_, 7
	note G#, 6
	note A_, 4
	note __, 3
	inc_octave
	inc_octave
	note C_, 5
	note __, 2
	dec_octave
	dec_octave
	note F#, 13
	note G_, 14
	note G#, 13
	endchannel


Music_TCG2GRDuelTheme2_Ch4: 
	togglenoise $06
	octave 1
	notetype 1
	note E_, 14
	note C#, 7
	note E_, 13
	note C#, 7
	note E_, 13
	note D#, 7
	note C#, 3
	note C#, 4
	note C#, 7
	note C#, 6
	note C#, 7
	note C#, 7
	note C_, 7
	note C_, 6
	note C#, 14
	note C_, 4
	note C_, 4
	note C_, 5
	note C#, 14
	note C_, 7
	note C#, 6
	note C#, 4
	note C#, 5
	note C#, 5
	note C#, 4
	note C#, 4
	note C#, 5
	note C#, 7
	note C#, 7
	note C_, 13
.MainLoop
	note C_, 14
	note D#, 7
	note C_, 6
	note C#, 14
	note D#, 7
	note D#, 6
	note C_, 7
	note D#, 7
	note E_, 13
	note C#, 7
	note C_, 7
	note E_, 13
	callchannel Branch_1effdc
	callchannel Branch_1effeb
	callchannel Branch_1effdc
	callchannel Branch_1effeb
	callchannel Branch_1effdc
	callchannel Branch_1effeb
	note C#, 7
	note C#, 7
	note C#, 7
	note C#, 6
	note C#, 7
	note C#, 7
	note C#, 7
	note C#, 6
	note C#, 7
	note C#, 7
	note C#, 7
	note C#, 3
	note C#, 3
	note C#, 7
	note C#, 7
	note C#, 7
	note C#, 6
	callchannel Branch_1effeb
	callchannel Branch_1effdc
	callchannel Branch_1effeb
	callchannel Branch_1effdc
	callchannel Branch_1effeb
	callchannel Branch_1effdc
	callchannel Branch_1effeb
	note C_, 14
	note D#, 7
	note C_, 6
	note C#, 14
	note D#, 7
	note D#, 6
	note C_, 7
	note C#, 7
	note E_, 7
	note C#, 3
	note C#, 3
	note C#, 7
	note C#, 7
	note C_, 7
	note C#, 6
	callchannel Branch_1effeb
	callchannel Branch_1effdc
	callchannel Branch_1effeb
	callchannel Branch_1effdc
	callchannel Branch_1effeb
	note C_, 14
	note D#, 7
	note C_, 6
	note C#, 14
	note D#, 7
	note D#, 6
	note C_, 7
	note C#, 7
	note E_, 13
	note C#, 14
	note C#, 7
	note C#, 6
	note C#, 14
	note E_, 7
	note C_, 6
	note C#, 14
	note C#, 13
	note E_, 7
	note C_, 7
	note C#, 13
	note C#, 14
	note E_, 7
	note C_, 6
	note C#, 14
	note C#, 13
	note E_, 7
	note C_, 7
	note C#, 13
	note C#, 3
	note C#, 4
	note C#, 7
	note C#, 7
	note C#, 6
	note C#, 7
	note C#, 7
	note C#, 7
	note C#, 6
	callchannel Branch_1effeb
	callchannel Branch_1effdc
	callchannel Branch_1effeb
	callchannel Branch_1effdc
	callchannel Branch_1effeb
	callchannel Branch_1effdc
	callchannel Branch_1effeb
	note C_, 14
	note D#, 7
	note C_, 6
	note C#, 14
	note D#, 7
	note C#, 3
	note C#, 3
	note C#, 4
	note C#, 5
	note C#, 5
	note C#, 4
	note C#, 4
	note C#, 5
	note C#, 7
	note C#, 7
	note D#, 6
	note C#, 6
	callchannel Branch_1effeb
	callchannel Branch_1effdc
	callchannel Branch_1effeb
	callchannel Branch_1effdc
	callchannel Branch_1effeb
	callchannel Branch_1effdc
	callchannel Branch_1effeb
	note C_, 7
	note C#, 7
	note E_, 7
	note C#, 3
	note C#, 3
	note C#, 7
	note C#, 7
	note C#, 7
	note C_, 6
	note C#, 14
	note C_, 13
	note C#, 7
	note C_, 14
	note C#, 6
	callchannel Branch_1effeb
	callchannel Branch_1effdc
	callchannel Branch_1effeb
	callchannel Branch_1effdc
	callchannel Branch_1effeb
	callchannel Branch_1effdc
	callchannel Branch_1effeb
	note C_, 14
	note D#, 7
	note C_, 6
	note C#, 14
	note D#, 7
	note D#, 6
	note C_, 7
	note C#, 7
	note E_, 7
	note C#, 3
	note C#, 3
	note C#, 7
	note C#, 7
	note D#, 7
	note C#, 6
	callchannel Branch_1effeb
	callchannel Branch_1effdc
	callchannel Branch_1effeb
	note C_, 14
	note D#, 7
	note C_, 6
	note C#, 15
	note D#, 7
	note C#, 3
	note C#, 3
	note C#, 7
	note C#, 7
	note C#, 7
	note C#, 6
	note C#, 7
	note C#, 7
	note C#, 7
	note C#, 6
	note C#, 14
	note E_, 7
	note C_, 6
	note C#, 14
	note C#, 13
	note D#, 7
	note C_, 7
	note E_, 13
	note C#, 14
	note E_, 13
	note C_, 14
	note D#, 7
	note C_, 6
	note C#, 14
	note D#, 7
	note D#, 6
	note C_, 7
	note C#, 7
	note E_, 13
	note C#, 7
	note D#, 7
	note C#, 7
	note C#, 6
	note C#, 14
	note E_, 7
	note C_, 6
	note C#, 14
	note C#, 13
	note D#, 7
	note C#, 7
	note E_, 13
	note C#, 14
	note D#, 7
	note C#, 6
	note C_, 14
	note C#, 13
	note D#, 7
	note E_, 7
	note C#, 7
	note C_, 6
	note C#, 4
	note C#, 5
	note C#, 5
	note C#, 4
	note C#, 4
	note C#, 5
	note C#, 7
	note C#, 7
	note D#, 7
	note C#, 6
	notetype 6
	note F_, 16
	notetype 1
	note __, 12
	note __, 16
	note __, 16
	note __, 16
	note __, 16
	note __, 16
	note __, 16
	note __, 12
	note __, 16
	note __, 16
	note __, 16
	note __, 16
	note __, 16
	note __, 16
	note __, 12
	note __, 16
	note __, 16
	note __, 16
	note __, 16
	note __, 16
	note __, 1
	note D#, 4
	note D#, 5
	note D#, 5
	note E_, 13
.Loop1
	note D#, 7
	note D#, 7
	note E_, 13
	note D#, 7
	note E_, 7
	note D#, 7
	note D#, 6
	note D#, 7
	note D#, 7
	note E_, 13
	note D#, 7
	note E_, 7
	note D#, 7
	note D#, 6
	loopchannel 3, .Loop1
	note D#, 7
	note D#, 7
	note E_, 13
	note D#, 7
	note E_, 7
	note D#, 7
	note C#, 3
	note C#, 3
	note C#, 7
	note C#, 7
	note C#, 7
	note C#, 6
	note C#, 7
	note C#, 7
	note C#, 7
	note C#, 6
	loopchannel 0, .MainLoop

Branch_1effdc:
	octave 1
	note C_, 14
	note D#, 7
	note C_, 6
	note C#, 14
	note D#, 7
	note D#, 6
	note C_, 7
	note C#, 7
	note E_, 13
	note C#, 7
	note C_, 7
	note D#, 7
	note C#, 6
	endchannel

Branch_1effeb:
	octave 1
	note C_, 14
	note D#, 7
	note C_, 6
	note C#, 14
	note D#, 7
	note D#, 6
	note C_, 7
	note D#, 7
	note E_, 13
	note C#, 7
	note C_, 7
	note E_, 13
	endchannel

