Music_GRDuelTheme1:
	channel_count 4
	channel 1, Music_GRDuelTheme1_Ch1
	channel 2, Music_GRDuelTheme1_Ch2
	channel 3, Music_GRDuelTheme1_Ch3
	channel 4, Music_GRDuelTheme1_Ch4

Music_GRDuelTheme1_Ch2: ; 1f5865 (7d:5865)
	channel_volume 10
	;musicdc 255
	speed 1
	;musicf0 16
	octave 3
	;musicf1 54
	rest 15
	octave 3
	note E_, 7
	note E_, 7
	;tie
	note E_, 8
	note E_, 7
	note E_, 7
	;tie
	note E_, 7
	note F_, 8
	note F_, 7
	;tie
	note F_, 7
	note F_, 7
	note F_, 15
	rest 14
	rest 15
	octave 3
	note G_, 7
	note G_, 7
	;tie
	note G_, 8
	note G_, 7
	note G_, 7
	;tie
	note G_, 7
	note F_, 8
	note F_, 7
	;tie
	note F_, 7
	note F_, 7
	note F_, 15
	rest 14
.MainLoop
.Loop1
	rest 15
	octave 3
	note E_, 7
	note E_, 7
	;tie
	note E_, 8
	note E_, 7
	note E_, 7
	;tie
	note E_, 7
	note F_, 8
	note F_, 7
	;tie
	note F_, 7
	note F_, 7
	note F_, 15
	rest 14
	rest 15
	octave 3
	note G_, 7
	note G_, 7
	;tie
	note G_, 8
	note G_, 7
	note G_, 7
	;tie
	note G_, 7
	note F_, 8
	note F_, 7
	;tie
	note F_, 7
	note F_, 7
	note F_, 15
	rest 14
	sound_loop 2, .Loop1
	rest 15
	octave 3
	note E_, 7
	note E_, 7
	;tie
	note E_, 8
	note E_, 7
	note E_, 7
	;tie
	note E_, 7
	note F_, 8
	note F_, 7
	;tie
	note F_, 7
	note F_, 7
	note F_, 15
	rest 14
	rest 15
	octave 3
	note G_, 7
	note G_, 7
	;tie
	note G_, 8
	note G_, 7
	note G_, 7
	;tie
	note G_, 7
	note F_, 8
	note F_, 7
	;tie
	note F_, 7
	note F_, 7
	note F_, 15
	rest 7
	sound_call Branch_1f5ae8
	;musicf0 16
	;musicf1 54
	octave 3
	note G_, 7
	note G_, 7
	;tie
	note G_, 8
	note G_, 7
	note G_, 7
	;tie
	note G_, 7
	note F_, 8
	note F_, 7
	;tie
	note F_, 7
	note F_, 7
	note F_, 15
	rest 14
	rest 15
	octave 3
	note E_, 7
	note E_, 7
	;tie
	note E_, 8
	note E_, 7
	note E_, 7
	;tie
	note E_, 7
	note F_, 8
	note F_, 7
	;tie
	note F_, 7
	note F_, 7
	note F_, 15
	rest 14
	rest 15
	octave 3
	note G_, 7
	note G_, 7
	;tie
	note G_, 8
	note G_, 7
	note G_, 7
	;tie
	note G_, 7
	note F_, 8
	note F_, 7
	;tie
	note F_, 7
	note F_, 7
	note F_, 15
	rest 7
	sound_call Branch_1f5ae8
	;musicf0 16
	;musicf1 54
	octave 3
	note G_, 7
	note G_, 7
	;tie
	note G_, 8
	note G_, 7
	note G_, 7
	;tie
	note G_, 7
	note F_, 8
	note F_, 7
	;tie
	note F_, 7
	note F_, 7
	note F_, 15
	rest 14
	rest 15
	octave 3
	note E_, 7
	note E_, 7
	;tie
	note E_, 8
	note E_, 7
	note E_, 7
	;tie
	note E_, 7
	note F_, 8
	note F_, 7
	;tie
	note F_, 7
	note F_, 7
	note F_, 15
	rest 14
	rest 15
	octave 3
	note G_, 7
	note G_, 7
	;tie
	note G_, 8
	note G_, 7
	note G_, 7
	;tie
	note G_, 7
	note F_, 8
	;musicf0 4
	;musicf3
	octave 2
	note A_, 7
	note A#, 7
	inc_octave
	note C#, 4
	rest 3
	note F_, 8
	note F#, 7
	note A_, 7
	note A#, 3
	rest 4
	;musicf1 71
	inc_octave
	note C_, 15
	note C_, 7
	dec_octave
	note A#, 7
	note A#, 8
	note A_, 5
	note A_, 9
	note F_, 4
	note F_, 3
	;musicf3
	note C#, 15
	;tie
	note C#, 14
	note G_, 15
	;tie
	note G_, 7
	note F#, 4
	note F_, 3
	note E_, 9
	;musicf1 71
	note F_, 5
	note F_, 5
	note G_, 5
	note G_, 5
	;musicf3
	note E_, 9
	;musicf1 71
	note C_, 5
	note C_, 5
	dec_octave
	note G_, 5
	note G_, 5
	;musicf3
	note A_, 15
	;tie
	note A_, 14
	inc_octave
	;musicf1 71
	note D_, 15
	;tie
	note D_, 7
	note D_, 7
	note G_, 3
	;musicf1 71
	note A_, 12
	note A_, 7
	note G_, 7
	note G_, 8
	note D_, 7
	note D_, 7
	dec_octave
	;musicf3
	note A#, 7
	inc_octave
	;musicf3
	note F_, 15
	;tie
	note F_, 14
	note G_, 15
	;tie
	note G_, 7
	note F#, 4
	note F_, 3
	;musicf1 71
	note E_, 15
	;tie
	note E_, 14
	note E_, 8
	;musicf3
	note F_, 7
	;musicf1 71
	note E_, 7
	note E_, 7
	note D_, 15
	;tie
	note D_, 7
	note D_, 7
	;musicf3
	note C#, 3
	note D_, 12
	;musicf1 71
	note F_, 7
	note F_, 7
	inc_octave
	note C_, 15
	note C_, 7
	dec_octave
	note A#, 7
	note A#, 8
	note A_, 5
	note A_, 9
	note F_, 3
	note F_, 4
	;musicf3
	note C#, 15
	;tie
	note C#, 14
	note G_, 15
	;tie
	note G_, 8
	note F#, 3
	note F_, 3
	note E_, 9
	;musicf1 71
	note F_, 5
	note F_, 5
	note G_, 5
	note G_, 5
	;musicf3
	note E_, 9
	;musicf1 71
	note C_, 5
	note C_, 5
	dec_octave
	note G_, 5
	note G_, 5
	;musicf3
	note A_, 15
	;tie
	note A_, 14
	inc_octave
	;musicf1 71
	note D_, 15
	;tie
	note D_, 7
	note D_, 7
	note A_, 15
	;tie
	note A_, 14
	note A_, 8
	note G_, 7
	note G_, 14
	;musicf3
	note B_, 3
	inc_octave
	;musicf1 71
	note C_, 12
	note C_, 7
	dec_octave
	;musicf3
	note A_, 15
	note A#, 7
	;musicf1 71
	note A_, 3
	note A_, 4
	note G_, 3
	note G_, 4
	note A_, 15
	;tie
	note A_, 14
	;tie
	note A_, 15
	;tie
	note A_, 14
	;tie
	note A_, 15
	;tie
	note A_, 7
	note A_, 7
.Loop2
	;musicf0 0
	;musicf3
	octave 2
	note A_, 5
	note A#, 5
	inc_octave
	note C#, 5
	note E_, 5
	note F_, 5
	note G_, 4
	inc_octave
	note D#, 3
	;musicf1 70
	note E_, 12
	note E_, 7
	note C_, 7
	note C_, 8
	dec_octave
	note A_, 5
	note A_, 9
	note F_, 4
	note F_, 3
	note G_, 15
	;tie
	note G_, 4
	note G_, 7
	note B_, 3
	;musicf3
	inc_octave
	note C_, 15
	dec_octave
	;musicf1 70
	note A#, 7
	note A#, 7
	;musicf1 70
	note A_, 15
	note A_, 7
	;musicf3
	note F_, 7
	;tie
	note F_, 15
	;musicf1 70
	note G_, 7
	note G_, 7
	;musicf3
	note G#, 3
	note A_, 12
	;tie
	note A_, 7
	;musicf1 70
	note G_, 7
	;tie
	note G_, 15
	;tie
	note G_, 7
	note G_, 7
	inc_octave
	;musicf3
	note D#, 3
	;musicf1 70
	note E_, 12
	note E_, 7
	note C_, 7
	note C_, 8
	dec_octave
	note A_, 5
	note A_, 9
	note F_, 4
	note F_, 3
	note G_, 15
	;tie
	note G_, 4
	note G_, 7
	;musicf3
	note B_, 3
	inc_octave
	note C_, 15
	dec_octave
	;musicf1 70
	note A#, 7
	note A#, 7
	note A_, 15
	;tie
	note A_, 14
	;tie
	note A_, 15
	;tie
	note A_, 14
	;tie
	note A_, 15
	;tie
	note A_, 14
	sound_loop 2, .Loop2
	;musicf3
	octave 2
	note A_, 5
	note A#, 5
	inc_octave
	note C#, 5
	note E_, 5
	note F_, 5
	note G_, 4
	;musicf0 4
	;musicf3
	note G#, 3
	note A_, 12
	;tie
	note A_, 7
	note G_, 15
	;tie
	note G_, 7
	;musicf1 70
	note D_, 5
	note D_, 9
	;musicf3
	note C#, 15
	;tie
	note C#, 14
	note G_, 15
	;tie
	note G_, 8
	note F#, 3
	note F_, 3
	note E_, 9
	;musicf1 71
	note F_, 5
	note F_, 5
	note G_, 5
	note G_, 5
	;musicf3
	note E_, 9
	;musicf1 71
	note C_, 5
	note C_, 5
	dec_octave
	note G_, 5
	note G_, 5
	;musicf3
	note A_, 15
	;tie
	note A_, 14
	;musicf0 0
	;musicf3
	octave 2
	note G_, 5
	note A_, 5
	note A#, 5
	inc_octave
	note C_, 5
	note D_, 5
	note E_, 4
	note A_, 15
	;tie
	note A_, 7
	;musicf1 70
	note G_, 7
	note G_, 8
	note D_, 5
	note D_, 9
	dec_octave
	;musicf3
	note A#, 7
	inc_octave
	note E_, 3
	;musicf1 70
	note F_, 12
	;tie
	note F_, 7
	note F_, 7
	;musicf3
	note G_, 15
	;tie
	note G_, 8
	note F#, 3
	note F_, 3
	;musicf1 87
	note E_, 15
	;tie
	note E_, 14
	;tie
	note E_, 15
	;tie
	note E_, 14
	;tie
	note E_, 15
	;tie
	note E_, 14
	;tie
	note E_, 15
	;tie
	note E_, 14
	note E_, 15
	;musicf0 16
	octave 3
	;musicf1 54
	octave 3
	note G_, 7
	note G_, 7
	;tie
	note G_, 8
	note G_, 7
	note G_, 7
	;tie
	note G_, 7
	note F_, 8
	note F_, 7
	;tie
	note F_, 7
	note F_, 7
	note F_, 15
	rest 14
	sound_loop 0, .MainLoop

Branch_1f5ae8:
	;musicf3
	;musicf0 0
	;musicef 1
	octave 2
	note A#, 3
	note B_, 4
	vibrato 19, 3, 3
	;musicf1 55
	inc_octave
	note C_, 15
	;tie
	note C_, 14
	;tie
	note C_, 15
	;tie
	note C_, 14
	;tie
	note C_, 15
	;tie
	note C_, 14
	note C_, 8
	;musicf3
	note E_, 7
	;musicf2
	note G_, 7
	note G_, 7
	;musicf3
	note A#, 3
	note B_, 12
	;tie
	note B_, 14
	;tie
	note B_, 15
	;musicf2
	note A_, 7
	note A_, 7
	;musicf3
	inc_octave
	note D_, 15
	note C_, 14
	dec_octave
	;musicf2
	note B_, 5
	note B_, 5
	;musicf3
	note G_, 9
	note A_, 10
	;musicf2
	note A#, 15
	;tie
	note A#, 14
	;tie
	note A#, 15
	;tie
	note A#, 14
	;tie
	note A#, 15
	;tie
	note A#, 14
	note A#, 8
	;musicf3
	note B_, 3
	inc_octave
	note C_, 4
	;tie
	note C_, 14
	dec_octave
	;musicf2
	note A_, 15
	;tie
	note A_, 14
	;tie
	note A_, 15
	;tie
	note A_, 14
	;tie
	note A_, 15
	;tie
	note A_, 14
	note A_, 8
	;musicf0 16
	octave 3
	;musicef 1
	;musicf1 54
	note F_, 7
	note F_, 14
	;musicf0 0
	octave 3
	;musicef 1
	;musicf1 55
	note C_, 15
	;tie
	note C_, 14
	;tie
	note C_, 15
	;tie
	note C_, 14
	;tie
	note C_, 15
	;tie
	note C_, 14
	note C_, 8
	note E_, 7
	;musicf2
	note G_, 7
	note G_, 7
	;musicf3
	note A#, 3
	note B_, 12
	;tie
	note B_, 14
	;tie
	note B_, 15
	;musicf2
	note A_, 7
	note A_, 7
	;musicf3
	inc_octave
	note D_, 15
	note C_, 14
	dec_octave
	;musicf2
	note B_, 5
	note B_, 5
	;musicf3
	note G_, 9
	note A_, 10
	;musicf2
	note A#, 15
	;tie
	note A#, 14
	;tie
	note A#, 15
	;tie
	note A#, 14
	;tie
	note A#, 15
	;tie
	note A#, 14
	note A#, 8
	;musicf3
	inc_octave
	note C_, 14
	;tie
	note C_, 7
	note C#, 3
	note D_, 12
	;tie
	note D_, 14
	;tie
	note D_, 15
	note C_, 7
	dec_octave
	note A#, 7
	;musicf2
	note A_, 15
	note A_, 7
	;musicf3
	note B_, 4
	inc_octave
	note C_, 15
	;tie
	note C_, 3
	dec_octave
	;musicf2
	note A#, 7
	note A#, 7
	;musicf2
	note A_, 15
	;tie
	note A_, 14
	;tie
	note A_, 15
	;musicf2
	note A#, 7
	note A#, 7
	note A_, 15
	note A_, 7
	note F_, 15
	note F_, 7
	note G_, 7
	note G_, 7
	;musicf3
	note G#, 3
	;musicf2
	note A_, 12
	;tie
	note A_, 14
	;tie
	note A_, 15
	;tie
	note A_, 7
	note A_, 7
	note G_, 15
	;tie
	note G_, 14
	;tie
	note G_, 15
	note G_, 14
	;musicf3
	note G_, 15
	;tie
	note G_, 14
	;tie
	note G_, 15
	;musicf2
	note F_, 7
	note F_, 7
	;musicf3
	note B_, 2
	inc_octave
	note C_, 13
	dec_octave
	;musicf2
	note G_, 14
	note G_, 8
	note F_, 7
	note F_, 7
	note C_, 4
	note C_, 3
	;musicf3
	note D#, 15
	;tie
	note D#, 14
	;tie
	note D#, 15
	;tie
	note D#, 14
	;tie
	note D#, 15
	;tie
	note D#, 14
	note F_, 15
	;tie
	note F_, 8
	note E_, 3
	note D#, 3
	note D_, 15
	;musicf2
	note D#, 7
	note D#, 7
	note G_, 8
	note G_, 7
	note A#, 5
	note A#, 9
	inc_octave
	;musicf3
	note D_, 15
	;tie
	note D_, 7
	;musicf2
	note C_, 7
	note C_, 15
	;musicf3
	note E_, 3
	;musicf2
	note F_, 7
	note F_, 4
	;musicf3
	note D_, 15
	;tie
	note D_, 14
	;tie
	note D_, 15
	;musicf2
	note D#, 7
	note D#, 7
	;musicf3
	note D_, 15
	;musicf2
	note C_, 7
	note C_, 7
	;musicf3
	dec_octave
	note F#, 15
	inc_octave
	;musicf2
	note C_, 7
	note C_, 7
	dec_octave
	note A_, 15
	;tie
	note A_, 14
	;tie
	note A_, 15
	;tie
	note A_, 14
	;tie
	note A_, 15
	;tie
	note A_, 14
	;tie
	note A_, 15
	;tie
	note A_, 14
	note A_, 15
	sound_ret


Music_GRDuelTheme1_Ch1: ; 1f5c1b (7d:5c1b)
	channel_volume 10
	;musicdc 255
	speed 1
	;musicf0 16
	;musicef 255
	octave 3
	;musicf1 54
	rest 15
	octave 3
	note C_, 7
	note C_, 7
	;tie
	note C_, 8
	note C_, 7
	note C_, 7
	;tie
	note C_, 7
	note C#, 8
	note C#, 7
	;tie
	note C#, 7
	note C#, 7
	note C#, 15
	rest 14
	rest 15
	octave 3
	note E_, 7
	note E_, 7
	;tie
	note E_, 8
	note E_, 7
	note E_, 7
	;tie
	note E_, 7
	note C#, 8
	note C#, 7
	;tie
	note C#, 7
	note C#, 7
	note C#, 15
	rest 14
.MainLoop
.Loop1
	rest 15
	octave 3
	note C_, 7
	note C_, 7
	;tie
	note C_, 8
	note C_, 7
	note C_, 7
	;tie
	note C_, 7
	note C#, 8
	note C#, 7
	;tie
	note C#, 7
	note C#, 7
	note C#, 15
	rest 14
	rest 15
	octave 3
	note E_, 7
	note E_, 7
	;tie
	note E_, 8
	note E_, 7
	note E_, 7
	;tie
	note E_, 7
	note C#, 8
	note C#, 7
	;tie
	note C#, 7
	note C#, 7
	note C#, 15
	rest 14
	sound_loop 3, .Loop1
	octave 3
	;musicef 1
.Loop2
	rest 15
	note E_, 7
	note E_, 15
	note E_, 7
	note E_, 14
	note E_, 8
	note E_, 14
	note E_, 7
	note E_, 15
	note E_, 7
	note E_, 7
	sound_loop 2, .Loop2
	rest 15
	note F_, 7
	note F_, 15
	note F_, 7
	note F_, 14
	note F_, 8
	note F_, 14
	note F_, 7
	note F_, 15
	note F_, 7
	note F_, 7
	rest 15
	note F_, 7
	note F_, 15
	note F_, 7
	note F_, 14
	note F_, 8
	note F_, 14
	note F_, 7
	note F_, 8
	note C#, 7
	note C#, 14
.Loop3
	rest 15
	note E_, 7
	note E_, 15
	note E_, 7
	note E_, 14
	note E_, 8
	note E_, 14
	note E_, 7
	note E_, 15
	note E_, 7
	note E_, 7
	sound_loop 2, .Loop3
	rest 15
	note D#, 7
	note D#, 15
	note D#, 7
	note D#, 14
	note D#, 8
	note D#, 14
	note D#, 7
	note D#, 15
	note D#, 7
	note D#, 7
	rest 15
	note G_, 7
	note G_, 15
	note G_, 7
	note G_, 14
	note G_, 8
	note G_, 14
	note G_, 7
	note G_, 15
	note G_, 7
	note G_, 7
	rest 15
	note D_, 7
	note D_, 15
	note D_, 7
	note D_, 14
	note D_, 8
	note D_, 14
	note D_, 7
	note D_, 15
	note D_, 7
	note D_, 7
	rest 15
	note C#, 7
	note C#, 15
	note C#, 7
	note C#, 14
	note C#, 8
	note C#, 14
	note C#, 7
	note C#, 15
	note C#, 7
	note C#, 7
	rest 15
	note C_, 7
	note C_, 15
	note C_, 7
	note C_, 14
	note C_, 8
	note C_, 14
	note C_, 7
	note C_, 15
	note C_, 7
	note C_, 7
	dec_octave
	rest 15
	note B_, 7
	note B_, 15
	note B_, 7
	note B_, 14
	note B_, 8
	note B_, 14
	note B_, 7
	note B_, 15
	note B_, 7
	note B_, 7
.Loop4
	rest 15
	note A#, 7
	note A#, 15
	note A#, 7
	note A#, 14
	note A#, 8
	note A#, 14
	note A#, 7
	note A#, 15
	note A#, 7
	note A#, 7
	sound_loop 2, .Loop4
	rest 15
	octave 3
	note E_, 7
	note E_, 7
	;tie
	note E_, 8
	note E_, 7
	note E_, 7
	;tie
	note E_, 7
	note F_, 8
	note F_, 7
	;tie
	note F_, 7
	note F_, 7
	note F_, 15
	rest 14
	;musicef 255
	rest 15
	octave 3
	note E_, 7
	note E_, 7
	;tie
	note E_, 8
	note E_, 7
	note E_, 7
	;tie
	note E_, 7
	note C#, 8
	note C#, 7
	;tie
	note C#, 7
	note C#, 7
	note C#, 15
	rest 14
	rest 15
	octave 3
	note C_, 7
	note C_, 7
	;tie
	note C_, 8
	note C_, 7
	note C_, 7
	;tie
	note C_, 7
	note C#, 8
	note C#, 7
	;tie
	note C#, 7
	note C#, 7
	note C#, 15
	rest 14
	rest 15
	octave 3
	note E_, 7
	note E_, 7
	;tie
	note E_, 8
	note E_, 7
	note E_, 7
	;tie
	note E_, 7
	note C#, 8
	note C#, 7
	;tie
	note C#, 7
	note C#, 7
	note C#, 15
	rest 7
	;musicf0 1
	;musicef 255
	;musicf1 55
	;musicf3
	octave 2
	note G_, 3
	note G#, 4
	vibrato 19, 3, 3
	;musicf2
	note A_, 15
	;tie
	note A_, 14
	;tie
	note A_, 15
	;tie
	note A_, 14
	;tie
	note A_, 15
	;tie
	note A_, 14
	note A_, 8
	;musicf3
	inc_octave
	note C_, 7
	;musicf2
	note E_, 7
	note E_, 7
	;musicf3
	note F#, 3
	note G_, 12
	;tie
	note G_, 14
	;tie
	note G_, 15
	;musicf2
	note E_, 7
	note E_, 7
	;musicf3
	note B_, 15
	note A_, 14
	;musicf3
	note G_, 10
	;musicf2
	note E_, 5
	note E_, 5
	note C_, 5
	note C_, 4
	;musicf3
	;musicf2
	note F_, 15
	;tie
	note F_, 14
	;tie
	note F_, 15
	;tie
	note F_, 14
	;tie
	note F_, 15
	;tie
	note F_, 7
	note F_, 15
	;musicf3
	note G_, 7
	;tie
	note G_, 14
	;musicf2
	note F_, 15
	;tie
	note F_, 14
	;tie
	note F_, 15
	;tie
	note F_, 14
	;tie
	note F_, 15
	;tie
	note F_, 14
	note F_, 8
	;musicf0 16
	octave 3
	;musicf1 54
	note C#, 7
	note C#, 14
	;musicf0 1
	octave 2
	;musicef 255
	;musicf1 55
	note A_, 15
	;tie
	note A_, 14
	;tie
	note A_, 15
	;tie
	note A_, 14
	;tie
	note A_, 15
	;tie
	note A_, 14
	note A_, 8
	inc_octave
	;musicf3
	note C_, 7
	;musicf2
	note E_, 7
	note E_, 7
	;musicf3
	note F#, 3
	note G_, 12
	;tie
	note G_, 14
	;tie
	note G_, 15
	;musicf2
	note E_, 7
	note E_, 7
	;musicf3
	note B_, 15
	note A_, 14
	;musicf3
	note G_, 10
	;musicf2
	note E_, 5
	note E_, 5
	note C_, 5
	note C_, 4
	;musicf2
	note D#, 15
	;tie
	note D#, 14
	;tie
	note D#, 15
	;tie
	note D#, 14
	;tie
	note D#, 15
	;tie
	note D#, 14
	note D#, 8
	;musicf3
	note G_, 14
	;tie
	note G_, 7
	note A#, 15
	;tie
	note A#, 14
	;tie
	note A#, 15
	note A_, 7
	note G_, 7
	;musicf2
	note F_, 15
	note F_, 7
	;musicf3
	note A_, 15
	;tie
	note A_, 7
	;musicf2
	note G_, 7
	note G_, 7
	;musicf2
	note F_, 15
	;tie
	note F_, 14
	;tie
	note F_, 15
	;musicf2
	note F_, 7
	note F_, 7
	note F_, 15
	note F_, 7
	note D_, 15
	note D_, 7
	note D_, 7
	note D_, 7
	;musicf1 38
	note C#, 15
	;tie
	note C#, 14
	;tie
	note C#, 15
	;tie
	note C#, 7
	note C#, 7
	note C#, 15
	;tie
	note C#, 14
	;tie
	note C#, 15
	;tie
	note C#, 7
	note C#, 7
	;musicf3
	note C_, 15
	;tie
	note C_, 14
	;tie
	note C_, 15
	;musicf2
	note C_, 7
	note C_, 7
	;musicf3
	note A_, 15
	;musicf2
	note D_, 14
	note D_, 8
	note C_, 7
	note C_, 7
	dec_octave
	note G_, 4
	note G_, 3
	;musicf2
	note B_, 15
	;tie
	note B_, 14
	;tie
	note B_, 15
	;tie
	note B_, 14
	;tie
	note B_, 15
	;tie
	note B_, 7
	note B_, 7
	;musicf3
	note B_, 15
	;tie
	note B_, 14
	note A#, 15
	;musicf2
	note A#, 7
	note A#, 7
	inc_octave
	note D#, 8
	note D#, 7
	note G_, 5
	note G_, 9
	;musicf3
	note A#, 15
	;tie
	note A#, 7
	;musicf2
	note A_, 7
	note A_, 15
	;musicf3
	;musicf2
	inc_octave
	note D_, 10
	note D_, 4
	dec_octave
	;musicf3
	note F#, 15
	;tie
	note F#, 14
	;tie
	note F#, 15
	;musicf2
	note F#, 7
	note F#, 7
	;musicf3
	note F#, 15
	;musicf2
	note F#, 7
	note F#, 7
	;musicf3
	note C_, 15
	;musicf2
	note F#, 7
	note F#, 7
	note E_, 15
	;musicf0 16
	octave 3
	;musicef 255
	;musicf1 54
	octave 3
	note E_, 7
	note E_, 15
	note E_, 7
	note E_, 14
	note F_, 8
	note F_, 14
	note F_, 7
	note F_, 15
	rest 14
	rest 15
	octave 3
	note E_, 7
	note E_, 7
	;tie
	note E_, 8
	note E_, 7
	note E_, 7
	;tie
	note E_, 7
	note C#, 8
	note C#, 7
	;tie
	note C#, 7
	note C#, 7
	note C#, 15
	rest 14
	rest 15
	octave 3
	note C_, 7
	note C_, 7
	;tie
	note C_, 8
	note C_, 7
	note C_, 7
	;tie
	note C_, 7
	note C#, 8
	note C#, 7
	;tie
	note C#, 7
	note C#, 7
	note C#, 15
	rest 14
	rest 15
	octave 3
	note E_, 7
	note E_, 7
	;tie
	note E_, 8
	note E_, 7
	note E_, 7
	;tie
	note E_, 7
	note C#, 8
	;musicf0 4
	;musicef 251
	;musice4 254
	rest 7
	;musicf3
	octave 2
	note A_, 7
	note A#, 7
	inc_octave
	note C#, 4
	rest 4
	note F_, 7
	note F#, 7
	note A_, 7
	note A#, 4
	rest 4
	;musicf0 16
	;musicef 1
	;musice4 0
	;musicf1 70
	rest 7
	note D_, 7
	note D_, 7
	;tie
	note D_, 8
	note D_, 7
	note D_, 7
	;tie
	note D_, 7
	rest 15
	note E_, 7
	note E_, 7
	;tie
	note E_, 8
	note E_, 7
	note E_, 7
	;tie
	note E_, 7
	rest 15
	note E_, 7
	note E_, 7
	;tie
	note E_, 8
	note E_, 7
	note E_, 7
	;tie
	note E_, 7
	rest 15
	note C_, 7
	note C_, 7
	;tie
	note C_, 8
	note C_, 7
	note C_, 7
	;tie
	note C_, 7
	dec_octave
	rest 15
	note A_, 7
	note A_, 7
	;tie
	note A_, 8
	note A_, 7
	note A_, 7
	;tie
	note A_, 7
	rest 15
	note A#, 7
	note A#, 7
	;tie
	note A#, 8
	note A#, 7
	note A#, 7
	;tie
	note A#, 7
	inc_octave
	rest 15
	note C_, 7
	note C_, 7
	;tie
	note C_, 8
	note C_, 7
	note C_, 7
	;tie
	note C_, 7
	rest 15
	dec_octave
	note A#, 7
	note A#, 7
	;tie
	note A#, 8
	note A#, 7
	note A#, 7
	;tie
	note A#, 7
	inc_octave
	rest 15
	note D_, 7
	note D_, 7
	;tie
	note D_, 8
	note D_, 7
	note D_, 7
	;tie
	note D_, 7
	rest 15
	note E_, 7
	note E_, 7
	;tie
	note E_, 8
	note E_, 7
	note E_, 7
	;tie
	note E_, 7
	rest 15
	note E_, 7
	note E_, 7
	;tie
	note E_, 8
	note E_, 7
	note E_, 7
	;tie
	note E_, 7
	rest 15
	note C_, 7
	note C_, 7
	;tie
	note C_, 8
	note C_, 7
	note C_, 7
	;tie
	note C_, 7
.Loop5
	rest 15
	note C#, 7
	note C#, 7
	;tie
	note C#, 8
	note C#, 7
	note C#, 7
	;tie
	note C#, 7
	sound_loop 2, .Loop5
	rest 15
	note D_, 7
	note D_, 7
	;tie
	note D_, 8
	note D_, 7
	note D_, 7
	;tie
	note D_, 7
	rest 15
	note C#, 7
	note C#, 7
	;musicf0 1
	;musicf3
	octave 2
	note F_, 5
	note G_, 5
	note A_, 5
	note A#, 5
	inc_octave
	note C#, 5
	note E_, 4
	inc_octave
	;musicf1 70
	note C_, 15
	note C_, 7
	dec_octave
	note A_, 7
	note A_, 8
	note F_, 5
	note F_, 9
	note C_, 4
	note C_, 3
	note C#, 15
	note C#, 7
	note G_, 15
	note G_, 7
	;musicf1 70
	note G_, 7
	note G_, 7
	note E_, 15
	note E_, 7
	;musicf3
	note C_, 15
	;tie
	note C_, 7
	;musicf1 70
	note C_, 7
	note C_, 7
	;musicf3
	note C#, 15
	;tie
	note C#, 7
	;musicf2
	note C#, 7
	;tie
	note C#, 15
	;tie
	note C#, 7
	note C#, 7
	inc_octave
	;musicf1 70
	note C_, 15
	note C_, 7
	dec_octave
	note A_, 7
	note A_, 8
	note F_, 5
	note F_, 9
	note C_, 4
	note C_, 3
	dec_octave
	note A#, 15
	note A#, 7
	inc_octave
	note G_, 15
	note G_, 7
	;musicf1 70
	note G_, 7
	note G_, 7
	note E_, 15
	;tie
	note E_, 14
	;tie
	note E_, 15
	;tie
	note E_, 7
	note E_, 7
	note F_, 15
	;tie
	note F_, 14
	note A_, 15
	;tie
	note A_, 14
	inc_octave
	;musicf1 70
	note C_, 15
	note C_, 7
	dec_octave
	note A_, 7
	note A_, 8
	note F_, 5
	note F_, 9
	note C_, 4
	note C_, 3
	note C#, 15
	note C#, 7
	note G_, 15
	note G_, 7
	;musicf1 70
	note G_, 7
	note G_, 7
	note E_, 15
	note E_, 7
	;musicf3
	note C_, 15
	;tie
	note C_, 7
	;musicf1 70
	note C_, 7
	note C_, 7
	;musicf3
	note C#, 15
	;tie
	note C#, 7
	;musicf2
	note C#, 7
	;tie
	note C#, 15
	;tie
	note C#, 7
	note C#, 7
	inc_octave
	;musicf1 70
	note C_, 15
	note C_, 7
	dec_octave
	note A_, 7
	note A_, 8
	note F_, 5
	note F_, 9
	note C_, 4
	note C_, 3
	dec_octave
	note A#, 15
	note A#, 7
	inc_octave
	note G_, 15
	note G_, 7
	;musicf1 70
	note G_, 7
	note G_, 7
	note D_, 15
	;tie
	note D_, 14
	;tie
	note D_, 15
	;tie
	note D_, 7
	note D_, 7
	;musicf3
	note C#, 15
	;tie
	note C#, 14
	octave 2
	note F_, 5
	note G_, 5
	note A_, 5
	note A#, 5
	inc_octave
	note C#, 5
	note E_, 4
	;musicf0 16
	octave 3
	;musicf1 54
	rest 15
	note F_, 7
	note F_, 15
	note F_, 7
	note F_, 14
	note F_, 8
	note F_, 14
	note F_, 7
	note F_, 15
	note F_, 7
	note F_, 7
	rest 15
	note C_, 7
	note C_, 15
	note C_, 7
	note C_, 14
	note F_, 8
	note F_, 14
	note F_, 7
	;musicf0 4
	;musicf3
	;musicef 254
	octave 3
	;musicf1 71
	note D_, 15
	;tie
	note D_, 7
	note D_, 7
	note F_, 15
	;tie
	note F_, 7
	;musicf1 70
	note E_, 7
	note E_, 8
	dec_octave
	note A#, 5
	note A#, 9
	;musicf3
	note G_, 7
	;musicf0 16
	octave 3
	;musicf1 53
	channel_volume 7
.Loop6
	note C#, 15
	;tie
	note C#, 7
	note C#, 7
	sound_loop 2, .Loop6
	;musicf0 16
	;musicef 255
	octave 3
	;musicf1 54
	rest 15
	octave 3
	note E_, 7
	note E_, 15
	note E_, 7
	note E_, 14
	note F_, 8
	note F_, 14
	note F_, 7
	note F_, 15
	rest 14
	rest 15
	octave 3
	note E_, 7
	note E_, 7
	;tie
	note E_, 8
	note E_, 7
	note E_, 7
	;tie
	note E_, 7
	note C#, 8
	note C#, 7
	;tie
	note C#, 7
	note C#, 7
	note C#, 15
	rest 14
	sound_loop 0, .MainLoop


Music_GRDuelTheme1_Ch3: ; 1f603f (7d:603f)
	channel_volume 1
	speed 1
	fade_wave 11
	channel_volume 1
	;musice9 64
	;musicdc 17
	octave 3
	;musice8 7
	;musicec 244
.Loop1
	sound_call Branch_1f6313
	sound_loop 2, .Loop1
.MainLoop
	octave 3
.Loop2
	sound_call Branch_1f6313
	sound_loop 6, .Loop2
	speed 11
	note D_, 2
	note A_, 2
	inc_octave
	speed 1
	note D_, 14
	dec_octave
	speed 11
	note D_, 2
	note A_, 2
	inc_octave
	speed 1
	note D_, 14
	dec_octave
	speed 11
	note D_, 2
	note A_, 2
	inc_octave
	speed 1
	note D_, 14
	dec_octave
	speed 11
	note D_, 2
	note A_, 2
	speed 1
	note D_, 14
	speed 11
	note D#, 2
	note A#, 2
	inc_octave
	speed 1
	note D#, 14
	dec_octave
	speed 11
	note D#, 2
	note A#, 2
	inc_octave
	speed 1
	note D#, 14
	dec_octave
	speed 11
	note D#, 2
	note A#, 2
	inc_octave
	speed 1
	note D#, 14
	dec_octave
	speed 11
	note D#, 2
	note C_, 2
	speed 1
	note C#, 14
	speed 11
	note D_, 2
	note A_, 2
	inc_octave
	speed 1
	note D_, 14
	dec_octave
	speed 11
	note D_, 2
	note A_, 2
	inc_octave
	speed 1
	note D_, 14
	dec_octave
	speed 11
	note D_, 2
	note A_, 2
	inc_octave
	speed 1
	note D_, 14
	dec_octave
	speed 11
	note D_, 2
	note A_, 2
	speed 1
	note D_, 14
	speed 11
	note C_, 2
	note G_, 2
	inc_octave
	speed 1
	note C_, 14
	dec_octave
	speed 11
	note C_, 2
	note G_, 2
	speed 1
	note F#, 14
	speed 11
	note F_, 2
	inc_octave
	note C_, 2
	speed 1
	note F_, 14
	dec_octave
	speed 11
	note F_, 2
	inc_octave
	note C_, 2
	dec_octave
	dec_octave
	speed 1
	note A_, 14
	speed 11
	note A#, 2
	inc_octave
	note F_, 2
	speed 1
	note A#, 14
	dec_octave
	speed 11
	note A#, 2
	inc_octave
	note F_, 2
	speed 1
	note E_, 14
	speed 11
	note D#, 2
	note A#, 2
	inc_octave
	speed 1
	note D#, 14
	dec_octave
	speed 11
	note D#, 2
	note A#, 2
	speed 1
	note D#, 14
	speed 11
	note D_, 2
	note A_, 2
	inc_octave
	speed 1
	note D_, 14
	dec_octave
	speed 11
	note D_, 2
	note A_, 2
	speed 1
	note D_, 14
	dec_octave
	speed 11
	note G_, 2
	inc_octave
	note D_, 2
	speed 1
	note G_, 14
	dec_octave
	speed 11
	note G_, 2
	inc_octave
	note D_, 2
	speed 1
	note C#, 14
	speed 11
	note C_, 2
	note G_, 2
	inc_octave
	speed 1
	note C_, 14
	dec_octave
	speed 11
	note C_, 2
	note G_, 2
	speed 1
	note A#, 14
	speed 11
	note G#, 2
	inc_octave
	note D#, 2
	dec_octave
	speed 1
	note D#, 14
	speed 11
	note G#, 2
	inc_octave
	note D#, 2
	dec_octave
	speed 1
	note G#, 14
	sound_call Branch_1f6313
	sound_call Branch_1f6313
	sound_call Branch_1f6313
	sound_call Branch_1f6313
	speed 11
	note D_, 2
	note A_, 2
	inc_octave
	speed 1
	note D_, 14
	dec_octave
	speed 11
	note D_, 2
	note A_, 2
	inc_octave
	speed 1
	note D_, 14
	dec_octave
	speed 11
	note D_, 2
	note A_, 2
	inc_octave
	speed 1
	note D_, 14
	dec_octave
	speed 11
	note D_, 2
	note A_, 2
	speed 1
	note D_, 14
	speed 11
	note D#, 2
	note A#, 2
	inc_octave
	speed 1
	note D#, 14
	dec_octave
	speed 11
	note D#, 2
	note A#, 2
	inc_octave
	speed 1
	note D#, 14
	dec_octave
	speed 11
	note D#, 2
	note A#, 2
	inc_octave
	speed 1
	note D#, 14
	dec_octave
	speed 11
	note D#, 2
	note C_, 2
	speed 1
	note C#, 14
	speed 11
	note D_, 2
	note A_, 2
	inc_octave
	speed 1
	note D_, 14
	dec_octave
	speed 11
	note D_, 2
	note A_, 2
	inc_octave
	speed 1
	note D_, 14
	dec_octave
	speed 11
	note D_, 2
	note A_, 2
	inc_octave
	speed 1
	note D_, 14
	dec_octave
	speed 11
	note D_, 2
	note A_, 2
	speed 1
	note D_, 14
	speed 11
	note C_, 2
	note G_, 2
	inc_octave
	speed 1
	note C_, 14
	dec_octave
	speed 11
	note C_, 2
	note G_, 2
	speed 1
	note F#, 14
	speed 11
	note F_, 2
	inc_octave
	note C_, 2
	speed 1
	note F_, 14
	dec_octave
	speed 11
	note F_, 2
	inc_octave
	note C_, 2
	dec_octave
	dec_octave
	speed 1
	note A_, 14
	speed 11
	note A#, 2
	inc_octave
	note F_, 2
	speed 1
	note A#, 14
	dec_octave
	speed 11
	note A#, 2
	inc_octave
	note F_, 2
	speed 1
	note E_, 14
	speed 11
	note D#, 2
	note A#, 2
	inc_octave
	speed 1
	note D#, 14
	dec_octave
	speed 11
	note D#, 2
	note A#, 2
	speed 1
	note D#, 14
	speed 11
	note D_, 2
	note A_, 2
	inc_octave
	speed 1
	note D_, 14
	dec_octave
	speed 11
	note D_, 2
	note A_, 2
	speed 1
	note D_, 14
	dec_octave
	speed 11
	note G_, 2
	inc_octave
	note D_, 2
	speed 1
	note G_, 14
	dec_octave
	speed 11
	note G_, 2
	inc_octave
	note D_, 2
	speed 1
	note C#, 14
	speed 11
	note C_, 2
	note G_, 2
	inc_octave
	speed 1
	note C_, 14
	dec_octave
	speed 11
	note C_, 2
	note G_, 2
	speed 1
	note A#, 14
	speed 11
	note G#, 2
	inc_octave
	note D#, 2
	dec_octave
	speed 1
	note D#, 14
	speed 11
	note G#, 2
	inc_octave
	note D#, 2
	dec_octave
	speed 1
	note G#, 14
	sound_call Branch_1f6313
	sound_call Branch_1f6313
	sound_call Branch_1f6313
	speed 11
	note D_, 2
	note A_, 2
	speed 1
	note D_, 14
	note D#, 16
	;tie
	note D#, 13
	rest 16
	rest 13
	speed 1
	note G_, 15
	note A_, 14
	note A#, 15
	note B_, 14
	inc_octave
	note C_, 15
	dec_octave
	note D_, 14
	note D#, 15
	note E_, 14
	note F_, 15
	inc_octave
	note C_, 14
	note F_, 15
	dec_octave
	note B_, 14
	note A#, 15
	note F_, 14
	note A#, 15
	note A_, 14
	note G_, 15
	inc_octave
	note D_, 14
	note F_, 15
	note G_, 14
	note F#, 15
	note C#, 14
	dec_octave
	note F#, 15
	note C#, 14
	note F_, 15
	inc_octave
	note C_, 14
	note F_, 15
	dec_octave
	note B_, 14
	note A#, 15
	note F_, 14
	note A#, 15
	note A_, 14
	note G_, 15
	note A_, 14
	note A#, 15
	note B_, 14
	inc_octave
	note C_, 15
	dec_octave
	note D_, 14
	note D#, 15
	note E_, 14
	note F_, 15
	inc_octave
	note C_, 14
	note F_, 15
	dec_octave
	note B_, 14
	note A#, 15
	note F_, 14
	note A#, 15
	note F_, 14
	note D#, 15
	note A#, 14
	inc_octave
	note C#, 15
	dec_octave
	note A#, 14
	inc_octave
	note F_, 15
	note C#, 14
	dec_octave
	note A#, 15
	note D#, 14
	note E_, 15
	note F#, 14
	note G_, 15
	note G#, 14
	note A_, 15
	note B_, 14
	inc_octave
	note C_, 15
	note C#, 14
	dec_octave
	sound_call Branch_1f6313
	sound_call Branch_1f6313
	sound_call Branch_1f6313
	sound_call Branch_1f6313
	sound_call Branch_1f6313
	sound_call Branch_1f6313
	speed 11
	note D_, 2
	note A_, 2
	speed 1
	note D_, 14
	speed 11
	note C_, 2
	note G_, 2
	speed 1
	note C_, 14
	speed 11
	note A#, 2
	note F_, 2
	speed 1
	note A#, 14
	speed 11
	note A_, 2
	note E_, 2
	speed 1
	note A_, 14
	speed 11
	note G_, 2
	note D_, 2
	speed 1
	note G_, 14
	speed 11
	note C_, 2
	note G_, 2
	speed 1
	note C_, 14
	speed 11
	note F_, 2
	note C_, 2
	dec_octave
	speed 1
	note B_, 14
	speed 11
	note A#, 2
	inc_octave
	note F_, 2
	speed 1
	note A#, 14
	speed 11
	note G_, 2
	note D_, 2
	speed 1
	note G_, 14
	;musice8 7
	speed 1
	note D#, 16
	;tie
	note D#, 13
	note D#, 16
	;tie
	note D#, 13
	;musice8 7
	sound_call Branch_1f6313
	sound_call Branch_1f6313
	sound_loop 0, .MainLoop

Branch_1f6313:
	octave 3
	;musicec 244
	;musice8 7
	speed 11
	note D_, 2
	note A_, 2
	speed 1
	note D_, 14
	speed 11
	note D#, 2
	note A#, 2
	speed 1
	note D#, 14
	sound_ret


Music_GRDuelTheme1_Ch4: ; 1f6327 (7d:6327)
	toggle_noise 6
	drum_speed 1
	octave 1
	sound_call Branch_1f6503
	sound_call Branch_1f6503
	sound_call Branch_1f6503
.MainLoop
	drum_note 4, 8
	drum_note 4, 7
	drum_note 5, 7
	drum_note 4, 7
	drum_note 4, 8
	drum_note 5, 7
	drum_note 4, 7
	drum_note 4, 7
	drum_note 5, 8
	drum_note 4, 7
	drum_note 4, 7
	drum_note 5, 7
	drum_note 4, 8
	drum_note 2, 7
	drum_note 2, 14
	drum_note 1, 15
	drum_note 4, 14
	drum_note 2, 8
	drum_note 4, 7
	drum_note 5, 14
	drum_note 1, 15
	drum_note 4, 7
	drum_note 4, 7
	drum_note 4, 8
	drum_note 2, 7
	drum_note 5, 14
	drum_note 1, 15
	drum_note 4, 14
	drum_note 2, 8
	drum_note 4, 7
	drum_note 5, 14
	drum_note 1, 15
	drum_note 4, 7
	drum_note 4, 7
	drum_note 4, 8
	drum_note 2, 7
	drum_note 5, 7
	drum_note 2, 7
	drum_note 1, 15
	drum_note 4, 14
	drum_note 2, 8
	drum_note 4, 7
	drum_note 5, 14
	drum_note 1, 15
	drum_note 4, 7
	drum_note 4, 7
	drum_note 4, 8
	drum_note 2, 7
	drum_note 5, 14
	drum_note 1, 15
	drum_note 4, 14
	drum_note 2, 8
	drum_note 4, 7
	drum_note 5, 14
	drum_note 1, 15
	drum_note 4, 7
	drum_note 5, 7
	drum_note 4, 8
	drum_note 2, 7
	drum_note 2, 14
.Loop1
	drum_note 1, 15
	drum_note 7, 14
	drum_note 4, 8
	drum_note 7, 7
	drum_note 4, 14
	drum_note 7, 15
	drum_note 4, 7
	drum_note 7, 7
	drum_note 4, 8
	drum_note 7, 7
	drum_note 5, 14
	drum_note 1, 15
	drum_note 7, 14
	drum_note 4, 8
	drum_note 7, 7
	drum_note 4, 14
	drum_note 7, 15
	drum_note 4, 7
	drum_note 7, 7
	drum_note 4, 8
	drum_note 2, 7
	drum_note 5, 14
	sound_loop 6, .Loop1
	drum_note 1, 15
	drum_note 7, 14
	drum_note 4, 8
	drum_note 7, 7
	drum_note 4, 14
	drum_note 7, 15
	drum_note 4, 7
	drum_note 7, 7
	drum_note 4, 8
	drum_note 7, 7
	drum_note 5, 14
	drum_note 1, 15
	drum_note 7, 14
	drum_note 4, 8
	drum_note 7, 7
	drum_note 4, 14
	drum_note 7, 15
	drum_note 4, 7
	drum_note 7, 7
	drum_note 4, 8
	drum_note 2, 7
	drum_note 2, 7
	drum_note 5, 7
	drum_note 1, 15
	drum_note 4, 14
	drum_note 2, 8
	drum_note 4, 7
	drum_note 5, 14
	drum_note 1, 15
	drum_note 4, 7
	drum_note 4, 7
	drum_note 4, 8
	drum_note 2, 7
	drum_note 5, 14
	drum_note 1, 15
	drum_note 4, 14
	drum_note 2, 8
	drum_note 4, 7
	drum_note 5, 14
	drum_note 1, 15
	drum_note 4, 7
	drum_note 4, 7
	drum_note 4, 8
	drum_note 2, 7
	drum_note 5, 7
	drum_note 2, 7
	drum_note 1, 15
	drum_note 4, 14
	drum_note 2, 8
	drum_note 4, 7
	drum_note 5, 14
	drum_note 1, 15
	drum_note 4, 7
	drum_note 4, 7
	drum_note 4, 8
	drum_note 2, 7
	drum_note 5, 14
	drum_note 1, 15
	drum_note 4, 14
	drum_note 2, 8
	drum_note 4, 7
	drum_note 5, 14
	drum_note 1, 15
	drum_note 4, 7
	drum_note 5, 7
	drum_note 4, 8
	drum_note 2, 7
	drum_note 2, 14
.Loop2
	drum_note 1, 15
	drum_note 7, 14
	drum_note 4, 8
	drum_note 7, 7
	drum_note 4, 14
	drum_note 7, 15
	drum_note 4, 7
	drum_note 7, 7
	drum_note 4, 8
	drum_note 7, 7
	drum_note 5, 14
	drum_note 1, 15
	drum_note 7, 14
	drum_note 4, 8
	drum_note 7, 7
	drum_note 4, 14
	drum_note 7, 15
	drum_note 4, 7
	drum_note 7, 7
	drum_note 4, 8
	drum_note 2, 7
	drum_note 5, 14
	sound_loop 6, .Loop2
	drum_note 1, 15
	drum_note 7, 14
	drum_note 4, 8
	drum_note 7, 7
	drum_note 4, 14
	drum_note 7, 15
	drum_note 4, 7
	drum_note 7, 7
	drum_note 4, 8
	drum_note 7, 7
	drum_note 5, 14
	drum_note 1, 15
	drum_note 7, 14
	drum_note 4, 8
	drum_note 7, 7
	drum_note 4, 14
	drum_note 7, 15
	drum_note 4, 7
	drum_note 7, 7
	drum_note 4, 8
	drum_note 2, 7
	drum_note 2, 7
	drum_note 5, 7
	drum_note 1, 15
	drum_note 4, 14
	drum_note 2, 8
	drum_note 4, 7
	drum_note 5, 14
	drum_note 1, 15
	drum_note 4, 7
	drum_note 4, 7
	drum_note 4, 8
	drum_note 2, 7
	drum_note 5, 14
	drum_note 1, 15
	drum_note 4, 14
	drum_note 2, 8
	drum_note 4, 7
	drum_note 5, 14
	drum_note 1, 15
	drum_note 4, 7
	drum_note 4, 7
	drum_note 4, 8
	drum_note 2, 7
	drum_note 5, 7
	drum_note 2, 7
	drum_note 1, 15
	drum_note 4, 14
	drum_note 2, 8
	drum_note 4, 7
	drum_note 5, 14
	drum_note 1, 15
	drum_note 4, 7
	drum_note 4, 7
	drum_note 4, 8
	drum_note 2, 7
	drum_note 5, 14
	drum_note 1, 15
	drum_note 4, 7
	drum_note 2, 7
	drum_note 2, 8
	drum_note 2, 7
	drum_note 1, 7
	drum_note 5, 7
	drum_note 2, 15
	rest 14
	rest 15
	rest 14
	drum_note 1, 15
	drum_note 4, 7
	drum_note 7, 7
	drum_note 4, 8
	drum_note 7, 7
	drum_note 4, 14
	drum_note 7, 15
	drum_note 4, 7
	drum_note 7, 7
	drum_note 4, 8
	drum_note 7, 7
	drum_note 5, 14
	drum_note 1, 15
	drum_note 7, 14
	drum_note 4, 8
	drum_note 7, 7
	drum_note 4, 14
	drum_note 7, 15
	drum_note 4, 7
	drum_note 7, 7
	drum_note 4, 8
	drum_note 7, 7
	drum_note 5, 7
	drum_note 2, 7
	drum_note 1, 15
	drum_note 4, 7
	drum_note 7, 7
	drum_note 4, 8
	drum_note 7, 7
	drum_note 4, 14
	drum_note 7, 15
	drum_note 4, 7
	drum_note 7, 7
	drum_note 4, 8
	drum_note 7, 7
	drum_note 5, 14
	drum_note 1, 15
	drum_note 7, 14
	drum_note 4, 8
	drum_note 7, 7
	drum_note 4, 14
	drum_note 7, 15
	drum_note 4, 7
	drum_note 7, 7
	drum_note 4, 8
	drum_note 7, 7
	drum_note 5, 7
	drum_note 2, 7
	drum_note 1, 15
	drum_note 4, 7
	drum_note 7, 7
	drum_note 4, 8
	drum_note 7, 7
	drum_note 4, 14
	drum_note 7, 15
	drum_note 4, 7
	drum_note 7, 7
	drum_note 4, 8
	drum_note 7, 7
	drum_note 5, 14
	drum_note 1, 15
	drum_note 7, 14
	drum_note 4, 8
	drum_note 7, 7
	drum_note 4, 14
	drum_note 7, 15
	drum_note 4, 7
	drum_note 7, 7
	drum_note 4, 8
	drum_note 7, 7
	drum_note 5, 7
	drum_note 2, 7
	drum_note 1, 15
	drum_note 4, 7
	drum_note 7, 7
	drum_note 4, 8
	drum_note 7, 7
	drum_note 4, 14
	drum_note 7, 15
	drum_note 4, 7
	drum_note 7, 7
	drum_note 4, 8
	drum_note 7, 7
	drum_note 5, 14
	drum_note 1, 15
	drum_note 7, 14
	drum_note 4, 8
	drum_note 7, 7
	drum_note 4, 14
	drum_note 4, 8
	drum_note 7, 7
	drum_note 4, 7
	drum_note 7, 7
	drum_note 2, 4
	;musicef 252
	drum_note 2, 5
	;musicef 253
	drum_note 2, 5
	;musicef 254
	drum_note 2, 5
	;musicef 0
	drum_note 2, 5
	drum_note 2, 5
.Loop3
	drum_note 1, 15
	drum_note 2, 14
	drum_note 4, 8
	drum_note 2, 7
	drum_note 4, 7
	drum_note 4, 7
	drum_note 5, 15
	drum_note 1, 7
	drum_note 2, 7
	drum_note 4, 8
	drum_note 2, 7
	drum_note 5, 14
	sound_loop 3, .Loop3
	drum_note 1, 15
	drum_note 2, 14
	drum_note 4, 8
	drum_note 2, 7
	drum_note 4, 7
	drum_note 4, 7
	drum_note 5, 15
	drum_note 1, 7
	drum_note 2, 7
	drum_note 4, 8
	drum_note 2, 7
	drum_note 5, 7
	drum_note 2, 7
.Loop4
	drum_note 1, 15
	drum_note 2, 14
	drum_note 4, 8
	drum_note 2, 7
	drum_note 4, 7
	drum_note 4, 7
	drum_note 5, 15
	drum_note 1, 7
	drum_note 2, 7
	drum_note 4, 8
	drum_note 2, 7
	drum_note 5, 14
	sound_loop 3, .Loop4
	drum_note 1, 15
	drum_note 2, 14
	drum_note 4, 8
	drum_note 2, 7
	drum_note 4, 7
	drum_note 4, 7
	drum_note 5, 15
	drum_note 1, 7
	drum_note 2, 7
	drum_note 4, 8
	drum_note 2, 7
	;musicef 253
	drum_note 2, 4
	;musicef 254
	drum_note 2, 5
	;musicef 255
	drum_note 2, 5
	;musicef 0
	drum_note 1, 15
	drum_note 2, 14
	drum_note 4, 8
	drum_note 2, 7
	drum_note 5, 14
	drum_note 1, 15
	drum_note 2, 7
	rest 7
	drum_note 4, 8
	drum_note 2, 7
	drum_note 5, 7
	drum_note 2, 7
	drum_note 1, 15
	drum_note 2, 7
	rest 7
	drum_note 4, 8
	drum_note 2, 7
	drum_note 5, 14
	drum_note 1, 15
	drum_note 2, 7
	rest 7
	drum_note 4, 8
	drum_note 2, 7
	drum_note 5, 7
	drum_note 2, 7
	drum_note 1, 15
	drum_note 2, 7
	rest 7
	drum_note 4, 8
	drum_note 2, 7
	drum_note 5, 14
	drum_note 2, 16
	rest 13
	drum_note 2, 16
	rest 13
.Loop5
	sound_call Branch_1f6503
	sound_loop 2, .Loop5
	sound_call Branch_1f6503
	sound_loop 0, .MainLoop

Branch_1f6503:
	octave 1
	drum_speed 1
	drum_note 4, 8
	drum_note 4, 7
	drum_note 5, 7
	drum_note 4, 7
	drum_note 4, 8
	drum_note 5, 7
	drum_note 4, 7
	drum_note 4, 7
	drum_note 5, 8
	drum_note 4, 7
	drum_note 4, 7
	drum_note 5, 7
	drum_note 4, 8
	drum_note 4, 7
	drum_note 5, 7
	drum_note 4, 7
	sound_ret
; 0x1f6517
