Music_Cinnabar_Ch0::
	tempo 144
	volume 7, 7
	duty 3
	vibrato 12, 3, 4
	toggleperfectpitch

Music_Cinnabar_branch_b878::
	notetype 12, 11, 5
	rest 4
	octave 3
	D_ 4
	E_ 6
	C# 2
	notetype 12, 11, 1
	D_ 4
	notetype 12, 11, 5
	B_ 4
	octave 4
	C_ 6
	octave 3
	A_ 2
	notetype 12, 11, 1
	B_ 4
	notetype 12, 11, 5
	G_ 4
	F# 4
	E_ 2
	F# 2
	notetype 12, 11, 1
	G_ 4
	notetype 12, 11, 5
	G_ 4
	F# 4
	E_ 4
	D_ 4
	E_ 4
	F# 6
	A_ 2
	notetype 12, 11, 1
	G_ 4
	notetype 12, 11, 5
	B_ 4
	octave 4
	C_ 6
	octave 3
	A_ 2
	B_ 4
	G_ 4
	F# 3
	E_ 1
	F# 2
	A_ 2
	notetype 12, 10, 2
	G_ 4
	octave 4
	D_ 1
	E_ 1
	D_ 4
	notetype 12, 7, 2
	D_ 1
	E_ 1
	D_ 4
	notetype 12, 10, 7
	octave 3
	B_ 6
	G_ 2
	E_ 8
	octave 4
	C_ 6
	octave 3
	A_ 2
	F# 8
	octave 4
	F# 6
	D_ 2
	octave 3
	B_ 2
	A_ 2
	G_ 2
	F# 2
	G_ 8
	F# 4
	E_ 4
	loopchannel 0, Music_Cinnabar_branch_b878


Music_Cinnabar_Ch1::
	duty 3
	vibrato 10, 2, 3

Music_Cinnabar_branch_b8d9::
	notetype 12, 12, 7
	octave 3
	G_ 6
	A_ 1
	B_ 1
	octave 4
	C_ 6
	D_ 1
	E_ 1
	notetype 12, 12, 1
	D_ 4
	notetype 12, 12, 7
	G_ 4
	A_ 6
	G_ 1
	F# 1
	E_ 4
	D_ 4
	C_ 3
	octave 3
	B_ 1
	octave 4
	C_ 2
	D_ 1
	E_ 1
	notetype 12, 12, 1
	D_ 4
	notetype 12, 12, 7
	octave 3
	B_ 8
	A_ 4
	G_ 6
	A_ 1
	B_ 1
	octave 4
	C_ 6
	D_ 1
	E_ 1
	notetype 12, 12, 1
	D_ 4
	notetype 12, 12, 7
	G_ 4
	A_ 6
	G_ 1
	F# 1
	E_ 4
	D_ 4
	C_ 3
	octave 3
	B_ 1
	octave 4
	C_ 2
	D_ 1
	E_ 1
	notetype 12, 12, 1
	D_ 4
	notetype 12, 12, 7
	octave 3
	A_ 4
	G_ 4
	F# 4
	notetype 12, 11, 0
	octave 4
	D_ 6
	octave 3
	B_ 2
	G_ 8
	octave 4
	E_ 6
	C_ 2
	octave 3
	A_ 8
	octave 4
	A_ 6
	F# 2
	D_ 2
	C_ 2
	octave 3
	B_ 2
	A_ 2
	B_ 4
	octave 4
	D_ 4
	octave 3
	B_ 2
	A_ 6
	loopchannel 0, Music_Cinnabar_branch_b8d9


Music_Cinnabar_Ch2::
	notetype 12, 1, 0

Music_Cinnabar_branch_b93f::
	octave 4
	G_ 1
	rest 3
	B_ 2
	G_ 1
	G_ 1
	A_ 1
	rest 1
	A_ 1
	rest 1
	octave 5
	C_ 2
	octave 4
	F# 1
	rest 1
	G_ 1
	rest 3
	B_ 2
	G_ 1
	G_ 1
	A_ 1
	rest 1
	A_ 1
	rest 1
	octave 5
	C_ 2
	octave 4
	F# 1
	rest 1
	G_ 1
	rest 3
	B_ 2
	G_ 1
	G_ 1
	A_ 1
	rest 1
	A_ 1
	rest 1
	octave 5
	C_ 2
	octave 4
	F# 1
	rest 1
	G_ 1
	rest 3
	B_ 2
	G_ 1
	G_ 1
	A_ 1
	rest 1
	A_ 1
	rest 1
	octave 5
	C_ 2
	octave 4
	A_ 1
	rest 1
	G_ 1
	rest 3
	B_ 2
	G_ 1
	G_ 1
	A_ 1
	rest 1
	A_ 1
	rest 1
	octave 5
	C_ 2
	octave 4
	F# 1
	rest 1
	G_ 1
	rest 3
	B_ 2
	G_ 1
	G_ 1
	A_ 1
	rest 1
	A_ 1
	rest 1
	octave 5
	C_ 2
	octave 4
	F# 1
	rest 1
	G_ 1
	rest 3
	B_ 2
	G_ 1
	G_ 1
	A_ 1
	rest 1
	A_ 1
	rest 1
	octave 5
	C_ 2
	octave 4
	F# 1
	rest 1
	G_ 1
	rest 3
	B_ 4
	A_ 1
	rest 1
	A_ 1
	rest 1
	octave 5
	C_ 4
	octave 4
	B_ 1
	rest 3
	octave 5
	D_ 2
	octave 4
	B_ 1
	B_ 1
	B_ 1
	rest 1
	B_ 1
	rest 1
	octave 5
	C_ 2
	octave 4
	B_ 1
	rest 1
	G_ 1
	rest 3
	octave 5
	E_ 2
	C_ 1
	C_ 1
	C_ 1
	rest 1
	C_ 1
	rest 1
	E_ 2
	C_ 1
	rest 1
	octave 4
	A_ 1
	rest 3
	octave 5
	A_ 2
	F# 1
	F# 1
	D_ 1
	rest 1
	D_ 1
	rest 1
	D_ 2
	C_ 1
	rest 1
	octave 4
	B_ 1
	rest 3
	octave 5
	D_ 2
	C_ 1
	C_ 1
	octave 4
	B_ 1
	rest 1
	B_ 1
	rest 1
	A_ 2
	octave 5
	C_ 1
	rest 1
	loopchannel 0, Music_Cinnabar_branch_b93f
