Music_Cities2_Ch0::
	tempo 148
	volume 7, 7
	duty 3
	vibrato 8, 3, 2
	toggleperfectpitch
	notetype 12, 11, 6
	rest 8
	octave 3
	E_ 2
	D# 2
	C# 2
	C_ 2
	octave 2
	B_ 2
	rest 14

Music_Cities2_branch_b51a::
	octave 3
	B_ 4
	octave 4
	C# 2
	D# 1
	D_ 1
	C# 4
	octave 3
	B_ 4
	G# 8
	E_ 8
	A_ 4
	G# 2
	F# 2
	G# 2
	A_ 2
	B_ 2
	octave 4
	C# 2
	rest 16
	C# 4
	octave 3
	B_ 2
	octave 4
	C# 1
	D# 1
	C# 4
	octave 3
	B_ 4
	E_ 1
	E_ 1
	E_ 1
	E_ 1
	E_ 1
	rest 3
	G# 8
	B_ 4
	A_ 2
	G# 2
	F# 2
	G# 2
	A_ 2
	B_ 2
	E_ 2
	F# 2
	G# 2
	rest 2
	octave 4
	E_ 4
	octave 3
	B_ 4
	F# 2
	G# 2
	A_ 2
	rest 2
	octave 4
	F# 4
	D# 4
	octave 3
	E_ 2
	rest 4
	F# 2
	rest 4
	A_ 2
	rest 2
	B_ 2
	rest 16
	rest 16
	rest 14
	E_ 16
	F# 8
	G# 4
	F# 4
	E_ 2
	rest 14
	loopchannel 0, Music_Cities2_branch_b51a


Music_Cities2_Ch1::
	duty 3
	vibrato 8, 2, 3
	notetype 12, 12, 2
	octave 4
	E_ 2
	D# 2
	C# 2
	octave 3
	B_ 2
	A_ 2
	B_ 2
	octave 4
	C# 2
	D# 2
	E_ 6
	notetype 12, 12, 2
	duty 2
	octave 4
	E_ 1
	octave 3
	B_ 1
	octave 4
	C# 2
	D# 2
	E_ 1
	F# 1
	G# 1
	A_ 1

Music_Cities2_branch_b58b::
	notetype 12, 10, 6
	G# 6
	notetype 12, 12, 2
	A_ 1
	G# 1
	notetype 12, 12, 4
	F# 14
	notetype 12, 12, 2
	E_ 1
	octave 3
	B_ 1
	octave 4
	C# 2
	D# 2
	E_ 1
	F# 1
	G# 1
	A_ 1
	notetype 12, 12, 4
	G# 6
	notetype 12, 12, 2
	E_ 1
	G# 1
	notetype 12, 12, 5
	B_ 14
	notetype 12, 12, 2
	E_ 1
	octave 3
	B_ 1
	octave 4
	C# 2
	D# 2
	E_ 1
	F# 1
	G# 1
	A_ 1
	notetype 12, 10, 6
	G# 6
	notetype 12, 12, 2
	A_ 1
	G# 1
	notetype 12, 12, 4
	F# 8
	notetype 12, 10, 1
	duty 1
	octave 3
	G# 1
	G# 1
	G# 1
	G# 1
	G# 1
	rest 1
	notetype 12, 12, 2
	duty 2
	octave 4
	E_ 1
	octave 3
	B_ 1
	octave 4
	C# 2
	D# 2
	E_ 1
	F# 1
	G# 1
	A_ 1
	notetype 12, 12, 4
	G# 6
	E_ 1
	G# 1
	notetype 12, 12, 6
	B_ 8
	notetype 12, 12, 2
	C# 1
	octave 3
	B_ 1
	octave 4
	C# 1
	D# 1
	E_ 4
	notetype 12, 12, 7
	G# 4
	E_ 4
	notetype 12, 12, 2
	D# 1
	C# 1
	D# 1
	E_ 1
	F# 4
	notetype 12, 12, 7
	B_ 4
	F# 4
	notetype 12, 12, 2
	C# 1
	octave 3
	B_ 1
	octave 4
	C# 1
	D# 1
	E_ 2
	E_ 1
	D# 1
	E_ 1
	F# 1
	G# 2
	G# 1
	A_ 1
	G# 1
	A_ 1
	B_ 1
	F# 1
	D# 1
	C# 1
	octave 3
	B_ 1
	octave 4
	C# 1
	D# 1
	F# 1
	notetype 12, 12, 2
	B_ 8
	notetype 12, 11, 7
	octave 3
	E_ 8
	octave 2
	B_ 4
	octave 3
	F# 4
	G# 4
	A_ 4
	B_ 8
	B_ 8
	G# 4
	octave 4
	D# 4
	C# 4
	D# 4
	E_ 2
	D# 2
	C# 2
	D# 2
	notetype 12, 12, 2
	E_ 6
	E_ 1
	octave 3
	B_ 1
	octave 4
	C# 2
	D# 2
	E_ 1
	F# 1
	G# 1
	A_ 1
	loopchannel 0, Music_Cities2_branch_b58b


Music_Cities2_Ch2::
	notetype 12, 1, 1
	rest 16
	octave 4
	E_ 2
	G# 2
	E_ 2
	G# 2
	E_ 2
	G# 2
	E_ 2
	G# 2

Music_Cities2_branch_b64c::
	F# 2
	A_ 2
	F# 2
	A_ 2
	B_ 2
	A_ 2
	G# 2
	F# 2
	E_ 2
	G# 2
	E_ 2
	G# 2
	E_ 2
	G# 2
	E_ 2
	G# 2
	F# 2
	A_ 2
	F# 2
	A_ 2
	B_ 2
	A_ 2
	G# 2
	F# 2
	E_ 2
	G# 2
	E_ 2
	G# 2
	E_ 2
	G# 2
	E_ 2
	G# 2
	F# 2
	A_ 2
	F# 2
	A_ 2
	B_ 2
	A_ 2
	G# 2
	F# 2
	E_ 2
	G# 2
	E_ 2
	G# 2
	E_ 2
	G# 2
	E_ 2
	G# 2
	F# 2
	A_ 2
	F# 2
	A_ 2
	B_ 2
	A_ 2
	G# 2
	F# 2
	E_ 2
	G# 2
	E_ 2
	rest 2
	E_ 4
	G# 4
	F# 2
	A_ 2
	F# 2
	rest 2
	F# 4
	A_ 4
	C# 2
	rest 4
	E_ 2
	rest 4
	G# 2
	A_ 2
	B_ 2
	rest 8
	A_ 2
	G# 2
	F# 2
	E_ 2
	G# 2
	E_ 2
	G# 2
	E_ 2
	G# 2
	E_ 2
	G# 2
	F# 2
	A_ 2
	F# 2
	A_ 2
	B_ 2
	A_ 2
	G# 2
	F# 2
	E_ 2
	G# 2
	E_ 2
	G# 2
	E_ 2
	G# 2
	E_ 2
	G# 2
	F# 2
	A_ 2
	F# 2
	A_ 2
	B_ 2
	A_ 2
	G# 2
	F# 2
	E_ 2
	G# 2
	E_ 2
	G# 2
	E_ 2
	G# 2
	E_ 2
	G# 2
	loopchannel 0, Music_Cities2_branch_b64c
