Music_Credits_Ch0::
	tempo 140
	volume 7, 7
	duty 3
	vibrato 8, 3, 4
	toggleperfectpitch
	notetype 12, 11, 5
	octave 4
	E_ 6
	octave 3
	A_ 1
	octave 4
	E_ 1
	D_ 6
	octave 3
	G_ 1
	octave 4
	D_ 1
	C# 6
	octave 3
	F# 1
	octave 4
	C# 1
	D_ 4
	E_ 2
	C# 1
	E_ 1
	C# 1
	rest 1
	octave 3
	E_ 1
	rest 3
	E_ 1
	E_ 1
	E_ 1
	rest 1
	E_ 1
	rest 1
	E_ 1
	rest 3
	E_ 1
	rest 1
	E_ 1
	rest 3
	E_ 1
	E_ 1
	E_ 1
	rest 1
	E_ 1
	rest 1
	E_ 1
	E_ 1
	F# 1
	G_ 1
	notetype 12, 11, 6
	A_ 4
	E_ 2
	A_ 2
	G_ 4
	A_ 2
	G_ 2
	B_ 4
	A_ 4
	G_ 2
	F# 2
	E_ 2
	D_ 2
	C# 6
	E_ 2
	A_ 4
	C# 4
	E_ 4
	D_ 2
	C# 2
	E_ 2
	F# 2
	G_ 2
	F# 2
	A_ 4
	E_ 2
	A_ 2
	G_ 4
	A_ 2
	G_ 2
	B_ 4
	A_ 4
	G_ 2
	A_ 2
	F# 2
	D_ 2
	E_ 6
	C# 2
	A_ 4
	C# 4
	E_ 4
	D_ 2
	C# 2
	E_ 2
	F# 2
	G_ 2
	F# 2
	G_ 4
	D_ 2
	G_ 2
	B_ 2
	A_ 2
	G_ 2
	A_ 2
	D_ 4
	E_ 2
	F# 2
	G_ 2
	F# 2
	E_ 2
	D_ 2
	E_ 6
	A_ 2
	G_ 4
	F# 4
	G_ 4
	F# 4
	E_ 4
	D_ 4
	G_ 4
	D_ 2
	G_ 2
	B_ 2
	octave 4
	C# 2
	octave 3
	B_ 2
	A_ 2
	D_ 4
	E_ 2
	F# 2
	G_ 2
	F# 2
	E_ 2
	D_ 2
	notetype 12, 11, 7
	E_ 6
	A_ 2
	G_ 4
	F# 4
	notetype 12, 12, 7
	A_ 4
	B_ 4
	octave 4
	C# 4
	D_ 4
	octave 3
	B_ 2
	A_ 2
	G_ 2
	F# 2
	E_ 2
	F# 2
	G_ 2
	A_ 2
	notetype 12, 9, 0
	G_ 8
	F# 8
	E_ 8
	D_ 8
	rest 16
	rest 16
	rest 8
	notetype 12, 11, 6
	E_ 6
	D# 1
	D_ 1
	notetype 12, 10, 0
	C# 8
	notetype 12, 10, 7
	C# 8
	rest 16
	rest 16
	rest 8
	E_ 6
	C# 1
	E_ 1
	notetype 12, 10, 0
	A_ 8
	notetype 12, 10, 7
	A_ 8
	notetype 12, 11, 6
	G_ 6
	D_ 4
	G_ 2
	B_ 4
	notetype 12, 11, 7
	G_ 8
	F# 4
	G# 4
	notetype 12, 9, 0
	A_ 8
	F# 8
	E_ 8
	C# 8
	notetype 12, 11, 7
	D_ 8
	C# 8
	octave 2
	B_ 8
	octave 3
	D_ 8
	notetype 12, 9, 0
	E_ 8
	D_ 8
	F# 8
	E_ 8
	notetype 12, 10, 0
	D_ 8
	E_ 8
	D_ 8
	C_ 8
	G_ 8
	F_ 8
	E_ 8
	D_ 8
	notetype 12, 10, 0
	C# 6
	notetype 12, 10, 7
	C# 6
	notetype 12, 11, 7
	D_ 4
	E_ 8
	G_ 6
	F# 1
	F_ 1
	notetype 12, 10, 0
	E_ 6
	notetype 12, 10, 7
	E_ 6
	notetype 12, 11, 7
	D_ 4
	notetype 12, 10, 0
	C# 8
	notetype 12, 10, 7
	C# 8
	notetype 12, 11, 7
	E_ 6
	D_ 2
	G_ 4
	F# 4
	E_ 4
	F# 4
	E_ 4
	D_ 4
	E_ 4
	D_ 4
	C# 4
	D_ 4
	C# 4
	C# 4
	E_ 4
	F# 4
	notetype 12, 10, 0
	E_ 6
	notetype 12, 11, 7
	D_ 2
	G_ 4
	F# 4
	E_ 4
	F# 4
	A_ 4
	B_ 4
	notetype 12, 10, 0
	octave 4
	C# 16
	C# 8
	notetype 12, 10, 7
	C# 8
	notetype 12, 11, 5
	octave 3
	A_ 1
	rest 1
	A_ 1
	rest 3
	A_ 1
	A_ 1
	notetype 12, 11, 1
	A_ 8
	endchannel


Music_Credits_Ch1::
	duty 3
	vibrato 10, 2, 5
	notetype 12, 12, 5
	octave 4
	A_ 6
	E_ 1
	A_ 1
	G_ 6
	D_ 1
	G_ 1
	notetype 12, 12, 7
	F# 12
	G# 2
	E_ 1
	G# 1
	notetype 12, 12, 2
	A_ 2
	notetype 12, 12, 1
	octave 3
	A_ 4
	A_ 1
	A_ 1
	A_ 2
	A_ 2
	A_ 4
	A_ 2
	A_ 4
	A_ 1
	A_ 1
	A_ 2
	A_ 2
	notetype 12, 12, 4
	A_ 1
	F# 1
	A_ 1
	B_ 1
	notetype 12, 12, 7
	octave 4
	C# 6
	C# 1
	D_ 1
	E_ 4
	C# 4
	G_ 4
	F# 4
	E_ 4
	D_ 4
	C# 6
	octave 3
	A_ 2
	octave 4
	E_ 8
	octave 3
	A_ 6
	E_ 2
	octave 4
	C# 8
	C# 6
	C# 1
	D_ 1
	E_ 4
	C# 4
	G_ 4
	F# 4
	E_ 4
	D_ 4
	C# 6
	octave 3
	A_ 2
	octave 4
	E_ 8
	octave 3
	A_ 6
	E_ 2
	notetype 12, 11, 0
	octave 4
	C# 8
	notetype 12, 12, 7
	D_ 6
	octave 3
	B_ 2
	octave 4
	G_ 8
	octave 3
	G_ 6
	D_ 2
	B_ 8
	notetype 12, 11, 0
	octave 4
	C# 6
	notetype 12, 11, 7
	C# 6
	D_ 4
	notetype 12, 10, 0
	E_ 8
	notetype 12, 10, 7
	E_ 8
	notetype 12, 12, 7
	D_ 6
	octave 3
	B_ 2
	octave 4
	G_ 8
	octave 3
	G_ 6
	D_ 2
	B_ 8
	notetype 12, 11, 0
	octave 4
	E_ 7
	notetype 12, 11, 7
	E_ 7
	notetype 12, 12, 3
	E_ 1
	G# 1
	notetype 12, 11, 0
	A_ 8
	notetype 12, 11, 7
	A_ 8
	notetype 12, 12, 6
	G_ 4
	F# 4
	E_ 4
	D_ 4
	notetype 12, 10, 0
	C# 8
	notetype 12, 10, 7
	C# 8
	notetype 12, 9, 0
	octave 3
	A_ 8
	notetype 12, 9, 7
	A_ 8
	notetype 12, 11, 0
	E_ 8
	notetype 12, 11, 7
	E_ 8
	notetype 12, 12, 7
	D_ 8
	G_ 6
	F# 1
	F_ 1
	E_ 8
	notetype 12, 11, 7
	G_ 6
	F# 1
	F_ 1
	notetype 12, 11, 0
	E_ 8
	notetype 12, 11, 7
	E_ 8
	notetype 12, 11, 0
	D_ 8
	notetype 12, 11, 7
	D_ 8
	notetype 12, 12, 7
	octave 2
	B_ 8
	octave 3
	F# 6
	D_ 1
	F# 1
	E_ 8
	B_ 6
	G_ 1
	B_ 1
	notetype 12, 11, 0
	octave 4
	C# 8
	notetype 12, 11, 7
	C# 8
	notetype 12, 11, 0
	D_ 8
	notetype 12, 11, 7
	D_ 8
	notetype 12, 12, 7
	octave 3
	B_ 8
	octave 4
	D_ 6
	octave 3
	B_ 1
	octave 4
	D_ 1
	notetype 12, 11, 0
	C# 6
	notetype 12, 11, 7
	C# 6
	notetype 12, 12, 7
	octave 3
	B_ 4
	notetype 12, 11, 0
	A_ 8
	notetype 12, 11, 7
	A_ 8
	notetype 12, 11, 0
	F# 6
	notetype 12, 11, 7
	F# 6
	notetype 12, 12, 7
	G# 4
	A_ 8
	F# 8
	notetype 12, 11, 0
	G# 6
	notetype 12, 11, 7
	G# 6
	notetype 12, 12, 7
	A_ 4
	B_ 8
	G# 8
	notetype 12, 11, 0
	A_ 6
	notetype 12, 11, 7
	A_ 6
	notetype 12, 12, 7
	B_ 4
	octave 4
	C_ 8
	octave 3
	A_ 8
	notetype 12, 11, 0
	B_ 6
	notetype 12, 11, 7
	B_ 6
	notetype 12, 12, 7
	octave 4
	C_ 4
	notetype 12, 11, 0
	D_ 8
	octave 3
	B_ 8
	notetype 12, 11, 0
	octave 4
	C# 16
	C# 8
	notetype 12, 11, 7
	C# 8
	notetype 12, 11, 0
	octave 3
	A_ 16
	A_ 8
	notetype 12, 11, 7
	A_ 8
	notetype 12, 12, 7
	G_ 6
	B_ 2
	octave 4
	D_ 8
	octave 3
	B_ 6
	octave 4
	D_ 2
	G_ 6
	F# 1
	F_ 1
	E_ 8
	octave 3
	G_ 6
	F# 1
	F_ 1
	E_ 8
	C# 4
	D_ 4
	G_ 6
	B_ 2
	octave 4
	D_ 8
	octave 3
	B_ 6
	octave 4
	D_ 2
	G_ 8
	notetype 12, 11, 0
	A_ 16
	notetype 12, 10, 0
	A_ 8
	notetype 12, 10, 7
	A_ 8
	notetype 12, 12, 1
	A_ 2
	A_ 4
	A_ 1
	A_ 1
	notetype 12, 12, 1
	A_ 8
	endchannel


Music_Credits_Ch2::
	notetype 12, 1, 0
	octave 5
	C# 6
	octave 4
	A_ 1
	octave 5
	C# 1
	D_ 6
	octave 4
	B_ 1
	octave 5
	D_ 1
	F# 6
	D_ 1
	F# 1
	A_ 4
	G# 2
	E_ 1
	G# 1
	A_ 1
	rest 15
	rest 16
	callchannel Music_Credits_branch_7ffa4
	callchannel Music_Credits_branch_7ffae
	callchannel Music_Credits_branch_7ffa4
	octave 4
	E_ 2
	A_ 2
	E_ 2
	A_ 2
	E_ 2
	F# 2
	G_ 2
	A_ 2
	callchannel Music_Credits_branch_7ffa4
	callchannel Music_Credits_branch_7ffae
	callchannel Music_Credits_branch_7ffa4
	callchannel Music_Credits_branch_7ffa4
	callchannel Music_Credits_branch_7ffb8
	callchannel Music_Credits_branch_7ffb8
	callchannel Music_Credits_branch_7ffc1
	octave 4
	A_ 2
	octave 5
	C# 2
	octave 4
	A_ 2
	octave 5
	C# 2
	octave 4
	A_ 2
	octave 5
	C# 2
	octave 4
	B_ 2
	A_ 2
	callchannel Music_Credits_branch_7ffb8
	callchannel Music_Credits_branch_7ffb8
	callchannel Music_Credits_branch_7ffc1
	callchannel Music_Credits_branch_7ffc1
	octave 4
	G_ 4
	A_ 4
	B_ 4
	octave 5
	D_ 4
	callchannel Music_Credits_branch_7ffa4
	callchannel Music_Credits_branch_7ffa4
	callchannel Music_Credits_branch_7ffa4
	callchannel Music_Credits_branch_7ffa4
	callchannel Music_Credits_branch_7ffa4
	callchannel Music_Credits_branch_7ffa4
	callchannel Music_Credits_branch_7ffae
	callchannel Music_Credits_branch_7ffae
	callchannel Music_Credits_branch_7ffa4
	E_ 4
	A_ 2
	E_ 4
	A_ 2
	E_ 2
	A_ 2
	callchannel Music_Credits_branch_7ffae
	callchannel Music_Credits_branch_7ffae
	callchannel Music_Credits_branch_7ffa4
	E_ 2
	A_ 2
	E_ 2
	A_ 2
	E_ 2
	A_ 2
	G# 2
	A_ 2
	callchannel Music_Credits_branch_7ffd2
	callchannel Music_Credits_branch_7ffd2
	callchannel Music_Credits_branch_7ffdb
	callchannel Music_Credits_branch_7ffdb
	F_ 2
	A_ 2
	F_ 2
	A_ 2
	F_ 2
	A_ 2
	F_ 2
	A_ 2
	F_ 2
	A_ 2
	G_ 2
	F_ 2
	E_ 2
	D_ 2
	E_ 2
	F_ 2
	callchannel Music_Credits_branch_7ffb8
	callchannel Music_Credits_branch_7ffb8
	E_ 4
	A_ 4
	E_ 4
	A_ 4
	E_ 4
	A_ 4
	E_ 4
	A_ 4
	callchannel Music_Credits_branch_7ffa4
	callchannel Music_Credits_branch_7ffa4
	callchannel Music_Credits_branch_7ffe4
	callchannel Music_Credits_branch_7ffe4
	callchannel Music_Credits_branch_7ffa4
	callchannel Music_Credits_branch_7ffa4
	callchannel Music_Credits_branch_7ffb8
	callchannel Music_Credits_branch_7ffb8
	callchannel Music_Credits_branch_7ffed
	callchannel Music_Credits_branch_7ffed
	A_ 1
	rest 1
	A_ 1
	rest 3
	A_ 1
	A_ 1
	A_ 1
	rest 7
	endchannel

Music_Credits_branch_7ffa4::
	octave 4
	E_ 2
	A_ 2
	E_ 2
	A_ 2
	E_ 2
	A_ 2
	E_ 2
	A_ 2
	endchannel

Music_Credits_branch_7ffae::
	octave 4
	D_ 2
	G_ 2
	D_ 2
	G_ 2
	D_ 2
	G_ 2
	D_ 2
	G_ 2
	endchannel

Music_Credits_branch_7ffb8::
	G_ 2
	B_ 2
	G_ 2
	B_ 2
	G_ 2
	B_ 2
	G_ 2
	B_ 2
	endchannel

Music_Credits_branch_7ffc1::
	octave 4
	A_ 2
	octave 5
	C# 2
	octave 4
	A_ 2
	octave 5
	C# 2
	octave 4
	A_ 2
	octave 5
	C# 2
	octave 4
	A_ 2
	octave 5
	C# 2
	endchannel

Music_Credits_branch_7ffd2::
	D_ 2
	A_ 2
	D_ 2
	A_ 2
	D_ 2
	A_ 2
	D_ 2
	A_ 2
	endchannel

Music_Credits_branch_7ffdb::
	E_ 2
	G# 2
	E_ 2
	G# 2
	E_ 2
	G# 2
	E_ 2
	G# 2
	endchannel

Music_Credits_branch_7ffe4::
	E_ 2
	B_ 2
	E_ 2
	B_ 2
	E_ 2
	B_ 2
	E_ 2
	B_ 2
	endchannel

Music_Credits_branch_7ffed::
	A_ 1
	rest 1
	A_ 1
	rest 3
	A_ 1
	A_ 1
	A_ 1
	rest 1
	A_ 1
	rest 1
	A_ 1
	rest 3
	endchannel
