Music_DefeatedGymLeader_Ch0::
	tempo 112
	volume 7, 7
	duty 3
	vibrato 18, 3, 1
	toggleperfectpitch
	tempo 112
	notetype 12, 10, 6
	octave 4
	D_ 6
	octave 3
	A_ 1
	octave 4
	D_ 1
	F# 6
	D_ 1
	F# 1
	notetype 12, 10, 0
	A_ 8
	notetype 12, 10, 7
	A_ 8

Music_DefeatedGymLeader_branch_23ccc::
	notetype 12, 11, 2
	octave 3
	A_ 2
	A_ 2
	F# 4
	G_ 2
	G_ 2
	E_ 4
	D_ 2
	E_ 2
	D_ 2
	E_ 2
	D_ 4
	D_ 4
	A_ 2
	A_ 2
	F# 4
	G_ 2
	G_ 2
	E_ 4
	D_ 2
	E_ 2
	D_ 2
	C# 2
	notetype 12, 11, 1
	octave 2
	B_ 8
	notetype 12, 11, 2
	octave 3
	A_ 2
	A_ 2
	F# 4
	G_ 2
	G_ 2
	E_ 4
	D_ 2
	E_ 2
	D_ 2
	E_ 2
	D_ 4
	D_ 4
	A_ 2
	A_ 2
	F# 4
	G_ 2
	G_ 2
	E_ 4
	D_ 2
	E_ 2
	D_ 2
	C# 2
	notetype 12, 11, 1
	octave 2
	B_ 8
	notetype 12, 9, 7
	octave 3
	D_ 6
	octave 2
	A_ 1
	octave 3
	D_ 1
	F# 8
	notetype 12, 11, 0
	F# 6
	E_ 1
	F# 1
	A_ 8
	notetype 12, 9, 7
	E_ 6
	C# 1
	E_ 1
	G# 8
	notetype 12, 11, 0
	G# 6
	E_ 1
	G# 1
	B_ 8
	notetype 12, 9, 7
	C# 6
	octave 2
	A_ 1
	octave 3
	C# 1
	E_ 8
	notetype 12, 11, 0
	E_ 6
	C# 1
	E_ 1
	E_ 4
	G_ 4
	notetype 12, 9, 0
	F# 8
	E_ 8
	D_ 8
	C# 8
	notetype 12, 9, 7
	D_ 6
	octave 2
	A_ 1
	octave 3
	D_ 1
	F# 8
	notetype 12, 11, 0
	F# 6
	E_ 1
	F# 1
	A_ 8
	notetype 12, 9, 7
	E_ 6
	C# 1
	E_ 1
	G# 8
	notetype 12, 11, 0
	G# 6
	E_ 1
	G# 1
	B_ 8
	notetype 12, 9, 7
	C# 6
	octave 2
	A_ 1
	octave 3
	C# 1
	E_ 8
	notetype 12, 11, 0
	E_ 6
	C# 1
	E_ 1
	E_ 4
	G_ 4
	notetype 12, 9, 7
	F# 6
	E_ 1
	F# 1
	A_ 8
	notetype 12, 10, 7
	G_ 8
	E_ 8
	loopchannel 0, Music_DefeatedGymLeader_branch_23ccc


Music_DefeatedGymLeader_Ch1::
	duty 2
	vibrato 24, 2, 4
	notetype 12, 12, 4
	octave 4
	A_ 6
	F# 1
	A_ 1
	octave 5
	D_ 6
	octave 4
	A_ 1
	octave 5
	D_ 1
	notetype 12, 11, 0
	F# 8
	notetype 12, 11, 7
	F# 8

Music_DefeatedGymLeader_branch_23d84::
	notetype 12, 12, 2
	octave 4
	D_ 2
	C# 2
	octave 3
	B_ 4
	octave 4
	C# 2
	octave 3
	B_ 2
	A_ 4
	B_ 2
	A_ 2
	G_ 2
	F# 2
	notetype 12, 12, 4
	A_ 4
	A_ 4
	notetype 12, 12, 2
	octave 4
	D_ 2
	C# 2
	octave 3
	B_ 4
	octave 4
	C# 2
	octave 3
	B_ 2
	A_ 4
	B_ 2
	A_ 2
	G_ 2
	F# 2
	notetype 12, 12, 1
	D_ 6
	notetype 6, 12, 2
	G_ 1
	A_ 1
	B_ 1
	octave 4
	C# 1
	notetype 12, 12, 2
	D_ 2
	C# 2
	octave 3
	B_ 4
	octave 4
	C# 2
	octave 3
	B_ 2
	A_ 4
	B_ 2
	A_ 2
	G_ 2
	F# 2
	notetype 12, 12, 4
	A_ 4
	A_ 3
	notetype 6, 12, 2
	B_ 1
	octave 4
	C# 1
	notetype 12, 12, 2
	D_ 2
	C# 2
	octave 3
	B_ 4
	octave 4
	C# 2
	octave 3
	B_ 2
	A_ 4
	B_ 2
	A_ 2
	G_ 2
	F# 2
	notetype 12, 12, 1
	D_ 8
	notetype 12, 12, 7
	A_ 6
	F# 1
	A_ 1
	notetype 12, 11, 0
	octave 4
	D_ 8
	notetype 12, 10, 0
	D_ 8
	notetype 12, 9, 7
	D_ 8
	notetype 12, 12, 7
	octave 3
	B_ 6
	G# 1
	B_ 1
	notetype 12, 8, 0
	octave 4
	E_ 8
	notetype 12, 10, 0
	E_ 8
	notetype 12, 12, 7
	E_ 8
	octave 3
	G_ 6
	E_ 1
	G_ 1
	notetype 12, 6, 15
	octave 4
	C# 8
	notetype 12, 12, 7
	C# 8
	F# 4
	E_ 4
	notetype 12, 11, 0
	D_ 14
	octave 3
	B_ 2
	notetype 12, 10, 0
	A_ 8
	notetype 12, 11, 7
	A_ 8
	notetype 12, 12, 7
	A_ 6
	F# 1
	A_ 1
	notetype 12, 11, 0
	octave 4
	D_ 8
	notetype 12, 10, 0
	D_ 8
	notetype 12, 9, 7
	D_ 8
	notetype 12, 12, 7
	octave 3
	B_ 6
	G# 1
	B_ 1
	notetype 12, 4, 15
	octave 4
	E_ 8
	notetype 12, 11, 0
	E_ 8
	notetype 12, 12, 7
	E_ 8
	octave 3
	G_ 6
	E_ 1
	G_ 1
	notetype 12, 11, 0
	octave 4
	C# 8
	notetype 12, 11, 7
	C# 8
	octave 3
	A_ 4
	octave 4
	C# 4
	notetype 12, 11, 0
	D_ 14
	E_ 2
	D_ 12
	notetype 12, 12, 2
	octave 3
	G_ 1
	A_ 1
	B_ 1
	octave 4
	C# 1
	loopchannel 0, Music_DefeatedGymLeader_branch_23d84


Music_DefeatedGymLeader_Ch2::
	notetype 12, 1, 0
	vibrato 16, 1, 2
	octave 4
	F# 6
	D_ 1
	F# 1
	A_ 6
	F# 1
	A_ 1
	octave 5
	D_ 6
	octave 4
	A_ 1
	octave 5
	D_ 1
	F# 8

Music_DefeatedGymLeader_branch_23e65::
	octave 4
	F# 1
	rest 1
	F# 1
	rest 1
	F# 1
	rest 3
	G_ 1
	rest 1
	G_ 1
	rest 1
	G_ 1
	rest 3
	A_ 1
	rest 1
	A_ 1
	rest 1
	A_ 1
	rest 1
	G_ 1
	rest 1
	F# 3
	rest 1
	F# 3
	rest 1
	F# 1
	rest 1
	F# 1
	rest 1
	F# 1
	rest 3
	G_ 1
	rest 1
	G_ 1
	rest 1
	E_ 1
	rest 1
	E_ 1
	rest 1
	F# 1
	rest 1
	F# 1
	rest 1
	E_ 1
	rest 1
	E_ 1
	rest 1
	D_ 1
	rest 5
	D_ 1
	rest 1
	F# 1
	rest 1
	D_ 1
	rest 1
	F# 1
	rest 1
	D_ 1
	rest 1
	G_ 1
	rest 1
	D_ 1
	rest 1
	G_ 1
	rest 1
	D_ 1
	rest 1
	A_ 1
	rest 1
	D_ 1
	rest 1
	A_ 1
	rest 1
	D_ 1
	rest 1
	G_ 3
	rest 1
	D_ 3
	rest 1
	F# 1
	rest 1
	D_ 1
	rest 1
	F# 1
	rest 1
	D_ 1
	rest 1
	G_ 1
	rest 1
	D_ 1
	rest 1
	G_ 1
	rest 1
	D_ 1
	rest 1
	A_ 1
	rest 1
	D_ 1
	rest 1
	G_ 1
	rest 1
	D_ 1
	rest 1
	F# 1
	rest 7
	D_ 2
	A_ 2
	D_ 2
	A_ 2
	D_ 2
	A_ 2
	D_ 2
	A_ 2
	D_ 2
	A_ 2
	D_ 2
	A_ 2
	G# 2
	F# 2
	E_ 2
	D# 2
	E_ 2
	B_ 2
	E_ 2
	B_ 2
	E_ 2
	B_ 2
	E_ 2
	B_ 2
	E_ 2
	B_ 2
	E_ 2
	B_ 2
	E_ 2
	B_ 2
	E_ 2
	B_ 2
	C# 2
	A_ 2
	C# 2
	A_ 2
	C# 2
	A_ 2
	C# 2
	A_ 2
	C# 2
	A_ 2
	C# 2
	A_ 2
	C# 2
	A_ 2
	C# 2
	A_ 2
	D_ 2
	A_ 2
	D_ 2
	A_ 2
	D_ 2
	A_ 2
	D_ 2
	A_ 2
	D_ 2
	A_ 2
	D_ 2
	A_ 2
	D_ 2
	C# 2
	D_ 2
	E_ 2
	D_ 2
	A_ 2
	D_ 2
	A_ 2
	D_ 2
	A_ 2
	D_ 2
	A_ 2
	D_ 2
	A_ 2
	D_ 2
	A_ 2
	G# 2
	F# 2
	E_ 2
	D# 2
	E_ 2
	B_ 2
	E_ 2
	B_ 2
	E_ 2
	B_ 2
	E_ 2
	B_ 2
	E_ 2
	B_ 2
	E_ 2
	B_ 2
	E_ 2
	B_ 2
	E_ 2
	B_ 2
	C# 2
	A_ 2
	C# 2
	A_ 2
	C# 2
	A_ 2
	C# 2
	A_ 2
	C# 2
	A_ 2
	C# 2
	A_ 2
	C# 2
	A_ 2
	C# 2
	A_ 2
	D_ 2
	A_ 2
	D_ 2
	A_ 2
	D_ 2
	A_ 2
	D_ 2
	A_ 2
	D_ 2
	A_ 2
	D_ 2
	A_ 2
	G_ 2
	A_ 2
	G_ 2
	E_ 2
	loopchannel 0, Music_DefeatedGymLeader_branch_23e65
