Music_Dungeon3_Ch0::
	tempo 160
	volume 7, 7
	duty 3
	toggleperfectpitch
	vibrato 8, 1, 4

Music_Dungeon3_branch_7e9fc::
	notetype 12, 12, 3

Music_Dungeon3_branch_7e9fe::
	callchannel Music_Dungeon3_branch_7eab2
	loopchannel 3, Music_Dungeon3_branch_7e9fe
	octave 2
	B_ 2
	octave 3
	D# 2
	G_ 2
	octave 2
	B_ 2
	octave 3
	D# 2
	G_ 2
	D# 2
	E_ 2

Music_Dungeon3_branch_7ea11::
	callchannel Music_Dungeon3_branch_7eac1
	loopchannel 4, Music_Dungeon3_branch_7ea11

Music_Dungeon3_branch_7ea18::
	callchannel Music_Dungeon3_branch_7eab2
	loopchannel 4, Music_Dungeon3_branch_7ea18
	octave 4
	F_ 2
	F_ 2
	rest 2
	F_ 2
	E_ 2
	E_ 2
	D# 2
	D# 2
	rest 2
	D# 2
	D_ 2
	D_ 2
	callchannel Music_Dungeon3_branch_7eafc
	octave 4
	D_ 2
	D_ 2
	rest 2
	D_ 2
	D# 2
	D# 2
	E_ 2
	E_ 2
	rest 2
	E_ 2
	F_ 2
	F_ 2

Music_Dungeon3_branch_7ea3c::
	callchannel Music_Dungeon3_branch_7eace
	loopchannel 4, Music_Dungeon3_branch_7ea3c

Music_Dungeon3_branch_7ea43::
	callchannel Music_Dungeon3_branch_7eadd
	loopchannel 3, Music_Dungeon3_branch_7ea43
	octave 3
	C# 2
	octave 2
	A_ 2
	F_ 2
	octave 3
	C# 2
	octave 2
	A_ 2
	F_ 2
	octave 3
	A_ 2
	F_ 2
	octave 4
	C# 2
	octave 3
	A_ 2
	F_ 2
	octave 4
	C# 2
	octave 3
	A_ 2
	F_ 2
	A_ 2
	F_ 2
	octave 4
	C# 2
	octave 3
	A_ 2
	F_ 2
	octave 4
	C# 2
	octave 3
	A_ 2
	F_ 2
	octave 4
	C# 2
	octave 3
	A_ 2
	F_ 2
	octave 4
	C# 2
	octave 3
	A_ 2
	F_ 2
	octave 4
	C# 2
	octave 3
	A_ 2
	F_ 2
	octave 4
	C# 2
	octave 3
	A_ 2
	F_ 2
	G# 2
	E_ 2
	octave 4
	C_ 2
	octave 3
	G# 2
	E_ 2
	octave 4
	C_ 2
	callchannel Music_Dungeon3_branch_7eaea
	callchannel Music_Dungeon3_branch_7eaea
	octave 3
	G# 2
	E_ 2
	octave 4
	C_ 2
	octave 3
	G# 2
	E_ 2
	octave 4
	C_ 2
	octave 3
	G# 2
	E_ 2
	rest 16
	rest 8
	callchannel Music_Dungeon3_branch_7eaf7
	callchannel Music_Dungeon3_branch_7eaf7
	callchannel Music_Dungeon3_branch_7eaf7
	callchannel Music_Dungeon3_branch_7eaf7
	D# 2
	rest 16
	rest 16
	loopchannel 0, Music_Dungeon3_branch_7e9fc

Music_Dungeon3_branch_7eab2::
	octave 2
	B_ 2
	octave 3
	D# 2
	G_ 2
	octave 2
	B_ 2
	octave 3
	D# 2
	G_ 2
	octave 2
	B_ 2
	octave 3
	D# 2
	endchannel

Music_Dungeon3_branch_7eac1::
	E_ 2
	G# 2
	octave 4
	C_ 2
	octave 3
	E_ 2
	G# 2
	octave 4
	C_ 2
	octave 3
	E_ 2
	G# 2
	endchannel

Music_Dungeon3_branch_7eace::
	octave 3
	D# 2
	octave 2
	B_ 2
	octave 3
	G_ 2
	D# 2
	octave 2
	B_ 2
	octave 3
	G_ 2
	D# 2
	octave 2
	B_ 2
	endchannel

Music_Dungeon3_branch_7eadd::
	A_ 2
	F_ 2
	octave 3
	C# 2
	octave 2
	A_ 2
	F_ 2
	octave 3
	C# 2
	octave 2
	A_ 2
	F_ 2
	endchannel

Music_Dungeon3_branch_7eaea::
	octave 3
	G# 2
	E_ 2
	G# 2
	E_ 2
	octave 4
	C_ 2
	octave 3
	G# 2
	E_ 2
	octave 4
	C_ 2
	endchannel

Music_Dungeon3_branch_7eaf7::
	D# 2
	G_ 2
	D# 2
	C# 6
	endchannel

Music_Dungeon3_branch_7eafc::
	tempo 168
	octave 1
	A# 1
	B_ 1
	octave 2
	C_ 1
	C# 1
	D_ 1
	D# 1
	E_ 1
	F_ 1
	tempo 176
	octave 1
	A# 1
	B_ 1
	octave 2
	C_ 1
	C# 1
	D_ 1
	D# 1
	E_ 1
	F_ 1
	tempo 184
	octave 1
	A# 1
	B_ 1
	octave 2
	C_ 1
	C# 1
	D_ 1
	D# 1
	E_ 1
	F_ 1
	tempo 192
	octave 1
	A_ 1
	A# 1
	B_ 1
	octave 2
	C_ 1
	C# 1
	D_ 1
	D# 1
	E_ 1
	tempo 200
	octave 1
	G# 1
	A_ 1
	A# 1
	B_ 1
	octave 2
	C_ 1
	C# 1
	D_ 1
	D# 1
	tempo 208
	octave 1
	G_ 1
	G# 1
	A_ 1
	A# 1
	B_ 1
	octave 2
	C_ 1
	C# 1
	D_ 1
	tempo 216
	octave 1
	F# 1
	G_ 1
	G# 1
	A_ 1
	A# 1
	B_ 1
	octave 2
	C_ 1
	C# 1
	tempo 224
	octave 1
	F_ 1
	F# 1
	G_ 1
	G# 1
	A_ 1
	A# 1
	B_ 1
	octave 2
	C_ 1
	tempo 160
	endchannel


Music_Dungeon3_Ch1::
	vibrato 11, 1, 5
	duty 3

Music_Dungeon3_branch_7eb6d::
	notetype 12, 13, 3
	octave 4
	D# 6
	C# 6
	octave 3
	B_ 2
	octave 4
	C# 2
	D# 2
	G_ 2
	D# 2
	C# 6
	octave 3
	B_ 2
	octave 4
	C# 2
	D# 2
	G_ 2
	D# 2
	C# 6
	octave 3
	B_ 2
	A# 2
	B_ 6
	octave 4
	C# 8
	rest 2
	G# 6
	F# 6
	E_ 2
	F# 2
	G# 2
	octave 5
	C_ 2
	octave 4
	G# 2
	F# 6
	E_ 2
	F# 2
	G# 2
	octave 5
	C_ 2
	octave 4
	G# 2
	F# 6
	E_ 2
	D# 2
	E_ 6
	F# 6
	E_ 4
	D# 6
	C# 6
	octave 3
	B_ 2
	octave 4
	C# 2
	D# 2
	G_ 2
	D# 2
	C# 6
	octave 3
	B_ 2
	octave 4
	C# 2
	D# 2
	G_ 2
	D# 2
	C# 6
	octave 3
	B_ 2
	A# 2
	B_ 6
	octave 4
	C# 8
	rest 2
	G# 2
	G# 2
	rest 2
	G# 2
	A_ 2
	A_ 2
	A# 2
	A# 2
	rest 2
	A# 2
	B_ 2
	B_ 2
	rest 8
	rest 8
	rest 8
	rest 8
	rest 8
	rest 8
	rest 8
	rest 8
	octave 4
	B_ 2
	B_ 2
	rest 2
	B_ 2
	A# 2
	A# 2
	A_ 2
	A_ 2
	rest 2
	A_ 2
	G# 2
	G# 2
	C# 8
	rest 2
	octave 3
	B_ 6
	A# 2
	B_ 2
	octave 4
	D# 2
	G_ 2
	D# 2
	C# 6
	octave 3
	B_ 2
	octave 4
	C# 2
	D# 2
	G_ 2
	D# 2
	C# 6
	octave 3
	B_ 2
	octave 4
	C# 2
	D# 6
	G_ 6
	octave 3
	G_ 8
	rest 2
	F_ 6
	E_ 2
	F_ 2
	A_ 2
	octave 4
	C# 2
	octave 3
	A_ 2
	G_ 6
	F_ 2
	G_ 2
	A_ 2
	octave 4
	C# 2
	octave 3
	A_ 2
	G_ 6
	A_ 6
	octave 4
	C# 6
	G_ 8
	rest 2
	F_ 6
	E_ 2
	F_ 2
	A_ 2
	octave 5
	C# 2
	octave 4
	A_ 2
	G_ 6
	A_ 2
	octave 5
	C# 2
	octave 4
	A_ 2
	G_ 6
	A_ 6
	octave 5
	C# 6
	octave 4
	F# 8
	rest 2
	E_ 6
	D# 2
	E_ 2
	G# 2
	octave 5
	C_ 2
	octave 4
	G# 2
	F# 6
	E_ 2
	F# 2
	G# 2
	octave 5
	C_ 2
	octave 4
	G# 2
	F# 6
	G# 6
	octave 5
	C_ 6
	octave 3
	D# 2
	G_ 2
	D# 2
	C# 6
	D# 2
	G_ 2
	D# 2
	C# 6
	octave 2
	E_ 2
	G# 2
	octave 3
	C_ 2
	E_ 2
	G# 2
	octave 4
	C_ 2
	E_ 2
	G# 2
	C_ 2
	E_ 2
	G# 2
	C_ 2
	E_ 2
	G# 2
	C_ 2
	E_ 2
	G# 2
	C_ 2
	E_ 2
	G# 2
	C_ 2
	E_ 2
	G# 2
	C_ 2
	D# 2
	octave 2
	B_ 2
	octave 3
	D# 2
	G_ 2
	octave 2
	B_ 2
	octave 3
	D# 2
	G_ 2
	octave 2
	B_ 2
	octave 3
	D# 2
	octave 2
	B_ 2
	octave 3
	D# 2
	G_ 2
	octave 2
	B_ 2
	octave 3
	D# 2
	G_ 2
	octave 2
	B_ 2
	octave 3
	D# 2
	loopchannel 0, Music_Dungeon3_branch_7eb6d


Music_Dungeon3_Ch2::
	notetype 12, 1, 2
	rest 16
	rest 16
	rest 16
	rest 16
	rest 16
	rest 16
	rest 16
	rest 16
	rest 16
	rest 16
	rest 16
	rest 12
	notetype 6, 1, 0
	octave 3
	B_ 1
	octave 4
	C_ 1
	C# 1
	D_ 1
	D# 1
	E_ 1
	rest 2
	C_ 1
	C# 1
	D_ 1
	D# 1
	E_ 1
	F_ 1
	rest 16
	rest 16
	rest 10
	octave 5
	E_ 8
	octave 4
	B_ 8
	octave 5
	D# 8
	octave 4
	A# 8
	octave 5
	D_ 8
	octave 4
	A_ 8
	octave 5
	C# 8
	octave 4
	G# 8
	octave 5
	C_ 8
	octave 4
	G_ 8
	B_ 8
	F# 8
	A# 8
	F_ 8
	A_ 8
	E_ 8
	rest 16
	rest 16
	rest 8
	F_ 1
	E_ 1
	D# 1
	D_ 1
	C# 1
	C_ 1
	rest 2
	E_ 1
	D# 1
	D_ 1
	C# 1
	C_ 1
	octave 3
	B_ 1
	rest 10
	rest 16
	notetype 12, 1, 0
	rest 16
	rest 16
	rest 16
	rest 16
	rest 16
	rest 16
	rest 16
	rest 16
	rest 16
	rest 16
	rest 16
	rest 16
	rest 16
	rest 16
	rest 16
	rest 16
	rest 16
	rest 16
	rest 16
	rest 16
	rest 10
	loopchannel 0, Music_Dungeon3_Ch2


Music_Dungeon3_Ch3::
	dspeed 12
	rest 16
	rest 16
	rest 16
	rest 16
	rest 16
	rest 16
	rest 16
	rest 16
	rest 16
	rest 16
	rest 16
	rest 16
	rest 16
	rest 16
	rest 16
	rest 16
	rest 16
	rest 16
	rest 16
	rest 16
	rest 16
	rest 16
	rest 16
	rest 16
	rest 16
	rest 16
	rest 16
	rest 16
	rest 16
	rest 16
	rest 16
	rest 16
	rest 16
	rest 16
	rest 16
	rest 16
	rest 16
	rest 16
	rest 16
	rest 16
	rest 10
	endchannel
