Music_Dungeon1_Ch0::
	tempo 144
	volume 7, 7
	duty 3
	toggleperfectpitch
	vibrato 10, 1, 4
	notetype 12, 4, 13
	rest 8
	stereopanning 237
	octave 4
	F# 8
	stereopanning 255

Music_Dungeon1_branch_7dee5::
	notetype 12, 11, 2
	octave 3

Music_Dungeon1_branch_7dee8::
	callchannel Music_Dungeon1_branch_7dfaa
	loopchannel 3, Music_Dungeon1_branch_7dee8
	E_ 1
	D# 1
	B_ 1
	A# 1
	G_ 1
	G# 1
	rest 1
	A# 1
	E_ 1
	D# 1
	B_ 1
	A# 1
	G_ 1
	G# 1
	A_ 1
	A# 1

Music_Dungeon1_branch_7deff::
	callchannel Music_Dungeon1_branch_7dfaa
	loopchannel 4, Music_Dungeon1_branch_7deff
	callchannel Music_Dungeon1_branch_7dfd5
	octave 3
	G_ 1
	F# 1
	E_ 1
	G_ 1
	callchannel Music_Dungeon1_branch_7dfd5
	octave 3
	A_ 1
	G_ 1
	E_ 1
	A_ 1
	callchannel Music_Dungeon1_branch_7dfd5
	octave 3
	B_ 1
	A_ 1
	G_ 1
	F# 1
	notetype 12, 12, 3
	G_ 4
	F# 4
	E_ 4
	D# 4
	notetype 12, 12, 2
	callchannel Music_Dungeon1_branch_7dfc5
	octave 3
	B_ 3
	callchannel Music_Dungeon1_branch_7dfc5
	C_ 3
	callchannel Music_Dungeon1_branch_7dfc5
	C# 3
	notetype 12, 12, 3
	octave 3
	G_ 4
	F# 4
	E_ 4
	D# 4
	E_ 4
	D# 4
	C_ 4
	octave 2
	B_ 4
	notetype 12, 12, 2
	B_ 1
	A# 1
	G_ 1
	A# 1
	B_ 1
	A# 1
	G_ 1
	A# 1
	octave 3
	C_ 1
	octave 2
	B_ 1
	G# 1
	B_ 1
	octave 3
	C_ 1
	octave 2
	B_ 1
	G# 1
	B_ 1
	octave 3
	C# 1
	C_ 1
	octave 2
	A_ 1
	octave 3
	C_ 1
	C# 1
	C_ 1
	octave 2
	A_ 1
	octave 3
	C_ 1
	D_ 1
	C# 1
	octave 2
	A# 1
	octave 3
	C# 1
	D_ 1
	C# 1
	octave 2
	A# 1
	octave 3
	C# 1

Music_Dungeon1_branch_7df6e::
	rest 16
	loopchannel 8, Music_Dungeon1_branch_7df6e
	notetype 12, 12, 3
	callchannel Music_Dungeon1_branch_7dfbb
	B_ 2
	G_ 2
	octave 3
	C# 4
	octave 2
	G_ 2
	A_ 4
	F# 2
	callchannel Music_Dungeon1_branch_7dfbb
	A# 2
	G_ 2
	B_ 4
	G_ 2
	F# 2
	G_ 2
	D# 2
	notetype 12, 12, 2
	callchannel Music_Dungeon1_branch_7dfc5
	octave 3
	B_ 3
	callchannel Music_Dungeon1_branch_7dfc5
	C_ 3
	callchannel Music_Dungeon1_branch_7dfc5
	C# 3
	notetype 12, 12, 7
	octave 3
	F# 8
	D# 8
	notetype 12, 12, 2
	callchannel Music_Dungeon1_branch_7dfaa
	callchannel Music_Dungeon1_branch_7dfaa
	loopchannel 0, Music_Dungeon1_branch_7dee5

Music_Dungeon1_branch_7dfaa::
	E_ 1
	D# 1
	B_ 1
	A# 1
	G_ 1
	G# 1
	rest 1
	A# 1
	E_ 1
	D# 1
	B_ 1
	A# 1
	G_ 1
	G# 1
	rest 1
	A# 1
	endchannel

Music_Dungeon1_branch_7dfbb::
	octave 2
	G_ 2
	A# 4
	G_ 2
	octave 3
	C# 4
	octave 2
	G_ 2
	A# 2
	endchannel

Music_Dungeon1_branch_7dfc5::
	octave 3
	E_ 1
	E_ 1
	F_ 1
	E_ 1
	G_ 1
	E_ 1
	A_ 1
	E_ 1
	A# 1
	E_ 1
	B_ 1
	E_ 1
	octave 4
	C_ 1
	endchannel

Music_Dungeon1_branch_7dfd5::
	E_ 1
	E_ 1
	rest 4
	octave 1
	E_ 1
	rest 3
	E_ 1
	rest 1
	endchannel


Music_Dungeon1_Ch1::
	vibrato 11, 1, 5
	duty 3
	notetype 12, 0, 15
	octave 4
	G# 8
	notetype 12, 4, 13
	octave 5
	D_ 8

Music_Dungeon1_branch_7dfeb::
	notetype 12, 12, 2

Music_Dungeon1_branch_7dfed::
	callchannel Music_Dungeon1_branch_7e097
	loopchannel 3, Music_Dungeon1_branch_7dfed
	octave 2
	E_ 1
	E_ 1
	B_ 1
	octave 3
	C_ 1
	rest 2
	C_ 1
	octave 2
	B_ 1
	E_ 1
	E_ 1
	A_ 1
	G_ 1
	F_ 1
	F# 1
	G_ 1
	D# 1

Music_Dungeon1_branch_7e006::
	callchannel Music_Dungeon1_branch_7e097
	loopchannel 4, Music_Dungeon1_branch_7e006
	rest 2
	callchannel Music_Dungeon1_branch_7e0ab
	octave 3
	C_ 4
	callchannel Music_Dungeon1_branch_7e0ab
	octave 3
	C# 4
	callchannel Music_Dungeon1_branch_7e0ab
	octave 3
	D# 4
	notetype 12, 13, 3
	octave 4
	E_ 4
	D# 4
	C_ 4
	octave 3
	B_ 4
	notetype 12, 13, 2
	callchannel Music_Dungeon1_branch_7e0b5
	octave 3
	F# 4
	callchannel Music_Dungeon1_branch_7e0b5
	octave 3
	G_ 4
	callchannel Music_Dungeon1_branch_7e0b5
	octave 3
	A# 4
	notetype 12, 13, 3
	octave 4
	E_ 4
	D# 4
	C_ 4
	octave 3
	B_ 4
	octave 4
	C_ 4
	octave 3
	B_ 4
	G_ 4
	F# 2
	notetype 12, 13, 6
	E_ 8
	F_ 8
	F# 8
	G_ 8
	notetype 12, 13, 2
	callchannel Music_Dungeon1_branch_7e0ba
	rest 10
	E_ 1
	rest 1
	callchannel Music_Dungeon1_branch_7e0ba
	rest 12
	callchannel Music_Dungeon1_branch_7e0ba
	rest 12
	callchannel Music_Dungeon1_branch_7e0ba
	rest 14
	notetype 12, 13, 3
	callchannel Music_Dungeon1_branch_7e0cd
	D# 4
	callchannel Music_Dungeon1_branch_7e0cd
	D# 2
	rest 2
	notetype 12, 13, 2
	callchannel Music_Dungeon1_branch_7e0c0
	rest 2
	octave 3
	F# 4
	octave 2
	E_ 1
	E_ 1
	octave 3
	B_ 1
	rest 1
	octave 4
	C_ 1
	rest 1
	C# 1
	rest 1
	D_ 1
	C# 1
	rest 2
	octave 3
	G_ 4
	callchannel Music_Dungeon1_branch_7e0c0
	octave 3
	A# 4
	notetype 12, 13, 6
	B_ 8
	octave 4
	D# 8
	notetype 12, 13, 2
	callchannel Music_Dungeon1_branch_7e097
	callchannel Music_Dungeon1_branch_7e097
	loopchannel 0, Music_Dungeon1_branch_7dfeb

Music_Dungeon1_branch_7e097::
	octave 2
	E_ 1
	E_ 1
	B_ 1
	octave 3
	C_ 1
	rest 2
	C_ 1
	octave 2
	B_ 1
	E_ 1
	E_ 1
	B_ 1
	octave 3
	C_ 1
	rest 2
	C_ 1
	octave 2
	B_ 1
	endchannel

Music_Dungeon1_branch_7e0ab::
	octave 2
	E_ 1
	E_ 1
	rest 2
	octave 1
	E_ 1
	rest 3
	E_ 1
	rest 3
	endchannel

Music_Dungeon1_branch_7e0b5::
	octave 2
	E_ 1
	E_ 1
	rest 10
	endchannel

Music_Dungeon1_branch_7e0ba::
	octave 1
	E_ 1
	G_ 1
	E_ 1
	D# 1
	endchannel

Music_Dungeon1_branch_7e0c0::
	octave 2
	E_ 1
	E_ 1
	octave 4
	E_ 1
	rest 1
	D# 1
	rest 1
	D_ 1
	rest 1
	C# 1
	C_ 1
	endchannel

Music_Dungeon1_branch_7e0cd::
	octave 3
	E_ 6
	G_ 6
	E_ 4
	A_ 6
	octave 4
	C_ 6
	octave 3
	B_ 4
	G_ 6
	A# 6
	F# 4
	E_ 6
	F# 6
	endchannel


Music_Dungeon1_Ch2::
	notetype 12, 1, 1
	vibrato 8, 2, 6
	rest 14
	octave 4
	D_ 1
	D# 1

Music_Dungeon1_branch_7e0e5::
	callchannel Music_Dungeon1_branch_7e140
	callchannel Music_Dungeon1_branch_7e140
	octave 5
	E_ 2
	rest 4
	octave 3
	E_ 1
	rest 3
	E_ 1
	rest 1
	octave 4
	F# 4
	callchannel Music_Dungeon1_branch_7e154
	octave 4
	G_ 4
	callchannel Music_Dungeon1_branch_7e154
	octave 4
	A_ 4
	B_ 4
	A# 4
	G_ 4
	F# 4
	rest 6
	callchannel Music_Dungeon1_branch_7e177
	B_ 4
	A# 4
	G_ 4
	F# 4
	G_ 4
	F# 4
	E_ 4
	D# 4
	callchannel Music_Dungeon1_branch_7e15e
	rest 12
	callchannel Music_Dungeon1_branch_7e15e
	rest 12
	callchannel Music_Dungeon1_branch_7e15e
	rest 10
	E_ 1
	rest 1
	callchannel Music_Dungeon1_branch_7e15e
	rest 12
	callchannel Music_Dungeon1_branch_7e15e
	rest 12
	callchannel Music_Dungeon1_branch_7e15e
	rest 10
	D_ 1
	D# 1
	callchannel Music_Dungeon1_branch_7e164
	callchannel Music_Dungeon1_branch_7e164
	E_ 2
	rest 4
	callchannel Music_Dungeon1_branch_7e177
	B_ 8
	F# 6
	D_ 1
	D# 1
	rest 16
	rest 16
	loopchannel 0, Music_Dungeon1_branch_7e0e5

Music_Dungeon1_branch_7e140::
	octave 5
	E_ 4
	B_ 4
	A# 4
	octave 6
	D_ 4
	C# 4
	octave 5
	G# 4
	G_ 4
	B_ 4
	A# 4
	E_ 4
	D# 4
	A_ 4
	G# 4
	E_ 4
	F# 4
	D# 4
	endchannel

Music_Dungeon1_branch_7e154::
	octave 6
	E_ 1
	E_ 1
	rest 4
	octave 3
	E_ 1
	rest 3
	E_ 1
	rest 1
	endchannel

Music_Dungeon1_branch_7e15e::
	octave 3
	E_ 1
	G_ 1
	E_ 1
	D# 1
	endchannel

Music_Dungeon1_branch_7e164::
	E_ 4
	B_ 4
	A# 4
	octave 4
	D_ 4
	C# 4
	octave 3
	G# 4
	G_ 4
	B_ 4
	A# 4
	E_ 4
	D# 4
	A_ 4
	G# 4
	E_ 4
	F# 4
	D# 4
	endchannel

Music_Dungeon1_branch_7e177::
	octave 4
	E_ 1
	rest 3
	E_ 1
	rest 1
	F# 4
	rest 6
	E_ 1
	rest 3
	E_ 1
	rest 1
	G_ 4
	rest 6
	E_ 1
	rest 3
	E_ 1
	E_ 1
	A# 4
	endchannel


Music_Dungeon1_Ch3::
	dspeed 12
	rest 14
	cymbal1 1
	cymbal1 1

Music_Dungeon1_branch_7e190::
	callchannel Music_Dungeon1_branch_7e1f1
	loopchannel 3, Music_Dungeon1_branch_7e190
	cymbal2 4
	cymbal1 4
	cymbal2 4
	cymbal1 2
	cymbal1 2

Music_Dungeon1_branch_7e1a1::
	callchannel Music_Dungeon1_branch_7e1f1
	loopchannel 3, Music_Dungeon1_branch_7e1a1
	cymbal2 4
	cymbal1 4
	cymbal2 4
	cymbal2 4

Music_Dungeon1_branch_7e1b0::
	callchannel Music_Dungeon1_branch_7e1fa
	loopchannel 3, Music_Dungeon1_branch_7e1b0
	callchannel Music_Dungeon1_branch_7e202

Music_Dungeon1_branch_7e1ba::
	callchannel Music_Dungeon1_branch_7e1fa
	loopchannel 3, Music_Dungeon1_branch_7e1ba
	callchannel Music_Dungeon1_branch_7e202
	snare7 4
	snare8 4
	snare8 4
	rest 2
	snare7 2
	cymbal2 4

Music_Dungeon1_branch_7e1cf::
	rest 16
	loopchannel 13, Music_Dungeon1_branch_7e1cf
	rest 12

Music_Dungeon1_branch_7e1d5::
	callchannel Music_Dungeon1_branch_7e1fa
	loopchannel 3, Music_Dungeon1_branch_7e1d5
	cymbal1 4
	cymbal1 4
	cymbal1 4
	rest 2
	cymbal1 1
	cymbal1 1
	callchannel Music_Dungeon1_branch_7e1f1
	callchannel Music_Dungeon1_branch_7e1f1
	loopchannel 0, Music_Dungeon1_branch_7e190

Music_Dungeon1_branch_7e1f1::
	cymbal2 4
	cymbal1 4
	cymbal2 4
	cymbal1 4
	endchannel

Music_Dungeon1_branch_7e1fa::
	cymbal1 1
	cymbal1 1
	rest 10
	cymbal3 4
	endchannel

Music_Dungeon1_branch_7e202::
	snare7 4
	snare8 4
	snare8 4
	snare9 4
	endchannel
