Music_FinalBattle_Ch0::
	tempo 112
	volume 7, 7
	duty 3
	vibrato 6, 3, 4
	toggleperfectpitch
	notetype 12, 11, 2
	octave 3
	F# 1
	F_ 1
	F# 1
	G_ 1
	F# 1
	G_ 1
	G# 1
	G_ 1
	notetype 12, 10, 2
	G# 1
	A_ 1
	G# 1
	A_ 1
	A# 1
	A_ 1
	A# 1
	B_ 1
	notetype 12, 9, 2
	A# 1
	B_ 1
	octave 4
	C_ 1
	octave 3
	B_ 1
	octave 4
	C_ 1
	C# 1
	C_ 1
	C# 1
	notetype 12, 8, 2
	D_ 1
	C# 1
	D_ 1
	D# 1
	D_ 1
	D# 1
	E_ 1
	D# 1
	notetype 12, 12, 1
	octave 3
	E_ 1
	E_ 7
	F_ 1
	F_ 7
	G_ 1
	G_ 7
	F_ 1
	F_ 7
	E_ 1
	E_ 7
	F_ 1
	F_ 7
	G_ 1
	G_ 7
	G# 1
	G# 3
	D# 4
	notetype 12, 12, 1
	E_ 1
	E_ 3
	notetype 12, 11, 3
	E_ 4
	notetype 12, 12, 1
	F_ 1
	F_ 3
	notetype 12, 11, 3
	F_ 4
	notetype 12, 12, 1
	G_ 1
	G_ 3
	notetype 12, 11, 3
	G_ 4
	notetype 12, 12, 1
	F_ 1
	F_ 3
	notetype 12, 11, 3
	F_ 4
	notetype 12, 12, 1
	E_ 1
	E_ 3
	notetype 12, 11, 3
	E_ 4
	notetype 12, 12, 1
	F_ 1
	F_ 3
	notetype 12, 11, 3
	F_ 4
	notetype 12, 12, 1
	G_ 1
	G_ 3
	notetype 12, 11, 3
	G_ 4
	notetype 12, 12, 1
	G# 1
	G# 3
	notetype 12, 11, 7
	D# 4

Music_FinalBattle_branch_23429::
	notetype 12, 11, 7
	octave 3
	E_ 4
	B_ 4
	D# 4
	A# 4
	D_ 4
	A_ 4
	octave 2
	B_ 4
	octave 3
	F# 4
	F_ 4
	F# 4
	notetype 12, 11, 1
	F# 2
	F_ 1
	F# 1
	A_ 1
	F# 2
	F# 1
	notetype 12, 11, 7
	octave 2
	B_ 6
	notetype 12, 10, 0
	octave 3
	D_ 6
	notetype 12, 11, 7
	F# 4
	E_ 4
	B_ 4
	D# 4
	A# 4
	D_ 4
	A_ 4
	octave 2
	B_ 4
	octave 3
	F# 4
	F_ 4
	F# 12
	A# 4
	notetype 12, 5, 14
	B_ 12
	notetype 12, 11, 2
	E_ 3
	E_ 3
	E_ 2
	E_ 1
	F# 1
	E_ 1
	B_ 1
	F# 1
	E_ 1
	F# 1
	B_ 1
	F# 1
	E_ 1
	F# 1
	B_ 1
	F# 1
	E_ 1
	F# 1
	B_ 1
	F# 1
	notetype 12, 12, 2
	E_ 1
	F# 1
	B_ 1
	F# 1
	notetype 12, 13, 2
	E_ 1
	F# 1
	B_ 1
	notetype 12, 12, 1
	E_ 1
	E_ 7
	E_ 1
	E_ 7
	E_ 1
	E_ 7
	E_ 1
	E_ 7
	E_ 1
	E_ 3
	notetype 12, 11, 5
	D_ 4
	notetype 12, 12, 1
	E_ 1
	E_ 3
	notetype 12, 11, 5
	F_ 4
	notetype 12, 12, 1
	E_ 1
	E_ 3
	notetype 12, 11, 5
	D_ 4
	notetype 12, 12, 1
	E_ 1
	notetype 12, 11, 7
	E_ 7
	notetype 12, 12, 1
	E_ 2
	B_ 1
	A_ 1
	E_ 2
	B_ 1
	A_ 1
	E_ 2
	B_ 1
	A_ 1
	E_ 2
	B_ 1
	A_ 3
	E_ 1
	D_ 3
	E_ 1
	D_ 3
	E_ 1
	D_ 3
	E_ 1
	D_ 1
	F_ 2
	octave 4
	C_ 1
	octave 3
	B_ 1
	F_ 2
	octave 4
	C_ 1
	octave 3
	B_ 1
	F_ 2
	octave 4
	C_ 1
	octave 3
	B_ 1
	F_ 2
	octave 4
	C_ 1
	octave 3
	B_ 3
	F_ 1
	E_ 3
	F_ 1
	E_ 3
	F_ 1
	E_ 3
	F_ 1
	E_ 1
	F# 2
	octave 4
	C# 1
	C_ 1
	octave 3
	F# 2
	octave 4
	C# 1
	C_ 1
	octave 3
	F# 2
	octave 4
	C# 1
	C_ 1
	octave 3
	F# 2
	octave 4
	C# 1
	C_ 3
	octave 3
	F# 1
	F_ 3
	F# 1
	F_ 3
	F# 1
	F_ 3
	F# 1
	F_ 3
	F# 1
	F_ 3
	F# 1
	F_ 3
	F# 1
	F_ 3
	notetype 12, 11, 7
	octave 4
	C_ 2
	notetype 12, 11, 0
	C# 8
	notetype 12, 11, 7
	C# 8
	notetype 12, 10, 0
	octave 3
	F# 8
	F# 8
	notetype 12, 11, 0
	octave 3
	A_ 8
	notetype 12, 11, 7
	A_ 8
	G_ 4
	B_ 12
	notetype 12, 11, 0
	A_ 8
	notetype 12, 11, 7
	A_ 8
	notetype 12, 11, 0
	E_ 8
	notetype 12, 11, 7
	E_ 8
	notetype 12, 11, 0
	A# 8
	notetype 12, 11, 7
	A# 8
	octave 4
	F_ 8
	octave 3
	A# 8
	octave 4
	C# 4
	E_ 12
	octave 3
	A_ 4
	octave 4
	C# 12
	notetype 12, 4, 0
	callchannel Music_FinalBattle_branch_23710
	callchannel Music_FinalBattle_branch_23710
	notetype 12, 11, 7
	octave 3
	E_ 4
	B_ 4
	D# 4
	A# 4
	D_ 4
	A_ 4
	octave 2
	B_ 4
	octave 3
	F# 4
	F_ 4
	F# 12
	notetype 12, 11, 0
	A_ 8
	G_ 8
	notetype 12, 11, 7
	E_ 4
	B_ 4
	D# 4
	A# 4
	D_ 4
	A_ 4
	octave 2
	B_ 4
	octave 3
	F# 4
	F_ 4
	F# 12
	notetype 12, 11, 0
	A_ 8
	notetype 12, 11, 7
	octave 4
	C_ 8
	notetype 12, 11, 0
	octave 3
	B_ 8
	notetype 12, 11, 7
	B_ 8
	notetype 12, 11, 0
	octave 4
	E_ 8
	notetype 12, 11, 7
	E_ 8
	loopchannel 0, Music_FinalBattle_branch_23429


Music_FinalBattle_Ch1::
	duty 3
	vibrato 8, 2, 5
	notetype 12, 12, 2
	octave 5
	C_ 1
	octave 4
	G# 1
	B_ 1
	F# 1
	A_ 1
	E_ 1
	G_ 1
	octave 5
	C_ 1
	octave 4
	F_ 1
	C# 1
	E_ 1
	C_ 1
	D# 1
	octave 3
	B_ 1
	octave 4
	D_ 1
	octave 5
	C_ 1
	octave 4
	C_ 1
	octave 3
	G# 1
	B_ 1
	F# 1
	A# 1
	F_ 1
	A_ 1
	octave 5
	C_ 1
	octave 3
	G# 1
	D# 1
	G_ 1
	D_ 1
	F_ 1
	C# 1
	E_ 1
	octave 5
	C_ 1
	notetype 12, 12, 1
	octave 4
	E_ 1
	E_ 7
	E_ 1
	E_ 7
	E_ 1
	E_ 7
	E_ 1
	E_ 7
	E_ 1
	E_ 3
	notetype 12, 12, 2
	octave 5
	E_ 4
	notetype 12, 12, 1
	octave 4
	E_ 1
	E_ 3
	notetype 12, 12, 2
	octave 5
	E_ 4
	notetype 12, 12, 1
	octave 4
	E_ 1
	E_ 3
	notetype 12, 12, 2
	octave 5
	E_ 4
	notetype 12, 12, 1
	octave 4
	E_ 1
	E_ 3
	notetype 12, 12, 2
	D# 4
	callchannel Music_FinalBattle_branch_23704
	callchannel Music_FinalBattle_branch_23704
	callchannel Music_FinalBattle_branch_23704
	callchannel Music_FinalBattle_branch_23704
	callchannel Music_FinalBattle_branch_23704
	callchannel Music_FinalBattle_branch_23704
	callchannel Music_FinalBattle_branch_23704
	notetype 12, 12, 1
	octave 4
	E_ 1
	E_ 3
	notetype 12, 4, 10
	octave 3
	G# 4

Music_FinalBattle_branch_235e6::
	notetype 12, 13, 7
	octave 4
	E_ 8
	D# 8
	D_ 8
	octave 3
	B_ 8
	notetype 12, 13, 7
	A# 4
	B_ 12
	notetype 12, 11, 1
	F_ 2
	F# 3
	A_ 1
	B_ 1
	A_ 1
	octave 4
	C_ 1
	octave 3
	B_ 2
	A_ 1
	B_ 1
	B_ 1
	A_ 1
	A# 1
	notetype 12, 13, 7
	octave 4
	E_ 8
	D# 8
	D_ 8
	octave 3
	B_ 8
	notetype 12, 13, 7
	A# 4
	B_ 12
	octave 4
	D# 4
	E_ 12
	notetype 12, 10, 0
	octave 3
	B_ 8
	octave 4
	D_ 8
	F_ 8
	D_ 8
	notetype 12, 13, 1
	E_ 1
	E_ 3
	notetype 12, 12, 4
	octave 3
	D_ 4
	notetype 12, 13, 1
	octave 4
	E_ 1
	E_ 3
	notetype 12, 12, 4
	octave 3
	F_ 4
	notetype 12, 13, 1
	octave 4
	E_ 1
	E_ 3
	notetype 12, 12, 4
	octave 3
	D_ 4
	notetype 12, 13, 1
	octave 4
	E_ 1
	E_ 1
	notetype 12, 12, 4
	octave 2
	B_ 4
	octave 3
	D_ 2
	notetype 12, 12, 2
	octave 4
	E_ 1
	E_ 1
	D_ 1
	E_ 1
	F_ 1
	E_ 1
	D_ 1
	F_ 1
	E_ 1
	E_ 1
	F# 1
	F_ 1
	E_ 1
	D# 1
	E_ 1
	F# 1
	E_ 1
	E_ 1
	F_ 1
	E_ 1
	D_ 1
	C# 1
	D_ 1
	D# 1
	E_ 1
	E_ 1
	notetype 12, 12, 4
	octave 2
	B_ 4
	octave 3
	D_ 2
	notetype 12, 13, 7
	octave 4
	E_ 4
	F_ 2
	F# 12
	notetype 12, 12, 2
	octave 3
	B_ 2
	B_ 4
	B_ 2
	B_ 4
	B_ 2
	notetype 12, 13, 7
	octave 4
	F_ 4
	F# 2
	G_ 12
	notetype 12, 12, 2
	C_ 2
	C_ 4
	C_ 2
	C_ 4
	C_ 2
	notetype 12, 13, 7
	F# 4
	G_ 2
	G# 12
	notetype 12, 8, 2
	C# 2
	C# 4
	notetype 12, 10, 2
	C# 2
	C# 4
	C# 4
	notetype 12, 13, 2
	C# 2
	C# 4
	notetype 12, 15, 2
	C# 2
	C# 4
	notetype 12, 12, 4
	E_ 1
	F_ 1
	notetype 12, 12, 0
	F# 12
	notetype 12, 12, 7
	F# 4
	notetype 12, 1, 15
	octave 3
	F# 8
	notetype 12, 9, 0
	F# 8
	notetype 12, 12, 7
	octave 4
	C# 4
	notetype 12, 12, 0
	D_ 12
	D_ 8
	notetype 12, 12, 7
	D_ 8
	notetype 12, 12, 0
	E_ 8
	notetype 12, 12, 7
	E_ 8
	notetype 12, 12, 0
	octave 3
	A_ 8
	notetype 12, 12, 7
	A_ 8
	notetype 12, 12, 0
	octave 4
	F_ 8
	notetype 12, 12, 7
	F_ 8
	octave 5
	C_ 8
	octave 4
	A# 8
	notetype 12, 12, 0
	A_ 16
	A_ 8
	notetype 12, 12, 7
	A_ 8
	notetype 12, 12, 5
	callchannel Music_FinalBattle_branch_23710
	notetype 12, 11, 1
	callchannel Music_FinalBattle_branch_23710
	notetype 12, 13, 7
	octave 4
	E_ 8
	D# 8
	D_ 8
	octave 3
	B_ 8
	A# 4
	B_ 12
	notetype 12, 12, 7
	octave 4
	D_ 8
	notetype 12, 4, 12
	C_ 8
	notetype 12, 13, 7
	E_ 8
	D# 8
	D_ 8
	octave 3
	B_ 8
	A# 4
	B_ 12
	notetype 12, 5, 13
	octave 4
	D_ 8
	notetype 12, 12, 0
	F_ 8
	notetype 12, 12, 0
	E_ 8
	notetype 12, 12, 7
	E_ 8
	A# 4
	B_ 12
	loopchannel 0, Music_FinalBattle_branch_235e6

Music_FinalBattle_branch_23704::
	octave 4
	E_ 1
	E_ 1
	G_ 1
	octave 5
	C_ 1
	E_ 1
	C_ 1
	octave 4
	G_ 1
	F_ 1
	endchannel

Music_FinalBattle_branch_23710::
	octave 4
	D_ 2
	C# 2
	octave 3
	B_ 2
	octave 4
	C# 2
	D_ 2
	C# 2
	F# 2
	D_ 2
	endchannel


Music_FinalBattle_Ch2::
	notetype 12, 1, 1
	octave 4
	E_ 4
	octave 5
	E_ 4
	octave 4
	F_ 4
	octave 5
	D# 4
	octave 4
	G_ 4
	octave 5
	D_ 4
	octave 4
	G# 4
	B_ 4
	E_ 1
	E_ 1
	rest 6
	E_ 1
	E_ 1
	rest 6
	E_ 1
	E_ 1
	rest 6
	E_ 1
	E_ 1
	rest 2
	D# 4
	E_ 1
	E_ 1
	rest 2
	B_ 4
	E_ 1
	E_ 1
	rest 2
	octave 5
	C_ 4
	octave 4
	E_ 1
	E_ 1
	rest 2
	octave 5
	D_ 4
	octave 4
	E_ 1
	E_ 1
	octave 5
	C_ 4
	octave 4
	A# 2
	E_ 1
	E_ 1
	rest 2
	B_ 4
	E_ 1
	E_ 1
	rest 2
	octave 5
	C_ 4
	octave 4
	E_ 1
	E_ 1
	rest 2
	octave 5
	D_ 4
	octave 4
	E_ 1
	E_ 1
	octave 5
	C_ 4
	D_ 2
	octave 4
	E_ 1
	E_ 1
	rest 2
	B_ 4
	E_ 1
	E_ 1
	rest 2
	octave 5
	C_ 4
	octave 4
	E_ 1
	E_ 1
	rest 2
	octave 5
	D_ 4
	octave 4
	E_ 1
	E_ 1
	rest 2
	E_ 1
	D# 1
	E_ 1
	G_ 1

Music_FinalBattle_branch_2377d::
	octave 4
	E_ 1
	octave 3
	E_ 1
	rest 2
	octave 4
	F# 4
	D# 1
	octave 3
	D# 1
	rest 2
	octave 4
	F_ 4
	D_ 1
	octave 3
	D_ 1
	rest 2
	octave 4
	E_ 4
	F# 1
	octave 3
	F# 1
	rest 2
	octave 4
	F# 4
	F_ 4
	octave 3
	B_ 2
	octave 4
	F# 2
	octave 3
	B_ 2
	octave 4
	F# 2
	octave 3
	B_ 2
	octave 4
	F# 2
	octave 3
	B_ 2
	octave 4
	F# 2
	octave 3
	B_ 2
	octave 4
	F# 2
	octave 3
	B_ 2
	octave 4
	F# 2
	octave 3
	B_ 2
	octave 4
	F# 2
	E_ 1
	octave 3
	E_ 1
	rest 2
	octave 4
	F# 4
	D# 1
	octave 3
	D# 1
	rest 2
	octave 4
	F_ 4
	D_ 1
	octave 3
	D_ 1
	rest 2
	octave 4
	E_ 4
	F# 1
	octave 3
	F# 1
	rest 2
	octave 4
	F# 4
	F_ 4
	octave 3
	B_ 2
	octave 4
	F# 2
	octave 3
	B_ 2
	octave 4
	F# 2
	octave 3
	B_ 2
	octave 4
	F# 2
	E_ 1
	D# 1
	E_ 1
	F# 1
	E_ 2
	B_ 2
	E_ 2
	B_ 2
	E_ 2
	B_ 2
	E_ 2
	B_ 2
	E_ 2
	B_ 2
	E_ 2
	B_ 2
	E_ 2
	B_ 2
	E_ 2
	B_ 2
	E_ 2
	B_ 2
	E_ 2
	B_ 2
	E_ 2
	B_ 2
	E_ 1
	E_ 1
	rest 2
	D_ 4
	E_ 1
	E_ 1
	rest 2
	F_ 4
	E_ 1
	E_ 1
	rest 2
	D_ 4
	E_ 1
	E_ 1
	octave 3
	B_ 6
	octave 4
	E_ 1
	E_ 1
	rest 2
	D_ 4
	E_ 1
	E_ 1
	rest 2
	F_ 4
	E_ 1
	E_ 1
	rest 2
	D_ 4
	E_ 1
	E_ 1
	octave 3
	B_ 6
	octave 4
	E_ 2
	octave 5
	D_ 2
	octave 4
	E_ 2
	octave 5
	D_ 2
	octave 4
	E_ 2
	octave 5
	D_ 2
	octave 4
	E_ 2
	octave 5
	D_ 2
	octave 4
	E_ 2
	B_ 2
	B_ 2
	E_ 2
	B_ 2
	B_ 2
	octave 5
	C# 2
	octave 4
	B_ 2
	F_ 2
	octave 5
	D# 2
	octave 4
	F_ 2
	octave 5
	D# 2
	octave 4
	F_ 2
	octave 5
	D# 2
	octave 4
	F_ 2
	octave 5
	D# 2
	octave 4
	F_ 2
	octave 5
	C_ 2
	C_ 2
	octave 4
	F_ 2
	octave 5
	C_ 2
	C_ 2
	D_ 2
	C_ 2
	octave 4
	F# 2
	octave 5
	E_ 2
	octave 4
	F# 2
	octave 5
	E_ 2
	octave 4
	F# 2
	octave 5
	E_ 2
	octave 4
	F# 2
	octave 5
	E_ 2
	octave 4
	F# 2
	octave 5
	C# 2
	C# 2
	octave 4
	F# 2
	octave 5
	C# 2
	C# 2
	E_ 2
	C# 2
	octave 4
	F# 2
	octave 5
	C# 2
	C# 2
	octave 4
	F# 2
	octave 5
	C# 2
	C# 2
	E_ 2
	C# 2
	callchannel Music_FinalBattle_branch_2395b
	callchannel Music_FinalBattle_branch_2395b
	octave 4
	G_ 2
	octave 5
	D_ 2
	octave 4
	G_ 2
	octave 5
	D_ 2
	octave 4
	G_ 2
	octave 5
	D_ 2
	octave 4
	G_ 2
	octave 5
	D_ 2
	octave 4
	G_ 2
	octave 5
	D_ 2
	octave 4
	G_ 2
	octave 5
	D_ 2
	octave 4
	G_ 2
	octave 5
	D_ 2
	octave 4
	G_ 1
	F# 1
	G_ 1
	G# 1
	callchannel Music_FinalBattle_branch_2396c
	callchannel Music_FinalBattle_branch_2396c
	octave 4
	A# 2
	octave 5
	F_ 2
	octave 4
	A# 2
	octave 5
	F_ 2
	octave 4
	A# 2
	octave 5
	F_ 2
	octave 4
	A# 2
	octave 5
	F_ 2
	octave 4
	A# 2
	octave 5
	F_ 2
	G_ 2
	F_ 2
	E_ 2
	D_ 2
	C# 2
	octave 4
	A# 2
	A_ 2
	octave 5
	C# 2
	octave 4
	A_ 2
	octave 5
	C# 2
	octave 4
	A_ 2
	octave 5
	C# 2
	octave 4
	A_ 2
	octave 5
	C# 2
	octave 4
	A_ 2
	octave 5
	C# 2
	octave 4
	A_ 2
	octave 5
	C# 2
	octave 4
	A_ 2
	octave 5
	C# 2
	octave 4
	A_ 2
	G# 2
	G_ 2
	octave 5
	D_ 2
	octave 4
	G_ 2
	octave 5
	D_ 2
	octave 4
	G_ 2
	octave 5
	D_ 2
	octave 4
	G_ 2
	octave 5
	D_ 2
	octave 4
	G_ 2
	octave 5
	D_ 2
	octave 4
	G_ 2
	octave 5
	D_ 2
	octave 4
	G_ 2
	octave 5
	D_ 2
	octave 4
	G_ 1
	F# 1
	G_ 1
	G# 1
	E_ 2
	A_ 2
	E_ 2
	A_ 2
	E_ 2
	A_ 2
	E_ 2
	A_ 2
	E_ 2
	A_ 2
	E_ 2
	A_ 2
	E_ 2
	F_ 2
	F# 2
	G_ 2
	F# 2
	B_ 2
	F# 2
	B_ 2
	F# 2
	B_ 2
	F# 2
	B_ 2
	F# 2
	B_ 2
	F# 2
	B_ 2
	F# 2
	B_ 2
	F# 2
	D# 2
	E_ 2
	B_ 2
	E_ 2
	B_ 2
	E_ 2
	B_ 2
	E_ 2
	B_ 2
	E_ 2
	B_ 2
	E_ 2
	B_ 2
	E_ 2
	F_ 2
	F# 2
	G_ 2
	F# 2
	octave 5
	D_ 2
	octave 4
	F# 2
	octave 5
	D_ 2
	octave 4
	F# 2
	octave 5
	D_ 2
	octave 4
	F# 2
	octave 5
	D_ 2
	octave 4
	F# 2
	octave 5
	D_ 2
	octave 4
	F# 2
	octave 5
	D_ 2
	octave 4
	F# 2
	octave 5
	D_ 2
	octave 4
	F# 2
	F_ 2
	E_ 2
	B_ 2
	octave 5
	E_ 4
	octave 4
	E_ 2
	B_ 2
	octave 5
	D# 4
	octave 4
	E_ 2
	B_ 2
	octave 5
	D_ 4
	octave 4
	E_ 2
	A_ 2
	B_ 4
	loopchannel 0, Music_FinalBattle_branch_2377d

Music_FinalBattle_branch_2395b::
	octave 4
	F# 2
	octave 5
	C# 2
	octave 4
	F# 2
	octave 5
	C# 2
	octave 4
	F# 2
	octave 5
	C# 2
	octave 4
	F# 2
	octave 5
	C# 2
	endchannel

Music_FinalBattle_branch_2396c::
	octave 4
	A_ 2
	octave 5
	E_ 2
	octave 4
	A_ 2
	octave 5
	E_ 2
	octave 4
	A_ 2
	octave 5
	E_ 2
	octave 4
	A_ 2
	octave 5
	E_ 2
	endchannel
