Music_GameCorner_Ch0::
	tempo 120
	volume 7, 7
	duty 3
	vibrato 12, 3, 4
	toggleperfectpitch
	notetype 12, 11, 5
	octave 3
	A_ 6
	notetype 12, 11, 1
	G# 2
	F# 2
	E_ 2
	D# 2
	C# 2
	D# 16

Music_GameCorner_branch_7e222::
	notetype 12, 11, 5
	octave 3
	C# 4
	octave 2
	G# 4
	octave 3
	E_ 4
	octave 2
	B_ 4
	octave 3
	A_ 2
	G# 8
	notetype 12, 10, 7
	G# 2
	A_ 2
	B_ 2
	notetype 12, 11, 5
	G# 6
	E_ 2
	F# 2
	E_ 2
	D# 2
	E_ 2
	notetype 12, 10, 7
	F# 8
	D# 8
	notetype 12, 11, 5
	D# 4
	octave 2
	B_ 4
	octave 3
	F# 4
	D# 4
	B_ 2
	A_ 8
	notetype 12, 11, 7
	octave 4
	E_ 2
	D# 2
	E_ 2
	D# 6
	C# 2
	octave 3
	D# 2
	E_ 2
	F# 2
	G_ 2
	G# 2
	notetype 12, 9, 7
	G# 1
	G_ 1
	G# 1
	G_ 1
	G# 2
	notetype 12, 11, 7
	F# 8
	notetype 12, 11, 5
	C# 4
	octave 2
	G# 4
	octave 3
	E_ 4
	octave 2
	B_ 4
	octave 3
	A_ 2
	G# 8
	notetype 12, 11, 7
	G# 2
	A_ 2
	B_ 2
	G# 6
	E_ 2
	F# 2
	E_ 2
	D# 2
	E_ 2
	F# 8
	notetype 12, 9, 7
	D# 4
	C# 4
	notetype 12, 11, 5
	D# 4
	octave 2
	B_ 4
	octave 3
	F# 4
	D# 4
	B_ 2
	A_ 8
	notetype 12, 11, 7
	F# 2
	G# 2
	A_ 2
	B_ 4
	A_ 4
	B_ 2
	A_ 2
	G# 2
	F# 2
	notetype 12, 12, 2
	E_ 4
	octave 2
	B_ 4
	octave 3
	E_ 2
	E_ 4
	E_ 4
	notetype 12, 11, 7
	octave 2
	B_ 2
	octave 3
	C# 2
	D_ 2
	D# 10
	octave 2
	B_ 2
	octave 3
	C# 2
	D# 2
	E_ 8
	notetype 12, 11, 5
	octave 4
	D# 4
	octave 3
	B_ 4
	F# 4
	D# 4
	notetype 12, 11, 7
	E_ 3
	D# 1
	notetype 12, 11, 2
	C# 2
	D# 2
	E_ 10
	notetype 12, 11, 7
	octave 2
	B_ 2
	octave 3
	C# 2
	D_ 2
	D# 10
	octave 2
	B_ 2
	octave 3
	C# 2
	D# 2
	E_ 8
	notetype 12, 11, 5
	octave 4
	D# 4
	octave 3
	B_ 4
	F# 4
	A_ 4
	notetype 12, 11, 7
	G# 2
	G# 1
	G_ 1
	G# 1
	G_ 1
	G# 1
	G_ 1
	G# 8
	loopchannel 0, Music_GameCorner_branch_7e222


Music_GameCorner_Ch1::
	duty 2
	vibrato 10, 2, 3
	notetype 12, 12, 6
	octave 4
	C# 6
	notetype 12, 12, 1
	octave 3
	B_ 2
	A_ 2
	G# 2
	F# 2
	E_ 2
	F# 2
	duty 3
	B_ 1
	A# 1
	B_ 1
	A# 1
	B_ 1
	A# 1
	B_ 8

Music_GameCorner_branch_7e2fa::
	duty 2
	notetype 12, 12, 7
	octave 3
	E_ 4
	octave 2
	B_ 4
	octave 3
	G# 4
	E_ 4
	octave 4
	C# 2
	octave 3
	B_ 14
	octave 4
	E_ 6
	D# 2
	C# 2
	octave 3
	B_ 2
	A_ 2
	G# 2
	A_ 16
	F# 4
	D# 4
	A_ 4
	F# 4
	octave 4
	D# 2
	C# 14
	F# 6
	E_ 2
	D# 2
	C# 2
	octave 3
	B_ 2
	A# 2
	B_ 16
	E_ 4
	octave 2
	B_ 4
	octave 3
	G# 4
	E_ 4
	octave 4
	C# 2
	octave 3
	B_ 14
	octave 4
	E_ 6
	D# 2
	C# 2
	octave 3
	B_ 2
	A_ 2
	G# 2
	A_ 16
	F# 4
	D# 4
	A_ 4
	F# 4
	octave 4
	D# 2
	C# 14
	F# 6
	E_ 2
	D# 2
	E_ 2
	F# 2
	G# 2
	notetype 12, 12, 1
	E_ 2
	notetype 12, 10, 1
	E_ 1
	D# 1
	E_ 1
	D# 1
	E_ 1
	D# 1
	E_ 2
	notetype 12, 12, 7
	octave 3
	B_ 2
	octave 4
	C# 2
	D_ 2
	D# 10
	octave 3
	B_ 2
	octave 4
	C# 2
	D# 2
	E_ 10
	octave 3
	B_ 2
	octave 4
	C# 2
	D# 2
	notetype 12, 12, 5
	F# 4
	D# 4
	octave 3
	B_ 4
	octave 4
	A_ 4
	G# 3
	A_ 1
	notetype 12, 12, 2
	G# 2
	F# 2
	E_ 2
	notetype 12, 12, 7
	octave 3
	B_ 2
	octave 4
	C# 2
	D_ 2
	D# 10
	octave 3
	B_ 2
	octave 4
	C# 2
	D# 2
	E_ 10
	octave 3
	B_ 2
	octave 4
	C# 2
	D# 2
	F# 4
	D# 4
	A_ 4
	F# 4
	B_ 16
	loopchannel 0, Music_GameCorner_branch_7e2fa


Music_GameCorner_Ch2::
	notetype 12, 1, 3
	octave 5
	C# 1
	rest 5
	octave 4
	F# 1
	rest 1
	G# 1
	rest 1
	A_ 1
	rest 1
	A# 1
	rest 1
	A# 1
	rest 1
	B_ 1
	rest 9
	octave 3
	B_ 1
	rest 1
	octave 4
	C# 1
	rest 1
	D# 1
	rest 1

Music_GameCorner_branch_7e3a5::
	callchannel Music_GameCorner_branch_7e418
	callchannel Music_GameCorner_branch_7e42d
	callchannel Music_GameCorner_branch_7e442
	callchannel Music_GameCorner_branch_7e457
	callchannel Music_GameCorner_branch_7e46c
	callchannel Music_GameCorner_branch_7e481
	callchannel Music_GameCorner_branch_7e496
	D# 1
	rest 1
	A_ 1
	rest 1
	octave 3
	B_ 1
	rest 1
	octave 4
	A_ 1
	rest 1
	D# 1
	rest 1
	A_ 1
	rest 1
	G# 1
	rest 1
	F# 1
	rest 1
	callchannel Music_GameCorner_branch_7e418
	callchannel Music_GameCorner_branch_7e42d
	callchannel Music_GameCorner_branch_7e442
	callchannel Music_GameCorner_branch_7e457
	callchannel Music_GameCorner_branch_7e46c
	callchannel Music_GameCorner_branch_7e481
	callchannel Music_GameCorner_branch_7e496
	E_ 1
	rest 3
	octave 3
	B_ 1
	rest 3
	octave 4
	E_ 1
	rest 1
	E_ 1
	rest 3
	B_ 1
	rest 1
	callchannel Music_GameCorner_branch_7e46c
	callchannel Music_GameCorner_branch_7e418
	callchannel Music_GameCorner_branch_7e4ab
	E_ 1
	rest 1
	G# 1
	rest 1
	octave 3
	B_ 1
	rest 1
	octave 4
	G# 1
	rest 1
	E_ 1
	rest 1
	G# 1
	rest 1
	F# 1
	rest 1
	E_ 1
	rest 1
	callchannel Music_GameCorner_branch_7e46c
	callchannel Music_GameCorner_branch_7e418
	callchannel Music_GameCorner_branch_7e4ab
	callchannel Music_GameCorner_branch_7e42d
	loopchannel 0, Music_GameCorner_branch_7e3a5

Music_GameCorner_branch_7e418::
	E_ 1
	rest 1
	G# 1
	rest 1
	octave 3
	B_ 1
	rest 1
	octave 4
	G# 1
	rest 1
	E_ 1
	rest 1
	G# 1
	rest 1
	octave 3
	B_ 1
	rest 1
	octave 4
	G# 1
	rest 1
	endchannel

Music_GameCorner_branch_7e42d::
	E_ 1
	rest 1
	G# 1
	rest 1
	octave 3
	B_ 1
	rest 1
	octave 4
	G# 1
	rest 1
	E_ 1
	rest 1
	octave 3
	B_ 1
	rest 1
	octave 4
	C# 1
	rest 1
	D# 1
	rest 1
	endchannel

Music_GameCorner_branch_7e442::
	E_ 1
	rest 1
	B_ 1
	rest 1
	octave 3
	B_ 1
	rest 1
	octave 4
	B_ 1
	rest 1
	E_ 1
	rest 1
	B_ 1
	rest 1
	octave 3
	B_ 1
	rest 1
	octave 4
	B_ 1
	rest 1
	endchannel

Music_GameCorner_branch_7e457::
	D# 1
	rest 1
	A_ 1
	rest 1
	octave 3
	B_ 1
	rest 1
	octave 4
	A_ 1
	rest 1
	D# 1
	rest 1
	A_ 1
	rest 1
	octave 3
	B_ 1
	rest 1
	octave 4
	A_ 1
	rest 1
	endchannel

Music_GameCorner_branch_7e46c::
	D# 1
	rest 1
	F# 1
	rest 1
	octave 3
	B_ 1
	rest 1
	octave 4
	F# 1
	rest 1
	D# 1
	rest 1
	F# 1
	rest 1
	octave 3
	B_ 1
	rest 1
	octave 4
	F# 1
	rest 1
	endchannel

Music_GameCorner_branch_7e481::
	D# 1
	rest 1
	F# 1
	rest 1
	octave 3
	B_ 1
	rest 1
	octave 4
	F# 1
	rest 1
	D# 1
	rest 1
	octave 3
	B_ 1
	rest 1
	octave 4
	C# 1
	rest 1
	D# 1
	rest 1
	endchannel

Music_GameCorner_branch_7e496::
	F# 1
	rest 1
	B_ 1
	rest 1
	octave 3
	B_ 1
	rest 1
	octave 4
	B_ 1
	rest 1
	F# 1
	rest 1
	B_ 1
	rest 1
	octave 3
	B_ 1
	rest 1
	octave 4
	B_ 1
	rest 1
	endchannel

Music_GameCorner_branch_7e4ab::
	F# 1
	rest 1
	A_ 1
	rest 1
	octave 3
	B_ 1
	rest 1
	octave 4
	A_ 1
	rest 1
	F# 1
	rest 1
	A_ 1
	rest 1
	octave 3
	B_ 1
	rest 1
	octave 4
	A_ 1
	rest 1
	endchannel
