Music_IndigoPlateau_Ch0::
	tempo 132
	volume 7, 7
	duty 3
	vibrato 6, 3, 4
	toggleperfectpitch
	notetype 12, 11, 2
	octave 2
	A_ 8
	A_ 8
	A_ 8
	A_ 4
	notetype 12, 10, 4
	A# 4

Music_IndigoPlateau_branch_a605::
	callchannel Music_IndigoPlateau_branch_a659
	notetype 12, 11, 4
	octave 3
	D_ 4
	callchannel Music_IndigoPlateau_branch_a659
	notetype 12, 11, 4
	octave 3
	D# 4
	callchannel Music_IndigoPlateau_branch_a659
	notetype 12, 11, 4
	octave 3
	D_ 4
	callchannel Music_IndigoPlateau_branch_a659
	notetype 12, 10, 0
	octave 2
	A# 4
	callchannel Music_IndigoPlateau_branch_a659
	notetype 12, 11, 4
	octave 3
	D_ 4
	notetype 12, 13, 4
	octave 3
	A_ 4
	A_ 4
	A_ 4
	A_ 4
	A_ 4
	A_ 4
	A_ 4
	notetype 12, 11, 4
	octave 3
	D# 4
	notetype 12, 13, 4
	octave 3
	A# 4
	A# 4
	A# 4
	A# 4
	A# 4
	A# 4
	A# 4
	notetype 12, 11, 4
	octave 3
	F_ 2
	notetype 12, 11, 4
	octave 3
	G_ 2
	notetype 12, 11, 0
	A_ 8
	octave 2
	A_ 8
	notetype 12, 11, 7
	octave 3
	F_ 8
	notetype 12, 4, 14
	octave 2
	A# 8
	loopchannel 0, Music_IndigoPlateau_branch_a605

Music_IndigoPlateau_branch_a659::
	notetype 12, 11, 2
	octave 2
	A_ 4
	A_ 4
	A_ 4
	A_ 4
	A_ 4
	A_ 4
	A_ 4
	endchannel


Music_IndigoPlateau_Ch1::
	duty 3
	vibrato 8, 2, 5
	notetype 12, 12, 2
	octave 3
	D_ 8
	D_ 8
	D_ 8
	D_ 4
	notetype 12, 5, 10
	D# 4

Music_IndigoPlateau_branch_a673::
	callchannel Music_IndigoPlateau_branch_a6af
	notetype 12, 12, 5
	A_ 4
	callchannel Music_IndigoPlateau_branch_a6af
	notetype 12, 12, 5
	A# 4
	callchannel Music_IndigoPlateau_branch_a6af
	notetype 12, 12, 5
	A_ 4
	callchannel Music_IndigoPlateau_branch_a6af
	notetype 12, 12, 7
	C# 4
	callchannel Music_IndigoPlateau_branch_a6af
	notetype 12, 12, 5
	A_ 4
	callchannel Music_IndigoPlateau_branch_a6af
	notetype 12, 12, 5
	A# 4
	callchannel Music_IndigoPlateau_branch_a6af
	notetype 12, 12, 5
	octave 4
	C_ 2
	notetype 12, 12, 7
	octave 4
	C# 2
	D_ 8
	octave 3
	D_ 8
	octave 4
	C_ 8
	notetype 12, 4, 13
	octave 4
	D# 8
	loopchannel 0, Music_IndigoPlateau_branch_a673

Music_IndigoPlateau_branch_a6af::
	notetype 12, 12, 2
	octave 3
	D_ 4
	D_ 4
	D_ 4
	D_ 4
	D_ 4
	D_ 4
	D_ 4
	endchannel


Music_IndigoPlateau_Ch2::
	notetype 12, 1, 0
	octave 4
	D_ 2
	rest 6
	D_ 2
	rest 6
	D_ 2
	rest 6
	D_ 2
	rest 2
	D# 4

Music_IndigoPlateau_branch_a6c6::
	callchannel Music_IndigoPlateau_branch_a6fe
	callchannel Music_IndigoPlateau_branch_a6fe
	callchannel Music_IndigoPlateau_branch_a6fe
	D_ 2
	rest 2
	D_ 2
	rest 2
	D_ 2
	rest 2
	D_ 2
	rest 2
	D_ 2
	rest 2
	D_ 2
	rest 2
	D_ 2
	rest 2
	F# 4
	callchannel Music_IndigoPlateau_branch_a6fe
	callchannel Music_IndigoPlateau_branch_a6fe
	D_ 2
	rest 2
	D_ 2
	rest 2
	D_ 2
	rest 2
	D_ 2
	rest 2
	D_ 2
	rest 2
	D_ 2
	rest 2
	D_ 2
	rest 2
	A# 1
	rest 1
	A# 1
	rest 1
	A_ 8
	D_ 8
	A# 8
	D# 8
	loopchannel 0, Music_IndigoPlateau_branch_a6c6

Music_IndigoPlateau_branch_a6fe::
	octave 4
	D_ 2
	rest 2
	D_ 2
	rest 2
	D_ 2
	rest 2
	D_ 2
	rest 2
	D_ 2
	rest 2
	D_ 2
	rest 2
	D_ 2
	rest 2
	A_ 4
	endchannel


Music_IndigoPlateau_Ch3::
	dspeed 6
	mutedsnare2 16
	mutedsnare2 16
	mutedsnare2 16
	mutedsnare2 8
	mutedsnare4 1
	mutedsnare4 1
	mutedsnare4 1
	mutedsnare4 1
	mutedsnare3 1
	mutedsnare3 1
	mutedsnare3 1
	mutedsnare3 1

Music_IndigoPlateau_branch_a728::
	callchannel Music_IndigoPlateau_branch_a791
	callchannel Music_IndigoPlateau_branch_a77e
	callchannel Music_IndigoPlateau_branch_a791
	callchannel Music_IndigoPlateau_branch_a7a8
	callchannel Music_IndigoPlateau_branch_a791
	callchannel Music_IndigoPlateau_branch_a77e
	callchannel Music_IndigoPlateau_branch_a791
	callchannel Music_IndigoPlateau_branch_a7a8
	callchannel Music_IndigoPlateau_branch_a791
	callchannel Music_IndigoPlateau_branch_a77e
	callchannel Music_IndigoPlateau_branch_a791
	callchannel Music_IndigoPlateau_branch_a7a8
	callchannel Music_IndigoPlateau_branch_a77e
	callchannel Music_IndigoPlateau_branch_a7a8
	mutedsnare2 16
	mutedsnare2 8
	mutedsnare3 8
	mutedsnare2 16
	mutedsnare4 1
	mutedsnare4 1
	mutedsnare4 1
	mutedsnare4 1
	mutedsnare3 1
	mutedsnare4 1
	mutedsnare3 1
	mutedsnare4 1
	mutedsnare3 1
	mutedsnare3 1
	mutedsnare3 1
	mutedsnare3 1
	mutedsnare2 1
	mutedsnare2 1
	mutedsnare2 1
	mutedsnare2 1
	loopchannel 0, Music_IndigoPlateau_branch_a728

Music_IndigoPlateau_branch_a77e::
	mutedsnare2 4
	mutedsnare3 4
	mutedsnare4 4
	mutedsnare3 4
	mutedsnare2 4
	mutedsnare3 4
	mutedsnare4 4
	mutedsnare4 2
	mutedsnare3 2
	endchannel

Music_IndigoPlateau_branch_a791::
	mutedsnare2 4
	mutedsnare3 4
	mutedsnare4 4
	mutedsnare3 4
	mutedsnare2 4
	mutedsnare3 4
	mutedsnare4 4
	mutedsnare4 1
	mutedsnare4 1
	mutedsnare3 1
	mutedsnare3 1
	endchannel

Music_IndigoPlateau_branch_a7a8::
	mutedsnare2 4
	mutedsnare3 4
	mutedsnare2 4
	mutedsnare3 4
	mutedsnare2 4
	mutedsnare2 4
	mutedsnare4 1
	mutedsnare4 1
	mutedsnare4 1
	mutedsnare4 1
	mutedsnare3 1
	mutedsnare3 1
	mutedsnare3 1
	mutedsnare3 1
	endchannel
