Music_MeetFemaleTrainer_Ch0::
	tempo 124
	volume 7, 7
	duty 1
	toggleperfectpitch
	notetype 12, 11, 2
	octave 3
	G# 6
	octave 4
	E_ 2
	D# 2
	C# 2
	C_ 2
	notetype 12, 8, 1

Music_MeetFemaleTrainer_branch_7f70c::
	octave 3
	E_ 4
	loopchannel 12, Music_MeetFemaleTrainer_branch_7f70c
	E_ 4
	octave 2
	B_ 4
	B_ 4
	octave 3
	E_ 4
	loopchannel 0, Music_MeetFemaleTrainer_branch_7f70c


Music_MeetFemaleTrainer_Ch1::
	duty 2
	notetype 12, 12, 2
	octave 3
	B_ 2
	notetype 12, 12, 7
	octave 4
	B_ 12

Music_MeetFemaleTrainer_branch_7f726::
	notetype 12, 12, 2
	octave 3
	B_ 4
	octave 4
	D# 4
	E_ 4
	D# 4
	C# 2
	C_ 2
	octave 3
	B_ 2
	A_ 2
	G# 2
	A_ 2
	A# 2
	octave 4
	C# 2
	octave 3
	B_ 4
	octave 4
	C# 4
	octave 3
	B_ 4
	A_ 4
	G# 2
	F# 2
	E_ 2
	D# 2
	E_ 2
	F# 2
	G# 2
	A_ 2
	loopchannel 0, Music_MeetFemaleTrainer_branch_7f726


Music_MeetFemaleTrainer_Ch2::
	notetype 12, 1, 0
	rest 8
	octave 5
	C# 1
	rest 1
	octave 4
	B_ 1
	rest 1
	A_ 1
	rest 1

Music_MeetFemaleTrainer_branch_7f756::
	callchannel Music_MeetFemaleTrainer_branch_7f770
	G# 1
	rest 3
	E_ 1
	rest 3
	G# 1
	rest 3
	E_ 1
	rest 3
	callchannel Music_MeetFemaleTrainer_branch_7f770
	G# 1
	rest 3
	E_ 1
	rest 3
	G# 1
	rest 3
	B_ 1
	rest 3
	loopchannel 0, Music_MeetFemaleTrainer_branch_7f756

Music_MeetFemaleTrainer_branch_7f770::
	G# 1
	rest 3
	E_ 1
	rest 3
	G# 1
	rest 3
	E_ 1
	rest 1
	F# 1
	rest 1
	endchannel
