Music_MeetMaleTrainer_Ch0::
	tempo 112
	volume 7, 7
	duty 3
	vibrato 20, 3, 3
	toggleperfectpitch
	notetype 12, 11, 4
	octave 3
	C# 1
	D_ 1
	D# 1
	E_ 1
	F_ 12
	rest 16

Music_MeetMaleTrainer_branch_7f78f::
	octave 3
	B_ 4
	A_ 4
	G# 2
	F# 2
	E_ 2
	D# 2
	F# 4
	E_ 6
	F_ 2
	F# 4
	G_ 8
	octave 4
	D_ 8
	E_ 16
	loopchannel 0, Music_MeetMaleTrainer_branch_7f78f


Music_MeetMaleTrainer_Ch1::
	duty 3
	vibrato 24, 2, 2
	notetype 12, 12, 4
	octave 4
	E_ 1
	D# 1
	D_ 1
	C# 1
	octave 3
	B_ 12
	rest 2
	E_ 1
	rest 3
	E_ 1
	rest 9

Music_MeetMaleTrainer_branch_7f7b5::
	notetype 12, 12, 4
	octave 4
	E_ 6
	D# 6
	C# 4
	octave 3
	B_ 2
	A_ 2
	G# 2
	F# 2
	G# 2
	A_ 2
	B_ 2
	octave 4
	C# 2
	notetype 12, 12, 7
	F_ 16
	notetype 12, 12, 5
	octave 3
	F# 8
	octave 4
	C# 8
	loopchannel 0, Music_MeetMaleTrainer_branch_7f7b5


Music_MeetMaleTrainer_Ch2::
	notetype 12, 1, 0
	rest 6
	octave 4
	B_ 1
	rest 1
	E_ 1
	rest 1
	B_ 1
	rest 3
	B_ 1
	rest 1
	E_ 1
	rest 1
	B_ 1
	rest 3
	B_ 1
	rest 3
	E_ 1
	rest 1
	F_ 1
	rest 1
	F# 1
	rest 1

Music_MeetMaleTrainer_branch_7f7ea::
	E_ 1
	rest 1
	B_ 1
	rest 1
	E_ 1
	rest 1
	B_ 1
	rest 1
	E_ 1
	rest 1
	B_ 1
	rest 1
	E_ 1
	rest 1
	B_ 1
	rest 1
	F# 1
	rest 1
	octave 5
	C# 1
	rest 1
	octave 4
	F# 1
	rest 1
	octave 5
	C# 1
	rest 1
	octave 4
	F# 1
	rest 1
	octave 5
	C# 1
	rest 1
	octave 4
	F# 1
	rest 1
	octave 5
	C# 1
	rest 1
	octave 4
	G_ 1
	rest 1
	octave 5
	D_ 1
	rest 1
	octave 4
	G_ 1
	rest 1
	octave 5
	D_ 1
	rest 1
	octave 4
	G_ 1
	rest 1
	octave 5
	D_ 1
	rest 1
	octave 4
	G_ 1
	rest 1
	octave 5
	D_ 1
	rest 1
	octave 4
	F# 1
	rest 1
	octave 5
	C# 1
	rest 1
	octave 4
	F# 1
	rest 1
	octave 5
	C# 1
	rest 1
	octave 4
	F# 1
	rest 1
	octave 5
	C# 1
	rest 1
	octave 4
	F# 1
	rest 1
	D# 1
	rest 1
	loopchannel 0, Music_MeetMaleTrainer_branch_7f7ea
