Music_MeetRival_branch_b119::
	tempo 100
	loopchannel 0, Music_MeetRival_branch_b123

Music_MeetRival_Ch0::
	tempo 112

Music_MeetRival_branch_b123::
	volume 7, 7
	duty 3
	vibrato 6, 3, 4
	toggleperfectpitch
	notetype 12, 11, 3
	octave 4
	D_ 1
	C# 1
	C_ 1
	octave 3
	B_ 1
	A# 2
	A_ 1
	G# 1
	G_ 1
	F# 1
	F_ 6
	D_ 1
	rest 3
	D_ 1
	rest 5
	A_ 2
	G_ 2
	A_ 2

Music_MeetRival_branch_b140::
	B_ 4
	A# 2
	A_ 4
	G_ 2
	octave 4
	C_ 4
	D_ 2
	rest 4
	D_ 4
	C# 2
	C_ 2
	octave 3
	B_ 2
	octave 4
	C_ 4
	E_ 2
	D_ 4
	C_ 2
	octave 3
	B_ 4
	octave 4
	C_ 2
	rest 4
	G_ 4
	G_ 2
	F# 2
	E_ 2
	D_ 2
	F# 2
	octave 3
	A_ 2
	octave 4
	D_ 2
	F# 2
	octave 3
	A_ 2
	octave 4
	D_ 2
	octave 3
	D_ 2
	octave 4
	D_ 2
	rest 2
	octave 3
	D_ 2
	octave 4
	C_ 4
	octave 3
	B_ 2
	A# 2
	B_ 2
	octave 4
	C_ 2
	F_ 2
	octave 3
	G_ 2
	octave 4
	C_ 2
	F_ 2
	D# 2
	C_ 2
	octave 3
	A# 2
	G_ 2
	rest 4
	A# 4
	octave 4
	C_ 2
	octave 3
	A# 2
	octave 4
	C_ 2
	notetype 12, 11, 7
	octave 3
	G_ 4
	D_ 2
	F_ 6
	F# 4
	D_ 2
	rest 4
	D_ 4
	notetype 12, 11, 3
	A_ 2
	G_ 2
	A_ 2
	loopchannel 0, Music_MeetRival_branch_b140

Music_MeetRival_branch_b19b::
	tempo 100
	loopchannel 0, Music_MeetRival_branch_b1a5

Music_MeetRival_branch_b1a2::
	tempo 112

Music_MeetRival_branch_b1a5::
	volume 7, 7
	duty 3
	vibrato 6, 3, 4
	toggleperfectpitch
	notetype 12, 11, 3
	octave 3
	D_ 1
	rest 3
	D_ 1
	rest 5
	A_ 2
	G_ 2
	A_ 2
	loopchannel 0, Music_MeetRival_branch_b140


Music_MeetRival_Ch1::
	duty 3
	vibrato 10, 2, 6
	notetype 12, 12, 7
	octave 4
	B_ 1
	A# 1
	A_ 1
	G# 1
	G_ 2
	F# 1
	F_ 1
	E_ 1
	D# 1
	D_ 6
	octave 3
	G_ 1
	rest 3
	G_ 1
	rest 3
	D_ 1
	rest 1
	octave 4
	D_ 2
	F_ 2
	F# 2

Music_MeetRival_branch_b1d8::
	notetype 12, 12, 7
	G_ 4
	D_ 2
	F_ 6
	F# 4
	G_ 2
	rest 4
	G_ 4
	G_ 2
	A# 2
	B_ 2
	octave 5
	C_ 4
	octave 4
	G_ 2
	A# 6
	B_ 4
	octave 5
	C_ 2
	rest 4
	C_ 4
	C_ 2
	octave 4
	B_ 2
	octave 5
	C_ 2
	notetype 12, 11, 0
	D_ 16
	notetype 12, 11, 5
	D_ 6
	notetype 12, 12, 7
	F_ 4
	D_ 2
	C_ 2
	D_ 2
	notetype 12, 11, 0
	C_ 8
	notetype 12, 12, 7
	C_ 8
	octave 4
	C_ 2
	rest 4
	A# 4
	G_ 2
	F_ 2
	notetype 12, 11, 0
	G_ 16
	notetype 12, 11, 3
	G_ 2
	octave 3
	G_ 2
	rest 4
	G_ 4
	octave 4
	D_ 2
	F_ 2
	F# 2
	loopchannel 0, Music_MeetRival_branch_b1d8

Music_MeetRival_branch_b21d::
	duty 3
	vibrato 10, 2, 6
	notetype 12, 12, 7
	octave 3
	G_ 1
	rest 3
	G_ 1
	rest 3
	D_ 1
	rest 1
	octave 4
	D_ 2
	F_ 2
	F# 2
	loopchannel 0, Music_MeetRival_branch_b1d8


Music_MeetRival_Ch2::
	notetype 12, 1, 4
	octave 5
	D_ 2
	rest 2
	C# 2
	rest 2
	C_ 2
	rest 2
	octave 4
	B_ 2
	rest 2
	G_ 1
	rest 3
	G_ 1
	rest 3
	G_ 1
	rest 1
	G_ 1
	rest 1
	G_ 1
	rest 1
	G_ 1
	rest 1

Music_MeetRival_branch_b24b::
	G_ 2
	octave 5
	D_ 2
	octave 4
	G_ 2
	rest 2
	octave 5
	D_ 2
	octave 4
	G_ 2
	rest 2
	octave 5
	D_ 2
	octave 4
	G_ 2
	rest 4
	octave 5
	D_ 4
	octave 4
	G_ 2
	A# 2
	B_ 2
	G_ 2
	octave 5
	C_ 2
	octave 4
	G_ 2
	rest 2
	octave 5
	C_ 2
	octave 4
	G_ 2
	rest 2
	B_ 2
	octave 5
	C_ 2
	rest 4
	C_ 4
	C_ 2
	octave 4
	B_ 2
	A_ 2
	F# 2
	A_ 2
	rest 2
	F# 2
	A_ 2
	F# 2
	rest 2
	A_ 2
	F# 2
	A_ 2
	rest 2
	F# 2
	A_ 2
	F# 2
	octave 5
	D_ 2
	octave 4
	A_ 2
	E_ 2
	octave 5
	C_ 2
	rest 2
	octave 4
	E_ 2
	octave 5
	C_ 2
	octave 4
	E_ 2
	F_ 2
	G_ 2
	E_ 2
	rest 4
	E_ 2
	octave 5
	C_ 2
	octave 4
	B_ 2
	A# 2
	A_ 2
	G_ 2
	A# 2
	rest 2
	G_ 2
	A# 2
	G_ 2
	rest 2
	A# 2
	G_ 2
	octave 5
	D_ 2
	octave 4
	G_ 2
	rest 2
	octave 5
	D_ 2
	octave 4
	G_ 2
	rest 2
	octave 5
	D_ 2
	loopchannel 0, Music_MeetRival_branch_b24b

Music_MeetRival_branch_b2b5::
	notetype 12, 1, 4
	octave 4
	G_ 1
	rest 3
	G_ 1
	rest 3
	G_ 1
	rest 1
	G_ 1
	rest 1
	G_ 1
	rest 1
	G_ 1
	rest 1
	loopchannel 0, Music_MeetRival_branch_b24b
