Music_MuseumGuy_Ch0::
	tempo 128
	volume 7, 7
	duty 2
	toggleperfectpitch
	notetype 12, 11, 1
	octave 3
	B_ 2
	A_ 2
	G# 2
	A_ 2
	G# 2
	F# 2
	E_ 2
	D# 2
	octave 2
	B_ 4
	B_ 1
	octave 3
	D# 1
	E_ 1
	G# 1
	B_ 10
	callchannel Music_MuseumGuy_branch_ade7
	callchannel Music_MuseumGuy_branch_adec
	callchannel Music_MuseumGuy_branch_ade7
	E_ 4
	E_ 4
	E_ 2
	E_ 6

Music_MuseumGuy_branch_add6::
	callchannel Music_MuseumGuy_branch_ade7
	callchannel Music_MuseumGuy_branch_adec
	callchannel Music_MuseumGuy_branch_ade7
	E_ 4
	E_ 4
	E_ 2
	E_ 6
	loopchannel 0, Music_MuseumGuy_branch_add6

Music_MuseumGuy_branch_ade7::
	E_ 2
	E_ 6
	F# 2
	F# 6
	endchannel

Music_MuseumGuy_branch_adec::
	E_ 2
	E_ 6
	D_ 2
	D_ 6
	endchannel


Music_MuseumGuy_Ch1::
	duty 2
	notetype 12, 12, 1
	octave 4
	E_ 2
	D_ 2
	C# 2
	D_ 2
	C# 2
	octave 3
	B_ 2
	A_ 2
	G# 2
	E_ 4
	E_ 1
	G# 1
	B_ 1
	octave 4
	D# 1
	E_ 8
	octave 3
	A_ 2
	octave 4
	C# 2
	E_ 4
	D_ 2
	F# 2
	A_ 4
	octave 3
	A_ 2
	octave 4
	C# 2
	E_ 4
	D_ 2
	C# 2
	octave 3
	B_ 4
	A_ 2
	octave 4
	C# 2
	E_ 4
	D_ 2
	F# 2
	A_ 2
	A_ 2
	G# 2
	E_ 2
	F# 2
	G# 2
	A_ 2
	A_ 2
	A_ 4

Music_MuseumGuy_branch_ae26::
	octave 3
	A_ 2
	octave 4
	C# 2
	E_ 3
	notetype 12, 8, 1
	E_ 1
	notetype 12, 12, 1
	D_ 2
	F# 2
	A_ 3
	notetype 12, 9, 1
	A_ 1
	notetype 12, 12, 1
	octave 3
	A_ 2
	octave 4
	C# 2
	E_ 4
	D_ 1
	C# 1
	C_ 1
	octave 3
	B_ 1
	B_ 3
	notetype 12, 10, 1
	G# 1
	notetype 12, 12, 1
	A_ 2
	octave 4
	C# 2
	E_ 3
	notetype 12, 9, 1
	E_ 1
	notetype 12, 12, 1
	D_ 2
	F# 2
	A_ 3
	notetype 12, 8, 1
	A_ 1
	notetype 12, 12, 1
	G# 2
	E_ 1
	notetype 12, 8, 1
	E_ 1
	notetype 12, 12, 1
	F# 2
	notetype 12, 8, 1
	F# 1
	notetype 12, 12, 1
	G# 1
	A_ 2
	A_ 2
	A_ 4
	loopchannel 0, Music_MuseumGuy_branch_ae26


Music_MuseumGuy_Ch2::
	notetype 12, 1, 0
	rest 16
	octave 4
	E_ 1
	rest 3
	E_ 1
	rest 3
	E_ 1
	rest 9
	callchannel Music_MuseumGuy_branch_aeb8
	A_ 1
	rest 1
	A_ 1
	rest 5
	G# 1
	rest 1
	G# 1
	rest 5
	callchannel Music_MuseumGuy_branch_aeb8
	B_ 1
	rest 3
	G# 1
	rest 3
	A_ 1
	rest 1
	A_ 1
	rest 3

Music_MuseumGuy_branch_ae8e::
	callchannel Music_MuseumGuy_branch_aec1
	rest 3
	octave 6
	E_ 1
	rest 1
	octave 5
	A_ 1
	rest 1
	A_ 1
	rest 3
	B_ 1
	rest 1
	G# 1
	rest 1
	G# 1
	rest 3
	callchannel Music_MuseumGuy_branch_aec1
	rest 1
	octave 6
	E_ 1
	rest 1
	D_ 1
	rest 1
	octave 5
	B_ 1
	rest 1
	A_ 1
	rest 1
	G# 1
	rest 3
	A_ 1
	rest 1
	A_ 1
	rest 3
	loopchannel 0, Music_MuseumGuy_branch_ae8e

Music_MuseumGuy_branch_aeb8::
	A_ 1
	rest 1
	A_ 1
	rest 5
	A_ 1
	rest 1
	A_ 1
	rest 5
	endchannel

Music_MuseumGuy_branch_aec1::
	octave 6
	C# 1
	rest 1
	octave 5
	A_ 1
	rest 1
	A_ 1
	rest 3
	octave 6
	F# 1
	rest 1
	octave 5
	A_ 1
	rest 1
	A_ 1
	endchannel


Music_MuseumGuy_Ch3::
	dspeed 12
	rest 16
	rest 16
	rest 16
	rest 16
	rest 16
	rest 14
	dspeed 6
	mutedsnare4 1
	mutedsnare4 1
	mutedsnare3 1
	mutedsnare3 1

Music_MuseumGuy_branch_aee1::
	mutedsnare2 4
	mutedsnare2 6
	mutedsnare2 2
	mutedsnare2 2
	mutedsnare2 2
	mutedsnare2 4
	mutedsnare2 2
	mutedsnare4 1
	mutedsnare4 1
	mutedsnare2 6
	mutedsnare4 1
	mutedsnare4 1
	mutedsnare2 4
	mutedsnare2 6
	mutedsnare2 2
	mutedsnare3 1
	mutedsnare3 1
	mutedsnare2 2
	mutedsnare2 2
	mutedsnare2 2
	mutedsnare4 1
	mutedsnare4 1
	mutedsnare3 1
	mutedsnare3 1
	mutedsnare2 6
	mutedsnare2 2
	mutedsnare2 4
	mutedsnare2 4
	mutedsnare4 1
	mutedsnare4 1
	mutedsnare2 2
	mutedsnare3 1
	mutedsnare3 1
	mutedsnare2 2
	mutedsnare2 4
	mutedsnare2 4
	mutedsnare2 2
	mutedsnare4 1
	mutedsnare4 1
	mutedsnare3 1
	mutedsnare3 1
	mutedsnare2 2
	mutedsnare2 2
	mutedsnare2 4
	mutedsnare2 2
	mutedsnare4 1
	mutedsnare4 1
	mutedsnare3 1
	mutedsnare3 1
	mutedsnare2 6
	mutedsnare4 1
	mutedsnare4 1
	mutedsnare2 4
	mutedsnare2 4
	mutedsnare4 1
	mutedsnare4 1
	mutedsnare3 1
	mutedsnare3 1
	loopchannel 0, Music_MuseumGuy_branch_aee1
