Music_OaksLab_Ch0::
	tempo 140
	volume 7, 7
	duty 3
	vibrato 16, 1, 2
	toggleperfectpitch
	notetype 12, 11, 3
	octave 2
	B_ 1
	octave 3
	C# 1
	D_ 1
	E_ 1
	F# 1
	G# 1
	A_ 1
	B_ 1

Music_OaksLab_branch_7eed0::
	octave 4
	C# 4
	octave 3
	B_ 2
	octave 4
	C# 2
	octave 3
	A_ 4
	G# 2
	A_ 2
	B_ 1
	rest 3
	A_ 6
	G# 1
	B_ 1
	octave 4
	C# 4
	octave 3
	A_ 4
	G# 2
	A_ 2
	F# 4
	E_ 2
	F# 2
	G# 1
	rest 3
	F# 8
	E_ 4
	A_ 6
	E_ 1
	A_ 1
	octave 4
	D_ 8
	C# 6
	octave 3
	A_ 1
	octave 4
	C# 1
	E_ 8
	D_ 4
	C# 4
	octave 3
	B_ 4
	A_ 4
	G# 1
	rest 3
	E_ 4
	F# 4
	G# 4
	loopchannel 0, Music_OaksLab_branch_7eed0


Music_OaksLab_Ch1::
	duty 3
	vibrato 10, 2, 5
	notetype 12, 12, 4
	octave 3
	G# 1
	A_ 1
	B_ 1
	octave 4
	C# 1
	D_ 1
	E_ 1
	F# 1
	G# 1

Music_OaksLab_branch_7ef16::
	A_ 6
	G# 1
	F# 1
	E_ 6
	D# 1
	E_ 1
	F# 1
	rest 3
	E_ 8
	E_ 4
	F# 6
	E_ 1
	D_ 1
	C# 6
	octave 3
	B_ 1
	octave 4
	C# 1
	D_ 1
	rest 3
	C# 8
	C# 4
	D_ 6
	octave 3
	A_ 1
	octave 4
	D_ 1
	F# 8
	E_ 6
	C# 1
	E_ 1
	A_ 8
	G# 4
	A_ 2
	G# 2
	F# 4
	G# 2
	F# 2
	E_ 1
	rest 1
	octave 3
	G# 1
	rest 1
	A_ 1
	rest 1
	B_ 1
	rest 1
	octave 4
	C# 1
	rest 1
	D_ 1
	rest 1
	E_ 1
	rest 1
	F# 1
	rest 1
	loopchannel 0, Music_OaksLab_branch_7ef16


Music_OaksLab_Ch2::
	notetype 12, 1, 1
	rest 2
	octave 4
	G# 1
	rest 1
	F# 1
	rest 1
	E_ 1
	rest 1

Music_OaksLab_branch_7ef5c::
	C# 1
	rest 1
	A_ 1
	rest 3
	A_ 1
	rest 3
	A_ 1
	rest 1
	E_ 1
	rest 1
	A_ 1
	rest 1
	C# 1
	rest 1
	A_ 1
	rest 3
	A_ 1
	rest 3
	A_ 1
	rest 1
	E_ 1
	rest 1
	A_ 1
	rest 1
	octave 3
	A_ 1
	rest 1
	octave 4
	F# 1
	rest 3
	F# 1
	rest 3
	F# 1
	rest 1
	C# 1
	rest 1
	F# 1
	rest 1
	octave 3
	A_ 1
	rest 1
	octave 4
	F# 1
	rest 3
	F# 1
	rest 3
	F# 1
	rest 1
	C# 1
	rest 1
	F# 1
	rest 1
	D_ 1
	rest 1
	F# 1
	rest 3
	F# 1
	rest 3
	F# 1
	rest 1
	D_ 1
	rest 1
	F# 1
	rest 1
	E_ 1
	rest 1
	A_ 1
	rest 3
	A_ 1
	rest 3
	A_ 1
	rest 1
	E_ 1
	rest 1
	A_ 1
	rest 1
	octave 3
	B_ 1
	rest 1
	octave 4
	G# 1
	rest 3
	G# 1
	rest 1
	D_ 1
	rest 1
	F# 1
	rest 3
	F# 1
	rest 1
	E_ 1
	rest 5
	G# 1
	rest 3
	F# 1
	rest 3
	E_ 1
	rest 1
	C# 1
	rest 1
	A_ 1
	rest 1
	C# 1
	rest 1
	A_ 1
	rest 1
	C# 1
	rest 1
	A_ 1
	rest 1
	E_ 1
	rest 1
	A_ 1
	rest 1
	C# 1
	rest 1
	A_ 1
	rest 1
	C# 1
	rest 1
	A_ 1
	rest 1
	C# 1
	rest 1
	A_ 1
	rest 1
	C# 1
	rest 1
	A_ 1
	rest 1
	octave 3
	A_ 1
	rest 1
	octave 4
	F# 1
	rest 1
	octave 3
	A_ 1
	rest 1
	octave 4
	F# 1
	rest 1
	octave 3
	A_ 1
	rest 1
	octave 4
	F# 1
	rest 1
	C# 1
	rest 1
	F# 1
	rest 1
	octave 3
	A_ 1
	rest 1
	octave 4
	F# 1
	rest 1
	octave 3
	A_ 1
	rest 1
	octave 4
	F# 1
	rest 1
	octave 3
	A_ 1
	rest 1
	octave 4
	F# 1
	rest 1
	C# 1
	rest 1
	F# 1
	rest 1
	D_ 1
	rest 1
	F# 1
	rest 1
	D_ 1
	rest 1
	F# 1
	rest 1
	D_ 1
	rest 1
	F# 1
	rest 1
	D_ 1
	rest 1
	F# 1
	rest 1
	E_ 1
	rest 1
	A_ 1
	rest 1
	E_ 1
	rest 1
	A_ 1
	rest 1
	E_ 1
	rest 1
	A_ 1
	rest 1
	E_ 1
	rest 1
	A_ 1
	rest 1
	octave 3
	B_ 1
	rest 1
	octave 4
	G# 1
	rest 1
	octave 3
	B_ 1
	rest 1
	octave 4
	G# 1
	rest 1
	D_ 1
	rest 1
	F# 1
	rest 1
	D_ 1
	rest 1
	F# 1
	rest 1
	E_ 1
	rest 3
	G# 1
	rest 3
	F# 1
	rest 3
	E_ 1
	rest 3
	loopchannel 0, Music_OaksLab_branch_7ef5c
