Music_Routes3_Ch0::
	tempo 148
	volume 7, 7
	duty 3
	vibrato 6, 3, 4
	toggleperfectpitch
	notetype 12, 11, 5
	octave 3
	E_ 1
	F# 1
	G_ 6
	F_ 1
	G_ 1
	E_ 1
	rest 16
	rest 15

Music_Routes3_branch_9fc3::
	notetype 12, 11, 5
	E_ 6
	D_ 1
	E_ 1
	C_ 4
	E_ 4
	C_ 6
	D_ 1
	E_ 1
	F_ 2
	G_ 2
	G_ 2
	A_ 2
	notetype 12, 10, 7
	A# 8
	F_ 8
	D_ 8
	F_ 8
	notetype 12, 11, 5
	E_ 6
	D_ 1
	E_ 1
	C_ 4
	E_ 4
	C_ 6
	D_ 1
	E_ 1
	F_ 2
	G_ 2
	G_ 2
	A_ 2
	notetype 12, 10, 7
	A# 8
	A# 8
	D_ 8
	F_ 8
	notetype 12, 11, 5
	E_ 4
	E_ 2
	F_ 2
	G_ 4
	F_ 2
	E_ 2
	B_ 2
	octave 2
	G_ 4
	octave 3
	B_ 8
	A_ 2
	notetype 8, 12, 3
	A_ 4
	F_ 4
	A_ 4
	notetype 8, 4, 15
	A_ 12
	notetype 8, 9, 0
	F_ 12
	G_ 12
	loopchannel 0, Music_Routes3_branch_9fc3


Music_Routes3_Ch1::
	vibrato 8, 2, 3
	duty 2
	notetype 12, 12, 7
	octave 3
	G_ 1
	A# 1
	B_ 6
	A_ 1
	B_ 1
	octave 4
	C_ 1
	rest 15
	rest 16

Music_Routes3_branch_a01a::
	notetype 12, 12, 7
	duty 2
	octave 4
	C_ 6
	octave 3
	G_ 1
	octave 4
	C_ 1
	E_ 10
	octave 3
	G_ 2
	octave 4
	C_ 2
	G_ 2
	F_ 2
	E_ 2
	D_ 2
	C_ 2
	D_ 8
	F_ 8
	notetype 12, 12, 5
	duty 3
	octave 3
	A# 8
	A_ 8
	notetype 12, 12, 7
	duty 2
	octave 4
	C_ 6
	octave 3
	G_ 1
	octave 4
	C_ 1
	E_ 10
	octave 3
	G_ 2
	octave 4
	C_ 2
	G_ 2
	F_ 2
	E_ 2
	D_ 2
	C_ 2
	D_ 8
	F_ 8
	notetype 12, 12, 5
	duty 3
	octave 3
	A# 8
	octave 4
	D_ 6
	notetype 12, 12, 7
	duty 2
	C_ 1
	D_ 1
	E_ 2
	D_ 2
	E_ 2
	C_ 8
	octave 3
	B_ 1
	octave 4
	C_ 1
	D_ 2
	octave 3
	G_ 4
	octave 4
	G_ 8
	F_ 1
	E_ 1
	notetype 8, 13, 3
	F_ 4
	E_ 4
	notetype 8, 12, 4
	C_ 4
	notetype 8, 12, 5
	C_ 12
	notetype 12, 10, 0
	duty 3
	octave 3
	A_ 8
	B_ 8
	loopchannel 0, Music_Routes3_branch_a01a


Music_Routes3_Ch2::
	vibrato 4, 1, 0
	notetype 6, 1, 2
	octave 4
	G_ 2
	A# 2
	B_ 8
	A_ 8
	G_ 2
	rest 2
	G_ 7
	rest 1
	G_ 1
	rest 1
	G_ 1
	rest 1
	G_ 2
	rest 2
	G_ 2
	rest 2
	G_ 8
	G_ 2
	rest 2
	G_ 7
	rest 1
	G_ 1
	rest 1
	G_ 1
	rest 1
	G_ 2
	rest 2
	G_ 2
	rest 2
	G_ 8

Music_Routes3_branch_a0a3::
	notetype 12, 1, 2
	E_ 1
	rest 1
	G_ 4
	E_ 1
	E_ 1
	E_ 1
	rest 1
	E_ 1
	rest 1
	G_ 4
	E_ 1
	rest 1
	G_ 4
	E_ 1
	E_ 1
	E_ 1
	rest 1
	E_ 1
	rest 1
	G_ 2
	A_ 2
	F_ 1
	rest 1
	A# 4
	F_ 1
	F_ 1
	F_ 1
	rest 1
	F_ 1
	rest 1
	A# 4
	F_ 1
	rest 1
	A# 4
	F_ 1
	F_ 1
	F_ 1
	rest 1
	F_ 1
	rest 1
	A# 2
	F_ 2
	E_ 1
	rest 1
	G_ 4
	E_ 1
	E_ 1
	E_ 1
	rest 1
	E_ 1
	rest 1
	G_ 4
	E_ 1
	rest 1
	G_ 4
	E_ 1
	E_ 1
	E_ 1
	rest 1
	E_ 1
	rest 1
	G_ 2
	A_ 2
	F_ 1
	rest 1
	A# 4
	F_ 1
	F_ 1
	F_ 1
	rest 1
	F_ 1
	rest 1
	A# 4
	F_ 1
	rest 1
	A# 4
	F_ 1
	F_ 1
	F_ 1
	rest 1
	F_ 1
	rest 1
	A# 2
	A_ 2
	G_ 1
	rest 1
	octave 5
	C_ 4
	octave 4
	G_ 1
	G_ 1
	G_ 1
	rest 1
	G_ 1
	rest 1
	octave 5
	C_ 4
	octave 4
	G_ 1
	rest 1
	octave 5
	D_ 4
	octave 4
	G_ 1
	G_ 1
	G_ 1
	rest 1
	G_ 1
	rest 1
	octave 5
	D_ 4
	octave 4
	F_ 1
	rest 1
	octave 5
	C_ 4
	octave 4
	F_ 1
	F_ 1
	F_ 1
	rest 1
	F_ 1
	rest 1
	octave 5
	C_ 4
	octave 4
	F_ 1
	rest 1
	A_ 4
	F_ 1
	F_ 1
	F_ 1
	rest 1
	F_ 1
	rest 1
	A_ 4
	loopchannel 0, Music_Routes3_branch_a0a3


Music_Routes3_Ch3::
	dspeed 6
	mutedsnare4 1
	mutedsnare4 1
	mutedsnare3 1
	mutedsnare3 1
	mutedsnare2 8
	mutedsnare4 1
	mutedsnare4 1
	mutedsnare4 1
	mutedsnare4 1
	mutedsnare3 1
	mutedsnare4 1
	mutedsnare3 1
	mutedsnare3 1
	mutedsnare2 12
	mutedsnare2 2
	mutedsnare3 2
	mutedsnare2 4
	mutedsnare2 4
	mutedsnare4 1
	mutedsnare4 1
	mutedsnare4 1
	mutedsnare4 1
	mutedsnare3 1
	mutedsnare3 1
	mutedsnare3 1
	mutedsnare3 1
	mutedsnare2 12
	mutedsnare2 2
	mutedsnare3 2
	mutedsnare2 4
	mutedsnare3 4
	mutedsnare2 4
	mutedsnare4 1
	mutedsnare4 1
	mutedsnare3 1
	mutedsnare3 1

Music_Routes3_branch_a17a::
	mutedsnare2 12
	mutedsnare2 2
	mutedsnare3 2
	mutedsnare2 4
	mutedsnare2 4
	mutedsnare4 1
	mutedsnare4 1
	mutedsnare4 1
	mutedsnare4 1
	mutedsnare3 1
	mutedsnare3 1
	mutedsnare3 1
	mutedsnare3 1
	mutedsnare2 12
	mutedsnare2 2
	mutedsnare2 2
	mutedsnare2 4
	mutedsnare2 8
	mutedsnare4 1
	mutedsnare4 1
	mutedsnare3 1
	mutedsnare3 1
	mutedsnare2 12
	mutedsnare2 2
	mutedsnare3 2
	mutedsnare2 4
	mutedsnare2 10
	mutedsnare4 1
	mutedsnare4 1
	mutedsnare2 12
	mutedsnare2 2
	mutedsnare4 2
	mutedsnare2 4
	mutedsnare2 4
	mutedsnare4 1
	mutedsnare4 1
	mutedsnare4 1
	mutedsnare4 1
	mutedsnare3 1
	mutedsnare4 1
	mutedsnare3 1
	mutedsnare3 1
	mutedsnare2 12
	mutedsnare2 2
	mutedsnare2 2
	mutedsnare2 4
	mutedsnare2 8
	mutedsnare4 1
	mutedsnare4 1
	mutedsnare3 1
	mutedsnare3 1
	mutedsnare2 12
	mutedsnare2 2
	mutedsnare2 2
	mutedsnare2 4
	mutedsnare2 10
	mutedsnare4 1
	mutedsnare4 1
	mutedsnare2 12
	mutedsnare2 2
	mutedsnare2 2
	mutedsnare2 4
	mutedsnare2 8
	mutedsnare4 1
	mutedsnare4 1
	mutedsnare3 1
	mutedsnare3 1
	mutedsnare2 12
	mutedsnare2 2
	mutedsnare2 2
	mutedsnare2 4
	mutedsnare2 4
	mutedsnare4 1
	mutedsnare4 1
	mutedsnare4 1
	mutedsnare4 1
	mutedsnare3 1
	mutedsnare3 1
	mutedsnare3 1
	mutedsnare3 1
	mutedsnare2 12
	mutedsnare2 2
	mutedsnare2 2
	mutedsnare2 4
	mutedsnare2 10
	mutedsnare4 1
	mutedsnare4 1
	mutedsnare2 12
	mutedsnare2 2
	mutedsnare2 2
	mutedsnare2 4
	mutedsnare2 8
	mutedsnare3 1
	mutedsnare4 1
	mutedsnare3 1
	mutedsnare4 1
	mutedsnare2 12
	mutedsnare2 2
	mutedsnare2 2
	mutedsnare2 4
	mutedsnare2 8
	mutedsnare4 1
	mutedsnare4 1
	mutedsnare3 1
	mutedsnare3 1
	mutedsnare2 12
	mutedsnare2 2
	mutedsnare2 2
	mutedsnare2 4
	mutedsnare2 4
	mutedsnare4 1
	mutedsnare4 1
	mutedsnare4 1
	mutedsnare4 1
	mutedsnare3 1
	mutedsnare3 1
	mutedsnare3 1
	mutedsnare3 1
	loopchannel 0, Music_Routes3_branch_a17a
