Music_SilphCo_Ch0::
	tempo 160
	volume 7, 7
	duty 3
	toggleperfectpitch
	vibrato 8, 2, 2
	notetype 6, 11, 3
	octave 2
	E_ 1
	F# 1
	G# 1
	A# 1
	octave 3
	C_ 1
	notetype 6, 10, 0
	C_ 12
	notetype 6, 11, 3
	C_ 2
	octave 2
	B_ 1
	A# 1
	G# 1
	F# 1
	E_ 1
	E_ 2
	rest 2
	B_ 2
	rest 6
	B_ 2
	rest 6
	B_ 2
	rest 6
	B_ 2
	rest 2

Music_SilphCo_branch_7f26d::
	G_ 2
	rest 2
	B_ 2
	rest 6
	B_ 2
	rest 6
	A# 2
	rest 6
	B_ 2
	rest 6
	B_ 2
	rest 6
	B_ 2
	rest 2
	octave 3
	C_ 2
	rest 2
	C_ 2
	rest 6
	C_ 2
	rest 6
	C_ 2
	rest 6
	C_ 2
	rest 6
	octave 2
	A# 2
	rest 6
	B_ 2
	rest 2
	G_ 2
	rest 10
	E_ 1
	F# 1
	G# 1
	A_ 1
	notetype 6, 10, 0
	B_ 12
	notetype 6, 11, 3
	B_ 1
	A_ 1
	G_ 1
	F_ 1
	E_ 1
	rest 11
	F_ 1
	G# 1
	A# 1
	B_ 1
	notetype 6, 10, 0
	octave 3
	C_ 12
	notetype 6, 11, 3
	C_ 1
	octave 2
	B_ 1
	A_ 1
	G_ 1
	F_ 1
	rest 11
	F# 1
	B_ 1
	octave 3
	C_ 1
	C# 1
	notetype 6, 10, 0
	D_ 12
	notetype 6, 11, 3
	D_ 1
	C_ 1
	octave 2
	A# 1
	G_ 1
	F_ 1
	rest 11
	F_ 1
	G# 1
	A# 1
	B_ 1
	notetype 6, 10, 0
	octave 3
	C_ 12
	notetype 6, 11, 3
	C_ 1
	octave 2
	B_ 1
	G# 1
	F_ 1
	E_ 1
	rest 7
	notetype 6, 8, 0
	B_ 16
	notetype 6, 11, 0
	octave 3
	E_ 8
	tempo 124
	notetype 6, 11, 3
	octave 2
	B_ 2
	rest 10
	B_ 2
	rest 10
	B_ 2
	rest 6
	B_ 2
	rest 16
	rest 6
	A_ 2
	rest 6
	B_ 2
	A# 2
	B_ 2
	octave 3
	C_ 2
	octave 2
	B_ 2
	A# 2
	B_ 2
	A# 2
	B_ 2
	octave 3
	C_ 2
	octave 2
	B_ 2
	A# 2
	B_ 2
	A# 2
	B_ 2
	octave 3
	C_ 2
	octave 2
	B_ 2
	A# 2
	B_ 2
	octave 3
	C_ 2
	octave 2
	B_ 2
	A# 2
	B_ 2
	octave 3
	C_ 2
	octave 2
	B_ 2
	A# 2
	B_ 2
	A# 2
	A_ 2
	A# 2
	B_ 2
	A# 2
	callchannel Music_SilphCo_branch_7f3f0
	callchannel Music_SilphCo_branch_7f3f0
	callchannel Music_SilphCo_branch_7f3f0
	rest 4
	C_ 2
	rest 6
	C_ 2
	rest 6
	C_ 2
	rest 6
	octave 2
	B_ 2
	rest 6
	B_ 2
	rest 6
	B_ 2
	rest 6
	B_ 2
	rest 6
	A# 2
	rest 6
	A_ 2
	rest 6
	A_ 2
	rest 6
	A_ 2
	rest 6
	A_ 2
	rest 6
	A_ 2
	rest 6
	A_ 2
	rest 6
	A# 2
	rest 6
	A# 2
	rest 6
	B_ 2
	rest 6
	B_ 2
	rest 6
	B_ 2
	rest 6
	B_ 2
	rest 6
	B_ 2
	rest 6
	B_ 2
	rest 6
	octave 3
	C_ 2
	rest 6
	C_ 2
	rest 6
	octave 2
	B_ 2
	rest 6
	B_ 2
	rest 6
	B_ 2
	rest 6
	B_ 2
	rest 6
	octave 3
	B_ 2
	rest 6
	B_ 2
	rest 6
	octave 4
	C_ 2
	rest 6
	C_ 2
	rest 6
	octave 2
	B_ 2
	rest 6
	B_ 2
	rest 6
	B_ 2
	rest 6
	B_ 2
	rest 6
	octave 4
	E_ 2
	rest 6
	E_ 2
	rest 6
	D# 2
	rest 6
	D# 2
	rest 2
	octave 2
	B_ 1
	A# 1
	G# 1
	F# 1
	E_ 1
	notetype 6, 6, 0
	E_ 16
	E_ 11
	notetype 6, 11, 3
	E_ 1
	F# 1
	G# 1
	A# 1
	octave 3
	C_ 1
	notetype 6, 3, 15
	C_ 16
	notetype 6, 10, 0
	C_ 11
	notetype 6, 9, 3
	octave 2
	B_ 1
	A# 1
	G# 1
	F# 1
	E_ 1
	notetype 6, 3, 15
	E_ 16
	notetype 6, 9, 0
	E_ 11
	notetype 6, 11, 3
	F_ 1
	G_ 1
	A# 1
	octave 3
	C_ 1
	D_ 1
	notetype 6, 3, 15
	D_ 16
	notetype 6, 10, 7
	D_ 11
	rest 4
	rest 4
	tempo 128
	rest 4
	rest 4
	tempo 136
	rest 4
	rest 4
	tempo 144
	rest 4
	rest 4
	tempo 160
	rest 4
	rest 4
	tempo 192
	rest 4
	rest 4
	tempo 288
	rest 4
	rest 4
	tempo 416
	rest 4
	tempo 1024
	rest 4
	tempo 160
	rest 4
	notetype 6, 4, 3
	octave 2
	B_ 2
	rest 6
	notetype 6, 6, 3
	B_ 2
	rest 6
	notetype 6, 8, 3
	B_ 2
	rest 6
	notetype 6, 5, 0
	B_ 8
	notetype 6, 11, 3
	B_ 2
	rest 6
	B_ 2
	rest 6
	B_ 2
	rest 6
	B_ 2
	rest 2
	loopchannel 0, Music_SilphCo_branch_7f26d

Music_SilphCo_branch_7f3f0::
	octave 2
	B_ 2
	A# 2
	B_ 2
	octave 3
	C_ 2
	octave 2
	B_ 2
	A# 2
	B_ 2
	octave 3
	C_ 2
	octave 2
	B_ 2
	A# 2
	B_ 2
	octave 3
	C_ 2
	octave 2
	B_ 2
	A# 2
	B_ 2
	octave 3
	C_ 2
	endchannel


Music_SilphCo_Ch1::
	vibrato 10, 3, 2
	duty 3
	notetype 6, 12, 3
	octave 3
	E_ 1
	F# 1
	G# 1
	A# 1
	octave 4
	C_ 1
	notetype 6, 11, 0
	C_ 12
	notetype 6, 12, 3
	C_ 2
	octave 3
	B_ 1
	A# 1
	G# 1
	F# 1
	E_ 1
	E_ 2
	rest 2
	octave 2
	G_ 2
	rest 6
	F# 2
	rest 6
	G_ 2
	rest 6
	G# 2
	rest 2

Music_SilphCo_branch_7f42e::
	E_ 2
	rest 2
	G_ 2
	rest 6
	G_ 2
	rest 6
	G_ 2
	rest 6
	F# 2
	rest 6
	G_ 2
	rest 6
	G# 2
	rest 2
	E_ 2
	rest 2
	G# 2
	rest 6
	G# 2
	rest 6
	G# 2
	rest 6
	G# 2
	rest 6
	G# 2
	rest 6
	G# 2
	rest 2
	notetype 6, 11, 7
	duty 2
	octave 4
	E_ 8
	D# 8
	E_ 8
	F_ 8
	E_ 8
	D# 8
	D_ 8
	D# 8
	E_ 8
	F_ 8
	F# 8
	G_ 8
	G# 8
	D# 8
	D_ 8
	D# 8
	duty 3
	notetype 6, 6, 15
	E_ 16
	notetype 6, 12, 0
	B_ 16
	notetype 6, 12, 4
	octave 3
	E_ 4
	D# 4
	E_ 4
	F_ 4
	E_ 4
	D# 4
	D_ 4
	D# 4
	E_ 4
	F_ 4
	F# 4
	G_ 4
	G# 4
	D# 4
	D_ 4
	D# 4
	notetype 6, 12, 2
	duty 1
	octave 4
	E_ 4
	D# 4
	E_ 4
	F_ 4
	E_ 4
	D# 4
	D_ 4
	D# 4
	E_ 4
	notetype 6, 12, 4
	duty 3
	octave 3
	F_ 4
	F# 4
	G_ 4
	G# 4
	D# 4
	D_ 4
	D# 4
	E_ 4
	D# 4
	E_ 4
	notetype 6, 12, 0
	F_ 8
	notetype 6, 11, 7
	F_ 8
	notetype 6, 8, 10
	F_ 4
	notetype 6, 12, 4
	duty 3
	F_ 4
	E_ 4
	F_ 4
	notetype 6, 10, 0
	F# 8
	notetype 6, 11, 0
	F# 8
	notetype 6, 9, 9
	F# 4
	notetype 6, 12, 4
	F# 4
	F_ 4
	F# 4
	notetype 6, 9, 0
	G_ 12
	notetype 6, 5, 9
	G_ 8
	notetype 6, 12, 4
	G_ 4
	F# 4
	G_ 4
	F# 4
	F_ 4
	F# 4
	F_ 4
	E_ 4
	F_ 4
	E_ 4
	D# 4
	D_ 4
	C# 4
	D_ 4
	D# 4
	D_ 4
	notetype 6, 12, 2
	duty 1
	F_ 4
	F# 4
	G_ 4
	G# 4
	A_ 4
	notetype 6, 11, 4
	duty 3
	D# 4
	D_ 4
	D# 4
	notetype 6, 12, 2
	duty 1
	F_ 4
	F# 4
	G_ 4
	G# 4
	A# 4
	notetype 6, 11, 4
	duty 3
	D# 4
	D_ 4
	D# 4
	notetype 6, 12, 2
	duty 1
	F_ 4
	F# 4
	G_ 4
	G# 4
	B_ 4
	notetype 6, 11, 4
	duty 3
	D# 4
	D_ 4
	D# 4
	notetype 6, 12, 2
	duty 1
	F_ 4
	F# 4
	G_ 4
	G# 4
	octave 4
	C_ 4
	notetype 6, 11, 4
	duty 3
	octave 3
	D# 4
	D_ 4
	D# 4
	rest 4
	G_ 2
	rest 6
	G_ 2
	rest 6
	G_ 2
	rest 6
	G_ 2
	rest 2
	duty 0
	octave 4
	E_ 2
	rest 2
	G# 2
	rest 6
	G# 2
	rest 6
	G# 2
	rest 6
	G# 2
	rest 6
	duty 3
	octave 3
	G_ 2
	rest 6
	G_ 2
	rest 6
	G_ 2
	rest 6
	G_ 2
	rest 2
	duty 0
	octave 4
	E_ 2
	rest 2
	B_ 2
	rest 6
	B_ 2
	rest 6
	B_ 2
	rest 6
	B_ 2
	rest 2
	duty 3
	octave 3
	G_ 2
	rest 2
	G_ 2
	rest 2
	B_ 2
	rest 2
	G_ 2
	rest 2
	B_ 2
	rest 2
	G_ 2
	rest 2
	B_ 2
	rest 2
	G_ 2
	rest 2
	octave 4
	C_ 2
	rest 2
	octave 3
	G_ 2
	rest 2
	octave 4
	C_ 2
	rest 2
	octave 3
	G_ 2
	rest 2
	octave 4
	C_ 2
	rest 2
	octave 3
	G_ 2
	rest 2
	octave 4
	C_ 2
	rest 2
	octave 3
	G_ 2
	rest 2
	B_ 2
	rest 2
	G_ 2
	rest 2
	B_ 2
	rest 2
	G_ 2
	rest 2
	B_ 2
	rest 2
	G_ 2
	rest 2
	E_ 2
	rest 2
	G_ 2
	rest 2
	octave 4
	C_ 2
	rest 2
	octave 3
	G_ 2
	rest 2
	E_ 2
	rest 2
	G_ 2
	rest 2
	B_ 2
	rest 2
	G_ 2
	rest 2
	octave 4
	C_ 2
	rest 2
	octave 3
	G_ 2
	rest 2
	notetype 6, 8, 7
	octave 5
	E_ 4
	D# 4
	E_ 4
	F_ 4
	E_ 4
	D# 4
	D_ 4
	D# 4
	E_ 4
	F_ 4
	F# 4
	G_ 4
	G# 4
	D# 4
	D_ 4
	D# 4
	rest 4
	notetype 6, 4, 3
	octave 2
	G_ 2
	rest 6
	notetype 6, 6, 3
	F# 2
	rest 6
	notetype 6, 8, 3
	G_ 2
	rest 6
	notetype 6, 4, 15
	G# 8
	notetype 6, 11, 4
	G_ 2
	rest 6
	F# 2
	rest 6
	G_ 2
	rest 6
	G# 2
	rest 2
	loopchannel 0, Music_SilphCo_branch_7f42e


Music_SilphCo_Ch2::
	vibrato 8, 1, 1
	notetype 12, 1, 1
	rest 12
	octave 5
	E_ 4
	D# 4
	E_ 4
	F_ 4

Music_SilphCo_branch_7f5c9::
	E_ 4
	D# 4
	D_ 4
	D# 4
	E_ 4
	F_ 4
	F# 4
	G_ 4
	G# 4
	D# 4
	D_ 4
	D# 4
	E_ 1
	rest 1
	G_ 1
	rest 3
	F# 1
	rest 3
	G_ 1
	rest 3
	G# 1
	rest 1
	E_ 1
	rest 1
	G_ 1
	rest 3
	G# 1
	rest 3
	G_ 1
	rest 3
	F# 1
	rest 3
	G_ 1
	rest 3
	G# 1
	rest 1
	F_ 1
	rest 1
	G# 1
	rest 3
	G# 1
	rest 3
	G_ 1
	rest 3
	G# 1
	rest 1
	E_ 1
	rest 1
	G# 1
	rest 3
	G_ 1
	rest 3
	G_ 1
	rest 3
	G_ 1
	rest 3
	G_ 1
	rest 3
	G_ 1
	rest 1
	octave 4
	E_ 1
	rest 5
	F_ 1
	rest 5
	F_ 1
	rest 3
	E_ 1
	rest 11
	D# 1
	rest 3
	E_ 1
	rest 5
	F_ 1
	rest 5
	F_ 1
	rest 3
	E_ 1
	rest 11
	D# 1
	rest 3
	E_ 1
	rest 1
	F_ 1
	rest 3
	F_ 1
	rest 3
	F_ 1
	rest 3
	F_ 1
	rest 1
	F_ 1
	rest 1
	F# 1
	rest 3
	F# 1
	rest 3
	F# 1
	rest 3
	F# 1
	rest 1
	F# 1
	rest 1
	G_ 1
	rest 3
	G_ 1
	rest 3
	G_ 1
	rest 3
	G_ 1
	rest 3
	G_ 1
	rest 3
	F# 1
	rest 3
	F_ 1
	rest 3
	E_ 1
	rest 3
	F_ 1
	rest 3
	E_ 1
	rest 3
	D# 1
	rest 3
	D_ 1
	rest 1
	D_ 8
	F_ 8
	D_ 8
	F# 8
	D_ 8
	G_ 8
	D_ 8
	A_ 8
	E_ 4
	D# 4
	E_ 4
	F_ 4
	octave 5
	E_ 2
	D# 2
	E_ 2
	F_ 2
	E_ 2
	D# 2
	D_ 2
	D# 2
	octave 4
	E_ 4
	D# 4
	E_ 4
	F_ 4
	octave 5
	E_ 2
	F_ 2
	F# 2
	G_ 2
	G# 2
	D# 2
	D_ 2
	D# 2
	octave 6
	E_ 4
	D# 4
	E_ 4
	F_ 4
	E_ 4
	D# 4
	D_ 4
	D# 4
	E_ 4
	F_ 4
	F# 4
	G_ 4
	G# 4
	D# 4
	D_ 4
	D# 4
	notetype 6, 1, 1
	rest 4
	rest 4
	rest 4
	rest 4
	rest 4
	rest 4
	rest 4
	rest 4
	rest 4
	rest 4
	rest 4
	rest 4
	rest 4
	rest 4
	rest 4
	rest 4
	notetype 12, 1, 1
	rest 4
	rest 4
	rest 4
	rest 4
	octave 5
	E_ 4
	D# 4
	E_ 4
	F_ 4
	loopchannel 0, Music_SilphCo_branch_7f5c9
