Music_SSAnne_Ch0::
	tempo 128
	volume 7, 7
	duty 1
	vibrato 8, 3, 4
	toggleperfectpitch

Music_SSAnne_branch_b3b2::
	notetype 12, 10, 4
	rest 12
	octave 3
	E_ 2
	F# 2
	E_ 4
	D_ 4
	C# 2
	D_ 2
	E_ 2
	rest 2
	E_ 4
	F# 2
	D_ 2
	E_ 4
	F# 4
	G# 4
	rest 4
	E_ 4
	G# 4
	rest 4
	C# 2
	E_ 2
	F# 4
	D_ 4
	E_ 4
	D_ 4
	C# 2
	D_ 2
	E_ 2
	rest 2
	E_ 4
	F# 2
	D_ 2
	E_ 4
	F# 4
	G# 4
	F# 4
	E_ 4
	F# 4
	rest 4
	C# 2
	E_ 2
	F# 4
	D_ 4
	E_ 4
	D_ 4
	C# 2
	D_ 2
	E_ 2
	rest 2
	E_ 4
	F# 2
	D_ 2
	E_ 4
	F# 4
	G# 4
	F# 8
	G# 4
	E_ 4
	rest 4
	E_ 4
	F# 2
	E_ 2
	D_ 4
	rest 4
	D_ 4
	E_ 4
	C# 4
	rest 4
	C# 4
	D_ 2
	C# 2
	octave 2
	B_ 4
	E_ 4
	B_ 4
	octave 3
	D_ 2
	octave 2
	B_ 2
	A_ 4
	rest 4
	A_ 4
	B_ 2
	A_ 2
	G# 4
	rest 4
	C# 4
	G# 4
	A_ 4
	rest 4
	A_ 4
	B_ 4
	B_ 4
	rest 4
	octave 3
	D_ 8
	loopchannel 0, Music_SSAnne_branch_b3b2


Music_SSAnne_Ch1::
	duty 0
	vibrato 12, 2, 4

Music_SSAnne_branch_b41e::
	notetype 12, 12, 5
	octave 3
	A_ 2
	E_ 2
	A_ 4
	B_ 4
	octave 4
	D_ 4
	notetype 8, 12, 5
	C# 2
	D_ 2
	C# 2
	octave 3
	B_ 3
	A_ 3
	B_ 6
	G# 6
	A_ 3
	B_ 3
	octave 4
	C# 6
	D_ 6
	C# 3
	octave 3
	B_ 3
	octave 4
	E_ 6
	D_ 3
	C# 3
	octave 3
	B_ 6
	octave 4
	C# 3
	octave 3
	B_ 3
	A_ 3
	E_ 3
	A_ 6
	B_ 6
	octave 4
	D_ 6
	C# 2
	D_ 2
	C# 2
	octave 3
	B_ 3
	A_ 3
	B_ 6
	G# 6
	A_ 3
	B_ 3
	octave 4
	C# 6
	D_ 6
	C# 3
	octave 3
	B_ 3
	octave 4
	E_ 6
	D_ 3
	C# 3
	octave 3
	B_ 12
	A_ 3
	E_ 3
	A_ 6
	B_ 6
	octave 4
	D_ 6
	C# 2
	D_ 2
	C# 2
	octave 3
	B_ 3
	A_ 3
	B_ 6
	G# 6
	A_ 3
	B_ 3
	octave 4
	C# 6
	D_ 6
	C# 3
	octave 3
	B_ 3
	octave 4
	E_ 6
	D_ 3
	C# 3
	octave 3
	B_ 12
	rest 3
	octave 4
	C# 3
	octave 3
	B_ 3
	octave 4
	C# 3
	C# 3
	D_ 3
	C# 3
	D_ 3
	E_ 3
	octave 3
	B_ 3
	G# 3
	F# 3
	E_ 3
	F# 3
	G# 3
	B_ 3
	rest 3
	A_ 3
	G# 3
	A_ 3
	A_ 3
	B_ 3
	A_ 3
	B_ 3
	octave 4
	C# 3
	octave 3
	G# 3
	F# 3
	E_ 3
	E_ 3
	F# 3
	G# 3
	B_ 3
	rest 3
	F# 3
	E_ 3
	F# 3
	F# 3
	G# 3
	F# 3
	G# 3
	A_ 3
	E_ 3
	C# 3
	octave 2
	B_ 3
	A_ 3
	B_ 3
	octave 3
	C# 3
	E_ 3
	rest 3
	F# 3
	E_ 3
	F# 3
	F# 3
	G# 3
	A_ 3
	B_ 3
	octave 4
	C# 3
	D_ 3
	C# 3
	octave 3
	B_ 3
	octave 4
	E_ 3
	D_ 3
	C# 3
	octave 3
	B_ 3
	loopchannel 0, Music_SSAnne_branch_b41e


Music_SSAnne_Ch2::
	notetype 12, 1, 3
	rest 16
	rest 12
	octave 4
	B_ 2
	G# 2
	A_ 8
	F# 8
	G# 4
	rest 4
	B_ 8
	A_ 8
	B_ 8
	A_ 8
	G# 8
	A_ 8
	F# 8
	G# 8
	B_ 8
	A_ 4
	E_ 4
	B_ 4
	E_ 4
	A_ 4
	E_ 4
	G# 4
	E_ 4
	A_ 4
	E_ 4
	F# 4
	G_ 4
	G# 4
	A_ 4
	octave 5
	D_ 8
	C# 8
	C# 8
	octave 4
	B_ 8
	B_ 8
	A_ 8
	A_ 8
	G# 8
	G# 8
	F# 8
	F# 8
	E_ 8
	E_ 8
	F# 8
	F# 8
	G# 8
	B_ 8
	loopchannel 0, Music_SSAnne_Ch2
