Music_Vermilion_Ch0::
	tempo 156
	volume 7, 7
	duty 3
	vibrato 12, 3, 4
	toggleperfectpitch

Music_Vermilion_branch_b9f6::
	notetype 12, 11, 5
	octave 3
	E_ 4
	C# 1
	D_ 1
	E_ 2
	A_ 4
	B_ 2
	A_ 2
	G# 2
	F# 2
	E_ 2
	F# 2
	A_ 4
	F# 1
	G# 1
	A_ 2
	E_ 4
	C# 2
	E_ 2
	A_ 2
	G# 2
	B_ 2
	A_ 2
	G# 2
	E_ 2
	F# 2
	G# 2
	C# 2
	D_ 2
	E_ 2
	F# 2
	E_ 4
	C# 1
	D_ 1
	E_ 2
	A_ 4
	B_ 2
	A_ 2
	G# 2
	F# 2
	E_ 2
	F# 2
	A_ 4
	F# 1
	G# 1
	A_ 2
	E_ 4
	C# 1
	D_ 1
	E_ 2
	A_ 2
	G# 2
	F# 2
	A_ 2
	G# 2
	E_ 2
	F# 2
	G# 2
	F# 4
	E_ 4
	F# 2
	G# 2
	F# 2
	A_ 2
	G# 2
	B_ 2
	A_ 2
	octave 4
	C# 2
	D_ 2
	C# 2
	octave 3
	B_ 2
	A_ 2
	G# 1
	A_ 1
	B_ 2
	octave 4
	C# 2
	E_ 2
	octave 3
	A_ 2
	octave 4
	D_ 2
	octave 3
	G# 2
	octave 4
	C# 2
	octave 3
	F# 2
	B_ 2
	G# 2
	A_ 2
	B_ 2
	A_ 2
	G# 2
	F# 2
	E_ 2
	F# 2
	G# 2
	B_ 2
	loopchannel 0, Music_Vermilion_branch_b9f6


Music_Vermilion_Ch1::
	duty 3
	vibrato 10, 2, 3

Music_Vermilion_branch_ba66::
	notetype 12, 12, 7
	octave 3
	A_ 8
	octave 4
	D_ 4
	C# 4
	octave 3
	B_ 6
	A_ 1
	B_ 1
	octave 4
	C# 8
	octave 3
	A_ 8
	octave 4
	D_ 4
	C# 4
	octave 3
	B_ 6
	octave 4
	C# 1
	octave 3
	B_ 1
	A_ 8
	A_ 8
	octave 4
	D_ 4
	C# 4
	octave 3
	B_ 6
	A_ 1
	B_ 1
	octave 4
	C# 8
	octave 3
	A_ 8
	octave 4
	D_ 4
	C# 4
	octave 3
	B_ 6
	octave 4
	C# 1
	octave 3
	B_ 1
	A_ 8
	B_ 4
	octave 4
	C# 4
	D_ 4
	E_ 4
	F# 8
	B_ 8
	A_ 4
	G# 4
	F# 4
	E_ 4
	F# 8
	E_ 8
	loopchannel 0, Music_Vermilion_branch_ba66


Music_Vermilion_Ch2::
	notetype 12, 1, 0

Music_Vermilion_branch_baa8::
	octave 4
	A_ 2
	E_ 2
	A_ 2
	E_ 2
	A_ 2
	E_ 2
	A_ 2
	E_ 2
	G# 2
	E_ 2
	G# 2
	E_ 2
	A_ 2
	G# 2
	F# 2
	E_ 2
	A_ 2
	E_ 2
	A_ 2
	E_ 2
	A_ 2
	E_ 2
	A_ 2
	E_ 2
	G# 2
	E_ 2
	G# 2
	E_ 2
	A_ 2
	G# 2
	F# 2
	G# 2
	A_ 2
	E_ 2
	A_ 2
	E_ 2
	A_ 2
	E_ 2
	A_ 2
	E_ 2
	G# 2
	E_ 2
	G# 2
	E_ 2
	A_ 2
	E_ 2
	A_ 2
	E_ 2
	A_ 2
	E_ 2
	A_ 2
	E_ 2
	A_ 2
	E_ 2
	A_ 2
	E_ 2
	G# 2
	E_ 2
	G# 2
	E_ 2
	A_ 2
	E_ 2
	A_ 2
	E_ 2
	B_ 2
	E_ 2
	A_ 2
	E_ 2
	G# 2
	E_ 2
	F# 2
	E_ 2
	G# 2
	E_ 2
	G# 2
	E_ 2
	B_ 2
	A_ 2
	G# 2
	F# 2
	F# 2
	E_ 2
	G# 2
	E_ 2
	A_ 2
	E_ 2
	B_ 2
	E_ 2
	B_ 2
	E_ 2
	B_ 2
	E_ 2
	A_ 2
	E_ 2
	G# 2
	E_ 2
	loopchannel 0, Music_Vermilion_branch_baa8


Music_Vermilion_Ch3::
	dspeed 12

Music_Vermilion_branch_bb0e::
	callchannel Music_Vermilion_branch_bb3f
	triangle1 2
	triangle1 1
	triangle1 1
	triangle1 2
	triangle1 1
	triangle1 1
	triangle1 2
	triangle1 1
	triangle1 1
	triangle1 1
	triangle1 1
	triangle1 1
	triangle1 1
	loopchannel 4, Music_Vermilion_branch_bb0e
	callchannel Music_Vermilion_branch_bb3f
	callchannel Music_Vermilion_branch_bb3f
	callchannel Music_Vermilion_branch_bb3f
	callchannel Music_Vermilion_branch_bb3f
	loopchannel 0, Music_Vermilion_branch_bb0e

Music_Vermilion_branch_bb3f::
	triangle1 2
	triangle1 1
	triangle1 1
	triangle1 2
	triangle1 1
	triangle1 1
	triangle1 2
	triangle1 1
	triangle1 1
	triangle1 2
	triangle1 1
	triangle1 1
	endchannel
