Music_WildBattle_Ch0::
	tempo 104
	volume 7, 7
	duty 3
	vibrato 6, 3, 4
	toggleperfectpitch
	notetype 12, 11, 3
	octave 4
	C_ 1
	octave 3
	B_ 1
	A# 1
	A_ 1
	A# 1
	A_ 1
	G# 1
	G_ 1
	G# 1
	G_ 1
	F# 1
	F_ 1
	F# 1
	F_ 1
	E_ 1
	D# 1
	E_ 1
	D# 1
	D_ 1
	C# 1
	D_ 1
	C# 1
	C_ 1
	octave 2
	B_ 1
	octave 3
	C_ 1
	octave 2
	B_ 1
	A# 1
	A_ 1
	A# 1
	B_ 1
	octave 3
	C_ 1
	C# 1
	notetype 12, 11, 1
	G_ 6
	E_ 6
	D# 12
	C# 14
	E_ 6
	D# 10
	notetype 12, 4, 15
	C# 10
	notetype 12, 11, 1
	G_ 6
	E_ 6
	D# 12
	C# 14
	E_ 6
	D# 10
	C# 10

Music_WildBattle_branch_230e0::
	notetype 12, 11, 3
	C# 1
	D_ 1
	C# 1
	C_ 1
	C# 1
	D_ 1
	C# 1
	C_ 1
	C# 1
	D_ 1
	D# 1
	D_ 1
	C# 1
	C_ 1
	octave 2
	B_ 1
	octave 3
	C_ 1
	C# 1
	D_ 1
	D# 1
	D_ 1
	C# 1
	D_ 1
	D# 1
	D_ 1
	C# 1
	D_ 1
	D# 1
	E_ 1
	F_ 1
	E_ 1
	D# 1
	D_ 1
	C# 1
	D_ 1
	D# 1
	E_ 1
	F_ 1
	F# 1
	G_ 1
	G# 1
	A_ 1
	G# 1
	G_ 1
	F# 1
	F_ 1
	E_ 1
	D# 1
	D_ 1
	C# 1
	D_ 1
	D# 1
	E_ 1
	F_ 1
	F# 1
	G_ 1
	F# 1
	F_ 1
	E_ 1
	D# 1
	E_ 1
	F_ 1
	F# 1
	G_ 1
	G# 1
	A_ 1
	D_ 1
	D# 1
	E_ 1
	D# 1
	D_ 1
	C# 1
	D_ 1
	D# 1
	E_ 1
	D# 1
	D_ 1
	C# 1
	D_ 1
	D# 1
	E_ 1
	D# 1
	D_ 1
	C# 1
	D_ 1
	D# 1
	E_ 1
	D# 1
	D_ 1
	C# 1
	D_ 1
	D# 1
	E_ 1
	F_ 1
	F# 1
	F_ 1
	E_ 1
	D# 1
	D_ 1
	D# 1
	E_ 1
	D# 1
	D_ 1
	C# 1
	D_ 1
	D# 1
	E_ 1
	D# 1
	D_ 1
	C# 1
	D_ 1
	D# 1
	E_ 1
	D# 1
	D_ 1
	C# 1
	D_ 1
	D# 1
	E_ 1
	D# 1
	D_ 1
	C# 1
	D_ 1
	D# 1
	E_ 1
	F_ 1
	F# 1
	F_ 1
	E_ 1
	C# 1
	D_ 1
	D# 1
	E_ 1
	F_ 1
	F# 1
	G_ 1
	G# 1
	A_ 1
	G# 1
	G_ 1
	F# 1
	F_ 1
	E_ 1
	D# 1
	D_ 1
	C# 1
	D_ 1
	D# 1
	E_ 1
	F_ 1
	F# 1
	G_ 1
	G# 1
	A_ 1
	G# 1
	G_ 1
	F# 1
	F_ 1
	E_ 1
	D# 1
	D_ 1
	C# 1
	D_ 1
	D# 1
	E_ 1
	F_ 1
	F# 1
	G_ 1
	G# 1
	A_ 1
	G# 1
	G_ 1
	F# 1
	F_ 1
	E_ 1
	D# 1
	D_ 1
	C# 1
	D_ 1
	D# 1
	E_ 1
	F_ 1
	F# 1
	G_ 1
	F# 1
	F_ 1
	E_ 1
	D# 1
	E_ 1
	F_ 1
	F# 1
	G_ 1
	G# 1
	notetype 12, 11, 5
	D_ 4
	C_ 4
	D_ 4
	F_ 4
	E_ 6
	D_ 6
	F_ 4
	notetype 12, 11, 7
	A_ 16
	G_ 16
	notetype 12, 11, 5
	D_ 4
	C_ 4
	D_ 4
	F_ 4
	G_ 6
	A_ 6
	B_ 4
	notetype 12, 11, 7
	octave 4
	C_ 16
	notetype 12, 3, 15
	G_ 16
	notetype 12, 11, 5
	octave 3
	C_ 12
	C_ 2
	rest 2
	D_ 2
	C_ 2
	rest 12
	C# 12
	C# 2
	rest 2
	F_ 2
	notetype 12, 10, 3
	D# 6
	notetype 12, 10, 7
	C# 8
	loopchannel 0, Music_WildBattle_branch_230e0


Music_WildBattle_Ch1::
	duty 3
	vibrato 8, 2, 5
	notetype 12, 12, 3
	octave 4
	G_ 1
	F# 1
	F_ 1
	octave 5
	G_ 1
	octave 4
	G_ 1
	F# 1
	F_ 1
	octave 5
	G_ 1
	octave 4
	G_ 1
	F# 1
	F_ 1
	octave 5
	G_ 1
	octave 4
	G_ 1
	F# 1
	F_ 1
	octave 5
	G_ 1
	octave 4
	G_ 1
	F# 1
	F_ 1
	octave 5
	G_ 1
	octave 4
	G_ 1
	F# 1
	F_ 1
	octave 5
	G_ 1
	octave 4
	G_ 1
	F# 1
	F_ 1
	octave 5
	G_ 1
	octave 4
	G_ 1
	F# 1
	F_ 1
	octave 5
	G_ 1
	notetype 12, 12, 2
	octave 4
	G_ 6
	octave 3
	G_ 6
	G_ 12
	G_ 14
	G_ 6
	G_ 10
	notetype 12, 9, 0
	F# 10
	notetype 12, 12, 2
	G_ 6
	G_ 6
	G_ 12
	G_ 14
	G_ 6
	G_ 10
	G_ 10

Music_WildBattle_branch_23225::
	notetype 12, 12, 5
	G_ 6
	F# 6
	E_ 4
	G_ 6
	A_ 6
	G_ 4
	octave 4
	G# 12
	G_ 2
	rest 2
	G# 2
	G_ 2
	rest 4
	notetype 12, 11, 7
	octave 5
	C# 8
	notetype 12, 12, 5
	octave 4
	C_ 6
	octave 3
	A# 6
	G# 4
	octave 4
	C# 6
	C_ 6
	octave 3
	A# 4
	octave 4
	F_ 6
	E_ 6
	D_ 4
	notetype 12, 12, 7
	octave 3
	A# 4
	octave 4
	C_ 4
	D_ 4
	F_ 4
	notetype 12, 12, 0
	G# 16
	notetype 12, 11, 0
	G# 16
	notetype 12, 4, 14
	G_ 16
	notetype 12, 12, 7
	G_ 16
	octave 3
	F_ 8
	A# 8
	octave 4
	D_ 8
	F_ 8
	notetype 12, 12, 0
	E_ 16
	notetype 12, 12, 7
	E_ 16
	octave 3
	F_ 8
	A# 8
	octave 4
	D_ 8
	F_ 8
	notetype 12, 12, 0
	G_ 16
	notetype 12, 3, 15
	octave 5
	C_ 16
	notetype 12, 12, 5
	octave 4
	E_ 12
	E_ 2
	rest 2
	F_ 2
	notetype 12, 12, 1
	E_ 4
	notetype 12, 12, 5
	rest 10
	F_ 12
	F_ 2
	rest 2
	G# 2
	notetype 12, 10, 3
	G_ 6
	notetype 12, 12, 7
	F_ 8
	loopchannel 0, Music_WildBattle_branch_23225


Music_WildBattle_Ch2::
	vibrato 0, 2, 0
	notetype 12, 1, 1
	octave 4
	C# 1
	rest 1
	C# 1
	C_ 1
	D_ 1
	rest 1
	D_ 1
	C_ 1
	D# 1
	rest 1
	D# 1
	C_ 1
	E_ 1
	rest 1
	E_ 1
	C_ 1
	F_ 1
	rest 1
	F_ 1
	C_ 1
	F# 1
	rest 1
	F# 1
	C_ 1
	G_ 1
	rest 1
	G_ 1
	C_ 1
	octave 3
	A# 2
	B_ 2

Music_WildBattle_branch_232b5::
	octave 4
	C_ 2
	G_ 2
	C_ 2
	G_ 2
	C_ 2
	G_ 2
	C_ 2
	G_ 2
	C_ 2
	G_ 2
	C_ 2
	G_ 2
	C_ 2
	G_ 2
	C_ 2
	G_ 2
	C# 2
	G# 2
	C# 4
	G# 2
	A# 2
	G# 2
	G_ 2
	C# 2
	G# 2
	C# 4
	G# 2
	A# 2
	G# 2
	F_ 2
	loopchannel 2, Music_WildBattle_branch_232b5

Music_WildBattle_branch_232d8::
	C_ 2
	G_ 2
	C_ 2
	G_ 2
	C_ 2
	G_ 2
	C_ 2
	G_ 2
	C_ 2
	G_ 2
	C_ 2
	G_ 2
	C_ 2
	G_ 2
	C_ 2
	G_ 2
	G# 12
	G_ 2
	rest 2
	G# 2
	G_ 2
	rest 4
	F_ 2
	E_ 2
	D_ 2
	C# 2
	C_ 2
	G_ 2
	C_ 2
	G_ 2
	C_ 2
	G_ 2
	C_ 2
	G_ 2
	C_ 2
	G_ 2
	C_ 2
	G_ 2
	C_ 2
	G_ 2
	C_ 2
	G_ 2
	C_ 2
	G_ 2
	C_ 2
	G_ 2
	C_ 2
	G_ 2
	C_ 2
	G_ 2
	C_ 2
	G_ 2
	C_ 2
	G_ 2
	C_ 2
	G_ 2
	C_ 2
	G_ 2
	C# 2
	G# 2
	C# 2
	G# 2
	C# 2
	G# 2
	C# 2
	G# 2
	C# 2
	G# 2
	C# 2
	G# 2
	C# 2
	G# 2
	C# 2
	G# 2
	C_ 2
	G_ 2
	C_ 2
	G_ 2
	C_ 2
	G_ 2
	C_ 2
	G_ 2
	C_ 2
	G_ 2
	C_ 2
	G_ 2
	C_ 2
	G_ 2
	C_ 2
	G_ 2
	octave 3
	A# 2
	octave 4
	F_ 2
	octave 3
	A# 2
	octave 4
	F_ 2
	octave 3
	A# 2
	octave 4
	F_ 2
	octave 3
	A# 2
	octave 4
	F_ 2
	octave 3
	A# 2
	octave 4
	F_ 2
	octave 3
	A# 2
	octave 4
	F_ 2
	octave 3
	A# 2
	octave 4
	F_ 2
	octave 3
	A# 2
	octave 4
	F_ 2
	C_ 2
	G_ 2
	C_ 2
	G_ 2
	C_ 2
	G_ 2
	C_ 2
	G_ 2
	C_ 2
	G_ 2
	C_ 2
	G_ 2
	C_ 2
	G_ 2
	C_ 2
	G_ 2
	C_ 2
	F_ 2
	C_ 2
	F_ 2
	C_ 2
	F_ 2
	C_ 2
	F_ 2
	C_ 2
	F_ 2
	C_ 2
	F_ 2
	C_ 2
	F_ 2
	C_ 2
	F_ 2
	C_ 2
	G_ 2
	C_ 2
	G_ 2
	C_ 2
	G_ 2
	C_ 2
	G_ 2
	C_ 2
	G_ 2
	C_ 2
	G_ 2
	C_ 2
	G_ 2
	C_ 2
	G_ 2
	C_ 2
	G_ 2
	C_ 2
	G_ 2
	C_ 2
	G_ 2
	C_ 2
	G_ 2
	C_ 2
	G_ 2
	C_ 2
	G_ 2
	C_ 2
	G_ 2
	C_ 2
	G_ 2
	C# 2
	G# 2
	C# 2
	G# 2
	C# 2
	G# 2
	C# 2
	G# 2
	C# 2
	G# 2
	C# 2
	G# 2
	C# 2
	G# 2
	C# 2
	G# 2
	loopchannel 0, Music_WildBattle_branch_232d8
