Music_Pinballbluefield: ; 40cbb
	dbw $c0, Music_Pinballbluefield_Ch1
	dbw $01, Music_Pinballbluefield_Ch2
	dbw $02, Music_Pinballbluefield_Ch3
	dbw $03, Music_Pinballbluefield_Ch4
; 40cc7

Music_Pinballbluefield_Ch1: ; 40cc7
	tempo 144
	volume $77
	vibrato $9, $34
	tone $0001
	notetype $8, $a2
	dutycycle $3
	octave 3
	note A_, 4
	intensity $a1
	note C_, 2
	note F_, 2
	note A_, 2
	intensity $a3
	note A_, 7
	note __, 1
	intensity $a1
	note C_, 2
	note F#, 2
	note A_, 2
	intensity $a2
	note B_, 4
	intensity $a1
	note A#, 2
	note A_, 2
	note __, 2
	note D_, 2
	note __, 12
Music_Pinballbluefield_branch_40cf1: ; 40cf1
	notetype $8, $61
	dutycycle $2
	note __, 12
	note __, 12
	note __, 10
	note A#, 2
	note __, 4
	intensity $91
	note G_, 2
	intensity $a1
	note A#, 2
	note __, 2
	intensity $c1
	note A#, 2
	notetype $c, $b3
	note __, 16
	notetype $8, $a2
	dutycycle $3
	note B_, 2
	note __, 2
	octave 4
	note D_, 2
	octave 3
	note B_, 2
	note __, 2
	note G_, 2
	note __, 6
	note D_, 2
	note F_, 2
	note G_, 2
	note F#, 1
	note G_, 5
	note __, 4
	note E_, 6
	note __, 8
	note A_, 1
	note A#, 5
	note __, 4
	note A#, 2
	note __, 4
	intensity $91
	dutycycle $2
	octave 5
	note G_, 2
	note A_, 2
	note __, 2
	note A#, 2
	intensity $a2
	dutycycle $3
	octave 3
	note G#, 1
	note A_, 2
	note __, 1
	note A_, 2
	note A_, 2
	note __, 2
	note F_, 2
	note __, 4
	note F_, 2
	note __, 4
	note A_, 2
	note B_, 2
	note __, 2
	note D_, 2
	note G_, 2
	note __, 2
	note B_, 2
	note __, 12
	intensity $91
	dutycycle $2
	note __, 12
	note __, 4
	octave 5
	note C_, 2
	note __, 6
	note __, 12
	note __, 4
	octave 4
	note B_, 2
	note __, 6
	note __, 12
	note __, 4
	note B_, 2
	note __, 6
	note __, 4
	note G_, 1
	note __, 11
	note G_, 2
	note __, 6
	note __, 12
	note __, 4
	note F_, 2
	note __, 6
	note __, 12
	note __, 4
	note F_, 2
	note __, 6
	intensity $41
	octave 3
	note G_, 2
	note B_, 2
	note G_, 2
	note B_, 2
	intensity $51
	note G_, 2
	intensity $61
	note B_, 2
	note __, 4
	intensity $91
	octave 4
	note G_, 2
	note __, 6
	intensity $a2
	dutycycle $3
	octave 3
	note F#, 1
	note G_, 4
	note __, 1
	note E_, 4
	note __, 2
	note A#, 4
	note __, 2
	octave 4
	note C#, 2
	note __, 2
	note D#, 1
	note E_, 5
	intensity $91
	dutycycle $2
	note __, 2
	octave 5
	note C_, 2
	note __, 2
	intensity $a2
	dutycycle $3
	octave 3
	note A_, 2
	note __, 4
	octave 4
	note E_, 2
	intensity $91
	dutycycle $2
	octave 5
	note C_, 2
	note __, 2
	intensity $a2
	dutycycle $3
	octave 3
	note A_, 2
	note G_, 1
	note G#, 2
	note __, 1
	note F_, 2
	intensity $91
	dutycycle $2
	octave 5
	note D_, 2
	note __, 2
	intensity $a2
	dutycycle $3
	octave 3
	note F_, 2
	note __, 4
	note G#, 2
	intensity $91
	dutycycle $2
	octave 5
	note D_, 2
	note __, 2
	intensity $a2
	dutycycle $3
	octave 4
	note C_, 2
	octave 3
	note A#, 1
	note B_, 3
	note __, 2
	intensity $91
	dutycycle $2
	octave 5
	note D_, 2
	note __, 2
	intensity $a2
	dutycycle $3
	octave 3
	note G_, 2
	note __, 4
	note B_, 2
	intensity $91
	dutycycle $2
	octave 5
	note D_, 2
	note __, 2
	intensity $a2
	dutycycle $3
	octave 3
	note G_, 2
	octave 4
	note F#, 1
	note G_, 3
	note __, 2
	note A_, 2
	note __, 2
	note E_, 2
	note __, 6
	intensity $91
	dutycycle $2
	octave 5
	note E_, 2
	note __, 4
	note F_, 2
	note C_, 2
	octave 4
	note A_, 2
	note F_, 2
	note C_, 2
	octave 3
	note A_, 2
	note F_, 2
	note D_, 2
	note C_, 2
	note D_, 2
	note C_, 2
	note D_, 2
	note D_, 2
	note G_, 2
	note D_, 2
	note G_, 2
	note D_, 2
	note G_, 2
	note D_, 2
	note B_, 2
	note D_, 2
	note B_, 2
	note D_, 2
	note B_, 2
	intensity $41
	note G_, 2
	note B_, 2
	note G_, 2
	note B_, 2
	intensity $51
	note G_, 2
	intensity $61
	note B_, 2
	intensity $71
	note G_, 2
	intensity $81
	note B_, 2
	intensity $91
	note G_, 2
	intensity $a1
	note B_, 2
	intensity $b1
	note G_, 2
	intensity $c1
	note B_, 2
	intensity $a2
	dutycycle $3
	note G#, 1
	intensity $a4
	note A_, 9
	intensity $a2
	note F_, 2
	note __, 4
	note F_, 2
	note __, 4
	note D_, 2
	intensity $a7
	note F#, 1
	note G_, 11
	note B_, 12
	notetype $c, $b3
	note __, 16
	loopchannel 0, Music_Pinballbluefield_branch_40cf1
; 40e48

Music_Pinballbluefield_Ch2: ; 40e48
	vibrato $9, $34
	notetype $8, $b2
	dutycycle $3
	octave 4
	note E_, 4
	intensity $b1
	octave 3
	note F_, 2
	note A_, 2
	octave 4
	note C_, 2
	intensity $b3
	note E_, 7
	note __, 1
	intensity $b1
	octave 3
	note F_, 2
	note A_, 2
	octave 4
	note C_, 2
	intensity $b2
	note E_, 4
	intensity $b1
	note D#, 2
	note D_, 2
	note __, 2
	octave 3
	note G_, 2
	note __, 4
	intensity $b2
	note G_, 2
	note A_, 2
	note __, 2
	note B_, 2
Music_Pinballbluefield_branch_40e75: ; 40e75
	notetype $8, $b2
	octave 4
	note C#, 1
	note D_, 5
	intensity $81
	dutycycle $2
	octave 3
	note G_, 2
	note A_, 2
	intensity $b2
	dutycycle $3
	octave 4
	note C_, 6
	intensity $81
	dutycycle $2
	octave 3
	note G_, 2
	note A_, 2
	note __, 2
	note G_, 2
	intensity $b2
	dutycycle $3
	octave 4
	note D#, 1
	note E_, 5
	intensity $41
	dutycycle $2
	octave 3
	note A#, 2
	intensity $51
	note G_, 2
	intensity $b2
	dutycycle $3
	octave 4
	note F_, 2
	intensity $71
	dutycycle $2
	octave 3
	note G_, 2
	intensity $81
	note A#, 2
	intensity $b2
	dutycycle $3
	octave 4
	note E_, 2
	note F_, 2
	intensity $b1
	dutycycle $2
	octave 3
	note G_, 2
	intensity $b2
	dutycycle $3
	octave 4
	note G_, 2
	note D#, 1
	note E_, 2
	note __, 1
	note D#, 2
	note D_, 2
	intensity $81
	dutycycle $2
	octave 3
	note A_, 2
	intensity $b2
	dutycycle $3
	octave 4
	note C_, 2
	intensity $81
	dutycycle $2
	octave 3
	note F_, 2
	note G_, 2
	intensity $b2
	dutycycle $3
	note A_, 2
	intensity $81
	dutycycle $2
	note A#, 2
	note B_, 2
	intensity $b2
	dutycycle $3
	octave 4
	note C_, 2
	note E_, 2
	note __, 2
	note G_, 2
	note E_, 2
	note __, 2
	note D_, 2
	note __, 6
	octave 3
	note G_, 2
	note A_, 2
	note B_, 2
	octave 4
	note C#, 1
	note D_, 5
	intensity $81
	dutycycle $2
	octave 3
	note G_, 2
	note A_, 2
	intensity $b2
	dutycycle $3
	octave 4
	note C_, 6
	intensity $91
	dutycycle $2
	octave 5
	note G_, 2
	note F#, 2
	note __, 2
	note F_, 2
	intensity $b2
	dutycycle $3
	octave 4
	note D#, 1
	note E_, 5
	intensity $81
	dutycycle $2
	octave 3
	note G_, 2
	note A#, 2
	intensity $b2
	dutycycle $3
	octave 4
	note F_, 2
	intensity $81
	dutycycle $2
	octave 3
	note A#, 2
	octave 4
	note C#, 2
	intensity $b2
	dutycycle $3
	note E_, 2
	note F_, 2
	note __, 2
	note G_, 2
	note D#, 1
	note E_, 2
	note __, 1
	note D#, 2
	note D_, 2
	note __, 2
	note C_, 2
	intensity $81
	dutycycle $2
	octave 3
	note F_, 2
	note G_, 2
	intensity $b2
	dutycycle $3
	note A_, 2
	intensity $81
	dutycycle $2
	note A#, 2
	note B_, 2
	intensity $b2
	dutycycle $3
	octave 4
	note C_, 2
	note E_, 2
	note __, 2
	note G_, 2
	note E_, 2
	note __, 2
	note D_, 2
	note __, 6
	note E_, 2
	note F_, 2
	note G_, 2
	note G#, 1
	note A_, 3
	intensity $91
	dutycycle $2
	octave 5
	note C_, 2
	octave 3
	note E_, 2
	note F_, 2
	note A_, 2
	octave 4
	note C_, 2
	note __, 2
	intensity $b2
	dutycycle $3
	note E_, 2
	note __, 4
	note D_, 6
	intensity $91
	dutycycle $2
	note B_, 2
	octave 3
	note D_, 2
	note E_, 2
	note A_, 2
	note B_, 2
	note __, 2
	intensity $b2
	dutycycle $3
	octave 4
	note D_, 2
	note E_, 2
	note __, 2
	note F_, 2
	note G_, 4
	intensity $91
	dutycycle $2
	note B_, 2
	octave 3
	note E_, 2
	note G_, 2
	intensity $b2
	dutycycle $3
	octave 4
	note D_, 2
	intensity $91
	dutycycle $2
	octave 3
	note B_, 2
	octave 4
	note D_, 2
	intensity $b2
	dutycycle $3
	note G_, 2
	intensity $91
	dutycycle $2
	octave 3
	note G_, 2
	note B_, 2
	intensity $b2
	dutycycle $3
	octave 4
	note D_, 2
	note C#, 1
	note D_, 2
	note __, 1
	note C_, 2
	octave 3
	note B_, 2
	note __, 2
	octave 4
	note C_, 2
	intensity $91
	dutycycle $2
	octave 3
	note C_, 2
	note E_, 2
	intensity $b2
	dutycycle $3
	note B_, 2
	intensity $91
	dutycycle $2
	note E_, 2
	note G_, 2
	intensity $b2
	dutycycle $3
	octave 4
	note C_, 2
	octave 3
	note A_, 4
	intensity $91
	dutycycle $2
	octave 4
	note F_, 2
	octave 3
	note A_, 2
	octave 4
	note C_, 2
	intensity $b2
	dutycycle $3
	note F_, 2
	intensity $91
	dutycycle $2
	octave 3
	note F_, 2
	note A_, 2
	intensity $b2
	dutycycle $3
	octave 4
	note E_, 2
	intensity $91
	dutycycle $2
	octave 3
	note D_, 2
	note F_, 2
	intensity $b2
	dutycycle $3
	octave 4
	note D_, 2
	note C_, 4
	intensity $91
	dutycycle $2
	note F_, 2
	octave 3
	note D_, 2
	note F_, 2
	intensity $b2
	dutycycle $3
	note B_, 2
	intensity $91
	dutycycle $2
	note F_, 2
	note G_, 2
	intensity $b2
	dutycycle $3
	octave 4
	note C_, 2
	intensity $91
	dutycycle $2
	octave 3
	note G_, 2
	note B_, 2
	intensity $b2
	dutycycle $3
	octave 4
	note D_, 2
	intensity $b4
	note E_, 12
	intensity $71
	dutycycle $2
	octave 3
	note G_, 2
	intensity $81
	note B_, 2
	intensity $91
	note G_, 2
	intensity $a1
	note B_, 2
	intensity $b1
	note G_, 2
	intensity $c1
	note B_, 2
	intensity $b2
	dutycycle $3
	octave 4
	note C#, 1
	note D_, 4
	note __, 1
	note C#, 4
	note __, 2
	note F_, 4
	note __, 2
	note G_, 2
	note __, 2
	note G#, 1
	note A_, 5
	intensity $91
	dutycycle $2
	octave 5
	note C_, 2
	octave 3
	note E_, 2
	note F_, 2
	intensity $b2
	dutycycle $3
	octave 4
	note E_, 2
	note __, 4
	note A_, 2
	note __, 4
	note E_, 2
	note D#, 1
	note E_, 2
	note __, 1
	note D_, 2
	note C#, 2
	note __, 2
	note D_, 2
	note __, 4
	note C#, 2
	note __, 4
	note D_, 2
	note F#, 1
	note G_, 3
	intensity $91
	dutycycle $2
	note B_, 2
	octave 3
	note D_, 2
	note E_, 2
	intensity $b2
	dutycycle $3
	octave 4
	note D_, 2
	intensity $91
	dutycycle $2
	octave 3
	note E_, 2
	note G_, 2
	intensity $b2
	dutycycle $3
	octave 4
	note G_, 2
	intensity $91
	dutycycle $2
	octave 3
	note G_, 2
	note B_, 2
	intensity $b2
	dutycycle $3
	octave 4
	note D_, 2
	note A#, 1
	note B_, 3
	intensity $91
	dutycycle $2
	note A_, 2
	intensity $b2
	dutycycle $3
	octave 5
	note C_, 2
	note __, 2
	octave 4
	note A_, 2
	note __, 4
	intensity $91
	dutycycle $2
	note A_, 2
	intensity $b2
	dutycycle $3
	octave 3
	note A_, 2
	note __, 2
	octave 4
	note C_, 2
	note E_, 1
	note F_, 3
	intensity $91
	dutycycle $2
	note A_, 2
	note A_, 2
	note __, 2
	intensity $b2
	dutycycle $3
	note C_, 2
	intensity $b1
	notetype $8, $91
	dutycycle $2
	octave 3
	note A_, 2
	octave 4
	note C_, 2
	intensity $b2
	dutycycle $3
	note F_, 2
	intensity $91
	dutycycle $2
	note A_, 2
	note F_, 2
	intensity $b2
	dutycycle $3
	note C_, 2
	octave 3
	note B_, 1
	octave 4
	note C_, 2
	note __, 1
	octave 3
	note B_, 2
	note A_, 2
	note __, 2
	note B_, 2
	note __, 6
	note G_, 6
	octave 4
	note D#, 1
	notetype $c, $b7
	note E_, 14
	notetype $8, $b2
	note __, 2
	note C#, 1
	intensity $b4
	note D_, 9
	intensity $b2
	note C_, 2
	note __, 4
	note C_, 2
	note __, 4
	octave 3
	note A_, 2
	octave 4
	note D#, 1
	notetype $c, $b7
	note E_, 14
	notetype $8, $b2
	note __, 2
	intensity $93
	dutycycle $2
	octave 3
	note B_, 1
	octave 4
	note C_, 5
	octave 3
	note A_, 6
	note B_, 4
	intensity $b2
	dutycycle $3
	note G_, 2
	note A_, 2
	note __, 2
	note B_, 2
	loopchannel 0, Music_Pinballbluefield_branch_40e75
; 4111e

Music_Pinballbluefield_Ch3: ; 4111e
	forceoctave $10
	notetype $8, $22
	octave 3
	note F_, 4
	note __, 6
	note F#, 7
	note __, 7
	note G_, 4
	note __, 6
	octave 2
	note G_, 2
	note __, 12
Music_Pinballbluefield_branch_4112d: ; 4112d
	callchannel Music_Pinballbluefield_branch_412dd
	note B_, 1
	note __, 1
	note G_, 1
	note __, 1
	note F_, 1
	note __, 1
	note D_, 2
	note __, 2
	note B_, 2
	note __, 6
	note D_, 2
	octave 2
	note B_, 2
	note G_, 2
	callchannel Music_Pinballbluefield_branch_412dd
	note B_, 1
	note __, 1
	note G_, 1
	note __, 1
	note F_, 1
	note __, 1
	note D_, 2
	note __, 2
	octave 2
	note G_, 2
	note __, 12
	note F_, 2
	note __, 2
	octave 6
	note E_, 1
	note __, 1
	octave 2
	note F_, 1
	note __, 1
	octave 3
	note E_, 1
	note __, 1
	note C_, 1
	note __, 1
	octave 2
	note F_, 2
	note __, 2
	octave 6
	note E_, 1
	note __, 1
	octave 2
	note F_, 2
	note __, 2
	note F_, 1
	note __, 1
	note F_, 2
	note __, 2
	octave 6
	note D_, 1
	note __, 1
	octave 2
	note F_, 1
	note __, 1
	octave 3
	note D_, 1
	note __, 1
	octave 2
	note B_, 1
	note __, 1
	note F_, 2
	note __, 2
	octave 6
	note D_, 1
	note __, 1
	octave 2
	note F_, 2
	note __, 2
	note F_, 1
	note __, 1
	note E_, 2
	note __, 2
	octave 6
	note D_, 1
	note __, 1
	octave 2
	note E_, 1
	note __, 1
	octave 3
	note D_, 1
	note __, 1
	octave 2
	note B_, 1
	note __, 1
	note E_, 2
	note __, 2
	octave 6
	note D_, 1
	note __, 1
	octave 2
	note E_, 2
	note __, 2
	note E_, 1
	note __, 1
	note E_, 2
	note __, 2
	octave 6
	note C_, 1
	note __, 1
	octave 2
	note E_, 2
	octave 3
	note C_, 1
	note __, 1
	octave 2
	note A_, 1
	note __, 1
	note E_, 2
	note __, 2
	octave 6
	note C_, 1
	note __, 1
	octave 2
	note E_, 2
	note A_, 1
	note __, 1
	octave 3
	note C_, 1
	note __, 1
	octave 2
	note D_, 2
	note __, 2
	octave 6
	note C_, 1
	note __, 1
	octave 2
	note D_, 1
	note __, 1
	octave 3
	note C_, 1
	note __, 1
	octave 2
	note A_, 1
	note __, 1
	note D_, 2
	note __, 2
	octave 6
	note C_, 1
	note __, 1
	octave 2
	note D_, 2
	note __, 2
	note D_, 1
	note __, 1
	note D_, 2
	note __, 2
	octave 5
	note B_, 1
	note __, 1
	octave 2
	note D_, 1
	note __, 1
	note B_, 1
	note __, 1
	note G_, 1
	note __, 1
	note D_, 2
	note __, 2
	octave 5
	note B_, 1
	note __, 1
	octave 2
	note D_, 2
	note __, 2
	note D_, 1
	note __, 1
	note C_, 2
	note __, 2
	octave 5
	note B_, 1
	note __, 1
	octave 2
	note C_, 1
	note __, 1
	note B_, 1
	note __, 1
	note G_, 1
	note __, 1
	note C_, 2
	note __, 2
	octave 5
	note B_, 1
	note __, 1
	octave 2
	note C_, 1
	note __, 1
	note B_, 1
	note __, 1
	note G_, 1
	note __, 1
	note C#, 2
	note __, 2
	note C#, 1
	note __, 1
	note C#, 1
	note __, 1
	note A#, 1
	note __, 1
	note G_, 1
	note __, 1
	note C#, 2
	note __, 2
	note C_, 2
	note C#, 2
	note __, 2
	note G_, 2
	note F_, 2
	note __, 2
	octave 6
	note D#, 2
	note E_, 1
	note __, 1
	octave 3
	note F_, 1
	note __, 1
	note C_, 1
	note __, 1
	octave 2
	note F_, 2
	note __, 4
	octave 6
	note E_, 1
	note __, 1
	octave 2
	note F_, 1
	note __, 1
	octave 6
	note E_, 1
	note __, 1
	octave 2
	note F_, 2
	note __, 2
	octave 6
	note E_, 2
	note F_, 1
	note __, 1
	octave 3
	note D_, 1
	note __, 1
	note C_, 1
	note __, 1
	octave 2
	note F_, 2
	note __, 4
	octave 6
	note F_, 1
	note __, 1
	octave 2
	note F_, 1
	note __, 1
	octave 6
	note F_, 1
	note __, 1
	octave 2
	note E_, 2
	note __, 2
	octave 6
	note F#, 2
	note G_, 1
	note __, 1
	octave 3
	note D_, 1
	note __, 1
	octave 2
	note B_, 1
	note __, 1
	note E_, 2
	note __, 4
	octave 6
	note G_, 1
	note __, 3
	note G_, 1
	note __, 1
	octave 2
	note E_, 2
	note __, 2
	octave 6
	note G#, 2
	note A_, 1
	note __, 1
	octave 3
	note C_, 1
	note __, 1
	octave 2
	note A_, 1
	note __, 1
	note E_, 2
	note __, 4
	octave 6
	note A_, 1
	note __, 1
	octave 2
	note A_, 1
	note __, 1
	octave 6
	note A_, 1
	note __, 1
	octave 2
	note D_, 2
	note __, 2
	octave 6
	note C#, 2
	note D_, 1
	note __, 1
	octave 3
	note C_, 1
	note __, 1
	octave 2
	note A_, 1
	note __, 1
	note D_, 2
	note __, 4
	octave 6
	note D_, 1
	note __, 3
	note D_, 1
	note __, 1
	octave 2
	note D_, 2
	note __, 2
	octave 5
	note A#, 2
	note B_, 1
	note __, 1
	octave 2
	note B_, 1
	note __, 1
	note G_, 1
	note __, 1
	note D_, 2
	note __, 2
	note D_, 1
	note __, 1
	octave 5
	note B_, 1
	note __, 1
	octave 2
	note B_, 1
	note __, 1
	octave 5
	note B_, 1
	note __, 1
	octave 2
	note C_, 2
	note __, 2
	note C_, 1
	note __, 1
	note C_, 1
	note __, 1
	note B_, 1
	note __, 1
	note G_, 1
	note __, 1
	note C_, 2
	note __, 2
	note C_, 1
	note __, 1
	note C_, 1
	note __, 3
	note C_, 1
	note __, 1
	note D_, 2
	note __, 2
	note D_, 1
	note __, 1
	note D_, 1
	note __, 1
	octave 3
	note C_, 1
	note __, 1
	octave 2
	note A_, 1
	note __, 1
	note D_, 2
	note __, 2
	note D_, 1
	note __, 1
	note D_, 1
	note __, 3
	note D_, 1
	note __, 1
	note C_, 2
	note __, 2
	note C_, 1
	note __, 1
	note C_, 1
	note __, 1
	note B_, 1
	note __, 1
	note G_, 1
	note __, 1
	note C_, 2
	note __, 2
	note C_, 1
	note __, 1
	note C_, 1
	note __, 3
	note C_, 1
	note __, 1
	note D_, 2
	note __, 2
	note D_, 1
	note __, 1
	note D_, 1
	note __, 1
	octave 3
	note C_, 1
	note __, 1
	octave 2
	note A_, 1
	note __, 1
	note D_, 2
	note __, 2
	note D_, 1
	note __, 1
	note D_, 1
	note __, 3
	note D_, 1
	note __, 1
	loopchannel 0, Music_Pinballbluefield_branch_4112d
; 412dd

Music_Pinballbluefield_branch_412dd: ; 412dd
	octave 3
	note C_, 3
	note __, 1
	octave 4
	note C_, 2
	octave 3
	note B_, 3
	note __, 3
	note A#, 3
	note __, 3
	note A_, 3
	note __, 3
	note G_, 2
	note E_, 1
	note __, 1
	note C#, 1
	note __, 1
	octave 2
	note A#, 6
	octave 3
	note A#, 6
	note A_, 2
	note __, 2
	note E_, 2
	note D_, 2
	note __, 4
	octave 4
	note D_, 1
	note __, 1
	note C#, 1
	note __, 1
	note C_, 1
	note __, 1
	octave 3
	note A_, 2
	note __, 2
	note F_, 2
	note D_, 2
	note __, 2
	note A_, 2
	endchannel
; 41306

Music_Pinballbluefield_Ch4: ; 41306
	togglenoise $0
	notetype $8
	note F#, 4
	note G_, 2
	note G_, 2
	note G_, 2
	note F#, 8
	note G_, 2
	note G_, 2
	note G_, 2
	note F#, 4
	note G_, 2
	note G_, 4
	note F#, 2
	note D#, 4
	note D_, 2
	note D#, 2
	note D_, 2
	note D_, 2
Music_Pinballbluefield_branch_4131b: ; 4131b
	note F#, 4
	note G_, 2
	note G_, 4
	note G_, 2
	note D#, 4
	note F#, 2
	note G_, 4
	note G_, 2
	note G_, 4
	note G_, 2
	note G_, 4
	note G_, 2
	note D#, 4
	note F#, 2
	note G_, 2
	note G_, 2
	note G_, 2
	note F#, 4
	note G_, 2
	note G_, 2
	note G_, 2
	note G_, 2
	note G_, 4
	note G_, 2
	note C_, 4
	note G_, 2
	note C#, 2
	note C#, 2
	note D_, 2
	note D_, 4
	note D#, 2
	note F#, 6
	note G_, 2
	note G_, 2
	note G_, 2
Music_Pinballbluefield_branch_4133e: ; 4133e
	note D#, 4
	note G_, 2
	note F#, 4
	note G_, 2
	note D#, 4
	note G_, 2
	note G_, 4
	note D#, 2
	loopchannel 3, Music_Pinballbluefield_branch_4133e
	note D#, 4
	note G_, 2
	note F#, 4
	note G_, 2
	note __, 6
	note C#, 2
	note C#, 2
	note D_, 2
	callchannel Music_Pinballbluefield_branch_41386
	callchannel Music_Pinballbluefield_branch_41386
	note D#, 4
	note F#, 2
	note D_, 4
	note G_, 2
	note D#, 4
	note D_, 2
	note F#, 2
	note D#, 2
	note D_, 2
	note D#, 4
	note F#, 2
	note D_, 4
	note D_, 2
	note D#, 4
	note F#, 2
	note D_, 4
	note D_, 2
Music_Pinballbluefield_branch_41369: ; 41369
	callchannel Music_Pinballbluefield_branch_41386
	loopchannel 3, Music_Pinballbluefield_branch_41369
	note F#, 4
	note D#, 2
	note C#, 2
	note C#, 2
	note D_, 2
	note D_, 2
	note F#, 2
	note C#, 2
	note C#, 2
	note D_, 2
	note D_, 2
Music_Pinballbluefield_branch_4137b: ; 4137b
	callchannel Music_Pinballbluefield_branch_41386
	loopchannel 10, Music_Pinballbluefield_branch_4137b
	loopchannel 0, Music_Pinballbluefield_branch_4131b
; 41386

Music_Pinballbluefield_branch_41386: ; 41386
	note D#, 4
	note F#, 2
	note D_, 4
	note G_, 2
	note D#, 4
	note F#, 2
	note D_, 4
	note D#, 2
	endchannel
; 4138f


