Music_BattleTowerLobby: ; 17948b
	dbw $c0, Music_BattleTowerLobby_Ch1
	dbw $01, Music_BattleTowerLobby_Ch2
	dbw $02, Music_BattleTowerLobby_Ch3
	dbw $03, Music_BattleTowerLobby_Ch4
; 179497

Music_BattleTowerLobby_Ch1: ; 179497
	tempo 152
	volume $77
	dutycycle $3
	tone $0001
	vibrato $8, $22
	stereopanning $f0
	notetype $c, $72
Music_BattleTowerLobby_branch_1794a9: ; 1794a9
	notetype $c, $72
	octave 3
	note G#, 2
	notetype $c, $73
	octave 2
	note B_, 2
	octave 3
	note E_, 2
	note G#, 2
	note E_, 2
	octave 2
	note B_, 2
	octave 3
	note E_, 2
	note G#, 2
	notetype $c, $72
	note F#, 2
	notetype $c, $73
	octave 2
	note B_, 2
	octave 3
	note F#, 2
	note E_, 2
	note D#, 2
	octave 2
	note B_, 2
	octave 3
	note D#, 2
	note F#, 2
	notetype $c, $72
	note G#, 2
	notetype $c, $73
	octave 2
	note B_, 2
	octave 3
	note E_, 2
	note G#, 2
	octave 2
	note B_, 2
	octave 3
	note E_, 2
	note B_, 2
	octave 4
	note E_, 2
	notetype $c, $72
	note F#, 3
	notetype $c, $73
	note D_, 1
	note E_, 2
	octave 3
	note B_, 2
	note G#, 2
	note E_, 2
	note G#, 2
	note B_, 2
	notetype $c, $72
	note C#, 2
	notetype $c, $73
	note D#, 2
	note E_, 2
	note C#, 1
	octave 2
	note B_, 1
	note A_, 4
	notetype $c, $62
	note A_, 4
	notetype $c, $72
	note B_, 2
	notetype $c, $73
	octave 3
	note C#, 2
	note D#, 2
	note E_, 1
	note F#, 1
	note G#, 4
	notetype $c, $62
	octave 2
	note G#, 4
	notetype $c, $72
	note A_, 2
	notetype $c, $73
	note B_, 2
	octave 3
	note C#, 2
	note D_, 1
	note E_, 1
	note D_, 2
	note E_, 2
	note F#, 2
	note A_, 2
	notetype $c, $72
	note B_, 2
	notetype $c, $73
	note B_, 4
	note A_, 1
	note G#, 1
	notetype $c, $72
	note F#, 4
	notetype $c, $75
	octave 2
	note B_, 4
	loopchannel 0, Music_BattleTowerLobby_branch_1794a9
; 17953a

Music_BattleTowerLobby_Ch2: ; 17953a
	dutycycle $2
	vibrato $10, $34
	stereopanning $f
	notetype $c, $82
Music_BattleTowerLobby_branch_179544: ; 179544
	notetype $c, $82
	octave 4
	note E_, 2
	note E_, 4
	octave 3
	note B_, 1
	octave 4
	note E_, 1
	note B_, 4
	note A_, 2
	note G#, 2
	note A_, 3
	note E_, 1
	octave 3
	note B_, 4
	notetype $c, $65
	note F#, 4
	octave 2
	note B_, 4
	notetype $c, $82
	octave 4
	note E_, 2
	note E_, 4
	octave 3
	note B_, 1
	octave 4
	note E_, 1
	note B_, 4
	note A_, 2
	note G#, 2
	note A_, 3
	note F#, 1
	notetype $c, $87
	note G#, 12
	notetype $c, $82
	octave 3
	note A_, 2
	notetype $c, $84
	note A_, 4
	note F#, 1
	note G#, 1
	note A_, 4
	notetype $c, $82
	note C#, 4
	octave 4
	note G#, 2
	notetype $c, $84
	note G#, 4
	note F#, 1
	note G#, 1
	note E_, 4
	notetype $c, $82
	octave 3
	note E_, 4
	octave 4
	note F#, 2
	notetype $c, $84
	note F#, 4
	note A_, 1
	note G#, 1
	note A_, 4
	note D_, 4
	notetype $c, $82
	note E_, 2
	notetype $c, $84
	note E_, 4
	note F#, 1
	note E_, 1
	note D#, 4
	notetype $c, $73
	octave 3
	note D#, 1
	note F#, 1
	note B_, 1
	octave 4
	note D#, 1
	loopchannel 0, Music_BattleTowerLobby_branch_179544
; 1795ae

Music_BattleTowerLobby_Ch3: ; 1795ae
	notetype $c, $11
Music_BattleTowerLobby_branch_1795b1: ; 1795b1
	octave 2
	note B_, 2
	octave 3
	note E_, 2
	note __, 2
	note E_, 2
	note __, 2
	note E_, 2
	note __, 2
	note E_, 2
	octave 2
	note B_, 2
	octave 3
	note E_, 2
	note __, 2
	note E_, 2
	note __, 2
	note D#, 2
	note __, 2
	note D#, 2
	octave 2
	note B_, 2
	octave 3
	note E_, 2
	note __, 2
	note E_, 2
	note __, 2
	note E_, 2
	note __, 2
	note E_, 2
	octave 2
	note A_, 2
	octave 3
	note D_, 2
	note __, 2
	octave 2
	note A_, 2
	note B_, 2
	octave 3
	note E_, 2
	note __, 2
	note E_, 2
	octave 2
	note A_, 2
	octave 3
	note C#, 2
	octave 2
	note E_, 2
	octave 3
	note E_, 2
	octave 2
	note A_, 2
	octave 3
	note C#, 2
	note E_, 2
	note __, 2
	octave 2
	note B_, 2
	octave 3
	note E_, 2
	octave 2
	note E_, 2
	octave 3
	note E_, 2
	octave 2
	note G#, 2
	note B_, 2
	octave 3
	note E_, 2
	note __, 2
	note D_, 2
	octave 2
	note F#, 2
	note A_, 2
	octave 3
	note F#, 2
	octave 2
	note F#, 2
	note A_, 2
	octave 3
	note D_, 2
	note F#, 2
	note E_, 2
	octave 2
	note B_, 2
	note E_, 2
	note B_, 2
	note F#, 2
	note E_, 2
	note D#, 2
	note F#, 2
	loopchannel 0, Music_BattleTowerLobby_branch_1795b1
; 179610

Music_BattleTowerLobby_Ch4: ; 179610
	togglenoise $0
Music_BattleTowerLobby_branch_179612: ; 179612
	notetype $c
	note __, 2
	note F_, 4
	note F_, 4
	note F_, 2
	note F_, 4
	loopchannel 0, Music_BattleTowerLobby_branch_179612
; 17961d


