Music_ElmsLab:
	channel_count 4
	channel 1, Music_ElmsLab_Ch1
	channel 2, Music_ElmsLab_Ch2
	channel 3, Music_ElmsLab_Ch3
	channel 4, Music_ElmsLab_Ch4

Music_ElmsLab_Ch1:
	tempo 144
	volume 7, 7
	duty_cycle 3
	pitch_offset 1
	vibrato 16, 1, 5
	stereo_panning TRUE, FALSE
	note_type 12, 11, 2
	octave 2
	note F_, 2
	note G_, 2
	note A_, 2
	note B_, 2
	volume_envelope 11, 6
	octave 3
	note C_, 8
	volume_envelope 11, 2
	octave 2
	note A#, 2
	note A_, 2
	note G_, 2
	octave 3
	note C_, 8
	note F_, 4
	note F_, 4
	note F_, 8
	note A_, 4
	note A_, 4
	note A_, 2
.mainloop:
	rest 2
	note A_, 2
	note G#, 2
	note A_, 2
	volume_envelope 11, 7
	octave 4
	note C_, 4
	volume_envelope 11, 5
	octave 3
	note B_, 2
	octave 4
	note C_, 2
	volume_envelope 11, 4
	note F_, 8
	volume_envelope 11, 5
	octave 3
	note A_, 2
	note G#, 2
	note A_, 2
	note F_, 2
	volume_envelope 11, 7
	note F_, 8
	volume_envelope 11, 5
	note A_, 2
	note G_, 2
	note F_, 2
	volume_envelope 11, 2
	note G_, 4
	volume_envelope 11, 5
	note A_, 2
	note G#, 2
	note A_, 2
	volume_envelope 11, 7
	note F_, 4
	volume_envelope 11, 5
	note C_, 4
	volume_envelope 11, 7
	note D_, 8
	volume_envelope 11, 4
	note F_, 2
	note E_, 2
	note D_, 2
	note F_, 2
	volume_envelope 11, 7
	note E_, 8
	volume_envelope 11, 4
	note G_, 2
	note F_, 2
	note E_, 2
	note G_, 2
	volume_envelope 11, 7
	note F_, 8
	volume_envelope 11, 4
	note G_, 2
	note A_, 2
	note A#, 2
	note A_, 2
	volume_envelope 11, 2
	note G_, 4
	volume_envelope 11, 4
	note F_, 2
	note A_, 2
	note G_, 2
	note F_, 2
	note E_, 2
	volume_envelope 11, 2
	note G_, 6
	volume_envelope 11, 7
	note F_, 4
	octave 4
	note C_, 2
	octave 3
	note F_, 4
	note D_, 2
	note A#, 4
	note A_, 4
	volume_envelope 11, 4
	note G_, 2
	note F_, 2
	note G_, 2
	volume_envelope 11, 2
	note A_, 6
	volume_envelope 11, 7
	note E_, 4
	note A#, 2
	note E_, 6
	volume_envelope 11, 3
	note F_, 2
	note E_, 2
	note F_, 2
	note G_, 2
	note A_, 2
	note A_, 2
	note G_, 2
	volume_envelope 11, 2
	note E_, 6
	volume_envelope 11, 4
	note F_, 4
	octave 4
	note C_, 4
	octave 3
	note F_, 2
	octave 4
	note C_, 2
	note D_, 2
	note C_, 2
	octave 3
	note A#, 2
	note A_, 2
	volume_envelope 11, 7
	note A#, 8
	octave 4
	note E_, 4
	note D_, 4
	note C_, 4
	octave 3
	note A#, 4
	octave 4
	note C_, 4
	note D_, 4
	note D#, 4
	note E_, 4
	volume_envelope 11, 4
	octave 3
	note A_, 2
	note F_, 2
	octave 4
	note C_, 2
	octave 3
	note F_, 2
	note A_, 2
	note F_, 2
	octave 4
	note C_, 2
	octave 3
	note F_, 2
	note A_, 2
	note F_, 2
	octave 4
	note C_, 2
	octave 3
	note F_, 2
	note A_, 2
	volume_envelope 11, 2
	note F_, 2
	note F_, 4
	sound_loop 0, .mainloop

Music_ElmsLab_Ch2:
	duty_cycle 3
	vibrato 16, 2, 6
	stereo_panning FALSE, TRUE
	note_type 12, 12, 3
	octave 4
	note F_, 2
	note E_, 2
	note D_, 2
	octave 3
	note B_, 2
	volume_envelope 12, 5
	octave 4
	note C_, 8
	volume_envelope 12, 3
	octave 3
	note A#, 2
	note A_, 2
	note G_, 2
	note E_, 2
	volume_envelope 12, 2
	note F_, 6
	octave 4
	note C_, 4
	note C_, 4
	note C_, 8
	note C_, 4
	note C_, 4
	note C_, 2
	stereo_panning TRUE, TRUE
.mainloop:
	volume_envelope 12, 6
	octave 4
	note F_, 6
	volume_envelope 12, 2
	note E_, 2
	note F_, 2
	note E_, 2
	note F_, 2
	note G_, 2
	volume_envelope 12, 7
	note A_, 6
	volume_envelope 12, 2
	note F_, 2
	volume_envelope 12, 7
	note C_, 8
	volume_envelope 12, 7
	note D_, 6
	volume_envelope 12, 3
	note C#, 2
	note D_, 2
	note C#, 2
	note D_, 2
	note E_, 2
	volume_envelope 12, 7
	note F_, 6
	volume_envelope 12, 3
	note C_, 2
	volume_envelope 12, 7
	octave 3
	note A_, 10
	volume_envelope 12, 3
	note A#, 2
	note A#, 2
	octave 4
	note D_, 2
	volume_envelope 12, 5
	note C_, 4
	octave 3
	note A#, 6
	volume_envelope 12, 3
	octave 4
	note C_, 2
	note C_, 2
	note E_, 2
	volume_envelope 12, 4
	note D_, 4
	note C_, 6
	volume_envelope 12, 2
	note D_, 2
	note D_, 2
	note F_, 2
	note G_, 2
	note F_, 2
	note E_, 2
	note F_, 2
	volume_envelope 12, 2
	note G_, 4
	volume_envelope 12, 6
	note C_, 4
	note D_, 4
	volume_envelope 12, 4
	note E_, 6
	volume_envelope 12, 3
	note F_, 2
	note F_, 2
	note G_, 2
	volume_envelope 12, 7
	note A_, 4
	volume_envelope 12, 3
	note G_, 2
	note F#, 2
	note G_, 2
	note F#, 2
	note G_, 1
	note F_, 2
	volume_envelope 12, 7
	note D_, 11
	volume_envelope 12, 3
	note E_, 2
	note E_, 2
	note F_, 2
	volume_envelope 12, 7
	note G_, 4
	volume_envelope 12, 3
	note F_, 2
	note E_, 2
	note F_, 2
	note G_, 2
	note F_, 1
	note D_, 2
	volume_envelope 12, 7
	note C_, 11
	volume_envelope 12, 4
	note F_, 2
	note F_, 2
	note G_, 2
	volume_envelope 12, 7
	note A_, 4
	volume_envelope 12, 4
	note G_, 2
	note F_, 2
	note A#, 2
	note A_, 2
	note A#, 1
	octave 5
	note C_, 2
	note D_, 5
	volume_envelope 12, 3
	note E_, 2
	note D_, 2
	volume_envelope 12, 7
	note C_, 4
	octave 4
	note A#, 4
	note A_, 4
	note G_, 4
	octave 5
	note C_, 4
	octave 4
	note A#, 4
	note A_, 4
	note G_, 4
	volume_envelope 11, 0
	note F_, 8
	volume_envelope 10, 0
	note F_, 8
	volume_envelope 10, 7
	note F_, 10
	volume_envelope 12, 2
	note C_, 2
	note F_, 2
	volume_envelope 12, 4
	octave 3
	note E_, 2
	sound_loop 0, .mainloop

Music_ElmsLab_Ch3:
	stereo_panning FALSE, TRUE
	note_type 12, 2, 5
	rest 8
	rest 14
	octave 3
	note C_, 2
	note F_, 2
	note A_, 2
	note C_, 2
	note A_, 2
	note F_, 2
	note A_, 2
	note C_, 2
	note A_, 2
	note F_, 2
	note A_, 2
	note C_, 2
	note A_, 2
	note F_, 2
	note C_, 2
	note D_, 2
	note E_, 2
.mainloop:
	note F_, 2
	note A_, 2
	note C_, 2
	note A_, 2
	note F_, 2
	note A_, 2
	note C_, 2
	note A_, 2
	note F_, 2
	note A_, 2
	note C_, 2
	note A_, 2
	note F_, 2
	note A_, 2
	note E_, 2
	octave 4
	note C_, 2
	octave 3
	note D_, 2
	note A_, 2
	octave 2
	note A_, 2
	octave 3
	note A_, 2
	note D_, 2
	note A_, 2
	note D_, 2
	note E_, 2
	note F_, 2
	note A_, 2
	note C_, 2
	note A_, 2
	note F_, 2
	note C_, 2
	note D_, 2
	note E_, 2
	note F_, 2
	note A#, 2
	note D_, 2
	note A#, 2
	note F_, 2
	note A#, 2
	note D_, 2
	note A#, 2
	note G_, 2
	octave 4
	note C_, 2
	octave 3
	note E_, 2
	octave 4
	note C_, 2
	octave 3
	note G_, 2
	octave 4
	note C_, 2
	octave 3
	note E_, 2
	note A_, 2
	note A#, 2
	octave 4
	note D_, 2
	octave 3
	note F_, 2
	octave 4
	note D_, 2
	octave 3
	note A#, 2
	octave 4
	note D_, 2
	octave 3
	note F_, 2
	note B_, 2
	octave 4
	note C_, 2
	rest 2
	note C_, 4
	octave 3
	note A#, 4
	note G_, 4
	note F_, 2
	note A_, 2
	note C_, 2
	note A_, 2
	note F_, 2
	note A_, 2
	note C_, 2
	note A_, 2
	note G_, 2
	note A#, 2
	note D_, 2
	note A#, 2
	note G_, 2
	note A#, 2
	note D_, 2
	note A_, 2
	note E_, 2
	note G_, 2
	note C_, 2
	note G_, 2
	note E_, 2
	note G_, 2
	note C_, 2
	note G_, 2
	note F_, 2
	note A_, 2
	note C_, 2
	note A_, 2
	note F_, 2
	note A_, 2
	note G_, 2
	note E_, 2
	note F_, 2
	note A_, 2
	note C_, 2
	note A_, 2
	note F_, 2
	note A_, 2
	note C_, 2
	note A_, 2
	note G_, 2
	note A#, 2
	note D_, 2
	note A#, 2
	note G_, 2
	note A#, 2
	note A_, 2
	note G_, 2
	note C_, 4
	note D_, 4
	note E_, 4
	note G_, 4
	note E_, 4
	note F_, 4
	note F#, 4
	note G_, 4
	note F_, 2
	note A_, 2
	note C_, 2
	note A_, 2
	note F_, 2
	note A_, 2
	note C_, 2
	note A_, 2
	note F_, 2
	note A_, 2
	note C_, 2
	note A_, 2
	note F_, 2
	note C_, 2
	note F_, 2
	note A_, 2
	sound_loop 0, .mainloop

Music_ElmsLab_Ch4:
	stereo_panning TRUE, FALSE
	toggle_noise 0
	drum_speed 12
	rest 16
	rest 2
.mainloop:
	drum_note 8, 4
	sound_loop 0, .mainloop
