Music_KantoTrainerBattle:
	musicheader 3, 1, Music_KantoTrainerBattle_Ch1
	musicheader 1, 2, Music_KantoTrainerBattle_Ch2
	musicheader 1, 3, Music_KantoTrainerBattle_Ch3

	db $3

Music_KantoTrainerBattle_Ch1:
	tempo 114
	volume $77
	pitchoffset 1, B_
	notetype $c, $b3
	vibrato $12, $24
	dutycycle $1
	note __, 1
	octave 4
	note A_, 1
	note G#, 1
	note G_, 1
	note G#, 1
	note G_, 1
	note F#, 1
	note F_, 1
	note F#, 1
	note F_, 1
	note E_, 1
	note D#, 1
	note E_, 1
	note D#, 1
	note D_, 1
	note C#, 1
	note D_, 1
	note C#, 1
	note C_, 1
	octave 3
	note B_, 1
	octave 4
	note C_, 1
	octave 3
	note B_, 1
	note A#, 1
	note A_, 1
	note A#, 1
	note A_, 1
	note G#, 1
	note G_, 1
	note G#, 1
	note G_, 1
	note F#, 1
	note G_, 1
	dutycycle $2
	intensity $b1
	octave 4
	note D#, 2
	octave 2
	note C_, 1
	note __, 1
	note C_, 1
	note __, 1
	octave 4
	note C_, 2
	octave 2
	note C_, 1
	note __, 1
	note C_, 1
	note __, 1
	octave 4
	note D#, 2
	note __, 2
	octave 3
	note A#, 2
	octave 4
	note C_, 2
	note __, 2
	note D#, 2
	note __, 2
	octave 3
	note D#, 1
	note __, 1
	note F_, 1
	note __, 1
	note F#, 1
	note __, 1
	octave 4
	note C_, 2
	octave 2
	note C_, 1
	note __, 1
	note C_, 1
	note __, 1
	octave 4
	note C_, 2
	octave 2
	note C_, 1
	note __, 1
	note C_, 1
	note __, 1
	octave 4
	note D#, 2
	note __, 2
	octave 3
	note A#, 2
	octave 4
	note C_, 2
	note __, 2
	note D#, 2
	note __, 2
	note D#, 1
	note __, 1
	note F_, 1
	note __, 1
	note G_, 1
	note __, 1
	intensity $b3
	note D#, 2
	note __, 4
	note F_, 2
	note __, 4
	note F#, 2
	note __, 2
	note D#, 2
	note F_, 2
	note __, 2
	note F#, 2
	note __, 2
	note D#, 2
	note F_, 2
	note F#, 2
Music_KantoTrainerBattle_branch_eca88:
	notetype $c, $b7
	note D#, 4
	note __, 2
	note C_, 10
	note __, 4
	note D#, 2
	note C_, 2
	octave 3
	note G_, 1
	octave 4
	note C_, 1
	note D#, 1
	note __, 1
	note C_, 1
	note __, 1
	note D#, 1
	note __, 1
	note C#, 8
	note F_, 8
	note G#, 8
	octave 5
	note C#, 4
	note C#, 1
	octave 4
	note G#, 1
	note F_, 1
	note C#, 1
	note D#, 4
	note __, 2
	note C_, 10
	note __, 4
	note D#, 2
	note C_, 2
	octave 3
	note G_, 1
	octave 4
	note C_, 1
	note D#, 1
	note __, 1
	note D_, 1
	note __, 1
	note F_, 1
	note __, 1
	note D#, 6
	note D_, 6
	note C_, 2
	note __, 2
	note __, 2
	note D_, 2
	note __, 4
	note F_, 2
	note __, 2
	note G#, 2
	note G_, 1
	note F#, 1
	octave 3
	note G#, 1
	note F_, 1
	note C_, 1
	note G#, 1
	octave 4
	note C_, 1
	note __, 1
	note F_, 1
	note __, 1
	note C_, 1
	octave 3
	note G#, 1
	note F_, 1
	note __, 5
	octave 4
	note D#, 8
	note D_, 4
	octave 3
	note F_, 1
	note A_, 1
	octave 4
	note C_, 1
	note D#, 1
	note D_, 4
	octave 3
	note D_, 4
	octave 4
	note F_, 4
	octave 3
	note D_, 4
	note __, 4
	note D_, 4
	note __, 4
	note D_, 4
	note G#, 1
	note F_, 1
	note C_, 1
	note G#, 1
	octave 4
	note C_, 1
	note __, 1
	note F_, 1
	note __, 1
	note C_, 1
	octave 3
	note G#, 1
	note F_, 1
	note __, 5
	octave 4
	note D#, 8
	note D_, 4
	octave 3
	note F_, 1
	note A_, 1
	octave 4
	note C_, 1
	note D#, 1
	note D_, 4
	octave 3
	note D_, 4
	note __, 4
	note D_, 4
	note A#, 1
	octave 4
	note D_, 1
	note F_, 1
	note __, 1
	octave 3
	note D_, 2
	octave 4
	note F_, 2
	note D_, 2
	octave 3
	note A#, 2
	note D_, 2
	octave 4
	note D_, 2
	intensity $67
	note C_, 1
	note C#, 1
	note D_, 1
	note D#, 1
	note E_, 1
	note D#, 1
	note D_, 1
	note C#, 1
	note C_, 1
	note __, 3
	note D#, 4
	notetype $6, $67
	note D#, 1
	note __, 1
	note D#, 1
	note __, 1
	note D#, 1
	note __, 7
	note D#, 1
	note __, 1
	note D#, 1
	note __, 1
	octave 3
	note G_, 1
	note __, 3
	note G_, 1
	note __, 3
	octave 4
	note C_, 8
	intensity $77
	note C#, 2
	note D_, 2
	note D#, 2
	note E_, 2
	note F_, 2
	note E_, 2
	note D#, 2
	note D_, 2
	note C#, 2
	note __, 6
	note E_, 8
	note E_, 1
	note __, 1
	note E_, 1
	note __, 1
	note E_, 1
	note __, 7
	note E_, 1
	note __, 1
	note E_, 1
	note __, 1
	octave 3
	note G#, 1
	note __, 3
	note G#, 1
	note __, 3
	octave 4
	note C#, 8
	intensity $87
	note D_, 2
	note D#, 2
	note E_, 2
	note F_, 2
	note F#, 2
	note F_, 2
	note E_, 2
	note D#, 2
	note D_, 2
	note __, 6
	note F_, 8
	note F_, 1
	note __, 1
	note F_, 1
	note __, 1
	note F_, 1
	note __, 7
	note F_, 1
	note __, 1
	note F_, 1
	note __, 1
	octave 3
	note A_, 1
	note __, 3
	note A_, 1
	note __, 3
	octave 4
	note D_, 8
	intensity $97
	note D#, 2
	note E_, 2
	note F_, 2
	note F#, 2
	note G_, 2
	note F#, 2
	note F_, 2
	note E_, 2
	note D#, 2
	note __, 6
	note F#, 8
	intensity $a7
	note G#, 8
	note A#, 8
	intensity $b7
	octave 5
	note D_, 8
	note D_, 2
	note __, 6
	octave 4
	note A#, 2
	note F#, 2
	note D#, 2
	octave 3
	note A#, 2
	octave 4
	note F#, 2
	note D#, 2
	octave 3
	note A#, 2
	note F#, 2
	octave 4
	note G#, 2
	note __, 2
	note D#, 12
	intensity $b1
	octave 6
	note C_, 2
	note C_, 2
	note C_, 8
	note C_, 2
	note C_, 2
	note C_, 4
	note C_, 4
	note C_, 4
	note C_, 4
	intensity $b7
	octave 4
	note A#, 2
	note F#, 2
	note D#, 2
	octave 3
	note A#, 2
	octave 4
	note F#, 2
	note D#, 2
	octave 3
	note A#, 2
	note F#, 2
	octave 4
	note F#, 2
	note __, 2
	note B_, 4
	note A#, 4
	note G#, 4
	note F#, 4
	note F_, 4
	note D#, 4
	note D_, 4
	note D#, 8
	note F#, 8
	octave 5
	note C_, 8
	note D#, 8
	octave 4
	note C#, 16
	note C#, 2
	note __, 2
	note D#, 2
	note __, 2
	note F_, 2
	note __, 2
	octave 3
	note G#, 2
	note __, 2
	octave 4
	note F_, 2
	note F#, 2
	note F_, 2
	note D#, 2
	note F_, 2
	intensity $67
	note E_, 1
	note D_, 1
	note C_, 1
	octave 3
	note B_, 1
	note A_, 1
	note G_, 1
	intensity $a1
	octave 4
	note C#, 2
	octave 2
	note G_, 2
	note G_, 2
	octave 4
	note C#, 2
	octave 2
	note G_, 2
	note G_, 2
	intensity $b7
	octave 4
	note D_, 4
	loopchannel 0, Music_KantoTrainerBattle_branch_eca88

Music_KantoTrainerBattle_Ch2:
	pitchoffset 1, B_
	vibrato $6, $36
	dutycycle $1
	notetype $c, $d1
	octave 4
	note A#, 4
	note A#, 4
	note A#, 4
	note A#, 4
	note A#, 4
	note A#, 4
	note A#, 4
	note G_, 1
	note G#, 1
	note G_, 1
	note F#, 1
	dutycycle $3
	intensity $62
Music_KantoTrainerBattle_branch_ecc04:
	octave 3
	note G_, 1
	note G#, 1
	note G_, 1
	note F#, 1
	loopchannel 14, Music_KantoTrainerBattle_branch_ecc04
	note G_, 1
	note G#, 1
	note G_, 1
	note F_, 1
	note D#, 1
	note D_, 1
	note C_, 1
	octave 2
	note B_, 1
	intensity $d7
	dutycycle $2
	note C_, 2
	octave 3
	note C_, 1
	note __, 1
	octave 2
	note C_, 1
	note __, 1
	octave 1
	note A#, 2
	octave 2
	note A#, 1
	note __, 1
	octave 1
	note A#, 1
	note __, 1
	note A_, 2
	octave 2
	note A_, 1
	note __, 1
	octave 1
	note A_, 1
	note __, 1
	note G#, 2
	octave 2
	note G#, 1
	note __, 1
	octave 1
	note G#, 1
	note __, 1
	note G_, 1
	note B_, 1
	octave 2
	note D_, 1
	note F_, 1
	note G_, 1
	note B_, 1
	octave 3
	note D_, 1
	note F_, 1
Music_KantoTrainerBattle_branch_ecc41:
	notetype $c, $d7
	octave 2
	note C_, 1
	note C_, 1
	octave 3
	note C_, 1
	note __, 1
	octave 2
	note G_, 1
	note __, 1
	octave 3
	note C_, 1
	note __, 1
	octave 2
	note C_, 2
	note B_, 1
	note __, 1
	note G_, 1
	note __, 1
	note B_, 1
	note __, 1
	note C_, 2
	note A#, 1
	note __, 1
	note G_, 1
	note __, 1
	note A#, 1
	note __, 1
	note C_, 2
	note A_, 1
	note __, 1
	note G#, 1
	note __, 1
	octave 3
	note C_, 1
	note __, 1
	octave 2
	note C#, 1
	note C#, 1
	note G#, 1
	note __, 1
	octave 3
	note C#, 2
	octave 2
	note C#, 2
	note G#, 1
	note __, 1
	octave 3
	note C_, 2
	octave 2
	note C#, 2
	note G#, 1
	note __, 1
	note A#, 2
	note C#, 1
	note C#, 1
	note F_, 1
	note __, 1
	note G#, 2
	octave 3
	note C#, 1
	note __, 1
	note F_, 2
	note G#, 1
	note __, 1
	note A#, 2
	octave 2
	note C_, 1
	note C_, 1
	octave 3
	note C_, 1
	note __, 1
	octave 2
	note G_, 1
	note __, 1
	octave 3
	note C_, 1
	note __, 1
	octave 2
	note C_, 2
	note B_, 1
	note __, 1
	note G_, 1
	note __, 1
	note B_, 1
	note __, 1
	note C_, 2
	note A#, 1
	note __, 1
	note G_, 1
	note __, 1
	note A#, 1
	note __, 1
	note C_, 2
	note A_, 1
	note __, 1
	note F_, 1
	note __, 1
	note A_, 1
	note __, 1
	octave 1
	note A#, 1
	note A#, 1
	octave 2
	note F_, 1
	note __, 1
	note A#, 2
	octave 1
	note A#, 2
	octave 2
	note F_, 1
	note __, 1
	note A_, 2
	octave 1
	note A#, 2
	octave 2
	note F_, 1
	note __, 1
	note G#, 2
	octave 1
	note A#, 1
	note A#, 1
	octave 2
	note F_, 1
	note __, 1
	note G_, 2
	note A#, 1
	note __, 1
	octave 3
	note D_, 2
	note F_, 1
	note __, 1
	note A#, 2
	octave 1
	note F_, 2
	octave 2
	note F_, 1
	note __, 1
	note C_, 1
	note __, 1
	note F_, 1
	note __, 1
	octave 1
	note F_, 2
	octave 2
	note E_, 1
	note __, 1
	note C_, 1
	note __, 1
	note E_, 1
	note __, 1
	octave 1
	note F_, 2
	octave 2
	note D#, 1
	note __, 1
	note C_, 1
	note __, 1
	note D#, 1
	note __, 1
	octave 1
	note F_, 2
	octave 2
	note D_, 1
	note __, 1
	note D#, 1
	note C_, 1
	octave 1
	note A#, 1
	note A_, 1
	note A#, 1
	note __, 1
	note A#, 1
	note __, 1
	octave 3
	note F_, 4
	octave 1
	note A#, 1
	note __, 1
	note A#, 1
	note __, 1
	octave 3
	note F#, 4
	octave 1
	note A#, 1
	note __, 1
	note A#, 1
	note __, 1
	octave 3
	note G_, 4
	octave 1
	note A#, 1
	note __, 1
	note A#, 1
	note __, 1
	octave 3
	note G#, 4
	octave 1
	note F_, 2
	octave 2
	note F_, 1
	note __, 1
	note C_, 1
	note __, 1
	note F_, 1
	note __, 1
	octave 1
	note F_, 2
	octave 2
	note E_, 1
	note __, 1
	note C_, 1
	note __, 1
	note E_, 1
	note __, 1
	octave 1
	note F_, 2
	octave 2
	note D#, 1
	note __, 1
	note C_, 1
	note __, 1
	note D#, 1
	note __, 1
	octave 1
	note F_, 2
	octave 2
	note D_, 1
	note __, 1
	note D#, 1
	note C_, 1
	octave 1
	note A#, 1
	note A_, 1
	note A#, 1
	note __, 1
	note A#, 1
	note __, 1
	octave 3
	note F_, 4
	octave 1
	note A#, 1
	note __, 1
	note A#, 1
	note __, 1
	octave 3
	note F#, 4
	octave 1
	note A#, 1
	note __, 1
	note A#, 1
	note __, 1
	octave 3
	note G_, 4
	octave 1
	note A#, 1
	note __, 1
	note A#, 1
	note __, 1
	octave 3
	note G#, 4
	vibrato $12, $24
	notetype $c, $78
	octave 4
	note G_, 16
	intensity $77
	note G_, 16
	notetype $6, $88
	note G#, 16
	intensity $87
	note G#, 15
	note G_, 1
	note G#, 7
	note A_, 1
	note A#, 3
	note A_, 1
	note G#, 8
	note G_, 4
	note F_, 6
	note __, 2
	notetype $c, $98
	note A_, 16
	intensity $97
	note A_, 16
	intensity $a7
	note A#, 16
	intensity $d7
	octave 5
	note D_, 8
	note F_, 8
	vibrato $4, $36
	octave 2
	note A#, 4
	note D#, 4
	note C_, 1
	note __, 1
	intensity $d8
	note G#, 6
	intensity $d7
	note G#, 16
	note A#, 4
	note D#, 4
	note D#, 1
	note __, 1
	octave 3
	note D#, 14
	octave 2
	note C_, 1
	note __, 1
	octave 3
	note D#, 2
	note __, 2
	notetype $6, $d7
	octave 2
	note C_, 1
	note __, 1
	note C_, 1
	note __, 1
	note C_, 2
	note __, 2
	note C_, 2
	note __, 2
	octave 3
	note G#, 8
	octave 4
	note F_, 2
	note F#, 2
	note F_, 2
	note D#, 2
	note F_, 2
	note __, 2
	note D#, 2
	note __, 2
	octave 3
	note F_, 2
	note __, 2
	note F#, 2
	note __, 2
	note G#, 2
	note __, 2
	note C#, 2
	note __, 2
	note G#, 2
	note A#, 2
	note G#, 2
	note F#, 2
	note G#, 2
	intensity $72
	note G_, 1
	note F_, 1
	note E_, 1
	note D_, 1
	note C_, 1
	octave 2
	note B_, 1
	intensity $c1
	octave 3
	note B_, 2
	octave 1
	note F#, 1
	note __, 1
	note F#, 1
	note __, 1
	octave 3
	note B_, 2
	octave 1
	note F#, 1
	note __, 1
	note F#, 1
	note __, 1
	intensity $d7
	octave 3
	note B_, 4
	loopchannel 0, Music_KantoTrainerBattle_branch_ecc41

Music_KantoTrainerBattle_Ch3:
	pitchoffset 1, B_
	vibrato $12, $23
	notetype $c, $15
	octave 2
	note A#, 1
	octave 4
	note A#, 1
	octave 3
	note A#, 2
	octave 2
	note A_, 1
	octave 4
	note A_, 1
	octave 3
	note A_, 2
	octave 2
	note G#, 1
	octave 4
	note G#, 1
	octave 3
	note G#, 2
	octave 2
	note G_, 1
	octave 4
	note G_, 1
	octave 3
	note G_, 2
	octave 2
	note F#, 1
	octave 4
	note F#, 1
	octave 3
	note F#, 2
	octave 2
	note F_, 1
	octave 4
	note F_, 1
	octave 3
	note F_, 2
	octave 2
	note E_, 1
	octave 4
	note E_, 1
	octave 3
	note E_, 2
	note D_, 1
	note F_, 1
	note B_, 1
	octave 4
	note D_, 1
	intensity $18
	octave 6
	note C_, 2
	octave 3
	note C_, 1
	note __, 1
	note C_, 1
	note __, 1
	octave 5
	note F_, 2
	octave 3
	note C_, 1
	note __, 1
	note C_, 1
	note __, 1
	octave 5
	note F#, 2
	octave 4
	note C_, 1
	note D#, 1
	octave 5
	note D#, 2
	note F_, 2
	note __, 2
	note F#, 2
	note __, 2
	octave 4
	note G_, 1
	note __, 1
	note A#, 1
	note __, 1
	note B_, 1
	note __, 1
	octave 5
	note D#, 2
	octave 3
	note C_, 1
	note __, 1
	note C_, 1
	note __, 1
	octave 5
	note F_, 2
	octave 3
	note C_, 1
	note __, 1
	note C_, 1
	note __, 1
	octave 5
	note F#, 2
	octave 4
	note C_, 1
	note D#, 1
	octave 5
	note D#, 2
	note F_, 2
	note __, 2
	note F#, 2
	note __, 2
	note G_, 1
	note __, 1
	note A#, 1
	note __, 1
	note B_, 1
	note __, 1
	octave 6
	note C_, 2
	note __, 4
	note D_, 2
	note __, 4
	note D#, 2
	note __, 2
	note C_, 2
	note D_, 2
	note __, 2
	note D#, 2
	note __, 2
	octave 5
	note G_, 2
	note A#, 2
	note B_, 2
Music_KantoTrainerBattle_branch_ece5a:
	notetype $c, $14
	octave 6
	note C_, 4
	notetype $6, $14
	octave 5
	note B_, 1
	note A#, 1
	note A_, 1
	note G#, 1
	notetype $c, $14
	note G_, 10
	note __, 2
	notetype $6, $14
	note G_, 1
	note G#, 1
	note A_, 1
	note A#, 1
	octave 6
	note C_, 6
	octave 5
	note A_, 1
	note G#, 1
	note G_, 8
	octave 6
	note C_, 7
	octave 5
	note B_, 1
	notetype $c, $14
	octave 6
	note C#, 16
	note C#, 8
	note F_, 4
	note G#, 1
	note F_, 1
	note C#, 1
	octave 5
	note G#, 1
	octave 6
	note C_, 4
	notetype $6, $14
	octave 5
	note B_, 1
	note A#, 1
	note A_, 1
	note G#, 1
	notetype $c, $14
	note G_, 10
	note __, 2
	notetype $6, $14
	note G_, 1
	note G#, 1
	note A_, 1
	note A#, 1
	octave 6
	note C_, 6
	octave 5
	note A_, 1
	note G#, 1
	note G_, 8
	octave 6
	note C_, 7
	octave 5
	note B_, 1
	note A#, 16
	note A#, 16
	note A#, 13
	note B_, 1
	octave 6
	note C_, 1
	note C#, 1
	note D_, 8
	note F_, 2
	note D_, 2
	octave 5
	note A#, 2
	note A_, 2
	notetype $c, $10
	note G#, 11
	intensity $14
	note C_, 1
	note F_, 1
	note __, 1
	note G#, 1
	note __, 1
	intensity $10
	octave 6
	note C_, 6
	notetype $6, $10
	octave 5
	note B_, 1
	note A#, 1
	note A_, 1
	note G#, 1
	note G#, 16
	notetype $c, $10
	note A#, 16
	intensity $25
	note D_, 1
	octave 4
	note A#, 1
	note F_, 1
	note A#, 1
	octave 5
	note F_, 1
	note D_, 1
	octave 4
	note A#, 1
	octave 5
	note D_, 1
	note A#, 1
	note F_, 1
	note D_, 1
	note F_, 1
	octave 6
	note D_, 2
	note C#, 1
	note C_, 1
	intensity $10
	octave 5
	note G#, 11
	intensity $14
	note C_, 1
	note F_, 1
	note __, 1
	note G#, 1
	note __, 1
	intensity $10
	octave 6
	note C_, 7
	notetype $6, $10
	note C#, 1
	note D_, 1
	notetype $c, $10
	note D#, 8
	note D_, 12
	note G#, 1
	note F_, 1
	intensity $25
	octave 5
	note A#, 1
	note F_, 1
	note G#, 1
	note G#, 1
	note G#, 1
	note __, 1
	note A#, 1
	note __, 1
	note G#, 2
	note G_, 2
	note F_, 2
	note D#, 2
	note F_, 2
	intensity $24
	octave 3
	note G_, 1
	octave 4
	note C_, 1
	octave 3
	note D#, 1
	octave 4
	note C_, 1
	octave 3
	note G_, 1
	octave 4
	note C_, 1
	octave 3
	note D#, 1
	octave 4
	note C_, 1
	octave 3
	note G_, 1
	octave 4
	note C_, 1
	octave 3
	note D#, 1
	octave 4
	note C_, 1
	octave 3
	note G_, 1
	octave 4
	note C_, 1
	octave 3
	note D#, 1
	octave 4
	note C_, 1
	octave 3
	note G_, 1
	octave 4
	note C_, 1
	octave 3
	note D#, 1
	octave 4
	note C_, 1
	octave 3
	note G_, 1
	octave 4
	note C_, 1
	octave 3
	note D#, 1
	octave 4
	note C_, 1
	octave 3
	note G_, 1
	octave 4
	note C_, 1
	octave 3
	note D#, 1
	octave 4
	note C_, 1
	octave 3
	note G_, 1
	octave 4
	note C_, 1
	octave 3
	note D#, 1
	octave 4
	note C_, 1
	octave 3
	note G#, 1
	octave 4
	note C#, 1
	octave 3
	note E_, 1
	octave 4
	note C#, 1
	octave 3
	note G#, 1
	octave 4
	note C#, 1
	octave 3
	note E_, 1
	octave 4
	note C#, 1
	octave 3
	note G#, 1
	octave 4
	note C#, 1
	octave 3
	note E_, 1
	octave 4
	note C#, 1
	octave 3
	note G#, 1
	octave 4
	note C#, 1
	octave 3
	note E_, 1
	octave 4
	note C#, 1
	octave 3
	note G#, 1
	octave 4
	note C#, 1
	octave 3
	note E_, 1
	octave 4
	note C#, 1
	octave 3
	note G#, 1
	octave 4
	note C#, 1
	octave 3
	note E_, 1
	octave 4
	note C#, 1
	octave 3
	note G#, 1
	octave 4
	note C#, 1
	octave 3
	note E_, 1
	octave 4
	note C#, 1
	octave 3
	note G#, 1
	octave 4
	note C#, 1
	octave 3
	note E_, 1
	octave 4
	note C#, 1
	intensity $14
	octave 3
	note A_, 1
	octave 4
	note D_, 1
	octave 3
	note F_, 1
	octave 4
	note D_, 1
	octave 3
	note A_, 1
	octave 4
	note D_, 1
	octave 3
	note F_, 1
	octave 4
	note D_, 1
	octave 3
	note A_, 1
	octave 4
	note D_, 1
	octave 3
	note F_, 1
	octave 4
	note D_, 1
	octave 3
	note A_, 1
	octave 4
	note D_, 1
	octave 3
	note F_, 1
	octave 4
	note D_, 1
	intensity $15
	octave 3
	note A_, 1
	octave 4
	note D_, 1
	octave 3
	note F_, 1
	octave 4
	note D_, 1
	octave 3
	note A_, 1
	octave 4
	note D_, 1
	octave 3
	note F_, 1
	octave 4
	note D_, 1
	octave 3
	note A_, 1
	octave 4
	note D_, 1
	octave 3
	note F_, 1
	octave 4
	note D_, 1
	octave 3
	note A_, 1
	octave 4
	note D_, 1
	octave 3
	note F_, 1
	octave 4
	note D_, 1
	intensity $15
	octave 3
	note A#, 1
	octave 4
	note D#, 1
	octave 3
	note F#, 1
	octave 4
	note D#, 1
	octave 3
	note A#, 1
	octave 4
	note D#, 1
	octave 3
	note F#, 1
	octave 4
	note D#, 1
	octave 3
	note A#, 1
	octave 4
	note D#, 1
	octave 3
	note F#, 1
	octave 4
	note D#, 1
	octave 3
	note A#, 1
	octave 4
	note D#, 1
	octave 3
	note F#, 1
	octave 4
	note D#, 1
	intensity $14
	octave 3
	note F_, 1
	note G#, 1
	note B_, 1
	octave 4
	note D_, 1
	octave 3
	note G#, 1
	note B_, 1
	octave 4
	note D_, 1
	note F_, 1
	octave 3
	note B_, 1
	octave 4
	note D_, 1
	note F_, 1
	note G#, 1
	note D_, 1
	note F_, 1
	note G#, 1
	octave 5
	note D_, 1
	octave 6
	note D#, 4
	octave 5
	note A#, 4
	octave 6
	note C#, 1
	note __, 1
	note C_, 6
	octave 4
	note C_, 1
	note D#, 1
	note G#, 1
	octave 5
	note C_, 1
	note D#, 1
	note G#, 1
	octave 6
	note C_, 1
	note D#, 1
	note G#, 1
	note D#, 1
	note C_, 1
	octave 5
	note G#, 1
	note D#, 1
	note C_, 1
	octave 4
	note G#, 1
	note D#, 1
	octave 6
	note D#, 4
	octave 5
	note A#, 4
	note B_, 1
	note __, 1
	octave 6
	note F#, 12
	note F_, 1
	note F#, 1
	note G#, 16
	note F_, 8
	note C#, 1
	note __, 1
	note D#, 1
	note __, 1
	note F_, 1
	note __, 1
	octave 5
	note G#, 1
	note __, 1
	octave 6
	note F_, 1
	note F#, 1
	note F_, 1
	note D#, 1
	note F_, 1
	notetype $6, $24
	note E_, 1
	note D_, 1
	note C_, 1
	octave 5
	note B_, 1
	note A_, 1
	note G_, 1
	intensity $14
	note G_, 2
	octave 3
	note G_, 1
	note __, 1
	note G_, 1
	note __, 1
	octave 5
	note G_, 2
	octave 3
	note G_, 1
	note __, 1
	note G_, 1
	note __, 1
	intensity $14
	octave 5
	note G_, 4
	loopchannel 0, Music_KantoTrainerBattle_branch_ece5a
