Music_LakeOfRage:
	channel_count 4
	channel 1, Music_LakeOfRage_Ch1
	channel 2, Music_LakeOfRage_Ch2
	channel 3, Music_LakeOfRage_Ch3
	channel 4, Music_LakeOfRage_Ch4

Music_LakeOfRage_Ch1:
	tempo 144
	volume 7, 7
	duty_cycle 3
	pitch_offset 2
	vibrato 8, 2, 2
	stereo_panning TRUE, FALSE
	note_type 12, 11, 4
	octave 3
	note D_, 6
	note D_, 10
	note D_, 6
	note D_, 6
	note E_, 4
.mainloop:
	volume_envelope 11, 5
	note F#, 6
	note E_, 6
	note D_, 4
	octave 4
	note D_, 6
	note C_, 4
	note E_, 2
	note D_, 4
	octave 3
	note B_, 6
	note G_, 2
	note_type 8, 11, 5
	note D_, 4
	note G_, 4
	note B_, 4
	note_type 12, 11, 4
	note D_, 3
	note F#, 1
	volume_envelope 11, 7
	note A_, 8
	note F#, 4
	note A_, 3
	octave 4
	note C#, 1
	note D_, 12
	note_type 8, 11, 4
	octave 3
	note C_, 4
	octave 2
	note B_, 4
	note A_, 4
	note_type 8, 11, 7
	note A_, 12
	note_type 12, 11, 7
	octave 3
	note C_, 12
	volume_envelope 11, 4
	note E_, 4
	note D_, 2
	volume_envelope 11, 7
	octave 2
	note A_, 10
	volume_envelope 11, 4
	octave 3
	note E_, 4
	note D_, 3
	note E_, 1
	volume_envelope 11, 7
	note F#, 8
	note D_, 6
	note C_, 1
	note E_, 1
	note C_, 8
	note E_, 6
	note E_, 1
	note G_, 1
	note E_, 8
	note G_, 6
	note F#, 1
	note G_, 1
	volume_envelope 10, 0
	note A_, 7
	volume_envelope 10, 7
	note A_, 7
	note A_, 1
	octave 4
	note C_, 1
	volume_envelope 10, 0
	note D_, 6
	volume_envelope 10, 7
	note D_, 6
	sound_loop 0, .mainloop

Music_LakeOfRage_Ch2:
	duty_cycle 3
	vibrato 32, 4, 4
	stereo_panning TRUE, TRUE
	note_type 12, 9, 0
	octave 3
	note G_, 8
	volume_envelope 9, 7
	note G_, 8
	volume_envelope 10, 0
	note A_, 8
	volume_envelope 10, 7
	note A_, 8
.mainloop:
	note_type 8, 12, 7
	octave 4
	note D_, 16
	octave 3
	note A_, 4
	octave 4
	note D_, 4
	note A_, 16
	octave 5
	note C_, 4
	octave 4
	note B_, 4
	note_type 12, 12, 7
	note G_, 12
	note B_, 4
	note A_, 3
	note G_, 1
	volume_envelope 11, 0
	note F#, 12
	volume_envelope 11, 7
	note F#, 16
	note_type 8, 12, 3
	octave 3
	note G_, 4
	note F#, 4
	note E_, 4
	note C_, 15
	note_type 12, 12, 3
	octave 4
	note C_, 1
	note E_, 1
	note G_, 1
	rest 1
	note E_, 1
	note G_, 1
	volume_envelope 12, 5
	octave 5
	note C_, 10
	volume_envelope 12, 3
	octave 4
	note A_, 4
	note G_, 4
	note F#, 4
	note E_, 2
	note_type 8, 12, 3
	note D_, 4
	note E_, 4
	note F#, 4
	note_type 8, 12, 7
	note A_, 12
	note_type 8, 12, 3
	octave 3
	note G_, 4
	note F#, 4
	note E_, 4
	octave 4
	note C_, 4
	octave 3
	note B_, 4
	note A_, 4
	octave 4
	note E_, 4
	note D_, 4
	note C_, 4
	note G_, 4
	note F#, 4
	note E_, 4
	note_type 8, 12, 7
	note F#, 16
	note D_, 4
	note F#, 4
	note_type 12, 12, 7
	note A_, 16
	sound_loop 0, .mainloop

Music_LakeOfRage_Ch3:
	stereo_panning FALSE, TRUE
	note_type 12, 1, 6
	octave 3
	note G_, 4
	rest 2
	note G_, 4
	rest 6
	note F#, 4
	rest 2
	note F#, 4
	rest 2
	note E_, 4
.mainloop:
	octave 3
	note D_, 4
	octave 2
	note A_, 2
	octave 3
	note D_, 4
	octave 2
	note A_, 2
	octave 3
	note D_, 2
	note E_, 2
	note F_, 4
	note C_, 2
	note F_, 4
	note C_, 2
	note F_, 2
	note F#, 2
	note G_, 4
	note D_, 2
	note G_, 4
	note D_, 2
	note G_, 2
	note B_, 2
	note A_, 2
	note D_, 2
	note F#, 2
	note A_, 4
	note D_, 2
	note E_, 2
	note F#, 2
	note A_, 2
	note F#, 2
	note A_, 2
	octave 4
	note D_, 4
	octave 3
	note A_, 2
	octave 4
	note D_, 2
	note F#, 2
	octave 3
	note E_, 4
	note C_, 2
	note E_, 4
	note C_, 2
	note E_, 2
	note C_, 2
	note G_, 4
	note C_, 2
	note G_, 4
	note C_, 2
	note G_, 2
	note C_, 2
	note F#, 4
	note D_, 2
	note F#, 4
	note D_, 2
	note F#, 2
	note D_, 2
	note A_, 2
	note D_, 2
	note F#, 2
	octave 4
	note D_, 4
	octave 3
	note D_, 2
	note E_, 2
	note F#, 2
	note G_, 4
	note C_, 2
	note G_, 4
	note C_, 2
	note G_, 2
	note C_, 2
	note G_, 4
	note C_, 2
	note G_, 4
	note C_, 2
	note G_, 2
	note C_, 2
	note F#, 4
	note D_, 2
	note F#, 4
	note D_, 2
	note F#, 2
	note D_, 2
	note D_, 4
	octave 2
	note A_, 2
	octave 3
	note D_, 4
	octave 2
	note A_, 2
	octave 3
	note D_, 2
	octave 2
	note A_, 2
	sound_loop 0, .mainloop

Music_LakeOfRage_Ch4:
	stereo_panning TRUE, FALSE
	toggle_noise 3
	drum_speed 12
.mainloop:
	drum_note 3, 2
	drum_note 3, 1
	drum_note 3, 1
	drum_note 8, 2
	drum_note 3, 2
	drum_note 3, 1
	drum_note 3, 1
	drum_note 7, 6
	drum_note 3, 2
	drum_note 3, 1
	drum_note 3, 1
	drum_note 8, 2
	drum_note 3, 2
	drum_note 3, 1
	drum_note 3, 1
	drum_note 7, 3
	drum_note 3, 1
	drum_note 3, 1
	drum_note 3, 1
	sound_loop 0, .mainloop
