Music_ProfOaksPokemonTalk:
	channel_count 3
	channel 1, Music_ProfOaksPokemonTalk_Ch1
	channel 2, Music_ProfOaksPokemonTalk_Ch2
	channel 3, Music_ProfOaksPokemonTalk_Ch3

	db $3 ; unused

Music_ProfOaksPokemonTalk_Ch1:
	tempo 164
	volume 7, 7
	stereo_panning FALSE, TRUE
	vibrato 6, 2, 5
	duty_cycle 1
	note_type 12, 9, 4
	rest 8
	octave 3
	note B_, 1
	octave 4
	note C#, 1
	note D#, 1
	note E_, 1
	note C#, 1
	note D#, 1
	note E_, 1
	note F#, 1
.mainloop:
	note D#, 6
	note C#, 1
	octave 3
	note B_, 1
	note F#, 1
	note G#, 1
	note F#, 1
	rest 1
	note F#, 1
	rest 1
	note A_, 1
	note A#, 1
	note B_, 2
	note F#, 1
	note G#, 1
	note F#, 1
	rest 1
	note F#, 1
	rest 1
	note F#, 1
	note G#, 1
	note F#, 1
	rest 1
	note A#, 4
	octave 4
	note D#, 6
	note C#, 1
	octave 3
	note B_, 1
	note G#, 1
	note B_, 1
	note D#, 1
	rest 1
	note D#, 1
	rest 1
	note A#, 1
	note B_, 1
	note F#, 1
	note A#, 1
	note D#, 1
	rest 1
	note D#, 1
	rest 1
	note F#, 1
	note A#, 1
	note D#, 1
	rest 1
	note D#, 1
	rest 1
	note A#, 4
	note E_, 2
	octave 2
	note B_, 1
	octave 3
	note E_, 1
	note G#, 2
	note E_, 1
	note G#, 1
	note B_, 1
	octave 4
	note C#, 1
	octave 3
	note B_, 1
	octave 4
	note C#, 1
	octave 3
	note B_, 4
	note F#, 2
	note D#, 1
	note F#, 1
	note B_, 2
	note F#, 1
	note B_, 1
	octave 4
	note D#, 1
	note E_, 1
	note D#, 1
	note E_, 1
	note D#, 4
	octave 3
	note A#, 2
	octave 4
	note C#, 2
	note E_, 2
	note F#, 2
	note C#, 2
	note E_, 2
	note F#, 2
	note E_, 2
	note C#, 2
	octave 3
	note A#, 1
	rest 1
	note B_, 1
	rest 1
	octave 4
	note C#, 1
	rest 1
	note D#, 1
	rest 1
	note E_, 1
	rest 1
	note F_, 1
	rest 1
	note F#, 1
	rest 1
	sound_loop 0, .mainloop

Music_ProfOaksPokemonTalk_Ch2:
	vibrato 8, 2, 4
	duty_cycle 3
	note_type 12, 10, 7
	stereo_panning TRUE, TRUE
	octave 3
	note B_, 1
	octave 4
	note C#, 1
	note D#, 1
	note E_, 1
	note C#, 1
	note D#, 1
	note E_, 1
	note F#, 1
	note D#, 1
	note E_, 1
	note F#, 1
	note G#, 1
	note E_, 1
	note F#, 1
	note G#, 1
	note A#, 1
.mainloop:
	note B_, 6
	note A#, 1
	note G#, 1
	note F#, 6
	note F_, 1
	note F#, 1
	note G#, 4
	note F#, 8
	note F#, 4
	note G#, 6
	note F#, 1
	note E_, 1
	note D#, 6
	note D_, 1
	note D#, 1
	note E_, 4
	note D#, 8
	note D#, 4
	note E_, 6
	octave 3
	note B_, 1
	octave 4
	note E_, 1
	note G#, 8
	note F#, 6
	note D#, 1
	note F#, 1
	note B_, 8
	note A#, 4
	note B_, 2
	note A#, 2
	note G#, 4
	note A#, 2
	note G#, 2
	note F#, 2
	note C#, 1
	rest 1
	note D#, 1
	rest 1
	note E_, 1
	rest 1
	note F#, 1
	rest 1
	note G_, 1
	rest 1
	note G#, 1
	rest 1
	note A#, 1
	rest 1
	sound_loop 0, .mainloop

Music_ProfOaksPokemonTalk_Ch3:
	vibrato 6, 3, 8
	note_type 12, 2, 5
	stereo_panning TRUE, FALSE
	rest 8
	octave 3
	note F#, 1
	note E_, 1
	note D#, 1
	note C#, 1
	note E_, 1
	note D#, 1
	note C#, 1
	octave 2
	note A#, 1
.mainloop:
	note B_, 6
	octave 3
	note D#, 1
	note F#, 1
	note B_, 6
	note D#, 1
	note C#, 1
	octave 2
	note B_, 4
	octave 3
	note B_, 8
	octave 4
	note D#, 4
	octave 3
	note G#, 6
	note D#, 1
	note G#, 1
	octave 2
	note G#, 6
	octave 3
	note D#, 1
	note G#, 1
	note D#, 6
	note F#, 2
	note A#, 2
	note G#, 2
	note F#, 2
	note D#, 2
	note E_, 2
	rest 4
	note E_, 1
	note E_, 1
	note E_, 1
	rest 1
	note E_, 1
	rest 1
	note B_, 4
	note F#, 2
	rest 4
	note F#, 1
	note F#, 1
	octave 2
	note B_, 1
	rest 1
	note B_, 1
	rest 1
	octave 3
	note B_, 4
	note F#, 2
	octave 4
	note F#, 2
	octave 3
	note E_, 2
	octave 4
	note E_, 2
	octave 3
	note C#, 2
	octave 4
	note C#, 2
	octave 2
	note A#, 2
	octave 3
	note A#, 2
	octave 2
	note F#, 2
	octave 3
	note A#, 1
	rest 1
	note G#, 1
	rest 1
	note F#, 1
	rest 1
	note E_, 1
	rest 1
	note D#, 1
	rest 1
	note C#, 1
	rest 1
	octave 2
	note A#, 1
	rest 1
	sound_loop 0, .mainloop
