Music_SuicuneBattle:
	channel_count 3
	channel 1, Music_SuicuneBattle_Ch1
	channel 2, Music_SuicuneBattle_Ch2
	channel 3, Music_SuicuneBattle_Ch3

Music_SuicuneBattle_Ch1:
	tempo 101
	volume 7, 7
	duty_cycle 3
	pitch_offset 2
	vibrato 18, 1, 5
	note_type 12, 11, 7
	octave 4
	note A_, 1
	note G#, 1
	note G_, 4
	note E_, 2
	note D#, 1
	note D_, 1
	note C#, 4
	octave 3
	note A#, 2
	note A_, 1
	note G#, 1
	note G_, 4
	note E_, 2
	note D#, 1
	note D_, 1
	note C#, 4
	octave 2
	note A#, 2
	note_type 12, 11, 2
	note A_, 2
	note A_, 4
	note A_, 2
	note A_, 2
	note A_, 4
	note A_, 2
	note A_, 2
	note A_, 4
	note A_, 2
	note A_, 2
	note A_, 2
	note_type 12, 11, 3
	octave 4
	note F_, 4
	note E_, 2
	note_type 12, 11, 2
	octave 2
	note A_, 4
	note A_, 2
	note A_, 2
	note A_, 4
	note A_, 2
	note A_, 2
	note A_, 4
	note A_, 2
	note A_, 2
	note A_, 2
	note_type 12, 11, 3
	octave 4
	note F_, 4
	note E_, 2
	note_type 12, 11, 2
	octave 2
	note A_, 4
	note A_, 2
	note A_, 2
	note A_, 4
	note A_, 2
	note A_, 2
	note A_, 4
	note A_, 2
	note A_, 2
	note A_, 2
	note_type 12, 11, 3
	octave 4
	note F_, 4
	note E_, 2
	note_type 12, 11, 2
	octave 2
	note A_, 4
	note A_, 2
	note A_, 2
	note A_, 4
	note A_, 2
	note A_, 2
	note A_, 4
	note A_, 2
	note A_, 2
	note A_, 2
	note A_, 1
	note B_, 1
	octave 3
	note E_, 1
	note G#, 1
.mainloop:
	note_type 12, 11, 4
	octave 2
	note A_, 2
	note B_, 2
	note E_, 2
	octave 3
	note E_, 4
	octave 2
	note B_, 2
	note A_, 2
	note E_, 2
	note D_, 2
	note E_, 2
	note D_, 2
	note A_, 4
	note E_, 2
	note D_, 2
	note E_, 2
	octave 3
	note D_, 2
	octave 2
	note A_, 2
	octave 3
	note D_, 2
	note E_, 2
	note A_, 2
	note E_, 2
	note D_, 2
	octave 2
	note A_, 2
	octave 3
	note D_, 2
	note E_, 2
	note A_, 2
	note E_, 2
	note D_, 2
	octave 2
	note A_, 2
	octave 3
	note D_, 2
	note E_, 2
	note C_, 2
	note D_, 2
	octave 2
	note G_, 2
	octave 3
	note G_, 4
	note D_, 2
	note C_, 2
	octave 2
	note G_, 2
	octave 3
	note C_, 2
	note D_, 2
	octave 2
	note G_, 2
	octave 3
	note F_, 4
	note E_, 2
	note D_, 2
	note F_, 2
	note G_, 2
	note E_, 2
	octave 2
	note G_, 2
	octave 3
	note E_, 2
	note G_, 2
	note A_, 6
	note G_, 4
	note F_, 4
	note E_, 2
	note D_, 6
	octave 2
	note A_, 2
	note B_, 2
	note E_, 2
	octave 3
	note E_, 4
	octave 2
	note B_, 2
	note A_, 2
	note E_, 2
	note D_, 2
	note E_, 2
	note D_, 2
	note A_, 4
	note E_, 2
	note D_, 2
	note E_, 2
	octave 3
	note D_, 2
	octave 2
	note A_, 2
	octave 3
	note D_, 2
	note E_, 2
	note A_, 2
	note E_, 2
	note D_, 2
	octave 2
	note A_, 2
	octave 3
	note D_, 2
	note E_, 2
	note A_, 2
	note E_, 2
	note D_, 2
	octave 2
	note A_, 2
	octave 3
	note D_, 2
	note E_, 2
	note C_, 2
	note D_, 2
	octave 2
	note G_, 2
	octave 3
	note G_, 4
	note D_, 2
	note C_, 2
	octave 2
	note G_, 2
	octave 3
	note C_, 2
	note D_, 2
	octave 2
	note G_, 2
	octave 3
	note F_, 4
	note E_, 2
	note D_, 2
	note F_, 2
	octave 4
	note C_, 2
	octave 3
	note G_, 2
	note C_, 2
	note A_, 4
	note G_, 2
	note F_, 2
	note A_, 2
	note G_, 2
	note A_, 2
	note C_, 2
	octave 4
	note C_, 4
	octave 3
	note A_, 2
	note G_, 2
	note C_, 2
	note_type 12, 11, 3
	octave 2
	note B_, 2
	octave 3
	note C_, 2
	rest 2
	note E_, 4
	note D_, 2
	note C_, 2
	octave 2
	note B_, 2
	note B_, 2
	octave 3
	note C_, 2
	note E_, 2
	note D_, 2
	note C_, 2
	octave 2
	note B_, 2
	note A_, 2
	note B_, 2
	octave 3
	note C_, 2
	octave 2
	note G_, 2
	rest 2
	note_type 12, 11, 6
	octave 3
	note G_, 10
	note_type 12, 11, 3
	note C_, 2
	octave 2
	note G_, 2
	rest 2
	note_type 12, 11, 7
	octave 3
	note G_, 10
	note_type 12, 11, 3
	octave 2
	note B_, 2
	octave 3
	note C_, 2
	rest 2
	note E_, 4
	note D_, 2
	note C_, 2
	octave 2
	note B_, 2
	note B_, 2
	octave 3
	note C_, 2
	note E_, 2
	note D_, 2
	note C_, 2
	octave 2
	note B_, 2
	note A_, 2
	note B_, 2
	octave 3
	note G_, 2
	note C_, 2
	octave 4
	note C_, 2
	octave 3
	note G_, 2
	note F#, 2
	octave 2
	note B_, 2
	octave 3
	note B_, 2
	note F#, 2
	note E_, 2
	octave 2
	note A_, 2
	octave 3
	note A_, 2
	note E_, 2
	note C_, 2
	note G_, 2
	octave 4
	note C_, 2
	octave 3
	note G_, 2
	note_type 12, 11, 2
	octave 2
	note B_, 2
	note B_, 6
	note B_, 2
	note B_, 6
	note B_, 2
	note B_, 6
	note B_, 2
	note_type 12, 11, 4
	octave 3
	note C_, 6
	note_type 12, 11, 2
	octave 2
	note B_, 2
	note B_, 2
	note_type 12, 11, 5
	octave 1
	note F#, 4
	note_type 12, 11, 2
	octave 2
	note B_, 2
	note B_, 2
	note_type 12, 11, 5
	octave 1
	note F#, 4
	note_type 12, 11, 2
	octave 2
	note B_, 2
	note B_, 2
	note_type 12, 11, 5
	octave 1
	note F#, 4
	note_type 12, 11, 2
	octave 2
	note B_, 2
	octave 3
	note C_, 2
	octave 2
	note B_, 1
	octave 3
	note F#, 1
	note A_, 1
	octave 4
	note C_, 1
	note_type 12, 11, 2
	octave 3
	note B_, 2
	note B_, 2
	note_type 12, 11, 5
	octave 1
	note F#, 4
	note_type 12, 11, 2
	octave 3
	note B_, 2
	note B_, 2
	note_type 12, 11, 5
	octave 1
	note F#, 4
	note_type 12, 11, 2
	octave 3
	note B_, 2
	note B_, 2
	note_type 12, 11, 5
	octave 1
	note F#, 4
	note_type 12, 11, 2
	octave 3
	note B_, 2
	note_type 12, 11, 5
	octave 4
	note C_, 6
	note_type 12, 11, 2
	octave 3
	note B_, 2
	note B_, 2
	note_type 12, 11, 4
	octave 1
	note F#, 4
	note_type 12, 11, 2
	octave 3
	note B_, 2
	note B_, 2
	note_type 12, 11, 4
	octave 1
	note F#, 4
	note_type 12, 11, 2
	octave 3
	note B_, 2
	note B_, 2
	note_type 12, 11, 4
	octave 1
	note F#, 4
	note_type 12, 11, 2
	octave 3
	note B_, 2
	note_type 12, 11, 5
	octave 4
	note C_, 6
	note_type 12, 11, 7
	octave 2
	note B_, 8
	note E_, 8
	octave 3
	note C_, 8
	octave 2
	note A_, 8
	note B_, 8
	note E_, 8
	note F_, 10
	note C_, 2
	note D_, 2
	note C_, 2
	note_type 12, 10, 0
	octave 1
	note F#, 8
	note B_, 8
	note G_, 8
	octave 2
	note C_, 8
	octave 1
	note B_, 8
	note E_, 8
	note F_, 8
	note_type 12, 10, 7
	note F_, 8
	rest 16
	rest 16
	rest 16
	rest 16
	rest 16
	rest 16
	rest 16
	rest 16
	rest 16
	rest 16
	rest 16
	rest 16
	note_type 12, 11, 2
	rest 4
	octave 3
	note D_, 8
	note D_, 8
	note D_, 8
	note D_, 8
	note D_, 8
	note D_, 8
	note D_, 8
	note D_, 8
	note F_, 8
	note F_, 8
	note F_, 8
	note F_, 8
	note F_, 8
	note F_, 8
	note F_, 8
	note F_, 4
	note E_, 8
	rest 16
	rest 16
	rest 16
	rest 16
	rest 16
	rest 16
	rest 16
	rest 16
	rest 16
	rest 16
	vibrato 8, 2, 4
	duty_cycle 2
	note_type 12, 9, 6
	octave 4
	note E_, 6
	note F#, 6
	octave 3
	note A_, 4
	octave 4
	note A_, 16
	vibrato 18, 1, 5
	duty_cycle 3
	sound_loop 0, .mainloop

Music_SuicuneBattle_Ch2:
	duty_cycle 3
	vibrato 20, 3, 4
	pitch_offset 1
	note_type 12, 12, 3
	octave 5
	note E_, 1
	octave 4
	note E_, 1
	note A_, 2
	octave 5
	note E_, 1
	octave 4
	note E_, 1
	note A_, 2
	octave 5
	note E_, 1
	octave 4
	note E_, 1
	note A_, 2
	octave 5
	note E_, 1
	octave 4
	note E_, 1
	note A_, 2
	octave 5
	note E_, 1
	octave 4
	note E_, 1
	note A_, 2
	octave 5
	note E_, 1
	octave 4
	note E_, 1
	note A_, 2
	octave 5
	note E_, 1
	octave 4
	note E_, 1
	note A_, 2
	octave 5
	note E_, 1
	octave 4
	note E_, 1
	note A_, 6
	note_type 12, 12, 2
	octave 2
	note E_, 8
	note E_, 8
	note E_, 8
	note_type 12, 12, 3
	octave 4
	note A#, 4
	note_type 12, 12, 2
	note A_, 4
	octave 2
	note E_, 8
	note E_, 8
	note E_, 8
	note_type 12, 12, 3
	octave 4
	note A#, 4
	note_type 12, 12, 2
	note A_, 4
	octave 4
	note E_, 8
	note E_, 8
	note E_, 8
	note_type 12, 12, 3
	octave 4
	note A#, 4
	note_type 12, 12, 2
	note A_, 4
	octave 4
	note E_, 8
	note E_, 8
	note E_, 8
	note E_, 4
.mainloop:
	note_type 12, 12, 7
	octave 3
	note A_, 8
	note B_, 8
	note D_, 8
	note_type 12, 11, 0
	octave 4
	note D_, 8
	note_type 12, 11, 6
	note D_, 8
	vibrato 16, 2, 4
	duty_cycle 2
	note_type 12, 10, 4
	octave 5
	note A_, 6
	note B_, 6
	note D_, 4
	octave 6
	note D_, 8
	vibrato 20, 3, 4
	duty_cycle 3
	note_type 12, 12, 7
	octave 4
	note C_, 8
	note D_, 8
	octave 3
	note G_, 8
	octave 4
	note F_, 8
	note_type 12, 11, 0
	note E_, 10
	note_type 12, 11, 7
	note E_, 6
	note_type 12, 10, 5
	octave 2
	note G_, 4
	note A_, 4
	note G_, 4
	note B_, 4
	note_type 12, 12, 7
	octave 3
	note A_, 8
	note B_, 8
	note D_, 8
	note_type 12, 12, 7
	octave 4
	note D_, 8
	note_type 12, 4, -4
	note D_, 4
	note_type 12, 12, 6
	note D_, 4
	note_type 12, 10, 4
	vibrato 8, 2, 4
	duty_cycle 2
	octave 5
	note A_, 6
	note B_, 6
	note D_, 4
	octave 6
	note D_, 8
	vibrato 20, 3, 4
	note_type 12, 12, 7
	duty_cycle 3
	octave 4
	note C_, 8
	note D_, 8
	octave 3
	note G_, 8
	octave 4
	note F_, 8
	note_type 12, 4, -4
	note E_, 8
	note_type 12, 12, 7
	note E_, 8
	note_type 12, 12, 6
	note C_, 8
	note G_, 8
	note_type 12, 12, 2
	octave 3
	note F#, 2
	note G_, 2
	rest 2
	note B_, 4
	note A_, 2
	note G_, 2
	note F#, 2
	note F#, 2
	note G_, 2
	note B_, 2
	note A_, 2
	note G_, 2
	note F#, 2
	note E_, 2
	note F#, 2
	note G_, 2
	note C_, 2
	rest 2
	note_type 12, 12, 7
	octave 4
	note C_, 10
	note_type 12, 12, 3
	octave 4
	note G_, 2
	note C_, 2
	rest 2
	note_type 12, 12, 7
	octave 5
	note C_, 10
	note_type 12, 12, 3
	octave 4
	note F#, 2
	note G_, 2
	rest 2
	note B_, 4
	note A_, 2
	note G_, 2
	note F#, 2
	note F#, 2
	note G_, 2
	note B_, 2
	note A_, 2
	note G_, 2
	note F#, 2
	note E_, 2
	note F#, 2
	note_type 12, 12, 7
	note G_, 8
	note F#, 8
	note E_, 8
	note G_, 8
	note_type 12, 12, 2
	octave 3
	note F#, 2
	note F#, 6
	note F#, 2
	note F#, 6
	note F#, 2
	note F#, 6
	note F#, 2
	note_type 12, 11, 7
	note G_, 6
	note_type 12, 12, 2
	note F#, 2
	note F#, 2
	note_type 12, 12, 7
	octave 1
	note B_, 4
	note_type 12, 12, 2
	octave 3
	note F#, 2
	note F#, 2
	note_type 12, 12, 7
	octave 1
	note B_, 4
	note_type 12, 12, 2
	octave 3
	note F#, 2
	note F#, 2
	note_type 12, 12, 7
	octave 1
	note B_, 4
	note_type 12, 12, 2
	octave 3
	note F#, 2
	note_type 12, 12, 7
	note G_, 6
	note_type 12, 12, 2
	octave 4
	note F#, 2
	note F#, 2
	note_type 12, 12, 7
	octave 1
	note B_, 4
	note_type 12, 12, 2
	octave 4
	note F#, 2
	note F#, 2
	note_type 12, 12, 7
	octave 1
	note B_, 4
	note_type 12, 12, 2
	octave 4
	note F#, 2
	note F#, 2
	note_type 12, 12, 7
	octave 1
	note B_, 4
	note_type 12, 12, 2
	octave 4
	note F#, 2
	note_type 12, 12, 7
	note G_, 6
	note_type 12, 12, 2
	note F#, 2
	note F#, 2
	note_type 12, 12, 7
	octave 1
	note B_, 4
	note_type 12, 12, 2
	octave 4
	note F#, 2
	note F#, 2
	note_type 12, 12, 7
	octave 1
	note B_, 4
	note_type 12, 12, 2
	octave 4
	note F#, 2
	note F#, 2
	note_type 12, 12, 7
	octave 1
	note B_, 4
	note_type 12, 12, 2
	octave 4
	note F#, 2
	note_type 12, 12, 7
	note G_, 6
	note_type 12, 11, 0
	octave 3
	note F#, 8
	octave 2
	note B_, 8
	octave 3
	note G_, 8
	note E_, 8
	note F#, 8
	octave 2
	note B_, 8
	octave 3
	note C_, 8
	note_type 12, 11, 7
	octave 3
	note C_, 8
	note_type 12, 12, 7
	octave 1
	note B_, 8
	octave 2
	note E_, 8
	note C_, 8
	note F_, 8
	note E_, 8
	octave 1
	note B_, 8
	note_type 12, 11, 0
	octave 2
	note C_, 10
	note_type 12, 11, 7
	octave 2
	note C_, 6
	note_type 12, 12, 3
	octave 1
	note B_, 2
	octave 2
	note E_, 2
	octave 1
	note F_, 2
	octave 2
	note F_, 4
	note E_, 2
	octave 1
	note B_, 2
	note F_, 2
	note B_, 2
	octave 2
	note E_, 2
	note F_, 2
	note E_, 2
	octave 1
	note B_, 2
	note F_, 2
	note B_, 2
	octave 2
	note E_, 2
	octave 1
	note B_, 2
	octave 2
	note E_, 2
	octave 1
	note F_, 2
	octave 2
	note F_, 4
	note E_, 2
	octave 1
	note B_, 2
	note F_, 2
	note B_, 2
	octave 2
	note E_, 2
	note F_, 2
	note E_, 2
	octave 1
	note B_, 2
	note F_, 2
	note B_, 2
	octave 2
	note E_, 2
	note B_, 2
	octave 3
	note E_, 2
	octave 2
	note F_, 2
	octave 3
	note F_, 4
	note E_, 2
	octave 2
	note B_, 2
	note F_, 2
	note B_, 2
	octave 3
	note E_, 2
	note F_, 2
	note E_, 2
	octave 2
	note B_, 2
	note F_, 2
	note B_, 2
	octave 3
	note E_, 2
	octave 2
	note B_, 2
	octave 3
	note E_, 2
	octave 2
	note F_, 2
	octave 3
	note F_, 4
	note E_, 2
	octave 2
	note B_, 2
	note F_, 2
	note B_, 2
	octave 3
	note E_, 2
	note F_, 2
	note E_, 2
	octave 2
	note B_, 2
	note F_, 2
	note B_, 2
	octave 3
	note E_, 2
	note D_, 2
	note G_, 2
	octave 2
	note G#, 2
	octave 3
	note G#, 4
	note G_, 2
	note D_, 2
	octave 2
	note G#, 2
	octave 3
	note D_, 2
	note G_, 2
	note G#, 2
	note G_, 2
	note D_, 2
	octave 2
	note G#, 2
	octave 3
	note D_, 2
	note G_, 2
	note D_, 2
	note G_, 2
	octave 2
	note G#, 2
	octave 3
	note G#, 4
	note G_, 2
	note D_, 2
	octave 2
	note G#, 2
	octave 3
	note D_, 2
	note G_, 2
	note G#, 2
	note G_, 2
	note D_, 2
	octave 2
	note G#, 2
	octave 3
	note D_, 2
	note G_, 2
	note B_, 2
	octave 4
	note E_, 2
	octave 3
	note F_, 2
	octave 4
	note F_, 4
	note E_, 2
	octave 3
	note B_, 2
	note F_, 2
	note B_, 2
	octave 4
	note E_, 2
	note F_, 2
	note E_, 2
	octave 3
	note B_, 2
	note F_, 2
	note B_, 2
	octave 4
	note E_, 2
	octave 3
	note B_, 2
	octave 4
	note E_, 2
	octave 3
	note F_, 2
	octave 4
	note F_, 4
	note E_, 2
	octave 3
	note B_, 2
	note F_, 2
	note B_, 2
	octave 4
	note E_, 2
	note F_, 2
	note E_, 2
	octave 3
	note B_, 2
	note F_, 2
	note B_, 2
	octave 4
	note E_, 2
	note D_, 2
	note G_, 2
	octave 3
	note G#, 2
	octave 4
	note G#, 4
	note G_, 2
	note D_, 2
	octave 3
	note G#, 2
	octave 4
	note D_, 2
	note G_, 2
	note G#, 2
	note G_, 2
	note D_, 2
	octave 3
	note G#, 2
	octave 4
	note D_, 2
	note G_, 2
	note D_, 2
	note G_, 2
	octave 3
	note G#, 2
	octave 4
	note G#, 4
	note G_, 2
	note D_, 2
	octave 3
	note G#, 2
	octave 4
	note D_, 2
	note G_, 2
	note G#, 2
	note G_, 2
	note D_, 2
	octave 3
	note G#, 2
	octave 4
	note D_, 2
	note G_, 2
	note_type 12, 12, 2
	note A_, 8
	note_type 12, 12, 3
	octave 2
	note A_, 2
	note B_, 2
	note E_, 2
	octave 3
	note E_, 4
	octave 2
	note B_, 2
	note A_, 2
	note E_, 2
	note A_, 2
	note B_, 2
	octave 3
	note E_, 2
	octave 2
	note B_, 2
	note A_, 2
	note E_, 2
	note A_, 2
	note B_, 2
	note A_, 2
	note B_, 2
	note E_, 2
	octave 3
	note E_, 4
	octave 2
	note B_, 2
	note A_, 2
	note E_, 2
	note A_, 2
	note B_, 2
	octave 3
	note E_, 2
	octave 2
	note B_, 2
	note A_, 2
	note E_, 2
	note A_, 2
	note B_, 2
	octave 3
	note C_, 2
	note D_, 2
	octave 2
	note G_, 2
	octave 3
	note G_, 4
	note D_, 2
	note C_, 2
	octave 2
	note G_, 2
	octave 3
	note C_, 2
	note D_, 2
	note G_, 2
	note D_, 2
	note C_, 2
	octave 2
	note G_, 2
	octave 3
	note C_, 2
	note D_, 2
	note C_, 2
	note D_, 2
	octave 2
	note G_, 2
	octave 3
	note G_, 4
	note D_, 2
	note C_, 2
	octave 2
	note G_, 2
	octave 3
	note C_, 2
	note D_, 2
	note G_, 2
	note D_, 2
	note C_, 2
	octave 2
	note G_, 2
	octave 3
	note C_, 2
	note D_, 2
	octave 2
	note A_, 2
	note B_, 2
	note E_, 2
	octave 3
	note E_, 4
	octave 2
	note B_, 2
	note A_, 2
	note E_, 2
	note A_, 2
	note B_, 2
	octave 3
	note E_, 2
	octave 2
	note B_, 2
	note A_, 2
	note E_, 2
	note A_, 2
	note B_, 2
	note A_, 2
	note B_, 2
	note E_, 2
	octave 3
	note E_, 4
	octave 2
	note B_, 2
	note A_, 2
	note E_, 2
	note A_, 2
	note B_, 2
	octave 3
	note E_, 2
	octave 2
	note B_, 2
	note A_, 2
	note E_, 2
	note A_, 2
	note B_, 2
	sound_loop 0, .mainloop

Music_SuicuneBattle_Ch3:
	note_type 12, 1, 8
	rest 16
	rest 4
	octave 2
	note A_, 4
	note D_, 2
	note E_, 2
	note A#, 2
	note G_, 2
	note D_, 2
	note E_, 2
	octave 1
	note A_, 2
	octave 2
	note A_, 4
	note E_, 2
	note D_, 2
	octave 1
	note A_, 2
	octave 2
	note D_, 2
	note E_, 2
	note A_, 2
	note E_, 2
	note D_, 2
	octave 1
	note A_, 2
	octave 2
	note D_, 2
	note E_, 2
	note D_, 2
	note E_, 2
	octave 1
	note A_, 2
	octave 2
	note A_, 4
	note E_, 2
	note D_, 2
	octave 1
	note A_, 2
	octave 2
	note D_, 2
	note E_, 2
	note A_, 4
	note E_, 2
	octave 1
	note A_, 2
	octave 2
	note D_, 2
	note E_, 2
	note D_, 2
	note E_, 2
	octave 1
	note A_, 2
	octave 2
	note A_, 4
	note E_, 2
	note D_, 2
	octave 1
	note A_, 2
	octave 2
	note D_, 2
	note E_, 2
	note A_, 2
	note E_, 2
	note D_, 2
	octave 1
	note A_, 2
	octave 2
	note D_, 2
	note E_, 2
	note D_, 2
	note E_, 2
	octave 1
	note A_, 2
	octave 2
	note A_, 4
	note E_, 2
	note D_, 2
	octave 1
	note A_, 2
	octave 2
	note D_, 2
	note E_, 2
	note A_, 4
	note E_, 2
	octave 1
	note A_, 2
	octave 2
	note D_, 2
	note E_, 2
	note_type 12, 1, 6
.mainloop:
	octave 1
	note A_, 2
	octave 2
	note D_, 2
	octave 1
	note A_, 2
	octave 2
	note D_, 2
	octave 1
	note A_, 2
	octave 2
	note A_, 2
	octave 1
	note A_, 2
	octave 2
	note D_, 2
	octave 1
	note A_, 2
	octave 2
	note D_, 2
	octave 1
	note A_, 2
	octave 2
	note D_, 2
	octave 1
	note A_, 2
	octave 2
	note A_, 2
	octave 1
	note A_, 2
	octave 2
	note D_, 2
	octave 1
	note A_, 2
	octave 2
	note D_, 2
	octave 1
	note A_, 2
	octave 2
	note D_, 2
	octave 1
	note A_, 2
	octave 2
	note D_, 2
	note A_, 2
	note D_, 2
	octave 1
	note A_, 2
	octave 2
	note D_, 2
	octave 1
	note A_, 2
	octave 2
	note D_, 2
	octave 1
	note A_, 2
	octave 2
	note A_, 2
	note D_, 2
	note A_, 2
	note C_, 2
	note G_, 2
	note C_, 2
	note G_, 2
	note C_, 2
	octave 3
	note C_, 2
	octave 2
	note C_, 2
	note G_, 2
	note C_, 2
	note G_, 2
	note C_, 2
	note G_, 2
	note C_, 2
	octave 3
	note C_, 2
	octave 2
	note C_, 2
	note G_, 2
	note C_, 2
	note G_, 2
	note C_, 2
	note G_, 2
	note C_, 2
	note G_, 2
	octave 3
	note C_, 2
	octave 2
	note G_, 2
	note C_, 2
	note G_, 2
	note C_, 2
	octave 3
	note C_, 4
	octave 2
	note G_, 2
	note F_, 2
	note D_, 2
	octave 1
	note A_, 2
	octave 2
	note D_, 2
	octave 1
	note A_, 2
	octave 2
	note D_, 2
	octave 1
	note A_, 2
	octave 2
	note A_, 2
	octave 1
	note A_, 2
	octave 2
	note D_, 2
	octave 1
	note A_, 2
	octave 2
	note D_, 2
	octave 1
	note A_, 2
	octave 2
	note D_, 2
	octave 1
	note A_, 2
	octave 2
	note A_, 2
	octave 1
	note A_, 2
	octave 2
	note D_, 2
	octave 1
	note A_, 2
	octave 2
	note D_, 2
	octave 1
	note A_, 2
	octave 2
	note D_, 2
	octave 1
	note A_, 2
	octave 2
	note D_, 2
	note A_, 2
	note D_, 2
	octave 1
	note A_, 2
	octave 2
	note D_, 2
	octave 1
	note A_, 2
	octave 2
	note D_, 2
	octave 1
	note A_, 2
	octave 2
	note A_, 2
	note D_, 2
	note A_, 2
	note C_, 2
	note G_, 2
	note C_, 2
	note G_, 2
	note C_, 2
	octave 3
	note C_, 2
	octave 2
	note C_, 2
	note G_, 2
	note C_, 2
	note G_, 2
	note C_, 2
	note G_, 2
	note C_, 2
	octave 3
	note C_, 2
	octave 2
	note G_, 2
	octave 3
	note C_, 2
	octave 2
	note G_, 2
	octave 3
	note C_, 2
	octave 2
	note G_, 2
	octave 3
	note C_, 2
	octave 2
	note G_, 2
	octave 3
	note C_, 2
	octave 2
	note G_, 2
	octave 3
	note C_, 2
	octave 2
	note C_, 2
	note G_, 2
	note C_, 2
	octave 3
	note C_, 4
	octave 2
	note G_, 2
	note C_, 2
	note G_, 2
	octave 1
	note B_, 2
	octave 2
	note F#, 2
	note B_, 2
	note F#, 2
	octave 1
	note B_, 2
	octave 2
	note F#, 2
	octave 1
	note B_, 2
	octave 2
	note F#, 2
	octave 1
	note B_, 2
	octave 2
	note F#, 2
	note B_, 2
	note F#, 2
	octave 1
	note B_, 2
	octave 2
	note F#, 2
	octave 1
	note B_, 2
	octave 2
	note F#, 2
	note C_, 2
	note G_, 2
	octave 3
	note C_, 2
	octave 2
	note G_, 2
	note C_, 2
	note G_, 2
	note C_, 2
	note G_, 2
	note C_, 2
	note G_, 2
	octave 3
	note C_, 2
	octave 2
	note G_, 4
	note C_, 2
	octave 3
	note C_, 2
	octave 2
	note G_, 2
	note D_, 2
	note A_, 2
	octave 3
	note D_, 2
	octave 2
	note A_, 2
	note D_, 2
	note A_, 2
	note D_, 2
	note A_, 2
	note D_, 2
	note A_, 2
	octave 3
	note D_, 2
	octave 2
	note A_, 2
	note D_, 2
	note A_, 2
	note D_, 2
	note A_, 2
	note C_, 2
	note G_, 2
	octave 3
	note C_, 2
	octave 2
	note G_, 2
	octave 1
	note B_, 2
	octave 2
	note F#, 2
	octave 1
	note B_, 2
	octave 2
	note F#, 2
	octave 1
	note A_, 2
	octave 2
	note E_, 2
	note A_, 2
	note E_, 2
	note C_, 2
	note G_, 2
	note C_, 2
	note G_, 2
	note F#, 2
	note F#, 2
	rest 4
	note F#, 2
	note F#, 2
	rest 4
	note F#, 2
	note F#, 2
	rest 4
	note F#, 2
	note G_, 6
	note F#, 2
	note F#, 2
	rest 4
	note F#, 2
	note F#, 2
	rest 4
	note F#, 2
	note F#, 2
	rest 4
	note F#, 2
	note G_, 6
	note B_, 2
	note B_, 2
	octave 1
	note B_, 4
	octave 2
	note B_, 2
	note B_, 2
	octave 1
	note B_, 4
	octave 2
	note B_, 2
	note B_, 2
	octave 1
	note B_, 4
	octave 2
	note B_, 2
	octave 3
	note C_, 6
	note F#, 2
	note F#, 2
	octave 1
	note B_, 4
	octave 3
	note F#, 2
	note F#, 2
	octave 1
	note B_, 4
	octave 3
	note F#, 2
	note F#, 2
	octave 1
	note B_, 4
	octave 3
	note F#, 2
	note G_, 6
	octave 2
	note F#, 8
	octave 1
	note B_, 8
	octave 2
	note G_, 8
	note E_, 8
	note F#, 8
	octave 1
	note B_, 8
	octave 2
	note C_, 10
	note C_, 2
	note D_, 2
	note C_, 2
	octave 1
	note B_, 8
	octave 2
	note E_, 8
	note C_, 8
	note F_, 8
	note E_, 8
	octave 1
	note B_, 8
	octave 2
	note C_, 16
	rest 4
	octave 1
	note B_, 2
	rest 6
	note B_, 2
	rest 2
	rest 4
	note B_, 2
	rest 6
	note B_, 2
	rest 2
	rest 4
	note B_, 2
	rest 6
	note B_, 2
	rest 2
	rest 4
	note B_, 2
	rest 6
	note B_, 2
	rest 2
	note B_, 2
	octave 2
	note F_, 2
	note B_, 2
	octave 1
	note B_, 2
	octave 2
	note F_, 2
	note B_, 2
	octave 1
	note B_, 2
	octave 2
	note F_, 2
	octave 1
	note B_, 2
	octave 2
	note F_, 2
	note B_, 2
	octave 1
	note B_, 2
	octave 2
	note F_, 2
	note B_, 2
	octave 1
	note B_, 2
	octave 2
	note F_, 2
	octave 1
	note B_, 2
	octave 2
	note F_, 2
	note B_, 2
	octave 1
	note B_, 2
	octave 2
	note F_, 2
	note B_, 2
	octave 1
	note B_, 2
	octave 2
	note F_, 2
	octave 1
	note B_, 2
	octave 2
	note F_, 2
	note B_, 2
	note F_, 2
	note B_, 2
	note F_, 2
	octave 1
	note B_, 2
	octave 2
	note F_, 2
	note D_, 2
	note G#, 2
	octave 3
	note D_, 2
	octave 2
	note D_, 2
	note G#, 2
	octave 3
	note D_, 2
	octave 2
	note D_, 2
	note G#, 2
	note D_, 2
	note G#, 2
	octave 3
	note D_, 2
	octave 2
	note D_, 2
	note G#, 2
	octave 3
	note D_, 2
	octave 2
	note D_, 2
	note G#, 2
	note D_, 2
	note G#, 2
	octave 3
	note D_, 2
	octave 2
	note D_, 2
	note G#, 2
	octave 3
	note D_, 2
	octave 2
	note D_, 2
	note G#, 2
	note D_, 2
	note G#, 2
	octave 3
	note D_, 2
	octave 2
	note G#, 2
	octave 3
	note D_, 2
	octave 2
	note G#, 2
	note D_, 2
	note G#, 2
	note B_, 2
	note F_, 2
	octave 1
	note B_, 2
	octave 2
	note B_, 2
	note F_, 2
	octave 1
	note B_, 2
	octave 2
	note B_, 2
	note F_, 2
	note B_, 2
	note F_, 2
	octave 1
	note B_, 2
	octave 2
	note B_, 2
	note F_, 2
	octave 1
	note B_, 2
	octave 2
	note B_, 2
	note F_, 2
	octave 1
	note B_, 2
	octave 2
	note F_, 2
	note B_, 2
	octave 1
	note B_, 2
	octave 2
	note F_, 2
	note B_, 2
	octave 1
	note B_, 2
	octave 2
	note F_, 2
	octave 1
	note B_, 2
	octave 2
	note F_, 2
	note B_, 2
	octave 1
	note B_, 2
	octave 2
	note F_, 2
	note B_, 2
	octave 1
	note B_, 2
	octave 2
	note F_, 2
	octave 3
	note D_, 2
	octave 2
	note G#, 2
	note D_, 2
	octave 3
	note D_, 2
	octave 2
	note G#, 2
	note D_, 2
	octave 3
	note D_, 2
	octave 2
	note G#, 2
	octave 3
	note D_, 2
	octave 2
	note G#, 2
	note D_, 2
	octave 3
	note D_, 2
	octave 2
	note G#, 2
	note D_, 2
	octave 3
	note D_, 2
	octave 2
	note G#, 2
	note D_, 2
	note G#, 2
	octave 3
	note D_, 2
	octave 2
	note D_, 2
	note G#, 2
	octave 3
	note D_, 2
	octave 2
	note D_, 2
	note G#, 2
	note D_, 2
	note G#, 2
	octave 3
	note D_, 2
	octave 2
	note G#, 2
	octave 3
	note D_, 2
	octave 2
	note G#, 2
	note D_, 2
	note G#, 2
	note A_, 4
	rest 4
	octave 1
	note A_, 2
	octave 2
	note D_, 2
	octave 1
	note A_, 2
	octave 2
	note D_, 2
	octave 1
	note A_, 2
	octave 2
	note A_, 2
	octave 1
	note A_, 2
	octave 2
	note D_, 2
	octave 1
	note A_, 2
	octave 2
	note D_, 2
	octave 1
	note A_, 2
	octave 2
	note D_, 2
	octave 1
	note A_, 2
	octave 2
	note A_, 2
	octave 1
	note A_, 2
	octave 2
	note D_, 2
	octave 1
	note A_, 2
	octave 2
	note D_, 2
	octave 1
	note A_, 2
	octave 2
	note D_, 2
	octave 1
	note A_, 2
	octave 2
	note D_, 2
	note A_, 2
	note D_, 2
	octave 1
	note A_, 2
	octave 2
	note D_, 2
	octave 1
	note A_, 2
	octave 2
	note D_, 2
	octave 1
	note A_, 2
	octave 2
	note D_, 2
	octave 1
	note A_, 2
	octave 2
	note D_, 2
	note C_, 2
	note G_, 2
	octave 3
	note C_, 2
	octave 2
	note C_, 2
	note G_, 2
	octave 3
	note C_, 2
	octave 2
	note C_, 2
	note G_, 2
	note C_, 2
	note G_, 2
	octave 3
	note C_, 2
	octave 2
	note C_, 2
	note G_, 2
	octave 3
	note C_, 2
	octave 2
	note C_, 2
	note G_, 2
	note C_, 2
	note G_, 2
	octave 3
	note C_, 2
	octave 2
	note C_, 2
	note G_, 2
	octave 3
	note C_, 2
	octave 2
	note C_, 2
	note G_, 2
	note C_, 2
	note G_, 2
	octave 3
	note C_, 2
	octave 2
	note C_, 2
	note G_, 2
	octave 3
	note C_, 2
	octave 2
	note C_, 2
	note G_, 2
	octave 1
	note A_, 2
	octave 2
	note E_, 2
	note A_, 2
	octave 1
	note A_, 2
	octave 2
	note E_, 2
	note A_, 2
	octave 1
	note A_, 2
	octave 2
	note E_, 2
	octave 1
	note A_, 2
	octave 2
	note E_, 2
	note A_, 2
	octave 1
	note A_, 2
	octave 2
	note E_, 2
	note A_, 2
	octave 1
	note A_, 2
	octave 2
	note E_, 2
	octave 1
	note A_, 2
	octave 2
	note E_, 2
	note A_, 2
	octave 1
	note A_, 2
	octave 2
	note E_, 2
	note A_, 2
	octave 1
	note A_, 2
	octave 2
	note E_, 2
	octave 1
	note A_, 2
	octave 2
	note E_, 2
	octave 1
	note A_, 2
	octave 2
	note A_, 4
	note E_, 2
	note D_, 2
	note E_, 2
	sound_loop 0, .mainloop
