Music_FrontierBrain:
	dbw $80, Music_FrontierBrain_Ch1
	dbw $01, Music_FrontierBrain_Ch2
	dbw $02, Music_FrontierBrain_Ch3

Music_FrontierBrain_Ch1:
	ftempo $62
	volume $77
	notetype $4, 194
	dutycycle 1
	tone $0002
	note __, 12
	octave 3
	note B_, 4
	octave 4
	note F_, 4
	note B_, 4
	octave 3
	note A#, 4
	octave 4
	note E_, 4
	note A#, 4
	octave 3
	note A_, 4
	octave 4
	note D#, 4
	note A_, 4
	octave 3
	note G#, 4
	octave 4
	note D_, 4
	note G#, 4
	octave 3
	note G_, 4
	octave 4
	note C#, 4
	note G_, 4
	octave 3
	note F#, 4
	octave 4
	note C_, 4
	note F#, 4
	octave 3
	note F_, 4
	note B_, 4
	octave 4
	note F_, 4
Music_FrontierBrain_Loop1:
	intensity 226
	note E_, 3
	note F_, 3
	note E_, 3
	note D_, 3
	note A_, 6
	octave 3
	note A_, 6
	intensity 178
	octave 4
	note A_, 6
	octave 3
	note A_, 6
	intensity 114
	octave 4
	note A_, 6
	octave 3
	note A_, 6
	intensity 82
	octave 4
	note A_, 6
	octave 3
	note A_, 16
	note __, 16
	note __, 16
	note __, 16
	note __, 16
	note __, 16
	note __, 6
	intensity 209
	octave 4
	note A_, 4
	note A_, 2
	note A_, 2
	note A_, 4
	note A_, 4
	note A_, 4
	note A_, 4
	note A_, 4
	note A_, 4
	note A_, 4
	intensity 225
	note E_, 3
	note F_, 3
	note E_, 3
	note D_, 3
	intensity 226
	note A_, 6
	octave 3
	note A_, 6
	intensity 178
	octave 4
	note A_, 6
	octave 3
	note A_, 6
	intensity 114
	octave 4
	note A_, 6
	octave 3
	note A_, 6
	intensity 82
	octave 4
	note A_, 6
	octave 3
	note A_, 16
	note __, 16
	note __, 16
	note __, 16
	note __, 16
	note __, 16
	note __, 6
	intensity 209
	octave 4
	note G#, 4
	note G#, 2
	note G#, 2
	note G#, 4
	note G#, 4
	note G#, 4
	note G#, 4
	note G#, 4
	note G#, 4
	note G#, 4
	intensity 225
	note G#, 3
	note A_, 3
	note G#, 3
	note F#, 3
	intensity 226
	note B_, 6
	octave 3
	note B_, 6
	intensity 178
	octave 4
	note B_, 6
	octave 3
	note B_, 6
	intensity 114
	octave 4
	note B_, 6
	octave 3
	note B_, 6
	intensity 82
	octave 4
	note B_, 6
	octave 3
	note B_, 16
	note __, 16
	note __, 16
	note __, 16
	note __, 16
	note __, 16
	note __, 6
	intensity 226
	dutycycle 2
	note B_, 2
	octave 4
	note D#, 2
	note F#, 2
	note A_, 2
	note B_, 2
	octave 5
	note C#, 2
	note D#, 2
	note F#, 2
	note A_, 2
	note B_, 2
	octave 6
	note C#, 2
	note D#, 2
	note F#, 2
	note D#, 2
	note C#, 2
	octave 5
	note B_, 2
	note A_, 2
	note F#, 2
	note D#, 2
	note C#, 2
	octave 4
	note B_, 2
	note A_, 2
	note F#, 2
	note D#, 8
	intensity 228
	dutycycle 1
	note E_, 16
	note __, 2
	note E_, 16
	note __, 2
	note E_, 12
	note E_, 16
	note __, 2
	note E_, 12
	octave 3
	note B_, 3
	octave 4
	note C#, 3
	octave 3
	note B_, 3
	note A_, 3
	octave 4
	note E_, 16
	note __, 2
	note E_, 16
	note __, 2
	note E_, 16
	note __, 2
	note E_, 16
	note __, 2
	note E_, 12
	octave 3
	note B_, 3
	octave 4
	note C#, 3
	octave 3
	note B_, 3
	note G#, 9
	octave 4
	note E_, 12
	octave 3
	note B_, 6
	octave 4
	note E_, 6
	octave 3
	note B_, 6
	note G#, 6
	octave 4
	note E_, 12
	note G#, 6
	note E_, 6
	note B_, 6
	note G#, 6
	intensity 212
	octave 5
	note E_, 6
	intensity 228
	octave 4
	note B_, 6
	octave 5
	note G#, 6
	intensity 226
	dutycycle 2
	octave 4
	note E_, 3
	note G_, 3
	note B_, 3
	octave 5
	note E_, 3
	note F#, 3
	note E_, 3
	octave 4
	note B_, 3
	note G_, 3
	note B_, 3
	note G_, 3
	note B_, 3
	octave 5
	note E_, 3
	note F#, 3
	note E_, 3
	octave 4
	note B_, 3
	note G_, 3
	note B_, 3
	note G_, 3
	note B_, 3
	octave 5
	note E_, 3
	note F#, 3
	note G_, 3
	note F#, 3
	note E_, 3
	octave 4
	note B_, 3
	octave 5
	note E_, 3
	octave 4
	note B_, 3
	note G_, 3
	note E_, 3
	octave 3
	note B_, 3
	octave 4
	note E_, 3
	note G_, 3
	note E_, 3
	note G#, 3
	note B_, 3
	octave 5
	note E_, 3
	note F#, 3
	note E_, 3
	octave 4
	note B_, 3
	note G#, 3
	note E_, 3
	note G#, 3
	note B_, 3
	octave 5
	note E_, 3
	note F#, 3
	note E_, 3
	octave 4
	note B_, 3
	note G_, 3
	note E_, 3
	note G#, 3
	note B_, 3
	octave 5
	note E_, 3
	note G#, 3
	note B_, 3
	note G#, 3
	note E_, 3
	octave 4
	note B_, 3
	note G#, 3
	note E_, 3
	octave 5
	note E_, 3
	octave 4
	note B_, 3
	octave 5
	note E_, 3
	note F#, 3
	note G#, 3
	octave 6
	note C_, 3
	octave 5
	note A_, 3
	note G_, 3
	note E_, 3
	note C_, 3
	octave 4
	note A_, 3
	note G_, 3
	note E_, 3
	note C_, 3
	octave 3
	note G_, 3
	octave 4
	note C_, 3
	note E_, 3
	note G_, 3
	octave 5
	note C_, 3
	octave 4
	note G_, 3
	note E_, 3
	octave 3
	note B_, 3
	octave 4
	note D#, 3
	note F#, 3
	note A_, 3
	note B_, 3
	octave 5
	note D#, 3
	octave 4
	note B_, 3
	note F#, 3
	note D#, 3
	note F#, 3
	note B_, 3
	octave 5
	note D#, 3
	note F#, 3
	note D#, 3
	octave 4
	note B_, 3
	note F#, 3
	note C#, 3
	note E_, 3
	note G_, 3
	note G#, 3
	octave 5
	note C#, 3
	note D#, 3
	note E_, 3
	note D#, 3
	note C#, 3
	octave 4
	note G#, 3
	note F#, 3
	note E_, 3
	note C#, 3
	octave 3
	note G#, 3
	note F#, 3
	note E_, 16
	note __, 16
	note __, 13
	intensity 228
	dutycycle 1
	octave 2
	note A_, 3
	octave 3
	note C_, 3
	note C#, 16
	note __, 2
	note C#, 16
	note __, 2
	note C#, 16
	note __, 2
	note C#, 16
	note __, 2
	octave 2
	note B_, 12
	octave 3
	note D_, 12
	note C#, 16
	note __, 2
	note C#, 16
	note __, 2
	note C#, 16
	note __, 2
	note C#, 16
	note __, 2
	note D_, 12
	octave 2
	note B_, 12
	octave 3
	note C#, 16
	note __, 2
	note C#, 16
	note __, 2
	note C#, 16
	note __, 2
	note C#, 16
	note __, 2
	octave 2
	note B_, 12
	octave 3
	note D_, 12
	octave 2
	note B_, 16
	note __, 2
	note B_, 16
	note __, 2
	note B_, 16
	note __, 2
	note F#, 16
	note __, 2
	note B_, 12
	octave 3
	note D#, 12
	octave 2
	note B_, 16
	note __, 2
	note B_, 16
	note __, 2
	note B_, 12
	note B_, 16
	note __, 2
	note B_, 16
	note __, 2
	octave 3
	note C_, 12
	note C#, 16
	note __, 2
	note C#, 16
	note __, 2
	note C#, 16
	note __, 2
	note C#, 16
	note __, 2
	note D_, 12
	octave 2
	note B_, 12
	dutycycle 0
	octave 4
	note G#, 6
	note G#, 12
	note G#, 12
	note G#, 12
	note G#, 12
	note G#, 12
	note G#, 6
	note A_, 12
	note G#, 12
	note G_, 6
	note C#, 6
	octave 3
	note G_, 6
	octave 4
	note D_, 6
	note C#, 6
	octave 3
	note G_, 6
	note E_, 6
	octave 4
	note G_, 6
	note F#, 6
	note C#, 6
	octave 3
	note F#, 6
	octave 4
	note C#, 6
	octave 3
	note B_, 6
	note F_, 6
	octave 2
	note B_, 6
	octave 3
	note F#, 6
	octave 4
	note G_, 4
	octave 3
	note B_, 4
	note G_, 4
	octave 4
	note F#, 4
	octave 3
	note A#, 4
	note F#, 4
	octave 4
	note F_, 4
	octave 3
	note A_, 4
	note F_, 4
	octave 4
	note E_, 4
	octave 3
	note G#, 4
	note E_, 4
	intensity 180
	octave 4
	note G_, 3
	note F#, 3
	note F_, 3
	note E_, 3
	note D#, 3
	note D_, 3
	note C#, 3
	note C_, 3
	octave 3
	note B_, 3
	note A#, 3
	note A_, 3
	note G#, 3
	note G_, 3
	note F#, 3
	note E_, 3
	note D_, 9
	intensity 228
	dutycycle 1
	octave 4
	note C_, 16
	note __, 2
	note C_, 16
	note __, 2
	note C_, 12
	note C_, 16
	note __, 2
	note C_, 12
	octave 3
	note G_, 3
	note A_, 3
	note G_, 3
	note F_, 3
	octave 4
	note C_, 16
	note __, 2
	note C_, 16
	note __, 2
	note C_, 16
	note __, 2
	note C_, 16
	note __, 2
	note C_, 12
	octave 3
	note G_, 3
	note A_, 3
	note G_, 3
	note E_, 9
	octave 4
	note C_, 12
	octave 3
	note G_, 6
	octave 4
	note C_, 6
	octave 3
	note G_, 6
	note E_, 6
	octave 4
	note C_, 12
	note E_, 6
	note C_, 6
	note G_, 6
	note E_, 6
	intensity 212
	octave 5
	note C_, 6
	intensity 228
	octave 4
	note G_, 6
	intensity 212
	octave 5
	note E_, 6
	intensity 226
	dutycycle 2
	octave 4
	note C_, 3
	note D#, 3
	note G_, 3
	octave 5
	note C_, 3
	note D_, 3
	note C_, 3
	octave 4
	note G_, 3
	note D#, 3
	note G_, 3
	note D#, 3
	note G_, 3
	octave 5
	note C_, 3
	note D_, 3
	note C_, 3
	octave 4
	note G_, 3
	note D#, 3
	note G_, 3
	note D#, 3
	note G_, 3
	octave 5
	note C_, 3
	note D_, 3
	note D#, 3
	note D_, 3
	note C_, 3
	octave 4
	note G_, 3
	octave 5
	note C_, 3
	octave 4
	note G_, 3
	note D#, 3
	note C_, 3
	octave 3
	note G_, 3
	octave 4
	note C_, 3
	note D#, 3
	note C_, 3
	note E_, 3
	note G_, 3
	octave 5
	note C_, 3
	note D_, 3
	note C_, 3
	octave 4
	note G_, 3
	note E_, 3
	note C_, 3
	note E_, 3
	note G_, 3
	octave 5
	note C_, 3
	note D_, 3
	note C_, 3
	octave 4
	note G_, 3
	note D#, 3
	note C_, 3
	note E_, 3
	note G_, 3
	octave 5
	note C_, 3
	note E_, 3
	note G_, 3
	note E_, 3
	note C_, 3
	octave 4
	note G_, 3
	note E_, 3
	note C_, 3
	octave 5
	note C_, 3
	octave 4
	note G_, 3
	octave 5
	note C_, 3
	note D_, 3
	note E_, 3
	note G#, 3
	note F_, 3
	note D#, 3
	note C_, 3
	octave 4
	note G#, 3
	note F_, 3
	note D#, 3
	note C_, 3
	octave 3
	note G#, 3
	note D#, 3
	note G#, 3
	octave 4
	note C_, 3
	note D#, 3
	note G#, 3
	note D#, 3
	note C_, 3
	octave 3
	note G_, 3
	note B_, 3
	octave 4
	note D_, 3
	note F_, 3
	note G_, 3
	note B_, 3
	note G_, 3
	note D_, 3
	octave 3
	note B_, 3
	octave 4
	note D_, 3
	note G_, 3
	note B_, 3
	octave 5
	note D_, 3
	octave 4
	note B_, 3
	note G_, 3
	note D_, 16
	note __, 16
	note __, 16
	note __, 16
	note __, 11
	intensity 215
	dutycycle 1
	octave 3
	note A_, 4
	note __, 5
	note F_, 2
	note __, 1
	octave 4
	note C_, 16
	note __, 16
	note __, 4
	note D_, 12
	note F_, 3
	note G_, 3
	note F_, 3
	note D_, 3
	octave 3
	note B_, 16
	note __, 8
	note G_, 3
	note A_, 3
	note G_, 3
	note F#, 3
	note G_, 16
	note __, 14
	note G_, 2
	note __, 1
	note G_, 2
	note __, 1
	note G_, 16
	note __, 16
	note __, 16
	note B_, 4
	note __, 5
	note G_, 2
	note __, 1
	octave 4
	note D_, 16
	note __, 16
	note __, 4
	note D#, 16
	note __, 8
	note E_, 16
	note __, 16
	note __, 4
	intensity 231
	dutycycle 0
	note C#, 3
	note __, 1
	note C#, 3
	note __, 1
	note C#, 3
	note __, 1
	note C#, 16
	octave 3
	note B_, 3
	note __, 1
	note B_, 3
	note __, 1
	note B_, 16
	note __, 8
	intensity 215
	dutycycle 1
	note F_, 4
	note __, 5
	note C_, 2
	note __, 1
	note A_, 12
	octave 4
	note C_, 4
	note __, 5
	octave 3
	note A_, 2
	note __, 1
	octave 4
	note F_, 16
	note __, 16
	note __, 16
	note __, 6
	note C_, 6
	octave 3
	note F#, 4
	note __, 5
	note C_, 2
	note __, 1
	note A_, 12
	octave 4
	note C_, 4
	note __, 5
	octave 3
	note A_, 2
	note __, 1
	octave 4
	note F#, 16
	note __, 16
	note __, 4
	intensity 231
	octave 5
	note C_, 16
	note __, 8
	intensity 194
	octave 3
	note B_, 4
	octave 4
	note F_, 4
	note B_, 4
	octave 3
	note A#, 4
	octave 4
	note E_, 4
	note A#, 4
	octave 3
	note A_, 4
	octave 4
	note D#, 4
	note A_, 4
	octave 3
	note G#, 4
	octave 4
	note D_, 4
	note G#, 4
	octave 3
	note G_, 4
	octave 4
	note C#, 4
	note G_, 4
	octave 3
	note F#, 4
	octave 4
	note C_, 4
	note F#, 4
	octave 3
	note F_, 4
	note B_, 4
	octave 4
	note F_, 4
	loopchannel 0, Music_FrontierBrain_Loop1
Music_FrontierBrain_Ch2:
	notetype $4, 228
	dutycycle 3
	tone $0001
	octave 3
	note B_, 4
	octave 4
	note F_, 4
	note B_, 4
	octave 5
	note D_, 12
	note C#, 12
	note C_, 12
	octave 4
	note B_, 12
	note A#, 12
	note A_, 12
	note G#, 12
Music_FrontierBrain_Loop2:
	note __, 16
	note __, 8
	intensity 244
	octave 2
	note A_, 6
	note G#, 12
	note B_, 6
	octave 3
	note C_, 16
	note __, 2
	note D_, 6
	note D#, 12
	octave 2
	note B_, 6
	octave 3
	note C_, 6
	octave 2
	note A_, 3
	octave 3
	note C_, 3
	octave 2
	note A#, 6
	octave 3
	note D#, 16
	note __, 2
	note D_, 12
	note C_, 12
	octave 2
	note B_, 6
	note A_, 6
	note G#, 6
	note B_, 6
	note E_, 6
	note F_, 6
	note E_, 6
	note D#, 3
	note F_, 3
	note E_, 6
	note E_, 6
	note F_, 6
	note A_, 6
	note G#, 12
	note B_, 6
	octave 3
	note C_, 16
	note __, 2
	note D#, 6
	note F_, 12
	note D_, 6
	note D#, 6
	note C_, 3
	note D_, 3
	note C#, 6
	note G_, 16
	note __, 2
	note F_, 12
	note D#, 12
	octave 2
	note B_, 6
	note A_, 6
	note G#, 6
	note B_, 6
	note E_, 6
	note F_, 6
	note E_, 6
	note D#, 6
	note E_, 16
	note __, 2
	intensity 183
	octave 3
	note E_, 12
	note __, 12
	note F_, 12
	note __, 12
	note F#, 12
	note __, 12
	note G_, 12
	note __, 6
	note E_, 6
	note __, 6
	note F_, 6
	note __, 6
	note F#, 6
	note __, 6
	note G_, 6
	note __, 6
	note G#, 6
	note __, 6
	note A_, 6
	note __, 6
	note A#, 6
	note __, 6
	note B_, 6
	note __, 6
	intensity 247
	octave 4
	note E_, 16
	note __, 2
	note F#, 6
	note __, 6
	note G#, 6
	note __, 6
	note A_, 6
	note G#, 16
	note __, 2
	note A_, 6
	note __, 6
	note B_, 12
	notetype $8, 247
	note G#, 16
	note __, 8
	note E_, 16
	note __, 8
	notetype $4, 247
	note __, 6
	note E_, 16
	note __, 2
	note F#, 6
	note __, 6
	note G#, 12
	note A_, 6
	note G#, 12
	note A_, 6
	note __, 6
	note B_, 16
	note __, 2
	intensity 226
	note E_, 16
	note __, 2
	note E_, 16
	note __, 2
	note E_, 16
	note __, 2
	intensity 229
	octave 3
	note B_, 16
	note __, 2
	intensity 226
	octave 4
	note E_, 12
	octave 3
	note B_, 12
	octave 4
	note E_, 16
	note __, 2
	note E_, 16
	note __, 2
	note E_, 16
	note __, 2
	intensity 229
	octave 3
	note B_, 16
	note __, 2
	intensity 226
	octave 4
	note E_, 12
	note F#, 12
	note E_, 16
	note __, 2
	note E_, 16
	note __, 2
	note D#, 6
	note C#, 12
	intensity 229
	note D#, 16
	note __, 2
	note E_, 6
	note __, 6
	note F#, 12
	notetype $C, 229
	note G#, 16
	notetype $4, 229
	note __, 16
	note __, 16
	note __, 10
	intensity 226
	octave 3
	note C#, 3
	note G_, 3
	note G#, 16
	note __, 2
	note G#, 16
	note __, 2
	note G#, 16
	note __, 2
	note G#, 16
	note __, 2
	note F#, 12
	note A_, 12
	note G#, 16
	note __, 2
	note G#, 16
	note __, 2
	note G#, 16
	note __, 2
	note G#, 16
	note __, 2
	note A_, 12
	note F#, 6
	intensity 231
	octave 4
	note E_, 3
	note F#, 3
	note G#, 6
	note C#, 12
	octave 5
	note C#, 16
	note __, 2
	note E_, 16
	note __, 2
	octave 4
	note E_, 3
	note F#, 3
	note G#, 12
	note F#, 12
	note E_, 12
	note D#, 6
	note E_, 6
	note D#, 6
	note C#, 6
	notetype $C, 231
	note D#, 16
	notetype $4, 231
	note __, 16
	note __, 2
	note D#, 3
	note E_, 3
	note F#, 6
	octave 3
	note B_, 12
	octave 4
	note B_, 16
	note __, 2
	octave 5
	note D#, 16
	note __, 2
	octave 4
	note D#, 3
	note E_, 3
	note F#, 12
	note B_, 12
	note A_, 12
	note G#, 6
	note A_, 6
	note G#, 6
	note F#, 6
	notetype $C, 231
	note G#, 16
	notetype $4, 231
	note __, 16
	note __, 2
	intensity 229
	dutycycle 0
	note G#, 3
	note B_, 3
	octave 5
	note C#, 6
	note C#, 12
	note C#, 12
	note C#, 12
	note C#, 12
	note C#, 12
	note C#, 6
	note E_, 12
	note D#, 12
	note D_, 16
	note __, 8
	note C#, 16
	note __, 8
	note C_, 16
	note __, 8
	octave 4
	note B_, 16
	note __, 8
	octave 5
	note D_, 12
	note C#, 12
	note C_, 12
	octave 4
	note B_, 12
	octave 5
	note D_, 3
	note C#, 3
	note C_, 3
	octave 4
	note B_, 3
	note A#, 3
	note A_, 3
	note G#, 3
	note G_, 3
	note F#, 3
	note F_, 3
	note E_, 3
	note D#, 3
	note D_, 3
	note C#, 3
	octave 3
	note B_, 3
	note G_, 3
	note __, 6
	intensity 231
	dutycycle 3
	octave 4
	note C_, 16
	note __, 2
	note D_, 6
	note __, 6
	note E_, 6
	note __, 6
	note F_, 6
	note E_, 16
	note __, 2
	note F_, 6
	note __, 6
	note G_, 12
	notetype $8, 231
	note E_, 16
	note __, 8
	note C_, 16
	note __, 8
	notetype $4, 231
	note __, 6
	note C_, 16
	note __, 2
	note D_, 6
	note __, 6
	note E_, 12
	note F_, 6
	note E_, 12
	note F_, 6
	note __, 6
	note G_, 16
	note __, 2
	intensity 226
	octave 5
	note C_, 16
	note __, 2
	note C_, 16
	note __, 2
	note C_, 16
	note __, 2
	intensity 229
	octave 4
	note G_, 16
	note __, 2
	intensity 226
	octave 5
	note C_, 12
	octave 4
	note G_, 12
	octave 5
	note C_, 16
	note __, 2
	note C_, 16
	note __, 2
	note C_, 16
	note __, 2
	intensity 229
	octave 4
	note G_, 16
	note __, 2
	intensity 226
	octave 5
	note C_, 12
	note D_, 12
	note C_, 16
	note __, 2
	note C_, 16
	note __, 2
	octave 4
	note B_, 6
	note A_, 12
	intensity 229
	note B_, 16
	note __, 2
	octave 5
	note C_, 12
	notetype $8, 229
	note D_, 16
	notetype $4, 229
	note __, 16
	note __, 3
	intensity 241
	octave 4
	note A_, 3
	note B_, 3
	octave 5
	note C_, 3
	note E_, 9
	octave 4
	note A_, 3
	notetype $8, 247
	note A_, 16
	notetype $4, 247
	note __, 4
	octave 5
	note E_, 12
	note D_, 12
	note C_, 12
	note D_, 12
	octave 4
	note B_, 3
	octave 5
	note C_, 3
	octave 4
	note B_, 3
	note A_, 3
	notetype $C, 247
	note B_, 16
	notetype $4, 247
	note __, 16
	note __, 11
	intensity 241
	note G_, 3
	note A_, 3
	note B_, 3
	octave 5
	note D_, 9
	octave 4
	note G_, 3
	intensity 247
	note G_, 16
	note __, 16
	note __, 4
	note B_, 12
	note G_, 12
	octave 5
	note G_, 12
	note F_, 12
	note E_, 3
	note F_, 3
	note E_, 3
	note D_, 3
	note E_, 16
	note __, 8
	intensity 215
	dutycycle 2
	octave 4
	note A_, 2
	note __, 2
	note A_, 2
	note __, 2
	note A_, 2
	note __, 2
	note A_, 16
	note G_, 2
	note __, 2
	note G_, 2
	note __, 2
	note G_, 12
	intensity 241
	dutycycle 3
	note A_, 4
	note B_, 4
	octave 5
	note C_, 4
	note E_, 9
	octave 4
	note A_, 3
	intensity 247
	note A_, 16
	note __, 16
	note __, 4
	intensity 231
	octave 3
	note F_, 6
	note C_, 12
	note F_, 12
	note A_, 6
	intensity 241
	octave 4
	note A_, 4
	note B_, 4
	octave 5
	note C_, 4
	note E_, 9
	octave 4
	note A_, 3
	notetype $8, 247
	note A_, 16
	notetype $4, 247
	note __, 4
	intensity 231
	octave 3
	note F#, 6
	note C_, 12
	note F#, 12
	note A_, 12
	octave 4
	note C_, 6
	octave 5
	notetype $C, 231
	note D_, 16
	notetype $4, 231
	note __, 16
	note __, 16
	note __, 4
	loopchannel 0, Music_FrontierBrain_Loop2
Music_FrontierBrain_Ch3:
	notetype $4, 20
	note __, 12
	octave 2
	note F#, 4
	octave 3
	note C_, 4
	note F#, 4
	octave 2
	note F_, 4
	note B_, 4
	octave 3
	note F_, 4
	octave 2
	note E_, 4
	note A#, 4
	octave 3
	note E_, 4
	octave 2
	note D#, 4
	note A_, 4
	octave 3
	note D#, 4
	octave 2
	note D_, 4
	note G#, 4
	octave 3
	note D_, 4
	octave 2
	note C#, 4
	note G_, 4
	octave 3
	note C#, 4
	octave 2
	note C_, 4
	note F#, 4
	octave 3
	note C_, 4
Music_FrontierBrain_Loop3:
	octave 2
	note B_, 3
	octave 3
	note C_, 3
	octave 2
	note B_, 3
	note A#, 3
	note A_, 3
	note __, 3
	note A_, 3
	note __, 3
	note A_, 3
	note __, 3
	note A_, 3
	note __, 3
	note A_, 3
	note __, 3
	note A_, 3
	note __, 3
	note A_, 3
	note __, 3
	note A_, 3
	note __, 3
	note A_, 3
	note __, 3
	note A_, 3
	note __, 3
	note A_, 3
	note __, 3
	note A_, 3
	note __, 3
	note A_, 3
	note __, 3
	note B_, 6
	octave 3
	note D#, 3
	note D_, 3
	note C_, 6
	octave 2
	note A_, 3
	note __, 3
	note A_, 3
	note __, 3
	note A_, 3
	note __, 3
	note A_, 3
	note __, 3
	note A_, 3
	note __, 3
	note A_, 3
	note __, 3
	note A_, 3
	note __, 3
	note A_, 3
	note __, 9
	note A_, 3
	note __, 3
	note A_, 3
	note __, 3
	note A_, 3
	note __, 3
	octave 3
	note C_, 3
	note __, 3
	note D_, 6
	note D#, 3
	note D_, 3
	octave 2
	note A#, 9
	note __, 3
	note A_, 3
	note __, 3
	note A_, 3
	note __, 3
	note A_, 3
	note __, 3
	note A_, 3
	note __, 3
	note A_, 3
	note __, 3
	note A_, 3
	note __, 3
	note A_, 3
	note __, 3
	note A_, 3
	note __, 3
	note A_, 3
	note __, 3
	note A_, 3
	note __, 3
	note A_, 3
	note __, 3
	note A_, 3
	note __, 3
	note B_, 6
	octave 3
	note D#, 3
	note D_, 3
	note C_, 6
	octave 2
	note A_, 3
	note __, 3
	note A_, 3
	note __, 3
	note A_, 3
	note __, 3
	note A_, 3
	note __, 3
	note A_, 3
	note __, 3
	note A_, 3
	note __, 3
	note A_, 3
	note __, 3
	note A_, 3
	note __, 9
	note A_, 3
	note __, 3
	note A_, 3
	note __, 3
	note A_, 3
	note __, 3
	octave 3
	note C_, 3
	note __, 3
	note D_, 6
	note D#, 3
	note D_, 3
	octave 2
	note A#, 6
	note E_, 4
	note __, 2
	note E_, 4
	note __, 2
	octave 3
	note E_, 12
	octave 2
	note E_, 4
	note __, 2
	note E_, 4
	note __, 2
	octave 3
	note F_, 12
	octave 2
	note E_, 4
	note __, 2
	note E_, 4
	note __, 2
	octave 3
	note F#, 12
	octave 2
	note E_, 4
	note __, 2
	note E_, 4
	note __, 2
	octave 3
	note G_, 12
	octave 2
	note E_, 6
	octave 3
	note E_, 6
	octave 2
	note E_, 6
	octave 3
	note F_, 6
	octave 2
	note E_, 6
	octave 3
	note F#, 6
	octave 2
	note E_, 6
	octave 3
	note G_, 6
	octave 2
	note E_, 6
	octave 3
	note G#, 6
	octave 2
	note E_, 6
	octave 3
	note A_, 6
	octave 2
	note E_, 6
	octave 3
	note A#, 6
	octave 2
	note E_, 6
	octave 3
	note B_, 6
	octave 2
	note E_, 6
	octave 3
	note E_, 6
	octave 2
	note E_, 6
	octave 3
	note E_, 6
	octave 2
	note E_, 6
	octave 3
	note E_, 6
	octave 2
	note E_, 6
	octave 3
	note E_, 3
	note D#, 3
	note E_, 6
	octave 2
	note E_, 3
	note __, 3
	note E_, 6
	octave 3
	note E_, 6
	octave 2
	note B_, 6
	note E_, 6
	octave 3
	note E_, 3
	octave 2
	note B_, 3
	note G#, 3
	note F#, 3
	note E_, 6
	octave 3
	note E_, 6
	octave 2
	note E_, 6
	octave 3
	note E_, 6
	octave 2
	note E_, 6
	octave 3
	note E_, 6
	octave 2
	note E_, 6
	octave 3
	note E_, 3
	note D#, 3
	note E_, 6
	octave 2
	note E_, 3
	note __, 3
	note E_, 6
	octave 3
	note E_, 6
	octave 2
	note B_, 6
	note E_, 6
	octave 3
	note E_, 3
	octave 2
	note B_, 3
	note G#, 3
	note F#, 3
	note E_, 6
	octave 3
	note E_, 6
	octave 2
	note E_, 6
	octave 3
	note E_, 6
	octave 2
	note E_, 6
	octave 3
	note E_, 6
	octave 2
	note E_, 6
	octave 3
	note E_, 3
	note D#, 3
	note E_, 6
	octave 2
	note E_, 3
	note __, 3
	note E_, 6
	octave 3
	note E_, 6
	octave 2
	note B_, 6
	note E_, 6
	octave 3
	note E_, 3
	octave 2
	note B_, 3
	note G#, 3
	note F#, 3
	note D_, 6
	octave 3
	note D_, 6
	octave 2
	note D_, 6
	octave 3
	note D_, 6
	octave 2
	note D_, 6
	octave 3
	note D_, 6
	octave 2
	note D_, 6
	octave 3
	note D_, 3
	note C#, 3
	note D_, 6
	octave 2
	note D_, 6
	note D_, 6
	octave 3
	note D_, 6
	octave 2
	note A_, 6
	note D_, 6
	octave 3
	note D_, 3
	octave 2
	note A_, 3
	note F#, 3
	note E_, 3
	note C#, 6
	octave 3
	note C#, 6
	octave 2
	note C#, 6
	octave 3
	note C#, 6
	octave 2
	note C#, 6
	octave 3
	note C#, 6
	octave 2
	note C#, 6
	octave 3
	note C#, 3
	note C_, 3
	note C#, 6
	octave 2
	note C#, 6
	note C#, 6
	octave 3
	note C#, 6
	octave 2
	note G#, 6
	note C#, 6
	octave 3
	note C#, 3
	octave 2
	note G#, 3
	note F_, 3
	note D#, 3
	note C_, 6
	octave 3
	note C_, 6
	octave 2
	note C_, 6
	octave 3
	note C_, 6
	octave 2
	note C_, 6
	octave 3
	note C_, 6
	octave 2
	note C_, 6
	octave 3
	note C_, 3
	octave 2
	note B_, 3
	note B_, 6
	octave 1
	note B_, 6
	note B_, 6
	octave 2
	note B_, 6
	note F#, 6
	octave 1
	note B_, 6
	octave 2
	note B_, 3
	note F#, 3
	note D#, 3
	note C#, 3
	note C#, 6
	note G#, 6
	note C#, 6
	note G#, 6
	note C#, 6
	note G_, 6
	octave 3
	note C#, 6
	octave 2
	note G_, 6
	note C#, 6
	note G_, 6
	octave 3
	note C#, 6
	octave 2
	note G_, 6
	note E_, 6
	note F#, 6
	note E_, 3
	note D_, 3
	octave 1
	note B_, 6
	octave 2
	note C#, 6
	note G#, 6
	note C#, 6
	note G#, 6
	note C#, 6
	note G_, 6
	octave 3
	note C#, 6
	octave 2
	note G_, 6
	note C#, 6
	note G_, 6
	octave 3
	note C#, 6
	octave 2
	note G_, 6
	note E_, 6
	note F#, 6
	note E_, 3
	note D_, 3
	octave 1
	note B_, 6
	octave 2
	note C#, 6
	note G#, 6
	note C#, 6
	note G#, 6
	note C#, 6
	note G_, 6
	octave 3
	note C#, 6
	octave 2
	note G_, 6
	note C#, 6
	note G_, 6
	octave 3
	note C#, 6
	octave 2
	note G_, 6
	note E_, 6
	note F#, 6
	note E_, 3
	note D_, 3
	octave 1
	note B_, 6
	octave 2
	note C#, 6
	note G_, 6
	octave 3
	note C#, 6
	octave 2
	note G_, 6
	note E_, 6
	note F#, 6
	note D_, 6
	octave 1
	note B_, 6
	octave 2
	note C#, 6
	note G#, 6
	note C#, 6
	note G#, 6
	note C#, 6
	note G_, 6
	octave 3
	note D_, 6
	octave 2
	note G_, 6
	octave 1
	note B_, 6
	octave 2
	note F#, 6
	note B_, 6
	note F_, 6
	note D#, 6
	note E_, 6
	note D#, 3
	note C#, 3
	octave 1
	note A#, 6
	note B_, 6
	octave 2
	note F#, 6
	octave 1
	note B_, 6
	octave 2
	note F#, 6
	octave 1
	note B_, 6
	octave 2
	note F_, 6
	note B_, 6
	note F_, 6
	octave 1
	note B_, 6
	octave 2
	note F#, 6
	note B_, 6
	note F#, 6
	note D_, 6
	note E_, 6
	note D#, 3
	note C#, 3
	octave 1
	note A#, 6
	note B_, 6
	octave 2
	note F#, 6
	octave 1
	note B_, 6
	octave 2
	note F#, 6
	octave 1
	note B_, 6
	octave 2
	note F_, 6
	note B_, 6
	note F_, 6
	note C#, 6
	note G#, 6
	octave 3
	note C#, 6
	octave 2
	note G#, 6
	note C#, 6
	note D_, 6
	octave 1
	note B_, 6
	octave 2
	note D_, 6
	note C#, 6
	note G#, 6
	note C#, 6
	note G#, 6
	note C#, 6
	note D_, 6
	octave 1
	note B_, 6
	octave 2
	note D_, 6
	note C#, 6
	note C#, 6
	note __, 6
	note C#, 6
	note __, 6
	note C#, 6
	note __, 6
	note C#, 6
	note __, 6
	note C#, 6
	note __, 6
	note C#, 6
	note C#, 6
	note __, 6
	note C#, 6
	note __, 6
	note G#, 6
	octave 3
	note C#, 6
	octave 2
	note G_, 6
	octave 3
	note C_, 6
	octave 2
	note F#, 6
	note B_, 6
	note F_, 6
	note A#, 6
	note E_, 6
	note A_, 6
	note D#, 6
	note G#, 6
	note D_, 6
	note G_, 6
	note C#, 6
	note F#, 6
	note G#, 6
	octave 3
	note C#, 6
	octave 2
	note G_, 6
	octave 3
	note C_, 6
	octave 2
	note F#, 6
	note B_, 6
	note F_, 6
	note A#, 6
	note E_, 6
	note A_, 6
	note D#, 6
	note G#, 6
	note D_, 6
	note G_, 6
	note C#, 6
	note F#, 6
	note C_, 6
	octave 3
	note C_, 6
	octave 2
	note C_, 6
	octave 3
	note C_, 6
	octave 2
	note C_, 6
	octave 3
	note C_, 6
	octave 2
	note C_, 6
	octave 3
	note C_, 3
	octave 2
	note B_, 3
	octave 3
	note C_, 6
	octave 2
	note C_, 3
	note __, 3
	note C_, 6
	octave 3
	note C_, 6
	octave 2
	note G_, 6
	note C_, 6
	octave 3
	note C_, 3
	octave 2
	note G_, 3
	note E_, 3
	note D_, 3
	note C_, 6
	octave 3
	note C_, 6
	octave 2
	note C_, 6
	octave 3
	note C_, 6
	octave 2
	note C_, 6
	octave 3
	note C_, 6
	octave 2
	note C_, 6
	octave 3
	note C_, 3
	octave 2
	note B_, 3
	octave 3
	note C_, 6
	octave 2
	note C_, 3
	note __, 3
	note C_, 6
	octave 3
	note C_, 6
	octave 2
	note G_, 6
	note C_, 6
	octave 3
	note C_, 3
	octave 2
	note G_, 3
	note E_, 3
	note D_, 3
	note C_, 6
	octave 3
	note C_, 6
	octave 2
	note C_, 6
	octave 3
	note C_, 6
	octave 2
	note C_, 6
	octave 3
	note C_, 6
	octave 2
	note C_, 6
	octave 3
	note C_, 3
	octave 2
	note B_, 3
	octave 3
	note C_, 6
	octave 2
	note C_, 3
	note __, 3
	note C_, 6
	octave 3
	note C_, 6
	octave 2
	note G_, 6
	note C_, 6
	octave 3
	note C_, 3
	octave 2
	note G_, 3
	note E_, 3
	note D_, 3
	octave 1
	note A#, 6
	octave 2
	note A#, 6
	octave 1
	note A#, 6
	octave 2
	note A#, 6
	octave 1
	note A#, 6
	octave 2
	note A#, 6
	octave 1
	note A#, 6
	octave 2
	note A#, 3
	note A_, 3
	note A#, 6
	octave 1
	note A#, 6
	note A#, 6
	octave 2
	note A#, 6
	note F_, 6
	octave 1
	note A#, 6
	octave 2
	note A#, 3
	note F_, 3
	note D_, 3
	note C_, 3
	octave 1
	note A_, 6
	octave 2
	note A_, 6
	octave 1
	note A_, 6
	octave 2
	note A_, 6
	octave 1
	note A_, 6
	octave 2
	note A_, 6
	octave 1
	note A_, 6
	octave 2
	note A_, 3
	note G#, 3
	note A_, 6
	octave 1
	note A_, 6
	note A_, 6
	octave 2
	note A_, 6
	note E_, 6
	octave 1
	note A_, 6
	octave 2
	note A_, 3
	note E_, 3
	note C#, 3
	octave 1
	note B_, 3
	note G#, 6
	octave 2
	note G#, 6
	octave 1
	note G#, 6
	octave 2
	note G#, 6
	octave 1
	note G#, 6
	octave 2
	note G#, 6
	octave 1
	note G#, 6
	octave 2
	note G#, 3
	note G_, 3
	note G_, 6
	octave 1
	note G_, 6
	note G_, 6
	octave 2
	note G_, 6
	note D_, 6
	octave 1
	note G_, 6
	octave 2
	note G_, 3
	note D_, 3
	octave 1
	note B_, 3
	note A_, 3
	octave 2
	note G_, 6
	note __, 6
	note D_, 6
	note __, 6
	octave 1
	note B_, 6
	note __, 6
	octave 2
	note D_, 6
	note __, 6
	note F_, 6
	octave 3
	note C_, 6
	note F_, 6
	note C_, 6
	octave 2
	note F_, 6
	octave 3
	note C_, 6
	note F_, 3
	note G_, 3
	note F_, 3
	note C_, 3
	note F_, 6
	octave 2
	note F_, 6
	note __, 6
	octave 3
	note C_, 6
	note __, 6
	note F_, 6
	note __, 6
	note A_, 6
	octave 2
	note F_, 6
	note B_, 6
	octave 3
	note G_, 6
	note D_, 6
	octave 2
	note B_, 6
	note A_, 6
	note B_, 3
	octave 3
	note D_, 3
	octave 2
	note B_, 3
	note A_, 3
	note G_, 6
	note D_, 6
	note __, 6
	note G_, 6
	note __, 6
	note B_, 6
	note __, 6
	octave 3
	note D_, 6
	octave 2
	note E_, 6
	note B_, 6
	octave 3
	note E_, 6
	octave 2
	note B_, 6
	note E_, 6
	note B_, 6
	octave 3
	note E_, 3
	note F_, 3
	note E_, 3
	octave 2
	note B_, 3
	note E_, 6
	octave 1
	note B_, 6
	note __, 6
	octave 2
	note E_, 6
	note __, 6
	note G#, 6
	note __, 6
	note B_, 6
	note A_, 6
	octave 3
	note C#, 6
	note A_, 6
	note E_, 6
	octave 2
	note A_, 6
	octave 3
	note E_, 6
	octave 4
	note C#, 3
	note D_, 3
	note C#, 3
	octave 3
	note A_, 3
	octave 2
	note A_, 6
	note E_, 6
	note __, 6
	note A_, 6
	note __, 6
	octave 3
	note C#, 6
	note __, 6
	note E_, 6
	octave 2
	note F_, 6
	octave 3
	note C_, 6
	note F_, 6
	note C_, 6
	octave 2
	note F_, 6
	octave 3
	note C_, 6
	note F_, 3
	note G_, 3
	note F_, 3
	note C_, 3
	note F_, 6
	octave 2
	note F_, 6
	note __, 6
	octave 3
	note C_, 6
	note __, 6
	note F_, 6
	note __, 6
	note A_, 6
	octave 2
	note F#, 6
	octave 3
	note E_, 6
	note F#, 6
	note C_, 6
	octave 2
	note F#, 6
	octave 3
	note C_, 6
	note F#, 3
	note G_, 3
	note F#, 3
	note C_, 3
	note F#, 6
	octave 2
	note A_, 6
	note __, 6
	octave 3
	note C_, 6
	note __, 6
	note E_, 6
	note __, 6
	note A_, 6
	octave 2
	note F#, 4
	octave 3
	note C_, 4
	note F#, 4
	octave 2
	note F_, 4
	note B_, 4
	octave 3
	note F_, 4
	octave 2
	note E_, 4
	note A#, 4
	octave 3
	note E_, 4
	octave 2
	note D#, 4
	note A_, 4
	octave 3
	note D#, 4
	octave 2
	note D_, 4
	note G#, 4
	octave 3
	note D_, 4
	octave 2
	note C#, 4
	note G_, 4
	octave 3
	note C#, 4
	octave 2
	note C_, 4
	note F#, 4
	octave 3
	note C_, 4
	loopchannel 0, Music_FrontierBrain_Loop3
