Music_Club1:
	channel_count 4
	channel 1, Music_Club1_Ch1
	channel 2, Music_Club1_Ch2
	channel 3, Music_Club1_Ch3
	channel 4, Music_Club1_Ch4

Music_Club1_Ch1: ; f9be5 (3e:5be5)
	speed 5
	;stereo_panning 1, 1
	;vibrato_type 8
	vibrato 20, 3, 3
	fade_wave 8
	octave 3
	duty_cycle 0
	channel_volume 9
	fade_wave 8
	note C#, 2
	dec_octave
	note A_, 2
	inc_octave
	note C#, 2
	note A_, 2
	duty_cycle 2
	channel_volume 7
	inc_octave
	speed 1
	note C#, 8
	channel_volume 2
	note C#, 2
	channel_volume 6
	note A_, 4
	channel_volume 7
	note A_, 4
	channel_volume 2
	note A_, 2
	dec_octave
	duty_cycle 0
	channel_volume 9
	speed 5
	note C#, 2
	dec_octave
	note A#, 2
	inc_octave
	note C#, 2
	note A#, 2
	duty_cycle 2
	channel_volume 7
	inc_octave
	speed 1
	note C#, 8
	channel_volume 2
	note C#, 2
	speed 5
	channel_volume 8
	dec_octave
	note B_, 1
	inc_octave
	note C_, 1
	;vibrato_type 1
	vibrato 10, 3, 3
	note C#, 4
	dec_octave
	;vibrato_type 8
	vibrato 20, 3, 3
	note A_, 2
	inc_octave
	note C#, 4
	dec_octave
	note B_, 2
	channel_volume 2
	note B_, 2
	rest 2
	duty_cycle 0
	channel_volume 9
	fade_wave 8
	note E_, 6
	rest 2
.MainLoop
	duty_cycle 0
	channel_volume 10
	octave 3
	rest 6
	note A_, 4
	note E_, 2
	note A_, 4
	note B_, 2
	inc_octave
	note C_, 4
	note C#, 8
	channel_volume 4
	note C#, 4
	channel_volume 10
	note C#, 2
	note D_, 4
	note E_, 2
	channel_volume 4
	note E_, 2
	rest 2
	channel_volume 10
	note D#, 1
	note E_, 7
	note D_, 6
	dec_octave
	note A_, 4
	note F#, 2
	channel_volume 4
	note F#, 2
	rest 2
	inc_octave
	channel_volume 10
	note C_, 1
	note C#, 3
	channel_volume 4
	note C#, 2
	channel_volume 10
	note C#, 2
	note C_, 4
	dec_octave
	note B_, 6
	channel_volume 9
	note D_, 4
	rest 2
	dec_octave
	note A_, 2
	;vibrato_type 1
	duty_cycle 2
	channel_volume 5
	inc_octave
	inc_octave
	inc_octave
	note C_, 1
	note C#, 5
	dec_octave
	dec_octave
	;vibrato_type 8
	duty_cycle 0
	channel_volume 10
	note A_, 4
	note E_, 2
	note A_, 4
	note B_, 2
	inc_octave
	note C_, 4
	note C#, 6
	dec_octave
	dec_octave
	channel_volume 9
	note A#, 1
	rest 5
	inc_octave
	inc_octave
	channel_volume 10
	note C#, 2
	note D_, 4
	note E_, 2
	channel_volume 4
	note E_, 2
	rest 2
	channel_volume 10
	note D#, 1
	note E_, 7
	note D_, 6
	dec_octave
	note A_, 4
	note F#, 2
	channel_volume 4
	note F#, 2
	rest 2
	channel_volume 10
	inc_octave
	note C_, 1
	note C#, 3
	channel_volume 4
	note C#, 2
	channel_volume 10
	note C#, 2
	note C_, 4
	dec_octave
	note B_, 8
	channel_volume 4
	note B_, 4
	channel_volume 10
	note E_, 2
	note F_, 1
	note F#, 5
	note A_, 6
	note B_, 4
	note A_, 2
	channel_volume 4
	note A_, 2
	rest 2
	channel_volume 10
	note E_, 1
	note F_, 7
	note A_, 6
	note B_, 4
	note A_, 2
	channel_volume 4
	note A_, 2
	rest 2
	inc_octave
	channel_volume 10
	note C_, 1
	note C#, 5
	channel_volume 4
	note C#, 2
	channel_volume 10
	note C#, 4
	channel_volume 4
	note C#, 2
	channel_volume 10
	note C#, 4
	note C_, 2
	note C#, 4
	dec_octave
	note F#, 2
	channel_volume 4
	note F#, 2
	rest 2
	inc_octave
	channel_volume 10
	note D#, 1
	note E_, 5
	note D_, 6
	note C#, 4
	channel_volume 4
	note C#, 2
	channel_volume 10
	note C_, 1
	note C#, 7
	dec_octave
	note A_, 4
	note F#, 2
	note A_, 4
	note F#, 2
	channel_volume 4
	note F#, 2
	rest 2
	channel_volume 10
	inc_octave
	note C_, 1
	note C#, 5
	note D_, 1
	note C#, 1
	dec_octave
	note A_, 4
	note F#, 2
	note A_, 4
	note F#, 2
	channel_volume 4
	note F#, 2
	rest 2
	inc_octave
	channel_volume 10
	note C_, 1
	note C#, 5
	channel_volume 4
	note C#, 2
	channel_volume 10
	note C#, 4
	channel_volume 4
	note C#, 2
	channel_volume 10
	note C#, 4
	dec_octave
	note A_, 2
	inc_octave
	note C#, 4
	dec_octave
	note B_, 14
	duty_cycle 2
	channel_volume 6
	note G#, 2
	note B_, 1
	channel_volume 3
	note B_, 1
	inc_octave
	channel_volume 6
	note E_, 1
	channel_volume 3
	note E_, 1
	channel_volume 6
	note G#, 1
	channel_volume 3
	note G#, 1
	channel_volume 6
	note B_, 1
	channel_volume 3
	note B_, 1
	inc_octave
	channel_volume 6
	note E_, 1
	channel_volume 3
	note E_, 1
	sound_loop 0, .MainLoop


Music_Club1_Ch2: ; f9d5f (3e:5d5f)
	speed 5
	;stereo_panning 1, 1
	;vibrato_type 8
	vibrato 20, 3, 3
	fade_wave 7
	octave 2
	duty_cycle 0
	channel_volume 9
	fade_wave 8
	note A_, 2
	note E_, 2
	note A_, 2
	inc_octave
	note C#, 2
	duty_cycle 2
	channel_volume 5
	speed 1
	note A_, 8
	rest 2
	inc_octave
	note C#, 8
	rest 2
	speed 5
	duty_cycle 0
	channel_volume 9
	dec_octave
	dec_octave
	note A#, 2
	note E_, 2
	note A#, 2
	inc_octave
	note C#, 2
	duty_cycle 2
	channel_volume 5
	speed 1
	note A#, 8
	rest 2
	dec_octave
	speed 5
	duty_cycle 0
	channel_volume 9
	note G_, 1
	note G#, 1
	note A_, 2
	note D_, 2
	note F#, 2
	note A_, 2
	note F#, 2
	note G#, 3
	rest 3
	channel_volume 9
	note B_, 6
	rest 2
.MainLoop
	octave 2
	rest 4
	inc_octave
	channel_volume 9
	note C#, 5
	rest 7
	note C#, 4
	rest 2
	note C#, 2
	rest 4
	dec_octave
	note A#, 2
	duty_cycle 2
	channel_volume 5
	octave 5
	note C#, 1
	note D_, 3
	note C#, 2
	dec_octave
	note A#, 4
	dec_octave
	duty_cycle 0
	channel_volume 9
	note E_, 4
	rest 2
	;vibrato_type 1
	duty_cycle 2
	channel_volume 5
	octave 5
	note C_, 1
	note C#, 5
	duty_cycle 0
	channel_volume 9
	octave 3
	note D_, 2
	duty_cycle 2
	channel_volume 5
	inc_octave
	note A_, 4
	note F#, 2
	note E_, 4
	note D_, 2
	rest 4
	note E_, 4
	rest 2
	note E_, 2
	rest 4
	note E_, 2
	note F#, 4
	note A_, 2
	note B_, 4
	note A_, 2
	rest 2
	duty_cycle 0
	channel_volume 9
	rest 2
	dec_octave
	note C#, 2
	channel_volume 6
	note C#, 4
	channel_volume 3
	note C#, 4
	rest 2
	channel_volume 9
	note C#, 2
	;vibrato_type 8
	channel_volume 6
	note D#, 4
	note E_, 6
	channel_volume 3
	note E_, 2
	inc_octave
	inc_octave
	;vibrato_type 1
	duty_cycle 2
	channel_volume 5
	note C#, 1
	note D_, 3
	note C#, 2
	dec_octave
	note A#, 4
	note F#, 2
	rest 4
	inc_octave
	note C_, 1
	note C#, 5
	dec_octave
	dec_octave
	duty_cycle 0
	channel_volume 9
	note D_, 2
	duty_cycle 2
	channel_volume 5
	inc_octave
	note A_, 4
	note F#, 2
	note E_, 4
	note D_, 2
	rest 4
	note D#, 1
	note E_, 3
	rest 2
	note E_, 2
	note D#, 4
	note D_, 6
	dec_octave
	duty_cycle 0
	channel_volume 9
	note D_, 4
	rest 2
	dec_octave
	note A_, 2
	rest 4
	note A_, 2
	duty_cycle 2
	channel_volume 5
	inc_octave
	inc_octave
	note F_, 1
	note F#, 3
	note D_, 2
	note C#, 4
	dec_octave
	duty_cycle 0
	channel_volume 9
	note D_, 4
	rest 2
	dec_octave
	note A_, 2
	rest 4
	note A_, 2
	inc_octave
	inc_octave
	duty_cycle 2
	channel_volume 5
	note E_, 1
	note F_, 3
	note D_, 2
	note C#, 4
	dec_octave
	duty_cycle 0
	channel_volume 9
	note D_, 4
	rest 2
	dec_octave
	note A_, 2
	rest 4
	note B_, 2
	inc_octave
	duty_cycle 2
	channel_volume 5
	note E_, 4
	note G#, 2
	note B_, 4
	inc_octave
	note E_, 2
	rest 4
	dec_octave
	;vibrato_type 8
	duty_cycle 0
	channel_volume 6
	note A#, 2
	channel_volume 3
	note A#, 2
	rest 2
	inc_octave
	channel_volume 6
	note C_, 1
	note C#, 5
	dec_octave
	note B_, 6
	note A#, 4
	rest 2
	note G#, 1
	note A_, 5
	channel_volume 9
	note D_, 2
	channel_volume 6
	note F#, 4
	note D_, 2
	note F#, 4
	dec_octave
	channel_volume 9
	note A_, 4
	rest 2
	channel_volume 6
	inc_octave
	note G#, 1
	note A_, 5
	channel_volume 9
	note D_, 2
	channel_volume 6
	note F#, 4
	note D_, 2
	note F#, 4
	dec_octave
	channel_volume 9
	note A_, 4
	rest 2
	inc_octave
	channel_volume 6
	note G#, 1
	note A_, 5
	channel_volume 9
	note D_, 2
	channel_volume 6
	note A_, 4
	rest 2
	note A_, 4
	dec_octave
	channel_volume 9
	note A_, 2
	inc_octave
	channel_volume 6
	note A_, 4
	note G#, 12
	dec_octave
	channel_volume 9
	note A_, 4
	rest 2
	note B_, 4
	rest 2
	inc_octave
	note D_, 2
	sound_loop 0, .MainLoop


Music_Club1_Ch3: ; f9ec4 (3e:5ec4)
	speed 5
	;stereo_panning 1, 1
	channel_volume 1
	fade_wave 11
	;echo 96
	;cutoff 7
	octave 2
	note A_, 2
	rest 2
	note E_, 2
	note A_, 2
	rest 4
	note A#, 2
	rest 2
	note E_, 2
	note A#, 2
	rest 4
	note B_, 2
	;cutoff 4
	note B_, 2
	;cutoff 7
	note F#, 2
	note F_, 2
	inc_octave
	;cutoff 4
	note D_, 2
	dec_octave
	;cutoff 7
	note E_, 2
	rest 4
	inc_octave
	note E_, 6
	dec_octave
	note E_, 2
.MainLoop
	octave 2
	note A_, 4
	inc_octave
	;cutoff 4
	note A_, 2
	dec_octave
	;cutoff 7
	note C#, 6
	note E_, 4
	inc_octave
	;cutoff 4
	note A_, 2
	dec_octave
	;cutoff 7
	note F_, 4
	inc_octave
	;cutoff 4
	note A#, 2
	dec_octave
	;cutoff 7
	note F#, 4
	inc_octave
	;cutoff 4
	note F#, 2
	;cutoff 7
	note C#, 6
	dec_octave
	note A#, 4
	inc_octave
	inc_octave
	;cutoff 4
	note C#, 2
	dec_octave
	dec_octave
	;cutoff 7
	note F#, 6
	sound_call Branch_fa01a
	octave 2
	;cutoff 7
	note A_, 4
	inc_octave
	;cutoff 4
	note A_, 2
	dec_octave
	;cutoff 7
	note C#, 6
	note E_, 4
	inc_octave
	;cutoff 4
	note A_, 2
	dec_octave
	;cutoff 7
	note F_, 4
	inc_octave
	inc_octave
	;cutoff 4
	note C#, 2
	dec_octave
	dec_octave
	;cutoff 7
	note F#, 4
	inc_octave
	;cutoff 4
	note F#, 2
	;cutoff 7
	note C#, 6
	dec_octave
	note A#, 4
	inc_octave
	inc_octave
	;cutoff 4
	note E_, 2
	dec_octave
	dec_octave
	;cutoff 7
	note F#, 6
	sound_call Branch_fa01a
	octave 2
	;cutoff 7
	note D_, 4
	inc_octave
	;cutoff 4
	note F#, 2
	dec_octave
	;cutoff 7
	note D_, 4
	rest 2
	note D_, 4
	inc_octave
	;cutoff 4
	note A_, 2
	dec_octave
	;cutoff 7
	note D_, 4
	inc_octave
	;cutoff 4
	note F#, 2
	dec_octave
	;cutoff 7
	note D_, 4
	inc_octave
	;cutoff 4
	note F_, 2
	dec_octave
	;cutoff 7
	note D_, 4
	rest 2
	note D_, 4
	inc_octave
	;cutoff 4
	note A_, 2
	dec_octave
	;cutoff 7
	note D_, 4
	inc_octave
	;cutoff 4
	note F_, 2
	dec_octave
	;cutoff 7
	note C#, 4
	inc_octave
	;cutoff 4
	note E_, 2
	dec_octave
	;cutoff 7
	note C#, 6
	note E_, 4
	inc_octave
	inc_octave
	;cutoff 4
	note E_, 2
	dec_octave
	dec_octave
	;cutoff 7
	note F_, 6
	note F#, 4
	inc_octave
	;cutoff 4
	note A#, 2
	;cutoff 7
	note C#, 6
	dec_octave
	note A#, 4
	inc_octave
	;cutoff 4
	note F#, 2
	dec_octave
	;cutoff 7
	note F#, 6
	note B_, 4
	inc_octave
	;cutoff 4
	note A_, 2
	dec_octave
	;cutoff 7
	note F#, 6
	note A_, 4
	inc_octave
	;cutoff 4
	note F#, 2
	dec_octave
	;cutoff 7
	note A#, 4
	inc_octave
	inc_octave
	;cutoff 4
	note D_, 2
	dec_octave
	dec_octave
	;cutoff 7
	note B_, 4
	inc_octave
	;cutoff 4
	note A_, 2
	dec_octave
	;cutoff 7
	note F#, 6
	note D_, 4
	inc_octave
	;cutoff 4
	note F#, 2
	dec_octave
	;cutoff 7
	note F#, 6
	note E_, 4
	inc_octave
	;cutoff 4
	note A_, 2
	dec_octave
	;cutoff 6
	note E_, 6
	;cutoff 7
	note E_, 4
	inc_octave
	;cutoff 4
	note F#, 2
	dec_octave
	;cutoff 7
	note E_, 4
	inc_octave
	;cutoff 4
	note F#, 2
	;cutoff 7
	note E_, 4
	;cutoff 4
	note G#, 2
	dec_octave
	;cutoff 7
	note E_, 4
	inc_octave
	;cutoff 4
	note F#, 2
	dec_octave
	;cutoff 7
	note F#, 4
	inc_octave
	;cutoff 4
	note G#, 2
	dec_octave
	;cutoff 7
	note G#, 4
	inc_octave
	;cutoff 4
	note B_, 2
	;cutoff 7
	sound_loop 0, .MainLoop

Branch_fa01a:
	octave 2
	note B_, 4
	inc_octave
	;cutoff 4
	note A_, 2
	dec_octave
	;cutoff 7
	note C#, 6
	note D_, 4
	inc_octave
	;cutoff 4
	note F#, 2
	dec_octave
	;cutoff 7
	note D#, 6
	note E_, 4
	inc_octave
	;cutoff 4
	note B_, 2
	dec_octave
	;cutoff 7
	note B_, 6
	note G#, 4
	inc_octave
	;cutoff 4
	note B_, 2
	dec_octave
	;cutoff 7
	note E_, 4
	inc_octave
	;cutoff 4
	note E_, 2
	sound_ret


Music_Club1_Ch4: ; fa044 (3e:6044)
	toggle_noise 6
	drum_speed 5
	octave 1
	drum_note 1, 2
	rest 2
	drum_note 1, 2
	drum_note 2, 2
	drum_note 4, 2
	drum_note 5, 2
	drum_note 1, 2
	rest 2
	drum_note 1, 2
	drum_note 2, 2
	drum_note 4, 2
	drum_note 5, 2
	drum_note 2, 4
	drum_note 3, 1
	drum_note 3, 1
	drum_note 2, 4
	drum_note 2, 2
	rest 4
	drum_note 3, 1
	drum_note 3, 1
	drum_note 2, 4
	drum_note 2, 2
.MainLoop
	sound_call Branch_fa06f
	drum_note 1, 4
.Loop1
	drum_note 2, 2
	sound_loop 4, .Loop1
	sound_call Branch_fa06f
	drum_note 1, 4
	drum_note 3, 1
	drum_note 3, 1
	drum_note 2, 4
	drum_note 2, 2
	sound_loop 0, .MainLoop

Branch_fa06f:
.Loop2
	drum_note 1, 4
	drum_note 4, 2
	drum_note 2, 4
	drum_note 4, 2
	sound_loop 15, .Loop2
	sound_ret
; 0xfa077
