Music_MatchStart3:
	channel_count 2
	channel 1, Music_MatchStart3_Ch1
	channel 2, Music_MatchStart3_Ch2

Music_MatchStart3_Ch1: ; f7a0f (3d:7a0f)
	speed 1
	;stereo_panning 1, 1
	fade_wave 8
	octave 2
	channel_volume 15
	duty_cycle 1
	note C_, 1
	note E_, 1
	note G_, 1
	note B_, 1
	note D_, 1
	note F_, 1
	note A_, 1
	note E_, 1
	note G_, 1
	note B_, 1
	octave 3
	note C_, 1
	note E_, 1
	note G_, 1
	note B_, 1
	note D_, 1
	note F_, 1
	note A_, 1
	note E_, 1
	note G_, 1
	note B_, 1
	octave 4
	note C_, 1
	note E_, 1
	note G_, 1
	note B_, 1
	note D_, 1
	note F_, 1
	note A_, 1
	note E_, 1
	note G_, 1
	note B_, 1
	octave 5
	note C_, 1
	note E_, 1
	note G_, 1
	note B_, 1
	octave 2
	duty_cycle 3
	note D_, 1
	note F_, 1
	note A_, 1
	inc_octave
	note C_, 1
	dec_octave
	note E_, 1
	note G_, 1
	note B_, 1
	note F_, 1
	note A_, 1
	inc_octave
	note C_, 1
	octave 3
	note D_, 1
	note F_, 1
	note A_, 1
	inc_octave
	note C_, 1
	dec_octave
	note E_, 1
	note G_, 1
	note B_, 1
	note F_, 1
	note A_, 1
	inc_octave
	note C_, 1
	octave 4
	note D_, 1
	note F_, 1
	note A_, 1
	inc_octave
	note C_, 1
	dec_octave
	note E_, 1
	note G_, 1
	note B_, 1
	note F_, 1
	note A_, 1
	inc_octave
	note C_, 1
	octave 5
	note D_, 1
	note F_, 1
	note A_, 1
	inc_octave
	note C_, 1
	octave 2
	duty_cycle 1
	note E_, 1
	note G_, 1
	note B_, 1
	inc_octave
	note D_, 1
	dec_octave
	note F_, 1
	note A_, 1
	inc_octave
	note C_, 1
	dec_octave
	note G_, 1
	note B_, 1
	inc_octave
	note D_, 1
	octave 3
	note E_, 1
	note G_, 1
	note B_, 1
	inc_octave
	note D_, 1
	dec_octave
	note F_, 1
	note A_, 1
	inc_octave
	note C_, 1
	dec_octave
	note G_, 1
	note B_, 1
	inc_octave
	note D_, 1
	octave 4
	note E_, 1
	note G_, 1
	note B_, 1
	inc_octave
	note D_, 1
	dec_octave
	note F_, 1
	note A_, 1
	inc_octave
	note C_, 1
	dec_octave
	note G_, 1
	note B_, 1
	inc_octave
	note D_, 1
	octave 5
	note E_, 1
	note G_, 1
	note B_, 1
	inc_octave
	note D_, 1
	dec_octave
	octave 4
	channel_volume 6
	note F_, 1
	note A_, 1
	inc_octave
	note C_, 1
	dec_octave
	octave 5
	channel_volume 2
	note G_, 1
	note B_, 1
	inc_octave
	note D_, 1
	sound_ret


Music_MatchStart3_Ch2: ; f7aba (3d:7aba)
	speed 1
	;stereo_panning 1, 1
	fade_wave 8
	;frequency_offset 6
	rest 4
	octave 2
	channel_volume 6
	duty_cycle 1
	note C_, 1
	note E_, 1
	note G_, 1
	note B_, 1
	note D_, 1
	note F_, 1
	note A_, 1
	note E_, 1
	note G_, 1
	note B_, 1
	octave 3
	note C_, 1
	note E_, 1
	note G_, 1
	note B_, 1
	note D_, 1
	note F_, 1
	note A_, 1
	note E_, 1
	note G_, 1
	note B_, 1
	octave 4
	note C_, 1
	note E_, 1
	note G_, 1
	note B_, 1
	note D_, 1
	note F_, 1
	note A_, 1
	note E_, 1
	note G_, 1
	note B_, 1
	octave 5
	note C_, 1
	note E_, 1
	note G_, 1
	note B_, 1
	octave 2
	duty_cycle 3
	note D_, 1
	note F_, 1
	note A_, 1
	inc_octave
	note C_, 1
	dec_octave
	note E_, 1
	note G_, 1
	note B_, 1
	note F_, 1
	note A_, 1
	inc_octave
	note C_, 1
	octave 3
	note D_, 1
	note F_, 1
	note A_, 1
	inc_octave
	note C_, 1
	dec_octave
	note E_, 1
	note G_, 1
	note B_, 1
	note F_, 1
	note A_, 1
	inc_octave
	note C_, 1
	octave 4
	note D_, 1
	note F_, 1
	note A_, 1
	inc_octave
	note C_, 1
	dec_octave
	note E_, 1
	note G_, 1
	note B_, 1
	note F_, 1
	note A_, 1
	inc_octave
	note C_, 1
	octave 5
	note D_, 1
	note F_, 1
	note A_, 1
	inc_octave
	note C_, 1
	octave 2
	duty_cycle 1
	note E_, 1
	note G_, 1
	note B_, 1
	inc_octave
	note D_, 1
	dec_octave
	note F_, 1
	note A_, 1
	inc_octave
	note C_, 1
	dec_octave
	note G_, 1
	note B_, 1
	inc_octave
	note D_, 1
	octave 3
	note E_, 1
	note G_, 1
	note B_, 1
	inc_octave
	note D_, 1
	dec_octave
	note F_, 1
	note A_, 1
	inc_octave
	note C_, 1
	dec_octave
	note G_, 1
	note B_, 1
	inc_octave
	note D_, 1
	octave 4
	note E_, 1
	note G_, 1
	note B_, 1
	inc_octave
	note D_, 1
	dec_octave
	note F_, 1
	note A_, 1
	inc_octave
	note C_, 1
	dec_octave
	note G_, 1
	note B_, 1
	inc_octave
	note D_, 1
	octave 5
	note E_, 1
	note G_, 1
	note B_, 1
	inc_octave
	note D_, 1
	dec_octave
	octave 4
	channel_volume 2
	note F_, 1
	note A_, 1
	inc_octave
	note C_, 1
	dec_octave
	sound_ret
; 0xf7b61
