Music_PokemonDome:
	channel_count 4
	channel 1, Music_PokemonDome_Ch1
	channel 2, Music_PokemonDome_Ch2
	channel 3, Music_PokemonDome_Ch3
	channel 4, Music_PokemonDome_Ch4

Music_PokemonDome_Ch1: ; f9251 (3e:5251)
	notetype0 7
	;stereo_panning 1, 1
	;vibrato_type 9
	vibrato 20, 3, 3
	notetype2 8
	octave 2
	duty_cycle 0
	notetype1 10
	notetype0 1
	note G_, 5
	note A_, 5
	note B_, 4
	inc_octave
	note C_, 5
	note D_, 5
	note E_, 4
	note C_, 5
	note D_, 5
	note E_, 4
	note F_, 5
	note G_, 5
	note A_, 4
	note F_, 5
	note G_, 5
	note A_, 4
	note B_, 5
	inc_octave
	note C_, 5
	note D_, 4
	dec_octave
	note B_, 5
	inc_octave
	note C_, 5
	note D_, 4
	note E_, 5
	note F_, 5
	note G_, 4
	duty_cycle 1
	notetype1 8
	dec_octave
	notetype0 1
	note C_, 11
	notetype1 3
	note C_, 3
	notetype1 8
	note C_, 11
	notetype1 3
	note C_, 10
	rest 7
	notetype1 8
	note C_, 4
	notetype1 3
	note C_, 3
	notetype1 8
	note C_, 4
	notetype1 3
	note C_, 3
	notetype1 8
	note C_, 11
	notetype1 3
	note C_, 3
	notetype1 8
	note C_, 11
	notetype1 3
	note C_, 10
	notetype0 7
	rest 3
	notetype1 8
	notetype0 1
	note D_, 11
	notetype1 3
	note D_, 3
	notetype1 8
	note D_, 11
	notetype1 3
	note D_, 10
	rest 7
	notetype1 8
	note D_, 4
	notetype1 3
	note D_, 3
	notetype1 8
	note D_, 4
	notetype1 3
	note D_, 3
	notetype1 8
	note D_, 11
	notetype1 3
	note D_, 3
	notetype1 8
	note D_, 11
	notetype1 3
	note D_, 3
.MainLoop
	notetype0 7
	duty_cycle 1
	notetype1 10
	octave 2
	note G_, 4
	inc_octave
	duty_cycle 1
	notetype1 8
	notetype0 1
	note E_, 11
	notetype1 3
	note E_, 3
	notetype1 8
	notetype0 1
	note E_, 11
	notetype1 3
	note E_, 10
	rest 7
	notetype1 8
	note E_, 4
	notetype1 3
	note E_, 3
	notetype1 8
	note E_, 4
	notetype1 3
	note E_, 3
	notetype1 8
	note E_, 11
	notetype1 3
	note E_, 3
	notetype1 8
	note E_, 11
	notetype1 3
	note E_, 10
	notetype0 7
	rest 3
	notetype1 8
	notetype0 1
	note D_, 11
	notetype1 3
	note D_, 3
	notetype1 8
	note D_, 11
	notetype1 3
	note D_, 10
	rest 7
	notetype0 1
	notetype1 8
	note D_, 4
	notetype1 3
	note D_, 3
	notetype1 8
	note D_, 4
	notetype1 3
	note D_, 3
	notetype1 8
	note D_, 11
	notetype1 3
	note D_, 3
	notetype1 8
	note D_, 11
	notetype1 3
	note D_, 3
	duty_cycle 0
	notetype1 10
	dec_octave
	notetype0 1
	note B_, 4
	inc_octave
	note C_, 3
	note D_, 4
	note E_, 3
	note F_, 4
	note G_, 3
	note A_, 4
	note B_, 3
	notetype0 7
	inc_octave
	note C_, 12
	dec_octave
	note G_, 1
	notetype1 3
	note G_, 1
	rest 1
	inc_octave
	notetype1 10
	note C_, 1
	note D_, 10
	notetype1 3
	note D_, 2
	notetype1 10
	note G_, 3
	notetype1 3
	note G_, 1
	notetype1 10
	note F_, 10
	notetype1 3
	note F_, 2
	notetype1 10
	note C_, 3
	notetype1 3
	note C_, 1
	notetype1 10
	note F_, 10
	note E_, 1
	notetype1 3
	note E_, 1
	notetype1 10
	note D_, 3
	notetype1 3
	note D_, 1
	notetype1 10
	note E_, 12
	dec_octave
	note G_, 1
	notetype1 3
	note G_, 1
	rest 1
	inc_octave
	notetype1 10
	note C_, 1
	note D_, 8
	dec_octave
	note A_, 4
	inc_octave
	note D_, 3
	notetype1 3
	note D_, 1
	notetype1 10
	note C_, 14
	notetype1 3
	note C_, 2
	dec_octave
	notetype1 10
	note B_, 10
	notetype1 3
	note B_, 2
	notetype1 10
	note G_, 4
	note A_, 12
	note B_, 1
	notetype1 3
	note B_, 2
	inc_octave
	notetype1 10
	note C_, 1
	note D_, 8
	note E_, 4
	note F_, 4
	note G_, 8
	;tie
	note G_, 8
	;tie
	note G_, 8
	notetype1 3
	note G_, 2
	notetype1 10
	note F_, 2
	note E_, 2
	notetype1 3
	note E_, 1
	notetype1 10
	notetype0 1
	note E_, 5
	notetype1 3
	note E_, 2
	notetype0 7
	notetype1 10
	note E_, 1
	notetype1 3
	note E_, 1
	rest 1
	dec_octave
	notetype1 10
	note A_, 1
	inc_octave
	note C_, 8
	note G_, 1
	notetype1 3
	note G_, 2
	notetype1 10
	note F_, 1
	note E_, 1
	notetype1 3
	note E_, 1
	rest 1
	dec_octave
	notetype1 10
	note A_, 1
	inc_octave
	note C_, 8
	note G_, 1
	notetype1 3
	note G_, 2
	notetype1 10
	note F_, 1
	note E_, 1
	notetype1 3
	note E_, 1
	rest 1
	dec_octave
	notetype1 10
	note G#, 1
	inc_octave
	note C_, 12
	;tie
	note C_, 8
	note D_, 8
	note C_, 8
	;tie
	note C_, 8
	;tie
	note C_, 12
	sound_loop 0, .MainLoop


Music_PokemonDome_Ch2: ; f93f8 (3e:53f8)
	notetype0 7
	;stereo_panning 1, 1
	;vibrato_type 9
	vibrato 20, 3, 3
	notetype2 8
	octave 1
	duty_cycle 0
	notetype1 8
	notetype0 1
	note B_, 5
	inc_octave
	note C_, 5
	note D_, 4
	note E_, 5
	note F_, 5
	note G_, 4
	note E_, 5
	note F_, 5
	note G_, 4
	note A_, 5
	note B_, 5
	inc_octave
	note C_, 4
	dec_octave
	note A_, 5
	note B_, 5
	inc_octave
	note C_, 4
	note D_, 5
	note E_, 5
	note F_, 4
	note D_, 5
	note E_, 5
	note F_, 4
	note G_, 5
	note A_, 5
	note B_, 4
.MainLoop
	duty_cycle 1
	notetype1 7
	octave 3
	notetype0 1
	note E_, 11
	notetype1 3
	note E_, 3
	notetype1 7
	note E_, 11
	notetype1 3
	note E_, 10
	rest 7
	notetype1 7
	note E_, 4
	notetype1 3
	note E_, 3
	notetype1 7
	note E_, 4
	notetype1 3
	note E_, 3
	notetype1 7
	note E_, 11
	notetype1 3
	note E_, 3
	notetype1 7
	note E_, 11
	notetype1 3
	note E_, 10
	notetype0 7
	rest 3
	sound_call Branch_f9554
	notetype0 7
	rest 4
	notetype1 7
	notetype0 1
	note G_, 11
	notetype1 3
	note G_, 3
	notetype1 7
	note G_, 11
	notetype1 3
	note G_, 10
	rest 7
	notetype1 7
	note G_, 4
	notetype1 3
	note G_, 3
	notetype1 7
	note G_, 4
	notetype1 3
	note G_, 3
	notetype1 7
	note G_, 11
	notetype1 3
	note G_, 3
	notetype1 7
	note G_, 11
	notetype1 3
	note G_, 10
	notetype0 7
	rest 3
	sound_call Branch_f9554
	duty_cycle 0
	notetype1 8
	dec_octave
	notetype0 1
	note G_, 4
	note A_, 3
	note B_, 4
	inc_octave
	note C_, 3
	note D_, 4
	note E_, 3
	note F_, 4
	note F#, 3
	notetype0 7
	note G_, 10
	note F_, 1
	rest 1
	note E_, 1
	notetype1 2
	note E_, 1
	rest 1
	notetype1 7
	note G_, 1
	note G_, 10
	note A_, 2
	note B_, 2
	note G_, 2
	inc_octave
	note C_, 10
	rest 2
	dec_octave
	note A_, 3
	rest 1
	note G#, 10
	note A#, 1
	rest 1
	note G#, 3
	rest 1
	note G_, 8
	inc_octave
	note C_, 4
	dec_octave
	note E_, 4
	note F#, 8
	note F#, 4
	notetype2 6
	note F#, 3
	notetype2 8
	notetype0 1
	note F#, 5
	rest 2
	notetype0 7
	note F_, 14
	rest 2
	dec_octave
	note G_, 1
	note A_, 1
	note B_, 1
	inc_octave
	note C_, 1
	note D_, 1
	dec_octave
	note B_, 1
	inc_octave
	note C_, 1
	note D_, 1
	note E_, 1
	note C_, 1
	note D_, 1
	note E_, 1
	note F_, 1
	note F_, 1
	note A_, 1
	note B_, 1
	duty_cycle 1
	notetype1 8
	notetype0 1
.Loop1
	note F_, 5
	note C_, 5
	dec_octave
	note A_, 4
	inc_octave
	note C_, 5
	dec_octave
	note A_, 5
	note F_, 4
	inc_octave
	sound_loop 4, .Loop1
.Loop2
	note G#, 5
	note F_, 5
	note C_, 4
	note F_, 5
	note C_, 5
	dec_octave
	note G#, 4
	inc_octave
	sound_loop 4, .Loop2
.Loop3
	inc_octave
	note D_, 5
	dec_octave
	note B_, 5
	note G_, 4
	note B_, 5
	note G_, 5
	note D_, 4
	sound_loop 4, .Loop3
.Loop4
	inc_octave
	note C#, 5
	dec_octave
	note A#, 5
	note G_, 4
	note A#, 5
	note G_, 5
	note E_, 4
	sound_loop 3, .Loop4
	inc_octave
	note C#, 5
	dec_octave
	note C#, 5
	note E_, 4
	note G_, 5
	note A#, 5
	inc_octave
	note C#, 4
	duty_cycle 0
	notetype1 8
	notetype0 7
.Loop5
	note C_, 1
	notetype1 2
	note C_, 1
	rest 1
	notetype1 7
	dec_octave
	note F_, 1
	note A_, 8
	inc_octave
	note E_, 1
	notetype1 2
	note E_, 1
	rest 1
	notetype1 7
	note D_, 1
	sound_loop 2, .Loop5
	note C_, 1
	notetype1 2
	note C_, 1
	rest 1
	dec_octave
	notetype1 7
	note F_, 1
	note G#, 12
	note C_, 1
	dec_octave
	note F_, 1
	note G#, 1
	inc_octave
	note C_, 1
	note F_, 1
	dec_octave
	note G#, 1
	inc_octave
	note C_, 1
	note F_, 1
	note G#, 1
	note C_, 1
	note F_, 1
	note G#, 1
	inc_octave
	note C_, 1
	dec_octave
	note F_, 1
	note G#, 1
	note B_, 1
	sound_loop 0, .MainLoop

Branch_f9554:
	notetype0 1
	notetype1 7
	note F_, 11
	notetype1 3
	note F_, 3
	notetype1 7
	note F_, 11
	notetype1 3
	note F_, 10
	rest 7
	notetype1 7
	note F_, 4
	notetype1 3
	note F_, 3
	notetype1 7
	note F_, 4
	notetype1 3
	note F_, 3
.Loop6
	notetype1 7
	note F_, 11
	notetype1 3
	note F_, 3
	sound_loop 2, .Loop6
	sound_ret


Music_PokemonDome_Ch3: ; f9579 (3e:5579)
	notetype0 7
	;stereo_panning 1, 1
	notetype1 1
	notetype2 11
	;echo 64
	;cutoff 6
	octave 2
	;cutoff 4
	notetype0 1
.Loop1
	note G_, 5
	note G_, 5
	note G_, 4
	sound_loop 8, .Loop1
	;cutoff 6
	notetype0 7
.MainLoop
	inc_octave
	note C_, 2
	note C_, 2
	rest 2
	note C_, 1
	note C_, 1
	sound_call Branch_f9613
	octave 2
	;cutoff 4
	note C_, 2
	inc_octave
	;cutoff 6
	note C_, 2
	rest 2
	note C_, 1
	note C_, 1
	sound_call Branch_f9613
	octave 3
	note C_, 2
	note C_, 2
	rest 2
	note C_, 1
	note C_, 1
	note C_, 2
	note C_, 2
	rest 2
	dec_octave
	note G_, 2
	note B_, 2
	note B_, 2
	rest 2
	note B_, 1
	note B_, 1
	note B_, 2
	note B_, 2
	rest 2
	note G_, 2
	note A_, 2
	note A_, 2
	rest 2
	note A_, 1
	note A_, 1
	note A_, 2
	note A_, 2
	rest 2
	note F_, 2
	note G#, 2
	note G#, 2
	rest 2
	note G#, 1
	note G#, 1
	note G#, 2
	note G#, 2
	rest 2
	note F_, 2
.Loop2
	note G_, 2
	note G_, 2
	rest 2
	note G_, 1
	note G_, 1
	sound_loop 2, .Loop2
.Loop3
	note F#, 2
	note F#, 2
	rest 2
	note F#, 1
	note F#, 1
	sound_loop 2, .Loop3
.Loop4
	note G_, 2
	note G_, 2
	rest 2
	note G_, 1
	note G_, 1
	sound_loop 4, .Loop4
.Loop5
	note F_, 2
	note F_, 2
	rest 2
	note F_, 1
	note F_, 1
	sound_loop 4, .Loop5
.Loop6
	note E_, 2
	note E_, 2
	rest 2
	note E_, 1
	note E_, 1
	sound_loop 2, .Loop6
.Loop7
	note A_, 2
	note A_, 2
	rest 2
	note A_, 1
	note A_, 1
	sound_loop 2, .Loop7
.Loop8
	note D_, 2
	note D_, 2
	rest 2
	note D_, 1
	note D_, 1
	sound_loop 4, .Loop8
.Loop9
	note G_, 2
	note G_, 2
	rest 2
	note G_, 1
	note G_, 1
	sound_loop 4, .Loop9
	sound_loop 0, .MainLoop

Branch_f9613:
	octave 3
	note C_, 2
	note C_, 2
	rest 2
	dec_octave
	note G_, 2
	inc_octave
	note C_, 2
	note C_, 2
	rest 2
	note C_, 1
	note C_, 1
	note C_, 2
	note C_, 2
	dec_octave
	;cutoff 4
	note G_, 2
	;cutoff 6
	note G_, 2
	sound_ret


Music_PokemonDome_Ch4: ; f9629 (3e:5629)
	toggle_noise 6
	drum_speed 7
	octave 1
	drum_note 6, 8
	drum_speed 1
	drum_note 2, 4
	drum_note 3, 3
.Loop1
	drum_note 3, 4
	drum_note 3, 3
	sound_loop 7, .Loop1
.MainLoop
.Loop2
	drum_speed 7
	drum_note 2, 2
	drum_note 2, 2
	rest 2
	drum_speed 1
	drum_note 2, 4
	drum_note 3, 3
	drum_note 3, 4
	drum_note 3, 3
	sound_loop 2, .Loop2
	sound_loop 0, .MainLoop
; 0xf9646
