Music_MeetJessieJames_Ch1::
	tempo 144
	volume 7, 7
	duty 3
	vibrato 8, 1, 4
	notetype 12, 11, 2
	octave 3
	G# 1
	G_ 1
	F# 2
	F_ 2
	E_ 2
	D# 2
	D_ 2
	C# 2
	C_ 2
	notetype 12, 11, 6
	D# 12
	C_ 4

Music_MeetJessieJames_branch_83187::
	notetype 12, 11, 2
	octave 4
	D_ 16
	rest 12
	notetype 12, 11, 4
	octave 3
	A# 4
	rest 16
	rest 8
	notetype 12, 11, 2
	octave 2
	A_ 2
	octave 3
	A# 2
	A_ 4
	D_ 1
	D# 1
	D# 2
	D# 2
	D_ 2
	D# 2
	D_ 2
	D# 2
	F_ 2
	D_ 1
	D# 1
	D# 2
	D# 2
	D_ 2
	octave 2
	A# 4
	notetype 12, 11, 4
	octave 3
	B_ 4
	notetype 12, 11, 2
	D_ 1
	D# 1
	D# 2
	D# 2
	D_ 2
	D# 2
	D_ 2
	D# 2
	F_ 2
	D_ 1
	D# 1
	D# 2
	D# 2
	D_ 2
	octave 2
	A# 2
	octave 3
	B_ 2
	notetype 12, 11, 4
	A# 4
	loopchannel 0, Music_MeetJessieJames_branch_83187


Music_MeetJessieJames_Ch2::
	duty 3
	vibrato 6, 1, 5
	notetype 12, 12, 2
	octave 4
	D_ 1
	C# 1
	C_ 2
	octave 3
	B_ 2
	A# 2
	A_ 2
	G# 2
	G_ 2
	F# 2
	notetype 12, 12, 7
	A_ 12
	octave 4
	C# 4

Music_MeetJessieJames_branch_831df::
	notetype 12, 12, 2
	octave 3
	C# 1
	D_ 1
	D_ 2
	D_ 2
	C# 2
	D_ 2
	C# 2
	D_ 2
	E_ 2
	C# 1
	D_ 1
	D_ 2
	D_ 2
	C# 2
	octave 2
	A_ 4
	notetype 12, 12, 5
	octave 4
	C# 4
	notetype 12, 12, 2
	D_ 1
	octave 3
	D_ 1
	D_ 2
	D_ 2
	C# 2
	D_ 2
	C# 2
	D_ 2
	E_ 2
	C# 1
	D_ 1
	D_ 2
	D_ 2
	C# 2
	notetype 12, 12, 6
	octave 4
	D_ 8
	notetype 12, 12, 2
	D# 6
	F_ 4
	D# 4
	octave 3
	A# 2
	octave 4
	D# 6
	F_ 4
	D# 2
	notetype 12, 12, 5
	D_ 4
	notetype 12, 12, 2
	D# 6
	F_ 4
	D# 4
	octave 3
	A# 2
	octave 4
	D# 4
	F_ 4
	notetype 12, 12, 5
	D# 8
	loopchannel 0, Music_MeetJessieJames_branch_831df


Music_MeetJessieJames_Ch3::
	notetype 12, 1, 0
	rest 16
	rest 8
	octave 4
	D_ 2
	octave 3
	A_ 2
	octave 4
	C_ 2
	D# 2

Music_MeetJessieJames_branch_83235::
	D_ 1
	rest 1
	A_ 1
	rest 1
	D_ 1
	rest 1
	A_ 1
	rest 1
	D_ 1
	rest 1
	A_ 1
	rest 1
	D_ 1
	rest 1
	A_ 1
	rest 1
	D_ 1
	rest 1
	A_ 1
	rest 1
	D_ 1
	rest 1
	A_ 1
	rest 1
	D_ 1
	rest 1
	A# 2
	A_ 2
	D# 2
	D_ 1
	rest 1
	A_ 1
	rest 1
	D_ 1
	rest 1
	A_ 1
	rest 1
	D_ 1
	rest 1
	A_ 1
	rest 1
	D_ 1
	rest 1
	A_ 1
	rest 1
	D_ 1
	rest 1
	A_ 1
	rest 1
	D_ 1
	rest 1
	A_ 1
	rest 1
	D_ 1
	rest 1
	octave 3
	A_ 2
	octave 4
	C_ 2
	D_ 2
	D# 1
	rest 1
	A# 1
	rest 1
	D# 1
	rest 1
	A# 1
	rest 1
	D# 1
	rest 1
	A# 1
	rest 1
	D# 1
	rest 1
	A# 1
	rest 1
	D# 1
	rest 1
	A# 1
	rest 1
	D# 1
	rest 1
	A# 1
	rest 1
	D# 1
	rest 1
	octave 3
	A# 1
	rest 1
	octave 4
	C# 1
	rest 1
	E_ 1
	rest 1
	D# 1
	rest 1
	A# 1
	rest 1
	D# 1
	rest 1
	A# 1
	rest 1
	D# 1
	rest 1
	A# 1
	rest 1
	D# 1
	rest 1
	A# 1
	rest 1
	D# 1
	rest 1
	A# 1
	rest 1
	D# 1
	rest 1
	A# 1
	rest 1
	D# 1
	rest 1
	octave 3
	A# 1
	rest 1
	octave 4
	C# 1
	rest 1
	E_ 1
	rest 1
	loopchannel 0, Music_MeetJessieJames_branch_83235
	endchannel
