Music_SurfingPikachu_Ch1: ; 82ce8 (20:6ce8)
	tempo 0, 117
	stereopanning 119
	duty 3
	vibrato 8, 1, 4
	notetype 12, 11, 3
	octave 3
	note E_, 6
	notetype 12, 11, 2
	note F#, 2
	notetype 12, 11, 3
	note E_, 6
	notetype 12, 11, 2
	note F#, 16
	rest 2
	notetype 12, 11, 3
	note E_, 6
	notetype 12, 11, 2
	note A_, 2
	notetype 12, 11, 3
	note E_, 6
	notetype 12, 11, 2
	note A_, 14
	notetype 12, 11, 2
	note D#, 2
	note C#, 1
	note D#, 1
	octave 2
	note B_, 6
	octave 3
	note E_, 4
	note E_, 4
	note E_, 8
	note G#, 4
	note G#, 4
	note G#, 2

Music_SurfingPikachu_branch_82d1a:
	notetype 12, 11, 3
	octave 3
	note G#, 4
	note E_, 4
	note F#, 4
	note E_, 2
	note A_, 2
	note G#, 2
	note F#, 2
	note G#, 2
	note F#, 2
	note E_, 2
	note D#, 2
	note E_, 2
	note D#, 2
	note C#, 6
	note F#, 2
	note A_, 8
	octave 2
	note B_, 6
	octave 3
	note E_, 2
	note G#, 8
	note G#, 4
	note E_, 4
	note F#, 4
	note E_, 2
	note A_, 2
	note G#, 2
	note F#, 2
	note G#, 2
	note A_, 2
	note G#, 2
	note F#, 2
	note E_, 2
	note G#, 2
	note F#, 6
	note E_, 2
	note F#, 1
	rest 3
	note A_, 4
	duty 0
	notetype 12, 11, 2
	note G#, 1
	note F#, 1
	note G#, 2
	note B_, 2
	note A_, 2
	note G#, 2
	note F#, 2
	note E_, 2
	note D#, 2
	note F#, 2
	note F#, 2
	note D#, 2
	note F#, 2
	note B_, 2
	note A_, 2
	note G#, 2
	note F#, 2
	note B_, 1
	note A#, 1
	note B_, 2
	note G#, 2
	note E_, 2
	note G#, 2
	note G_, 2
	note G#, 2
	note A_, 2
	octave 4
	note C#, 2
	note C_, 2
	note C#, 3
	octave 3
	note F#, 1
	note A_, 2
	note G#, 2
	note F#, 2
	note A_, 2
	note E_, 3
	note E_, 1
	note B_, 2
	note A_, 2
	note G#, 6
	note E_, 1
	note F_, 1
	note F#, 2
	note F#, 2
	note D#, 2
	note F#, 2
	note B_, 2
	note A_, 2
	note G#, 2
	note F#, 2
	note B_, 1
	note A#, 1
	note B_, 2
	note G#, 2
	note E_, 2
	note G#, 2
	note G_, 2
	note G#, 2
	note A_, 2
	octave 4
	note C#, 2
	note C_, 2
	note C#, 3
	octave 3
	note F#, 1
	note A_, 2
	note G#, 2
	note A_, 2
	octave 4
	note D#, 2
	note E_, 2
	note E_, 1
	note D#, 1
	note E_, 1
	note D#, 1
	note E_, 1
	note D#, 1
	note E_, 8
	duty 3
	loopchannel 0, Music_SurfingPikachu_branch_82d1a


Music_SurfingPikachu_Ch2: ; 82d9d (20:6d9d)
	duty 3
	vibrato 6, 1, 5
	notetype 12, 12, 4
	octave 3
	note B_, 6
	notetype 12, 12, 2
	octave 4
	note E_, 2
	notetype 12, 12, 4
	octave 3
	note B_, 6
	notetype 12, 12, 2
	octave 4
	note E_, 2
	notetype 12, 11, 2
	octave 3
	note B_, 2
	octave 4
	note C#, 2
	note D#, 2
	note C#, 2
	octave 3
	note B_, 2
	note A_, 2
	note G#, 2
	note F#, 2
	notetype 12, 12, 4
	octave 4
	note C#, 6
	notetype 12, 12, 2
	note F#, 2
	notetype 12, 12, 4
	note C#, 6
	notetype 12, 12, 2
	note F#, 2
	notetype 12, 11, 2
	note C#, 2
	note D#, 2
	note E_, 2
	note D#, 2
	note C#, 2
	octave 3
	note B_, 2
	note A_, 2
	note G#, 2
	notetype 12, 12, 2
	note E_, 6
	note B_, 4
	note B_, 4
	note B_, 8
	note B_, 4
	note B_, 4
	note B_, 2

Music_SurfingPikachu_branch_82de0:
	notetype 12, 12, 6
	octave 4
	note E_, 4
	octave 3
	note B_, 4
	note A_, 4
	octave 4
	note C#, 4
	octave 3
	note B_, 6
	note A_, 2
	note G#, 8
	note F#, 6
	note A_, 2
	octave 4
	note C#, 8
	octave 3
	note E_, 6
	note G#, 2
	note B_, 8
	octave 4
	note E_, 4
	octave 3
	note B_, 4
	note A_, 4
	octave 4
	note C#, 4
	octave 3
	note B_, 6
	octave 4
	note D#, 2
	note E_, 8
	note D#, 6
	note C#, 2
	note D#, 1
	rest 3
	note F#, 4
	note E_, 10
	notetype 12, 12, 6
	duty 2
	note E_, 2
	note D#, 2
	note C#, 2
	octave 3
	note B_, 6
	octave 4
	note C#, 2
	note D#, 4
	octave 3
	note B_, 4
	octave 4
	note E_, 6
	note F#, 2
	note G#, 8
	note A_, 6
	note G#, 2
	note A_, 4
	note F#, 4
	note G#, 10
	note E_, 2
	note D#, 2
	note C#, 2
	octave 3
	note B_, 6
	octave 4
	note C#, 2
	note D#, 4
	octave 3
	note B_, 4
	octave 4
	note E_, 6
	note F#, 2
	note G#, 8
	note A_, 4
	note F#, 4
	note D#, 4
	octave 5
	note C#, 4
	octave 4
	note B_, 8
	notetype 12, 12, 2
	octave 5
	note E_, 4
	notetype 12, 12, 6
	duty 3
	octave 3
	note B_, 1
	note A#, 1
	note B_, 1
	octave 4
	note C#, 1
	loopchannel 0, Music_SurfingPikachu_branch_82de0


Music_SurfingPikachu_Ch3: ; 82e45 (20:6e45)
	notetype 12, 1, 0
	octave 4
	note B_, 6
	octave 5
	note C#, 1
	rest 1
	octave 4
	note B_, 6
	octave 5
	note C#, 1
	rest 1
	octave 4
	note B_, 1
	rest 1
	note A_, 1
	rest 1
	note G#, 1
	rest 1
	note A_, 1
	rest 1
	note B_, 1
	rest 1
	octave 5
	note C#, 1
	rest 1
	note D#, 1
	rest 1
	note C#, 1
	rest 1
	octave 4
	note A_, 6
	octave 5
	note C#, 1
	rest 1
	octave 4
	note A_, 6
	octave 5
	note C#, 1
	rest 1
	octave 4
	note A_, 1
	rest 1
	note G#, 1
	rest 1
	note F#, 1
	rest 1
	note E_, 1
	rest 1
	note F#, 1
	rest 1
	note G#, 1
	rest 1
	note A_, 1
	rest 1
	note G#, 1
	rest 1
	note E_, 1
	rest 1
	note B_, 1
	rest 1
	note E_, 1
	rest 1
	note B_, 1
	rest 1
	note E_, 1
	rest 1
	note B_, 1
	rest 1
	note E_, 1
	rest 1
	note B_, 1
	rest 1
	note E_, 1
	rest 1
	note B_, 1
	rest 1
	note E_, 1
	rest 1
	note B_, 1
	rest 1
	note E_, 1
	rest 1
	octave 3
	note B_, 1
	rest 1
	octave 4
	note C#, 1
	rest 1
	note D#, 1
	rest 1

Music_SurfingPikachu_branch_82ea0:
	note E_, 1
	rest 1
	note B_, 1
	rest 1
	note E_, 1
	rest 1
	note B_, 1
	rest 1
	note E_, 1
	rest 1
	note B_, 1
	rest 1
	note E_, 1
	rest 1
	note B_, 1
	rest 1
	note E_, 1
	rest 1
	note B_, 1
	rest 1
	note E_, 1
	rest 1
	note B_, 1
	rest 1
	note E_, 1
	rest 1
	note B_, 1
	rest 1
	note E_, 1
	rest 1
	note B_, 1
	rest 1
	note F#, 1
	rest 1
	note A_, 1
	rest 1
	note F#, 1
	rest 1
	note A_, 1
	rest 1
	note F#, 1
	rest 1
	octave 5
	note C#, 1
	note C_, 1
	note C#, 1
	rest 1
	octave 4
	note F#, 1
	rest 1
	note E_, 1
	rest 1
	note G#, 1
	rest 1
	note E_, 1
	rest 1
	note G#, 1
	rest 1
	note E_, 1
	rest 1
	octave 5
	note E_, 1
	note D#, 1
	note E_, 1
	rest 1
	octave 4
	note D#, 1
	rest 1
	note E_, 1
	rest 1
	note B_, 1
	rest 1
	note E_, 1
	rest 1
	note B_, 1
	rest 1
	note E_, 1
	rest 1
	note B_, 1
	rest 1
	note E_, 1
	rest 1
	note B_, 1
	rest 1
	note E_, 1
	rest 1
	note B_, 1
	rest 1
	note E_, 1
	rest 1
	note B_, 1
	rest 1
	note E_, 1
	rest 1
	note B_, 1
	rest 1
	note E_, 1
	rest 1
	note B_, 1
	rest 1
	note F#, 1
	rest 1
	note A_, 1
	rest 1
	note F#, 1
	rest 1
	note A_, 1
	rest 1
	note B_, 1
	rest 1
	note A_, 1
	rest 1
	note G#, 1
	rest 1
	note F#, 1
	rest 1
	note E_, 1
	rest 1
	note B_, 1
	rest 1
	note E_, 1
	rest 1
	note B_, 1
	rest 1
	note E_, 1
	rest 1
	octave 3
	note B_, 1
	rest 1
	octave 4
	note C#, 1
	rest 1
	note D_, 1
	rest 1
	note D#, 1
	rest 1
	note F#, 1
	rest 1
	octave 3
	note B_, 1
	rest 1
	octave 4
	note F#, 1
	rest 1
	note D#, 1
	rest 1
	note F#, 1
	rest 1
	octave 3
	note B_, 1
	rest 1
	octave 4
	note F#, 1
	rest 1
	note E_, 1
	rest 1
	note G#, 1
	rest 1
	octave 3
	note B_, 1
	rest 1
	octave 4
	note G#, 1
	rest 1
	note E_, 1
	rest 1
	note G#, 1
	rest 1
	octave 3
	note B_, 1
	rest 1
	octave 4
	note G#, 1
	rest 1
	note F#, 1
	rest 1
	note A_, 1
	rest 1
	note C#, 1
	rest 1
	note A_, 1
	rest 1
	note F#, 1
	rest 1
	note A_, 1
	rest 1
	note C#, 1
	rest 1
	note A_, 1
	rest 1
	note B_, 1
	note A#, 1
	note B_, 1
	rest 1
	note E_, 1
	rest 1
	note F#, 1
	rest 1
	note G#, 1
	rest 1
	octave 3
	note B_, 1
	rest 1
	octave 4
	note C#, 1
	rest 1
	note D_, 1
	rest 1
	note D#, 1
	rest 1
	note F#, 1
	rest 1
	octave 3
	note B_, 1
	rest 1
	octave 4
	note F#, 1
	rest 1
	note D#, 1
	rest 1
	note F#, 1
	rest 1
	octave 3
	note B_, 1
	rest 1
	octave 4
	note F#, 1
	rest 1
	note E_, 1
	rest 1
	note G#, 1
	rest 1
	octave 3
	note B_, 1
	rest 1
	octave 4
	note G#, 1
	rest 1
	note E_, 1
	rest 1
	note G#, 1
	rest 1
	octave 3
	note B_, 1
	rest 1
	octave 4
	note G#, 1
	rest 1
	note F#, 1
	rest 1
	note A_, 1
	rest 1
	note C#, 1
	rest 1
	note A_, 1
	rest 1
	note F#, 1
	rest 1
	note A_, 1
	rest 1
	note F#, 1
	rest 1
	note D#, 1
	rest 1
	note B_, 1
	rest 1
	note B_, 1
	rest 1
	note A_, 1
	rest 1
	note A_, 1
	rest 1
	note G#, 1
	rest 1
	octave 3
	note B_, 1
	rest 1
	octave 4
	note C#, 1
	rest 1
	note D#, 1
	rest 1
	loopchannel 0, Music_SurfingPikachu_branch_82ea0
; 0x82fbe