Music_YellowUnusedSong_Ch1::
	tempo 140
	volume 7, 7
	duty 3
	vibrato 8, 1, 4
	notetype 8, 11, 2
	octave 3
	A_ 6
	A_ 2
	A_ 2
	A_ 2
	A# 6
	A# 6
	G_ 6
	G_ 6
	A_ 6
	E_ 6
	A_ 6
	A_ 2
	A_ 2
	A_ 2
	A# 6
	A# 6
	A_ 6
	G_ 6
	A_ 12

Music_YellowUnusedSong_branch_82fde::
	A_ 6
	A_ 2
	A_ 2
	A_ 2
	A# 6
	A# 6
	G_ 6
	G_ 6
	A_ 6
	E_ 6
	A_ 6
	A_ 2
	A_ 2
	A_ 2
	A# 6
	A# 6
	G_ 6
	octave 4
	D# 6
	D_ 12
	rest 16
	rest 16
	rest 16
	rest 16
	rest 16
	rest 16
	octave 3
	A_ 6
	A_ 2
	A_ 2
	A_ 2
	A# 6
	A# 6
	G_ 6
	G_ 6
	A_ 6
	E_ 6
	A_ 6
	A_ 2
	A_ 2
	A_ 2
	A# 6
	A# 6
	A_ 6
	G_ 6
	A_ 12
	loopchannel 0, Music_YellowUnusedSong_branch_82fde


Music_YellowUnusedSong_Ch2::
	duty 2
	notetype 8, 12, 2
	octave 4
	D_ 6
	D_ 2
	D_ 2
	D_ 2
	D# 6
	D# 6
	C_ 6
	C_ 6
	D_ 6
	octave 3
	A_ 6
	octave 4
	D_ 6
	D_ 2
	D_ 2
	D_ 2
	D# 6
	D# 6
	D_ 6
	A# 6
	A_ 12

Music_YellowUnusedSong_branch_8302a::
	D_ 6
	D_ 2
	D_ 2
	D_ 2
	D# 6
	D# 6
	C_ 6
	C_ 6
	D_ 6
	octave 3
	A_ 6
	octave 4
	D_ 6
	D_ 2
	D_ 2
	D_ 2
	D# 6
	D# 6
	C_ 6
	G# 6
	G_ 12
	notetype 8, 9, 0
	octave 3
	D# 16
	D# 8
	D# 16
	D# 8
	octave 2
	A# 16
	A# 8
	octave 3
	D# 12
	F_ 12
	notetype 8, 12, 2
	octave 4
	D_ 6
	D_ 2
	D_ 2
	D_ 2
	D# 6
	D# 6
	C_ 6
	C_ 6
	D_ 6
	octave 3
	A_ 6
	octave 4
	D_ 6
	D_ 2
	D_ 2
	D_ 2
	D# 6
	D# 6
	D_ 6
	A# 6
	A_ 12
	loopchannel 0, Music_YellowUnusedSong_branch_8302a


Music_YellowUnusedSong_Ch3::
	notetype 12, 1, 0
	vibrato 2, 1, 5
	rest 16
	rest 12
	octave 4
	C_ 4
	D_ 8
	D# 8
	G_ 8
	A# 8

Music_YellowUnusedSong_branch_83075::
	A_ 8
	A# 8
	G_ 8
	A_ 4
	D_ 4
	A_ 8
	A# 8
	octave 5
	C# 8
	D_ 8
	D# 16
	D# 16
	octave 4
	A# 16
	octave 5
	D# 8
	F_ 8
	octave 4
	D_ 16
	D_ 16
	octave 4
	D_ 8
	D# 8
	G_ 8
	A# 8
	loopchannel 0, Music_YellowUnusedSong_branch_83075


Music_YellowUnusedSong_Ch4::
	dspeed 12
	snare3 4
	dspeed 8
	snare3 2
	snare3 2
	snare3 2
	dspeed 12
	snare3 4
	snare3 4
	snare3 4
	snare3 4
	snare3 4
	snare3 4
	snare3 4
	dspeed 8
	snare3 2
	snare3 2
	snare3 2
	dspeed 12
	snare3 4
	snare3 4
	snare3 2
	snare3 2
	snare3 2
	snare3 2
	snare3 4
	snare3 4

Music_YellowUnusedSong_branch_830c3::
	snare3 4
	dspeed 8
	snare3 2
	snare3 2
	snare3 2
	dspeed 12
	snare3 4
	snare3 4
	snare3 4
	snare3 4
	snare3 4
	snare3 4
	snare3 4
	dspeed 8
	snare3 2
	snare3 2
	snare3 2
	dspeed 12
	snare3 4
	snare3 4
	snare3 2
	snare3 2
	snare3 2
	snare3 2
	snare3 4
	snare3 4
	snare3 4
	dspeed 8
	snare3 2
	snare3 2
	snare3 2
	dspeed 12
	snare3 4
	dspeed 8
	snare3 2
	snare3 2
	snare3 2
	dspeed 12
	snare3 4
	dspeed 8
	snare3 2
	snare3 2
	snare3 2
	snare3 2
	snare3 2
	snare3 2
	snare3 2
	snare3 2
	snare3 2
	dspeed 12
	snare3 4
	dspeed 8
	snare3 2
	snare3 2
	snare3 2
	dspeed 12
	snare3 4
	snare3 4
	snare3 2
	snare3 2
	snare3 2
	snare3 2
	snare3 4
	snare3 2
	snare3 2
	snare3 4
	dspeed 8
	snare3 2
	snare3 2
	snare3 2
	dspeed 12
	snare3 4
	snare3 4
	snare3 4
	snare3 4
	snare3 4
	snare3 4
	snare3 4
	dspeed 8
	snare3 2
	snare3 2
	snare3 2
	dspeed 12
	snare3 4
	snare3 4
	snare3 2
	snare3 2
	snare3 2
	snare3 2
	snare3 4
	snare3 4
	loopchannel 0, Music_YellowUnusedSong_branch_830c3
