Music_YellowIntro_Ch1::
	tempo 116
	volume 7, 7
	duty 3
	vibrato 8, 1, 4
	notetype 12, 11, 2
	octave 3
	G# 2
	B_ 4
	B_ 4
	B_ 4
	B_ 4
	B_ 4
	B_ 3
	A# 1
	B_ 2
	B_ 10
	notetype 12, 11, 6
	octave 4
	C# 1
	C_ 1
	C# 10
	octave 3
	G# 1
	G_ 1
	G# 4
	B_ 4
	octave 4
	E_ 4
	F# 8
	E_ 8
	octave 3
	A_ 4
	B_ 4
	octave 4
	C# 4
	octave 3
	B_ 4
	G# 6
	notetype 12, 11, 2
	B_ 2
	notetype 12, 11, 6
	G# 6
	notetype 12, 11, 2
	B_ 2
	notetype 12, 11, 6
	octave 4
	E_ 6
	notetype 12, 11, 2
	G# 2
	notetype 12, 11, 6
	E_ 6
	notetype 12, 11, 2
	G# 2
	notetype 12, 11, 6
	octave 3
	A_ 4
	F# 4
	A_ 4
	B_ 4
	F# 4
	G# 4
	A_ 2
	G# 2
	F# 2
	D# 2
	notetype 12, 11, 3
	B_ 2
	octave 4
	E_ 4
	E_ 4
	E_ 4
	E_ 2
	C# 2
	F# 4
	F# 3
	D# 1
	F# 2
	F# 8
	notetype 12, 11, 6
	F# 1
	F_ 1
	F# 8
	octave 3
	B_ 1
	A# 1
	B_ 8
	octave 4
	F# 1
	F_ 1
	F# 2
	notetype 12, 11, 3
	F# 1
	E_ 1
	D# 1
	C# 1
	notetype 12, 11, 2
	octave 3
	B_ 16
	endchannel


Music_YellowIntro_Ch2::
	duty 2
	vibrato 6, 1, 5
	notetype 12, 12, 2
	octave 3
	B_ 2
	octave 4
	E_ 4
	E_ 4
	E_ 4
	E_ 4
	E_ 4
	E_ 3
	D# 1
	E_ 2
	E_ 4
	notetype 12, 12, 5
	G# 1
	G_ 1
	G# 10
	octave 3
	B_ 1
	A# 1
	B_ 6
	notetype 12, 12, 7
	octave 4
	E_ 4
	G# 4
	B_ 4
	octave 5
	C# 16
	octave 4
	A_ 4
	G# 4
	F# 4
	E_ 4
	octave 3
	B_ 6
	notetype 12, 12, 2
	octave 4
	E_ 2
	notetype 12, 12, 7
	octave 3
	B_ 6
	notetype 12, 12, 2
	octave 4
	E_ 2
	notetype 12, 12, 7
	G# 6
	notetype 12, 12, 2
	B_ 2
	notetype 12, 12, 7
	G# 6
	notetype 12, 12, 2
	B_ 2
	notetype 12, 12, 7
	C# 4
	octave 3
	A_ 4
	octave 4
	C# 4
	D# 4
	E_ 2
	D# 2
	C# 2
	D# 4
	D# 2
	C# 2
	octave 3
	B_ 2
	notetype 12, 12, 3
	octave 4
	E_ 2
	G# 4
	G# 4
	G# 4
	G# 2
	F# 2
	A_ 4
	A_ 3
	F# 1
	A_ 2
	A_ 4
	notetype 12, 12, 7
	B_ 1
	A# 1
	B_ 8
	B_ 1
	A# 1
	B_ 8
	B_ 1
	A# 1
	B_ 6
	notetype 12, 12, 3
	B_ 1
	A_ 1
	G# 1
	F# 1
	notetype 12, 12, 2
	E_ 16
	endchannel


Music_YellowIntro_Ch3::
	notetype 12, 1, 0
	octave 4
	E_ 1
	rest 1
	G# 1
	rest 1
	octave 3
	B_ 1
	rest 1
	octave 4
	G# 1
	rest 1
	E_ 1
	rest 1
	G# 1
	rest 1
	octave 3
	B_ 1
	rest 1
	octave 4
	G# 1
	rest 1
	E_ 1
	rest 1
	G# 1
	rest 1
	octave 3
	B_ 1
	rest 1
	octave 4
	G# 1
	rest 1
	E_ 1
	rest 1
	octave 3
	B_ 1
	rest 1
	octave 4
	C# 1
	rest 1
	D# 1
	rest 1
	G# 1
	rest 1
	B_ 1
	rest 1
	E_ 1
	rest 1
	B_ 1
	rest 1
	G# 1
	rest 1
	B_ 1
	rest 1
	E_ 1
	rest 1
	B_ 1
	rest 1
	G# 1
	rest 1
	B_ 1
	rest 1
	E_ 1
	rest 1
	B_ 1
	rest 1
	G# 1
	rest 1
	B_ 1
	rest 1
	E_ 1
	rest 1
	B_ 1
	rest 1
	F# 1
	rest 1
	A_ 1
	rest 1
	C# 1
	rest 1
	A_ 1
	rest 1
	F# 1
	rest 1
	A_ 1
	rest 1
	C# 1
	rest 1
	A_ 1
	rest 1
	A_ 1
	rest 1
	octave 5
	C# 1
	rest 1
	octave 4
	F# 1
	rest 1
	octave 5
	C# 1
	rest 1
	octave 4
	A_ 1
	rest 1
	octave 5
	C# 1
	rest 1
	octave 4
	F# 1
	rest 1
	octave 5
	C# 1
	rest 1
	octave 4
	B_ 1
	rest 1
	octave 5
	E_ 1
	rest 1
	octave 4
	G# 1
	rest 1
	octave 5
	E_ 1
	rest 1
	octave 4
	B_ 1
	rest 1
	octave 5
	E_ 1
	rest 1
	octave 4
	G# 1
	rest 1
	octave 5
	E_ 1
	rest 1
	octave 4
	G# 1
	rest 1
	B_ 1
	rest 1
	E_ 1
	rest 1
	B_ 1
	rest 1
	G# 1
	rest 1
	E_ 1
	rest 1
	G# 1
	rest 1
	B_ 1
	rest 1
	A_ 1
	rest 1
	octave 5
	C# 1
	rest 1
	octave 4
	F# 1
	rest 1
	octave 5
	C# 1
	rest 1
	octave 4
	A_ 1
	rest 1
	octave 5
	C# 1
	rest 1
	octave 4
	F# 1
	rest 1
	octave 5
	C# 1
	rest 1
	octave 4
	A_ 1
	rest 1
	octave 5
	C# 1
	rest 1
	octave 4
	F# 1
	rest 1
	octave 5
	C# 1
	rest 1
	octave 4
	A_ 1
	rest 1
	octave 5
	C# 1
	rest 1
	octave 4
	B_ 1
	rest 1
	A_ 1
	rest 1
	G# 1
	rest 1
	B_ 1
	rest 1
	E_ 1
	rest 1
	B_ 1
	rest 1
	G# 1
	rest 1
	B_ 1
	rest 1
	E_ 1
	rest 1
	B_ 1
	rest 1
	G# 1
	rest 1
	B_ 1
	rest 1
	E_ 1
	rest 1
	B_ 1
	rest 1
	G# 1
	rest 1
	B_ 1
	rest 1
	E_ 1
	rest 1
	B_ 1
	rest 1
	A_ 1
	rest 1
	octave 5
	E_ 1
	rest 1
	octave 4
	E_ 1
	rest 1
	octave 5
	E_ 1
	rest 1
	octave 4
	A_ 1
	rest 1
	octave 5
	E_ 1
	rest 1
	octave 4
	E_ 1
	rest 1
	octave 5
	E_ 1
	rest 1
	octave 4
	A_ 1
	rest 1
	octave 5
	F# 1
	rest 1
	octave 4
	F# 1
	rest 1
	octave 5
	C# 1
	rest 3
	F# 1
	rest 1
	octave 4
	F# 1
	G# 1
	A_ 1
	octave 5
	C# 1
	E_ 1
	rest 15
	endchannel
