Music_Route203::
	dbw $C0, Music_Route203_Ch1
	dbw $01, Music_Route203_Ch2
	dbw $02, Music_Route203_Ch3
	dbw $03, Music_Route203_Ch4

Music_Route203_Ch1:
	tempo $90
	volume $77
	notetype $4, $B1
	dutycycle 1
	octave 3
	note A#, 1
	note A_, 1
	note G_, 1
	note F_, 1
	note E_, 1
	note D_, 1
	note C_, 1
	octave 2
	note A#, 2
	note G_, 1
	note F_, 1
	note E_, 1
	note F_, 1
	note G_, 1
	note A_, 1
	note A#, 1
	octave 3
	note C_, 1
	note D_, 1
	note E_, 1
	note F_, 1
	note G_, 1
	note A_, 1
	note A#, 2
	notetype $8, $B1
	octave 4
	note __, 16
	note __, 16
	note __, 16
	note __, 16
	note __, 16
	notetype $4, $B1
	note __, 8
	note D#, 1
	note D_, 1
	note C_, 1
	octave 3
	note A#, 1
	note A_, 1
	note G_, 1
	note F_, 1
	note D#, 1
	note D_, 1
	note C_, 1
	octave 2
	note A#, 1
	note A_, 1
	note A#, 1
	octave 3
	note C_, 1
	note D_, 1
	note D#, 1
	note F_, 1
	note G_, 1
	note A_, 1
	note A#, 1
	octave 4
	note C_, 1
	note D_, 1
	note D#, 1
	octave 3
	note F#, 1
	note G#, 1
	note A#, 5
	note A#, 2
	note A#, 2
	note A#, 2
	note A#, 4
	note A#, 4
	note A#, 4
	note A#, 4
	note A#, 4
	note A#, 4
	note A#, 4
	note A_, 4
	note A#, 3
	note F#, 1
	note G#, 1
	note A#, 5
	note A#, 2
	note A#, 2
	note A#, 2
	note A#, 4
	note A#, 4
	note A#, 4
	note A#, 4
	note A#, 4
	note A#, 4
	note A#, 4
	octave 4
	note C_, 4
	octave 3
	note A#, 3
	note C#, 1
	note D#, 1
	note F_, 5
	note F_, 2
	note F_, 2
	note F_, 2
	note F_, 4
	note F_, 4
	note F_, 4
	note F_, 4
	note F_, 4
	note F_, 4
	note F_, 4
	note G_, 4
	note F_, 4
Music_Route203_Ch1_loop:
	note E_, 4
	note D_, 8
	notetype $C, $B7
	note A_, 12
	notetype $8, $B7
	dutycycle 0
	note F#, 4
	note E_, 4
	note D_, 4
	note C#, 2
	octave 2
	note B_, 10
	octave 3
	note F#, 8
	note E_, 2
	note D_, 2
	note C#, 6
	octave 2
	note A#, 2
	notetype $A, $B7
	note B_, 2
	notetype $C, $B7
	octave 3
	note C#, 1
	note E_, 8
	notetype $8, $B7
	note C#, 4
	note E_, 4
	note C#, 4
	note C#, 2
	octave 2
	note B_, 2
	note __, 2
	note B_, 2
	note __, 6
	note A_, 2
	note __, 2
	note B_, 6
	octave 3
	note F#, 4
	note E_, 4
	note D_, 2
	note C#, 2
	octave 2
	note B_, 2
	note A_, 4
	note G_, 2
	note __, 2
	note G#, 2
	octave 3
	note F#, 4
	note E_, 2
	note D_, 2
	note E_, 2
	note C#, 2
	note __, 8
	octave 2
	note B_, 2
	octave 3
	note C#, 2
	note D#, 2
	note C#, 2
	notetype $A, $B7
	octave 2
	note B_, 16
	notetype $C, $B2
	octave 3
	note B_, 4
	note A_, 4
	note D#, 4
	note F#, 8
	notetype $8, $B2
	dutycycle 1
	octave 2
	note B_, 2
	octave 3
	note E_, 2
	note G_, 2
	note F#, 4
	note G_, 1
	note F#, 1
	note E_, 4
	note F_, 2
	note F#, 2
	note C#, 2
	note __, 2
	note C#, 2
	note __, 2
	note E_, 2
	note D#, 1
	note E_, 1
	intensity $B7
	note D#, 16
	intensity $B2
	octave 2
	note B_, 2
	octave 3
	note E_, 2
	note G_, 2
	note A_, 4
	note B_, 1
	note A_, 1
	note G_, 6
	intensity $B4
	note F#, 8
	intensity $B2
	note D#, 2
	note F#, 2
	note A_, 4
	note D#, 2
	note F#, 6
	note D_, 2
	octave 2
	note G_, 2
	note __, 2
	note G_, 2
	note __, 2
	octave 3
	note D_, 2
	intensity $B4
	octave 2
	note A_, 8
	intensity $B2
	note G_, 2
	note A_, 2
	intensity $B7
	note A#, 12
	octave 3
	note D_, 10
	intensity $B1
	note E_, 1
	note D_, 1
	note C#, 2
	note E_, 2
	intensity $B7
	note G_, 16
	note __, 16
	note __, 12
	dutycycle 2
	note F_, 4
	octave 2
	note F_, 2
	octave 3
	note F_, 4
	octave 2
	note F_, 2
	note E_, 4
	note E_, 2
	octave 3
	note E_, 4
	octave 2
	note E_, 2
	note D#, 4
	note D#, 2
	octave 3
	note C_, 4
	octave 2
	note D#, 2
	note D_, 2
	octave 3
	note D_, 4
	note C_, 4
	octave 2
	note A_, 2
	octave 1
	note A#, 2
	octave 3
	note D_, 2
	octave 1
	note A#, 2
	octave 3
	note D_, 4
	octave 1
	note A#, 2
	octave 3
	note C_, 4
	octave 2
	note C_, 2
	note G_, 4
	note C_, 2
	note C#, 2
	octave 3
	note F_, 2
	octave 2
	note C#, 2
	octave 3
	note F_, 4
	octave 2
	note C#, 2
	note D#, 2
	octave 3
	note G_, 2
	octave 2
	note D#, 2
	octave 3
	note G_, 4
	octave 2
	note D#, 2
	octave 3
	note G#, 4
	octave 2
	note G#, 2
	octave 3
	note G#, 4
	octave 2
	note G#, 2
	note G_, 4
	note G_, 2
	octave 3
	note G_, 4
	octave 2
	note G_, 2
	note F#, 4
	note F#, 2
	octave 3
	note D#, 4
	octave 2
	note F#, 2
	note F_, 2
	octave 3
	note F_, 4
	note D#, 4
	note C_, 2
	octave 2
	note C#, 2
	octave 3
	note F_, 2
	octave 2
	note C#, 2
	octave 3
	note F_, 4
	octave 2
	note C#, 2
	octave 3
	note D#, 4
	octave 2
	note D#, 2
	note A#, 4
	note D#, 2
	note C#, 2
	octave 3
	note F_, 2
	octave 2
	note C#, 2
	octave 3
	note F_, 4
	octave 2
	note C#, 2
	octave 3
	note D#, 4
	octave 2
	note D#, 2
	note A#, 4
	note D#, 2
	note E_, 2
	octave 3
	note E_, 2
	octave 2
	note E_, 2
	octave 3
	note E_, 4
	octave 2
	note E_, 2
	note F#, 2
	octave 3
	note F#, 2
	octave 2
	note F#, 2
	octave 3
	note F#, 4
	octave 2
	note F#, 2
	notetype $C, $B1
	octave 4
	note __, 16
	note __, 16
	note __, 16
	note __, 8
	notetype $4, $B1
	dutycycle 1
	note D#, 1
	note D_, 1
	note C_, 1
	octave 3
	note A#, 1
	note A_, 1
	note G_, 1
	note F_, 1
	note D#, 1
	note D_, 1
	note C_, 1
	octave 2
	note A#, 1
	note A_, 1
	note A#, 1
	octave 3
	note C_, 1
	note D_, 1
	note D#, 1
	note F_, 1
	note G_, 1
	note A_, 1
	note A#, 1
	octave 4
	note C_, 1
	note D_, 1
	note D#, 1
	note F_, 1
	intensity $B7
	note F_, 12
	note D#, 12
	octave 3
	note A#, 8
	octave 4
	note C_, 4
	octave 3
	note A#, 8
	octave 4
	note C_, 16
	note __, 16
	note __, 16
	note __, 16
	octave 3
	note D_, 4
	note D#, 4
	note F_, 4
	note A#, 8
	note G#, 4
	note F_, 8
	note D#, 4
	note D_, 4
	octave 2
	note A#, 8
	octave 3
	note C_, 8
	note D_, 4
	intensity $B1
	octave 4
	note D#, 1
	note D_, 1
	note C_, 1
	octave 3
	note A#, 1
	note A_, 1
	note G_, 1
	note F_, 1
	note D#, 1
	note D_, 1
	note C_, 1
	octave 2
	note A#, 1
	note A_, 1
	note A#, 1
	octave 3
	note C_, 1
	note D_, 1
	note D#, 1
	note F_, 1
	note G_, 1
	note A_, 1
	note A#, 1
	octave 4
	note C_, 1
	note D_, 1
	note F#, 1
	intensity $B7
	note G#, 13
	octave 2
	note A#, 8
	note F_, 4
	note A#, 4
	note G#, 4
	note F_, 4
	note A#, 4
	note G#, 4
	note F_, 4
	note A#, 8
	note F_, 4
	note A#, 8
	octave 3
	note C_, 16
	octave 2
	note A#, 8
	octave 3
	note D_, 8
	note A#, 8
	note G#, 8
	note F_, 8
	note G#, 8
	note F_, 8
	note D#, 4
	note D_, 4
	octave 2
	note A#, 8
	octave 3
	note C_, 8
	note D_, 4
	intensity $B1
	octave 4
	note D#, 1
	note D_, 1
	note C_, 1
	octave 3
	note A#, 1
	note A_, 1
	note G_, 1
	note F_, 1
	note D#, 1
	note D_, 1
	note C_, 1
	octave 2
	note A#, 1
	note A_, 1
	note A#, 1
	octave 3
	note C_, 1
	note D_, 1
	note D#, 1
	note F_, 1
	note G_, 1
	note A_, 1
	note A#, 1
	octave 4
	note C_, 1
	note D_, 1
	note F#, 1
	note G#, 1
	octave 3
	note G#, 1
	note A#, 5
	note A#, 2
	note A#, 2
	note A#, 2
	note A#, 4
	note A#, 4
	note A#, 4
	note A#, 4
	note A#, 4
	note A#, 4
	note A#, 4
	note A_, 4
	note A#, 3
	note F#, 1
	note G#, 1
	note A#, 5
	note A#, 2
	note A#, 2
	note A#, 2
	note A#, 4
	note A#, 4
	note A#, 4
	note A#, 4
	note A#, 4
	note A#, 4
	note A#, 4
	octave 4
	note C_, 4
	octave 3
	note A#, 3
	note C#, 1
	note D#, 1
	note F_, 5
	note F_, 2
	note F_, 2
	note F_, 2
	note F_, 4
	note F_, 4
	note F_, 4
	note F_, 4
	note F_, 4
	note F_, 4
	note F_, 4
	note G_, 4
	note F_, 4
	loopchannel 0, Music_Route203_Ch1_loop

Music_Route203_Ch2:
	notetype $4, $C1
	dutycycle 1
	octave 4
	note D#, 1
	note D_, 1
	note C_, 1
	octave 3
	note A#, 1
	note A_, 1
	note G_, 1
	note F_, 1
	note D#, 1
	note D_, 1
	note C_, 1
	octave 2
	note A#, 1
	note A_, 1
	note A#, 1
	octave 3
	note C_, 1
	note D_, 1
	note D#, 1
	note F_, 1
	note G_, 1
	note A_, 1
	note A#, 1
	octave 4
	note C_, 1
	note D_, 1
	note D#, 1
	note F_, 1
	notetype $8, $C0
	vibrato $00, $12
	note G_, 16
	intensity $C7
	note G_, 16
	note __, 8
	note G_, 1
	note __, 5
	intensity $C0
	note F_, 16
	intensity $C7
	note F_, 16
	note __, 16
	note __, 2
	intensity $C0
	note G_, 16
	intensity $C7
	note G_, 16
	note __, 8
	note G_, 1
	note __, 5
	intensity $C0
	note F_, 14
	note D_, 12
Music_Route203_Ch2_loop:
	intensity $C1
	vibrato $00, $00
	note E_, 2
	note D_, 2
	note __, 2
	intensity $C7
	note E_, 6
	octave 3
	note F#, 2
	note G_, 2
	note A_, 2
	note A_, 2
	note G_, 2
	note F#, 2
	note A_, 4
	note G_, 4
	note F#, 4
	note E_, 2
	note D_, 10
	note A_, 8
	note G_, 2
	note F#, 2
	note E_, 6
	note C#, 2
	note D_, 2
	note E_, 2
	notetype $B, $C7
	note F#, 4
	notetype $D, $C7
	note __, 4
	notetype $8, $C7
	note E_, 4
	note F#, 4
	note E_, 4
	note E_, 2
	note D_, 2
	note __, 2
	note D_, 2
	note __, 6
	note D_, 2
	note __, 2
	note E_, 6
	note A_, 4
	note G_, 4
	note F#, 2
	note E_, 2
	note D_, 2
	note C#, 4
	octave 2
	note B_, 2
	note __, 2
	octave 3
	note C_, 2
	note A_, 4
	note G_, 2
	note F#, 2
	note G_, 2
	note E_, 2
	note __, 8
	note D#, 2
	note E_, 2
	note F#, 2
	note E_, 2
	note D#, 16
	note __, 16
	note __, 16
	note __, 2
	intensity $C2
	dutycycle 2
	note D_, 2
	note G_, 2
	note B_, 2
	note A_, 4
	note B_, 1
	note A_, 1
	note G_, 4
	note G#, 2
	note A_, 2
	note E_, 2
	note __, 2
	note E_, 2
	note __, 2
	note G_, 2
	note F#, 1
	note G_, 1
	intensity $C7
	note F#, 16
	intensity $C2
	note D_, 2
	note G_, 2
	note B_, 2
	octave 4
	note C#, 4
	note D_, 1
	note C#, 1
	octave 3
	note B_, 6
	intensity $C4
	note A_, 8
	intensity $C2
	note G#, 2
	note A_, 2
	note B_, 4
	note F#, 2
	note A_, 2
	note __, 4
	note G_, 2
	octave 2
	note B_, 2
	note __, 2
	note B_, 2
	note __, 2
	notetype $4, $C2
	octave 3
	note F#, 1
	note G_, 3
	intensity $C4
	note C#, 16
	intensity $C2
	octave 2
	note B_, 4
	octave 3
	note C#, 4
	notetype $C, $C7
	note D_, 8
	notetype $A, $C7
	note F_, 8
	notetype $8, $C1
	note G_, 1
	note F_, 1
	note E_, 2
	note G_, 2
	notetype $A, $C7
	note A_, 16
	notetype $8, $C7
	dutycycle 1
	octave 2
	note C_, 2
	note G_, 2
	note E_, 2
	octave 3
	note C_, 2
	octave 2
	note G_, 2
	octave 3
	note G_, 2
	octave 4
	note C_, 6
	octave 3
	note A#, 6
	vibrato $00, $34
	note A_, 2
	note A#, 2
	octave 4
	note C_, 1
	note __, 1
	notetype $4, $C7
	octave 3
	note B_, 1
	intensity $C0
	octave 4
	note C_, 16
	note C_, 16
	note C_, 15
	octave 3
	note A_, 4
	octave 4
	note C_, 4
	note C#, 4
	note C#, 1
	note D_, 7
	note C_, 4
	note __, 4
	octave 3
	note A_, 4
	note G_, 4
	note F_, 16
	note G_, 4
	note A_, 4
	note A#, 8
	note G_, 4
	note E_, 8
	note G_, 4
	note __, 4
	note G#, 4
	note __, 4
	note F_, 8
	note G#, 4
	note G_, 4
	note G#, 4
	note A#, 4
	octave 4
	note D_, 1
	note D#, 7
	note C#, 4
	dutycycle 0
	note C_, 4
	note C#, 4
	note D#, 2
	note __, 2
	notetype $B, $C0
	note D#, 16
	notetype $8, $C0
	note D#, 2
	note C_, 2
	notetype $4, $C0
	note D_, 1
	note D#, 7
	note F_, 4
	note __, 4
	note D#, 4
	note __, 4
	note C_, 4
	octave 3
	note A#, 4
	note G#, 16
	note A#, 4
	octave 4
	note C_, 4
	octave 3
	note A#, 8
	note G#, 4
	note G_, 8
	note A#, 4
	note G#, 16
	note A#, 4
	note B_, 4
	octave 4
	note C_, 4
	note __, 4
	note C#, 4
	note D#, 4
	note F_, 4
	note G_, 4
	notetype $C, $C0
	dutycycle 1
	vibrato $00, $12
	note G#, 8
	note A#, 8
	notetype $8, $C0
	octave 5
	note C_, 16
	intensity $C7
	note C_, 16
	note __, 8
	note C_, 1
	note __, 5
	intensity $C0
	note D_, 16
	intensity $C7
	note D_, 16
	note __, 16
	note __, 2
	intensity $C0
	note C_, 16
	intensity $C7
	note C_, 16
	note __, 8
	note C_, 1
	note __, 5
	intensity $C0
	note D_, 16
	intensity $C7
	note D_, 16
	note __, 16
	note __, 2
	intensity $C0
	note C_, 16
	intensity $C7
	note C_, 16
	note __, 8
	note C_, 1
	note __, 5
	intensity $C0
	note D_, 16
	intensity $C7
	note D_, 16
	note __, 16
	note __, 2
	intensity $C0
	note C_, 16
	intensity $C7
	note C_, 16
	note __, 8
	note C_, 1
	note __, 5
	intensity $C0
	octave 4
	note A#, 14
	note G_, 12
	loopchannel 0, Music_Route203_Ch2_loop

Music_Route203_Ch3:
	notetype $8, $13
	octave 1
	note __, 12
	note A#, 2
	note __, 2
	note A#, 1
	note __, 1
	octave 2
	note A#, 4
	octave 1
	note A#, 1
	note __, 1
	note A#, 1
	note __, 1
	octave 2
	note A#, 1
	note __, 1
	octave 1
	note A#, 1
	note __, 1
	octave 2
	note A#, 4
	octave 1
	note A#, 1
	note __, 1
	note A#, 2
	note __, 2
	note A#, 1
	note __, 1
	octave 2
	note A#, 4
	octave 1
	note A#, 1
	note __, 1
	note A#, 2
	note __, 2
	note A#, 1
	note __, 1
	octave 2
	note A#, 4
	octave 1
	note A#, 1
	note __, 1
	note A#, 2
	note __, 2
	note A#, 1
	note __, 1
	octave 2
	note A#, 4
	octave 1
	note A#, 1
	note __, 1
	note A#, 1
	note __, 1
	octave 2
	note A#, 1
	note __, 1
	octave 1
	note A#, 1
	note __, 1
	octave 2
	note A#, 4
	octave 1
	note A#, 1
	note __, 1
	note A#, 2
	note __, 2
	note A#, 1
	note __, 1
	octave 2
	note A#, 4
	octave 1
	note A#, 1
	note __, 1
	note A#, 2
	note __, 2
	note A#, 1
	note __, 1
	octave 2
	note A#, 4
	octave 1
	note A#, 1
	note __, 1
	note A#, 2
	note __, 2
	note A#, 1
	note __, 1
	octave 2
	note A#, 4
	octave 1
	note A#, 1
	note __, 1
	note A#, 2
	note __, 2
	note A#, 1
	note __, 1
	octave 2
	note A#, 4
	octave 1
	note A#, 1
	note __, 1
	note A#, 2
	note __, 2
	note A#, 1
	note __, 1
	octave 2
	note A#, 4
	octave 1
	note A#, 1
	note __, 1
	note A#, 2
	note __, 2
	note A#, 1
	note __, 1
	octave 2
	note A#, 4
	octave 1
	note A#, 1
	note __, 1
	note A#, 2
	note __, 2
	note A#, 1
	note __, 1
	octave 2
	note A#, 4
	octave 1
	note A#, 1
	note __, 1
	note A#, 2
	note __, 2
	note A#, 1
	note __, 1
	octave 2
	note A#, 4
	octave 1
	note A#, 1
	note __, 1
Music_Route203_Ch3_loop:
	note A_, 2
	octave 2
	note D_, 2
	note __, 2
	note E_, 6
	octave 1
	note A_, 9
	notetype $C, $13
	note __, 2
	octave 2
	note G_, 12
	note __, 4
	note G_, 8
	note A#, 4
	octave 3
	note C#, 4
	octave 2
	note F#, 8
	octave 3
	note C#, 8
	notetype $8, $13
	octave 2
	note B_, 2
	note F#, 2
	note __, 2
	note B_, 2
	note __, 2
	octave 1
	note B_, 2
	octave 2
	note B_, 6
	note A_, 6
	octave 1
	note G_, 2
	note __, 6
	octave 2
	note D_, 2
	note __, 2
	note D_, 2
	note G_, 2
	note __, 2
	note G_, 4
	note G#, 2
	note A_, 2
	note G#, 2
	note A_, 2
	note __, 2
	note E_, 2
	note __, 2
	note C#, 4
	note __, 2
	note A_, 4
	note A#, 2
	note B_, 2
	octave 1
	note B_, 4
	notetype $C, $13
	note B_, 12
	notetype $8, $13
	octave 2
	note B_, 2
	note __, 2
	note B_, 4
	octave 1
	note B_, 2
	note __, 2
	octave 2
	note A_, 2
	note __, 2
	note A_, 2
	note D#, 2
	note F#, 2
	note B_, 2
	octave 3
	note D_, 4
	octave 2
	note D_, 2
	note G_, 2
	note __, 2
	note D_, 2
	note G_, 4
	octave 3
	note C#, 2
	note __, 4
	octave 2
	note E_, 2
	note A_, 2
	note __, 8
	note E_, 2
	note F#, 2
	note __, 2
	note B_, 2
	note __, 4
	note F#, 2
	note E_, 2
	note __, 2
	note E_, 2
	note __, 6
	note E_, 2
	note G_, 2
	note B_, 2
	note __, 2
	note A_, 2
	note E_, 2
	note D_, 2
	note __, 2
	note D_, 2
	note __, 6
	note D#, 2
	note __, 2
	note B_, 2
	note __, 6
	note E_, 2
	note __, 4
	note E_, 2
	note __, 4
	note F#, 2
	note __, 4
	note F#, 2
	note __, 4
	note G_, 2
	note __, 4
	note G_, 2
	note __, 4
	note G_, 2
	note __, 4
	note G_, 2
	note __, 4
	note A_, 2
	note __, 4
	note A_, 2
	note __, 4
	note A_, 2
	note __, 4
	note A_, 2
	note __, 4
	octave 3
	note E_, 8
	note D#, 2
	note E_, 2
	note G_, 6
	note C_, 6
	octave 2
	note F_, 6
	note __, 2
	note A_, 2
	note F_, 2
	note E_, 2
	note __, 8
	note E_, 2
	note D#, 2
	note __, 8
	note D#, 2
	note D_, 2
	note __, 2
	note C_, 2
	note D_, 2
	note __, 2
	note A#, 2
	note F_, 4
	note A#, 2
	note __, 4
	note D_, 2
	note C_, 4
	note G_, 2
	note __, 4
	octave 3
	note C_, 2
	note __, 4
	octave 2
	note G#, 2
	note __, 2
	note F_, 2
	note G#, 2
	note D#, 4
	note A#, 2
	note __, 4
	note G_, 2
	note D#, 6
	note __, 2
	octave 3
	note C_, 2
	octave 2
	note G#, 2
	note G_, 2
	note D#, 2
	note __, 4
	octave 3
	note C_, 2
	octave 2
	note G_, 2
	note F#, 2
	note __, 2
	note F#, 2
	note __, 4
	note C_, 2
	note F_, 2
	note __, 2
	note F_, 2
	note F_, 2
	note __, 2
	note G#, 2
	note G#, 2
	note C#, 4
	note __, 4
	note C#, 2
	note D#, 2
	note __, 4
	note G_, 4
	note D#, 2
	note G#, 2
	note __, 2
	note F_, 2
	note C#, 4
	note __, 2
	note D#, 2
	note A#, 2
	note G_, 2
	note __, 4
	note D#, 2
	note E_, 2
	note __, 4
	note E_, 2
	note __, 4
	note F#, 2
	note __, 4
	note D#, 4
	note G_, 2
	note G#, 2
	note __, 2
	note G#, 1
	note __, 1
	octave 3
	note G#, 4
	octave 2
	note G#, 1
	note __, 1
	note G#, 1
	note __, 1
	octave 3
	note G#, 1
	note __, 1
	octave 2
	note G#, 1
	note __, 1
	octave 3
	note G#, 4
	octave 2
	note G#, 1
	note __, 1
	note G#, 2
	note __, 2
	note G#, 1
	note __, 1
	octave 3
	note G#, 4
	octave 2
	note G#, 1
	note __, 1
	note G#, 2
	note __, 2
	note G#, 1
	note __, 1
	octave 3
	note G#, 4
	octave 2
	note G#, 1
	note __, 1
	octave 1
	note A#, 2
	note __, 2
	note A#, 1
	note __, 1
	octave 2
	note A#, 4
	octave 1
	note A#, 1
	note __, 1
	note A#, 1
	note __, 1
	octave 2
	note A#, 1
	note __, 1
	octave 1
	note A#, 1
	note __, 1
	octave 2
	note A#, 4
	octave 1
	note A#, 1
	note __, 1
	note A#, 2
	note __, 2
	note A#, 1
	note __, 1
	octave 2
	note A#, 4
	octave 1
	note A#, 1
	note __, 1
	note A#, 2
	note __, 2
	note A#, 1
	note __, 1
	octave 2
	note A#, 4
	octave 1
	note A#, 1
	note __, 1
	note A#, 2
	note __, 2
	note A#, 1
	note __, 1
	octave 2
	note A#, 4
	octave 1
	note A#, 1
	note __, 1
	note A#, 1
	note __, 1
	octave 2
	note A#, 1
	note __, 1
	octave 1
	note A#, 1
	note __, 1
	octave 2
	note A#, 4
	octave 1
	note A#, 1
	note __, 1
	note A#, 2
	note __, 2
	note A#, 1
	note __, 1
	octave 2
	note A#, 4
	octave 1
	note A#, 1
	note __, 1
	note A#, 2
	note __, 2
	note A#, 1
	note __, 1
	octave 2
	note A#, 4
	octave 1
	note A#, 1
	note __, 1
	note A#, 2
	note __, 2
	note A#, 1
	note __, 1
	octave 2
	note A#, 4
	octave 1
	note A#, 1
	note __, 1
	note A#, 1
	note __, 1
	octave 2
	note A#, 1
	note __, 1
	octave 1
	note A#, 1
	note __, 1
	octave 2
	note A#, 4
	octave 1
	note A#, 1
	note __, 1
	note A#, 2
	note __, 2
	note A#, 1
	note __, 1
	octave 2
	note A#, 4
	octave 1
	note A#, 1
	note __, 1
	note A#, 2
	note __, 2
	note A#, 1
	note __, 1
	octave 2
	note A#, 4
	octave 1
	note A#, 1
	note __, 1
	note A#, 2
	note __, 2
	note A#, 1
	note __, 1
	octave 2
	note A#, 4
	octave 1
	note A#, 1
	note __, 1
	note A#, 1
	note __, 1
	octave 2
	note A#, 1
	note __, 1
	octave 1
	note A#, 1
	note __, 1
	octave 2
	note A#, 4
	octave 1
	note A#, 1
	note __, 1
	note A#, 2
	note __, 2
	note A#, 1
	note __, 1
	octave 2
	note A#, 4
	octave 1
	note A#, 1
	note __, 1
	note A#, 2
	note __, 2
	note A#, 1
	note __, 1
	octave 2
	note A#, 4
	octave 1
	note A#, 1
	note __, 1
	note A#, 2
	note __, 2
	note A#, 1
	note __, 1
	octave 2
	note A#, 4
	octave 1
	note A#, 1
	note __, 1
	note A#, 1
	note __, 1
	octave 2
	note A#, 1
	note __, 1
	octave 1
	note A#, 1
	note __, 1
	octave 2
	note A#, 4
	octave 1
	note A#, 1
	note __, 1
	note A#, 2
	note __, 2
	note A#, 1
	note __, 1
	octave 2
	note A#, 4
	octave 1
	note A#, 1
	note __, 1
	note A#, 2
	note __, 2
	note A#, 1
	note __, 1
	octave 2
	note A#, 4
	octave 1
	note A#, 1
	note __, 1
	note A#, 2
	note __, 2
	note A#, 1
	note __, 1
	octave 2
	note A#, 4
	octave 1
	note A#, 1
	note __, 1
	note A#, 2
	note __, 2
	note A#, 1
	note __, 1
	octave 2
	note A#, 4
	octave 1
	note A#, 1
	note __, 1
	note A#, 2
	note __, 2
	note A#, 1
	note __, 1
	octave 2
	note A#, 4
	octave 1
	note A#, 1
	note __, 1
	note A#, 2
	note __, 2
	note A#, 1
	note __, 1
	octave 2
	note A#, 4
	octave 1
	note A#, 1
	note __, 1
	note A#, 2
	note __, 2
	note A#, 1
	note __, 1
	octave 2
	note A#, 4
	octave 1
	note A#, 1
	note __, 1
	note A#, 2
	note __, 2
	note A#, 1
	note __, 1
	octave 2
	note A#, 4
	octave 1
	note A#, 1
	note __, 1
	loopchannel 0, Music_Route203_Ch3_loop

Music_Route203_Ch4:
	notetype $8
	togglenoise 3
	note __, 12
	note C#, 6
	note G_, 2
	note B_, 2
	note C#, 2
	note C#, 2
	note C#, 4
	note G_, 2
	note B_, 2
	note C#, 2
	note C#, 6
	note G_, 2
	note B_, 2
	note C#, 2
	note C#, 2
	note C#, 4
	note G_, 2
	note B_, 2
	note C#, 2
	note C#, 6
	note G_, 2
	note B_, 2
	note C#, 2
	note C#, 2
	note C#, 4
	note G_, 2
	note B_, 2
	note C#, 2
	note C#, 6
	note G_, 2
	note B_, 2
	note C#, 2
	note C#, 2
	note C#, 4
	note G_, 2
	note B_, 2
	note C#, 2
	note C#, 6
	note G_, 2
	note B_, 2
	note C#, 2
	note C#, 2
	note C#, 4
	note G_, 2
	note B_, 2
	note C#, 2
	note C#, 6
	note G_, 2
	note B_, 2
	note C#, 2
	note C#, 2
	note C#, 4
	note G_, 2
	note B_, 2
	note C#, 2
	note C#, 6
	note G_, 2
	note B_, 2
	note C#, 2
	note C#, 2
	note C#, 4
	note G_, 2
	note B_, 2
	note C#, 2
Music_Route203_Ch4_loop:
	note C#, 2
	note C#, 4
	note B_, 12
	note G_, 6
	note D#, 6
	note G_, 12
	note G_, 4
	note D#, 2
	note D#, 6
	note G_, 6
	note D#, 6
	note G_, 4
	note D#, 2
	note D#, 6
	note G_, 4
	note D#, 2
	note D#, 6
	note G_, 6
	note D#, 6
	note G_, 4
	note D#, 6
	note D#, 2
	note G_, 6
	note D#, 4
	note D#, 2
	note G_, 6
	note D#, 2
	note D#, 4
	note G_, 4
	note D#, 2
	note D#, 4
	note D#, 2
	note G_, 6
	note D#, 2
	note D#, 4
	note G_, 4
	note D#, 2
	note D#, 2
	note D#, 4
	note G_, 6
	note D#, 2
	note D#, 4
	note G_, 4
	note D#, 2
	note D#, 4
	note D#, 2
	note G_, 6
	note D#, 2
	note D#, 4
	note G_, 6
	note C#, 4
	note C#, 2
	note C#, 4
	note C#, 2
	note C#, 4
	note C#, 2
	note C#, 1
	note C#, 1
	note C#, 1
	note C#, 1
	note C#, 1
	note C#, 1
	note C#, 2
	note C#, 2
	note C#, 6
	note C#, 2
	note C#, 4
	note C#, 8
	note C#, 4
	note C#, 2
	note C#, 4
	note C#, 2
	note C#, 4
	note C#, 2
	note C#, 1
	note C#, 1
	note C#, 1
	note C#, 1
	note C#, 1
	note C#, 1
	note C#, 2
	note C#, 2
	note C#, 6
	note C#, 2
	note C#, 4
	note C#, 8
	note C#, 4
	note C#, 2
	note C#, 4
	note C#, 2
	note C#, 4
	note C#, 2
	note C#, 1
	note C#, 1
	note C#, 1
	note C#, 1
	note C#, 1
	note C#, 1
	note C#, 2
	note C#, 2
	note C#, 6
	note C#, 2
	note C#, 4
	note C#, 8
	note C#, 4
	note C#, 2
	note C#, 4
	note C#, 2
	note C#, 4
	note C#, 2
	note C#, 1
	note C#, 1
	note C#, 1
	note C#, 1
	note C#, 1
	note C#, 1
	note C#, 2
	note C#, 2
	note C#, 6
	note C#, 2
	note C#, 4
	note C#, 2
	note B_, 6
	note C#, 6
	note G_, 2
	note E_, 2
	note C#, 2
	note C#, 2
	note C#, 4
	note G_, 2
	note E_, 2
	note C#, 2
	note C#, 6
	note G_, 2
	note E_, 2
	note C#, 2
	note C#, 2
	note C#, 4
	note G_, 2
	note E_, 2
	note C#, 2
	note C#, 6
	note G_, 2
	note E_, 2
	note C#, 2
	note C#, 2
	note C#, 4
	note G_, 2
	note E_, 2
	note C#, 2
	note C#, 6
	note G_, 2
	note E_, 2
	note C#, 2
	note C#, 2
	note C#, 4
	note G_, 2
	note E_, 2
	note C#, 2
	note C#, 6
	note G_, 2
	note E_, 2
	note C#, 2
	note C#, 2
	note C#, 4
	note G_, 2
	note E_, 2
	note C#, 2
	note C#, 6
	note G_, 2
	note E_, 2
	note C#, 2
	note C#, 2
	note C#, 4
	note G_, 2
	note E_, 2
	note C#, 2
	note C#, 6
	note G_, 2
	note E_, 2
	note C#, 2
	note C#, 2
	note C#, 4
	note G_, 2
	note E_, 2
	note C#, 2
	note C#, 6
	note G_, 2
	note E_, 2
	note C#, 2
	note C#, 2
	note C#, 4
	note G_, 2
	note E_, 2
	note C#, 2
	note C#, 2
	note C#, 4
	note B_, 6
	note C#, 6
	note B_, 6
	note C#, 6
	note G_, 2
	note B_, 2
	note C#, 2
	note C#, 2
	note C#, 4
	note G_, 2
	note B_, 2
	note C#, 2
	note C#, 6
	note G_, 2
	note B_, 2
	note C#, 2
	note C#, 2
	note C#, 4
	note G_, 2
	note B_, 2
	note C#, 2
	note C#, 6
	note G_, 2
	note B_, 2
	note C#, 2
	note C#, 2
	note C#, 4
	note G_, 2
	note B_, 2
	note C#, 2
	note C#, 6
	note G_, 2
	note B_, 2
	note C#, 2
	note C#, 2
	note C#, 4
	note G_, 2
	note B_, 2
	note C#, 2
	note C#, 6
	note G_, 2
	note B_, 2
	note C#, 2
	note C#, 2
	note C#, 4
	note G_, 2
	note B_, 2
	note C#, 2
	note C#, 6
	note G_, 2
	note B_, 2
	note C#, 2
	note C#, 2
	note C#, 4
	note G_, 2
	note B_, 2
	note C#, 2
	note C#, 6
	note G_, 2
	note B_, 2
	note C#, 2
	note C#, 2
	note C#, 4
	note G_, 2
	note B_, 2
	note C#, 2
	note C#, 6
	note G_, 2
	note B_, 2
	note C#, 2
	note C#, 2
	note C#, 4
	note G_, 2
	note B_, 2
	note C#, 2
	note C#, 6
	note G_, 2
	note B_, 2
	note C#, 2
	note C#, 2
	note C#, 4
	note G_, 2
	note B_, 2
	note C#, 2
	note C#, 6
	note G_, 2
	note B_, 2
	note C#, 2
	note C#, 2
	note C#, 4
	note G_, 2
	note B_, 2
	note C#, 2
	note C#, 6
	note G_, 2
	note B_, 2
	note C#, 2
	note C#, 2
	note C#, 4
	note G_, 2
	note B_, 2
	note C#, 2
	note C#, 6
	note G_, 2
	note B_, 2
	note C#, 2
	note C#, 2
	note C#, 4
	note G_, 2
	note B_, 2
	note C#, 2
	note C#, 6
	note G_, 2
	note B_, 2
	note C#, 2
	note C#, 2
	note C#, 4
	note G_, 2
	note B_, 2
	note C#, 2
	note C#, 6
	note G_, 2
	note B_, 2
	note C#, 2
	note C#, 2
	note C#, 4
	note G_, 2
	note B_, 2
	note C#, 2
	note C#, 6
	note G_, 2
	note B_, 2
	note C#, 2
	note C#, 2
	note C#, 4
	note G_, 2
	note B_, 2
	note C#, 2
	loopchannel 0, Music_Route203_Ch4_loop
