Music_SinnohWildBattle::
	dbw $80, Music_SinnohWildBattle_Ch1
	dbw $01, Music_SinnohWildBattle_Ch2
	dbw $02, Music_SinnohWildBattle_Ch3

Music_SinnohWildBattle_Ch1:
	tempo $68
	volume $77
	notetype $C, $B2
	dutycycle 3
	tone $0002
	vibrato $12, $15
	octave 3
	note G_, 1
	note F#, 1
	note F_, 1
	note E_, 1
	note F_, 1
	note E_, 1
	note D#, 1
	note E_, 1
	note D#, 1
	note D_, 1
	note D#, 1
	note D_, 1
	note C#, 1
	note D_, 1
	note C#, 1
	note C_, 1
	octave 2
	note B_, 1
	octave 3
	note C_, 1
	octave 2
	note B_, 1
	note A#, 1
	note B_, 1
	note A#, 1
	note A_, 1
	note A#, 1
	note A_, 1
	note G#, 1
	note A_, 1
	note G#, 1
	note G_, 1
	note G#, 1
	note G_, 1
	note F#, 1
	note C_, 6
	note G_, 6
	note F_, 12
	note C_, 8
	note C#, 6
	note G#, 6
	note G_, 12
	intensity $3F
	note C#, 8
	intensity $B2
	octave 3
	note C_, 6
	note G_, 6
	note F_, 12
	note C_, 8
	note C#, 6
	note G#, 6
	note G_, 16
	octave 2
	note D#, 1
	note E_, 1
	note F_, 1
	note F#, 1
Music_SinnohWildBattle_Ch1_loop:
	intensity $B2
	octave 3
	note G_, 2
	note G_, 4
	note G_, 2
	note C_, 2
	note G_, 4
	note G_, 2
	note G_, 2
	note G_, 4
	note G_, 2
	note C_, 2
	note G_, 4
	note G_, 2
	note G#, 2
	note G#, 4
	note G#, 2
	note C#, 2
	note G#, 4
	note G#, 2
	octave 4
	note C#, 2
	note C#, 4
	note C#, 2
	octave 3
	note G#, 2
	octave 4
	note C#, 4
	note C#, 2
	octave 3
	note G_, 2
	note G_, 4
	note G_, 2
	note C_, 2
	note G_, 4
	note G_, 2
	note G_, 2
	note G_, 4
	note G_, 2
	note C_, 2
	note G_, 4
	note G_, 2
	note G#, 2
	note G#, 4
	note G#, 2
	note C#, 2
	note G#, 4
	note G#, 2
	note G#, 2
	note G#, 4
	note G#, 2
	note F_, 2
	note G#, 4
	note G#, 2
	note A_, 2
	note A_, 4
	note A_, 2
	note D_, 2
	note A_, 4
	note A_, 2
	note A_, 2
	note A_, 4
	note A_, 2
	note D_, 2
	note A_, 4
	note A_, 2
	note A#, 2
	note A#, 4
	note A#, 2
	note D#, 2
	note A#, 4
	note A#, 2
	octave 4
	note D#, 2
	note D#, 4
	note D#, 2
	octave 3
	note A#, 2
	octave 4
	note D#, 4
	note D#, 2
	octave 3
	note A_, 2
	note A_, 4
	note A_, 2
	note D_, 2
	note A_, 4
	note A_, 2
	note A_, 2
	note A_, 4
	note A_, 2
	note D_, 2
	note A_, 4
	note A_, 2
	note A#, 2
	note A#, 4
	note A#, 2
	note D#, 2
	note A#, 4
	note A#, 2
	note G_, 2
	note A#, 4
	note A#, 2
	note G_, 2
	note A#, 4
	note A#, 2
	intensity $B1
	dutycycle 2
	octave 4
	note A#, 2
	note D#, 2
	note A#, 2
	octave 5
	note D#, 2
	octave 4
	note A#, 2
	note D#, 2
	octave 5
	note D#, 2
	octave 4
	note A#, 2
	note D#, 2
	note A#, 2
	octave 5
	note D#, 2
	octave 4
	note A#, 2
	octave 5
	note D#, 2
	note G_, 2
	note D#, 2
	octave 4
	note A#, 6
	intensity $B5
	note G#, 8
	octave 5
	note C#, 4
	note F_, 4
	note D#, 4
	note C_, 4
	note F_, 4
	intensity $B1
	octave 4
	note A#, 2
	note D#, 2
	note A#, 2
	octave 5
	note D#, 2
	octave 4
	note A#, 2
	note D#, 2
	octave 5
	note D#, 2
	octave 4
	note A#, 2
	note D#, 2
	note A#, 2
	octave 5
	note D#, 2
	octave 4
	note A#, 2
	octave 5
	note D#, 2
	note G_, 2
	note D#, 2
	octave 4
	note A#, 2
	octave 5
	note D#, 2
	octave 4
	note A#, 2
	octave 5
	note D#, 2
	note G_, 2
	note D#, 2
	octave 4
	note A#, 2
	octave 5
	note G_, 2
	note D#, 2
	octave 4
	note A#, 2
	octave 5
	note D#, 2
	note G_, 2
	note D#, 2
	note G_, 2
	note A#, 2
	note G_, 2
	note D#, 2
	dutycycle 0
	note G#, 2
	note C#, 2
	note G#, 2
	octave 6
	note C#, 2
	octave 5
	note G#, 2
	note C#, 2
	octave 6
	note C#, 2
	octave 5
	note G#, 2
	note A_, 2
	note D_, 2
	note A_, 2
	octave 6
	note D_, 2
	octave 5
	note A_, 2
	note D_, 2
	octave 6
	note D_, 2
	octave 5
	note A_, 2
	note A#, 2
	note D#, 2
	note A#, 2
	octave 6
	note D#, 2
	octave 5
	note A#, 2
	note D#, 2
	octave 6
	note D#, 2
	octave 5
	note A#, 2
	note A#, 2
	note D#, 2
	note A#, 2
	octave 6
	note D#, 2
	octave 5
	note A#, 2
	note D#, 2
	octave 6
	note D#, 2
	octave 5
	note A#, 2
	dutycycle 3
	note C_, 2
	octave 4
	note F_, 2
	note G_, 2
	note C#, 2
	note D#, 2
	octave 3
	note A#, 2
	octave 4
	note C_, 2
	octave 3
	note G#, 2
	note A#, 2
	note G_, 2
	note G#, 2
	note F_, 2
	note G_, 2
	note D#, 2
	note F_, 2
	note C#, 2
	octave 5
	note C_, 2
	octave 4
	note F_, 2
	note G_, 2
	note C#, 2
	note D#, 2
	octave 3
	note A#, 2
	octave 4
	note C_, 2
	octave 3
	note G#, 2
	note A#, 2
	note G_, 2
	note G#, 2
	note F_, 2
	note G_, 2
	note D#, 2
	note F_, 2
	note C#, 2
	octave 6
	note E_, 2
	octave 5
	note A_, 2
	note B_, 2
	note E_, 2
	note G_, 2
	note D_, 2
	note E_, 2
	note C_, 2
	note D_, 2
	octave 4
	note B_, 2
	octave 5
	note C_, 2
	octave 4
	note A_, 2
	note B_, 2
	note G_, 2
	note A_, 2
	note F_, 2
	octave 6
	note E_, 2
	octave 5
	note A_, 2
	note B_, 2
	note E_, 2
	note G_, 2
	note D_, 2
	note E_, 2
	note C_, 2
	note D_, 2
	octave 4
	note B_, 2
	octave 5
	note C_, 2
	octave 4
	note A_, 2
	note B_, 2
	note G_, 2
	note A_, 2
	note F_, 2
	intensity $B7
	octave 3
	note E_, 10
	note E_, 2
	note D_, 2
	note C_, 2
	octave 2
	note G_, 6
	note C_, 10
	octave 3
	note F_, 10
	note F_, 2
	note D#, 2
	note C#, 2
	octave 2
	note G#, 6
	note C#, 10
	octave 3
	note F#, 10
	note F#, 2
	note E_, 2
	note D_, 2
	octave 2
	note A_, 6
	note D_, 16
	note __, 10
	note A_, 6
	note D_, 10
	loopchannel 0, Music_SinnohWildBattle_Ch1_loop

Music_SinnohWildBattle_Ch2:
	notetype $C, $C2
	dutycycle 3
	tone $0001
	vibrato $08, $36
	octave 5
	note C_, 1
	octave 4
	note G_, 1
	octave 5
	note C_, 2
	note C_, 1
	octave 4
	note G_, 1
	octave 5
	note C_, 2
	note C_, 1
	octave 4
	note G_, 1
	octave 5
	note C_, 2
	note C_, 1
	octave 4
	note G_, 1
	octave 5
	note C_, 2
	note C_, 1
	octave 4
	note G_, 1
	octave 5
	note C_, 2
	note C_, 1
	octave 4
	note G_, 1
	octave 5
	note C_, 2
	note C_, 1
	octave 4
	note G_, 1
	octave 5
	note C_, 2
	note C_, 1
	octave 4
	note G_, 1
	octave 5
	note C_, 2
	octave 3
	note C_, 6
	note G_, 6
	note F_, 12
	note C_, 8
	note C#, 6
	note G#, 6
	note G_, 12
	intensity $4F
	note C#, 8
	intensity $C2
	octave 4
	note C_, 6
	note G_, 6
	note F_, 12
	note C_, 8
	note C#, 6
	note G#, 6
	note G_, 12
	intensity $4F
	octave 5
	note C#, 8
Music_SinnohWildBattle_Ch2_loop:
	intensity $C7
	octave 4
	note C_, 10
	intensity $C1
	octave 3
	note G_, 2
	octave 4
	note C_, 2
	note G_, 2
	note F_, 2
	note E_, 2
	note D_, 2
	note C_, 2
	note F_, 2
	note E_, 2
	note F_, 2
	note G_, 2
	intensity $4F
	note G#, 16
	intensity $C7
	note G#, 16
	note C_, 10
	intensity $C1
	octave 3
	note G_, 2
	octave 4
	note C_, 2
	note G_, 2
	note F_, 2
	note E_, 2
	note D_, 2
	note C_, 2
	note F_, 2
	note E_, 2
	note D_, 2
	note C_, 2
	intensity $4F
	octave 3
	note A#, 16
	intensity $C7
	note A#, 12
	intensity $C1
	octave 4
	note C#, 4
	intensity $C7
	note D_, 10
	intensity $C1
	octave 3
	note A_, 2
	octave 4
	note D_, 2
	note A_, 2
	note G_, 2
	note F#, 2
	note E_, 2
	note D_, 2
	note G_, 2
	note F#, 2
	note G_, 2
	note A_, 2
	intensity $4F
	note A#, 16
	intensity $C7
	note A#, 16
	note D_, 6
	octave 3
	note A_, 4
	note A_, 2
	intensity $C1
	octave 4
	note D_, 2
	note A_, 2
	note G_, 2
	note F#, 2
	note E_, 2
	note D_, 2
	note G_, 2
	note F#, 2
	note E_, 2
	note D_, 2
	intensity $4F
	note C_, 16
	intensity $C7
	note C_, 12
	note D#, 4
	octave 3
	note A#, 10
	note A#, 2
	intensity $C1
	note G#, 2
	note G_, 2
	intensity $C7
	note D#, 6
	octave 2
	note A#, 8
	intensity $C1
	note G#, 1
	octave 3
	note C#, 1
	intensity $C7
	note F_, 6
	intensity $C1
	note C#, 1
	note F_, 1
	intensity $C7
	note G#, 6
	intensity $C1
	note F_, 1
	note G#, 1
	intensity $C7
	octave 4
	note C#, 8
	note C_, 8
	intensity $C1
	octave 3
	note A#, 2
	note G#, 2
	note G_, 2
	note G#, 2
	intensity $C7
	note A#, 16
	note __, 8
	intensity $C1
	note A#, 2
	note G#, 2
	note G_, 2
	note G#, 2
	intensity $C7
	note A#, 16
	note __, 8
	intensity $4F
	octave 4
	note G#, 16
	intensity $6F
	note A_, 16
	intensity $8F
	note A#, 16
	intensity $C7
	note A#, 16
	octave 3
	note C_, 6
	note G_, 6
	note F_, 4
	note C#, 16
	note C_, 6
	note G_, 6
	note F_, 4
	note G#, 16
	note E_, 6
	note B_, 6
	note A_, 4
	note F_, 16
	note E_, 6
	note B_, 6
	note A_, 4
	octave 4
	note C_, 12
	note D#, 4
	octave 3
	note G_, 10
	note G_, 2
	note F_, 2
	note E_, 2
	note C_, 6
	octave 2
	note G_, 10
	octave 3
	note G#, 10
	note G#, 2
	note F#, 2
	note F_, 2
	note C#, 6
	octave 2
	note G#, 10
	octave 3
	note A_, 10
	note A_, 2
	note G_, 2
	note F#, 2
	note D_, 6
	octave 2
	note A_, 16
	note __, 10
	octave 3
	note D_, 6
	octave 2
	note A_, 10
	loopchannel 0, Music_SinnohWildBattle_Ch2_loop

Music_SinnohWildBattle_Ch3:
	notetype $C, $13
	octave 2
	note D_, 2
	note D#, 1
	note E_, 1
	note D#, 2
	note E_, 1
	note F_, 1
	note E_, 2
	note F_, 1
	note F#, 1
	note F_, 2
	note F#, 1
	note G_, 1
	note F#, 2
	note G_, 1
	note G#, 1
	note G_, 2
	note G#, 1
	note A_, 1
	note G#, 2
	note D#, 2
	note D_, 2
	note C#, 2
	note C_, 2
	note G_, 2
	note C_, 2
	note G_, 2
	note C_, 2
	note G_, 2
	note C_, 2
	note G_, 2
	note C_, 2
	note G_, 2
	note C_, 4
	note G_, 2
	note F_, 2
	note D#, 2
	note G_, 2
	note C#, 2
	note G#, 2
	note C#, 2
	note G#, 2
	note C#, 2
	note G#, 2
	note C#, 2
	note G#, 2
	note C#, 2
	note G#, 2
	note C#, 4
	note G#, 2
	note G_, 2
	note F_, 2
	note G#, 2
	note C_, 2
	note G_, 2
	note C_, 2
	note G_, 2
	note C_, 2
	note G_, 2
	note C_, 2
	note G_, 2
	note C_, 2
	note G_, 2
	note C_, 4
	note G_, 2
	note F_, 2
	note D#, 2
	note G_, 2
	note C#, 2
	note G#, 2
	note C#, 2
	note G#, 2
	note C#, 2
	note G#, 2
	note C#, 2
	note G#, 2
	note C#, 2
	note G#, 2
	note C#, 4
	note G#, 2
	note G_, 2
	note F_, 2
	note G#, 2
Music_SinnohWildBattle_Ch3_loop:
	note C_, 2
	octave 1
	note G_, 2
	octave 2
	note C_, 2
	note G_, 4
	note G_, 2
	note C_, 2
	note G_, 2
	note C_, 2
	octave 1
	note G_, 2
	octave 2
	note C_, 2
	note F_, 4
	note G_, 2
	note G_, 2
	note F_, 2
	note C#, 2
	note G#, 2
	octave 3
	note G#, 2
	note C#, 4
	octave 2
	note G#, 2
	note F_, 2
	note G#, 2
	note C#, 2
	note G#, 2
	octave 3
	note F_, 2
	note C#, 4
	octave 2
	note G#, 2
	note F_, 2
	note G#, 2
	note C_, 2
	octave 1
	note G_, 2
	octave 2
	note C_, 2
	note G_, 4
	note G_, 2
	note C_, 2
	note G_, 2
	note C_, 2
	octave 1
	note G_, 2
	octave 2
	note C_, 2
	note F_, 4
	note G_, 2
	note G_, 2
	note F_, 2
	note C#, 2
	note G#, 2
	octave 1
	note G#, 2
	octave 2
	note C#, 4
	note G#, 2
	note F_, 2
	note G#, 2
	note C#, 2
	note G#, 2
	octave 3
	note C#, 2
	octave 2
	note G#, 2
	note G#, 2
	octave 3
	note C#, 2
	octave 2
	note C#, 2
	note G#, 2
	note D_, 2
	octave 1
	note A_, 2
	octave 2
	note D_, 2
	note A_, 4
	note A_, 2
	note D_, 2
	note A_, 2
	note D_, 2
	octave 1
	note A_, 2
	octave 2
	note D_, 2
	note G_, 4
	note A_, 2
	note A_, 2
	note G_, 2
	note D#, 2
	note A#, 2
	octave 3
	note A#, 2
	note D#, 4
	octave 2
	note A#, 2
	note G_, 2
	note A#, 2
	note D#, 2
	note A#, 2
	octave 3
	note G_, 2
	note D#, 4
	octave 2
	note A#, 2
	note G_, 2
	note A#, 2
	note D_, 2
	octave 1
	note A_, 2
	octave 2
	note D_, 2
	note A_, 4
	note A_, 2
	note D_, 2
	note A_, 2
	note D_, 2
	octave 1
	note A_, 2
	octave 2
	note D_, 2
	note G_, 4
	note A_, 2
	note A_, 2
	note G_, 2
	note D#, 2
	note A#, 2
	octave 3
	note G_, 2
	note D#, 4
	octave 2
	note A#, 2
	note G_, 2
	note A#, 2
	note D#, 2
	note A#, 2
	octave 3
	note G_, 2
	octave 2
	note A#, 2
	note D#, 2
	note G_, 2
	note A#, 2
	octave 3
	note D#, 2
	octave 2
	note D#, 2
	note A#, 2
	note D#, 2
	note A#, 2
	note D#, 2
	note A#, 2
	note D#, 2
	note A#, 2
	note D#, 2
	note A#, 2
	note D#, 2
	note A#, 2
	note D#, 2
	note A#, 2
	note D#, 2
	note A#, 2
	note G#, 2
	note C#, 2
	octave 3
	note C#, 4
	octave 2
	note G#, 2
	note C#, 2
	octave 3
	note F_, 4
	octave 2
	note G#, 2
	note C#, 2
	octave 3
	note F_, 2
	octave 2
	note G#, 2
	octave 3
	note C#, 2
	note C_, 2
	octave 2
	note A#, 2
	note G#, 2
	note D#, 2
	note A#, 2
	note D#, 2
	note A#, 2
	note D#, 2
	note A#, 2
	note D#, 2
	note A#, 2
	note D#, 2
	note A#, 2
	note D#, 2
	note A#, 2
	note D#, 2
	note A#, 2
	note D#, 2
	note A#, 2
	note D#, 2
	note A#, 2
	note D#, 2
	note A#, 2
	note D#, 2
	note A#, 2
	note D#, 2
	note A#, 2
	note D#, 2
	note A#, 2
	note D#, 2
	note A#, 2
	note D#, 2
	note A#, 2
	note D#, 2
	note A#, 2
	note C_, 2
	note G_, 2
	note C_, 2
	note G_, 2
	note C_, 2
	note G_, 2
	note C_, 2
	note G_, 2
	note C#, 2
	note G#, 2
	note C#, 2
	note G#, 2
	note C#, 2
	note G#, 2
	note C#, 2
	note G#, 2
	note A#, 2
	note D#, 2
	note A#, 2
	octave 3
	note D#, 2
	octave 2
	note A#, 2
	note D#, 2
	note A#, 2
	octave 3
	note D#, 2
	octave 2
	note A#, 2
	note D#, 2
	note A#, 2
	octave 3
	note D#, 2
	octave 2
	note A#, 2
	octave 1
	note B_, 2
	note A_, 1
	note A#, 1
	note B_, 2
	octave 2
	note C_, 2
	note G_, 2
	note C_, 2
	note G_, 2
	note G_, 2
	note C_, 2
	note G_, 2
	note C_, 2
	note C#, 2
	note G#, 2
	note C#, 2
	note G#, 2
	note G#, 2
	note C#, 2
	note C#, 2
	note G#, 2
	note C_, 2
	note G_, 2
	note C_, 2
	note G_, 2
	note G_, 2
	note C_, 2
	note G_, 2
	note C_, 2
	note C#, 2
	note G#, 2
	note C#, 2
	note G#, 2
	note G#, 2
	note C#, 2
	note C#, 2
	note G#, 2
	note D_, 2
	note A_, 2
	note D_, 2
	note A_, 2
	note A_, 2
	note D_, 2
	note A_, 2
	note D_, 2
	note D#, 2
	note A#, 2
	note D#, 2
	note A#, 2
	note A#, 2
	note D#, 2
	note D#, 2
	note A#, 2
	note D_, 2
	note A_, 2
	note D_, 2
	note A_, 2
	note A_, 2
	note D_, 2
	note A_, 2
	note D_, 2
	note D#, 2
	note A#, 2
	note D#, 2
	note A#, 2
	note A#, 2
	note D#, 2
	note D#, 2
	note A#, 2
	note C_, 2
	octave 1
	note G_, 2
	octave 2
	note C_, 2
	note G_, 4
	note G_, 2
	note C_, 2
	note G_, 2
	note C_, 2
	octave 1
	note G_, 2
	octave 2
	note C_, 2
	note F_, 4
	note G_, 2
	note G_, 2
	note F_, 2
	note C#, 2
	note G#, 2
	octave 3
	note F_, 2
	note C#, 4
	octave 2
	note G#, 2
	note F_, 2
	note G#, 2
	note C#, 2
	note G#, 2
	octave 3
	note C#, 2
	octave 2
	note G#, 2
	note C#, 2
	note F_, 2
	note G#, 2
	octave 3
	note C#, 2
	octave 2
	note D_, 2
	note A_, 2
	octave 3
	note F#, 2
	note D_, 4
	octave 2
	note A_, 2
	note F#, 2
	note A_, 2
	note D_, 2
	note A_, 2
	octave 3
	note D_, 2
	octave 2
	note A_, 2
	note D_, 2
	note F#, 2
	note A_, 2
	octave 3
	note D_, 2
	octave 2
	note D_, 2
	note A_, 2
	octave 3
	note F#, 2
	note D_, 4
	octave 2
	note A_, 2
	note F#, 2
	note A_, 2
	note D_, 2
	note A_, 2
	octave 3
	note D_, 2
	octave 2
	note A_, 2
	octave 3
	note D_, 2
	octave 2
	note G_, 2
	note A_, 2
	note G_, 2
	loopchannel 0, Music_SinnohWildBattle_Ch3_loop
