Music_WinPokeSinnoh::
	dbw $80, Music_WinPokeSinnoh_Ch1
	dbw $01, Music_WinPokeSinnoh_Ch2
	dbw $02, Music_WinPokeSinnoh_Ch3

Music_WinPokeSinnoh_Ch1:
	tempo $68
	volume $77
	notetype $C, $A2
	dutycycle 2
	octave 3
	note B_, 1
	note A_, 1
	note G#, 1
	note F#, 1
	note E_, 2
	octave 4
	note D#, 2
	note E_, 2
	octave 3
	note G#, 2
	octave 4
	note E_, 4
Music_WinPokeSinnoh_Ch1_loop:
	octave 2
	note E_, 4
	octave 1
	note B_, 4
	octave 2
	note E_, 2
	note G#, 4
	note E_, 4
	note A_, 4
	note E_, 2
	note G#, 4
	note E_, 4
	note E_, 4
	octave 1
	note B_, 4
	octave 2
	note E_, 2
	note G#, 4
	note E_, 4
	note A_, 4
	note E_, 2
	note G#, 4
	note G_, 4
	note F_, 4
	note C_, 4
	note F_, 2
	note A_, 4
	note F_, 4
	note A#, 4
	note F_, 2
	note A_, 4
	note F_, 4
	note F_, 4
	note C_, 4
	note F_, 2
	note A_, 4
	note F_, 4
	note A#, 4
	note F_, 2
	note A_, 4
	note B_, 4
	loopchannel 0, Music_WinPokeSinnoh_Ch1_loop

Music_WinPokeSinnoh_Ch2:
	notetype $C, $B2
	dutycycle 2
	octave 4
	note E_, 1
	note F#, 1
	note G#, 1
	note A_, 1
	intensity $B7
	note B_, 12
Music_WinPokeSinnoh_Ch2_loop:
	octave 4
	intensity $B2
	note B_, 2
	note A_, 2
	note G#, 2
	note A_, 2
	note B_, 2
	note B_, 2
	note B_, 4
	octave 5
	note C#, 2
	note C#, 2
	note C#, 4
	octave 4
	note B_, 2
	note B_, 2
	note B_, 4
	note B_, 2
	note A_, 2
	note G#, 2
	note A_, 2
	note B_, 2
	note B_, 2
	note B_, 4
	octave 5
	note C#, 2
	note C#, 2
	note C#, 4
	octave 4
	note B_, 8
	octave 5
	note C_, 2
	octave 4
	note A#, 2
	note A_, 2
	note A#, 2
	octave 5
	note C_, 2
	note C_, 2
	note C_, 4
	note D_, 2
	note D_, 2
	note D_, 4
	note C_, 2
	note C_, 2
	note C_, 4
	note C_, 2
	octave 4
	note A#, 2
	note A_, 2
	note A#, 2
	octave 5
	note C_, 2
	note C_, 2
	note C_, 4
	note D_, 2
	note D_, 2
	note D_, 4
	note C_, 8
	loopchannel 0, Music_WinPokeSinnoh_Ch2_loop

Music_WinPokeSinnoh_Ch3:
	notetype $C, $12
	octave 5
	note __, 4
	notetype $9, $12
	note B_, 2
	notetype $6, $12
	note __, 1
	note G#, 3
	note __, 1
	note E_, 3
	note __, 1
	octave 4
	note B_, 3
	note __, 1
	octave 5
	note E_, 3
	note __, 1
	note G#, 3
	note __, 1
Music_WinPokeSinnoh_Ch3_loop:
	note G#, 3
	note __, 1
	note E_, 3
	note __, 1
	octave 4
	note B_, 3
	note __, 1
	octave 5
	note E_, 3
	note __, 1
	note G#, 3
	note __, 1
	octave 4
	note B_, 3
	note __, 1
	octave 5
	note E_, 3
	note __, 5
	note A_, 3
	note __, 1
	note C#, 3
	note __, 1
	note E_, 3
	note __, 5
	note G#, 3
	note __, 1
	octave 4
	note B_, 3
	note __, 1
	octave 5
	note E_, 3
	note __, 5
	note G#, 3
	note __, 1
	note E_, 3
	note __, 1
	octave 4
	note G#, 3
	note __, 1
	note B_, 3
	note __, 1
	octave 5
	note E_, 3
	note __, 1
	note G#, 3
	note __, 1
	octave 4
	note B_, 3
	note __, 5
	octave 5
	note E_, 3
	note __, 1
	note A_, 3
	note __, 1
	note C#, 3
	note __, 5
	note E_, 3
	note __, 1
	note D#, 3
	note __, 1
	note D_, 3
	note __, 1
	note C#, 3
	note __, 1
	note F_, 3
	note __, 1
	note C_, 3
	note __, 1
	octave 4
	note A_, 3
	note __, 1
	octave 5
	note C_, 3
	note __, 1
	note F_, 3
	note __, 1
	octave 4
	note A_, 3
	note __, 1
	octave 5
	note C_, 3
	note __, 5
	note F_, 3
	note __, 1
	octave 4
	note A#, 3
	note __, 1
	octave 5
	note D_, 3
	note __, 5
	note F_, 3
	note __, 1
	octave 4
	note A_, 3
	note __, 1
	octave 5
	note C_, 3
	note __, 5
	note F_, 3
	note __, 1
	note C_, 3
	note __, 1
	octave 4
	note A_, 3
	note __, 1
	octave 5
	note C_, 3
	note __, 1
	note F_, 3
	note __, 1
	note A_, 3
	note __, 1
	note C_, 3
	note __, 5
	note F_, 3
	note __, 1
	note A#, 3
	note __, 1
	note D_, 3
	note __, 5
	note F_, 3
	note __, 1
	note F_, 3
	note __, 1
	note F#, 3
	note __, 1
	note G_, 3
	note __, 1
	loopchannel 0, Music_WinPokeSinnoh_Ch3_loop
