Music_Celadon::
	musicheader 3, 1, Music_Celadon_Ch0
	musicheader 1, 2, Music_Celadon_Ch1
	musicheader 1, 3, Music_Celadon_Ch2

Music_Celadon_Ch0::
	tempo 144
	volume $77
	dutycycle 3
	;toggleperfectpitch
	notetype 12, $2f
	note __, 8
	octave 3
	note D_, 8

Music_Celadon_branch_b6d4::
	dutycycle 2
	notetype 12, $b2
	note G_, 4
	note B_, 4
	note G_, 2
	note B_, 4
	note G_, 2
	note E_, 1
	note E_, 1
	note G_, 1
	note E_, 1
	note B_, 2
	octave 4
	note C_, 2
	octave 3
	note A_, 8
	note F#, 4
	note A_, 4
	note F#, 2
	note A_, 6
	note A_, 1
	note B_, 1
	octave 4
	note C_, 1
	octave 3
	note B_, 1
	note A_, 2
	note B_, 2
	note G_, 4
	octave 4
	note G_, 4
	octave 3
	note G_, 4
	note B_, 4
	note G_, 2
	note B_, 4
	note G_, 2
	note E_, 1
	note F#, 1
	note G_, 1
	note A_, 1
	note B_, 2
	octave 4
	note C_, 2
	octave 3
	note A_, 8
	note A_, 2
	note B_, 2
	octave 4
	note C_, 2
	octave 3
	note B_, 2
	note A_, 2
	note G_, 2
	note F#, 2
	note G_, 2
	note F#, 4
	note D_, 1
	note E_, 1
	note F#, 1
	note G_, 1
	note A_, 8
	notetype 12, $94
	note B_, 8
	note G_, 4
	note D_, 4
	note G_, 4
	note A_, 2
	octave 4
	note C_, 2
	octave 3
	note B_, 8
	note A_, 8
	note F#, 4
	note G_, 4
	note A_, 4
	note G_, 4
	note F#, 4
	note A_, 4
	note B_, 8
	note G_, 4
	note D_, 4
	note G_, 4
	note A_, 2
	octave 4
	note C_, 2
	octave 3
	note B_, 8
	note A_, 8
	note F#, 4
	note G_, 4
	note A_, 4
	note G_, 4
	note F#, 4
	note A_, 4
	loopchannel 0, Music_Celadon_branch_b6d4


Music_Celadon_Ch1::
	dutycycle 3
	notetype 12, $c2
	octave 4
	note D_, 1
	note C#, 1
	note D_, 1
	note E_, 1
	note F#, 1
	note E_, 1
	note F#, 1
	note G_, 1
	notetype 12, $a0
	note A_, 8

Music_Celadon_branch_b74a::
	dutycycle 2
	notetype 12, $c2
	octave 4
	note B_, 4
	note G_, 4
	note B_, 2
	note G_, 6
	note B_, 1
	note G_, 1
	note A_, 1
	note B_, 1
	octave 5
	note C_, 2
	octave 4
	note B_, 2
	note A_, 8
	note A_, 4
	note F#, 4
	note A_, 2
	note F#, 6
	note A_, 1
	note G_, 1
	note F#, 1
	note G_, 1
	note A_, 2
	note B_, 2
	note G_, 4
	note B_, 4
	note B_, 4
	note G_, 4
	note B_, 2
	note G_, 4
	octave 3
	note B_, 2
	octave 4
	note B_, 1
	note G_, 1
	note A_, 1
	note B_, 1
	octave 5
	note C_, 2
	octave 4
	note B_, 2
	note A_, 8
	note A_, 2
	note G_, 2
	note F#, 2
	note G_, 2
	note F#, 2
	note E_, 2
	note D_, 2
	note C#, 2
	note D_, 8
	octave 5
	note D_, 8
	notetype 12, $b4
	octave 4
	note D_, 8
	note C_, 2
	octave 3
	note B_, 2
	note A_, 2
	note B_, 2
	octave 4
	note E_, 4
	note F#, 4
	note D_, 8
	note C_, 8
	octave 3
	note A_, 2
	note B_, 2
	octave 4
	note C_, 2
	note D_, 2
	note E_, 2
	note C_, 2
	note D_, 2
	note E_, 2
	note D_, 8
	note D_, 8
	note C_, 2
	octave 3
	note B_, 2
	note A_, 2
	note B_, 2
	octave 4
	note E_, 4
	note D_, 2
	note E_, 2
	note D_, 8
	note C_, 8
	note A_, 2
	note G_, 2
	note F#, 2
	note E_, 2
	note F#, 2
	note E_, 2
	note D_, 2
	note E_, 2
	note D_, 8
	loopchannel 0, Music_Celadon_branch_b74a


Music_Celadon_Ch2::
	notetype 12, $13
	note __, 8
	octave 5
	note D_, 1
	note C#, 1
	note D_, 1
	note E_, 1
	note F#, 1
	note E_, 1
	note F#, 1
	note G_, 1

Music_Celadon_branch_b7c1::
	octave 4
	note D_, 2
	note B_, 2
	note D_, 2
	note B_, 2
	note D_, 2
	note B_, 2
	note D_, 2
	note B_, 2
	note D_, 2
	note B_, 2
	note D_, 2
	note B_, 2
	note D_, 2
	note A_, 2
	note D_, 2
	note A_, 2
	note D_, 2
	note A_, 2
	note D_, 2
	note A_, 2
	note D_, 2
	note A_, 2
	note D_, 2
	note A_, 2
	note D_, 2
	note A_, 2
	note D_, 2
	note A_, 2
	note D_, 2
	note B_, 2
	note D_, 2
	note B_, 2
	note D_, 2
	note B_, 2
	note D_, 2
	note B_, 2
	note D_, 2
	note B_, 2
	note D_, 2
	note B_, 2
	note D_, 2
	note B_, 2
	note D_, 2
	note B_, 2
	note D_, 2
	note A_, 2
	note D_, 2
	note A_, 2
	note D_, 2
	note A_, 2
	note G_, 2
	note A_, 2
	note G_, 2
	note F#, 2
	note E_, 2
	note C#, 2
	note D_, 2
	note __, 6
	note F#, 2
	note __, 4
	note F#, 2
	note G_, 2
	octave 5
	note D_, 2
	octave 4
	note G_, 2
	octave 5
	note D_, 2
	octave 4
	note G_, 2
	octave 5
	note D_, 2
	octave 4
	note G_, 2
	note B_, 2
	note G_, 2
	octave 5
	note E_, 2
	note D_, 2
	note C_, 2
	note D_, 2
	octave 4
	note B_, 2
	note G_, 2
	octave 5
	note C_, 2
	octave 4
	note F#, 2
	octave 5
	note D_, 2
	octave 4
	note F#, 2
	octave 5
	note D_, 2
	octave 4
	note F#, 2
	octave 5
	note D_, 2
	octave 4
	note F#, 2
	octave 5
	note D_, 2
	octave 4
	note F#, 2
	octave 5
	note E_, 2
	note D_, 2
	note C_, 2
	note D_, 2
	octave 4
	note B_, 2
	note A_, 2
	octave 5
	note C_, 2
	octave 4
	note G_, 2
	octave 5
	note D_, 2
	octave 4
	note G_, 2
	octave 5
	note D_, 2
	octave 4
	note G_, 2
	octave 5
	note D_, 2
	octave 4
	note G_, 2
	note B_, 2
	note G_, 2
	octave 5
	note E_, 2
	note D_, 2
	note C_, 2
	note D_, 2
	octave 4
	note B_, 2
	note G_, 2
	octave 5
	note C_, 2
	octave 4
	note F#, 2
	octave 5
	note D_, 2
	octave 4
	note F#, 2
	octave 5
	note D_, 2
	octave 4
	note F#, 2
	octave 5
	note D_, 2
	octave 4
	note F#, 2
	octave 5
	note D_, 2
	octave 4
	note F#, 2
	octave 5
	note D_, 2
	note C_, 2
	octave 4
	note B_, 2
	note A_, 2
	note G_, 2
	note F#, 2
	note E_, 2
	loopchannel 0, Music_Celadon_branch_b7c1
