Music_RBYCredits::
	musicheader 3, 1, Music_RBYCredits_Ch0
	musicheader 1, 2, Music_RBYCredits_Ch1
	musicheader 1, 3, Music_RBYCredits_Ch2

Music_RBYCredits_Ch0::
	tempo 140
	volume $77
	dutycycle 3
	vibrato 8, $34
	;toggleperfectpitch
	notetype 12, $b5
	octave 4
	note E_, 6
	octave 3
	note A_, 1
	octave 4
	note E_, 1
	note D_, 6
	octave 3
	note G_, 1
	octave 4
	note D_, 1
	note C#, 6
	octave 3
	note F#, 1
	octave 4
	note C#, 1
	note D_, 4
	note E_, 2
	note C#, 1
	note E_, 1
	note C#, 1
	note __, 1
	octave 3
	note E_, 1
	note __, 3
	note E_, 1
	note E_, 1
	note E_, 1
	note __, 1
	note E_, 1
	note __, 1
	note E_, 1
	note __, 3
	note E_, 1
	note __, 1
	note E_, 1
	note __, 3
	note E_, 1
	note E_, 1
	note E_, 1
	note __, 1
	note E_, 1
	note __, 1
	note E_, 1
	note E_, 1
	note F#, 1
	note G_, 1
	notetype 12, $b6
	note A_, 4
	note E_, 2
	note A_, 2
	note G_, 4
	note A_, 2
	note G_, 2
	note B_, 4
	note A_, 4
	note G_, 2
	note F#, 2
	note E_, 2
	note D_, 2
	note C#, 6
	note E_, 2
	note A_, 4
	note C#, 4
	note E_, 4
	note D_, 2
	note C#, 2
	note E_, 2
	note F#, 2
	note G_, 2
	note F#, 2
	note A_, 4
	note E_, 2
	note A_, 2
	note G_, 4
	note A_, 2
	note G_, 2
	note B_, 4
	note A_, 4
	note G_, 2
	note A_, 2
	note F#, 2
	note D_, 2
	note E_, 6
	note C#, 2
	note A_, 4
	note C#, 4
	note E_, 4
	note D_, 2
	note C#, 2
	note E_, 2
	note F#, 2
	note G_, 2
	note F#, 2
	note G_, 4
	note D_, 2
	note G_, 2
	note B_, 2
	note A_, 2
	note G_, 2
	note A_, 2
	note D_, 4
	note E_, 2
	note F#, 2
	note G_, 2
	note F#, 2
	note E_, 2
	note D_, 2
	note E_, 6
	note A_, 2
	note G_, 4
	note F#, 4
	note G_, 4
	note F#, 4
	note E_, 4
	note D_, 4
	note G_, 4
	note D_, 2
	note G_, 2
	note B_, 2
	octave 4
	note C#, 2
	octave 3
	note B_, 2
	note A_, 2
	note D_, 4
	note E_, 2
	note F#, 2
	note G_, 2
	note F#, 2
	note E_, 2
	note D_, 2
	notetype 12, $b7
	note E_, 6
	note A_, 2
	note G_, 4
	note F#, 4
	notetype 12, $c7
	note A_, 4
	note B_, 4
	octave 4
	note C#, 4
	note D_, 4
	octave 3
	note B_, 2
	note A_, 2
	note G_, 2
	note F#, 2
	note E_, 2
	note F#, 2
	note G_, 2
	note A_, 2
	notetype 12, $90
	note G_, 8
	note F#, 8
	note E_, 8
	note D_, 8
	note __, 16
	note __, 16
	note __, 8
	notetype 12, $b6
	note E_, 6
	note D#, 1
	note D_, 1
	notetype 12, $a0
	note C#, 8
	notetype 12, $a7
	note C#, 8
	note __, 16
	note __, 16
	note __, 8
	note E_, 6
	note C#, 1
	note E_, 1
	notetype 12, $a0
	note A_, 8
	notetype 12, $a7
	note A_, 8
	notetype 12, $b6
	note G_, 6
	note D_, 4
	note G_, 2
	note B_, 4
	notetype 12, $b7
	note G_, 8
	note F#, 4
	note G#, 4
	notetype 12, $90
	note A_, 8
	note F#, 8
	note E_, 8
	note C#, 8
	notetype 12, $b7
	note D_, 8
	note C#, 8
	octave 2
	note B_, 8
	octave 3
	note D_, 8
	notetype 12, $90
	note E_, 8
	note D_, 8
	note F#, 8
	note E_, 8
	notetype 12, $a0
	note D_, 8
	note E_, 8
	note D_, 8
	note C_, 8
	note G_, 8
	note F_, 8
	note E_, 8
	note D_, 8
	notetype 12, $a0
	note C#, 6
	notetype 12, $a7
	note C#, 6
	notetype 12, $b7
	note D_, 4
	note E_, 8
	note G_, 6
	note F#, 1
	note F_, 1
	notetype 12, $a0
	note E_, 6
	notetype 12, $a7
	note E_, 6
	notetype 12, $b7
	note D_, 4
	notetype 12, $a0
	note C#, 8
	notetype 12, $a7
	note C#, 8
	notetype 12, $b7
	note E_, 6
	note D_, 2
	note G_, 4
	note F#, 4
	note E_, 4
	note F#, 4
	note E_, 4
	note D_, 4
	note E_, 4
	note D_, 4
	note C#, 4
	note D_, 4
	note C#, 4
	note C#, 4
	note E_, 4
	note F#, 4
	notetype 12, $a0
	note E_, 6
	notetype 12, $b7
	note D_, 2
	note G_, 4
	note F#, 4
	note E_, 4
	note F#, 4
	note A_, 4
	note B_, 4
	notetype 12, $a0
	octave 4
	note C#, 16
	note C#, 8
	notetype 12, $a7
	note C#, 8
	notetype 12, $b5
	octave 3
	note A_, 1
	note __, 1
	note A_, 1
	note __, 3
	note A_, 1
	note A_, 1
	notetype 12, $b1
	note A_, 8
	endchannel


Music_RBYCredits_Ch1::
	dutycycle 3
	vibrato 10, $25
	notetype 12, $c5
	octave 4
	note A_, 6
	note E_, 1
	note A_, 1
	note G_, 6
	note D_, 1
	note G_, 1
	notetype 12, $c7
	note F#, 12
	note G#, 2
	note E_, 1
	note G#, 1
	notetype 12, $c2
	note A_, 2
	notetype 12, $c1
	octave 3
	note A_, 4
	note A_, 1
	note A_, 1
	note A_, 2
	note A_, 2
	note A_, 4
	note A_, 2
	note A_, 4
	note A_, 1
	note A_, 1
	note A_, 2
	note A_, 2
	notetype 12, $c4
	note A_, 1
	note F#, 1
	note A_, 1
	note B_, 1
	notetype 12, $c7
	octave 4
	note C#, 6
	note C#, 1
	note D_, 1
	note E_, 4
	note C#, 4
	note G_, 4
	note F#, 4
	note E_, 4
	note D_, 4
	note C#, 6
	octave 3
	note A_, 2
	octave 4
	note E_, 8
	octave 3
	note A_, 6
	note E_, 2
	octave 4
	note C#, 8
	note C#, 6
	note C#, 1
	note D_, 1
	note E_, 4
	note C#, 4
	note G_, 4
	note F#, 4
	note E_, 4
	note D_, 4
	note C#, 6
	octave 3
	note A_, 2
	octave 4
	note E_, 8
	octave 3
	note A_, 6
	note E_, 2
	notetype 12, $b0
	octave 4
	note C#, 8
	notetype 12, $c7
	note D_, 6
	octave 3
	note B_, 2
	octave 4
	note G_, 8
	octave 3
	note G_, 6
	note D_, 2
	note B_, 8
	notetype 12, $b0
	octave 4
	note C#, 6
	notetype 12, $b7
	note C#, 6
	note D_, 4
	notetype 12, $a0
	note E_, 8
	notetype 12, $a7
	note E_, 8
	notetype 12, $c7
	note D_, 6
	octave 3
	note B_, 2
	octave 4
	note G_, 8
	octave 3
	note G_, 6
	note D_, 2
	note B_, 8
	notetype 12, $b0
	octave 4
	note E_, 7
	notetype 12, $b7
	note E_, 7
	notetype 12, $c3
	note E_, 1
	note G#, 1
	notetype 12, $b0
	note A_, 8
	notetype 12, $b7
	note A_, 8
	notetype 12, $c6
	note G_, 4
	note F#, 4
	note E_, 4
	note D_, 4
	notetype 12, $a0
	note C#, 8
	notetype 12, $a7
	note C#, 8
	notetype 12, $90
	octave 3
	note A_, 8
	notetype 12, $97
	note A_, 8
	notetype 12, $b0
	note E_, 8
	notetype 12, $b7
	note E_, 8
	notetype 12, $c7
	note D_, 8
	note G_, 6
	note F#, 1
	note F_, 1
	note E_, 8
	notetype 12, $b7
	note G_, 6
	note F#, 1
	note F_, 1
	notetype 12, $b0
	note E_, 8
	notetype 12, $b7
	note E_, 8
	notetype 12, $b0
	note D_, 8
	notetype 12, $b7
	note D_, 8
	notetype 12, $c7
	octave 2
	note B_, 8
	octave 3
	note F#, 6
	note D_, 1
	note F#, 1
	note E_, 8
	note B_, 6
	note G_, 1
	note B_, 1
	notetype 12, $b0
	octave 4
	note C#, 8
	notetype 12, $b7
	note C#, 8
	notetype 12, $b0
	note D_, 8
	notetype 12, $b7
	note D_, 8
	notetype 12, $c7
	octave 3
	note B_, 8
	octave 4
	note D_, 6
	octave 3
	note B_, 1
	octave 4
	note D_, 1
	notetype 12, $b0
	note C#, 6
	notetype 12, $b7
	note C#, 6
	notetype 12, $c7
	octave 3
	note B_, 4
	notetype 12, $b0
	note A_, 8
	notetype 12, $b7
	note A_, 8
	notetype 12, $b0
	note F#, 6
	notetype 12, $b7
	note F#, 6
	notetype 12, $c7
	note G#, 4
	note A_, 8
	note F#, 8
	notetype 12, $b0
	note G#, 6
	notetype 12, $b7
	note G#, 6
	notetype 12, $c7
	note A_, 4
	note B_, 8
	note G#, 8
	notetype 12, $b0
	note A_, 6
	notetype 12, $b7
	note A_, 6
	notetype 12, $c7
	note B_, 4
	octave 4
	note C_, 8
	octave 3
	note A_, 8
	notetype 12, $b0
	note B_, 6
	notetype 12, $b7
	note B_, 6
	notetype 12, $c7
	octave 4
	note C_, 4
	notetype 12, $b0
	note D_, 8
	octave 3
	note B_, 8
	notetype 12, $b0
	octave 4
	note C#, 16
	note C#, 8
	notetype 12, $b7
	note C#, 8
	notetype 12, $b0
	octave 3
	note A_, 16
	note A_, 8
	notetype 12, $b7
	note A_, 8
	notetype 12, $c7
	note G_, 6
	note B_, 2
	octave 4
	note D_, 8
	octave 3
	note B_, 6
	octave 4
	note D_, 2
	note G_, 6
	note F#, 1
	note F_, 1
	note E_, 8
	octave 3
	note G_, 6
	note F#, 1
	note F_, 1
	note E_, 8
	note C#, 4
	note D_, 4
	note G_, 6
	note B_, 2
	octave 4
	note D_, 8
	octave 3
	note B_, 6
	octave 4
	note D_, 2
	note G_, 8
	notetype 12, $b0
	note A_, 16
	notetype 12, $a0
	note A_, 8
	notetype 12, $a7
	note A_, 8
	notetype 12, $c1
	note A_, 2
	note A_, 4
	note A_, 1
	note A_, 1
	notetype 12, $c1
	note A_, 8
	endchannel


Music_RBYCredits_Ch2::
	notetype 12, $10
	octave 5
	note C#, 6
	octave 4
	note A_, 1
	octave 5
	note C#, 1
	note D_, 6
	octave 4
	note B_, 1
	octave 5
	note D_, 1
	note F#, 6
	note D_, 1
	note F#, 1
	note A_, 4
	note G#, 2
	note E_, 1
	note G#, 1
	note A_, 1
	note __, 15
	note __, 16
	callchannel Music_RBYCredits_branch_7ffa4
	callchannel Music_RBYCredits_branch_7ffae
	callchannel Music_RBYCredits_branch_7ffa4
	octave 4
	note E_, 2
	note A_, 2
	note E_, 2
	note A_, 2
	note E_, 2
	note F#, 2
	note G_, 2
	note A_, 2
	callchannel Music_RBYCredits_branch_7ffa4
	callchannel Music_RBYCredits_branch_7ffae
	callchannel Music_RBYCredits_branch_7ffa4
	callchannel Music_RBYCredits_branch_7ffa4
	callchannel Music_RBYCredits_branch_7ffb8
	callchannel Music_RBYCredits_branch_7ffb8
	callchannel Music_RBYCredits_branch_7ffc1
	octave 4
	note A_, 2
	octave 5
	note C#, 2
	octave 4
	note A_, 2
	octave 5
	note C#, 2
	octave 4
	note A_, 2
	octave 5
	note C#, 2
	octave 4
	note B_, 2
	note A_, 2
	callchannel Music_RBYCredits_branch_7ffb8
	callchannel Music_RBYCredits_branch_7ffb8
	callchannel Music_RBYCredits_branch_7ffc1
	callchannel Music_RBYCredits_branch_7ffc1
	octave 4
	note G_, 4
	note A_, 4
	note B_, 4
	octave 5
	note D_, 4
	callchannel Music_RBYCredits_branch_7ffa4
	callchannel Music_RBYCredits_branch_7ffa4
	callchannel Music_RBYCredits_branch_7ffa4
	callchannel Music_RBYCredits_branch_7ffa4
	callchannel Music_RBYCredits_branch_7ffa4
	callchannel Music_RBYCredits_branch_7ffa4
	callchannel Music_RBYCredits_branch_7ffae
	callchannel Music_RBYCredits_branch_7ffae
	callchannel Music_RBYCredits_branch_7ffa4
	note E_, 4
	note A_, 2
	note E_, 4
	note A_, 2
	note E_, 2
	note A_, 2
	callchannel Music_RBYCredits_branch_7ffae
	callchannel Music_RBYCredits_branch_7ffae
	callchannel Music_RBYCredits_branch_7ffa4
	note E_, 2
	note A_, 2
	note E_, 2
	note A_, 2
	note E_, 2
	note A_, 2
	note G#, 2
	note A_, 2
	callchannel Music_RBYCredits_branch_7ffd2
	callchannel Music_RBYCredits_branch_7ffd2
	callchannel Music_RBYCredits_branch_7ffdb
	callchannel Music_RBYCredits_branch_7ffdb
	note F_, 2
	note A_, 2
	note F_, 2
	note A_, 2
	note F_, 2
	note A_, 2
	note F_, 2
	note A_, 2
	note F_, 2
	note A_, 2
	note G_, 2
	note F_, 2
	note E_, 2
	note D_, 2
	note E_, 2
	note F_, 2
	callchannel Music_RBYCredits_branch_7ffb8
	callchannel Music_RBYCredits_branch_7ffb8
	note E_, 4
	note A_, 4
	note E_, 4
	note A_, 4
	note E_, 4
	note A_, 4
	note E_, 4
	note A_, 4
	callchannel Music_RBYCredits_branch_7ffa4
	callchannel Music_RBYCredits_branch_7ffa4
	callchannel Music_RBYCredits_branch_7ffe4
	callchannel Music_RBYCredits_branch_7ffe4
	callchannel Music_RBYCredits_branch_7ffa4
	callchannel Music_RBYCredits_branch_7ffa4
	callchannel Music_RBYCredits_branch_7ffb8
	callchannel Music_RBYCredits_branch_7ffb8
	callchannel Music_RBYCredits_branch_7ffed
	callchannel Music_RBYCredits_branch_7ffed
	note A_, 1
	note __, 1
	note A_, 1
	note __, 3
	note A_, 1
	note A_, 1
	note A_, 1
	note __, 7
	endchannel

Music_RBYCredits_branch_7ffa4::
	octave 4
	note E_, 2
	note A_, 2
	note E_, 2
	note A_, 2
	note E_, 2
	note A_, 2
	note E_, 2
	note A_, 2
	endchannel

Music_RBYCredits_branch_7ffae::
	octave 4
	note D_, 2
	note G_, 2
	note D_, 2
	note G_, 2
	note D_, 2
	note G_, 2
	note D_, 2
	note G_, 2
	endchannel

Music_RBYCredits_branch_7ffb8::
	note G_, 2
	note B_, 2
	note G_, 2
	note B_, 2
	note G_, 2
	note B_, 2
	note G_, 2
	note B_, 2
	endchannel

Music_RBYCredits_branch_7ffc1::
	octave 4
	note A_, 2
	octave 5
	note C#, 2
	octave 4
	note A_, 2
	octave 5
	note C#, 2
	octave 4
	note A_, 2
	octave 5
	note C#, 2
	octave 4
	note A_, 2
	octave 5
	note C#, 2
	endchannel

Music_RBYCredits_branch_7ffd2::
	note D_, 2
	note A_, 2
	note D_, 2
	note A_, 2
	note D_, 2
	note A_, 2
	note D_, 2
	note A_, 2
	endchannel

Music_RBYCredits_branch_7ffdb::
	note E_, 2
	note G#, 2
	note E_, 2
	note G#, 2
	note E_, 2
	note G#, 2
	note E_, 2
	note G#, 2
	endchannel

Music_RBYCredits_branch_7ffe4::
	note E_, 2
	note B_, 2
	note E_, 2
	note B_, 2
	note E_, 2
	note B_, 2
	note E_, 2
	note B_, 2
	endchannel

Music_RBYCredits_branch_7ffed::
	note A_, 1
	note __, 1
	note A_, 1
	note __, 3
	note A_, 1
	note A_, 1
	note A_, 1
	note __, 1
	note A_, 1
	note __, 1
	note A_, 1
	note __, 3
	endchannel
