Music_DefeatedGymLeader::
	musicheader 3, 1, Music_DefeatedGymLeader_Ch0
	musicheader 1, 2, Music_DefeatedGymLeader_Ch1
	musicheader 1, 3, Music_DefeatedGymLeader_Ch2

Music_DefeatedGymLeader_Ch0::
	tempo 112
	volume $77
	dutycycle 3
	vibrato 18, $31
	;toggleperfectpitch
	tempo 112
	notetype 12, $a6
	octave 4
	note D_, 6
	octave 3
	note A_, 1
	octave 4
	note D_, 1
	note F#, 6
	note D_, 1
	note F#, 1
	notetype 12, $a0
	note A_, 8
	notetype 12, $a7
	note A_, 8

Music_DefeatedGymLeader_branch_23ccc::
	notetype 12, $b2
	octave 3
	note A_, 2
	note A_, 2
	note F#, 4
	note G_, 2
	note G_, 2
	note E_, 4
	note D_, 2
	note E_, 2
	note D_, 2
	note E_, 2
	note D_, 4
	note D_, 4
	note A_, 2
	note A_, 2
	note F#, 4
	note G_, 2
	note G_, 2
	note E_, 4
	note D_, 2
	note E_, 2
	note D_, 2
	note C#, 2
	notetype 12, $b1
	octave 2
	note B_, 8
	notetype 12, $b2
	octave 3
	note A_, 2
	note A_, 2
	note F#, 4
	note G_, 2
	note G_, 2
	note E_, 4
	note D_, 2
	note E_, 2
	note D_, 2
	note E_, 2
	note D_, 4
	note D_, 4
	note A_, 2
	note A_, 2
	note F#, 4
	note G_, 2
	note G_, 2
	note E_, 4
	note D_, 2
	note E_, 2
	note D_, 2
	note C#, 2
	notetype 12, $b1
	octave 2
	note B_, 8
	notetype 12, $97
	octave 3
	note D_, 6
	octave 2
	note A_, 1
	octave 3
	note D_, 1
	note F#, 8
	notetype 12, $b0
	note F#, 6
	note E_, 1
	note F#, 1
	note A_, 8
	notetype 12, $97
	note E_, 6
	note C#, 1
	note E_, 1
	note G#, 8
	notetype 12, $b0
	note G#, 6
	note E_, 1
	note G#, 1
	note B_, 8
	notetype 12, $97
	note C#, 6
	octave 2
	note A_, 1
	octave 3
	note C#, 1
	note E_, 8
	notetype 12, $b0
	note E_, 6
	note C#, 1
	note E_, 1
	note E_, 4
	note G_, 4
	notetype 12, $90
	note F#, 8
	note E_, 8
	note D_, 8
	note C#, 8
	notetype 12, $97
	note D_, 6
	octave 2
	note A_, 1
	octave 3
	note D_, 1
	note F#, 8
	notetype 12, $b0
	note F#, 6
	note E_, 1
	note F#, 1
	note A_, 8
	notetype 12, $97
	note E_, 6
	note C#, 1
	note E_, 1
	note G#, 8
	notetype 12, $b0
	note G#, 6
	note E_, 1
	note G#, 1
	note B_, 8
	notetype 12, $97
	note C#, 6
	octave 2
	note A_, 1
	octave 3
	note C#, 1
	note E_, 8
	notetype 12, $b0
	note E_, 6
	note C#, 1
	note E_, 1
	note E_, 4
	note G_, 4
	notetype 12, $97
	note F#, 6
	note E_, 1
	note F#, 1
	note A_, 8
	notetype 12, $a7
	note G_, 8
	note E_, 8
	loopchannel 0, Music_DefeatedGymLeader_branch_23ccc


Music_DefeatedGymLeader_Ch1::
	dutycycle 2
	vibrato 24, $24
	notetype 12, $c4
	octave 4
	note A_, 6
	note F#, 1
	note A_, 1
	octave 5
	note D_, 6
	octave 4
	note A_, 1
	octave 5
	note D_, 1
	notetype 12, $b0
	note F#, 8
	notetype 12, $b7
	note F#, 8

Music_DefeatedGymLeader_branch_23d84::
	notetype 12, $c2
	octave 4
	note D_, 2
	note C#, 2
	octave 3
	note B_, 4
	octave 4
	note C#, 2
	octave 3
	note B_, 2
	note A_, 4
	note B_, 2
	note A_, 2
	note G_, 2
	note F#, 2
	notetype 12, $c4
	note A_, 4
	note A_, 4
	notetype 12, $c2
	octave 4
	note D_, 2
	note C#, 2
	octave 3
	note B_, 4
	octave 4
	note C#, 2
	octave 3
	note B_, 2
	note A_, 4
	note B_, 2
	note A_, 2
	note G_, 2
	note F#, 2
	notetype 12, $c1
	note D_, 6
	notetype 6, $c2
	note G_, 1
	note A_, 1
	note B_, 1
	octave 4
	note C#, 1
	notetype 12, $c2
	note D_, 2
	note C#, 2
	octave 3
	note B_, 4
	octave 4
	note C#, 2
	octave 3
	note B_, 2
	note A_, 4
	note B_, 2
	note A_, 2
	note G_, 2
	note F#, 2
	notetype 12, $c4
	note A_, 4
	note A_, 3
	notetype 6, $c2
	note B_, 1
	octave 4
	note C#, 1
	notetype 12, $c2
	note D_, 2
	note C#, 2
	octave 3
	note B_, 4
	octave 4
	note C#, 2
	octave 3
	note B_, 2
	note A_, 4
	note B_, 2
	note A_, 2
	note G_, 2
	note F#, 2
	notetype 12, $c1
	note D_, 8
	notetype 12, $c7
	note A_, 6
	note F#, 1
	note A_, 1
	notetype 12, $b0
	octave 4
	note D_, 8
	notetype 12, $a0
	note D_, 8
	notetype 12, $97
	note D_, 8
	notetype 12, $c7
	octave 3
	note B_, 6
	note G#, 1
	note B_, 1
	notetype 12, $80
	octave 4
	note E_, 8
	notetype 12, $a0
	note E_, 8
	notetype 12, $c7
	note E_, 8
	octave 3
	note G_, 6
	note E_, 1
	note G_, 1
	notetype 12, $6f
	octave 4
	note C#, 8
	notetype 12, $c7
	note C#, 8
	note F#, 4
	note E_, 4
	notetype 12, $b0
	note D_, 14
	octave 3
	note B_, 2
	notetype 12, $a0
	note A_, 8
	notetype 12, $b7
	note A_, 8
	notetype 12, $c7
	note A_, 6
	note F#, 1
	note A_, 1
	notetype 12, $b0
	octave 4
	note D_, 8
	notetype 12, $a0
	note D_, 8
	notetype 12, $97
	note D_, 8
	notetype 12, $c7
	octave 3
	note B_, 6
	note G#, 1
	note B_, 1
	notetype 12, $4f
	octave 4
	note E_, 8
	notetype 12, $b0
	note E_, 8
	notetype 12, $c7
	note E_, 8
	octave 3
	note G_, 6
	note E_, 1
	note G_, 1
	notetype 12, $b0
	octave 4
	note C#, 8
	notetype 12, $b7
	note C#, 8
	octave 3
	note A_, 4
	octave 4
	note C#, 4
	notetype 12, $b0
	note D_, 14
	note E_, 2
	note D_, 12
	notetype 12, $c2
	octave 3
	note G_, 1
	note A_, 1
	note B_, 1
	octave 4
	note C#, 1
	loopchannel 0, Music_DefeatedGymLeader_branch_23d84


Music_DefeatedGymLeader_Ch2::
	notetype 12, $10
	vibrato 16, $12
	octave 4
	note F#, 6
	note D_, 1
	note F#, 1
	note A_, 6
	note F#, 1
	note A_, 1
	octave 5
	note D_, 6
	octave 4
	note A_, 1
	octave 5
	note D_, 1
	note F#, 8

Music_DefeatedGymLeader_branch_23e65::
	octave 4
	note F#, 1
	note __, 1
	note F#, 1
	note __, 1
	note F#, 1
	note __, 3
	note G_, 1
	note __, 1
	note G_, 1
	note __, 1
	note G_, 1
	note __, 3
	note A_, 1
	note __, 1
	note A_, 1
	note __, 1
	note A_, 1
	note __, 1
	note G_, 1
	note __, 1
	note F#, 3
	note __, 1
	note F#, 3
	note __, 1
	note F#, 1
	note __, 1
	note F#, 1
	note __, 1
	note F#, 1
	note __, 3
	note G_, 1
	note __, 1
	note G_, 1
	note __, 1
	note E_, 1
	note __, 1
	note E_, 1
	note __, 1
	note F#, 1
	note __, 1
	note F#, 1
	note __, 1
	note E_, 1
	note __, 1
	note E_, 1
	note __, 1
	note D_, 1
	note __, 5
	note D_, 1
	note __, 1
	note F#, 1
	note __, 1
	note D_, 1
	note __, 1
	note F#, 1
	note __, 1
	note D_, 1
	note __, 1
	note G_, 1
	note __, 1
	note D_, 1
	note __, 1
	note G_, 1
	note __, 1
	note D_, 1
	note __, 1
	note A_, 1
	note __, 1
	note D_, 1
	note __, 1
	note A_, 1
	note __, 1
	note D_, 1
	note __, 1
	note G_, 3
	note __, 1
	note D_, 3
	note __, 1
	note F#, 1
	note __, 1
	note D_, 1
	note __, 1
	note F#, 1
	note __, 1
	note D_, 1
	note __, 1
	note G_, 1
	note __, 1
	note D_, 1
	note __, 1
	note G_, 1
	note __, 1
	note D_, 1
	note __, 1
	note A_, 1
	note __, 1
	note D_, 1
	note __, 1
	note G_, 1
	note __, 1
	note D_, 1
	note __, 1
	note F#, 1
	note __, 7
	note D_, 2
	note A_, 2
	note D_, 2
	note A_, 2
	note D_, 2
	note A_, 2
	note D_, 2
	note A_, 2
	note D_, 2
	note A_, 2
	note D_, 2
	note A_, 2
	note G#, 2
	note F#, 2
	note E_, 2
	note D#, 2
	note E_, 2
	note B_, 2
	note E_, 2
	note B_, 2
	note E_, 2
	note B_, 2
	note E_, 2
	note B_, 2
	note E_, 2
	note B_, 2
	note E_, 2
	note B_, 2
	note E_, 2
	note B_, 2
	note E_, 2
	note B_, 2
	note C#, 2
	note A_, 2
	note C#, 2
	note A_, 2
	note C#, 2
	note A_, 2
	note C#, 2
	note A_, 2
	note C#, 2
	note A_, 2
	note C#, 2
	note A_, 2
	note C#, 2
	note A_, 2
	note C#, 2
	note A_, 2
	note D_, 2
	note A_, 2
	note D_, 2
	note A_, 2
	note D_, 2
	note A_, 2
	note D_, 2
	note A_, 2
	note D_, 2
	note A_, 2
	note D_, 2
	note A_, 2
	note D_, 2
	note C#, 2
	note D_, 2
	note E_, 2
	note D_, 2
	note A_, 2
	note D_, 2
	note A_, 2
	note D_, 2
	note A_, 2
	note D_, 2
	note A_, 2
	note D_, 2
	note A_, 2
	note D_, 2
	note A_, 2
	note G#, 2
	note F#, 2
	note E_, 2
	note D#, 2
	note E_, 2
	note B_, 2
	note E_, 2
	note B_, 2
	note E_, 2
	note B_, 2
	note E_, 2
	note B_, 2
	note E_, 2
	note B_, 2
	note E_, 2
	note B_, 2
	note E_, 2
	note B_, 2
	note E_, 2
	note B_, 2
	note C#, 2
	note A_, 2
	note C#, 2
	note A_, 2
	note C#, 2
	note A_, 2
	note C#, 2
	note A_, 2
	note C#, 2
	note A_, 2
	note C#, 2
	note A_, 2
	note C#, 2
	note A_, 2
	note C#, 2
	note A_, 2
	note D_, 2
	note A_, 2
	note D_, 2
	note A_, 2
	note D_, 2
	note A_, 2
	note D_, 2
	note A_, 2
	note D_, 2
	note A_, 2
	note D_, 2
	note A_, 2
	note G_, 2
	note A_, 2
	note G_, 2
	note E_, 2
	loopchannel 0, Music_DefeatedGymLeader_branch_23e65
