Music_DefeatedWildMon::
	musicheader 3, 1, Music_DefeatedWildMon_Ch0
	musicheader 1, 2, Music_DefeatedWildMon_Ch1
	musicheader 1, 3, Music_DefeatedWildMon_Ch2

Music_DefeatedWildMon_Ch0::
	tempo 112
	volume $77
	;executemusic
	dutycycle 3
	vibrato 6, $34
	;toggleperfectpitch
	tempo 112
	notetype 12, $b7
	octave 3
	note B_, 1
	note A_, 1
	note G#, 1
	note F#, 1
	note E_, 12

Music_DefeatedWildMon_branch_23b8b::
	notetype 12, $62
	note E_, 2
	note F#, 2
	note E_, 2
	note F#, 2
	note G#, 2
	note G#, 2
	note G#, 4
	note A_, 2
	note A_, 2
	note A_, 4
	note G#, 2
	note G#, 2
	note G#, 4
	note E_, 2
	note F#, 2
	note E_, 2
	note F#, 2
	note G#, 2
	note G#, 2
	note G#, 4
	note A_, 2
	note A_, 2
	note A_, 4
	note G#, 8
	note F_, 2
	note G_, 2
	note F_, 2
	note G_, 2
	note A_, 2
	note A_, 2
	note A_, 4
	note A#, 2
	note A#, 2
	note A#, 4
	note A_, 2
	note A_, 2
	note A_, 4
	note F_, 2
	note G_, 2
	note F_, 2
	note G_, 2
	note A_, 2
	note A_, 2
	note A_, 4
	note A#, 2
	note A#, 2
	note A#, 4
	note A_, 8
	loopchannel 0, Music_DefeatedWildMon_branch_23b8b


Music_DefeatedWildMon_Ch1::
	;executemusic
	dutycycle 2
	notetype 12, $c3
	octave 4
	note E_, 1
	note F#, 1
	note G#, 1
	note A_, 1
	notetype 12, $c7
	note B_, 12

Music_DefeatedWildMon_branch_23bce::
	notetype 12, $82
	octave 3
	note B_, 2
	note A_, 2
	note G#, 2
	note A_, 2
	note B_, 2
	note B_, 2
	note B_, 4
	octave 4
	note C#, 2
	note C#, 2
	note C#, 4
	octave 3
	note B_, 2
	note B_, 2
	note B_, 4
	note B_, 2
	note A_, 2
	note G#, 2
	note A_, 2
	note B_, 2
	note B_, 2
	note B_, 4
	octave 4
	note C#, 2
	note C#, 2
	note C#, 4
	octave 3
	note B_, 8
	octave 4
	note C_, 2
	octave 3
	note A#, 2
	note A_, 2
	note A#, 2
	octave 4
	note C_, 2
	note C_, 2
	note C_, 4
	note D_, 2
	note D_, 2
	note D_, 4
	note C_, 2
	note C_, 2
	note C_, 4
	note C_, 2
	octave 3
	note A#, 2
	note A_, 2
	note A#, 2
	octave 4
	note C_, 2
	note C_, 2
	note C_, 4
	note D_, 2
	note D_, 2
	note D_, 4
	note C_, 8
	loopchannel 0, Music_DefeatedWildMon_branch_23bce


Music_DefeatedWildMon_Ch2::
	;executemusic
	notetype 12, $20
	octave 5
	note E_, 1
	note __, 1
	octave 6
	note C#, 1
	note __, 1
	octave 5
	note B_, 1
	note __, 1
	octave 6
	note D#, 1
	note __, 1
	note E_, 1
	note __, 3
	note E_, 1
	note __, 3

Music_DefeatedWildMon_branch_23c21::
	octave 4
	note E_, 1
	note __, 1
	octave 5
	note E_, 1
	note __, 1
	octave 4
	note E_, 1
	note __, 1
	octave 5
	note E_, 1
	note __, 1
	octave 4
	note E_, 1
	note __, 3
	octave 5
	note E_, 1
	note __, 3
	octave 4
	note F#, 1
	note __, 1
	octave 5
	note F#, 1
	note __, 1
	octave 4
	note F#, 1
	note __, 3
	note F#, 1
	note __, 1
	octave 5
	note D#, 1
	note __, 1
	octave 4
	note F#, 1
	note __, 1
	note E_, 1
	note __, 1
	note E_, 1
	note __, 1
	octave 5
	note E_, 1
	note __, 1
	octave 4
	note E_, 1
	note __, 1
	octave 5
	note E_, 1
	note __, 1
	octave 4
	note E_, 1
	note __, 3
	octave 5
	note E_, 1
	note __, 3
	octave 4
	note F#, 1
	note __, 1
	octave 5
	note F#, 1
	note __, 1
	octave 4
	note F#, 1
	note __, 3
	octave 5
	note E_, 1
	note __, 3
	octave 4
	note D#, 4
	octave 4
	note F_, 1
	note __, 1
	octave 5
	note F_, 1
	note __, 1
	octave 4
	note F_, 1
	note __, 1
	octave 5
	note F_, 1
	note __, 1
	octave 4
	note F_, 1
	note __, 3
	octave 5
	note F_, 1
	note __, 3
	octave 4
	note G_, 1
	note __, 1
	octave 5
	note G_, 1
	note __, 1
	octave 4
	note G_, 1
	note __, 3
	note F_, 1
	note __, 1
	octave 5
	note F_, 1
	note __, 1
	octave 4
	note F_, 1
	note __, 1
	note F_, 1
	note __, 1
	note F_, 1
	note __, 1
	octave 5
	note F_, 1
	note __, 1
	octave 4
	note F_, 1
	note __, 1
	octave 5
	note F_, 1
	note __, 1
	octave 4
	note F_, 1
	note __, 3
	octave 5
	note F_, 1
	note __, 3
	octave 4
	note G_, 1
	note __, 1
	octave 5
	note G_, 1
	note __, 1
	octave 4
	note G_, 1
	note __, 3
	octave 5
	note F_, 1
	note __, 3
	octave 4
	note D#, 4
	loopchannel 0, Music_DefeatedWildMon_branch_23c21
