Music_DefeatedTrainer:
	dbw $80, Music_DefeatedTrainer_Ch1
	dbw $01, Music_DefeatedTrainer_Ch2
	dbw $02, Music_DefeatedTrainer_Ch3

Music_DefeatedTrainer_Ch1: ; 23a53 (8:7a53)
	ftempo 224
	volume 119
	dutycycle 2
	notetype 4, 162
	octave 4
	note D_, 2
	notetype 4, 162
	note D_, 2
	note D_, 2
	note D_, 2
	octave 3
	note A_, 2
	octave 4
	note D_, 2
	notetype 4, 179
	note F#, 12
	dutycycle 1

Music_DefeatedTrainer_branch_23a76:
	notetype 4, 99
	octave 3
	note A_, 6
	note F#, 3
	note A_, 3
	note B_, 6
	note G#, 3
	note B_, 3
	octave 4
	note C#, 3
	octave 3
	note B_, 3
	note A_, 3
	note G_, 3
	note A_, 3
	note B_, 3
	note A_, 3
	note G_, 3
	note A_, 6
	note F#, 3
	note A_, 3
	note B_, 6
	note G#, 3
	note B_, 3
	octave 4
	note C#, 3
	note D_, 3
	note E_, 3
	note F#, 3
	note C#, 3
	octave 3
	note B_, 3
	note A_, 3
	octave 4
	note C#, 3
	octave 3
	note A_, 6
	note F#, 3
	note A_, 3
	note B_, 6
	note G#, 3
	note B_, 3
	octave 4
	note C_, 6
	octave 3
	note A_, 3
	octave 4
	note C_, 3
	note D_, 3
	octave 3
	note B_, 3
	octave 4
	note D_, 6
	note C#, 3
	octave 3
	note B_, 3
	note A_, 3
	note G_, 3
	note F#, 3
	note G_, 3
	note A_, 3
	note B_, 3
	note A_, 3
	note G_, 3
	note F#, 3
	note E_, 3
	note F#, 3
	note G_, 3
	note A_, 3
	note B_, 3
	loopchannel 0, Music_DefeatedTrainer_branch_23a76


Music_DefeatedTrainer_Ch2: ; 23ac1 (8:7ac1)
	dutycycle 2
	notetype 4, 195
	octave 4
	note A_, 2
	notetype 4, 195
	note A_, 2
	note A_, 2
	note A_, 2
	note B_, 2
	octave 5
	note C#, 2
	notetype 4, 196
	note D_, 12

Music_DefeatedTrainer_branch_23ad2:
	notetype 4, 133
	octave 4
	note D_, 6
	octave 3
	note A_, 3
	octave 4
	note D_, 3
	note E_, 6
	octave 3
	note B_, 3
	octave 4
	note E_, 3
	note F#, 3
	note G_, 3
	note A_, 6
	note E_, 3
	note F#, 3
	note G_, 6
	note D_, 6
	octave 3
	note A_, 3
	octave 4
	note D_, 3
	note E_, 6
	octave 3
	note B_, 3
	octave 4
	note E_, 3
	note F#, 3
	note G_, 3
	note A_, 6
	note F#, 3
	note G_, 3
	note A_, 6
	note D_, 6
	octave 3
	note A_, 3
	octave 4
	note D_, 3
	note E_, 6
	octave 3
	note B_, 3
	octave 4
	note E_, 3
	note F_, 6
	note C_, 3
	note F_, 3
	note G_, 3
	note D_, 3
	note G_, 6
	notetype 4, 112
	note F#, 12
	notetype 4, 119
	note F#, 12
	notetype 4, 96
	note E_, 12
	notetype 4, 103
	note E_, 12
	loopchannel 0, Music_DefeatedTrainer_branch_23ad2


Music_DefeatedTrainer_Ch3: ; 23b15 (8:7b15)
	notetype 4, 16
	octave 5
	note D_, 2
	notetype 4, 16
	note D_, 2
	note D_, 2
	octave 4
	note B_, 2
	note A_, 2
	note G_, 2
	note A_, 12
	notetype 4, 33

Music_DefeatedTrainer_branch_23b24:
	note F#, 3
	note __, 3
	note F#, 3
	note __, 3
	note G#, 3
	note __, 3
	note G#, 3
	note __, 3
	note A_, 3
	note __, 3
	note A_, 3
	note __, 3
	note B_, 3
	note __, 3
	note B_, 3
	note __, 3
	note F#, 3
	note __, 3
	note F#, 3
	note __, 3
	note G#, 3
	note __, 3
	note G#, 3
	note __, 3
	note A_, 3
	note __, 3
	note A_, 3
	note __, 3
	octave 5
	note C#, 3
	note __, 3
	note C#, 3
	octave 4
	note A_, 3
	note F#, 3
	octave 5
	note D_, 3
	octave 4
	note F#, 3
	note __, 3
	note G#, 3
	octave 5
	note E_, 3
	octave 4
	note G#, 3
	note __, 3
	note A_, 3
	octave 5
	note F_, 3
	octave 4
	note A_, 3
	note __, 3
	note B_, 3
	octave 5
	note G_, 3
	octave 4
	note B_, 3
	note A#, 3
	note A_, 3
	note __, 3
	note A_, 3
	note __, 3
	note A_, 3
	note __, 3
	note A_, 3
	octave 5
	note C_, 3
	note C#, 3
	note __, 3
	note C#, 3
	note __, 3
	note C#, 3
	note __, 3
	note C#, 3
	octave 4
	note A_, 3
	loopchannel 0, Music_DefeatedTrainer_branch_23b24
; 0x23b74