Music_Dungeon3::
	channel_count 4
	channel 1, Music_Dungeon3_Ch1
	channel 2, Music_Dungeon3_Ch2
	channel 3, Music_Dungeon3_Ch3
	channel 4, Music_Dungeon3_Ch4

Music_Dungeon3_Ch1::
	tempo 160
	volume 7, 7
	duty_cycle 3
	toggle_perfect_pitch
	vibrato 8, 1, 4

Music_Dungeon3_branch_7e9fc::
	note_type 12, 12, 3

Music_Dungeon3_branch_7e9fe::
	sound_call Music_Dungeon3_branch_7eab2
	sound_loop 3, Music_Dungeon3_branch_7e9fe
	octave 2
	note B_, 2
	octave 3
	note D#, 2
	note G_, 2
	octave 2
	note B_, 2
	octave 3
	note D#, 2
	note G_, 2
	note D#, 2
	note E_, 2

Music_Dungeon3_branch_7ea11::
	sound_call Music_Dungeon3_branch_7eac1
	sound_loop 4, Music_Dungeon3_branch_7ea11

Music_Dungeon3_branch_7ea18::
	sound_call Music_Dungeon3_branch_7eab2
	sound_loop 4, Music_Dungeon3_branch_7ea18
	octave 4
	note F_, 2
	note F_, 2
	rest 2
	note F_, 2
	note E_, 2
	note E_, 2
	note D#, 2
	note D#, 2
	rest 2
	note D#, 2
	note D_, 2
	note D_, 2
	sound_call Music_Dungeon3_branch_7eafc
	octave 4
	note D_, 2
	note D_, 2
	rest 2
	note D_, 2
	note D#, 2
	note D#, 2
	note E_, 2
	note E_, 2
	rest 2
	note E_, 2
	note F_, 2
	note F_, 2

Music_Dungeon3_branch_7ea3c::
	sound_call Music_Dungeon3_branch_7eace
	sound_loop 4, Music_Dungeon3_branch_7ea3c

Music_Dungeon3_branch_7ea43::
	sound_call Music_Dungeon3_branch_7eadd
	sound_loop 3, Music_Dungeon3_branch_7ea43
	octave 3
	note C#, 2
	octave 2
	note A_, 2
	note F_, 2
	octave 3
	note C#, 2
	octave 2
	note A_, 2
	note F_, 2
	octave 3
	note A_, 2
	note F_, 2
	octave 4
	note C#, 2
	octave 3
	note A_, 2
	note F_, 2
	octave 4
	note C#, 2
	octave 3
	note A_, 2
	note F_, 2
	note A_, 2
	note F_, 2
	octave 4
	note C#, 2
	octave 3
	note A_, 2
	note F_, 2
	octave 4
	note C#, 2
	octave 3
	note A_, 2
	note F_, 2
	octave 4
	note C#, 2
	octave 3
	note A_, 2
	note F_, 2
	octave 4
	note C#, 2
	octave 3
	note A_, 2
	note F_, 2
	octave 4
	note C#, 2
	octave 3
	note A_, 2
	note F_, 2
	octave 4
	note C#, 2
	octave 3
	note A_, 2
	note F_, 2
	note G#, 2
	note E_, 2
	octave 4
	note C_, 2
	octave 3
	note G#, 2
	note E_, 2
	octave 4
	note C_, 2
	sound_call Music_Dungeon3_branch_7eaea
	sound_call Music_Dungeon3_branch_7eaea
	octave 3
	note G#, 2
	note E_, 2
	octave 4
	note C_, 2
	octave 3
	note G#, 2
	note E_, 2
	octave 4
	note C_, 2
	octave 3
	note G#, 2
	note E_, 2
	rest 16
	rest 8
	sound_call Music_Dungeon3_branch_7eaf7
	sound_call Music_Dungeon3_branch_7eaf7
	sound_call Music_Dungeon3_branch_7eaf7
	sound_call Music_Dungeon3_branch_7eaf7
	note D#, 2
	rest 16
	rest 16
	sound_loop 0, Music_Dungeon3_branch_7e9fc

Music_Dungeon3_branch_7eab2::
	octave 2
	note B_, 2
	octave 3
	note D#, 2
	note G_, 2
	octave 2
	note B_, 2
	octave 3
	note D#, 2
	note G_, 2
	octave 2
	note B_, 2
	octave 3
	note D#, 2
	sound_ret

Music_Dungeon3_branch_7eac1::
	note E_, 2
	note G#, 2
	octave 4
	note C_, 2
	octave 3
	note E_, 2
	note G#, 2
	octave 4
	note C_, 2
	octave 3
	note E_, 2
	note G#, 2
	sound_ret

Music_Dungeon3_branch_7eace::
	octave 3
	note D#, 2
	octave 2
	note B_, 2
	octave 3
	note G_, 2
	note D#, 2
	octave 2
	note B_, 2
	octave 3
	note G_, 2
	note D#, 2
	octave 2
	note B_, 2
	sound_ret

Music_Dungeon3_branch_7eadd::
	note A_, 2
	note F_, 2
	octave 3
	note C#, 2
	octave 2
	note A_, 2
	note F_, 2
	octave 3
	note C#, 2
	octave 2
	note A_, 2
	note F_, 2
	sound_ret

Music_Dungeon3_branch_7eaea::
	octave 3
	note G#, 2
	note E_, 2
	note G#, 2
	note E_, 2
	octave 4
	note C_, 2
	octave 3
	note G#, 2
	note E_, 2
	octave 4
	note C_, 2
	sound_ret

Music_Dungeon3_branch_7eaf7::
	note D#, 2
	note G_, 2
	note D#, 2
	note C#, 6
	sound_ret

Music_Dungeon3_branch_7eafc::
	tempo 168
	octave 1
	note A#, 1
	note B_, 1
	octave 2
	note C_, 1
	note C#, 1
	note D_, 1
	note D#, 1
	note E_, 1
	note F_, 1
	tempo 176
	octave 1
	note A#, 1
	note B_, 1
	octave 2
	note C_, 1
	note C#, 1
	note D_, 1
	note D#, 1
	note E_, 1
	note F_, 1
	tempo 184
	octave 1
	note A#, 1
	note B_, 1
	octave 2
	note C_, 1
	note C#, 1
	note D_, 1
	note D#, 1
	note E_, 1
	note F_, 1
	tempo 192
	octave 1
	note A_, 1
	note A#, 1
	note B_, 1
	octave 2
	note C_, 1
	note C#, 1
	note D_, 1
	note D#, 1
	note E_, 1
	tempo 200
	octave 1
	note G#, 1
	note A_, 1
	note A#, 1
	note B_, 1
	octave 2
	note C_, 1
	note C#, 1
	note D_, 1
	note D#, 1
	tempo 208
	octave 1
	note G_, 1
	note G#, 1
	note A_, 1
	note A#, 1
	note B_, 1
	octave 2
	note C_, 1
	note C#, 1
	note D_, 1
	tempo 216
	octave 1
	note F#, 1
	note G_, 1
	note G#, 1
	note A_, 1
	note A#, 1
	note B_, 1
	octave 2
	note C_, 1
	note C#, 1
	tempo 224
	octave 1
	note F_, 1
	note F#, 1
	note G_, 1
	note G#, 1
	note A_, 1
	note A#, 1
	note B_, 1
	octave 2
	note C_, 1
	tempo 160
	sound_ret


Music_Dungeon3_Ch2::
	vibrato 11, 1, 5
	duty_cycle 3

Music_Dungeon3_branch_7eb6d::
	note_type 12, 13, 3
	octave 4
	note D#, 6
	note C#, 6
	octave 3
	note B_, 2
	octave 4
	note C#, 2
	note D#, 2
	note G_, 2
	note D#, 2
	note C#, 6
	octave 3
	note B_, 2
	octave 4
	note C#, 2
	note D#, 2
	note G_, 2
	note D#, 2
	note C#, 6
	octave 3
	note B_, 2
	note A#, 2
	note B_, 6
	octave 4
	note C#, 8
	rest 2
	note G#, 6
	note F#, 6
	note E_, 2
	note F#, 2
	note G#, 2
	octave 5
	note C_, 2
	octave 4
	note G#, 2
	note F#, 6
	note E_, 2
	note F#, 2
	note G#, 2
	octave 5
	note C_, 2
	octave 4
	note G#, 2
	note F#, 6
	note E_, 2
	note D#, 2
	note E_, 6
	note F#, 6
	note E_, 4
	note D#, 6
	note C#, 6
	octave 3
	note B_, 2
	octave 4
	note C#, 2
	note D#, 2
	note G_, 2
	note D#, 2
	note C#, 6
	octave 3
	note B_, 2
	octave 4
	note C#, 2
	note D#, 2
	note G_, 2
	note D#, 2
	note C#, 6
	octave 3
	note B_, 2
	note A#, 2
	note B_, 6
	octave 4
	note C#, 8
	rest 2
	note G#, 2
	note G#, 2
	rest 2
	note G#, 2
	note A_, 2
	note A_, 2
	note A#, 2
	note A#, 2
	rest 2
	note A#, 2
	note B_, 2
	note B_, 2
	rest 8
	rest 8
	rest 8
	rest 8
	rest 8
	rest 8
	rest 8
	rest 8
	octave 4
	note B_, 2
	note B_, 2
	rest 2
	note B_, 2
	note A#, 2
	note A#, 2
	note A_, 2
	note A_, 2
	rest 2
	note A_, 2
	note G#, 2
	note G#, 2
	note C#, 8
	rest 2
	octave 3
	note B_, 6
	note A#, 2
	note B_, 2
	octave 4
	note D#, 2
	note G_, 2
	note D#, 2
	note C#, 6
	octave 3
	note B_, 2
	octave 4
	note C#, 2
	note D#, 2
	note G_, 2
	note D#, 2
	note C#, 6
	octave 3
	note B_, 2
	octave 4
	note C#, 2
	note D#, 6
	note G_, 6
	octave 3
	note G_, 8
	rest 2
	note F_, 6
	note E_, 2
	note F_, 2
	note A_, 2
	octave 4
	note C#, 2
	octave 3
	note A_, 2
	note G_, 6
	note F_, 2
	note G_, 2
	note A_, 2
	octave 4
	note C#, 2
	octave 3
	note A_, 2
	note G_, 6
	note A_, 6
	octave 4
	note C#, 6
	note G_, 8
	rest 2
	note F_, 6
	note E_, 2
	note F_, 2
	note A_, 2
	octave 5
	note C#, 2
	octave 4
	note A_, 2
	note G_, 6
	note A_, 2
	octave 5
	note C#, 2
	octave 4
	note A_, 2
	note G_, 6
	note A_, 6
	octave 5
	note C#, 6
	octave 4
	note F#, 8
	rest 2
	note E_, 6
	note D#, 2
	note E_, 2
	note G#, 2
	octave 5
	note C_, 2
	octave 4
	note G#, 2
	note F#, 6
	note E_, 2
	note F#, 2
	note G#, 2
	octave 5
	note C_, 2
	octave 4
	note G#, 2
	note F#, 6
	note G#, 6
	octave 5
	note C_, 6
	octave 3
	note D#, 2
	note G_, 2
	note D#, 2
	note C#, 6
	note D#, 2
	note G_, 2
	note D#, 2
	note C#, 6
	octave 2
	note E_, 2
	note G#, 2
	octave 3
	note C_, 2
	note E_, 2
	note G#, 2
	octave 4
	note C_, 2
	note E_, 2
	note G#, 2
	note C_, 2
	note E_, 2
	note G#, 2
	note C_, 2
	note E_, 2
	note G#, 2
	note C_, 2
	note E_, 2
	note G#, 2
	note C_, 2
	note E_, 2
	note G#, 2
	note C_, 2
	note E_, 2
	note G#, 2
	note C_, 2
	note D#, 2
	octave 2
	note B_, 2
	octave 3
	note D#, 2
	note G_, 2
	octave 2
	note B_, 2
	octave 3
	note D#, 2
	note G_, 2
	octave 2
	note B_, 2
	octave 3
	note D#, 2
	octave 2
	note B_, 2
	octave 3
	note D#, 2
	note G_, 2
	octave 2
	note B_, 2
	octave 3
	note D#, 2
	note G_, 2
	octave 2
	note B_, 2
	octave 3
	note D#, 2
	sound_loop 0, Music_Dungeon3_branch_7eb6d


Music_Dungeon3_Ch3::
	note_type 12, 1, 2
	rest 16
	rest 16
	rest 16
	rest 16
	rest 16
	rest 16
	rest 16
	rest 16
	rest 16
	rest 16
	rest 16
	rest 12
	note_type 6, 1, 0
	octave 3
	note B_, 1
	octave 4
	note C_, 1
	note C#, 1
	note D_, 1
	note D#, 1
	note E_, 1
	rest 2
	note C_, 1
	note C#, 1
	note D_, 1
	note D#, 1
	note E_, 1
	note F_, 1
	rest 16
	rest 16
	rest 10
	octave 5
	note E_, 8
	octave 4
	note B_, 8
	octave 5
	note D#, 8
	octave 4
	note A#, 8
	octave 5
	note D_, 8
	octave 4
	note A_, 8
	octave 5
	note C#, 8
	octave 4
	note G#, 8
	octave 5
	note C_, 8
	octave 4
	note G_, 8
	note B_, 8
	note F#, 8
	note A#, 8
	note F_, 8
	note A_, 8
	note E_, 8
	rest 16
	rest 16
	rest 8
	note F_, 1
	note E_, 1
	note D#, 1
	note D_, 1
	note C#, 1
	note C_, 1
	rest 2
	note E_, 1
	note D#, 1
	note D_, 1
	note C#, 1
	note C_, 1
	octave 3
	note B_, 1
	rest 10
	rest 16
	note_type 12, 1, 0
	rest 16
	rest 16
	rest 16
	rest 16
	rest 16
	rest 16
	rest 16
	rest 16
	rest 16
	rest 16
	rest 16
	rest 16
	rest 16
	rest 16
	rest 16
	rest 16
	rest 16
	rest 16
	rest 16
	rest 16
	rest 10
	sound_loop 0, Music_Dungeon3_Ch3


Music_Dungeon3_Ch4::
	toggle_noise 0
	drum_speed 12
	rest 16
	rest 16
	rest 16
	rest 16
	rest 16
	rest 16
	rest 16
	rest 16
	rest 16
	rest 16
	rest 16
	rest 16
	rest 16
	rest 16
	rest 16
	rest 16
	rest 16
	rest 16
	rest 16
	rest 16
	rest 16
	rest 16
	rest 16
	rest 16
	rest 16
	rest 16
	rest 16
	rest 16
	rest 16
	rest 16
	rest 16
	rest 16
	rest 16
	rest 16
	rest 16
	rest 16
	rest 16
	rest 16
	rest 16
	rest 16
	rest 10
	sound_ret
