Music_RBYGym::
	musicheader 3, 1, Music_RBYGym_Ch0
	musicheader 1, 2, Music_RBYGym_Ch1
	musicheader 1, 3, Music_RBYGym_Ch2

Music_RBYGym_Ch0::
	tempo 138
	volume $77
	dutycycle 3
	vibrato 8, $22
	;toggleperfectpitch
	notetype 12, $b5
	octave 3
	note G_, 6
	note C_, 1
	note G_, 1
	note F_, 6
	octave 2
	note A#, 1
	octave 3
	note F_, 1
	note E_, 6
	octave 2
	note A_, 1
	octave 3
	note E_, 1
	note F_, 4
	note G_, 4

Music_RBYGym_branch_bcd8::
	note E_, 4
	note F_, 2
	note G_, 2
	note F_, 2
	note E_, 2
	note D_, 2
	note C_, 2
	notetype 12, $b1
	note D_, 3
	notetype 12, $b5
	note E_, 1
	note F_, 4
	note E_, 2
	note D_, 2
	note E_, 2
	note F_, 2
	note E_, 4
	note F_, 2
	note G_, 2
	note F_, 2
	note E_, 2
	note D_, 2
	note C_, 2
	note D_, 2
	note D_, 1
	note E_, 1
	note F_, 4
	note E_, 2
	note D_, 2
	note E_, 2
	note F_, 2
	octave 4
	note C_, 4
	octave 3
	note A#, 2
	octave 4
	note C_, 2
	octave 3
	note A#, 2
	note A_, 2
	note G_, 2
	note F_, 2
	notetype 12, $b1
	note A#, 3
	notetype 12, $b5
	note F_, 1
	note F_, 4
	note E_, 2
	note D_, 2
	note E_, 2
	note F_, 2
	octave 4
	note C_, 4
	octave 3
	note A#, 2
	octave 4
	note C_, 2
	octave 3
	note A#, 2
	note A_, 2
	note G_, 2
	note F_, 2
	note D_, 2
	note D_, 1
	note E_, 1
	note F_, 4
	note A#, 2
	note F_, 1
	note A#, 1
	octave 4
	note D_, 4
	octave 3
	note E_, 2
	note C_, 2
	note E_, 2
	note G_, 2
	note F_, 2
	note E_, 2
	note D_, 2
	note E_, 2
	note F_, 2
	note D_, 2
	note E_, 2
	note C_, 2
	note D_, 2
	note E_, 2
	note C_, 2
	note D_, 2
	note C_, 2
	note C_, 1
	note D_, 1
	note E_, 4
	note C_, 2
	note E_, 2
	note D_, 2
	note C_, 2
	note E_, 2
	note C_, 1
	note E_, 1
	note F_, 4
	note E_, 2
	note D_, 2
	note E_, 2
	note F_, 2
	note E_, 2
	note C_, 2
	note E_, 2
	note G_, 2
	note F_, 2
	note E_, 2
	note D_, 2
	note E_, 2
	note D_, 2
	note F_, 2
	note D_, 2
	note E_, 2
	note C_, 2
	note D_, 2
	note C_, 2
	note D_, 2
	note C_, 2
	note C_, 1
	note D_, 1
	note E_, 4
	note D_, 2
	note E_, 2
	note F_, 2
	note F_, 2
	note G_, 2
	note E_, 1
	note G_, 1
	note A#, 2
	octave 4
	note C_, 2
	octave 3
	note A#, 2
	note A_, 2
	note G_, 2
	note A_, 2
	loopchannel 0, Music_RBYGym_branch_bcd8


Music_RBYGym_Ch1::
	dutycycle 3
	vibrato 10, $25
	notetype 12, $c7
	octave 4
	note C_, 6
	octave 3
	note G_, 1
	octave 4
	note C_, 1
	octave 3
	note A#, 6
	note F_, 1
	note A#, 1
	notetype 12, $a0
	note A_, 12
	notetype 12, $c7
	note B_, 4

Music_RBYGym_branch_bd82::
	octave 4
	note C_, 12
	octave 3
	note G_, 2
	octave 4
	note C_, 2
	notetype 12, $c2
	note D_, 3
	octave 3
	note A#, 1
	notetype 12, $c7
	note A#, 12
	octave 4
	note C_, 12
	octave 3
	note G_, 2
	octave 4
	note C_, 2
	notetype 12, $c4
	octave 3
	note A#, 2
	notetype 12, $c7
	note A#, 1
	octave 4
	note C_, 1
	note D_, 12
	note E_, 12
	note D_, 2
	note E_, 2
	notetype 12, $c2
	note F_, 3
	note D_, 1
	notetype 12, $c7
	note D_, 4
	notetype 12, $c2
	note A#, 3
	note F_, 1
	notetype 12, $c7
	note F_, 4
	note E_, 12
	note D_, 2
	note E_, 2
	note F_, 2
	note D_, 1
	note F_, 1
	note A#, 12
	octave 3
	note G_, 6
	octave 4
	note C_, 6
	octave 3
	note G_, 4
	note A#, 4
	note A_, 4
	note G_, 4
	note F_, 4
	notetype 12, $c3
	note E_, 2
	notetype 12, $c7
	note E_, 1
	note F_, 1
	note G_, 6
	note G_, 2
	octave 4
	note C_, 2
	octave 3
	note G_, 2
	note A#, 4
	note A_, 4
	note G_, 4
	note C_, 2
	note D_, 2
	note G_, 6
	octave 4
	note C_, 6
	octave 3
	note G_, 4
	note A#, 4
	note A_, 4
	note G_, 4
	note F_, 4
	notetype 12, $c3
	note E_, 2
	notetype 12, $c7
	note E_, 1
	note F_, 1
	note G_, 4
	notetype 12, $c3
	note G_, 2
	notetype 12, $c7
	note G_, 1
	note A_, 1
	note A#, 4
	notetype 12, $c4
	octave 4
	note C_, 2
	notetype 12, $c7
	note C_, 1
	note D_, 1
	note E_, 12
	loopchannel 0, Music_RBYGym_branch_bd82


Music_RBYGym_Ch2::
	notetype 12, $11
	note __, 16
	note __, 10
	octave 4
	note G_, 2
	note F_, 2
	note D_, 2

Music_RBYGym_branch_be02::
	callchannel Music_RBYGym_branch_be3b
	callchannel Music_RBYGym_branch_be44
	callchannel Music_RBYGym_branch_be3b
	callchannel Music_RBYGym_branch_be44
	callchannel Music_RBYGym_branch_be3b
	callchannel Music_RBYGym_branch_be44
	callchannel Music_RBYGym_branch_be3b
	callchannel Music_RBYGym_branch_be44
	callchannel Music_RBYGym_branch_be3b
	callchannel Music_RBYGym_branch_be4d
	callchannel Music_RBYGym_branch_be3b
	callchannel Music_RBYGym_branch_be4d
	callchannel Music_RBYGym_branch_be3b
	callchannel Music_RBYGym_branch_be4d
	callchannel Music_RBYGym_branch_be3b
	note F_, 2
	note A#, 2
	note F_, 2
	note A#, 2
	note F_, 2
	note A#, 2
	note A_, 2
	note F_, 2
	loopchannel 0, Music_RBYGym_branch_be02

Music_RBYGym_branch_be3b::
	note E_, 2
	note G_, 2
	note E_, 2
	note G_, 2
	note E_, 2
	note G_, 2
	note E_, 2
	note G_, 2
	endchannel

Music_RBYGym_branch_be44::
	note D_, 2
	note F_, 2
	note D_, 2
	note F_, 2
	note D_, 2
	note F_, 2
	note D_, 2
	note F_, 2
	endchannel

Music_RBYGym_branch_be4d::
	note F_, 2
	note A#, 2
	note F_, 2
	note A#, 2
	note F_, 2
	note A#, 2
	note F_, 2
	note A#, 2
	endchannel
