Music_GymLeaderBattle::
	musicheader 3, 1, Music_GymLeaderBattle_Ch0
	musicheader 1, 2, Music_GymLeaderBattle_Ch1
	musicheader 1, 3, Music_GymLeaderBattle_Ch2

Music_GymLeaderBattle_Ch0::
	tempo 104
	volume $77
	dutycycle 3
	vibrato 8, $34
	;toggleperfectpitch
	notetype 12, $b3
	note __, 6
	octave 3
	note F#, 1
	note F_, 1
	note E_, 1
	note F_, 1
	note E_, 1
	note D#, 1
	note E_, 1
	note D#, 1
	note D_, 1
	note D#, 1
	note D_, 1
	note C#, 1
	note D_, 1
	note C#, 1
	note C_, 1
	note C#, 1
	note C_, 1
	octave 2
	note B_, 1
	octave 1
	note G#, 1
	note A_, 1
	note A#, 1
	note A_, 1
	note A#, 1
	note B_, 1
	note A#, 1
	note B_, 1
	octave 2
	note F#, 1
	note __, 15
	note F#, 1
	note __, 9
	note G_, 6
	note F#, 1
	note __, 15
	note F#, 1
	note __, 9
	note F_, 6
	note F#, 1
	note __, 15
	note F#, 1
	note __, 9
	note G_, 6
	note F#, 1
	note __, 15
	note F#, 1
	note __, 9
	note A_, 6

Music_GymLeaderBattle_branch_223b0::
	note F#, 1
	octave 3
	note C#, 1
	note F#, 1
	note E_, 1
	note C#, 1
	note F#, 1
	note E_, 1
	note C#, 1
	note F#, 1
	note E_, 1
	note C#, 1
	note F#, 1
	note E_, 1
	note C#, 1
	note F#, 1
	note E_, 1
	note C#, 1
	note F#, 1
	note E_, 1
	note C#, 1
	note F#, 1
	note E_, 1
	note C#, 1
	note F#, 1
	note E_, 1
	note C#, 1
	note F#, 1
	note E_, 1
	note C#, 1
	note F#, 1
	note E_, 1
	note C#, 1
	octave 2
	note E_, 1
	note A_, 1
	octave 3
	note C#, 1
	octave 2
	note B_, 1
	note A_, 1
	octave 3
	note C#, 1
	octave 2
	note B_, 1
	note A_, 1
	octave 3
	note C#, 1
	octave 2
	note B_, 1
	note A_, 1
	octave 3
	note C#, 1
	octave 2
	note B_, 1
	note A_, 1
	octave 3
	note C#, 1
	octave 2
	note B_, 1
	note A_, 1
	octave 3
	note C#, 1
	octave 2
	note B_, 1
	note A_, 1
	octave 3
	note C#, 1
	octave 2
	note B_, 1
	note A_, 1
	octave 3
	note C#, 1
	octave 2
	note B_, 1
	note A_, 1
	octave 3
	note C#, 1
	octave 2
	note B_, 1
	note A_, 1
	octave 3
	note C#, 1
	octave 2
	note B_, 1
	note A_, 1
	note F#, 1
	octave 3
	note C#, 1
	note F#, 1
	note E_, 1
	note C#, 1
	note F#, 1
	note E_, 1
	note C#, 1
	note F#, 1
	note E_, 1
	note C#, 1
	note F#, 1
	note E_, 1
	note C#, 1
	note F#, 1
	note E_, 1
	note C#, 1
	note F#, 1
	note E_, 1
	note C#, 1
	note F#, 1
	note E_, 1
	note C#, 1
	note F#, 1
	note E_, 1
	note C#, 1
	note F#, 1
	note E_, 1
	note C#, 1
	note F#, 1
	note E_, 1
	note C#, 1
	octave 2
	note E_, 1
	note A_, 1
	octave 3
	note C#, 1
	octave 2
	note B_, 1
	note A_, 1
	octave 3
	note C#, 1
	octave 2
	note B_, 1
	note A_, 1
	octave 3
	note C#, 1
	octave 2
	note B_, 1
	note A_, 1
	octave 3
	note C#, 1
	octave 2
	note B_, 1
	note A_, 1
	octave 3
	note C#, 1
	octave 2
	note B_, 1
	note A_, 1
	octave 3
	note C#, 1
	octave 2
	note B_, 1
	note A_, 1
	octave 3
	note C#, 1
	octave 2
	note B_, 1
	note A_, 1
	octave 3
	note C#, 1
	octave 2
	note B_, 1
	note A_, 1
	octave 3
	note C#, 1
	octave 2
	note B_, 1
	note A_, 1
	octave 3
	note C#, 1
	octave 2
	note B_, 1
	note A_, 1
	note __, 2
	octave 1
	note B_, 1
	note __, 1
	octave 2
	note D_, 4
	octave 1
	note B_, 1
	note __, 1
	note B_, 1
	note __, 1
	octave 2
	note E_, 4
	octave 1
	note B_, 1
	note __, 1
	note B_, 1
	note __, 1
	octave 2
	note D_, 4
	octave 1
	note B_, 1
	note __, 1
	octave 2
	note C#, 2
	octave 1
	note B_, 1
	note __, 1
	note B_, 1
	note __, 1
	octave 2
	note D_, 4
	octave 1
	note B_, 1
	note __, 1
	note B_, 1
	note __, 1
	octave 2
	note E_, 4
	octave 1
	note B_, 1
	note __, 1
	note B_, 1
	note __, 1
	octave 2
	note D_, 4
	octave 1
	note B_, 1
	note __, 1
	note B_, 1
	note __, 1
	octave 2
	note C#, 2
	octave 1
	note B_, 2
	note A_, 2
	octave 2
	note C#, 2
	octave 1
	note B_, 1
	note __, 1
	note B_, 1
	note __, 1
	octave 3
	note C_, 1
	octave 2
	note B_, 1
	note A_, 1
	note B_, 1
	octave 3
	note C_, 1
	octave 2
	note B_, 1
	note A_, 1
	note B_, 1
	octave 3
	note C_, 1
	octave 2
	note B_, 1
	note A_, 1
	note B_, 1
	octave 3
	note C_, 1
	octave 2
	note B_, 1
	note A_, 1
	note B_, 1
	octave 3
	note C_, 1
	octave 2
	note B_, 1
	note A_, 1
	note B_, 1
	octave 3
	note C_, 1
	octave 2
	note B_, 1
	note A_, 1
	note B_, 1
	octave 3
	note C_, 1
	octave 2
	note B_, 1
	note A_, 1
	note B_, 1
	octave 3
	note C_, 1
	octave 2
	note B_, 1
	note A_, 1
	note B_, 1
	octave 3
	note C_, 1
	octave 2
	note B_, 1
	note A_, 1
	note B_, 1
	octave 3
	note C_, 1
	octave 2
	note B_, 1
	note A_, 1
	note B_, 1
	octave 3
	note C_, 1
	octave 2
	note B_, 1
	note A_, 1
	note B_, 1
	note __, 16
	octave 1
	note B_, 1
	note __, 1
	note B_, 1
	note __, 1
	octave 3
	note C_, 1
	octave 2
	note B_, 1
	note A_, 1
	note B_, 1
	octave 3
	note C_, 1
	octave 2
	note B_, 1
	note A_, 1
	note B_, 1
	octave 3
	note C_, 1
	octave 2
	note B_, 1
	note A_, 1
	note B_, 1
	octave 3
	note C_, 1
	octave 2
	note B_, 1
	note A_, 1
	note B_, 1
	octave 3
	note C_, 1
	octave 2
	note B_, 1
	note A_, 1
	note B_, 1
	octave 3
	note C_, 1
	octave 2
	note B_, 1
	note A_, 1
	note B_, 1
	octave 3
	note C_, 1
	octave 2
	note B_, 1
	note A_, 1
	note B_, 1
	octave 3
	note C_, 1
	octave 2
	note B_, 1
	note A_, 1
	note B_, 1
	octave 3
	note C_, 1
	octave 2
	note B_, 1
	note A_, 1
	note B_, 1
	octave 3
	note C_, 1
	octave 2
	note B_, 1
	note A_, 1
	note B_, 1
	octave 3
	note C_, 1
	octave 2
	note B_, 1
	note A_, 1
	note B_, 1
	octave 3
	note C_, 1
	octave 2
	note B_, 1
	note A_, 1
	note B_, 1
	octave 3
	note C_, 1
	octave 2
	note B_, 1
	note A_, 1
	note B_, 1
	octave 3
	note C_, 1
	octave 2
	note B_, 1
	note A_, 1
	note B_, 1
	octave 3
	note C_, 1
	octave 2
	note B_, 1
	note A_, 1
	note B_, 1
	octave 1
	note A_, 1
	note __, 1
	note A_, 1
	note __, 1
	notetype 12, $b5
	octave 3
	note C#, 12
	notetype 12, $b3
	octave 1
	note A_, 1
	note __, 1
	note A_, 1
	note __, 1
	notetype 12, $b5
	octave 3
	note A_, 12
	notetype 12, $b3
	note D#, 4
	note C#, 4
	note D#, 4
	note E_, 2
	note F#, 4
	octave 2
	note B_, 2
	octave 3
	note C#, 2
	note F#, 2
	note B_, 2
	note F#, 2
	note D#, 2
	note F#, 2
	octave 1
	note A_, 1
	note __, 1
	note A_, 1
	note __, 1
	notetype 12, $b5
	octave 3
	note A_, 12
	notetype 12, $b3
	note C#, 1
	octave 2
	note B_, 1
	octave 3
	note C#, 1
	note D#, 1
	note E_, 1
	note D#, 1
	note E_, 1
	note F#, 1
	note A_, 1
	note G#, 1
	note F#, 1
	note E_, 1
	note F#, 1
	note E_, 1
	note D#, 1
	note C#, 1
	notetype 12, $b5
	note D#, 4
	note E_, 4
	note C#, 2
	note D#, 6
	note F#, 4
	note E_, 2
	note D#, 4
	note C#, 6
	note __, 16
	note __, 10
	note E_, 6
	note D#, 4
	note E_, 4
	note C#, 2
	note D#, 6
	note E_, 4
	note D#, 2
	note C#, 4
	octave 2
	note B_, 6
	octave 3
	note D#, 4
	note E_, 4
	note C#, 2
	note D#, 6
	note F#, 4
	note A_, 2
	note G#, 4
	note E_, 6
	loopchannel 0, Music_GymLeaderBattle_branch_223b0


Music_GymLeaderBattle_Ch1::
	dutycycle 3
	vibrato 8, $25
	notetype 12, $c3
	octave 4
	note F_, 1
	note E_, 1
	note D#, 1
	note E_, 1
	note D#, 1
	note D_, 1
	note D#, 1
	note D_, 1
	note C#, 1
	note D_, 1
	note C#, 1
	note C_, 1
	octave 3
	note B_, 1
	note __, 5
	note F#, 1
	note F_, 1
	note E_, 1
	note F_, 1
	note E_, 1
	note D#, 1
	note E_, 1
	note D#, 1
	note D_, 1
	note D#, 1
	note D_, 1
	note C#, 1
	note D_, 1
	note C#, 1
	note B_, 1
	note __, 15
	note B_, 1
	note __, 9
	octave 4
	note C_, 6
	octave 3
	note B_, 1
	note __, 15
	note B_, 1
	note __, 9
	note A#, 6
	octave 3
	note B_, 1
	note __, 15
	note B_, 1
	note __, 9
	octave 4
	note C_, 6
	octave 3
	note B_, 1
	note __, 15
	note B_, 1
	note __, 9
	octave 4
	note C#, 6

Music_GymLeaderBattle_branch_225e0::
	notetype 12, $c5
	note D#, 4
	note C#, 4
	note D#, 4
	note E_, 2
	note F#, 4
	note E_, 4
	note D#, 2
	note C#, 2
	octave 3
	note B_, 2
	octave 4
	note C#, 2
	note D#, 2
	notetype 12, $b7
	dutycycle 2
	octave 3
	note A_, 8
	octave 4
	note C#, 8
	note E_, 8
	note C#, 8
	notetype 12, $c5
	dutycycle 3
	note D#, 4
	note C#, 4
	note D#, 4
	note E_, 2
	note F#, 4
	note E_, 4
	note D#, 2
	note C#, 2
	octave 3
	note B_, 2
	octave 4
	note C#, 2
	note D#, 2
	notetype 12, $b7
	dutycycle 2
	note C#, 8
	octave 3
	note B_, 8
	note A_, 8
	notetype 12, $c3
	octave 4
	note E_, 4
	note E_, 2
	note C#, 2
	notetype 12, $c5
	dutycycle 3
	octave 1
	note B_, 1
	note __, 3
	octave 3
	note D_, 1
	note C#, 1
	octave 2
	note B_, 1
	octave 3
	note D_, 1
	note __, 4
	note E_, 1
	note D_, 1
	octave 2
	note B_, 1
	octave 3
	note E_, 1
	note __, 4
	note F#, 1
	note E_, 1
	note C#, 1
	note F#, 1
	note __, 2
	note E_, 1
	note C#, 1
	note E_, 1
	note __, 1
	note F_, 1
	note __, 1
	note D_, 1
	note C#, 1
	octave 2
	note B_, 1
	octave 3
	note D_, 1
	note __, 4
	note E_, 1
	note D_, 1
	octave 2
	note B_, 1
	octave 3
	note E_, 1
	note __, 4
	note F#, 1
	note E_, 1
	note C#, 1
	note F#, 1
	note E_, 1
	note __, 1
	note C#, 1
	note __, 1
	note D_, 1
	note __, 1
	note C#, 1
	note __, 1
	note F#, 1
	note __, 1
	note E_, 1
	note __, 1
	octave 1
	note B_, 1
	note __, 1
	note B_, 1
	note __, 1
	notetype 12, $b0
	octave 3
	note B_, 4
	octave 4
	note C_, 4
	octave 3
	note A_, 4
	note B_, 4
	octave 4
	note C_, 4
	octave 3
	note A_, 4
	note G_, 4
	notetype 12, $b0
	note F#, 8
	notetype 12, $b7
	note F#, 8
	notetype 12, $c3
	note C_, 1
	note C#, 1
	note D_, 1
	note D#, 1
	note E_, 1
	note D#, 1
	note D_, 1
	note C#, 1
	note C_, 1
	octave 2
	note B_, 1
	note A_, 1
	note G_, 1
	note F#, 1
	note F_, 1
	note E_, 1
	note F_, 1
	note F#, 1
	note G_, 1
	note A_, 1
	note B_, 1
	notetype 12, $b0
	octave 3
	note B_, 4
	octave 4
	note C_, 4
	octave 3
	note A_, 4
	note B_, 4
	octave 4
	note C_, 4
	octave 3
	note A_, 4
	octave 4
	note C_, 4
	notetype 12, $b0
	octave 3
	note B_, 16
	notetype 12, $3f
	octave 4
	note F#, 16
	notetype 12, $c3
	dutycycle 3
	octave 1
	note A_, 1
	note __, 1
	note A_, 1
	note __, 1
	notetype 12, $c7
	octave 3
	note A_, 12
	notetype 12, $c3
	octave 1
	note A_, 1
	note __, 1
	note A_, 1
	note __, 1
	notetype 12, $c7
	octave 4
	note C#, 12
	notetype 12, $b0
	note D#, 16
	notetype 12, $b7
	note D#, 16
	notetype 12, $c3
	octave 1
	note A_, 1
	note __, 1
	note A_, 1
	note __, 1
	notetype 12, $c7
	octave 4
	note C#, 12
	notetype 12, $c0
	note A_, 8
	note E_, 8
	note B_, 16
	notetype 12, $c7
	note B_, 16
	notetype 12, $c4
	octave 3
	note D#, 4
	note E_, 4
	note C#, 2
	note D#, 6
	note F#, 4
	note A_, 2
	note G#, 4
	note __, 2
	note B_, 1
	octave 4
	note D#, 1
	note F#, 1
	note A#, 1
	notetype 12, $c0
	note B_, 16
	note F#, 16
	note A_, 16
	octave 5
	note C#, 8
	note __, 2
	notetype 12, $c3
	octave 4
	note A_, 6
	loopchannel 0, Music_GymLeaderBattle_branch_225e0


Music_GymLeaderBattle_Ch2::
	vibrato 0, $20
	notetype 12, $13
	note __, 12
	octave 3
	note B_, 1
	octave 4
	note C_, 1
	note C#, 1
	note C_, 1
	note C#, 1
	note D_, 1
	note C#, 1
	note D_, 1
	note D#, 1
	note D_, 1
	note D#, 1
	note E_, 1
	note D#, 1
	note E_, 1
	note F_, 1
	note E_, 1
	note F_, 1
	note F#, 1
	note F_, 1
	note F#, 1
	octave 3
	note B_, 1
	note __, 1
	octave 4
	note F#, 1
	note __, 1
	octave 3
	note B_, 1
	note __, 1
	octave 4
	note F#, 1
	note __, 1
	octave 3
	note B_, 1
	note __, 1
	octave 4
	note F#, 1
	note __, 1
	octave 3
	note B_, 1
	note __, 1
	octave 4
	note F#, 1
	note __, 1
	octave 3
	note B_, 1
	note __, 1
	octave 4
	note F#, 1
	note __, 1
	octave 3
	note B_, 1
	note __, 1
	octave 4
	note F#, 1
	note __, 1
	octave 3
	note B_, 1
	note __, 1
	octave 4
	note C_, 6
	octave 3
	note B_, 1
	note __, 1
	octave 4
	note F#, 1
	note __, 1
	octave 3
	note B_, 1
	note __, 1
	octave 4
	note F#, 1
	note __, 1
	octave 3
	note B_, 1
	note __, 1
	octave 4
	note F#, 1
	note __, 1
	octave 3
	note B_, 1
	note __, 1
	octave 4
	note F#, 1
	note __, 1
	octave 3
	note B_, 1
	note __, 1
	octave 4
	note F#, 1
	note __, 1
	octave 3
	note B_, 1
	note __, 1
	octave 4
	note F#, 1
	note __, 1
	octave 3
	note B_, 1
	note __, 1
	octave 4
	note F_, 6
	octave 3
	note B_, 1
	note __, 1
	octave 4
	note F#, 1
	note __, 1
	octave 3
	note B_, 1
	note __, 1
	octave 4
	note F#, 1
	note __, 1
	octave 3
	note B_, 1
	note __, 1
	octave 4
	note F#, 1
	note __, 1
	octave 3
	note B_, 1
	note __, 1
	octave 4
	note F#, 1
	note __, 1
	octave 3
	note B_, 1
	note __, 1
	octave 4
	note F#, 1
	note __, 1
	octave 3
	note B_, 1
	note __, 1
	octave 4
	note F#, 1
	note __, 1
	octave 3
	note B_, 1
	note __, 1
	octave 4
	note C_, 6
	octave 3
	note B_, 1
	note __, 1
	octave 4
	note F#, 1
	note __, 1
	octave 3
	note B_, 1
	note __, 1
	octave 4
	note F#, 1
	note __, 1
	octave 3
	note B_, 1
	note __, 1
	octave 4
	note F#, 1
	note __, 1
	octave 3
	note B_, 1
	note __, 1
	octave 4
	note F#, 1
	note __, 1
	octave 3
	note B_, 1
	note __, 1
	octave 4
	note F#, 1
	note __, 1
	octave 3
	note B_, 1
	note __, 1
	octave 4
	note F#, 1
	note __, 1
	octave 3
	note B_, 1
	note __, 1
	octave 4
	note C#, 6
	notetype 12, $14

Music_GymLeaderBattle_branch_227b1::
	octave 3
	note B_, 2
	octave 4
	note F#, 2
	octave 3
	note B_, 2
	octave 4
	note F#, 2
	octave 3
	note B_, 2
	octave 4
	note F#, 2
	octave 3
	note B_, 2
	octave 4
	note F#, 2
	octave 3
	note B_, 2
	octave 4
	note F#, 2
	octave 3
	note B_, 2
	octave 4
	note F#, 2
	octave 3
	note B_, 2
	octave 4
	note F#, 2
	octave 3
	note B_, 2
	octave 4
	note F#, 2
	octave 3
	note A_, 2
	octave 4
	note E_, 2
	octave 3
	note A_, 2
	octave 4
	note E_, 2
	octave 3
	note A_, 2
	octave 4
	note E_, 2
	octave 3
	note A_, 2
	octave 4
	note E_, 2
	octave 3
	note A_, 2
	octave 4
	note E_, 2
	octave 3
	note A_, 2
	octave 4
	note E_, 2
	octave 3
	note A_, 2
	octave 4
	note E_, 2
	octave 3
	note A_, 2
	octave 4
	note E_, 2
	octave 3
	note B_, 2
	octave 4
	note F#, 2
	octave 3
	note B_, 2
	octave 4
	note F#, 2
	octave 3
	note B_, 2
	octave 4
	note F#, 2
	octave 3
	note B_, 2
	octave 4
	note F#, 2
	octave 3
	note B_, 2
	octave 4
	note F#, 2
	octave 3
	note B_, 2
	octave 4
	note F#, 2
	octave 3
	note B_, 2
	octave 4
	note F#, 2
	octave 3
	note B_, 2
	octave 4
	note F#, 2
	octave 3
	note A_, 2
	octave 4
	note E_, 2
	octave 3
	note A_, 2
	octave 4
	note E_, 2
	octave 3
	note A_, 2
	octave 4
	note E_, 2
	octave 3
	note A_, 2
	octave 4
	note E_, 2
	octave 3
	note A_, 2
	octave 4
	note E_, 2
	octave 3
	note A_, 2
	octave 4
	note E_, 2
	octave 3
	note A_, 2
	octave 4
	note E_, 2
	octave 3
	note A_, 2
	octave 4
	note E_, 2
	octave 3
	note B_, 1
	note __, 1
	note B_, 1
	note __, 1
	octave 4
	note D_, 4
	octave 3
	note B_, 1
	note __, 1
	note B_, 1
	note __, 1
	octave 4
	note E_, 4
	octave 3
	note B_, 1
	note __, 1
	note B_, 1
	note __, 1
	octave 4
	note D_, 4
	octave 3
	note B_, 1
	note __, 1
	octave 4
	note C#, 2
	octave 3
	note B_, 1
	note __, 1
	note B_, 1
	note __, 1
	octave 4
	note D_, 4
	octave 3
	note B_, 1
	note __, 1
	note B_, 1
	note __, 1
	octave 4
	note E_, 4
	octave 3
	note B_, 1
	note __, 1
	note B_, 1
	note __, 1
	octave 4
	note D_, 4
	octave 3
	note B_, 1
	note __, 1
	note B_, 1
	note __, 1
	octave 4
	note C#, 2
	octave 3
	note B_, 2
	note A_, 2
	octave 4
	note C#, 2
	octave 3
	note B_, 1
	note __, 1
	note B_, 1
	note __, 13
	note B_, 1
	note __, 1
	note B_, 1
	note __, 13
	note B_, 1
	note __, 1
	note B_, 1
	note __, 13
	note B_, 1
	note __, 1
	note B_, 1
	note __, 13
	note B_, 1
	note __, 1
	note B_, 1
	note __, 13
	note B_, 1
	note __, 1
	note B_, 1
	note __, 13
	note B_, 1
	note __, 1
	note B_, 1
	note __, 13
	note B_, 1
	note __, 1
	note B_, 1
	note __, 13
	note A_, 1
	note __, 1
	note A_, 1
	note __, 1
	octave 4
	note C#, 12
	octave 3
	note A_, 1
	note __, 1
	note A_, 1
	note __, 1
	octave 4
	note E_, 12
	note D#, 16
	octave 3
	note B_, 16
	note A_, 1
	note __, 1
	note A_, 1
	note __, 1
	octave 4
	note E_, 12
	note C#, 8
	note E_, 8
	octave 3
	note B_, 2
	octave 4
	note F#, 2
	octave 3
	note B_, 2
	octave 4
	note F#, 2
	octave 3
	note B_, 2
	octave 4
	note F#, 2
	octave 3
	note B_, 2
	octave 4
	note F#, 2
	octave 3
	note B_, 2
	octave 4
	note F#, 2
	octave 3
	note B_, 2
	octave 4
	note F#, 2
	octave 3
	note B_, 2
	octave 4
	note E_, 6
	octave 3
	note B_, 2
	octave 4
	note F#, 2
	octave 3
	note B_, 2
	octave 4
	note F#, 2
	octave 3
	note B_, 2
	octave 4
	note F#, 2
	octave 3
	note B_, 2
	octave 4
	note F#, 2
	octave 3
	note B_, 2
	octave 4
	note F#, 2
	octave 3
	note B_, 2
	octave 4
	note F#, 2
	octave 3
	note B_, 2
	octave 4
	note G_, 6
	octave 3
	note B_, 2
	octave 4
	note F#, 2
	octave 3
	note B_, 2
	octave 4
	note F#, 2
	octave 3
	note B_, 2
	octave 4
	note F#, 2
	octave 3
	note B_, 2
	octave 4
	note F#, 2
	octave 3
	note B_, 2
	octave 4
	note F#, 2
	octave 3
	note B_, 2
	octave 4
	note F#, 2
	octave 3
	note B_, 2
	octave 4
	note C_, 6
	octave 3
	note B_, 2
	octave 4
	note F#, 2
	octave 3
	note B_, 2
	octave 4
	note F#, 2
	octave 3
	note B_, 2
	octave 4
	note F#, 2
	octave 3
	note B_, 2
	octave 4
	note F#, 2
	octave 3
	note B_, 2
	octave 4
	note F#, 2
	octave 3
	note B_, 2
	octave 4
	note F#, 2
	octave 3
	note B_, 2
	octave 4
	note G_, 6
	loopchannel 0, Music_GymLeaderBattle_branch_227b1
