Music_MeetMaleTrainer::
	musicheader 3, 1, Music_MeetMaleTrainer_Ch0
	musicheader 1, 2, Music_MeetMaleTrainer_Ch1
	musicheader 1, 3, Music_MeetMaleTrainer_Ch2

Music_MeetMaleTrainer_Ch0::
	tempo 112
	volume $77
	dutycycle 3
	vibrato 20, $33
	;toggleperfectpitch
	notetype 12, $b4
	octave 3
	note C#, 1
	note D_, 1
	note D#, 1
	note E_, 1
	note F_, 12
	note __, 16

Music_MeetMaleTrainer_branch_7f78f::
	octave 3
	note B_, 4
	note A_, 4
	note G#, 2
	note F#, 2
	note E_, 2
	note D#, 2
	note F#, 4
	note E_, 6
	note F_, 2
	note F#, 4
	note G_, 8
	octave 4
	note D_, 8
	note E_, 16
	loopchannel 0, Music_MeetMaleTrainer_branch_7f78f


Music_MeetMaleTrainer_Ch1::
	dutycycle 3
	vibrato 24, $22
	notetype 12, $c4
	octave 4
	note E_, 1
	note D#, 1
	note D_, 1
	note C#, 1
	octave 3
	note B_, 12
	note __, 2
	note E_, 1
	note __, 3
	note E_, 1
	note __, 9

Music_MeetMaleTrainer_branch_7f7b5::
	notetype 12, $c4
	octave 4
	note E_, 6
	note D#, 6
	note C#, 4
	octave 3
	note B_, 2
	note A_, 2
	note G#, 2
	note F#, 2
	note G#, 2
	note A_, 2
	note B_, 2
	octave 4
	note C#, 2
	notetype 12, $c7
	note F_, 16
	notetype 12, $c5
	octave 3
	note F#, 8
	octave 4
	note C#, 8
	loopchannel 0, Music_MeetMaleTrainer_branch_7f7b5


Music_MeetMaleTrainer_Ch2::
	notetype 12, $10
	note __, 6
	octave 4
	note B_, 1
	note __, 1
	note E_, 1
	note __, 1
	note B_, 1
	note __, 3
	note B_, 1
	note __, 1
	note E_, 1
	note __, 1
	note B_, 1
	note __, 3
	note B_, 1
	note __, 3
	note E_, 1
	note __, 1
	note F_, 1
	note __, 1
	note F#, 1
	note __, 1

Music_MeetMaleTrainer_branch_7f7ea::
	note E_, 1
	note __, 1
	note B_, 1
	note __, 1
	note E_, 1
	note __, 1
	note B_, 1
	note __, 1
	note E_, 1
	note __, 1
	note B_, 1
	note __, 1
	note E_, 1
	note __, 1
	note B_, 1
	note __, 1
	note F#, 1
	note __, 1
	octave 5
	note C#, 1
	note __, 1
	octave 4
	note F#, 1
	note __, 1
	octave 5
	note C#, 1
	note __, 1
	octave 4
	note F#, 1
	note __, 1
	octave 5
	note C#, 1
	note __, 1
	octave 4
	note F#, 1
	note __, 1
	octave 5
	note C#, 1
	note __, 1
	octave 4
	note G_, 1
	note __, 1
	octave 5
	note D_, 1
	note __, 1
	octave 4
	note G_, 1
	note __, 1
	octave 5
	note D_, 1
	note __, 1
	octave 4
	note G_, 1
	note __, 1
	octave 5
	note D_, 1
	note __, 1
	octave 4
	note G_, 1
	note __, 1
	octave 5
	note D_, 1
	note __, 1
	octave 4
	note F#, 1
	note __, 1
	octave 5
	note C#, 1
	note __, 1
	octave 4
	note F#, 1
	note __, 1
	octave 5
	note C#, 1
	note __, 1
	octave 4
	note F#, 1
	note __, 1
	octave 5
	note C#, 1
	note __, 1
	octave 4
	note F#, 1
	note __, 1
	note D#, 1
	note __, 1
	loopchannel 0, Music_MeetMaleTrainer_branch_7f7ea
