Music_MeetJessieJames::
	musicheader 3, 1, Music_MeetJessieJames_Ch1
	musicheader 1, 2, Music_MeetJessieJames_Ch2
	musicheader 1, 3, Music_MeetJessieJames_Ch3

Music_MeetJessieJames_Ch1::
	tempo 144
	volume $77
	dutycycle 3
	vibrato 8, $14
	notetype 12, $b2
	octave 3
	note G#, 1
	note G_, 1
	note F#, 2
	note F_, 2
	note E_, 2
	note D#, 2
	note D_, 2
	note C#, 2
	note C_, 2
	notetype 12, $b6
	note D#, 12
	note C_, 4

Music_MeetJessieJames_branch_83187::
	notetype 12, $b2
	octave 4
	note D_, 16
	note __, 12
	notetype 12, $b4
	octave 3
	note A#, 4
	note __, 16
	note __, 8
	notetype 12, $b2
	octave 2
	note A_, 2
	octave 3
	note A#, 2
	note A_, 4
	note D_, 1
	note D#, 1
	note D#, 2
	note D#, 2
	note D_, 2
	note D#, 2
	note D_, 2
	note D#, 2
	note F_, 2
	note D_, 1
	note D#, 1
	note D#, 2
	note D#, 2
	note D_, 2
	octave 2
	note A#, 4
	notetype 12, $b4
	octave 3
	note B_, 4
	notetype 12, $b2
	note D_, 1
	note D#, 1
	note D#, 2
	note D#, 2
	note D_, 2
	note D#, 2
	note D_, 2
	note D#, 2
	note F_, 2
	note D_, 1
	note D#, 1
	note D#, 2
	note D#, 2
	note D_, 2
	octave 2
	note A#, 2
	octave 3
	note B_, 2
	notetype 12, $b4
	note A#, 4
	loopchannel 0, Music_MeetJessieJames_branch_83187


Music_MeetJessieJames_Ch2::
	dutycycle 3
	vibrato 6, $15
	notetype 12, $c2
	octave 4
	note D_, 1
	note C#, 1
	note C_, 2
	octave 3
	note B_, 2
	note A#, 2
	note A_, 2
	note G#, 2
	note G_, 2
	note F#, 2
	notetype 12, $c7
	note A_, 12
	octave 4
	note C#, 4

Music_MeetJessieJames_branch_831df::
	notetype 12, $c2
	octave 3
	note C#, 1
	note D_, 1
	note D_, 2
	note D_, 2
	note C#, 2
	note D_, 2
	note C#, 2
	note D_, 2
	note E_, 2
	note C#, 1
	note D_, 1
	note D_, 2
	note D_, 2
	note C#, 2
	octave 2
	note A_, 4
	notetype 12, $c5
	octave 4
	note C#, 4
	notetype 12, $c2
	note D_, 1
	octave 3
	note D_, 1
	note D_, 2
	note D_, 2
	note C#, 2
	note D_, 2
	note C#, 2
	note D_, 2
	note E_, 2
	note C#, 1
	note D_, 1
	note D_, 2
	note D_, 2
	note C#, 2
	notetype 12, $c6
	octave 4
	note D_, 8
	notetype 12, $c2
	note D#, 6
	note F_, 4
	note D#, 4
	octave 3
	note A#, 2
	octave 4
	note D#, 6
	note F_, 4
	note D#, 2
	notetype 12, $c5
	note D_, 4
	notetype 12, $c2
	note D#, 6
	note F_, 4
	note D#, 4
	octave 3
	note A#, 2
	octave 4
	note D#, 4
	note F_, 4
	notetype 12, $c5
	note D#, 8
	loopchannel 0, Music_MeetJessieJames_branch_831df


Music_MeetJessieJames_Ch3::
	notetype 12, $10
	note __, 16
	note __, 8
	octave 4
	note D_, 2
	octave 3
	note A_, 2
	octave 4
	note C_, 2
	note D#, 2

Music_MeetJessieJames_branch_83235::
	note D_, 1
	note __, 1
	note A_, 1
	note __, 1
	note D_, 1
	note __, 1
	note A_, 1
	note __, 1
	note D_, 1
	note __, 1
	note A_, 1
	note __, 1
	note D_, 1
	note __, 1
	note A_, 1
	note __, 1
	note D_, 1
	note __, 1
	note A_, 1
	note __, 1
	note D_, 1
	note __, 1
	note A_, 1
	note __, 1
	note D_, 1
	note __, 1
	note A#, 2
	note A_, 2
	note D#, 2
	note D_, 1
	note __, 1
	note A_, 1
	note __, 1
	note D_, 1
	note __, 1
	note A_, 1
	note __, 1
	note D_, 1
	note __, 1
	note A_, 1
	note __, 1
	note D_, 1
	note __, 1
	note A_, 1
	note __, 1
	note D_, 1
	note __, 1
	note A_, 1
	note __, 1
	note D_, 1
	note __, 1
	note A_, 1
	note __, 1
	note D_, 1
	note __, 1
	octave 3
	note A_, 2
	octave 4
	note C_, 2
	note D_, 2
	note D#, 1
	note __, 1
	note A#, 1
	note __, 1
	note D#, 1
	note __, 1
	note A#, 1
	note __, 1
	note D#, 1
	note __, 1
	note A#, 1
	note __, 1
	note D#, 1
	note __, 1
	note A#, 1
	note __, 1
	note D#, 1
	note __, 1
	note A#, 1
	note __, 1
	note D#, 1
	note __, 1
	note A#, 1
	note __, 1
	note D#, 1
	note __, 1
	octave 3
	note A#, 1
	note __, 1
	octave 4
	note C#, 1
	note __, 1
	note E_, 1
	note __, 1
	note D#, 1
	note __, 1
	note A#, 1
	note __, 1
	note D#, 1
	note __, 1
	note A#, 1
	note __, 1
	note D#, 1
	note __, 1
	note A#, 1
	note __, 1
	note D#, 1
	note __, 1
	note A#, 1
	note __, 1
	note D#, 1
	note __, 1
	note A#, 1
	note __, 1
	note D#, 1
	note __, 1
	note A#, 1
	note __, 1
	note D#, 1
	note __, 1
	octave 3
	note A#, 1
	note __, 1
	octave 4
	note C#, 1
	note __, 1
	note E_, 1
	note __, 1
	loopchannel 0, Music_MeetJessieJames_branch_83235
	endchannel
