Music_MeetProfOak::
	musicheader 3, 1, Music_MeetProfOak_Ch0
	musicheader 1, 2, Music_MeetProfOak_Ch1
	musicheader 1, 3, Music_MeetProfOak_Ch2

Music_MeetProfOak_Ch0::
	tempo 112
	volume $77
	dutycycle 3
	;toggleperfectpitch
	notetype 12, $b4
	octave 3
	note F#, 1
	note B_, 1
	octave 4
	note D#, 1
	note E_, 1
	note F#, 12
	notetype 12, $a2
	octave 3
	note E_, 6
	note B_, 10
	note E_, 6
	note B_, 10
	note E_, 6
	note D#, 4
	note F#, 2
	note F#, 4
	note E_, 6
	note D#, 4
	note F#, 2
	note F#, 4
	note E_, 6
	note B_, 10
	note E_, 6
	note B_, 10
	note E_, 6
	note D#, 4
	note F#, 2
	note F#, 4
	note E_, 6
	note D#, 4
	note F#, 2
	note F#, 4

Music_MeetProfOak_branch_af85::
	note F#, 6
	note E_, 4
	note A_, 2
	note A_, 4
	note F#, 6
	note E_, 4
	note A_, 2
	note A_, 4
	note F#, 6
	note E_, 4
	note G#, 2
	note G#, 4
	note F#, 6
	note E_, 4
	note G#, 2
	note G#, 4
	note E_, 6
	note D#, 4
	note F#, 2
	note F#, 4
	note E_, 6
	note D#, 4
	note F#, 2
	note F#, 4
	note F#, 6
	note E_, 4
	note G#, 2
	note G#, 4
	note F#, 6
	note E_, 4
	note G#, 2
	note G#, 4
	loopchannel 0, Music_MeetProfOak_branch_af85


Music_MeetProfOak_Ch1::
	vibrato 8, $11
	dutycycle 2
	notetype 12, $c4
	octave 3
	note B_, 1
	octave 4
	note D#, 1
	note F#, 1
	note A#, 1
	note B_, 12
	notetype 12, $b2
	octave 3
	note B_, 2
	octave 4
	note C#, 2
	note D#, 2
	note E_, 4
	note D#, 2
	note C#, 4
	notetype 12, $64
	octave 4
	note B_, 2
	octave 5
	note C#, 2
	note D#, 2
	note E_, 4
	note D#, 2
	note C#, 4
	notetype 12, $b2
	octave 3
	note B_, 2
	note A_, 2
	note G#, 2
	note A_, 4
	note B_, 2
	note B_, 4
	notetype 12, $81
	octave 4
	note B_, 2
	note A_, 2
	note G#, 2
	note A_, 4
	note B_, 2
	note B_, 4
	notetype 12, $b2
	octave 3
	note B_, 2
	octave 4
	note C#, 2
	note D#, 2
	note E_, 4
	note D#, 2
	note C#, 4
	notetype 12, $64
	octave 4
	note B_, 2
	octave 5
	note C#, 2
	note D#, 2
	note E_, 4
	note D#, 2
	note C#, 4
	notetype 12, $b2
	octave 3
	note B_, 2
	note A_, 2
	note G#, 2
	note A_, 4
	note B_, 2
	note B_, 4
	notetype 12, $81
	octave 4
	note B_, 2
	note A_, 2
	note G#, 2
	note A_, 4
	note B_, 2
	note B_, 4
	notetype 12, $b5

Music_MeetProfOak_branch_b005::
	octave 4
	note C#, 6
	octave 3
	note A_, 1
	octave 4
	note C#, 1
	note E_, 6
	note C#, 1
	note E_, 1
	note F#, 4
	note E_, 4
	note D#, 4
	note C#, 4
	octave 3
	note B_, 6
	note G#, 1
	note B_, 1
	octave 4
	note E_, 8
	notetype 12, $65
	octave 4
	note B_, 6
	note G#, 1
	note B_, 1
	octave 5
	note E_, 8
	notetype 12, $b5
	octave 3
	note A_, 6
	note F#, 1
	note A_, 1
	octave 4
	note D#, 8
	note E_, 4
	note D#, 4
	note C#, 4
	note C_, 4
	octave 3
	note B_, 6
	note G#, 1
	note B_, 1
	octave 4
	note E_, 6
	octave 3
	note B_, 1
	octave 4
	note E_, 1
	notetype 12, $b7
	note G#, 16
	loopchannel 0, Music_MeetProfOak_branch_b005


Music_MeetProfOak_Ch2::
	notetype 12, $12
	note __, 10
	octave 4
	note F#, 1
	note __, 1
	note B_, 1
	note __, 1
	octave 5
	note C#, 1
	note __, 1
	octave 4
	note B_, 1
	note __, 5
	octave 5
	note E_, 4
	note __, 6
	octave 4
	note B_, 1
	note __, 5
	octave 5
	note E_, 4
	octave 4
	note F#, 1
	note __, 1
	note B_, 1
	note __, 1
	octave 5
	note C#, 1
	note __, 1
	octave 4
	note F#, 1
	note __, 1
	note F#, 1
	note __, 1
	note B_, 1
	note __, 1
	note F#, 1
	note __, 1
	note B_, 1
	note __, 1
	note F#, 1
	note __, 1
	note B_, 1
	note __, 1
	note F#, 1
	note __, 1
	note B_, 1
	note __, 1
	note F#, 1
	note __, 1
	note B_, 1
	note __, 1
	note F#, 1
	note __, 1
	note B_, 1
	note __, 1
	note F#, 1
	note __, 1
	note B_, 1
	note __, 1
	note F#, 1
	note __, 1
	note B_, 1
	note __, 1
	note E_, 1
	note __, 1
	note B_, 1
	note __, 1
	note E_, 1
	note __, 1
	note B_, 1
	note __, 1
	note E_, 1
	note __, 1
	note B_, 1
	note __, 1
	note E_, 1
	note __, 1
	note B_, 1
	note __, 1
	note E_, 1
	note __, 1
	note B_, 1
	note __, 1
	note E_, 1
	note __, 1
	note B_, 1
	note __, 1
	note E_, 1
	note __, 1
	note A_, 1
	note __, 1
	note B_, 1
	note __, 1
	note F#, 1
	note __, 1
	note F#, 1
	note __, 1
	note B_, 1
	note __, 1
	note F#, 1
	note __, 1
	note B_, 1
	note __, 1
	note F#, 1
	note __, 1
	note B_, 1
	note __, 1
	note F#, 1
	note __, 1
	note B_, 1
	note __, 1
	note F#, 1
	note __, 1
	note B_, 1
	note __, 1
	note F#, 1
	note __, 1
	note B_, 1
	note __, 1
	note F#, 1
	note __, 1
	note G_, 1
	note __, 1
	note G#, 1
	note __, 1

Music_MeetProfOak_branch_b0bc::
	octave 4
	note A_, 1
	note __, 1
	octave 5
	note C#, 1
	note __, 1
	octave 4
	note A_, 1
	note __, 1
	octave 5
	note C#, 1
	note __, 1
	octave 4
	note A_, 1
	note __, 1
	octave 5
	note C#, 1
	note __, 1
	octave 4
	note A_, 1
	note __, 1
	octave 5
	note C#, 1
	note __, 1
	loopchannel 2, Music_MeetProfOak_branch_b0bc

Music_MeetProfOak_branch_b0d8::
	octave 4
	note G#, 1
	note __, 1
	note B_, 1
	note __, 1
	note G#, 1
	note __, 1
	note B_, 1
	note __, 1
	note G#, 1
	note __, 1
	note B_, 1
	note __, 1
	note G#, 1
	note __, 1
	note B_, 1
	note __, 1
	loopchannel 2, Music_MeetProfOak_branch_b0d8

Music_MeetProfOak_branch_b0ed::
	note F#, 1
	note __, 1
	note A_, 1
	note __, 1
	note F#, 1
	note __, 1
	note A_, 1
	note __, 1
	note F#, 1
	note __, 1
	note A_, 1
	note __, 1
	note F#, 1
	note __, 1
	note A_, 1
	note __, 1
	loopchannel 2, Music_MeetProfOak_branch_b0ed

Music_MeetProfOak_branch_b101::
	note G#, 1
	note __, 1
	note B_, 1
	note __, 1
	note G#, 1
	note __, 1
	note B_, 1
	note __, 1
	note G#, 1
	note __, 1
	note B_, 1
	note __, 1
	note G#, 1
	note __, 1
	note B_, 1
	note __, 1
	loopchannel 2, Music_MeetProfOak_branch_b101
	loopchannel 0, Music_MeetProfOak_branch_b0bc
