Music_RBYPalletTown::
	musicheader 3, 1, Music_RBYPalletTown_Ch0
	musicheader 1, 2, Music_RBYPalletTown_Ch1
	musicheader 1, 3, Music_RBYPalletTown_Ch2

Music_RBYPalletTown_Ch0::
	tempo 160
	volume $77
	dutycycle 2
	notetype 12, $c3

Music_RBYPalletTown_branch_a7ce::
	octave 3
	note B_, 4
	octave 4
	note C_, 2
	note D_, 4
	note G_, 2
	note D_, 2
	note C_, 2
	octave 3
	note B_, 4
	note G_, 2
	octave 4
	note D_, 4
	note D_, 2
	note C_, 2
	octave 3
	note B_, 2
	note __, 2
	note B_, 2
	octave 4
	note C_, 2
	octave 3
	note B_, 2
	octave 4
	note C_, 8
	note __, 2
	octave 3
	note B_, 2
	octave 4
	note C_, 2
	octave 3
	note A_, 2
	note B_, 2
	note G_, 2
	note A_, 2
	note F#, 2
	note B_, 4
	octave 4
	note C_, 2
	note D_, 4
	note G_, 2
	note D_, 2
	note C_, 2
	octave 3
	note B_, 4
	note G_, 2
	octave 4
	note D_, 4
	note D_, 2
	note G_, 2
	note F#, 2
	note E_, 4
	note D_, 2
	note C_, 4
	octave 3
	note A_, 2
	note B_, 2
	octave 4
	note C_, 2
	note D_, 2
	note C_, 2
	octave 3
	note B_, 2
	note A_, 2
	note G_, 4
	note F#, 4
	octave 4
	note C_, 2
	octave 3
	note G_, 2
	note E_, 2
	note G_, 2
	octave 4
	note D_, 2
	octave 3
	note A_, 2
	note F#, 2
	note A_, 2
	notetype 12, $b3
	note B_, 2
	note G_, 2
	note D_, 2
	note G_, 2
	note B_, 2
	note G_, 2
	note D_, 2
	note G_, 2
	octave 4
	note C_, 2
	octave 3
	note G_, 2
	note E_, 2
	note G_, 2
	octave 4
	note D_, 2
	octave 3
	note A_, 2
	note F#, 2
	note A_, 2
	note B_, 2
	note G_, 2
	note D_, 2
	note G_, 2
	note B_, 2
	note G_, 2
	note D_, 2
	note G_, 2
	note A_, 2
	note E_, 2
	note C_, 2
	note E_, 2
	note A_, 2
	note E_, 2
	note C_, 2
	note E_, 2
	note A_, 2
	note E_, 2
	note C_, 2
	note E_, 2
	note A_, 2
	note E_, 2
	note C_, 2
	note E_, 2
	note F#, 2
	note D_, 2
	note C_, 2
	note D_, 2
	note G_, 2
	note E_, 2
	note C_, 2
	note E_, 2
	note G_, 2
	note E_, 2
	note C_, 2
	note E_, 2
	note F#, 2
	note D_, 2
	note C_, 2
	note D_, 2
	loopchannel 0, Music_RBYPalletTown_branch_a7ce
	endchannel


Music_RBYPalletTown_Ch1::
	dutycycle 2

Music_RBYPalletTown_branch_a861::
	notetype 12, $d3
	octave 5
	note D_, 2
	notetype 12, $a3
	note C_, 2
	notetype 12, $d3
	octave 4
	note B_, 2
	notetype 12, $b3
	note A_, 2
	notetype 12, $d3
	octave 5
	note G_, 2
	notetype 12, $b3
	note E_, 2
	notetype 12, $d3
	note F#, 2
	note E_, 2
	note D_, 6
	octave 4
	note B_, 2
	note G_, 2
	note G_, 2
	note A_, 2
	note B_, 2
	octave 5
	note C_, 10
	octave 4
	note F#, 2
	note G_, 2
	note A_, 2
	note B_, 6
	octave 5
	note C_, 1
	octave 4
	note B_, 1
	note A_, 8
	octave 5
	note D_, 2
	notetype 12, $a3
	note C_, 2
	notetype 12, $d3
	octave 4
	note B_, 2
	notetype 12, $b3
	octave 5
	note D_, 2
	notetype 12, $d3
	note G_, 2
	notetype 12, $a3
	note F#, 2
	notetype 12, $b3
	note F#, 2
	notetype 12, $d3
	note G_, 2
	note E_, 6
	note D_, 2
	note D_, 8
	note C_, 2
	octave 4
	note B_, 2
	note A_, 2
	note G_, 2
	octave 5
	note D_, 2
	note C_, 2
	octave 4
	note B_, 2
	note A_, 2
	note G_, 10
	note G_, 2
	note A_, 2
	note B_, 2
	octave 5
	note C_, 8
	note D_, 6
	note C_, 2
	octave 4
	note B_, 8
	note __, 2
	note G_, 2
	note A_, 2
	note B_, 2
	octave 5
	note C_, 4
	note C_, 4
	note D_, 6
	note C_, 1
	note D_, 1
	octave 4
	note B_, 8
	note __, 2
	note B_, 2
	note A_, 2
	note G_, 2
	note A_, 8
	note E_, 4
	note B_, 4
	note A_, 8
	note G_, 4
	note E_, 4
	note F#, 8
	note G_, 4
	note B_, 4
	note B_, 8
	note A_, 8
	loopchannel 0, Music_RBYPalletTown_branch_a861
	endchannel


Music_RBYPalletTown_Ch2::
	vibrato 24, $28
	notetype 12, $12

Music_RBYPalletTown_branch_a8e3::
	octave 4
	note G_, 6
	note E_, 6
	note F#, 4
	note G_, 6
	note A_, 6
	note G_, 4
	note E_, 6
	note F#, 6
	note E_, 4
	note G_, 6
	note E_, 6
	note D_, 4
	note G_, 6
	note E_, 6
	note F#, 4
	note G_, 6
	note A_, 6
	note G_, 4
	note E_, 6
	note F#, 6
	note A_, 4
	note G_, 6
	note E_, 6
	note D_, 4
	note C_, 8
	note D_, 8
	note G_, 8
	note E_, 4
	note D_, 4
	note C_, 8
	note D_, 8
	note G_, 8
	note A_, 4
	note G_, 4
	note E_, 8
	note A_, 8
	note E_, 8
	note G_, 8
	note F#, 8
	note E_, 8
	note E_, 8
	note F#, 8
	loopchannel 0, Music_RBYPalletTown_branch_a8e3
	endchannel
