Music_PokemonTower::
	musicheader 3, 1, Music_PokemonTower_Ch0
	musicheader 1, 2, Music_PokemonTower_Ch1
	musicheader 1, 3, Music_PokemonTower_Ch2

Music_PokemonTower_Ch0::
	tempo 152
	volume $77
	dutycycle 3
	;toggleperfectpitch
	vibrato 12, $23
	notetype 12, $80
	note __, 4
	octave 4
	note B_, 12

Music_PokemonTower_branch_7f05a::
	notetype 12, $b4
	octave 4
	note G_, 1
	note __, 7
	note G_, 1
	note __, 7
	octave 3
	note B_, 1
	note __, 7
	note B_, 1
	note __, 3
	note B_, 1
	note __, 3
	note B_, 1
	note __, 7
	note B_, 1
	note __, 7
	note B_, 1
	note __, 7
	octave 4
	note F#, 1
	note __, 7
	note C_, 1
	octave 3
	note B_, 1
	note G_, 1
	note __, 5
	note E_, 1
	note __, 7
	note E_, 1
	note __, 7
	note F#, 1
	note __, 7
	note E_, 1
	note __, 7
	note G_, 1
	note __, 7
	note G_, 1
	note __, 7
	note F#, 1
	note __, 7
	note F#, 1
	note __, 7
	note G_, 1
	note __, 7
	note E_, 1
	note __, 7
	note D_, 1
	note __, 7
	note E_, 1
	note __, 7
	note G_, 1
	note __, 7
	note G_, 1
	note __, 7
	note F#, 1
	note __, 7
	note B_, 1
	note __, 7
	note B_, 1
	note __, 7
	octave 4
	note C_, 1
	note __, 7
	note C_, 1
	note __, 7
	note C#, 1
	note __, 7
	note C#, 1
	note __, 7
	note C_, 1
	note __, 7
	note C_, 1
	note __, 3
	notetype 12, $84
	note C_, 1
	note __, 3
	notetype 12, $b4
	note D_, 1
	note __, 7
	note D_, 1
	note __, 7
	octave 3
	note A_, 1
	note __, 7
	note A_, 1
	note __, 7
	notetype 12, $a7
	note B_, 8
	note B_, 8
	octave 4
	note C_, 8
	note C_, 8
	note C#, 8
	note C#, 8
	notetype 12, $a6
	note D_, 16
	note __, 16
	note __, 16
	note __, 16
	note __, 16
	notetype 12, $92
	note B_, 4
	octave 5
	note E_, 4
	note D_, 4
	note C_, 4
	octave 4
	note B_, 4
	octave 5
	note E_, 4
	note D_, 4
	note C_, 4
	octave 4
	note B_, 4
	octave 5
	note E_, 4
	note D_, 4
	note C_, 4
	octave 4
	note B_, 4
	note G_, 4
	note F#, 4
	note E_, 4
	octave 5
	note C_, 16
	note C_, 16
	loopchannel 0, Music_PokemonTower_branch_7f05a


Music_PokemonTower_Ch1::
	vibrato 20, $34
	dutycycle 3
	notetype 12, $a0
	octave 5
	note C_, 12
	octave 4
	note E_, 4

Music_PokemonTower_branch_7f0ee::
	notetype 12, $c1
	octave 5
	note C_, 8
	octave 4
	note B_, 4
	notetype 12, $c4
	note G_, 1
	note F#, 1
	note E_, 1
	note D#, 1
	notetype 12, $b0
	note G_, 8
	octave 5
	note C_, 8
	octave 4
	note B_, 4
	note G_, 4
	note E_, 4
	note G_, 4
	octave 5
	note C_, 8
	notetype 12, $b7
	note C_, 8
	notetype 12, $c2
	octave 4
	note G_, 1
	note F#, 1
	note E_, 1
	note __, 1
	notetype 12, $96
	octave 3
	note G_, 4
	notetype 12, $c7
	note G_, 4
	note B_, 4
	note G_, 4
	note B_, 4
	octave 4
	note C_, 4
	octave 3
	note B_, 4
	notetype 12, $b0
	octave 4
	note C_, 16
	note E_, 8
	notetype 12, $b7
	note E_, 12
	notetype 12, $c5
	octave 5
	note C_, 4
	octave 4
	note B_, 4
	note G_, 4
	note B_, 4
	note G_, 4
	note F#, 4
	note E_, 4
	notetype 12, $b0
	note F#, 12
	note G_, 4
	notetype 12, $b0
	note F#, 8
	notetype 12, $b7
	note F#, 8
	notetype 12, $b0
	note B_, 4
	note G_, 4
	note F#, 4
	note E_, 4
	note B_, 16
	notetype 12, $b0
	octave 5
	note C_, 4
	octave 4
	note G_, 4
	note F#, 4
	note E_, 4
	notetype 12, $90
	octave 5
	note C_, 16
	notetype 12, $b0
	note D_, 4
	octave 4
	note A_, 4
	note G#, 4
	note F#, 4
	notetype 12, $2f
	octave 5
	note D_, 16
	notetype 12, $c0
	note E_, 4
	octave 4
	note B_, 4
	note A_, 4
	note G_, 4
	octave 5
	note F_, 4
	note C_, 4
	octave 4
	note A#, 4
	note G#, 4
	octave 5
	note F#, 4
	note D_, 4
	note C_, 4
	octave 4
	note A#, 4
	note G#, 4
	note F#, 4
	note E_, 4
	note D_, 4
	notetype 12, $b0
	note C_, 8
	notetype 12, $90
	note C_, 8
	notetype 12, $80
	note C_, 8
	notetype 12, $70
	note C_, 8
	notetype 12, $60
	note C_, 8
	notetype 12, $67
	note C_, 8
	note __, 16
	notetype 12, $a0
	octave 5
	note G_, 16
	octave 6
	note C_, 16
	octave 5
	note B_, 8
	note G_, 8
	note E_, 8
	note G_, 8
	octave 6
	note C_, 16
	vibrato 0, $34
	notetype 12, $a7
	note C_, 16
	loopchannel 0, Music_PokemonTower_branch_7f0ee


Music_PokemonTower_Ch2::
	vibrato 4, $11
	notetype 12, $13
	note __, 8
	octave 5
	note G_, 8

Music_PokemonTower_branch_7f1a2::
	note E_, 1
	note __, 7
	note E_, 1
	note __, 7
	note E_, 1
	note __, 7
	note E_, 1
	note __, 3
	note E_, 1
	note D#, 1
	note F#, 1
	note D#, 1
	note E_, 1
	note __, 7
	note G_, 1
	note __, 7
	note E_, 1
	note __, 7
	note B_, 1
	note __, 7
	note E_, 1
	note D#, 1
	octave 4
	note B_, 1
	note __, 5
	note B_, 1
	note __, 7
	note B_, 1
	note __, 7
	note B_, 1
	note __, 7
	octave 5
	note C_, 1
	note __, 7
	note C_, 1
	note __, 7
	note C_, 1
	note __, 7
	note C_, 1
	note __, 7
	octave 4
	note B_, 1
	note __, 7
	note B_, 1
	note __, 7
	note B_, 1
	note __, 7
	note B_, 1
	note __, 7
	octave 5
	note C_, 1
	note __, 7
	note C_, 1
	note __, 7
	note C_, 1
	note __, 7
	note C_, 1
	note __, 7
	note E_, 1
	note __, 7
	note E_, 1
	note __, 7
	note E_, 1
	note __, 7
	note E_, 1
	note __, 7
	note E_, 1
	note __, 7
	note E_, 1
	note __, 7
	note E_, 1
	note __, 7
	note E_, 1
	note __, 3
	note G_, 1
	note __, 3
	note F#, 1
	note __, 7
	note F#, 1
	note __, 7
	note D_, 1
	note __, 7
	note D_, 1
	note __, 3
	note D_, 1
	note __, 1
	note D#, 1
	note __, 1
	note E_, 1
	note __, 7
	note E_, 1
	note __, 7
	note F_, 1
	note __, 7
	note F_, 1
	note __, 7
	note F#, 1
	note __, 7
	note F#, 1
	note __, 7
	note G_, 1
	note __, 15
	notetype 12, $1f
	load_wave 2, 1, 14, 2, 3, 3, 2, 8, 14, 1, 2, 2, 15, 15, 2, 2, 15, 7, 2, 4, 2, 2, 15, 7, 3, 4, 2, 4, 15, 7, 4, 4
	octave 4
	note F#, 1
	note __, 3
	note F#, 1
	note __, 3
	note G_, 1
	note __, 3
	note F#, 1
	note __, 3
	note F#, 1
	note __, 15
	note F#, 1
	note __, 3
	note F#, 1
	note __, 3
	note G_, 1
	note __, 3
	note F#, 1
	note __, 3
	note F#, 1
	note __, 7
	notetype 12, $13
	octave 6
	note E_, 1
	note __, 1
	note D#, 1
	note __, 1
	note F#, 1
	note __, 1
	note D#, 1
	note __, 1
	note E_, 1
	note __, 15
	note E_, 1
	note __, 15
	note E_, 1
	note __, 15
	note E_, 1
	note __, 15
	note E_, 1
	note __, 15
	note E_, 1
	note __, 7
	octave 5
	note E_, 1
	note __, 1
	note D#, 1
	note __, 1
	note F#, 1
	note __, 1
	note D#, 1
	note __, 1
	loopchannel 0, Music_PokemonTower_branch_7f1a2
