Music_Routes2::
	musicheader 4, 1, Music_Routes2_Ch0
	musicheader 1, 2, Music_Routes2_Ch1
	musicheader 1, 3, Music_Routes2_Ch2
	musicheader 1, 4, Music_Routes2_Ch3

Music_Routes2_Ch0::
	tempo 152
	volume $77
	vibrato 9, $25
	dutycycle 1

Music_Routes2_branch_9dc3::
	notetype 12, $b2
	octave 2
	note B_, 4
	octave 3
	note G#, 6
	note F#, 2
	note E_, 2
	note D#, 1
	note F#, 1
	note E_, 2
	octave 2
	note B_, 2
	octave 3
	note E_, 2
	note A_, 2
	note G#, 4
	note F#, 4
	octave 2
	note B_, 4
	octave 3
	note G#, 6
	note F#, 2
	note E_, 2
	note D#, 1
	note F#, 1
	note B_, 2
	octave 2
	note B_, 2
	octave 3
	note E_, 2
	note A_, 2
	note G#, 4
	note B_, 4
	notetype 8, $b2
	octave 4
	note E_, 2
	octave 3
	note A_, 2
	octave 4
	note E_, 2
	note E_, 2
	octave 3
	note A_, 2
	octave 4
	note E_, 2
	note D#, 2
	octave 3
	note G#, 2
	octave 4
	note D#, 2
	note D#, 2
	octave 3
	note G#, 2
	octave 4
	note D#, 2
	note C#, 2
	octave 3
	note F#, 2
	octave 4
	note C#, 2
	note C#, 2
	octave 3
	note F#, 2
	octave 4
	note C#, 2
	octave 3
	note B_, 2
	note E_, 2
	note B_, 2
	note B_, 2
	note E_, 2
	note G#, 2
	note F#, 2
	note G#, 2
	note A_, 2
	note A_, 2
	note F#, 2
	note A_, 2
	note F#, 2
	note G#, 2
	note A_, 2
	note A_, 2
	note F#, 2
	note A_, 2
	note G#, 2
	note E_, 2
	note B_, 2
	note B_, 2
	note E_, 2
	note B_, 2
	note B_, 2
	note E_, 2
	note B_, 2
	note B_, 2
	note E_, 2
	note B_, 2
	note A_, 2
	note B_, 2
	note A_, 2
	octave 4
	note C#, 2
	octave 3
	note B_, 2
	octave 4
	note C#, 2
	note D_, 2
	octave 3
	note B_, 2
	octave 4
	note D_, 2
	note F#, 2
	note E_, 2
	note D#, 2
	note E_, 2
	octave 3
	note B_, 2
	octave 4
	note E_, 2
	note E_, 2
	octave 3
	note B_, 2
	octave 4
	note E_, 2
	note E_, 2
	octave 3
	note B_, 2
	octave 4
	note E_, 2
	note E_, 2
	octave 3
	note B_, 2
	octave 4
	note E_, 2
	loopchannel 0, Music_Routes2_branch_9dc3
	endchannel


Music_Routes2_Ch1::
	vibrato 8, $26
	dutycycle 3

Music_Routes2_branch_9e54::
	notetype 12, $d4
	octave 4
	note E_, 6
	octave 3
	note B_, 1
	octave 4
	note E_, 1
	note F#, 6
	note A_, 2
	note G#, 3
	note E_, 1
	note F#, 8
	octave 3
	note D#, 4
	octave 4
	note E_, 6
	octave 3
	note B_, 1
	octave 4
	note E_, 1
	note F#, 6
	note A_, 2
	note G#, 3
	note E_, 1
	note B_, 8
	octave 3
	note G#, 4
	octave 5
	note C#, 6
	octave 4
	note B_, 1
	note A_, 1
	note B_, 6
	note A_, 1
	note G#, 1
	note A_, 6
	note G#, 1
	note F#, 1
	note G#, 4
	note F#, 2
	note E_, 2
	note D_, 2
	note D_, 1
	note E_, 1
	note F#, 8
	note A_, 4
	note G#, 3
	note F#, 1
	note E_, 8
	note F#, 2
	note E_, 2
	note D_, 2
	note D_, 1
	note E_, 1
	note F#, 2
	note F#, 1
	note G#, 1
	note A_, 4
	octave 5
	note C#, 4
	octave 4
	note B_, 3
	note A_, 1
	note G#, 8
	note __, 4
	loopchannel 0, Music_Routes2_branch_9e54
	endchannel


Music_Routes2_Ch2::
	vibrato 9, $28

Music_Routes2_branch_9e9e::
	notetype 12, $11
	octave 3
	note E_, 2
	note __, 2
	octave 2
	note B_, 6
	octave 3
	note D_, 1
	note C#, 1
	note D_, 2
	note D#, 2
	note E_, 2
	note __, 2
	octave 2
	note B_, 6
	octave 3
	note D_, 1
	note C#, 1
	octave 2
	note A_, 2
	octave 3
	note C#, 2
	note E_, 2
	note __, 2
	octave 2
	note B_, 6
	octave 3
	note D_, 1
	note C#, 1
	note D_, 2
	note D#, 2
	note E_, 2
	note __, 2
	octave 2
	note B_, 4
	octave 3
	note C#, 2
	octave 2
	note B_, 2
	octave 3
	note D_, 2
	note F#, 2
	note E_, 2
	note __, 2
	octave 2
	note A_, 2
	note __, 2
	octave 3
	note D#, 2
	note __, 2
	octave 2
	note G#, 2
	note __, 2
	octave 3
	note C#, 2
	note __, 2
	octave 2
	note F#, 2
	note __, 2
	note B_, 2
	note __, 2
	note E_, 2
	note G#, 2
	note F#, 2
	note __, 2
	note A_, 2
	note __, 2
	note F#, 2
	note __, 2
	note A_, 2
	note __, 2
	note G#, 2
	note __, 2
	note B_, 2
	note __, 2
	note G#, 2
	note __, 2
	note B_, 2
	note __, 2
	note F#, 2
	note __, 2
	note A_, 2
	note __, 2
	octave 3
	note C#, 2
	note __, 2
	octave 2
	note A_, 2
	octave 3
	note C#, 2
	octave 2
	note B_, 2
	note __, 2
	octave 3
	note E_, 2
	note __, 2
	note G#, 2
	note __, 2
	note E_, 2
	note __, 2
	loopchannel 0, Music_Routes2_branch_9e9e
	endchannel


Music_Routes2_Ch3::
	togglenoise 0
	notetype 12
	note D_, 2
	note __, 2
	note D_, 1
	note __, 5
	note D_, 1
	note D_, 1
	note D_, 2
	note D_, 2
	note D_, 2
	note __, 2
	notetype 8
	note D_, 2
	note D_, 2
	note D_, 2
	note D_, 3
	note D_, 3
	notetype 12
	note D_, 1
	note __, 3
	note D_, 2
	note __, 2
	note D_, 2
	note __, 4
	note D_, 1
	note D_, 1
	note D_, 2
	note __, 2
	note D_, 2
	note __, 2
	notetype 8
	note D_, 2
	note D_, 2
	note D_, 2
	note D_, 3
	note D_, 3
	note D_, 2
	note D_, 2
	note D_, 2
	note D_, 3
	note __, 3
	notetype 12
	note D_, 1
	note __, 5
	note D_, 1
	note D_, 1
	note D_, 2
	note D_, 2
	note D_, 2
	note __, 2
	notetype 8
	note D_, 2
	note D_, 2
	note D_, 2
	note D_, 3
	note __, 3
	notetype 12
	note D_, 1
	note __, 3
	note D_, 2
	note __, 2
	note D_, 2
	note __, 4
	note D_, 1
	note D_, 1
	note D_, 2
	note D_, 2
	note D_, 2
	note __, 2
	notetype 8
	note D_, 2
	note D_, 2
	note D_, 2
	note D_, 3
	note __, 3
	note D_, 3
	note D_, 3
	note D_, 3
	note __, 3
	notetype 12
	note D_, 1
	note __, 5
	note D_, 1
	note D_, 1
	note D_, 2
	note D_, 2
	note D_, 2
	note __, 2
	notetype 8
	note D_, 2
	note D_, 2
	note D_, 2
	note D_, 3
	note __, 3
	note D_, 3
	note __, 3
	loopchannel 0, Music_Routes2_Ch3
	endchannel
