Music_SilphCo::
	musicheader 3, 1, Music_SilphCo_Ch0
	musicheader 1, 2, Music_SilphCo_Ch1
	musicheader 1, 3, Music_SilphCo_Ch2

Music_SilphCo_Ch0::
	tempo 160
	volume $77
	dutycycle 3
	;toggleperfectpitch
	vibrato 8, $22
	notetype 6, $b3
	octave 2
	note E_, 1
	note F#, 1
	note G#, 1
	note A#, 1
	octave 3
	note C_, 1
	notetype 6, $a0
	note C_, 12
	notetype 6, $b3
	note C_, 2
	octave 2
	note B_, 1
	note A#, 1
	note G#, 1
	note F#, 1
	note E_, 1
	note E_, 2
	note __, 2
	note B_, 2
	note __, 6
	note B_, 2
	note __, 6
	note B_, 2
	note __, 6
	note B_, 2
	note __, 2

Music_SilphCo_branch_7f26d::
	note G_, 2
	note __, 2
	note B_, 2
	note __, 6
	note B_, 2
	note __, 6
	note A#, 2
	note __, 6
	note B_, 2
	note __, 6
	note B_, 2
	note __, 6
	note B_, 2
	note __, 2
	octave 3
	note C_, 2
	note __, 2
	note C_, 2
	note __, 6
	note C_, 2
	note __, 6
	note C_, 2
	note __, 6
	note C_, 2
	note __, 6
	octave 2
	note A#, 2
	note __, 6
	note B_, 2
	note __, 2
	note G_, 2
	note __, 10
	note E_, 1
	note F#, 1
	note G#, 1
	note A_, 1
	notetype 6, $a0
	note B_, 12
	notetype 6, $b3
	note B_, 1
	note A_, 1
	note G_, 1
	note F_, 1
	note E_, 1
	note __, 11
	note F_, 1
	note G#, 1
	note A#, 1
	note B_, 1
	notetype 6, $a0
	octave 3
	note C_, 12
	notetype 6, $b3
	note C_, 1
	octave 2
	note B_, 1
	note A_, 1
	note G_, 1
	note F_, 1
	note __, 11
	note F#, 1
	note B_, 1
	octave 3
	note C_, 1
	note C#, 1
	notetype 6, $a0
	note D_, 12
	notetype 6, $b3
	note D_, 1
	note C_, 1
	octave 2
	note A#, 1
	note G_, 1
	note F_, 1
	note __, 11
	note F_, 1
	note G#, 1
	note A#, 1
	note B_, 1
	notetype 6, $a0
	octave 3
	note C_, 12
	notetype 6, $b3
	note C_, 1
	octave 2
	note B_, 1
	note G#, 1
	note F_, 1
	note E_, 1
	note __, 7
	notetype 6, $80
	note B_, 16
	notetype 6, $b0
	octave 3
	note E_, 8
	tempo 124
	notetype 6, $b3
	octave 2
	note B_, 2
	note __, 10
	note B_, 2
	note __, 10
	note B_, 2
	note __, 6
	note B_, 2
	note __, 16
	note __, 6
	note A_, 2
	note __, 6
	note B_, 2
	note A#, 2
	note B_, 2
	octave 3
	note C_, 2
	octave 2
	note B_, 2
	note A#, 2
	note B_, 2
	note A#, 2
	note B_, 2
	octave 3
	note C_, 2
	octave 2
	note B_, 2
	note A#, 2
	note B_, 2
	note A#, 2
	note B_, 2
	octave 3
	note C_, 2
	octave 2
	note B_, 2
	note A#, 2
	note B_, 2
	octave 3
	note C_, 2
	octave 2
	note B_, 2
	note A#, 2
	note B_, 2
	octave 3
	note C_, 2
	octave 2
	note B_, 2
	note A#, 2
	note B_, 2
	note A#, 2
	note A_, 2
	note A#, 2
	note B_, 2
	note A#, 2
	callchannel Music_SilphCo_branch_7f3f0
	callchannel Music_SilphCo_branch_7f3f0
	callchannel Music_SilphCo_branch_7f3f0
	note __, 4
	note C_, 2
	note __, 6
	note C_, 2
	note __, 6
	note C_, 2
	note __, 6
	octave 2
	note B_, 2
	note __, 6
	note B_, 2
	note __, 6
	note B_, 2
	note __, 6
	note B_, 2
	note __, 6
	note A#, 2
	note __, 6
	note A_, 2
	note __, 6
	note A_, 2
	note __, 6
	note A_, 2
	note __, 6
	note A_, 2
	note __, 6
	note A_, 2
	note __, 6
	note A_, 2
	note __, 6
	note A#, 2
	note __, 6
	note A#, 2
	note __, 6
	note B_, 2
	note __, 6
	note B_, 2
	note __, 6
	note B_, 2
	note __, 6
	note B_, 2
	note __, 6
	note B_, 2
	note __, 6
	note B_, 2
	note __, 6
	octave 3
	note C_, 2
	note __, 6
	note C_, 2
	note __, 6
	octave 2
	note B_, 2
	note __, 6
	note B_, 2
	note __, 6
	note B_, 2
	note __, 6
	note B_, 2
	note __, 6
	octave 3
	note B_, 2
	note __, 6
	note B_, 2
	note __, 6
	octave 4
	note C_, 2
	note __, 6
	note C_, 2
	note __, 6
	octave 2
	note B_, 2
	note __, 6
	note B_, 2
	note __, 6
	note B_, 2
	note __, 6
	note B_, 2
	note __, 6
	octave 4
	note E_, 2
	note __, 6
	note E_, 2
	note __, 6
	note D#, 2
	note __, 6
	note D#, 2
	note __, 2
	octave 2
	note B_, 1
	note A#, 1
	note G#, 1
	note F#, 1
	note E_, 1
	notetype 6, $60
	note E_, 16
	note E_, 11
	notetype 6, $b3
	note E_, 1
	note F#, 1
	note G#, 1
	note A#, 1
	octave 3
	note C_, 1
	notetype 6, $3f
	note C_, 16
	notetype 6, $a0
	note C_, 11
	notetype 6, $93
	octave 2
	note B_, 1
	note A#, 1
	note G#, 1
	note F#, 1
	note E_, 1
	notetype 6, $3f
	note E_, 16
	notetype 6, $90
	note E_, 11
	notetype 6, $b3
	note F_, 1
	note G_, 1
	note A#, 1
	octave 3
	note C_, 1
	note D_, 1
	notetype 6, $3f
	note D_, 16
	notetype 6, $a7
	note D_, 11
	note __, 4
	note __, 4
	tempo 128
	note __, 4
	note __, 4
	tempo 136
	note __, 4
	note __, 4
	tempo 144
	note __, 4
	note __, 4
	tempo 160
	note __, 4
	note __, 4
	tempo 192
	note __, 4
	note __, 4
	tempo 288
	note __, 4
	note __, 4
	tempo 416
	note __, 4
	tempo 1024
	note __, 4
	tempo 160
	note __, 4
	notetype 6, $43
	octave 2
	note B_, 2
	note __, 6
	notetype 6, $63
	note B_, 2
	note __, 6
	notetype 6, $83
	note B_, 2
	note __, 6
	notetype 6, $50
	note B_, 8
	notetype 6, $b3
	note B_, 2
	note __, 6
	note B_, 2
	note __, 6
	note B_, 2
	note __, 6
	note B_, 2
	note __, 2
	loopchannel 0, Music_SilphCo_branch_7f26d

Music_SilphCo_branch_7f3f0::
	octave 2
	note B_, 2
	note A#, 2
	note B_, 2
	octave 3
	note C_, 2
	octave 2
	note B_, 2
	note A#, 2
	note B_, 2
	octave 3
	note C_, 2
	octave 2
	note B_, 2
	note A#, 2
	note B_, 2
	octave 3
	note C_, 2
	octave 2
	note B_, 2
	note A#, 2
	note B_, 2
	octave 3
	note C_, 2
	endchannel


Music_SilphCo_Ch1::
	vibrato 10, $32
	dutycycle 3
	notetype 6, $c3
	octave 3
	note E_, 1
	note F#, 1
	note G#, 1
	note A#, 1
	octave 4
	note C_, 1
	notetype 6, $b0
	note C_, 12
	notetype 6, $c3
	note C_, 2
	octave 3
	note B_, 1
	note A#, 1
	note G#, 1
	note F#, 1
	note E_, 1
	note E_, 2
	note __, 2
	octave 2
	note G_, 2
	note __, 6
	note F#, 2
	note __, 6
	note G_, 2
	note __, 6
	note G#, 2
	note __, 2

Music_SilphCo_branch_7f42e::
	note E_, 2
	note __, 2
	note G_, 2
	note __, 6
	note G_, 2
	note __, 6
	note G_, 2
	note __, 6
	note F#, 2
	note __, 6
	note G_, 2
	note __, 6
	note G#, 2
	note __, 2
	note E_, 2
	note __, 2
	note G#, 2
	note __, 6
	note G#, 2
	note __, 6
	note G#, 2
	note __, 6
	note G#, 2
	note __, 6
	note G#, 2
	note __, 6
	note G#, 2
	note __, 2
	notetype 6, $b7
	dutycycle 2
	octave 4
	note E_, 8
	note D#, 8
	note E_, 8
	note F_, 8
	note E_, 8
	note D#, 8
	note D_, 8
	note D#, 8
	note E_, 8
	note F_, 8
	note F#, 8
	note G_, 8
	note G#, 8
	note D#, 8
	note D_, 8
	note D#, 8
	dutycycle 3
	notetype 6, $6f
	note E_, 16
	notetype 6, $c0
	note B_, 16
	notetype 6, $c4
	octave 3
	note E_, 4
	note D#, 4
	note E_, 4
	note F_, 4
	note E_, 4
	note D#, 4
	note D_, 4
	note D#, 4
	note E_, 4
	note F_, 4
	note F#, 4
	note G_, 4
	note G#, 4
	note D#, 4
	note D_, 4
	note D#, 4
	notetype 6, $c2
	dutycycle 1
	octave 4
	note E_, 4
	note D#, 4
	note E_, 4
	note F_, 4
	note E_, 4
	note D#, 4
	note D_, 4
	note D#, 4
	note E_, 4
	notetype 6, $c4
	dutycycle 3
	octave 3
	note F_, 4
	note F#, 4
	note G_, 4
	note G#, 4
	note D#, 4
	note D_, 4
	note D#, 4
	note E_, 4
	note D#, 4
	note E_, 4
	notetype 6, $c0
	note F_, 8
	notetype 6, $b7
	note F_, 8
	notetype 6, $8a
	note F_, 4
	notetype 6, $c4
	dutycycle 3
	note F_, 4
	note E_, 4
	note F_, 4
	notetype 6, $a0
	note F#, 8
	notetype 6, $b0
	note F#, 8
	notetype 6, $99
	note F#, 4
	notetype 6, $c4
	note F#, 4
	note F_, 4
	note F#, 4
	notetype 6, $90
	note G_, 12
	notetype 6, $59
	note G_, 8
	notetype 6, $c4
	note G_, 4
	note F#, 4
	note G_, 4
	note F#, 4
	note F_, 4
	note F#, 4
	note F_, 4
	note E_, 4
	note F_, 4
	note E_, 4
	note D#, 4
	note D_, 4
	note C#, 4
	note D_, 4
	note D#, 4
	note D_, 4
	notetype 6, $c2
	dutycycle 1
	note F_, 4
	note F#, 4
	note G_, 4
	note G#, 4
	note A_, 4
	notetype 6, $b4
	dutycycle 3
	note D#, 4
	note D_, 4
	note D#, 4
	notetype 6, $c2
	dutycycle 1
	note F_, 4
	note F#, 4
	note G_, 4
	note G#, 4
	note A#, 4
	notetype 6, $b4
	dutycycle 3
	note D#, 4
	note D_, 4
	note D#, 4
	notetype 6, $c2
	dutycycle 1
	note F_, 4
	note F#, 4
	note G_, 4
	note G#, 4
	note B_, 4
	notetype 6, $b4
	dutycycle 3
	note D#, 4
	note D_, 4
	note D#, 4
	notetype 6, $c2
	dutycycle 1
	note F_, 4
	note F#, 4
	note G_, 4
	note G#, 4
	octave 4
	note C_, 4
	notetype 6, $b4
	dutycycle 3
	octave 3
	note D#, 4
	note D_, 4
	note D#, 4
	note __, 4
	note G_, 2
	note __, 6
	note G_, 2
	note __, 6
	note G_, 2
	note __, 6
	note G_, 2
	note __, 2
	dutycycle 0
	octave 4
	note E_, 2
	note __, 2
	note G#, 2
	note __, 6
	note G#, 2
	note __, 6
	note G#, 2
	note __, 6
	note G#, 2
	note __, 6
	dutycycle 3
	octave 3
	note G_, 2
	note __, 6
	note G_, 2
	note __, 6
	note G_, 2
	note __, 6
	note G_, 2
	note __, 2
	dutycycle 0
	octave 4
	note E_, 2
	note __, 2
	note B_, 2
	note __, 6
	note B_, 2
	note __, 6
	note B_, 2
	note __, 6
	note B_, 2
	note __, 2
	dutycycle 3
	octave 3
	note G_, 2
	note __, 2
	note G_, 2
	note __, 2
	note B_, 2
	note __, 2
	note G_, 2
	note __, 2
	note B_, 2
	note __, 2
	note G_, 2
	note __, 2
	note B_, 2
	note __, 2
	note G_, 2
	note __, 2
	octave 4
	note C_, 2
	note __, 2
	octave 3
	note G_, 2
	note __, 2
	octave 4
	note C_, 2
	note __, 2
	octave 3
	note G_, 2
	note __, 2
	octave 4
	note C_, 2
	note __, 2
	octave 3
	note G_, 2
	note __, 2
	octave 4
	note C_, 2
	note __, 2
	octave 3
	note G_, 2
	note __, 2
	note B_, 2
	note __, 2
	note G_, 2
	note __, 2
	note B_, 2
	note __, 2
	note G_, 2
	note __, 2
	note B_, 2
	note __, 2
	note G_, 2
	note __, 2
	note E_, 2
	note __, 2
	note G_, 2
	note __, 2
	octave 4
	note C_, 2
	note __, 2
	octave 3
	note G_, 2
	note __, 2
	note E_, 2
	note __, 2
	note G_, 2
	note __, 2
	note B_, 2
	note __, 2
	note G_, 2
	note __, 2
	octave 4
	note C_, 2
	note __, 2
	octave 3
	note G_, 2
	note __, 2
	notetype 6, $87
	octave 5
	note E_, 4
	note D#, 4
	note E_, 4
	note F_, 4
	note E_, 4
	note D#, 4
	note D_, 4
	note D#, 4
	note E_, 4
	note F_, 4
	note F#, 4
	note G_, 4
	note G#, 4
	note D#, 4
	note D_, 4
	note D#, 4
	note __, 4
	notetype 6, $43
	octave 2
	note G_, 2
	note __, 6
	notetype 6, $63
	note F#, 2
	note __, 6
	notetype 6, $83
	note G_, 2
	note __, 6
	notetype 6, $4f
	note G#, 8
	notetype 6, $b4
	note G_, 2
	note __, 6
	note F#, 2
	note __, 6
	note G_, 2
	note __, 6
	note G#, 2
	note __, 2
	loopchannel 0, Music_SilphCo_branch_7f42e


Music_SilphCo_Ch2::
	vibrato 8, $11
	notetype 12, $11
	note __, 12
	octave 5
	note E_, 4
	note D#, 4
	note E_, 4
	note F_, 4

Music_SilphCo_branch_7f5c9::
	note E_, 4
	note D#, 4
	note D_, 4
	note D#, 4
	note E_, 4
	note F_, 4
	note F#, 4
	note G_, 4
	note G#, 4
	note D#, 4
	note D_, 4
	note D#, 4
	note E_, 1
	note __, 1
	note G_, 1
	note __, 3
	note F#, 1
	note __, 3
	note G_, 1
	note __, 3
	note G#, 1
	note __, 1
	note E_, 1
	note __, 1
	note G_, 1
	note __, 3
	note G#, 1
	note __, 3
	note G_, 1
	note __, 3
	note F#, 1
	note __, 3
	note G_, 1
	note __, 3
	note G#, 1
	note __, 1
	note F_, 1
	note __, 1
	note G#, 1
	note __, 3
	note G#, 1
	note __, 3
	note G_, 1
	note __, 3
	note G#, 1
	note __, 1
	note E_, 1
	note __, 1
	note G#, 1
	note __, 3
	note G_, 1
	note __, 3
	note G_, 1
	note __, 3
	note G_, 1
	note __, 3
	note G_, 1
	note __, 3
	note G_, 1
	note __, 1
	octave 4
	note E_, 1
	note __, 5
	note F_, 1
	note __, 5
	note F_, 1
	note __, 3
	note E_, 1
	note __, 11
	note D#, 1
	note __, 3
	note E_, 1
	note __, 5
	note F_, 1
	note __, 5
	note F_, 1
	note __, 3
	note E_, 1
	note __, 11
	note D#, 1
	note __, 3
	note E_, 1
	note __, 1
	note F_, 1
	note __, 3
	note F_, 1
	note __, 3
	note F_, 1
	note __, 3
	note F_, 1
	note __, 1
	note F_, 1
	note __, 1
	note F#, 1
	note __, 3
	note F#, 1
	note __, 3
	note F#, 1
	note __, 3
	note F#, 1
	note __, 1
	note F#, 1
	note __, 1
	note G_, 1
	note __, 3
	note G_, 1
	note __, 3
	note G_, 1
	note __, 3
	note G_, 1
	note __, 3
	note G_, 1
	note __, 3
	note F#, 1
	note __, 3
	note F_, 1
	note __, 3
	note E_, 1
	note __, 3
	note F_, 1
	note __, 3
	note E_, 1
	note __, 3
	note D#, 1
	note __, 3
	note D_, 1
	note __, 1
	note D_, 8
	note F_, 8
	note D_, 8
	note F#, 8
	note D_, 8
	note G_, 8
	note D_, 8
	note A_, 8
	note E_, 4
	note D#, 4
	note E_, 4
	note F_, 4
	octave 5
	note E_, 2
	note D#, 2
	note E_, 2
	note F_, 2
	note E_, 2
	note D#, 2
	note D_, 2
	note D#, 2
	octave 4
	note E_, 4
	note D#, 4
	note E_, 4
	note F_, 4
	octave 5
	note E_, 2
	note F_, 2
	note F#, 2
	note G_, 2
	note G#, 2
	note D#, 2
	note D_, 2
	note D#, 2
	octave 6
	note E_, 4
	note D#, 4
	note E_, 4
	note F_, 4
	note E_, 4
	note D#, 4
	note D_, 4
	note D#, 4
	note E_, 4
	note F_, 4
	note F#, 4
	note G_, 4
	note G#, 4
	note D#, 4
	note D_, 4
	note D#, 4
	notetype 6, $11
	note __, 4
	note __, 4
	note __, 4
	note __, 4
	note __, 4
	note __, 4
	note __, 4
	note __, 4
	note __, 4
	note __, 4
	note __, 4
	note __, 4
	note __, 4
	note __, 4
	note __, 4
	note __, 4
	notetype 12, $11
	note __, 4
	note __, 4
	note __, 4
	note __, 4
	octave 5
	note E_, 4
	note D#, 4
	note E_, 4
	note F_, 4
	loopchannel 0, Music_SilphCo_branch_7f5c9
