Music_SSAnne::
	musicheader 3, 1, Music_SSAnne_Ch0
	musicheader 1, 2, Music_SSAnne_Ch1
	musicheader 1, 3, Music_SSAnne_Ch2

Music_SSAnne_Ch0::
	tempo 128
	volume $77
	dutycycle 1
	vibrato 8, $34
	;toggleperfectpitch

Music_SSAnne_branch_b3b2::
	notetype 12, $a4
	note __, 12
	octave 3
	note E_, 2
	note F#, 2
	note E_, 4
	note D_, 4
	note C#, 2
	note D_, 2
	note E_, 2
	note __, 2
	note E_, 4
	note F#, 2
	note D_, 2
	note E_, 4
	note F#, 4
	note G#, 4
	note __, 4
	note E_, 4
	note G#, 4
	note __, 4
	note C#, 2
	note E_, 2
	note F#, 4
	note D_, 4
	note E_, 4
	note D_, 4
	note C#, 2
	note D_, 2
	note E_, 2
	note __, 2
	note E_, 4
	note F#, 2
	note D_, 2
	note E_, 4
	note F#, 4
	note G#, 4
	note F#, 4
	note E_, 4
	note F#, 4
	note __, 4
	note C#, 2
	note E_, 2
	note F#, 4
	note D_, 4
	note E_, 4
	note D_, 4
	note C#, 2
	note D_, 2
	note E_, 2
	note __, 2
	note E_, 4
	note F#, 2
	note D_, 2
	note E_, 4
	note F#, 4
	note G#, 4
	note F#, 8
	note G#, 4
	note E_, 4
	note __, 4
	note E_, 4
	note F#, 2
	note E_, 2
	note D_, 4
	note __, 4
	note D_, 4
	note E_, 4
	note C#, 4
	note __, 4
	note C#, 4
	note D_, 2
	note C#, 2
	octave 2
	note B_, 4
	note E_, 4
	note B_, 4
	octave 3
	note D_, 2
	octave 2
	note B_, 2
	note A_, 4
	note __, 4
	note A_, 4
	note B_, 2
	note A_, 2
	note G#, 4
	note __, 4
	note C#, 4
	note G#, 4
	note A_, 4
	note __, 4
	note A_, 4
	note B_, 4
	note B_, 4
	note __, 4
	octave 3
	note D_, 8
	loopchannel 0, Music_SSAnne_branch_b3b2


Music_SSAnne_Ch1::
	dutycycle 0
	vibrato 12, $24

Music_SSAnne_branch_b41e::
	notetype 12, $c5
	octave 3
	note A_, 2
	note E_, 2
	note A_, 4
	note B_, 4
	octave 4
	note D_, 4
	notetype 8, $c5
	note C#, 2
	note D_, 2
	note C#, 2
	octave 3
	note B_, 3
	note A_, 3
	note B_, 6
	note G#, 6
	note A_, 3
	note B_, 3
	octave 4
	note C#, 6
	note D_, 6
	note C#, 3
	octave 3
	note B_, 3
	octave 4
	note E_, 6
	note D_, 3
	note C#, 3
	octave 3
	note B_, 6
	octave 4
	note C#, 3
	octave 3
	note B_, 3
	note A_, 3
	note E_, 3
	note A_, 6
	note B_, 6
	octave 4
	note D_, 6
	note C#, 2
	note D_, 2
	note C#, 2
	octave 3
	note B_, 3
	note A_, 3
	note B_, 6
	note G#, 6
	note A_, 3
	note B_, 3
	octave 4
	note C#, 6
	note D_, 6
	note C#, 3
	octave 3
	note B_, 3
	octave 4
	note E_, 6
	note D_, 3
	note C#, 3
	octave 3
	note B_, 12
	note A_, 3
	note E_, 3
	note A_, 6
	note B_, 6
	octave 4
	note D_, 6
	note C#, 2
	note D_, 2
	note C#, 2
	octave 3
	note B_, 3
	note A_, 3
	note B_, 6
	note G#, 6
	note A_, 3
	note B_, 3
	octave 4
	note C#, 6
	note D_, 6
	note C#, 3
	octave 3
	note B_, 3
	octave 4
	note E_, 6
	note D_, 3
	note C#, 3
	octave 3
	note B_, 12
	note __, 3
	octave 4
	note C#, 3
	octave 3
	note B_, 3
	octave 4
	note C#, 3
	note C#, 3
	note D_, 3
	note C#, 3
	note D_, 3
	note E_, 3
	octave 3
	note B_, 3
	note G#, 3
	note F#, 3
	note E_, 3
	note F#, 3
	note G#, 3
	note B_, 3
	note __, 3
	note A_, 3
	note G#, 3
	note A_, 3
	note A_, 3
	note B_, 3
	note A_, 3
	note B_, 3
	octave 4
	note C#, 3
	octave 3
	note G#, 3
	note F#, 3
	note E_, 3
	note E_, 3
	note F#, 3
	note G#, 3
	note B_, 3
	note __, 3
	note F#, 3
	note E_, 3
	note F#, 3
	note F#, 3
	note G#, 3
	note F#, 3
	note G#, 3
	note A_, 3
	note E_, 3
	note C#, 3
	octave 2
	note B_, 3
	note A_, 3
	note B_, 3
	octave 3
	note C#, 3
	note E_, 3
	note __, 3
	note F#, 3
	note E_, 3
	note F#, 3
	note F#, 3
	note G#, 3
	note A_, 3
	note B_, 3
	octave 4
	note C#, 3
	note D_, 3
	note C#, 3
	octave 3
	note B_, 3
	octave 4
	note E_, 3
	note D_, 3
	note C#, 3
	octave 3
	note B_, 3
	loopchannel 0, Music_SSAnne_branch_b41e


Music_SSAnne_Ch2::
	notetype 12, $13
	note __, 16
	note __, 12
	octave 4
	note B_, 2
	note G#, 2
	note A_, 8
	note F#, 8
	note G#, 4
	note __, 4
	note B_, 8
	note A_, 8
	note B_, 8
	note A_, 8
	note G#, 8
	note A_, 8
	note F#, 8
	note G#, 8
	note B_, 8
	note A_, 4
	note E_, 4
	note B_, 4
	note E_, 4
	note A_, 4
	note E_, 4
	note G#, 4
	note E_, 4
	note A_, 4
	note E_, 4
	note F#, 4
	note G_, 4
	note G#, 4
	note A_, 4
	octave 5
	note D_, 8
	note C#, 8
	note C#, 8
	octave 4
	note B_, 8
	note B_, 8
	note A_, 8
	note A_, 8
	note G#, 8
	note G#, 8
	note F#, 8
	note F#, 8
	note E_, 8
	note E_, 8
	note F#, 8
	note F#, 8
	note G#, 8
	note B_, 8
	loopchannel 0, Music_SSAnne_Ch2
