Music_TrainerBattle::
	musicheader 3, 1, Music_TrainerBattle_Ch0
	musicheader 1, 2, Music_TrainerBattle_Ch1
	musicheader 1, 3, Music_TrainerBattle_Ch2

Music_TrainerBattle_Ch0::
	tempo 112
	volume $77
	dutycycle 3
	vibrato 6, $34
	;toggleperfectpitch
	notetype 12, $b2
	note __, 8
	octave 3
	note F_, 1
	note E_, 1
	note F_, 1
	note E_, 1
	note D#, 1
	note E_, 1
	note D#, 1
	note D_, 1
	note D#, 1
	note D_, 1
	note C#, 1
	note D_, 1
	note C#, 1
	note C_, 1
	note C#, 1
	note C_, 1
	octave 2
	note B_, 1
	octave 3
	note C_, 1
	octave 2
	note B_, 1
	note A#, 1
	note B_, 1
	note A#, 1
	note A_, 1
	note A#, 1
	octave 3
	note D_, 6
	note E_, 6
	note F_, 4
	note D_, 2
	note E_, 4
	note F_, 6
	note C_, 4
	note D_, 6
	note E_, 6
	note F_, 4
	note D_, 2
	note E_, 4
	note F_, 6
	note C_, 2
	note C#, 2
	note D_, 6
	note E_, 6
	note F_, 4
	note D_, 2
	note E_, 4
	note F_, 6
	note C_, 4
	note D_, 6
	note E_, 6
	note F_, 4
	note D_, 2
	note E_, 4
	note F_, 6
	note C_, 2
	note C#, 2

Music_TrainerBattle_branch_22962::
	notetype 12, $b5
	note D_, 2
	note E_, 4
	note C#, 2
	note D_, 4
	octave 2
	note B_, 4
	note F#, 4
	octave 3
	note E_, 2
	note D_, 4
	note C#, 2
	note D_, 2
	note E_, 2
	note F_, 8
	notetype 12, $b2
	note C_, 1
	note C#, 1
	note D_, 1
	note D#, 1
	note E_, 1
	note D#, 1
	note D_, 1
	note C_, 1
	note C_, 1
	note C#, 1
	note D_, 1
	note D#, 1
	note E_, 1
	note F_, 1
	note F#, 1
	note G_, 1
	note G#, 1
	note G_, 1
	note F#, 1
	note F_, 1
	note E_, 1
	note D#, 1
	note D_, 1
	note C_, 1
	notetype 12, $b5
	note D_, 2
	note E_, 4
	note C#, 2
	note D_, 4
	octave 2
	note B_, 4
	note F#, 4
	octave 3
	note E_, 2
	note D_, 4
	note C#, 2
	octave 2
	note B_, 2
	octave 3
	note C#, 2
	notetype 12, $a7
	note D_, 8
	note C#, 8
	octave 2
	note B_, 8
	octave 3
	note C#, 8
	notetype 12, $b5
	note D_, 2
	note C#, 2
	octave 2
	note B_, 2
	note A_, 2
	note G_, 2
	note __, 2
	octave 3
	note D_, 2
	note C#, 2
	octave 2
	note B_, 2
	note A_, 2
	note G_, 2
	note __, 2
	octave 3
	note D_, 2
	note C#, 2
	octave 2
	note B_, 2
	octave 3
	note C#, 2
	note E_, 4
	octave 2
	note G_, 1
	note A_, 1
	note B_, 1
	octave 3
	note C#, 1
	note D_, 4
	octave 2
	note F#, 1
	note G_, 1
	note A_, 1
	note B_, 1
	octave 3
	note C#, 4
	octave 2
	note G_, 1
	note A_, 1
	note B_, 1
	octave 3
	note C#, 1
	note D_, 4
	octave 2
	note F#, 1
	note G_, 1
	note A_, 1
	note B_, 1
	octave 3
	note D_, 2
	note C#, 2
	octave 2
	note B_, 2
	note A_, 2
	note G_, 2
	note __, 2
	octave 3
	note D_, 2
	note C#, 2
	octave 2
	note B_, 2
	note A_, 2
	note B_, 2
	note G_, 2
	octave 3
	note D_, 2
	note E_, 2
	note F#, 2
	note G_, 2
	note A_, 2
	note B_, 2
	note A_, 2
	note G_, 2
	note A_, 2
	note __, 2
	note A_, 2
	note B_, 2
	note A_, 2
	note G_, 2
	note F#, 2
	note G_, 2
	note A_, 2
	note E_, 2
	note G_, 2
	note F#, 2
	octave 2
	note B_, 1
	octave 3
	note C_, 1
	note C#, 1
	note D_, 1
	note D#, 1
	note E_, 1
	note F_, 1
	note F#, 1
	note G_, 1
	note G#, 1
	note A_, 1
	note A#, 1
	note B_, 1
	octave 4
	note C_, 1
	note C#, 1
	note D_, 1
	note D#, 1
	note D_, 1
	note C#, 1
	note C_, 1
	octave 3
	note B_, 1
	note A#, 1
	note A_, 1
	note G#, 1
	note G_, 1
	note F#, 1
	note F_, 1
	note E_, 1
	note D#, 1
	note D_, 1
	note C#, 1
	note C_, 1
	note C_, 1
	note C#, 1
	note D_, 1
	note D#, 1
	note E_, 1
	note F_, 1
	note F#, 1
	note G_, 1
	note G#, 1
	note A_, 1
	note A#, 1
	note B_, 1
	octave 4
	note C_, 1
	note C#, 1
	note D_, 1
	note D#, 1
	note E_, 1
	note D#, 1
	note D_, 1
	note C#, 1
	note C_, 1
	octave 3
	note B_, 1
	note A#, 1
	note A_, 1
	note G#, 1
	note G_, 1
	note F#, 1
	note F_, 1
	note E_, 1
	note D#, 1
	note D_, 1
	note C#, 1
	note C#, 1
	note D_, 1
	note D#, 1
	note E_, 1
	note F_, 1
	note F#, 1
	note G_, 1
	note G#, 1
	note A_, 1
	note A#, 1
	note B_, 1
	octave 4
	note C_, 1
	note C#, 1
	note D_, 1
	note D#, 1
	note E_, 1
	note F_, 1
	note E_, 1
	note D#, 1
	note D_, 1
	note C#, 1
	note C_, 1
	octave 3
	note B_, 1
	note A#, 1
	note A_, 1
	note G#, 1
	note G_, 1
	note F#, 1
	note F_, 1
	note E_, 1
	note D#, 1
	note D_, 1
	note D_, 1
	note D#, 1
	note E_, 1
	note F_, 1
	note F#, 1
	note G_, 1
	note G#, 1
	note A_, 1
	note A#, 1
	note B_, 1
	octave 4
	note C_, 1
	note C#, 1
	note D_, 1
	note D#, 1
	note E_, 1
	note F_, 1
	note F#, 1
	note F_, 1
	note E_, 1
	note D#, 1
	note D_, 1
	note C#, 1
	note C_, 1
	octave 3
	note B_, 1
	note A#, 1
	note B_, 1
	octave 4
	note C_, 1
	note C#, 1
	note D_, 1
	note D#, 1
	note E_, 1
	note F_, 1
	octave 3
	note A_, 4
	octave 4
	note D_, 4
	octave 3
	note A_, 2
	note D_, 1
	note E_, 1
	note F#, 1
	note G_, 1
	note G#, 1
	note A#, 1
	note B_, 2
	octave 4
	note C_, 2
	octave 3
	note A_, 2
	octave 4
	note C_, 2
	octave 3
	note G_, 2
	note B_, 2
	note F_, 2
	note G_, 2
	note A_, 2
	octave 4
	note C_, 2
	note D_, 2
	note __, 2
	octave 3
	note A_, 4
	octave 4
	note C_, 4
	note D_, 2
	octave 3
	note F_, 1
	note G_, 1
	note A_, 1
	note B_, 1
	octave 4
	note C_, 1
	note D_, 1
	note E_, 2
	note F_, 2
	note D_, 2
	note F_, 2
	note D_, 2
	note F_, 2
	note D_, 2
	note F_, 2
	note D_, 2
	note F_, 2
	note D_, 2
	note F_, 2
	note E_, 2
	note F_, 2
	note E_, 2
	note F_, 2
	note E_, 2
	note F_, 2
	note E_, 2
	note F_, 2
	note E_, 2
	note F_, 2
	note E_, 2
	note F_, 2
	note E_, 2
	note F_, 2
	note E_, 2
	octave 3
	note B_, 2
	note C_, 2
	octave 2
	note A_, 2
	octave 3
	note E_, 2
	note C_, 2
	octave 2
	note A_, 2
	octave 3
	note E_, 2
	note C_, 2
	octave 2
	note A_, 2
	octave 3
	note E_, 2
	note C_, 2
	octave 2
	note A_, 2
	octave 3
	note E_, 2
	note C_, 2
	octave 2
	note A_, 2
	octave 3
	note C_, 2
	note E_, 2
	note D_, 2
	octave 2
	note A#, 2
	octave 3
	note F_, 2
	note D_, 2
	octave 2
	note A#, 2
	octave 3
	note F_, 2
	note D_, 2
	octave 2
	note A#, 2
	octave 3
	note F_, 2
	note D_, 2
	octave 2
	note A#, 2
	octave 3
	note F_, 2
	note D_, 2
	octave 2
	note A#, 2
	octave 3
	note D_, 2
	note F_, 2
	note C_, 2
	octave 2
	note A_, 2
	octave 3
	note E_, 2
	note C_, 2
	octave 2
	note A_, 2
	octave 3
	note E_, 2
	note C_, 2
	octave 2
	note A_, 2
	octave 3
	note E_, 2
	note C_, 2
	octave 2
	note A_, 2
	octave 3
	note E_, 2
	note C_, 2
	octave 2
	note A_, 2
	octave 3
	note C_, 2
	note E_, 2
	note D_, 2
	octave 2
	note A#, 2
	octave 3
	note F_, 2
	note D_, 2
	octave 2
	note A#, 2
	octave 3
	note F_, 2
	note D_, 2
	octave 2
	note A#, 2
	octave 3
	note F_, 2
	note D_, 2
	octave 2
	note A#, 2
	octave 3
	note F_, 2
	note D_, 2
	octave 2
	note A#, 2
	octave 3
	note D_, 2
	note F_, 2
	note D_, 16
	note C_, 16
	octave 2
	note A#, 16
	note G_, 12
	octave 3
	note D_, 1
	note E_, 1
	note G_, 1
	octave 4
	note C_, 1
	note D_, 8
	note F_, 8
	octave 3
	note A#, 8
	octave 4
	note C_, 8
	note D_, 8
	note E_, 8
	note F_, 8
	note G_, 8
	note E_, 2
	note __, 4
	note E_, 2
	note __, 4
	note E_, 2
	note __, 2
	note E_, 2
	note __, 4
	note E_, 2
	note __, 4
	note E_, 2
	note __, 2
	note E_, 2
	note __, 4
	note E_, 2
	note __, 4
	note E_, 2
	note __, 2
	note E_, 2
	note __, 4
	note E_, 2
	note __, 4
	note E_, 2
	note __, 2
	octave 3
	note C_, 2
	note D_, 4
	octave 2
	note B_, 2
	octave 3
	note C#, 4
	note __, 2
	note C#, 1
	note D_, 1
	note E_, 1
	note __, 1
	note D_, 1
	note __, 1
	octave 2
	note B_, 1
	note __, 1
	octave 3
	note C#, 1
	note __, 9
	note D_, 1
	note D#, 1
	note E_, 1
	note F_, 1
	note F_, 1
	note E_, 1
	note D#, 1
	note D_, 1
	note C#, 1
	note __, 5
	note C#, 1
	note D_, 1
	note E_, 1
	note __, 1
	note F_, 1
	note __, 1
	note E_, 1
	note __, 1
	note D_, 1
	note __, 1
	note D_, 2
	note E_, 2
	note F_, 2
	note G_, 2
	note D#, 1
	note E_, 1
	note F_, 1
	note F#, 1
	note F#, 1
	note F_, 1
	note E_, 1
	note D#, 1
	note D_, 1
	note __, 9
	note F#, 2
	note E_, 4
	note D#, 2
	note E_, 2
	note F#, 2
	note G#, 2
	note E_, 8
	note F#, 8
	note G_, 8
	octave 4
	note C_, 4
	octave 3
	note G_, 1
	note G#, 1
	note A_, 1
	note A#, 1
	loopchannel 0, Music_TrainerBattle_branch_22962


Music_TrainerBattle_Ch1::
	dutycycle 3
	vibrato 10, $25
	notetype 12, $c2
	octave 4
	note A_, 1
	note G#, 1
	note G_, 1
	note F#, 1
	note A_, 1
	note F_, 1
	note F#, 1
	note F_, 1
	note A_, 1
	note E_, 1
	note F_, 1
	note E_, 1
	note A_, 1
	note D#, 1
	note E_, 1
	note D#, 1
	note A_, 1
	note D_, 1
	note D#, 1
	note D_, 1
	note A_, 1
	note C#, 1
	note D_, 1
	note C#, 1
	note A_, 1
	note C_, 1
	note C#, 1
	note C_, 1
	note A_, 1
	octave 3
	note B_, 1
	octave 4
	note C_, 1
	octave 3
	note B_, 1
	notetype 12, $e1
	octave 4
	note B_, 16
	note __, 16
	notetype 12, $d1
	note B_, 16
	note __, 12
	note A_, 4
	notetype 12, $c2
	octave 3
	note B_, 6
	octave 4
	note C#, 6
	note D_, 4
	octave 3
	note B_, 2
	octave 4
	note C#, 4
	note D_, 6
	note A_, 2
	note A#, 2
	note B_, 6
	octave 5
	note C#, 6
	note D_, 4
	octave 4
	note B_, 2
	octave 5
	note C#, 4
	note D_, 6
	octave 4
	note A_, 4

Music_TrainerBattle_branch_22bfc::
	notetype 12, $c7
	octave 3
	note B_, 6
	note F#, 14
	note B_, 4
	note F#, 4
	note B_, 4
	notetype 12, $50
	octave 4
	note C_, 8
	notetype 12, $30
	note C_, 8
	notetype 12, $4e
	note C_, 8
	notetype 12, $c7
	note C_, 8
	octave 3
	note B_, 6
	note F#, 14
	note B_, 4
	note F#, 4
	note B_, 4
	notetype 12, $90
	note A_, 8
	notetype 12, $50
	note A_, 8
	notetype 12, $40
	note A_, 8
	notetype 12, $30
	note A_, 8
	notetype 12, $c7
	note G_, 16
	octave 4
	note D_, 8
	octave 3
	note G_, 8
	notetype 12, $80
	note A_, 8
	notetype 12, $50
	note A_, 8
	notetype 12, $40
	note A_, 8
	notetype 12, $60
	note A_, 8
	notetype 12, $c7
	note G_, 16
	octave 4
	note E_, 8
	note F#, 8
	note E_, 16
	notetype 12, $c5
	note G_, 4
	note A_, 2
	note G_, 2
	note F#, 2
	note E_, 2
	note D_, 2
	note E_, 2
	notetype 12, $b7
	note F#, 8
	notetype 12, $50
	note F#, 8
	notetype 12, $60
	note F#, 8
	notetype 12, $70
	note F#, 8
	notetype 12, $a0
	note G_, 8
	notetype 12, $a7
	note G_, 8
	notetype 12, $b7
	note G_, 4
	notetype 12, $c5
	note A_, 2
	note G_, 2
	note G_, 2
	note F#, 2
	note E_, 2
	note F#, 2
	notetype 12, $a0
	note G#, 8
	notetype 12, $70
	note G#, 8
	notetype 12, $80
	note G#, 8
	notetype 12, $60
	note G#, 8
	notetype 12, $a0
	note A_, 16
	notetype 12, $b0
	octave 5
	note C#, 8
	note E_, 8
	notetype 12, $c0
	note D_, 4
	octave 4
	note A_, 4
	octave 5
	note C_, 2
	notetype 12, $c7
	octave 4
	note B_, 8
	notetype 12, $60
	note B_, 8
	notetype 12, $69
	note B_, 6
	notetype 12, $96
	note B_, 6
	note __, 2
	notetype 12, $c0
	octave 5
	note D_, 4
	octave 4
	note A_, 4
	note A#, 2
	notetype 12, $b0
	octave 5
	note F_, 14
	notetype 12, $60
	note G_, 16
	notetype 12, $50
	note E_, 16
	notetype 12, $40
	note E_, 16
	notetype 12, $c7
	octave 4
	note C_, 6
	octave 3
	note A_, 14
	octave 4
	note C_, 4
	octave 3
	note A_, 4
	octave 4
	note C_, 4
	octave 3
	note A#, 6
	octave 4
	note F_, 14
	octave 3
	note A#, 4
	octave 4
	note F_, 4
	note D_, 4
	note C_, 6
	octave 3
	note A_, 14
	octave 4
	note C_, 4
	note E_, 2
	note D_, 2
	note C_, 2
	note E_, 2
	note D_, 2
	octave 3
	note A#, 4
	octave 4
	note F_, 10
	note G_, 6
	note F_, 6
	note D_, 4
	notetype 12, $b0
	note F_, 16
	note E_, 16
	note D_, 16
	note E_, 16
	notetype 12, $a0
	octave 5
	note F_, 16
	note E_, 16
	note G_, 16
	note F_, 16
	notetype 12, $d1
	octave 3
	note A#, 6
	note A#, 6
	note A#, 4
	note A_, 6
	note A_, 6
	note A_, 4
	octave 4
	note C_, 6
	note C_, 6
	note C_, 4
	octave 3
	note A#, 6
	note A#, 6
	note A_, 4
	notetype 12, $c7
	note A_, 4
	note B_, 4
	note G_, 2
	note A_, 10
	note B_, 2
	octave 4
	note C#, 2
	note E_, 2
	note D_, 2
	note C#, 2
	octave 3
	note B_, 2
	note A#, 16
	note __, 2
	note A#, 2
	octave 4
	note C_, 2
	note F_, 2
	note E_, 2
	note D_, 2
	note C_, 2
	octave 3
	note A#, 2
	note B_, 16
	note __, 2
	note B_, 2
	octave 4
	note C#, 2
	note G_, 2
	note F#, 2
	note E_, 2
	note D_, 2
	octave 3
	note B_, 2
	octave 4
	note C_, 16
	note E_, 8
	note G_, 8
	loopchannel 0, Music_TrainerBattle_branch_22bfc


Music_TrainerBattle_Ch2::
	vibrato 0, $20
	notetype 12, $14
	octave 3
	note B_, 1
	note A#, 1
	note A_, 1
	note G#, 1
	note A_, 1
	note G#, 1
	note G_, 1
	note F#, 1
	note G_, 1
	note F#, 1
	note F_, 1
	note E_, 1
	note F_, 1
	note E_, 1
	note D#, 1
	note D_, 1
	note D#, 1
	note D_, 1
	note C#, 1
	note C_, 1
	note C#, 1
	note C_, 1
	octave 2
	note B_, 1
	note A#, 1
	note B_, 1
	note A#, 1
	note A_, 1
	note G#, 1
	note A_, 2
	note A#, 2
	note B_, 2
	note B_, 2
	octave 3
	note D_, 2
	note E_, 2
	octave 2
	note B_, 2
	octave 3
	note F_, 2
	note E_, 2
	note D_, 2
	octave 2
	note B_, 2
	note B_, 2
	octave 3
	note D_, 2
	note E_, 2
	octave 2
	note B_, 2
	octave 3
	note D_, 2
	octave 2
	note A#, 2
	octave 3
	note C_, 2
	octave 2
	note B_, 2
	note B_, 2
	octave 3
	note D_, 2
	note E_, 2
	octave 2
	note B_, 2
	octave 3
	note F_, 2
	note E_, 2
	note D_, 2
	octave 2
	note B_, 2
	note B_, 2
	octave 3
	note D_, 2
	note E_, 2
	octave 2
	note B_, 2
	octave 3
	note D_, 2
	octave 2
	note A#, 2
	octave 3
	note C_, 2
	octave 2
	note B_, 2
	note B_, 2
	octave 3
	note D_, 2
	note E_, 2
	octave 2
	note B_, 2
	octave 3
	note F_, 2
	note E_, 2
	note D_, 2
	octave 2
	note B_, 2
	note B_, 2
	octave 3
	note D_, 2
	note E_, 2
	octave 2
	note B_, 2
	octave 3
	note D_, 2
	octave 2
	note A#, 2
	octave 3
	note C_, 2
	octave 2
	note B_, 2
	note B_, 2
	octave 3
	note D_, 2
	note E_, 2
	octave 2
	note B_, 2
	octave 3
	note F_, 2
	note E_, 2
	note D_, 2
	octave 2
	note B_, 2
	note B_, 2
	octave 3
	note D_, 2
	note E_, 2
	octave 2
	note B_, 2
	octave 3
	note D_, 2
	octave 2
	note A#, 2
	octave 3
	note C_, 2

Music_TrainerBattle_branch_22d9c::
	octave 2
	note A#, 1
	note B_, 1
	octave 3
	note F#, 2
	octave 2
	note B_, 2
	octave 3
	note F#, 2
	octave 2
	note B_, 2
	octave 3
	note F#, 2
	octave 2
	note B_, 2
	octave 3
	note F#, 2
	octave 2
	note B_, 2
	octave 3
	note F#, 2
	octave 2
	note B_, 2
	octave 3
	note F#, 2
	octave 2
	note B_, 2
	octave 3
	note F#, 2
	octave 2
	note B_, 2
	octave 3
	note F#, 2
	octave 2
	note B_, 2
	octave 3
	note G_, 2
	note C_, 2
	note G_, 2
	note C_, 2
	note G_, 2
	note C_, 2
	note G_, 2
	note C_, 2
	note G_, 2
	note A_, 2
	note G_, 2
	note F#, 2
	note E_, 2
	note D_, 2
	note C_, 2
	octave 2
	note B_, 2
	octave 3
	note F#, 2
	octave 2
	note B_, 2
	octave 3
	note F#, 2
	octave 2
	note B_, 2
	octave 3
	note F#, 2
	octave 2
	note B_, 2
	octave 3
	note F#, 2
	octave 2
	note B_, 2
	octave 3
	note F#, 2
	octave 2
	note B_, 2
	octave 3
	note F#, 2
	octave 2
	note B_, 2
	octave 3
	note F#, 2
	octave 2
	note B_, 2
	octave 3
	note F_, 2
	octave 2
	note A_, 2
	octave 3
	note E_, 2
	octave 2
	note A_, 2
	octave 3
	note E_, 2
	octave 2
	note A_, 2
	octave 3
	note E_, 2
	octave 2
	note A_, 2
	octave 3
	note E_, 2
	octave 2
	note A_, 2
	octave 3
	note E_, 2
	note D_, 2
	note C#, 2
	note D_, 2
	note C#, 2
	octave 2
	note A_, 2
	note G#, 2
	note G_, 2
	octave 3
	note D_, 2
	octave 2
	note G_, 2
	octave 3
	note D_, 2
	octave 2
	note G_, 2
	octave 3
	note D_, 2
	octave 2
	note G_, 2
	octave 3
	note D_, 2
	octave 2
	note G_, 2
	octave 3
	note D_, 2
	octave 2
	note G_, 2
	octave 3
	note D_, 2
	octave 2
	note G_, 2
	octave 3
	note D_, 2
	octave 2
	note G_, 2
	note G#, 2
	note A_, 2
	octave 3
	note E_, 2
	octave 2
	note A_, 2
	octave 3
	note E_, 2
	octave 2
	note A_, 2
	octave 3
	note E_, 2
	octave 2
	note A_, 2
	octave 3
	note E_, 2
	octave 2
	note A_, 2
	octave 3
	note E_, 2
	octave 2
	note A_, 2
	octave 3
	note E_, 2
	octave 2
	note A_, 2
	octave 3
	note E_, 2
	octave 2
	note A_, 2
	octave 3
	note E_, 2
	octave 2
	note G_, 2
	octave 3
	note D_, 2
	octave 2
	note G_, 2
	octave 3
	note D_, 2
	octave 2
	note G_, 2
	octave 3
	note D_, 2
	octave 2
	note G_, 2
	octave 3
	note D_, 2
	octave 2
	note G_, 2
	octave 3
	note D_, 2
	octave 2
	note G_, 2
	octave 3
	note D_, 2
	octave 2
	note G_, 2
	octave 3
	note D_, 2
	octave 2
	note G_, 2
	note G#, 2
	note A_, 2
	octave 3
	note E_, 2
	octave 2
	note A_, 2
	octave 3
	note E_, 2
	octave 2
	note A_, 2
	octave 3
	note E_, 2
	octave 2
	note A_, 2
	octave 3
	note E_, 2
	octave 2
	note A_, 2
	octave 3
	note E_, 2
	octave 2
	note A_, 2
	octave 3
	note E_, 2
	octave 2
	note A_, 2
	octave 3
	note E_, 2
	note D_, 2
	note C#, 2
	octave 2
	note B_, 2
	octave 3
	note F#, 2
	octave 2
	note B_, 2
	octave 3
	note F#, 2
	octave 2
	note B_, 2
	octave 3
	note F#, 2
	octave 2
	note B_, 2
	octave 3
	note F#, 2
	octave 2
	note B_, 2
	octave 3
	note F#, 2
	note D_, 2
	note E_, 2
	note F#, 2
	note E_, 2
	note D_, 2
	note F#, 2
	note C_, 2
	note G_, 2
	note C_, 2
	note G_, 2
	note C_, 2
	note G_, 2
	note C_, 2
	note G_, 2
	note C_, 2
	note G_, 2
	note D#, 2
	note F_, 2
	note G_, 2
	note F_, 2
	note D#, 2
	note G_, 2
	note C#, 2
	note G#, 2
	note C#, 2
	note G#, 2
	note C#, 2
	note G#, 2
	note C#, 2
	note G#, 2
	note C#, 2
	note G#, 2
	note E_, 2
	note F#, 2
	note G#, 2
	note F#, 2
	note E_, 2
	note G#, 2
	note D_, 2
	note A_, 2
	note D_, 2
	note A_, 2
	note D_, 2
	note A_, 2
	note D_, 2
	note A_, 2
	note D_, 2
	note A_, 2
	note F_, 2
	note G_, 2
	note A_, 2
	note G_, 2
	note F_, 2
	note E_, 2
	note D_, 4
	octave 2
	note A_, 4
	octave 3
	note C_, 2
	note G_, 2
	octave 2
	note B_, 2
	octave 3
	note G_, 2
	octave 2
	note B_, 2
	octave 3
	note G_, 2
	octave 2
	note B_, 2
	octave 3
	note G_, 2
	octave 2
	note B_, 2
	octave 3
	note G_, 2
	octave 2
	note B_, 2
	octave 3
	note G_, 2
	octave 2
	note B_, 2
	octave 3
	note G_, 2
	octave 2
	note B_, 2
	octave 3
	note G_, 2
	note D_, 4
	octave 2
	note A_, 4
	note A#, 2
	octave 3
	note F_, 2
	octave 2
	note A#, 2
	octave 3
	note F_, 2
	octave 2
	note A#, 2
	octave 3
	note F_, 2
	octave 2
	note A#, 2
	octave 3
	note F_, 2
	octave 2
	note A#, 2
	octave 3
	note F_, 2
	octave 2
	note A#, 2
	octave 3
	note F_, 2
	octave 2
	note A#, 2
	octave 3
	note F_, 2
	octave 2
	note A#, 2
	octave 3
	note F_, 2
	octave 2
	note B_, 2
	octave 3
	note E_, 2
	octave 2
	note B_, 2
	octave 3
	note E_, 2
	octave 2
	note B_, 2
	octave 3
	note E_, 2
	octave 2
	note B_, 2
	octave 3
	note E_, 2
	octave 2
	note B_, 2
	octave 3
	note E_, 2
	octave 2
	note B_, 2
	octave 3
	note E_, 2
	octave 2
	note B_, 2
	octave 3
	note E_, 2
	octave 2
	note B_, 2
	octave 3
	note E_, 2
	octave 2
	note A_, 2
	octave 3
	note E_, 2
	octave 2
	note A_, 2
	octave 3
	note E_, 2
	octave 2
	note A_, 2
	octave 3
	note E_, 2
	octave 2
	note A_, 2
	octave 3
	note E_, 2
	octave 2
	note A_, 2
	octave 3
	note E_, 2
	octave 2
	note A_, 2
	octave 3
	note E_, 2
	octave 2
	note A_, 2
	octave 3
	note E_, 2
	octave 2
	note A_, 2
	octave 3
	note E_, 2
	octave 2
	note A#, 2
	octave 3
	note F_, 2
	octave 2
	note A#, 2
	octave 3
	note F_, 2
	octave 2
	note A#, 2
	octave 3
	note F_, 2
	octave 2
	note A#, 2
	octave 3
	note F_, 2
	octave 2
	note A#, 2
	octave 3
	note F_, 2
	octave 2
	note A#, 2
	octave 3
	note F_, 2
	octave 2
	note A#, 2
	octave 3
	note F_, 2
	octave 2
	note A#, 2
	octave 3
	note F_, 2
	octave 2
	note A_, 2
	octave 3
	note E_, 2
	octave 2
	note A_, 2
	octave 3
	note E_, 2
	octave 2
	note A_, 2
	octave 3
	note E_, 2
	octave 2
	note A_, 2
	octave 3
	note E_, 2
	octave 2
	note A_, 2
	octave 3
	note E_, 2
	octave 2
	note A_, 2
	octave 3
	note E_, 2
	octave 2
	note A_, 2
	octave 3
	note E_, 2
	octave 2
	note A_, 2
	octave 3
	note E_, 2
	octave 2
	note A#, 2
	octave 3
	note F_, 2
	octave 2
	note A#, 2
	octave 3
	note F_, 2
	octave 2
	note A#, 2
	octave 3
	note F_, 2
	octave 2
	note A#, 2
	octave 3
	note F_, 2
	octave 2
	note A#, 2
	octave 3
	note F_, 2
	octave 2
	note A#, 2
	octave 3
	note F_, 2
	octave 2
	note A#, 2
	octave 3
	note F_, 2
	octave 2
	note A#, 2
	octave 3
	note F_, 2
	octave 2
	note A#, 4
	octave 3
	note F_, 4
	octave 2
	note A#, 4
	octave 3
	note F_, 4
	octave 2
	note A#, 4
	octave 3
	note E_, 4
	octave 2
	note A#, 4
	octave 3
	note E_, 4
	octave 2
	note A#, 4
	octave 3
	note D_, 4
	octave 2
	note A#, 4
	octave 3
	note D_, 4
	octave 2
	note A#, 4
	octave 3
	note E_, 4
	octave 2
	note A#, 4
	octave 3
	note E_, 4
	octave 2
	note A#, 4
	octave 3
	note F_, 4
	octave 2
	note A#, 4
	octave 3
	note F_, 4
	octave 2
	note A#, 4
	octave 3
	note E_, 4
	octave 2
	note A#, 4
	octave 3
	note E_, 4
	octave 2
	note A#, 4
	octave 3
	note D_, 4
	octave 2
	note A#, 4
	octave 3
	note D_, 4
	octave 2
	note A#, 4
	octave 3
	note E_, 4
	octave 2
	note A#, 4
	octave 3
	note E_, 4
	octave 2
	note A_, 2
	octave 3
	note E_, 2
	note E_, 2
	octave 2
	note A_, 2
	octave 3
	note E_, 2
	note E_, 2
	octave 2
	note A_, 2
	octave 3
	note E_, 2
	note E_, 2
	octave 2
	note A_, 2
	octave 3
	note E_, 2
	note E_, 2
	octave 2
	note A_, 2
	octave 3
	note E_, 2
	note E_, 2
	octave 2
	note B_, 2
	note A_, 2
	octave 3
	note E_, 2
	note E_, 2
	octave 2
	note A_, 2
	octave 3
	note E_, 2
	note E_, 2
	octave 2
	note A_, 2
	octave 3
	note E_, 2
	note E_, 2
	octave 2
	note A_, 2
	octave 3
	note E_, 2
	note E_, 2
	octave 2
	note A_, 2
	octave 3
	note E_, 2
	note E_, 2
	octave 2
	note B_, 2
	note A_, 2
	octave 3
	note E_, 2
	octave 2
	note A_, 2
	octave 3
	note E_, 2
	octave 2
	note A_, 2
	octave 3
	note E_, 2
	octave 2
	note A_, 2
	octave 3
	note E_, 2
	octave 2
	note A_, 2
	octave 3
	note E_, 2
	octave 2
	note A_, 2
	octave 3
	note E_, 2
	octave 2
	note A_, 2
	octave 3
	note E_, 2
	octave 2
	note A_, 2
	octave 3
	note E_, 2
	octave 2
	note A#, 2
	octave 3
	note F_, 2
	octave 2
	note A#, 2
	octave 3
	note F_, 2
	octave 2
	note A#, 2
	octave 3
	note F_, 2
	octave 2
	note A#, 2
	octave 3
	note F_, 2
	octave 2
	note A#, 2
	octave 3
	note F_, 2
	octave 2
	note A#, 2
	octave 3
	note F_, 2
	octave 2
	note A#, 2
	octave 3
	note F_, 2
	octave 2
	note A#, 2
	octave 3
	note F_, 2
	octave 2
	note B_, 2
	octave 3
	note F#, 2
	octave 2
	note B_, 2
	octave 3
	note F#, 2
	octave 2
	note B_, 2
	octave 3
	note F#, 2
	octave 2
	note B_, 2
	octave 3
	note F#, 2
	octave 2
	note B_, 2
	octave 3
	note F#, 2
	octave 2
	note B_, 2
	octave 3
	note F#, 2
	octave 2
	note B_, 2
	octave 3
	note F#, 2
	octave 2
	note B_, 2
	octave 3
	note F#, 2
	note C_, 2
	note G_, 2
	note C_, 2
	note G_, 2
	note C_, 2
	note G_, 2
	note C_, 2
	note G_, 2
	note C_, 2
	note G_, 2
	note F#, 2
	note E_, 2
	note F#, 2
	note E_, 2
	note D_, 2
	note C_, 2
	loopchannel 0, Music_TrainerBattle_branch_22d9c
