Music_UnusedSong:
	dbw $40, Music_UnusedSong_Ch1
	dbw $01, Music_UnusedSong_Ch2

Music_UnusedSong_Ch1: ; a913 (2:6913)
	tempo 144
	volume 119
	vibrato 5, 22

Music_UnusedSong_branch_a91b:
	notetype 12, 16
	octave 6
	note E_, 1
	note __, 1
	octave 5
	note B_, 1
	note __, 1
	octave 6
	note C#, 1
	note __, 1
	octave 5
	note B_, 1
	octave 6
	note E_, 1
	note __, 4
	note E_, 2
	note __, 2
	note D#, 1
	note __, 1
	octave 5
	note B_, 1
	note __, 1
	octave 6
	note C#, 1
	note __, 1
	octave 5
	note B_, 1
	octave 6
	note D#, 1
	note __, 8
	note C#, 1
	note __, 1
	note D#, 1
	note __, 1
	note C#, 1
	octave 5
	note B_, 1
	note __, 2
	octave 6
	note C#, 1
	note __, 1
	note D#, 1
	note __, 1
	note C#, 1
	octave 5
	note B_, 1
	note __, 2
	octave 6
	note D#, 4
	note C#, 4
	note D#, 1
	note E_, 1
	note __, 1
	note F#, 1
	note __, 1
	octave 5
	note B_, 2
	note __, 1
	octave 6
	note E_, 1
	note __, 1
	octave 5
	note B_, 1
	note __, 1
	octave 6
	note C#, 1
	note __, 1
	octave 5
	note B_, 1
	octave 6
	note E_, 1
	note __, 8
	note D#, 1
	note __, 1
	octave 5
	note B_, 1
	note __, 1
	octave 6
	note C#, 1
	note __, 1
	octave 5
	note B_, 1
	octave 6
	note D#, 1
	note __, 4
	octave 5
	note B_, 2
	note __, 2
	octave 6
	note C#, 1
	note __, 1
	note D#, 1
	note __, 1
	note C#, 1
	octave 5
	note B_, 1
	note __, 2
	octave 6
	note C#, 1
	note __, 1
	note D#, 1
	note __, 1
	note E_, 1
	note F#, 1
	note __, 2
	note F#, 4
	note E_, 4
	note F#, 1
	note G#, 1
	note __, 1
	note F#, 1
	note __, 1
	note D#, 2
	note __, 3
	octave 5
	note A_, 2
	note __, 2
	note B_, 2
	note __, 2
	octave 6
	note C#, 2
	note __, 2
	note E_, 2
	note F#, 8
	note __, 2
	note E_, 2
	note D#, 2
	note C#, 2
	note __, 2
	octave 5
	note G#, 2
	note __, 2
	note A_, 2
	note __, 2
	note B_, 2
	note __, 2
	octave 6
	note D#, 2
	note E_, 8
	note __, 2
	note D#, 2
	note C#, 2
	note D#, 2
	octave 5
	note A_, 2
	note G#, 2
	note A_, 2
	note A#, 1
	note B_, 1
	note __, 4
	note F#, 2
	note __, 2
	note B_, 2
	note A#, 2
	note B_, 2
	octave 6
	note C_, 1
	note C#, 1
	note __, 8
	octave 5
	note F#, 2
	note F_, 2
	note F#, 2
	note G#, 2
	note A_, 2
	octave 6
	note E_, 2
	note D#, 2
	note C#, 2
	octave 5
	note B_, 2
	note __, 6
	note B_, 2
	note __, 6
	loopchannel 0, Music_UnusedSong_branch_a91b
	endchannel


Music_UnusedSong_Ch2: ; a9cf (2:69cf)
	tempo 144
	volume 119
	
	vibrato 6, 21

Music_UnusedSong_branch_a9d8:
	notetype 12, 16
	octave 6
	note E_, 1
	note __, 1
	note G#, 1
	note __, 1
	note F#, 1
	note __, 1
	note A_, 1
	note G#, 1
	note __, 8
	note D#, 1
	note __, 1
	note F#, 1
	note __, 1
	note E_, 1
	note __, 1
	note G#, 1
	note F#, 1
	note __, 4
	octave 5
	note B_, 2
	note __, 2
	octave 6
	note C#, 1
	note __, 1
	note D#, 1
	note __, 1
	note E_, 1
	note F#, 1
	note __, 2
	note C#, 1
	note __, 1
	note D#, 1
	note __, 1
	note E_, 1
	note F#, 1
	note __, 2
	note F#, 4
	note E_, 4
	note F#, 1
	note G#, 1
	note __, 1
	note F#, 1
	note __, 1
	note D#, 2
	note __, 1
	note E_, 1
	note __, 1
	note G#, 1
	note __, 1
	note F#, 1
	note __, 1
	note A_, 1
	note G#, 1
	note __, 4
	note E_, 2
	note __, 2
	note D#, 1
	note __, 1
	note F#, 1
	note __, 1
	note E_, 1
	note __, 1
	note G#, 1
	note F#, 1
	note __, 8
	note C#, 1
	note __, 1
	note D#, 1
	note __, 1
	note E_, 1
	note F#, 1
	note __, 2
	note C#, 1
	note __, 1
	note D#, 1
	note __, 1
	note E_, 1
	note F#, 1
	note __, 2
	note F#, 4
	note E_, 4
	note F#, 1
	note G#, 1
	note __, 1
	note B_, 1
	note __, 1
	note F#, 2
	note __, 1
	note C#, 2
	note __, 2
	note D#, 2
	note __, 2
	note E_, 2
	note __, 2
	note G#, 2
	note __, 2
	note D#, 8
	note __, 2
	note E_, 2
	note D#, 2
	note C#, 2
	octave 5
	note B_, 2
	note __, 2
	octave 6
	note C#, 2
	note __, 2
	note D#, 2
	note __, 2
	note F#, 2
	note __, 2
	note C#, 8
	note __, 2
	note D#, 2
	note C#, 2
	octave 5
	note B_, 2
	note A_, 2
	note G#, 2
	note A_, 2
	note G#, 1
	note F#, 1
	note __, 8
	note B_, 2
	note A#, 2
	note B_, 2
	note A_, 1
	note G#, 1
	note __, 4
	note G#, 2
	note __, 2
	note F#, 2
	note F_, 2
	note F#, 2
	note G#, 2
	note A_, 2
	note E_, 2
	note C#, 2
	note E_, 2
	note F#, 2
	note __, 6
	note D#, 2
	note __, 6
	loopchannel 0, Music_UnusedSong_branch_a9d8
	endchannel
; 0xaa6f