Music_WildBattle::
	musicheader 3, 1, Music_WildBattle_Ch0
	musicheader 1, 2, Music_WildBattle_Ch1
	musicheader 1, 3, Music_WildBattle_Ch2

Music_WildBattle_Ch0::
	tempo 104
	volume $77
	dutycycle 3
	vibrato 6, $34
	;toggleperfectpitch
	notetype 12, $b3
	octave 4
	note C_, 1
	octave 3
	note B_, 1
	note A#, 1
	note A_, 1
	note A#, 1
	note A_, 1
	note G#, 1
	note G_, 1
	note G#, 1
	note G_, 1
	note F#, 1
	note F_, 1
	note F#, 1
	note F_, 1
	note E_, 1
	note D#, 1
	note E_, 1
	note D#, 1
	note D_, 1
	note C#, 1
	note D_, 1
	note C#, 1
	note C_, 1
	octave 2
	note B_, 1
	octave 3
	note C_, 1
	octave 2
	note B_, 1
	note A#, 1
	note A_, 1
	note A#, 1
	note B_, 1
	octave 3
	note C_, 1
	note C#, 1
	notetype 12, $b1
	note G_, 6
	note E_, 6
	note D#, 12
	note C#, 14
	note E_, 6
	note D#, 10
	notetype 12, $4f
	note C#, 10
	notetype 12, $b1
	note G_, 6
	note E_, 6
	note D#, 12
	note C#, 14
	note E_, 6
	note D#, 10
	note C#, 10

Music_WildBattle_branch_230e0::
	notetype 12, $b3
	note C#, 1
	note D_, 1
	note C#, 1
	note C_, 1
	note C#, 1
	note D_, 1
	note C#, 1
	note C_, 1
	note C#, 1
	note D_, 1
	note D#, 1
	note D_, 1
	note C#, 1
	note C_, 1
	octave 2
	note B_, 1
	octave 3
	note C_, 1
	note C#, 1
	note D_, 1
	note D#, 1
	note D_, 1
	note C#, 1
	note D_, 1
	note D#, 1
	note D_, 1
	note C#, 1
	note D_, 1
	note D#, 1
	note E_, 1
	note F_, 1
	note E_, 1
	note D#, 1
	note D_, 1
	note C#, 1
	note D_, 1
	note D#, 1
	note E_, 1
	note F_, 1
	note F#, 1
	note G_, 1
	note G#, 1
	note A_, 1
	note G#, 1
	note G_, 1
	note F#, 1
	note F_, 1
	note E_, 1
	note D#, 1
	note D_, 1
	note C#, 1
	note D_, 1
	note D#, 1
	note E_, 1
	note F_, 1
	note F#, 1
	note G_, 1
	note F#, 1
	note F_, 1
	note E_, 1
	note D#, 1
	note E_, 1
	note F_, 1
	note F#, 1
	note G_, 1
	note G#, 1
	note A_, 1
	note D_, 1
	note D#, 1
	note E_, 1
	note D#, 1
	note D_, 1
	note C#, 1
	note D_, 1
	note D#, 1
	note E_, 1
	note D#, 1
	note D_, 1
	note C#, 1
	note D_, 1
	note D#, 1
	note E_, 1
	note D#, 1
	note D_, 1
	note C#, 1
	note D_, 1
	note D#, 1
	note E_, 1
	note D#, 1
	note D_, 1
	note C#, 1
	note D_, 1
	note D#, 1
	note E_, 1
	note F_, 1
	note F#, 1
	note F_, 1
	note E_, 1
	note D#, 1
	note D_, 1
	note D#, 1
	note E_, 1
	note D#, 1
	note D_, 1
	note C#, 1
	note D_, 1
	note D#, 1
	note E_, 1
	note D#, 1
	note D_, 1
	note C#, 1
	note D_, 1
	note D#, 1
	note E_, 1
	note D#, 1
	note D_, 1
	note C#, 1
	note D_, 1
	note D#, 1
	note E_, 1
	note D#, 1
	note D_, 1
	note C#, 1
	note D_, 1
	note D#, 1
	note E_, 1
	note F_, 1
	note F#, 1
	note F_, 1
	note E_, 1
	note C#, 1
	note D_, 1
	note D#, 1
	note E_, 1
	note F_, 1
	note F#, 1
	note G_, 1
	note G#, 1
	note A_, 1
	note G#, 1
	note G_, 1
	note F#, 1
	note F_, 1
	note E_, 1
	note D#, 1
	note D_, 1
	note C#, 1
	note D_, 1
	note D#, 1
	note E_, 1
	note F_, 1
	note F#, 1
	note G_, 1
	note G#, 1
	note A_, 1
	note G#, 1
	note G_, 1
	note F#, 1
	note F_, 1
	note E_, 1
	note D#, 1
	note D_, 1
	note C#, 1
	note D_, 1
	note D#, 1
	note E_, 1
	note F_, 1
	note F#, 1
	note G_, 1
	note G#, 1
	note A_, 1
	note G#, 1
	note G_, 1
	note F#, 1
	note F_, 1
	note E_, 1
	note D#, 1
	note D_, 1
	note C#, 1
	note D_, 1
	note D#, 1
	note E_, 1
	note F_, 1
	note F#, 1
	note G_, 1
	note F#, 1
	note F_, 1
	note E_, 1
	note D#, 1
	note E_, 1
	note F_, 1
	note F#, 1
	note G_, 1
	note G#, 1
	notetype 12, $b5
	note D_, 4
	note C_, 4
	note D_, 4
	note F_, 4
	note E_, 6
	note D_, 6
	note F_, 4
	notetype 12, $b7
	note A_, 16
	note G_, 16
	notetype 12, $b5
	note D_, 4
	note C_, 4
	note D_, 4
	note F_, 4
	note G_, 6
	note A_, 6
	note B_, 4
	notetype 12, $b7
	octave 4
	note C_, 16
	notetype 12, $3f
	note G_, 16
	notetype 12, $b5
	octave 3
	note C_, 12
	note C_, 2
	note __, 2
	note D_, 2
	note C_, 2
	note __, 12
	note C#, 12
	note C#, 2
	note __, 2
	note F_, 2
	notetype 12, $a3
	note D#, 6
	notetype 12, $a7
	note C#, 8
	loopchannel 0, Music_WildBattle_branch_230e0


Music_WildBattle_Ch1::
	dutycycle 3
	vibrato 8, $25
	notetype 12, $c3
	octave 4
	note G_, 1
	note F#, 1
	note F_, 1
	octave 5
	note G_, 1
	octave 4
	note G_, 1
	note F#, 1
	note F_, 1
	octave 5
	note G_, 1
	octave 4
	note G_, 1
	note F#, 1
	note F_, 1
	octave 5
	note G_, 1
	octave 4
	note G_, 1
	note F#, 1
	note F_, 1
	octave 5
	note G_, 1
	octave 4
	note G_, 1
	note F#, 1
	note F_, 1
	octave 5
	note G_, 1
	octave 4
	note G_, 1
	note F#, 1
	note F_, 1
	octave 5
	note G_, 1
	octave 4
	note G_, 1
	note F#, 1
	note F_, 1
	octave 5
	note G_, 1
	octave 4
	note G_, 1
	note F#, 1
	note F_, 1
	octave 5
	note G_, 1
	notetype 12, $c2
	octave 4
	note G_, 6
	octave 3
	note G_, 6
	note G_, 12
	note G_, 14
	note G_, 6
	note G_, 10
	notetype 12, $90
	note F#, 10
	notetype 12, $c2
	note G_, 6
	note G_, 6
	note G_, 12
	note G_, 14
	note G_, 6
	note G_, 10
	note G_, 10

Music_WildBattle_branch_23225::
	notetype 12, $c5
	note G_, 6
	note F#, 6
	note E_, 4
	note G_, 6
	note A_, 6
	note G_, 4
	octave 4
	note G#, 12
	note G_, 2
	note __, 2
	note G#, 2
	note G_, 2
	note __, 4
	notetype 12, $b7
	octave 5
	note C#, 8
	notetype 12, $c5
	octave 4
	note C_, 6
	octave 3
	note A#, 6
	note G#, 4
	octave 4
	note C#, 6
	note C_, 6
	octave 3
	note A#, 4
	octave 4
	note F_, 6
	note E_, 6
	note D_, 4
	notetype 12, $c7
	octave 3
	note A#, 4
	octave 4
	note C_, 4
	note D_, 4
	note F_, 4
	notetype 12, $c0
	note G#, 16
	notetype 12, $b0
	note G#, 16
	notetype 12, $4e
	note G_, 16
	notetype 12, $c7
	note G_, 16
	octave 3
	note F_, 8
	note A#, 8
	octave 4
	note D_, 8
	note F_, 8
	notetype 12, $c0
	note E_, 16
	notetype 12, $c7
	note E_, 16
	octave 3
	note F_, 8
	note A#, 8
	octave 4
	note D_, 8
	note F_, 8
	notetype 12, $c0
	note G_, 16
	notetype 12, $3f
	octave 5
	note C_, 16
	notetype 12, $c5
	octave 4
	note E_, 12
	note E_, 2
	note __, 2
	note F_, 2
	notetype 12, $c1
	note E_, 4
	notetype 12, $c5
	note __, 10
	note F_, 12
	note F_, 2
	note __, 2
	note G#, 2
	notetype 12, $a3
	note G_, 6
	notetype 12, $c7
	note F_, 8
	loopchannel 0, Music_WildBattle_branch_23225


Music_WildBattle_Ch2::
	vibrato 0, $20
	notetype 12, $11
	octave 4
	note C#, 1
	note __, 1
	note C#, 1
	note C_, 1
	note D_, 1
	note __, 1
	note D_, 1
	note C_, 1
	note D#, 1
	note __, 1
	note D#, 1
	note C_, 1
	note E_, 1
	note __, 1
	note E_, 1
	note C_, 1
	note F_, 1
	note __, 1
	note F_, 1
	note C_, 1
	note F#, 1
	note __, 1
	note F#, 1
	note C_, 1
	note G_, 1
	note __, 1
	note G_, 1
	note C_, 1
	octave 3
	note A#, 2
	note B_, 2

Music_WildBattle_branch_232b5::
	octave 4
	note C_, 2
	note G_, 2
	note C_, 2
	note G_, 2
	note C_, 2
	note G_, 2
	note C_, 2
	note G_, 2
	note C_, 2
	note G_, 2
	note C_, 2
	note G_, 2
	note C_, 2
	note G_, 2
	note C_, 2
	note G_, 2
	note C#, 2
	note G#, 2
	note C#, 4
	note G#, 2
	note A#, 2
	note G#, 2
	note G_, 2
	note C#, 2
	note G#, 2
	note C#, 4
	note G#, 2
	note A#, 2
	note G#, 2
	note F_, 2
	loopchannel 2, Music_WildBattle_branch_232b5

Music_WildBattle_branch_232d8::
	note C_, 2
	note G_, 2
	note C_, 2
	note G_, 2
	note C_, 2
	note G_, 2
	note C_, 2
	note G_, 2
	note C_, 2
	note G_, 2
	note C_, 2
	note G_, 2
	note C_, 2
	note G_, 2
	note C_, 2
	note G_, 2
	note G#, 12
	note G_, 2
	note __, 2
	note G#, 2
	note G_, 2
	note __, 4
	note F_, 2
	note E_, 2
	note D_, 2
	note C#, 2
	note C_, 2
	note G_, 2
	note C_, 2
	note G_, 2
	note C_, 2
	note G_, 2
	note C_, 2
	note G_, 2
	note C_, 2
	note G_, 2
	note C_, 2
	note G_, 2
	note C_, 2
	note G_, 2
	note C_, 2
	note G_, 2
	note C_, 2
	note G_, 2
	note C_, 2
	note G_, 2
	note C_, 2
	note G_, 2
	note C_, 2
	note G_, 2
	note C_, 2
	note G_, 2
	note C_, 2
	note G_, 2
	note C_, 2
	note G_, 2
	note C_, 2
	note G_, 2
	note C#, 2
	note G#, 2
	note C#, 2
	note G#, 2
	note C#, 2
	note G#, 2
	note C#, 2
	note G#, 2
	note C#, 2
	note G#, 2
	note C#, 2
	note G#, 2
	note C#, 2
	note G#, 2
	note C#, 2
	note G#, 2
	note C_, 2
	note G_, 2
	note C_, 2
	note G_, 2
	note C_, 2
	note G_, 2
	note C_, 2
	note G_, 2
	note C_, 2
	note G_, 2
	note C_, 2
	note G_, 2
	note C_, 2
	note G_, 2
	note C_, 2
	note G_, 2
	octave 3
	note A#, 2
	octave 4
	note F_, 2
	octave 3
	note A#, 2
	octave 4
	note F_, 2
	octave 3
	note A#, 2
	octave 4
	note F_, 2
	octave 3
	note A#, 2
	octave 4
	note F_, 2
	octave 3
	note A#, 2
	octave 4
	note F_, 2
	octave 3
	note A#, 2
	octave 4
	note F_, 2
	octave 3
	note A#, 2
	octave 4
	note F_, 2
	octave 3
	note A#, 2
	octave 4
	note F_, 2
	note C_, 2
	note G_, 2
	note C_, 2
	note G_, 2
	note C_, 2
	note G_, 2
	note C_, 2
	note G_, 2
	note C_, 2
	note G_, 2
	note C_, 2
	note G_, 2
	note C_, 2
	note G_, 2
	note C_, 2
	note G_, 2
	note C_, 2
	note F_, 2
	note C_, 2
	note F_, 2
	note C_, 2
	note F_, 2
	note C_, 2
	note F_, 2
	note C_, 2
	note F_, 2
	note C_, 2
	note F_, 2
	note C_, 2
	note F_, 2
	note C_, 2
	note F_, 2
	note C_, 2
	note G_, 2
	note C_, 2
	note G_, 2
	note C_, 2
	note G_, 2
	note C_, 2
	note G_, 2
	note C_, 2
	note G_, 2
	note C_, 2
	note G_, 2
	note C_, 2
	note G_, 2
	note C_, 2
	note G_, 2
	note C_, 2
	note G_, 2
	note C_, 2
	note G_, 2
	note C_, 2
	note G_, 2
	note C_, 2
	note G_, 2
	note C_, 2
	note G_, 2
	note C_, 2
	note G_, 2
	note C_, 2
	note G_, 2
	note C_, 2
	note G_, 2
	note C#, 2
	note G#, 2
	note C#, 2
	note G#, 2
	note C#, 2
	note G#, 2
	note C#, 2
	note G#, 2
	note C#, 2
	note G#, 2
	note C#, 2
	note G#, 2
	note C#, 2
	note G#, 2
	note C#, 2
	note G#, 2
	loopchannel 0, Music_WildBattle_branch_232d8
