Music_YellowIntro:
	dbw $80, Music_YellowIntro_Ch1
	dbw $01, Music_YellowIntro_Ch2
	dbw $02, Music_YellowIntro_Ch3

Music_YellowIntro_Ch1: 
	ftempo 116
	volume 119
	dutycycle 3
	vibrato $8, $14
	notetype $c, $b2
	octave 3
	note G#, 2
	note B_, 4
	note B_, 4
	note B_, 4
	note B_, 4
	note B_, 4
	note B_, 3
	note A#, 1
	note B_, 2
	note B_, 10
	notetype $c, $b6
	octave 4
	note C#, 1
	note C_, 1
	note C#, 10
	octave 3
	note G#, 1
	note G_, 1
	note G#, 4
	note B_, 4
	octave 4
	note E_, 4
	note F#, 8
	note E_, 8
	octave 3
	note A_, 4
	note B_, 4
	octave 4
	note C#, 4
	octave 3
	note B_, 4
	note G#, 6
	notetype $c, $b2
	note B_, 2
	notetype $c, $b6
	note G#, 6
	notetype $c, $b2
	note B_, 2
	notetype $c, $b6
	octave 4
	note E_, 6
	notetype $c, $b2
	note G#, 2
	notetype $c, $b6
	note E_, 6
	notetype $c, $b2
	note G#, 2
	notetype $c, $b6
	octave 3
	note A_, 4
	note F#, 4
	note A_, 4
	note B_, 4
	note F#, 4
	note G#, 4
	note A_, 2
	note G#, 2
	note F#, 2
	note D#, 2
	notetype $c, $b3
	note B_, 2
	octave 4
	note E_, 4
	note E_, 4
	note E_, 4
	note E_, 2
	note C#, 2
	note F#, 4
	note F#, 3
	note D#, 1
	note F#, 2
	note F#, 8
	notetype $c, $b6
	note F#, 1
	note F_, 1
	note F#, 8
	octave 3
	note B_, 1
	note A#, 1
	note B_, 8
	octave 4
	note F#, 1
	note F_, 1
	note F#, 2
	notetype $c, $b3
	note F#, 1
	note E_, 1
	note D#, 1
	note C#, 1
	notetype $c, $b2
	octave 3
	note B_, 16
	endchannel
Music_YellowIntro_Ch2: 
	dutycycle 2
	vibrato $6, $15
	notetype $c, $c2
	octave 3
	note B_, 2
	octave 4
	note E_, 4
	note E_, 4
	note E_, 4
	note E_, 4
	note E_, 4
	note E_, 3
	note D#, 1
	note E_, 2
	note E_, 4
	notetype $c, $c5
	note G#, 1
	note G_, 1
	note G#, 10
	octave 3
	note B_, 1
	note A#, 1
	note B_, 6
	notetype $c, $c7
	octave 4
	note E_, 4
	note G#, 4
	note B_, 4
	octave 5
	note C#, 16
	octave 4
	note A_, 4
	note G#, 4
	note F#, 4
	note E_, 4
	octave 3
	note B_, 6
	notetype $c, $c2
	octave 4
	note E_, 2
	notetype $c, $c7
	octave 3
	note B_, 6
	notetype $c, $c2
	octave 4
	note E_, 2
	notetype $c, $c7
	note G#, 6
	notetype $c, $c2
	note B_, 2
	notetype $c, $c7
	note G#, 6
	notetype $c, $c2
	note B_, 2
	notetype $c, $c7
	note C#, 4
	octave 3
	note A_, 4
	octave 4
	note C#, 4
	note D#, 4
	note E_, 2
	note D#, 2
	note C#, 2
	note D#, 4
	note D#, 2
	note C#, 2
	octave 3
	note B_, 2
	notetype $c, $c3
	octave 4
	note E_, 2
	note G#, 4
	note G#, 4
	note G#, 4
	note G#, 2
	note F#, 2
	note A_, 4
	note A_, 3
	note F#, 1
	note A_, 2
	note A_, 4
	notetype $c, $c7
	note B_, 1
	note A#, 1
	note B_, 8
	note B_, 1
	note A#, 1
	note B_, 8
	note B_, 1
	note A#, 1
	note B_, 6
	notetype $c, $c3
	note B_, 1
	note A_, 1
	note G#, 1
	note F#, 1
	notetype $c, $c2
	note E_, 16
	endchannel
Music_YellowIntro_Ch3: 
	notetype $c, $10
	octave 4
	note E_, 1
	note __, 1
	note G#, 1
	note __, 1
	octave 3
	note B_, 1
	note __, 1
	octave 4
	note G#, 1
	note __, 1
	note E_, 1
	note __, 1
	note G#, 1
	note __, 1
	octave 3
	note B_, 1
	note __, 1
	octave 4
	note G#, 1
	note __, 1
	note E_, 1
	note __, 1
	note G#, 1
	note __, 1
	octave 3
	note B_, 1
	note __, 1
	octave 4
	note G#, 1
	note __, 1
	note E_, 1
	note __, 1
	octave 3
	note B_, 1
	note __, 1
	octave 4
	note C#, 1
	note __, 1
	note D#, 1
	note __, 1
	note G#, 1
	note __, 1
	note B_, 1
	note __, 1
	note E_, 1
	note __, 1
	note B_, 1
	note __, 1
	note G#, 1
	note __, 1
	note B_, 1
	note __, 1
	note E_, 1
	note __, 1
	note B_, 1
	note __, 1
	note G#, 1
	note __, 1
	note B_, 1
	note __, 1
	note E_, 1
	note __, 1
	note B_, 1
	note __, 1
	note G#, 1
	note __, 1
	note B_, 1
	note __, 1
	note E_, 1
	note __, 1
	note B_, 1
	note __, 1
	note F#, 1
	note __, 1
	note A_, 1
	note __, 1
	note C#, 1
	note __, 1
	note A_, 1
	note __, 1
	note F#, 1
	note __, 1
	note A_, 1
	note __, 1
	note C#, 1
	note __, 1
	note A_, 1
	note __, 1
	note A_, 1
	note __, 1
	octave 5
	note C#, 1
	note __, 1
	octave 4
	note F#, 1
	note __, 1
	octave 5
	note C#, 1
	note __, 1
	octave 4
	note A_, 1
	note __, 1
	octave 5
	note C#, 1
	note __, 1
	octave 4
	note F#, 1
	note __, 1
	octave 5
	note C#, 1
	note __, 1
	octave 4
	note B_, 1
	note __, 1
	octave 5
	note E_, 1
	note __, 1
	octave 4
	note G#, 1
	note __, 1
	octave 5
	note E_, 1
	note __, 1
	octave 4
	note B_, 1
	note __, 1
	octave 5
	note E_, 1
	note __, 1
	octave 4
	note G#, 1
	note __, 1
	octave 5
	note E_, 1
	note __, 1
	octave 4
	note G#, 1
	note __, 1
	note B_, 1
	note __, 1
	note E_, 1
	note __, 1
	note B_, 1
	note __, 1
	note G#, 1
	note __, 1
	note E_, 1
	note __, 1
	note G#, 1
	note __, 1
	note B_, 1
	note __, 1
	note A_, 1
	note __, 1
	octave 5
	note C#, 1
	note __, 1
	octave 4
	note F#, 1
	note __, 1
	octave 5
	note C#, 1
	note __, 1
	octave 4
	note A_, 1
	note __, 1
	octave 5
	note C#, 1
	note __, 1
	octave 4
	note F#, 1
	note __, 1
	octave 5
	note C#, 1
	note __, 1
	octave 4
	note A_, 1
	note __, 1
	octave 5
	note C#, 1
	note __, 1
	octave 4
	note F#, 1
	note __, 1
	octave 5
	note C#, 1
	note __, 1
	octave 4
	note A_, 1
	note __, 1
	octave 5
	note C#, 1
	note __, 1
	octave 4
	note B_, 1
	note __, 1
	note A_, 1
	note __, 1
	note G#, 1
	note __, 1
	note B_, 1
	note __, 1
	note E_, 1
	note __, 1
	note B_, 1
	note __, 1
	note G#, 1
	note __, 1
	note B_, 1
	note __, 1
	note E_, 1
	note __, 1
	note B_, 1
	note __, 1
	note G#, 1
	note __, 1
	note B_, 1
	note __, 1
	note E_, 1
	note __, 1
	note B_, 1
	note __, 1
	note G#, 1
	note __, 1
	note B_, 1
	note __, 1
	note E_, 1
	note __, 1
	note B_, 1
	note __, 1
	note A_, 1
	note __, 1
	octave 5
	note E_, 1
	note __, 1
	octave 4
	note E_, 1
	note __, 1
	octave 5
	note E_, 1
	note __, 1
	octave 4
	note A_, 1
	note __, 1
	octave 5
	note E_, 1
	note __, 1
	octave 4
	note E_, 1
	note __, 1
	octave 5
	note E_, 1
	note __, 1
	octave 4
	note A_, 1
	note __, 1
	octave 5
	note F#, 1
	note __, 1
	octave 4
	note F#, 1
	note __, 1
	octave 5
	note C#, 1
	note __, 3
	note F#, 1
	note __, 1
	octave 4
	note F#, 1
	note G#, 1
	note A_, 1
	octave 5
	note C#, 1
	note E_, 1
	note __, 15
	endchannel
