Music_YellowUnusedSong::
	channel_count 4
	channel 1, Music_YellowUnusedSong_Ch1
	channel 2, Music_YellowUnusedSong_Ch2
	channel 3, Music_YellowUnusedSong_Ch3
	channel 4, Music_YellowUnusedSong_Ch4

Music_YellowUnusedSong_Ch1::
	tempo 140
	volume 7, 7
	duty_cycle 3
	vibrato 8, 1, 4
	note_type 8, 11, 2
	octave 3
	note A_, 6
	note A_, 2
	note A_, 2
	note A_, 2
	note A#, 6
	note A#, 6
	note G_, 6
	note G_, 6
	note A_, 6
	note E_, 6
	note A_, 6
	note A_, 2
	note A_, 2
	note A_, 2
	note A#, 6
	note A#, 6
	note A_, 6
	note G_, 6
	note A_, 12

Music_YellowUnusedSong_branch_82fde::
	note A_, 6
	note A_, 2
	note A_, 2
	note A_, 2
	note A#, 6
	note A#, 6
	note G_, 6
	note G_, 6
	note A_, 6
	note E_, 6
	note A_, 6
	note A_, 2
	note A_, 2
	note A_, 2
	note A#, 6
	note A#, 6
	note G_, 6
	octave 4
	note D#, 6
	note D_, 12
	rest 16
	rest 16
	rest 16
	rest 16
	rest 16
	rest 16
	octave 3
	note A_, 6
	note A_, 2
	note A_, 2
	note A_, 2
	note A#, 6
	note A#, 6
	note G_, 6
	note G_, 6
	note A_, 6
	note E_, 6
	note A_, 6
	note A_, 2
	note A_, 2
	note A_, 2
	note A#, 6
	note A#, 6
	note A_, 6
	note G_, 6
	note A_, 12
	sound_loop 0, Music_YellowUnusedSong_branch_82fde


Music_YellowUnusedSong_Ch2::
	duty_cycle 2
	note_type 8, 12, 2
	octave 4
	note D_, 6
	note D_, 2
	note D_, 2
	note D_, 2
	note D#, 6
	note D#, 6
	note C_, 6
	note C_, 6
	note D_, 6
	octave 3
	note A_, 6
	octave 4
	note D_, 6
	note D_, 2
	note D_, 2
	note D_, 2
	note D#, 6
	note D#, 6
	note D_, 6
	note A#, 6
	note A_, 12

Music_YellowUnusedSong_branch_8302a::
	note D_, 6
	note D_, 2
	note D_, 2
	note D_, 2
	note D#, 6
	note D#, 6
	note C_, 6
	note C_, 6
	note D_, 6
	octave 3
	note A_, 6
	octave 4
	note D_, 6
	note D_, 2
	note D_, 2
	note D_, 2
	note D#, 6
	note D#, 6
	note C_, 6
	note G#, 6
	note G_, 12
	note_type 8, 9, 0
	octave 3
	note D#, 16
	note D#, 8
	note D#, 16
	note D#, 8
	octave 2
	note A#, 16
	note A#, 8
	octave 3
	note D#, 12
	note F_, 12
	note_type 8, 12, 2
	octave 4
	note D_, 6
	note D_, 2
	note D_, 2
	note D_, 2
	note D#, 6
	note D#, 6
	note C_, 6
	note C_, 6
	note D_, 6
	octave 3
	note A_, 6
	octave 4
	note D_, 6
	note D_, 2
	note D_, 2
	note D_, 2
	note D#, 6
	note D#, 6
	note D_, 6
	note A#, 6
	note A_, 12
	sound_loop 0, Music_YellowUnusedSong_branch_8302a


Music_YellowUnusedSong_Ch3::
	note_type 12, 1, 0
	vibrato 2, 1, 5
	rest 16
	rest 12
	octave 4
	note C_, 4
	note D_, 8
	note D#, 8
	note G_, 8
	note A#, 8

Music_YellowUnusedSong_branch_83075::
	note A_, 8
	note A#, 8
	note G_, 8
	note A_, 4
	note D_, 4
	note A_, 8
	note A#, 8
	octave 5
	note C#, 8
	note D_, 8
	note D#, 16
	note D#, 16
	octave 4
	note A#, 16
	octave 5
	note D#, 8
	note F_, 8
	octave 4
	note D_, 16
	note D_, 16
	octave 4
	note D_, 8
	note D#, 8
	note G_, 8
	note A#, 8
	sound_loop 0, Music_YellowUnusedSong_branch_83075


Music_YellowUnusedSong_Ch4::
	toggle_noise 0
	drum_speed 12
	drum_note 3, 4
	drum_speed 8
	drum_note 3, 2
	drum_note 3, 2
	drum_note 3, 2
	drum_speed 12
	drum_note 3, 4
	drum_note 3, 4
	drum_note 3, 4
	drum_note 3, 4
	drum_note 3, 4
	drum_note 3, 4
	drum_note 3, 4
	drum_speed 8
	drum_note 3, 2
	drum_note 3, 2
	drum_note 3, 2
	drum_speed 12
	drum_note 3, 4
	drum_note 3, 4
	drum_note 3, 2
	drum_note 3, 2
	drum_note 3, 2
	drum_note 3, 2
	drum_note 3, 4
	drum_note 3, 4

Music_YellowUnusedSong_branch_830c3::
	drum_note 3, 4
	drum_speed 8
	drum_note 3, 2
	drum_note 3, 2
	drum_note 3, 2
	drum_speed 12
	drum_note 3, 4
	drum_note 3, 4
	drum_note 3, 4
	drum_note 3, 4
	drum_note 3, 4
	drum_note 3, 4
	drum_note 3, 4
	drum_speed 8
	drum_note 3, 2
	drum_note 3, 2
	drum_note 3, 2
	drum_speed 12
	drum_note 3, 4
	drum_note 3, 4
	drum_note 3, 2
	drum_note 3, 2
	drum_note 3, 2
	drum_note 3, 2
	drum_note 3, 4
	drum_note 3, 4
	drum_note 3, 4
	drum_speed 8
	drum_note 3, 2
	drum_note 3, 2
	drum_note 3, 2
	drum_speed 12
	drum_note 3, 4
	drum_speed 8
	drum_note 3, 2
	drum_note 3, 2
	drum_note 3, 2
	drum_speed 12
	drum_note 3, 4
	drum_speed 8
	drum_note 3, 2
	drum_note 3, 2
	drum_note 3, 2
	drum_note 3, 2
	drum_note 3, 2
	drum_note 3, 2
	drum_note 3, 2
	drum_note 3, 2
	drum_note 3, 2
	drum_speed 12
	drum_note 3, 4
	drum_speed 8
	drum_note 3, 2
	drum_note 3, 2
	drum_note 3, 2
	drum_speed 12
	drum_note 3, 4
	drum_note 3, 4
	drum_note 3, 2
	drum_note 3, 2
	drum_note 3, 2
	drum_note 3, 2
	drum_note 3, 4
	drum_note 3, 2
	drum_note 3, 2
	drum_note 3, 4
	drum_speed 8
	drum_note 3, 2
	drum_note 3, 2
	drum_note 3, 2
	drum_speed 12
	drum_note 3, 4
	drum_note 3, 4
	drum_note 3, 4
	drum_note 3, 4
	drum_note 3, 4
	drum_note 3, 4
	drum_note 3, 4
	drum_speed 8
	drum_note 3, 2
	drum_note 3, 2
	drum_note 3, 2
	drum_speed 12
	drum_note 3, 4
	drum_note 3, 4
	drum_note 3, 2
	drum_note 3, 2
	drum_note 3, 2
	drum_note 3, 2
	drum_note 3, 4
	drum_note 3, 4
	sound_loop 0, Music_YellowUnusedSong_branch_830c3
