Music_IntroBattle_Ch1: ; 7f844 (1f:7844)
	tempo 0, 98
	stereopanning 119
	duty 3
	vibrato 6, 3, 4
	togglecall
	notetype 12, 11, 1
	rest 8
	octave 2
	note A_, 2
	note A_, 2
	notetype 12, 11, 4
	octave 3
	note D_, 4
	notetype 12, 11, 1
	octave 2
	note A_, 2
	note A_, 2
	notetype 12, 11, 4
	octave 3
	note D#, 4
	notetype 12, 11, 1
	octave 2
	note A_, 2
	note A_, 2
	notetype 12, 11, 4
	octave 3
	note D_, 4
	notetype 12, 11, 1
	octave 2
	note A_, 2
	note A_, 2
	notetype 12, 10, 0
	note A#, 4
	notetype 12, 11, 1
	note A_, 2
	note A_, 2
	notetype 12, 11, 4
	octave 3
	note D_, 4
	notetype 12, 11, 1
	octave 2
	note A_, 2
	note A_, 2
	notetype 12, 2, 9
	octave 3
	note G_, 4
	notetype 12, 11, 0
	note A_, 8
	octave 2
	note A_, 8
	notetype 12, 11, 7
	octave 3
	note F_, 8
	notetype 12, 4, 15
	octave 2
	note F_, 8
	notetype 12, 11, 1
	note A_, 2
	note A_, 2
	notetype 12, 11, 4
	octave 3
	note D_, 4
	notetype 12, 11, 1
	octave 2
	note A_, 2
	note A_, 2
	notetype 12, 11, 4
	octave 3
	note D#, 4
	notetype 12, 11, 1
	octave 2
	note A_, 2
	note A_, 2
	notetype 12, 11, 4
	octave 3
	note F_, 4
	notetype 12, 11, 1
	octave 2
	note A_, 2
	note A_, 2
	notetype 12, 11, 4
	octave 3
	note G_, 4
	notetype 12, 11, 0
	note F#, 16
	notetype 12, 11, 1
	octave 4
	note D_, 16
	endchannel


Music_IntroBattle_Ch2: ; 7f8bc (1f:78bc)
	duty 3
	vibrato 8, 2, 5
	notetype 12, 12, 2
	rest 8
	octave 3
	note D_, 2
	note D_, 2
	notetype 12, 12, 5
	note A_, 4
	notetype 12, 12, 2
	note D_, 2
	note D_, 2
	notetype 12, 12, 5
	note A#, 4
	notetype 12, 12, 2
	note D_, 2
	note D_, 2
	notetype 12, 12, 5
	note A_, 4
	notetype 12, 12, 2
	note D_, 2
	note D_, 2
	notetype 12, 11, 7
	note C#, 4
	notetype 12, 12, 2
	note D_, 2
	note D_, 2
	notetype 12, 12, 5
	note A_, 4
	notetype 12, 12, 2
	octave 3
	note D_, 2
	note D_, 2
	notetype 12, 12, 7
	octave 4
	note C#, 4
	note D_, 8
	octave 3
	note D_, 8
	octave 4
	note C_, 8
	octave 3
	note C_, 8
	notetype 12, 12, 2
	note D_, 2
	note D_, 2
	notetype 12, 12, 5
	note A_, 4
	notetype 12, 12, 2
	note D_, 2
	note D_, 2
	notetype 12, 12, 5
	note A#, 4
	notetype 12, 12, 2
	note D_, 2
	note D_, 2
	notetype 12, 12, 5
	octave 4
	note C_, 4
	notetype 12, 12, 2
	octave 3
	note D_, 2
	note D_, 2
	notetype 12, 12, 5
	octave 4
	note C#, 4
	notetype 12, 2, 15
	note D_, 16
	notetype 12, 12, 1
	octave 5
	note D_, 16
	endchannel


Music_IntroBattle_Ch3: ; 7f91d (1f:791d)
	notetype 12, 1, 0
	rest 8
	octave 4
	note D_, 1
	rest 1
	note D_, 1
	rest 1
	note A_, 4
	note D_, 1
	rest 1
	note D_, 1
	rest 1
	note A_, 4
	note D_, 1
	rest 1
	note D_, 1
	rest 1
	note A_, 4
	note D_, 1
	rest 1
	note D_, 1
	rest 1
	note F#, 4
	note D_, 1
	rest 1
	note D_, 1
	rest 1
	note A_, 4
	note D_, 1
	rest 1
	note D_, 1
	rest 1
	note A#, 4
	note A_, 8
	note D_, 8
	note A#, 8
	note D_, 8
	note D_, 1
	rest 1
	note D_, 1
	rest 1
	note A_, 4
	note D_, 1
	rest 1
	note D_, 1
	rest 1
	note A_, 4
	note D_, 1
	rest 1
	note D_, 1
	rest 1
	note A#, 4
	note D_, 1
	rest 1
	note D_, 1
	rest 1
	note A#, 4
	note A_, 16
	note D_, 1
	rest 15
	endchannel


Music_IntroBattle_Ch4: ; 7f95b (1f:795b)
	dspeed 6
	dnote 1, mutedsnare4
	dnote 1, mutedsnare4
	dnote 1, mutedsnare4
	dnote 1, mutedsnare4
	dnote 1, mutedsnare3
	dnote 1, mutedsnare4
	dnote 1, mutedsnare3
	dnote 1, mutedsnare4
	dnote 1, mutedsnare3
	dnote 1, mutedsnare4
	dnote 1, mutedsnare3
	dnote 1, mutedsnare3
	dnote 1, mutedsnare3
	dnote 1, mutedsnare3
	dnote 1, mutedsnare2
	dnote 1, mutedsnare2
	dnote 4, mutedsnare2
	dnote 4, mutedsnare2
	dnote 1, mutedsnare4
	dnote 1, mutedsnare4
	dnote 1, mutedsnare4
	dnote 1, mutedsnare4
	dnote 1, mutedsnare3
	dnote 1, mutedsnare3
	dnote 1, mutedsnare3
	dnote 1, mutedsnare3
	dnote 4, mutedsnare2
	dnote 4, mutedsnare2
	dnote 8, mutedsnare2
	dnote 4, mutedsnare2
	dnote 4, mutedsnare2
	dnote 8, mutedsnare2
	dnote 4, mutedsnare2
	dnote 4, mutedsnare2
	dnote 1, mutedsnare4
	dnote 1, mutedsnare4
	dnote 1, mutedsnare4
	dnote 1, mutedsnare4
	dnote 1, mutedsnare3
	dnote 1, mutedsnare3
	dnote 1, mutedsnare3
	dnote 1, mutedsnare3
	dnote 4, mutedsnare2
	dnote 4, mutedsnare2
	dnote 8, mutedsnare2
	dnote 4, mutedsnare2
	dnote 4, mutedsnare2
	dnote 4, mutedsnare2
	dnote 1, mutedsnare4
	dnote 1, mutedsnare4
	dnote 1, mutedsnare3
	dnote 1, mutedsnare3
	dnote 16, mutedsnare2
	dnote 16, mutedsnare2
	dnote 16, mutedsnare2
	dnote 1, mutedsnare4
	dnote 1, mutedsnare4
	dnote 1, mutedsnare4
	dnote 1, mutedsnare4
	dnote 1, mutedsnare3
	dnote 1, mutedsnare4
	dnote 1, mutedsnare3
	dnote 1, mutedsnare4
	dnote 1, mutedsnare3
	dnote 1, mutedsnare3
	dnote 1, mutedsnare3
	dnote 1, mutedsnare3
	dnote 1, mutedsnare2
	dnote 1, mutedsnare2
	dnote 1, mutedsnare2
	dnote 1, mutedsnare2
	dnote 4, mutedsnare2
	dnote 4, mutedsnare2
	dnote 8, mutedsnare2
	dnote 4, mutedsnare2
	dnote 4, mutedsnare2
	dnote 1, mutedsnare4
	dnote 1, mutedsnare4
	dnote 1, mutedsnare4
	dnote 1, mutedsnare4
	dnote 1, mutedsnare3
	dnote 1, mutedsnare3
	dnote 1, mutedsnare3
	dnote 1, mutedsnare3
	dnote 4, mutedsnare2
	dnote 4, mutedsnare2
	dnote 8, mutedsnare2
	dnote 4, mutedsnare2
	dnote 8, mutedsnare2
	dnote 4, mutedsnare2
	dnote 16, mutedsnare2
	dnote 16, mutedsnare2
	dnote 2, mutedsnare2
	rest 16
	rest 14
	endchannel
; 0x7fa19