Music_Routes4_Ch1: ; a26a (2:626a)
	tempo 0, 148
	stereopanning 119
	duty 3
	vibrato 10, 3, 4
	togglecall
	notetype 12, 10, 2
	octave 2
	note G#, 4
	note G#, 4
	note G#, 4
	notetype 12, 7, 15
	note G#, 4
	notetype 12, 10, 2
	note G#, 4
	note G#, 4
	note G#, 4
	notetype 12, 11, 7
	note B_, 1
	octave 3
	note E_, 1
	note F#, 1
	note B_, 1

Music_Routes4_branch_a28a:
	notetype 12, 11, 7
	note B_, 6
	note E_, 2
	note E_, 4
	octave 4
	note E_, 4
	note D_, 4
	note C#, 4
	octave 3
	note B_, 4
	note A_, 4
	notetype 12, 11, 1
	note G#, 3
	notetype 12, 11, 7
	note E_, 1
	note F#, 12
	note E_, 8
	note D#, 4
	note F#, 4
	note B_, 6
	note E_, 2
	note E_, 4
	octave 4
	note E_, 4
	note D_, 4
	note C#, 4
	octave 3
	note B_, 4
	octave 4
	note C#, 4
	notetype 12, 11, 1
	note E_, 3
	notetype 12, 11, 7
	note D#, 1
	note E_, 12
	octave 3
	note B_, 3
	note A_, 1
	note G#, 8
	octave 4
	note E_, 4
	octave 3
	note D_, 2
	note E_, 2
	note F#, 2
	note G#, 2
	note A_, 2
	note B_, 2
	octave 4
	note C#, 2
	note D_, 2
	note D_, 2
	octave 3
	note A_, 2
	note F#, 2
	note E_, 2
	note D_, 2
	note E_, 2
	note F#, 2
	note A_, 2
	note G#, 2
	note F#, 2
	note E_, 2
	note F#, 2
	note G#, 2
	note A_, 2
	note B_, 2
	octave 4
	note D#, 2
	note E_, 2
	octave 3
	note B_, 2
	note G#, 2
	note F#, 2
	note E_, 2
	note F#, 2
	note G#, 2
	note B_, 2
	notetype 8, 11, 5
	note A_, 4
	note G#, 4
	note F#, 4
	octave 4
	note E_, 4
	note D#, 4
	note C#, 4
	note C#, 4
	octave 3
	note B_, 4
	note A_, 4
	note B_, 4
	octave 4
	note C#, 4
	note D#, 4
	octave 3
	note E_, 3
	note F#, 3
	note G#, 3
	note A_, 3
	note B_, 4
	octave 4
	note C#, 4
	note D#, 4
	note E_, 3
	octave 3
	note B_, 3
	note G#, 3
	note F#, 3
	note E_, 3
	note F#, 3
	note G#, 3
	note A_, 3
	loopchannel 0, Music_Routes4_branch_a28a


Music_Routes4_Ch2: ; a304 (2:6304)
	vibrato 12, 2, 4
	duty 1
	notetype 12, 9, 2
	octave 3
	note E_, 3
	note F#, 1
	notetype 12, 9, 0
	note E_, 12
	notetype 12, 9, 2
	octave 2
	note B_, 3
	octave 3
	note C_, 1
	notetype 12, 9, 0
	octave 2
	note B_, 8
	duty 3
	notetype 12, 12, 7
	octave 3
	note E_, 1
	note F#, 1
	note B_, 1
	octave 4
	note D#, 1

Music_Routes4_branch_a325:
	notetype 12, 12, 7
	note E_, 6
	octave 3
	note B_, 2
	note B_, 4
	octave 4
	note B_, 4
	note A_, 4
	note G#, 4
	note F#, 4
	note F#, 1
	note A_, 1
	note G#, 1
	note F#, 1
	notetype 12, 12, 2
	note G#, 3
	note E_, 1
	notetype 12, 10, 0
	octave 3
	note B_, 12
	duty 0
	notetype 12, 12, 2
	octave 2
	note B_, 3
	notetype 12, 12, 7
	octave 3
	note C_, 1
	octave 2
	note B_, 8
	octave 3
	note D#, 4
	duty 3
	octave 4
	note E_, 6
	octave 3
	note B_, 2
	note B_, 4
	octave 4
	note B_, 4
	note A_, 4
	note G#, 4
	note F#, 4
	note A_, 1
	octave 5
	note C#, 1
	octave 4
	note B_, 1
	note A_, 1
	notetype 12, 12, 2
	note B_, 3
	notetype 12, 12, 7
	note A_, 1
	notetype 12, 11, 0
	note G#, 6
	notetype 12, 9, 0
	note G#, 6
	notetype 12, 7, 0
	note G#, 6
	notetype 12, 6, 15
	note G#, 6
	notetype 12, 12, 7
	note G#, 4
	notetype 8, 12, 3
	note A_, 4
	note G#, 4
	note F#, 4
	notetype 8, 9, 0
	note F#, 6
	notetype 8, 7, 15
	note F#, 6
	duty 0
	notetype 8, 9, 0
	octave 3
	note F#, 4
	note E_, 4
	note F#, 4
	note A_, 6
	duty 3
	notetype 8, 12, 7
	octave 4
	note F#, 6
	note G#, 4
	note F#, 4
	notetype 8, 12, 4
	note E_, 4
	notetype 8, 10, 0
	note E_, 12
	duty 0
	notetype 8, 9, 0
	octave 3
	note E_, 4
	note D#, 4
	note E_, 4
	note G#, 6
	duty 3
	notetype 8, 12, 7
	octave 4
	note E_, 6
	note F#, 4
	note D#, 4
	octave 3
	note B_, 4
	notetype 8, 10, 0
	octave 4
	note B_, 16
	notetype 8, 10, 7
	note B_, 8
	notetype 8, 11, 0
	note A_, 6
	notetype 8, 11, 7
	note A_, 6
	notetype 12, 10, 7
	note G#, 1
	note F#, 1
	notetype 12, 11, 0
	note E_, 12
	notetype 12, 10, 0
	note E_, 8
	notetype 12, 10, 7
	note E_, 10
	loopchannel 0, Music_Routes4_branch_a325


Music_Routes4_Ch3: ; a3c4 (2:63c4)
	notetype 12, 1, 0
	octave 4
	note E_, 1
	rest 3
	note E_, 1
	rest 3
	note E_, 1
	rest 3
	note E_, 1
	rest 3
	note E_, 1
	rest 3
	note E_, 1
	rest 3
	note E_, 1
	rest 3
	note D#, 1
	rest 3

Music_Routes4_branch_a3d7:
	note E_, 1
	rest 3
	note E_, 1
	note E_, 1
	note E_, 1
	note E_, 1
	note E_, 1
	rest 1
	note E_, 1
	rest 3
	note E_, 1
	rest 1
	note F#, 1
	rest 3
	note F#, 1
	note F#, 1
	note F#, 1
	note F#, 1
	note F#, 1
	rest 1
	note F#, 1
	rest 3
	note A_, 1
	rest 1
	note G#, 1
	rest 3
	note G#, 1
	note G#, 1
	note G#, 1
	note G#, 1
	note G#, 1
	rest 1
	note G#, 1
	rest 3
	note G#, 1
	rest 1
	note G#, 1
	rest 3
	note G#, 1
	note G#, 1
	note G#, 1
	note G#, 1
	note G#, 1
	rest 1
	note G#, 1
	rest 3
	note G#, 1
	rest 1
	note E_, 1
	rest 3
	note E_, 1
	note E_, 1
	note E_, 1
	note E_, 1
	note E_, 1
	rest 1
	note E_, 1
	rest 3
	note E_, 1
	rest 1
	note F#, 1
	rest 3
	note F#, 1
	note F#, 1
	note F#, 1
	note F#, 1
	note F#, 1
	rest 1
	note F#, 1
	rest 3
	note A_, 1
	rest 1
	note B_, 1
	rest 3
	note B_, 1
	note B_, 1
	note B_, 1
	note B_, 1
	note B_, 1
	rest 1
	note B_, 1
	rest 3
	note B_, 1
	rest 1
	note E_, 1
	rest 3
	note E_, 1
	note E_, 1
	note E_, 1
	note E_, 1
	note E_, 1
	rest 1
	note E_, 1
	rest 1
	note E_, 1
	rest 1
	note A_, 1
	rest 1
	note F#, 1
	rest 3
	note F#, 1
	note F#, 1
	note F#, 1
	note F#, 1
	note F#, 1
	rest 1
	note F#, 1
	rest 3
	note F#, 1
	rest 1
	note D_, 1
	rest 3
	note D_, 1
	note D_, 1
	note D_, 1
	note D_, 1
	note D_, 1
	rest 1
	note D_, 1
	rest 3
	note D_, 1
	rest 1
	note E_, 1
	rest 3
	note E_, 1
	note E_, 1
	note E_, 1
	note E_, 1
	note E_, 1
	rest 1
	note E_, 1
	rest 3
	note E_, 1
	rest 1
	note G#, 1
	rest 3
	note G#, 1
	note G#, 1
	note G#, 1
	note G#, 1
	note G#, 1
	rest 1
	note G#, 1
	rest 3
	note G#, 1
	rest 1
	note F#, 1
	rest 3
	note F#, 1
	note F#, 1
	note F#, 1
	note F#, 1
	note F#, 1
	rest 1
	note F#, 1
	rest 3
	note F#, 1
	rest 1
	note B_, 1
	rest 3
	note B_, 1
	note B_, 1
	note B_, 1
	note B_, 1
	note B_, 1
	rest 1
	note B_, 1
	rest 3
	note B_, 1
	rest 1
	note G#, 1
	rest 3
	note G#, 1
	note G#, 1
	note G#, 1
	note G#, 1
	note G#, 1
	rest 1
	note G#, 1
	rest 3
	note G#, 1
	rest 1
	note E_, 1
	rest 3
	note E_, 1
	note E_, 1
	note E_, 1
	note E_, 1
	note E_, 1
	rest 1
	note E_, 1
	rest 3
	note D#, 1
	rest 1
	loopchannel 0, Music_Routes4_branch_a3d7


Music_Routes4_Ch4: ; a49d (2:649d)
	dspeed 12
	rest 16
	rest 12
	dnote 1, mutedsnare4
	dnote 1, mutedsnare4
	dnote 1, mutedsnare3
	dnote 1, mutedsnare3

Music_Routes4_branch_a4a8:
	dnote 4, mutedsnare2
	dnote 1, mutedsnare4
	dnote 1, mutedsnare4
	dnote 1, mutedsnare3
	dnote 1, mutedsnare3
	dnote 2, mutedsnare2
	dnote 2, mutedsnare3
	dnote 1, mutedsnare4
	dnote 1, mutedsnare4
	dnote 1, mutedsnare3
	dnote 1, mutedsnare3
	dnote 4, mutedsnare2
	dnote 1, mutedsnare4
	dnote 1, mutedsnare4
	dnote 1, mutedsnare4
	dnote 1, mutedsnare3
	dnote 1, mutedsnare3
	dnote 1, mutedsnare3
	dnote 4, mutedsnare2
	dnote 2, mutedsnare2
	dnote 4, mutedsnare2
	dnote 1, mutedsnare4
	dnote 1, mutedsnare4
	dnote 1, mutedsnare3
	dnote 1, mutedsnare3
	dnote 2, mutedsnare2
	dnote 2, mutedsnare2
	dnote 2, mutedsnare2
	dnote 1, mutedsnare4
	dnote 1, mutedsnare4
	dnote 4, mutedsnare2
	dnote 1, mutedsnare4
	dnote 1, mutedsnare4
	dnote 1, mutedsnare3
	dnote 1, mutedsnare3
	dnote 2, mutedsnare2
	dnote 2, mutedsnare2
	dnote 1, mutedsnare3
	dnote 1, mutedsnare3
	dnote 1, mutedsnare4
	dnote 1, mutedsnare4
	dnote 4, mutedsnare2
	dnote 1, mutedsnare4
	dnote 1, mutedsnare4
	dnote 1, mutedsnare3
	dnote 1, mutedsnare3
	dnote 2, mutedsnare2
	dnote 2, mutedsnare2
	dnote 1, mutedsnare4
	dnote 1, mutedsnare4
	dnote 1, mutedsnare3
	dnote 1, mutedsnare3
	dnote 4, mutedsnare2
	dnote 1, mutedsnare4
	dnote 1, mutedsnare4
	dnote 1, mutedsnare4
	dnote 1, mutedsnare4
	dnote 1, mutedsnare3
	dnote 1, mutedsnare3
	dnote 4, mutedsnare2
	dnote 2, mutedsnare2
	dnote 4, mutedsnare2
	dnote 1, mutedsnare4
	dnote 1, mutedsnare4
	dnote 1, mutedsnare3
	dnote 1, mutedsnare3
	dnote 2, mutedsnare2
	dnote 2, mutedsnare2
	dnote 2, mutedsnare2
	dnote 1, mutedsnare4
	dnote 1, mutedsnare4
	dnote 4, mutedsnare2
	dnote 1, mutedsnare4
	dnote 1, mutedsnare4
	dnote 1, mutedsnare3
	dnote 1, mutedsnare3
	dnote 2, mutedsnare2
	dnote 2, mutedsnare2
	dnote 1, mutedsnare4
	dnote 1, mutedsnare4
	dnote 1, mutedsnare3
	dnote 1, mutedsnare3
	dnote 4, mutedsnare2
	dnote 1, mutedsnare4
	dnote 1, mutedsnare4
	dnote 1, mutedsnare3
	dnote 1, mutedsnare3
	dnote 2, mutedsnare2
	dnote 2, mutedsnare2
	dnote 1, mutedsnare4
	dnote 1, mutedsnare4
	dnote 1, mutedsnare3
	dnote 1, mutedsnare3
	dnote 4, mutedsnare2
	dnote 1, mutedsnare4
	dnote 1, mutedsnare4
	dnote 1, mutedsnare4
	dnote 1, mutedsnare4
	dnote 1, mutedsnare3
	dnote 1, mutedsnare3
	dnote 4, mutedsnare2
	dnote 2, mutedsnare2
	dnote 4, mutedsnare2
	dnote 1, mutedsnare4
	dnote 1, mutedsnare4
	dnote 1, mutedsnare3
	dnote 1, mutedsnare3
	dnote 2, mutedsnare2
	dnote 2, mutedsnare2
	dnote 2, mutedsnare2
	dnote 1, mutedsnare4
	dnote 1, mutedsnare3
	dnote 4, mutedsnare2
	dnote 1, mutedsnare4
	dnote 1, mutedsnare4
	dnote 1, mutedsnare3
	dnote 1, mutedsnare3
	dnote 2, mutedsnare2
	dnote 2, mutedsnare2
	dnote 1, mutedsnare4
	dnote 1, mutedsnare4
	dnote 1, mutedsnare3
	dnote 1, mutedsnare3
	dnote 4, mutedsnare2
	dnote 1, mutedsnare4
	dnote 1, mutedsnare4
	dnote 1, mutedsnare3
	dnote 1, mutedsnare3
	dnote 2, mutedsnare2
	dnote 2, mutedsnare2
	dnote 1, mutedsnare4
	dnote 1, mutedsnare4
	dnote 1, mutedsnare3
	dnote 1, mutedsnare3
	dnote 4, mutedsnare2
	dnote 1, mutedsnare4
	dnote 1, mutedsnare4
	dnote 1, mutedsnare4
	dnote 1, mutedsnare3
	dnote 1, mutedsnare3
	dnote 1, mutedsnare3
	dnote 4, mutedsnare2
	dnote 2, mutedsnare2
	dnote 4, mutedsnare2
	dnote 1, mutedsnare4
	dnote 1, mutedsnare4
	dnote 1, mutedsnare3
	dnote 1, mutedsnare3
	dnote 2, mutedsnare2
	dnote 2, mutedsnare2
	dnote 2, mutedsnare2
	dnote 1, mutedsnare4
	dnote 1, mutedsnare3
	dnote 4, mutedsnare2
	dnote 1, mutedsnare4
	dnote 1, mutedsnare4
	dnote 1, mutedsnare3
	dnote 1, mutedsnare3
	dnote 2, mutedsnare2
	dnote 2, mutedsnare2
	dnote 2, mutedsnare2
	dnote 2, mutedsnare2
	loopchannel 0, Music_Routes4_branch_a4a8
; 0xa5f0