Music_Routes3_Ch1: ; 9fad (2:5fad)
	tempo 0, 148
	stereopanning 119
	duty 3
	vibrato 6, 3, 4
	togglecall
	notetype 12, 11, 5
	octave 3
	note E_, 1
	note F#, 1
	note G_, 6
	note F_, 1
	note G_, 1
	note E_, 1
	rest 16
	rest 15

Music_Routes3_branch_9fc3:
	notetype 12, 11, 5
	note E_, 6
	note D_, 1
	note E_, 1
	note C_, 4
	note E_, 4
	note C_, 6
	note D_, 1
	note E_, 1
	note F_, 2
	note G_, 2
	note G_, 2
	note A_, 2
	notetype 12, 10, 7
	note A#, 8
	note F_, 8
	note D_, 8
	note F_, 8
	notetype 12, 11, 5
	note E_, 6
	note D_, 1
	note E_, 1
	note C_, 4
	note E_, 4
	note C_, 6
	note D_, 1
	note E_, 1
	note F_, 2
	note G_, 2
	note G_, 2
	note A_, 2
	notetype 12, 10, 7
	note A#, 8
	note A#, 8
	note D_, 8
	note F_, 8
	notetype 12, 11, 5
	note E_, 4
	note E_, 2
	note F_, 2
	note G_, 4
	note F_, 2
	note E_, 2
	note B_, 2
	octave 2
	note G_, 4
	octave 3
	note B_, 8
	note A_, 2
	notetype 8, 12, 3
	note A_, 4
	note F_, 4
	note A_, 4
	notetype 8, 4, 15
	note A_, 12
	notetype 8, 9, 0
	note F_, 12
	note G_, 12
	loopchannel 0, Music_Routes3_branch_9fc3


Music_Routes3_Ch2: ; a009 (2:6009)
	vibrato 8, 2, 3
	duty 2
	notetype 12, 12, 7
	octave 3
	note G_, 1
	note A#, 1
	note B_, 6
	note A_, 1
	note B_, 1
	octave 4
	note C_, 1
	rest 15
	rest 16

Music_Routes3_branch_a01a:
	notetype 12, 12, 7
	duty 2
	octave 4
	note C_, 6
	octave 3
	note G_, 1
	octave 4
	note C_, 1
	note E_, 10
	octave 3
	note G_, 2
	octave 4
	note C_, 2
	note G_, 2
	note F_, 2
	note E_, 2
	note D_, 2
	note C_, 2
	note D_, 8
	note F_, 8
	notetype 12, 12, 5
	duty 3
	octave 3
	note A#, 8
	note A_, 8
	notetype 12, 12, 7
	duty 2
	octave 4
	note C_, 6
	octave 3
	note G_, 1
	octave 4
	note C_, 1
	note E_, 10
	octave 3
	note G_, 2
	octave 4
	note C_, 2
	note G_, 2
	note F_, 2
	note E_, 2
	note D_, 2
	note C_, 2
	note D_, 8
	note F_, 8
	notetype 12, 12, 5
	duty 3
	octave 3
	note A#, 8
	octave 4
	note D_, 6
	notetype 12, 12, 7
	duty 2
	note C_, 1
	note D_, 1
	note E_, 2
	note D_, 2
	note E_, 2
	note C_, 8
	octave 3
	note B_, 1
	octave 4
	note C_, 1
	note D_, 2
	octave 3
	note G_, 4
	octave 4
	note G_, 8
	note F_, 1
	note E_, 1
	notetype 8, 13, 3
	note F_, 4
	note E_, 4
	notetype 8, 12, 4
	note C_, 4
	notetype 8, 12, 5
	note C_, 12
	notetype 12, 10, 0
	duty 3
	octave 3
	note A_, 8
	note B_, 8
	loopchannel 0, Music_Routes3_branch_a01a


Music_Routes3_Ch3: ; a07f (2:607f)
	vibrato 4, 1, 0
	notetype 6, 1, 2
	octave 4
	note G_, 2
	note A#, 2
	note B_, 8
	note A_, 8
	note G_, 2
	rest 2
	note G_, 7
	rest 1
	note G_, 1
	rest 1
	note G_, 1
	rest 1
	note G_, 2
	rest 2
	note G_, 2
	rest 2
	note G_, 8
	note G_, 2
	rest 2
	note G_, 7
	rest 1
	note G_, 1
	rest 1
	note G_, 1
	rest 1
	note G_, 2
	rest 2
	note G_, 2
	rest 2
	note G_, 8

Music_Routes3_branch_a0a3:
	notetype 12, 1, 2
	note E_, 1
	rest 1
	note G_, 4
	note E_, 1
	note E_, 1
	note E_, 1
	rest 1
	note E_, 1
	rest 1
	note G_, 4
	note E_, 1
	rest 1
	note G_, 4
	note E_, 1
	note E_, 1
	note E_, 1
	rest 1
	note E_, 1
	rest 1
	note G_, 2
	note A_, 2
	note F_, 1
	rest 1
	note A#, 4
	note F_, 1
	note F_, 1
	note F_, 1
	rest 1
	note F_, 1
	rest 1
	note A#, 4
	note F_, 1
	rest 1
	note A#, 4
	note F_, 1
	note F_, 1
	note F_, 1
	rest 1
	note F_, 1
	rest 1
	note A#, 2
	note F_, 2
	note E_, 1
	rest 1
	note G_, 4
	note E_, 1
	note E_, 1
	note E_, 1
	rest 1
	note E_, 1
	rest 1
	note G_, 4
	note E_, 1
	rest 1
	note G_, 4
	note E_, 1
	note E_, 1
	note E_, 1
	rest 1
	note E_, 1
	rest 1
	note G_, 2
	note A_, 2
	note F_, 1
	rest 1
	note A#, 4
	note F_, 1
	note F_, 1
	note F_, 1
	rest 1
	note F_, 1
	rest 1
	note A#, 4
	note F_, 1
	rest 1
	note A#, 4
	note F_, 1
	note F_, 1
	note F_, 1
	rest 1
	note F_, 1
	rest 1
	note A#, 2
	note A_, 2
	note G_, 1
	rest 1
	octave 5
	note C_, 4
	octave 4
	note G_, 1
	note G_, 1
	note G_, 1
	rest 1
	note G_, 1
	rest 1
	octave 5
	note C_, 4
	octave 4
	note G_, 1
	rest 1
	octave 5
	note D_, 4
	octave 4
	note G_, 1
	note G_, 1
	note G_, 1
	rest 1
	note G_, 1
	rest 1
	octave 5
	note D_, 4
	octave 4
	note F_, 1
	rest 1
	octave 5
	note C_, 4
	octave 4
	note F_, 1
	note F_, 1
	note F_, 1
	rest 1
	note F_, 1
	rest 1
	octave 5
	note C_, 4
	octave 4
	note F_, 1
	rest 1
	note A_, 4
	note F_, 1
	note F_, 1
	note F_, 1
	rest 1
	note F_, 1
	rest 1
	note A_, 4
	loopchannel 0, Music_Routes3_branch_a0a3


Music_Routes3_Ch4: ; a131 (2:6131)
	dspeed 6
	dnote 1, mutedsnare4
	dnote 1, mutedsnare4
	dnote 1, mutedsnare3
	dnote 1, mutedsnare3
	dnote 8, mutedsnare2
	dnote 1, mutedsnare4
	dnote 1, mutedsnare4
	dnote 1, mutedsnare4
	dnote 1, mutedsnare4
	dnote 1, mutedsnare3
	dnote 1, mutedsnare4
	dnote 1, mutedsnare3
	dnote 1, mutedsnare3
	dnote 12, mutedsnare2
	dnote 2, mutedsnare2
	dnote 2, mutedsnare3
	dnote 4, mutedsnare2
	dnote 4, mutedsnare2
	dnote 1, mutedsnare4
	dnote 1, mutedsnare4
	dnote 1, mutedsnare4
	dnote 1, mutedsnare4
	dnote 1, mutedsnare3
	dnote 1, mutedsnare3
	dnote 1, mutedsnare3
	dnote 1, mutedsnare3
	dnote 12, mutedsnare2
	dnote 2, mutedsnare2
	dnote 2, mutedsnare3
	dnote 4, mutedsnare2
	dnote 4, mutedsnare3
	dnote 4, mutedsnare2
	dnote 1, mutedsnare4
	dnote 1, mutedsnare4
	dnote 1, mutedsnare3
	dnote 1, mutedsnare3

Music_Routes3_branch_a17a:
	dnote 12, mutedsnare2
	dnote 2, mutedsnare2
	dnote 2, mutedsnare3
	dnote 4, mutedsnare2
	dnote 4, mutedsnare2
	dnote 1, mutedsnare4
	dnote 1, mutedsnare4
	dnote 1, mutedsnare4
	dnote 1, mutedsnare4
	dnote 1, mutedsnare3
	dnote 1, mutedsnare3
	dnote 1, mutedsnare3
	dnote 1, mutedsnare3
	dnote 12, mutedsnare2
	dnote 2, mutedsnare2
	dnote 2, mutedsnare2
	dnote 4, mutedsnare2
	dnote 8, mutedsnare2
	dnote 1, mutedsnare4
	dnote 1, mutedsnare4
	dnote 1, mutedsnare3
	dnote 1, mutedsnare3
	dnote 12, mutedsnare2
	dnote 2, mutedsnare2
	dnote 2, mutedsnare3
	dnote 4, mutedsnare2
	dnote 10, mutedsnare2
	dnote 1, mutedsnare4
	dnote 1, mutedsnare4
	dnote 12, mutedsnare2
	dnote 2, mutedsnare2
	dnote 2, mutedsnare4
	dnote 4, mutedsnare2
	dnote 4, mutedsnare2
	dnote 1, mutedsnare4
	dnote 1, mutedsnare4
	dnote 1, mutedsnare4
	dnote 1, mutedsnare4
	dnote 1, mutedsnare3
	dnote 1, mutedsnare4
	dnote 1, mutedsnare3
	dnote 1, mutedsnare3
	dnote 12, mutedsnare2
	dnote 2, mutedsnare2
	dnote 2, mutedsnare2
	dnote 4, mutedsnare2
	dnote 8, mutedsnare2
	dnote 1, mutedsnare4
	dnote 1, mutedsnare4
	dnote 1, mutedsnare3
	dnote 1, mutedsnare3
	dnote 12, mutedsnare2
	dnote 2, mutedsnare2
	dnote 2, mutedsnare2
	dnote 4, mutedsnare2
	dnote 10, mutedsnare2
	dnote 1, mutedsnare4
	dnote 1, mutedsnare4
	dnote 12, mutedsnare2
	dnote 2, mutedsnare2
	dnote 2, mutedsnare2
	dnote 4, mutedsnare2
	dnote 8, mutedsnare2
	dnote 1, mutedsnare4
	dnote 1, mutedsnare4
	dnote 1, mutedsnare3
	dnote 1, mutedsnare3
	dnote 12, mutedsnare2
	dnote 2, mutedsnare2
	dnote 2, mutedsnare2
	dnote 4, mutedsnare2
	dnote 4, mutedsnare2
	dnote 1, mutedsnare4
	dnote 1, mutedsnare4
	dnote 1, mutedsnare4
	dnote 1, mutedsnare4
	dnote 1, mutedsnare3
	dnote 1, mutedsnare3
	dnote 1, mutedsnare3
	dnote 1, mutedsnare3
	dnote 12, mutedsnare2
	dnote 2, mutedsnare2
	dnote 2, mutedsnare2
	dnote 4, mutedsnare2
	dnote 10, mutedsnare2
	dnote 1, mutedsnare4
	dnote 1, mutedsnare4
	dnote 12, mutedsnare2
	dnote 2, mutedsnare2
	dnote 2, mutedsnare2
	dnote 4, mutedsnare2
	dnote 8, mutedsnare2
	dnote 1, mutedsnare3
	dnote 1, mutedsnare4
	dnote 1, mutedsnare3
	dnote 1, mutedsnare4
	dnote 12, mutedsnare2
	dnote 2, mutedsnare2
	dnote 2, mutedsnare2
	dnote 4, mutedsnare2
	dnote 8, mutedsnare2
	dnote 1, mutedsnare4
	dnote 1, mutedsnare4
	dnote 1, mutedsnare3
	dnote 1, mutedsnare3
	dnote 12, mutedsnare2
	dnote 2, mutedsnare2
	dnote 2, mutedsnare2
	dnote 4, mutedsnare2
	dnote 4, mutedsnare2
	dnote 1, mutedsnare4
	dnote 1, mutedsnare4
	dnote 1, mutedsnare4
	dnote 1, mutedsnare4
	dnote 1, mutedsnare3
	dnote 1, mutedsnare3
	dnote 1, mutedsnare3
	dnote 1, mutedsnare3
	loopchannel 0, Music_Routes3_branch_a17a
; 0xa26a