Music_Surfing_Ch1: ; 7fa19 (1f:7a19)
	tempo 0, 160
	stereopanning 119
	duty 3
	vibrato 12, 3, 4
	togglecall
	notetype 12, 11, 5
	rest 6
	octave 2
	note A_, 2
	note G#, 3
	note F#, 1
	note E_, 6
	octave 3
	note G#, 2
	note F#, 2
	note G#, 4

Music_Surfing_branch_7fa30:
	notetype 12, 11, 2
	note E_, 2
	note E_, 4
	note E_, 2
	note E_, 4
	note D_, 2
	note D_, 4
	note D_, 2
	note D_, 4
	note D_, 2
	note D_, 4
	notetype 12, 11, 1
	note F#, 3
	notetype 12, 11, 2
	note D_, 3
	note E_, 2
	note E_, 4
	note E_, 2
	note E_, 4
	note A_, 2
	note A_, 4
	note G#, 2
	note G#, 4
	note F#, 2
	note F#, 4
	note E_, 2
	note E_, 4
	note G#, 2
	note G#, 4
	notetype 12, 11, 1
	note F#, 3
	notetype 12, 11, 2
	note G#, 1
	notetype 12, 11, 4
	note A_, 2
	note B_, 2
	octave 4
	note C_, 2
	notetype 12, 11, 7
	note C#, 6
	notetype 12, 11, 3
	note D_, 2
	note C#, 2
	octave 3
	note B_, 2
	note A_, 2
	note G#, 2
	note F#, 2
	note E_, 2
	note F#, 2
	note G#, 2
	note A_, 2
	note G#, 2
	note F#, 2
	note G#, 2
	note F#, 2
	note E_, 2
	note G#, 2
	note F#, 2
	note G#, 2
	note A_, 2
	note G#, 2
	note F#, 2
	note G#, 2
	note A_, 2
	note B_, 2
	octave 4
	note D_, 2
	note C#, 2
	octave 3
	note B_, 2
	note A_, 2
	note G#, 2
	note F#, 2
	note E_, 2
	note F#, 2
	note G#, 2
	note A_, 2
	note G#, 2
	note A_, 2
	note E_, 2
	note G#, 2
	note B_, 2
	octave 4
	note D_, 2
	note C#, 2
	octave 3
	note B_, 2
	octave 4
	note C#, 2
	octave 3
	note B_, 2
	note A_, 2
	note G#, 2
	note F#, 2
	note E_, 4
	loopchannel 0, Music_Surfing_branch_7fa30


Music_Surfing_Ch2: ; 7fa9c (1f:7a9c)
	duty 3
	vibrato 16, 2, 5
	notetype 12, 12, 6
	octave 3
	note A_, 2
	note G#, 3
	note F#, 1
	note E_, 6
	note G#, 6
	octave 4
	note E_, 2
	note D_, 2
	octave 3
	note B_, 2

Music_Surfing_branch_7faae:
	notetype 12, 12, 6
	octave 4
	note E_, 6
	note C#, 5
	note E_, 1
	note D_, 6
	octave 3
	note B_, 6
	octave 4
	note D_, 6
	octave 3
	note B_, 2
	notetype 12, 12, 1
	octave 4
	note F#, 3
	notetype 12, 12, 6
	note D_, 1
	note E_, 6
	note C#, 6
	note E_, 6
	note C#, 5
	note E_, 1
	note F#, 6
	note D_, 6
	note F#, 6
	note E_, 2
	notetype 12, 12, 1
	note F#, 3
	notetype 12, 12, 6
	note E_, 1
	note A_, 6
	note A_, 6
	note B_, 2
	note A_, 3
	note D_, 1
	note F#, 6
	note E_, 2
	note F#, 3
	note E_, 1
	note C#, 6
	note D_, 2
	note C#, 3
	octave 3
	note B_, 1
	octave 4
	note F#, 6
	note E_, 2
	note D#, 3
	note E_, 1
	note A_, 6
	note B_, 2
	note A_, 3
	note D_, 1
	note F#, 6
	note E_, 2
	note F#, 3
	note G#, 1
	note A_, 6
	note G#, 2
	note F#, 3
	note E_, 1
	note G#, 6
	note A_, 2
	note G#, 3
	note A_, 1
	octave 5
	note C#, 6
	loopchannel 0, Music_Surfing_branch_7faae


Music_Surfing_Ch3: ; 7fafa (1f:7afa)
	notetype 12, 1, 0
	rest 12
	octave 5
	note E_, 6
	octave 4
	note E_, 2
	note F#, 2
	note G#, 2

Music_Surfing_branch_7fb03:
	octave 3
	note A_, 2
	octave 4
	note A_, 2
	note A_, 2
	note E_, 2
	note A_, 2
	note A_, 2
	octave 3
	note B_, 2
	octave 4
	note G#, 2
	note G#, 2
	note E_, 2
	note G#, 2
	note G#, 2
	octave 3
	note B_, 2
	octave 4
	note G#, 2
	note G#, 2
	note E_, 2
	note G#, 1
	rest 2
	note E_, 1
	note C#, 2
	note A_, 2
	note A_, 2
	note E_, 2
	note A_, 2
	note A_, 2
	note C#, 2
	note A_, 2
	note A_, 2
	note E_, 2
	note A_, 2
	note A_, 2
	octave 3
	note B_, 2
	octave 4
	note G#, 2
	note G#, 2
	note E_, 2
	note G#, 2
	note G#, 2
	octave 3
	note B_, 2
	octave 4
	note G#, 2
	note G#, 2
	note E_, 2
	note G#, 1
	rest 2
	note E_, 1
	note C#, 2
	note A_, 2
	note A_, 2
	note E_, 2
	note A_, 2
	note A_, 2
	note D_, 2
	note F#, 2
	note F#, 2
	octave 3
	note A_, 2
	octave 4
	note F#, 2
	note F#, 2
	note E_, 2
	note A_, 2
	note A_, 2
	note C#, 2
	note A_, 2
	note A_, 2
	note E_, 2
	note G#, 2
	note G#, 2
	octave 3
	note B_, 2
	octave 4
	note G#, 2
	note G#, 2
	note E_, 2
	note A_, 2
	note A_, 2
	octave 3
	note A_, 2
	octave 4
	note A_, 2
	note A_, 2
	note D_, 2
	note F#, 2
	note F#, 2
	octave 3
	note A_, 2
	octave 4
	note F#, 2
	note F#, 2
	note E_, 2
	note A_, 2
	note A_, 2
	note C#, 2
	note A_, 2
	note A_, 2
	note E_, 2
	note G#, 2
	note G#, 2
	octave 3
	note B_, 2
	octave 4
	note G#, 2
	note G#, 2
	note E_, 2
	note A_, 2
	note A_, 2
	note C#, 2
	note D_, 2
	note E_, 2
	loopchannel 0, Music_Surfing_branch_7fb03
; 0x7fb7d