Music_Vermilion_Ch1: ; b9eb (2:79eb)
	tempo 0, 156
	stereopanning 119
	duty 3
	vibrato 12, 3, 4
	togglecall

Music_Vermilion_branch_b9f6:
	notetype 12, 11, 5
	octave 3
	note E_, 4
	note C#, 1
	note D_, 1
	note E_, 2
	note A_, 4
	note B_, 2
	note A_, 2
	note G#, 2
	note F#, 2
	note E_, 2
	note F#, 2
	note A_, 4
	note F#, 1
	note G#, 1
	note A_, 2
	note E_, 4
	note C#, 2
	note E_, 2
	note A_, 2
	note G#, 2
	note B_, 2
	note A_, 2
	note G#, 2
	note E_, 2
	note F#, 2
	note G#, 2
	note C#, 2
	note D_, 2
	note E_, 2
	note F#, 2
	note E_, 4
	note C#, 1
	note D_, 1
	note E_, 2
	note A_, 4
	note B_, 2
	note A_, 2
	note G#, 2
	note F#, 2
	note E_, 2
	note F#, 2
	note A_, 4
	note F#, 1
	note G#, 1
	note A_, 2
	note E_, 4
	note C#, 1
	note D_, 1
	note E_, 2
	note A_, 2
	note G#, 2
	note F#, 2
	note A_, 2
	note G#, 2
	note E_, 2
	note F#, 2
	note G#, 2
	note F#, 4
	note E_, 4
	note F#, 2
	note G#, 2
	note F#, 2
	note A_, 2
	note G#, 2
	note B_, 2
	note A_, 2
	octave 4
	note C#, 2
	note D_, 2
	note C#, 2
	octave 3
	note B_, 2
	note A_, 2
	note G#, 1
	note A_, 1
	note B_, 2
	octave 4
	note C#, 2
	note E_, 2
	octave 3
	note A_, 2
	octave 4
	note D_, 2
	octave 3
	note G#, 2
	octave 4
	note C#, 2
	octave 3
	note F#, 2
	note B_, 2
	note G#, 2
	note A_, 2
	note B_, 2
	note A_, 2
	note G#, 2
	note F#, 2
	note E_, 2
	note F#, 2
	note G#, 2
	note B_, 2
	loopchannel 0, Music_Vermilion_branch_b9f6


Music_Vermilion_Ch2: ; ba61 (2:7a61)
	duty 3
	vibrato 10, 2, 3

Music_Vermilion_branch_ba66:
	notetype 12, 12, 7
	octave 3
	note A_, 8
	octave 4
	note D_, 4
	note C#, 4
	octave 3
	note B_, 6
	note A_, 1
	note B_, 1
	octave 4
	note C#, 8
	octave 3
	note A_, 8
	octave 4
	note D_, 4
	note C#, 4
	octave 3
	note B_, 6
	octave 4
	note C#, 1
	octave 3
	note B_, 1
	note A_, 8
	note A_, 8
	octave 4
	note D_, 4
	note C#, 4
	octave 3
	note B_, 6
	note A_, 1
	note B_, 1
	octave 4
	note C#, 8
	octave 3
	note A_, 8
	octave 4
	note D_, 4
	note C#, 4
	octave 3
	note B_, 6
	octave 4
	note C#, 1
	octave 3
	note B_, 1
	note A_, 8
	note B_, 4
	octave 4
	note C#, 4
	note D_, 4
	note E_, 4
	note F#, 8
	note B_, 8
	note A_, 4
	note G#, 4
	note F#, 4
	note E_, 4
	note F#, 8
	note E_, 8
	loopchannel 0, Music_Vermilion_branch_ba66


Music_Vermilion_Ch3: ; baa6 (2:7aa6)
	notetype 12, 1, 0

Music_Vermilion_branch_baa8:
	octave 4
	note A_, 2
	note E_, 2
	note A_, 2
	note E_, 2
	note A_, 2
	note E_, 2
	note A_, 2
	note E_, 2
	note G#, 2
	note E_, 2
	note G#, 2
	note E_, 2
	note A_, 2
	note G#, 2
	note F#, 2
	note E_, 2
	note A_, 2
	note E_, 2
	note A_, 2
	note E_, 2
	note A_, 2
	note E_, 2
	note A_, 2
	note E_, 2
	note G#, 2
	note E_, 2
	note G#, 2
	note E_, 2
	note A_, 2
	note G#, 2
	note F#, 2
	note G#, 2
	note A_, 2
	note E_, 2
	note A_, 2
	note E_, 2
	note A_, 2
	note E_, 2
	note A_, 2
	note E_, 2
	note G#, 2
	note E_, 2
	note G#, 2
	note E_, 2
	note A_, 2
	note E_, 2
	note A_, 2
	note E_, 2
	note A_, 2
	note E_, 2
	note A_, 2
	note E_, 2
	note A_, 2
	note E_, 2
	note A_, 2
	note E_, 2
	note G#, 2
	note E_, 2
	note G#, 2
	note E_, 2
	note A_, 2
	note E_, 2
	note A_, 2
	note E_, 2
	note B_, 2
	note E_, 2
	note A_, 2
	note E_, 2
	note G#, 2
	note E_, 2
	note F#, 2
	note E_, 2
	note G#, 2
	note E_, 2
	note G#, 2
	note E_, 2
	note B_, 2
	note A_, 2
	note G#, 2
	note F#, 2
	note F#, 2
	note E_, 2
	note G#, 2
	note E_, 2
	note A_, 2
	note E_, 2
	note B_, 2
	note E_, 2
	note B_, 2
	note E_, 2
	note B_, 2
	note E_, 2
	note A_, 2
	note E_, 2
	note G#, 2
	note E_, 2
	loopchannel 0, Music_Vermilion_branch_baa8


Music_Vermilion_Ch4: ; bb0d (2:7b0d)
	dspeed 12

Music_Vermilion_branch_bb0e:
	callchannel Music_Vermilion_branch_bb3f
	dnote 2, triangle1
	dnote 1, triangle1
	dnote 1, triangle1
	dnote 2, triangle1
	dnote 1, triangle1
	dnote 1, triangle1
	dnote 2, triangle1
	dnote 1, triangle1
	dnote 1, triangle1
	dnote 1, triangle1
	dnote 1, triangle1
	dnote 1, triangle1
	dnote 1, triangle1
	loopchannel 4, Music_Vermilion_branch_bb0e
	callchannel Music_Vermilion_branch_bb3f
	callchannel Music_Vermilion_branch_bb3f
	callchannel Music_Vermilion_branch_bb3f
	callchannel Music_Vermilion_branch_bb3f
	loopchannel 0, Music_Vermilion_branch_bb0e

Music_Vermilion_branch_bb3f:
	dnote 2, triangle1
	dnote 1, triangle1
	dnote 1, triangle1
	dnote 2, triangle1
	dnote 1, triangle1
	dnote 1, triangle1
	dnote 2, triangle1
	dnote 1, triangle1
	dnote 1, triangle1
	dnote 2, triangle1
	dnote 1, triangle1
	dnote 1, triangle1
	endchannel
; 0xbb58