Music_JohtoGSC:
	dbw $80, Music_JohtoGSC_Ch1
	dbw $01, Music_JohtoGSC_Ch2
	dbw $02, Music_JohtoGSC_Ch3

Music_JohtoGSC_Ch1:
	ftempo 102
	volume $77
	notetype $C, $C2
	dutycycle 1
	vibrato $12, $24
	note __, 8
	octave 3
	note G#, 1
	note G_, 1
	note F#, 1
	note G_, 1
	note C_, 1
	octave 2
	note B_, 1
	note A#, 1
	note B_, 1
	octave 3
	note C#, 1
	note C_, 1
	octave 2
	note B_, 1
	octave 3
	note C_, 1
	note D_, 1
	note C#, 1
	note C_, 1
	note C#, 1
	note D#, 1
	note D_, 1
	note C#, 1
	note D_, 1
	note E_, 1
	note D#, 1
	note D_, 1
	note D#, 1
	dutycycle 2
	note E_, 6
	note E_, 6
	note E_, 4
	note E_, 2
	note D_, 2
	note E_, 2
	note F_, 6
	intensity $C7
	note D_, 4
	intensity $C2
	note E_, 6
	note D_, 6
	note E_, 4
	note E_, 2
	note D_, 2
	note E_, 2
	note F_, 6
	intensity $C7
	note F_, 4
	intensity $C2
	octave 4
	note E_, 6
	note E_, 6
	note E_, 4
	note E_, 2
	note D_, 2
	note E_, 2
	note F_, 2
	octave 3
	note A_, 2
	note A#, 2
	intensity $C7
	note B_, 4
	intensity $C2
	octave 4
	note E_, 6
	note E_, 6
	note E_, 4
	note E_, 2
	note D_, 2
	note E_, 2
	note F_, 6
	intensity $C7
	note G_, 4
Music_JohtoGSC_Loop1:
	intensity $C2
	octave 3
	note E_, 2
	note D_, 2
	note E_, 2
	note A_, 2
	note B_, 2
	note A_, 2
	note G_, 2
	note A_, 2
	octave 4
	note C_, 2
	octave 3
	note A_, 2
	note B_, 2
	note G_, 2
	note A_, 2
	note E_, 2
	note F_, 2
	note D_, 2
	intensity $C7
	note A#, 4
	intensity $C2
	note G_, 1
	note F_, 1
	note E_, 1
	note G_, 1
	intensity $C7
	octave 4
	note C_, 4
	intensity $C2
	octave 3
	note A_, 1
	note G_, 1
	note F_, 1
	note A_, 1
	intensity $C7
	octave 4
	note D_, 4
	intensity $C2
	note C_, 1
	octave 3
	note A#, 1
	note A_, 1
	octave 4
	note C_, 1
	note F_, 2
	note E_, 2
	note D_, 2
	note C_, 2
	octave 3
	note E_, 2
	note D_, 2
	note E_, 2
	note A_, 2
	note B_, 2
	note A_, 2
	note G_, 2
	note A_, 2
	octave 4
	note C_, 2
	octave 3
	note A_, 2
	note B_, 2
	note G_, 2
	note A_, 2
	note E_, 2
	note F_, 2
	note D_, 2
	intensity $C7
	note F_, 4
	intensity $C2
	note E_, 2
	note F_, 2
	intensity $C7
	octave 4
	note C_, 4
	intensity $C2
	octave 3
	note A#, 2
	octave 4
	note C_, 2
	intensity $C7
	octave 3
	note F_, 16
	note A_, 6
	note E_, 6
	note A#, 4
	octave 4
	note D_, 6
	note F_, 4
	intensity $C2
	note E_, 2
	note D_, 2
	note F_, 2
	note E_, 2
	note F_, 2
	note E_, 2
	note D_, 2
	note C#, 2
	octave 3
	note A#, 2
	note A_, 2
	note A#, 2
	intensity $C7
	note A_, 16
	note E_, 8
	note D_, 8
	note E_, 8
	note F_, 8
	note E_, 8
	note D_, 8
	note G_, 8
	note F_, 8
	note D_, 8
	note C_, 8
	note D_, 8
	note D#, 8
	note D_, 8
	note C_, 8
	note D_, 8
	note D#, 8
	note D_, 8
	note D#, 8
	note E_, 8
	note F_, 8
	intensity $C2
	note G_, 2
	octave 4
	note C_, 2
	octave 3
	note A#, 2
	note G#, 2
	note G_, 2
	note F_, 2
	note D#, 2
	note F_, 2
	note G_, 2
	octave 4
	note C#, 2
	note C_, 2
	note C#, 2
	note D#, 2
	note C#, 2
	note C_, 2
	octave 3
	note A#, 2
	note D#, 2
	note D_, 2
	note D#, 4
	intensity $C7
	note C_, 8
	note D#, 4
	note D_, 4
	note C_, 4
	note D#, 4
	intensity $C2
	note E_, 2
	note D#, 2
	note E_, 4
	intensity $C7
	note C#, 8
	note F_, 4
	note D#, 4
	note C#, 4
	note F_, 4
	intensity $C2
	note F#, 2
	note F_, 2
	note F#, 4
	intensity $C7
	note D_, 8
	note F#, 4
	note E_, 4
	note D_, 4
	note F#, 4
	note G_, 8
	note D#, 8
	note A#, 8
	note G_, 8
	note D#, 16
	note __, 16
	note F_, 8
	note G_, 4
	note D#, 4
	note F_, 4
	intensity $C2
	note G_, 2
	note D#, 2
	intensity $C7
	note F_, 4
	octave 2
	note A#, 4
	octave 3
	note F_, 8
	note G_, 4
	note D#, 4
	note F_, 4
	intensity $C2
	note G_, 2
	note D#, 2
	intensity $C7
	note F_, 4
	note F_, 4
	note F_, 8
	note G_, 4
	note D#, 4
	note F_, 4
	intensity $C2
	note G_, 2
	note D#, 2
	intensity $C7
	note F_, 4
	octave 2
	note A#, 4
	octave 3
	note F_, 8
	note G_, 4
	note D#, 4
	note F_, 4
	intensity $C2
	note G_, 2
	note D#, 2
	intensity $C7
	note F_, 4
	note F_, 4
	note F_, 8
	note G_, 4
	note D#, 4
	note F_, 4
	intensity $C2
	note G#, 2
	note G_, 2
	intensity $C7
	note F_, 8
	note F_, 8
	note G_, 4
	note D#, 4
	note F_, 4
	intensity $C2
	note G_, 2
	note D#, 2
	intensity $C7
	note F_, 8
	note F_, 8
	note G_, 4
	note D#, 4
	note F_, 4
	intensity $C2
	note G_, 2
	note D#, 2
	intensity $C7
	note G#, 16
	octave 4
	note C_, 16
	intensity $C2
	octave 3
	note D#, 6
	note D#, 6
	note D#, 4
	note D#, 6
	note D#, 6
	note F_, 4
	note D#, 6
	note D#, 6
	note D#, 4
	note D#, 6
	note D#, 6
	note F_, 4
	note G#, 6
	note G_, 6
	note F_, 4
	note D#, 4
	note F_, 4
	note G_, 4
	note D#, 4
	note F_, 4
	octave 4
	note C#, 2
	note C_, 2
	octave 3
	note F_, 4
	octave 4
	note C#, 2
	note C_, 2
	octave 3
	note F_, 2
	note G_, 2
	note G#, 2
	octave 4
	note C_, 2
	note C#, 2
	note C_, 2
	octave 3
	note A#, 2
	note G#, 2
	note G_, 6
	note D#, 6
	note G_, 4
	octave 4
	note C#, 4
	note C_, 4
	octave 3
	note A#, 4
	note G#, 4
	note F_, 4
	note C#, 2
	note D#, 2
	note F_, 4
	note C#, 2
	note D#, 2
	note A#, 4
	note G#, 4
	note G_, 4
	note F_, 4
	intensity $C7
	octave 2
	note A#, 8
	octave 3
	note D#, 8
	octave 2
	note A#, 8
	octave 3
	note G_, 8
	note D#, 8
	note A#, 8
	note G_, 8
	octave 4
	note D#, 8
	octave 3
	note A#, 16
	note G_, 6
	note A#, 6
	intensity $C2
	note G#, 2
	note G_, 2
	intensity $C7
	note D#, 16
	note A#, 6
	intensity $C2
	note G_, 4
	note G_, 2
	intensity $C7
	note A#, 16
	note __, 16
	note __, 4
	octave 4
	note D_, 16
	note F_, 16
	loopchannel 0, Music_JohtoGSC_Loop1
Music_JohtoGSC_Ch2:
	notetype $C, $D2
	dutycycle 1
	vibrato $6, $36
	octave 4
	note G#, 1
	note G_, 1
	note F#, 1
	note F_, 1
	note G#, 1
	note D_, 1
	note D#, 1
	note E_, 1
	note G#, 1
	note D#, 1
	note D_, 1
	note D#, 1
	note G#, 1
	note D_, 1
	note C#, 1
	note D_, 1
	note G#, 1
	note C#, 1
	note C_, 1
	note C#, 1
	note G#, 1
	note C_, 1
	octave 3
	note B_, 1
	octave 4
	note C_, 1
	note G#, 1
	octave 3
	note B_, 1
	note A#, 1
	note B_, 1
	octave 4
	note G#, 1
	octave 3
	note A#, 1
	note A_, 1
	note A#, 1
	intensity $D7
	dutycycle 2
	octave 2
	note A_, 1
	octave 1
	note A_, 1
	octave 2
	note E_, 2
	note G_, 2
	note E_, 2
	note A_, 1
	note A_, 1
	note E_, 2
	note G_, 2
	note E_, 2
	note A_, 1
	octave 1
	note A_, 1
	octave 2
	note E_, 2
	note G_, 2
	note E_, 2
	note A_, 1
	note A_, 1
	note E_, 2
	note G_, 2
	note E_, 2
	note A_, 1
	octave 1
	note A_, 1
	octave 2
	note E_, 2
	note G_, 2
	note E_, 2
	note A_, 1
	note A_, 1
	note E_, 2
	note G_, 2
	note E_, 2
	note A_, 1
	octave 1
	note A_, 1
	octave 2
	note E_, 2
	note G_, 2
	note E_, 2
	note A_, 1
	note A_, 1
	note E_, 2
	note G_, 2
	note G#, 2
	octave 3
	note C_, 1
	octave 2
	note C_, 1
	note G_, 2
	note A#, 2
	note G_, 2
	octave 3
	note C_, 1
	note C_, 1
	octave 2
	note G_, 2
	note A#, 2
	note G_, 2
	octave 3
	note C_, 1
	octave 2
	note C_, 1
	note G_, 2
	note A#, 2
	note G_, 2
	octave 3
	note C_, 1
	note C_, 1
	octave 2
	note G_, 2
	note A#, 2
	note G_, 2
	octave 3
	note C_, 1
	octave 2
	note C_, 1
	note G_, 2
	note A#, 2
	note G_, 2
	octave 3
	note C_, 1
	note C_, 1
	octave 2
	note G_, 2
	note A#, 2
	note G_, 2
	octave 3
	note C_, 1
	octave 2
	note C_, 1
	note G_, 2
	note A#, 2
	note G_, 2
	octave 3
	note C_, 1
	note C_, 1
	octave 2
	note G_, 2
	note A#, 2
	note G_, 2
Music_JohtoGSC_Loop2:
	octave 1
	note A_, 1
	note A_, 1
	octave 3
	note E_, 2
	octave 2
	note E_, 2
	note A_, 2
	octave 3
	note E_, 2
	octave 1
	note E_, 1
	note E_, 1
	octave 2
	note A_, 2
	octave 3
	note E_, 2
	octave 1
	note A_, 1
	note A_, 1
	octave 3
	note E_, 2
	octave 2
	note E_, 2
	note A_, 2
	octave 3
	note E_, 2
	octave 1
	note E_, 1
	note E_, 1
	octave 2
	note A_, 2
	octave 3
	note E_, 2
	octave 1
	note A#, 1
	note A#, 1
	octave 3
	note F_, 2
	octave 2
	note F_, 2
	note A#, 2
	octave 3
	note F_, 2
	octave 1
	note F_, 1
	note F_, 1
	octave 2
	note A#, 2
	octave 3
	note F_, 2
	octave 1
	note A#, 1
	note A#, 1
	octave 3
	note F_, 2
	octave 2
	note F_, 2
	note A#, 2
	octave 3
	note F_, 2
	octave 1
	note F_, 1
	note F_, 1
	octave 2
	note A#, 2
	octave 3
	note F_, 2
	octave 1
	note A_, 1
	note A_, 1
	octave 3
	note E_, 2
	octave 2
	note E_, 2
	note A_, 2
	octave 3
	note E_, 2
	octave 1
	note E_, 1
	note E_, 1
	octave 2
	note A_, 2
	octave 3
	note E_, 2
	octave 1
	note A_, 1
	note A_, 1
	octave 3
	note E_, 2
	octave 2
	note E_, 2
	note A_, 2
	octave 3
	note E_, 2
	octave 1
	note E_, 1
	note E_, 1
	octave 2
	note A_, 2
	octave 3
	note E_, 2
	octave 1
	note A#, 1
	note A#, 1
	octave 3
	note F_, 2
	octave 2
	note F_, 2
	note A#, 2
	octave 3
	note F_, 2
	octave 1
	note F_, 1
	note F_, 1
	octave 2
	note A#, 2
	octave 3
	note F_, 2
	octave 1
	note A#, 1
	note A#, 1
	octave 3
	note F_, 2
	octave 2
	note F_, 2
	note A#, 2
	octave 3
	note F_, 2
	octave 1
	note F_, 1
	note F_, 1
	octave 2
	note A#, 2
	octave 3
	note F_, 2
	octave 2
	note E_, 1
	note E_, 1
	note A_, 1
	note A_, 1
	note E_, 2
	note A_, 2
	note E_, 1
	octave 1
	note E_, 1
	octave 2
	note A_, 1
	octave 1
	note A_, 1
	octave 2
	note E_, 2
	note A_, 2
	note E_, 1
	note E_, 1
	note A_, 1
	note A_, 1
	note E_, 2
	note A_, 2
	note E_, 1
	octave 1
	note E_, 1
	octave 2
	note A_, 1
	octave 1
	note A_, 1
	octave 2
	note E_, 2
	note A_, 2
	note E_, 1
	note E_, 1
	note A_, 1
	note A_, 1
	note E_, 2
	note A_, 2
	note E_, 1
	octave 1
	note E_, 1
	octave 2
	note A_, 1
	octave 1
	note A_, 1
	octave 2
	note E_, 2
	note A_, 2
	note A_, 2
	octave 3
	note F_, 2
	note E_, 2
	note D_, 2
	octave 2
	note A_, 2
	note G#, 2
	note A_, 2
	note A#, 2
	note D_, 1
	note D_, 1
	note A_, 1
	note A_, 1
	note D_, 2
	note A_, 2
	note D_, 1
	octave 1
	note D_, 1
	octave 2
	note A_, 1
	octave 1
	note A_, 1
	octave 2
	note D_, 2
	note A_, 2
	note D_, 1
	note D_, 1
	note A_, 1
	note A_, 1
	note D_, 2
	note A_, 2
	note D_, 1
	octave 1
	note D_, 1
	octave 2
	note A_, 1
	octave 1
	note A_, 1
	octave 2
	note D_, 2
	note A_, 2
	note D_, 1
	note D_, 1
	note A_, 1
	note A_, 1
	note D_, 2
	note A_, 2
	note D_, 1
	octave 1
	note D_, 1
	octave 2
	note A_, 1
	octave 1
	note A_, 1
	octave 2
	note D_, 2
	note A_, 2
	note A_, 2
	octave 3
	note D_, 2
	note C_, 2
	octave 2
	note A#, 2
	note A_, 2
	note G_, 2
	note A_, 2
	note A#, 2
	note C_, 1
	note C_, 1
	note G_, 1
	note G_, 1
	note C_, 2
	note G_, 2
	note C_, 1
	octave 1
	note C_, 1
	octave 2
	note G_, 1
	octave 1
	note G_, 1
	octave 2
	note C_, 2
	note G_, 2
	note C_, 1
	note C_, 1
	note G_, 1
	note G_, 1
	note C_, 2
	note G_, 2
	note C_, 1
	octave 1
	note C_, 1
	octave 2
	note G_, 1
	octave 1
	note G_, 1
	octave 2
	note C_, 2
	note G_, 2
	note C_, 1
	note C_, 1
	note G_, 1
	note G_, 1
	note C_, 2
	note G_, 2
	note C_, 1
	octave 1
	note C_, 1
	octave 2
	note G_, 1
	octave 1
	note G_, 1
	octave 2
	note C_, 2
	note G_, 2
	note G_, 2
	octave 3
	note C_, 2
	octave 2
	note A#, 2
	note G#, 2
	note G_, 2
	note F_, 2
	note D#, 2
	note D_, 2
	octave 1
	note G_, 1
	note G_, 1
	octave 2
	note G_, 6
	octave 1
	note F_, 1
	note F_, 1
	octave 2
	note F_, 6
	octave 1
	note E_, 1
	note E_, 1
	octave 2
	note E_, 6
	octave 1
	note D#, 1
	note D#, 1
	octave 2
	note D#, 6
	octave 1
	note A#, 1
	note A#, 1
	octave 3
	note D#, 2
	octave 2
	note D#, 2
	note A#, 2
	octave 3
	note D#, 2
	octave 1
	note D#, 1
	note D#, 1
	octave 2
	note A#, 2
	octave 3
	note D#, 2
	octave 1
	note A#, 1
	note A#, 1
	octave 3
	note D#, 2
	octave 2
	note D#, 2
	note A#, 2
	octave 3
	note D#, 2
	octave 1
	note D#, 1
	note D#, 1
	octave 2
	note A#, 2
	octave 3
	note D#, 2
	octave 1
	note C_, 1
	note C_, 1
	octave 3
	note C_, 2
	octave 2
	note G_, 2
	note C_, 2
	octave 1
	note C_, 1
	note C_, 1
	octave 3
	note C_, 2
	octave 2
	note G_, 2
	note C_, 2
	octave 1
	note C_, 1
	note C_, 1
	octave 3
	note C_, 2
	octave 2
	note G_, 2
	note C_, 2
	octave 1
	note C_, 1
	note C_, 1
	octave 3
	note C_, 2
	octave 2
	note G_, 2
	note C_, 2
	octave 1
	note C#, 1
	note C#, 1
	octave 3
	note C#, 2
	octave 2
	note G#, 2
	note C#, 2
	octave 1
	note C#, 1
	note C#, 1
	octave 3
	note C#, 2
	octave 2
	note G#, 2
	note C#, 2
	octave 1
	note C#, 1
	note C#, 1
	octave 3
	note C#, 2
	octave 2
	note G#, 2
	note C#, 2
	octave 1
	note C#, 1
	note C#, 1
	octave 3
	note C#, 2
	octave 2
	note G#, 2
	note C#, 2
	octave 1
	note D_, 1
	note D_, 1
	octave 3
	note D_, 2
	octave 2
	note A_, 2
	note D_, 2
	octave 1
	note D_, 1
	note D_, 1
	octave 3
	note D_, 2
	octave 2
	note A_, 2
	note D_, 2
	octave 1
	note D_, 1
	note D_, 1
	octave 3
	note D_, 2
	octave 2
	note A_, 2
	note D_, 2
	octave 1
	note D_, 1
	note D_, 1
	octave 3
	note D_, 2
	octave 2
	note A_, 2
	note D_, 2
	octave 1
	note D#, 1
	note D#, 1
	octave 3
	note D#, 2
	octave 2
	note A#, 2
	note D#, 2
	octave 1
	note D#, 1
	note D#, 1
	octave 3
	note D#, 2
	octave 2
	note A#, 2
	note D#, 2
	octave 1
	note D#, 1
	note D#, 1
	octave 3
	note D#, 2
	octave 2
	note A#, 2
	note D#, 2
	octave 1
	note D#, 1
	note D#, 1
	octave 3
	note D#, 2
	octave 2
	note A#, 2
	note D#, 2
	note G_, 1
	note G_, 1
	octave 3
	note A#, 2
	note G_, 2
	octave 2
	note A#, 2
	note G_, 1
	note G_, 1
	octave 3
	note A#, 2
	note G_, 2
	octave 2
	note A#, 2
	note G_, 1
	note G_, 1
	octave 3
	note A#, 2
	note G_, 2
	octave 2
	note A#, 2
	note G_, 1
	note G_, 1
	octave 3
	note A#, 2
	note G_, 2
	octave 2
	note A#, 2
	note A#, 1
	note A#, 1
	note A#, 2
	note D#, 2
	note A#, 2
	octave 3
	note C#, 2
	note C_, 2
	octave 2
	note A#, 2
	note G#, 2
	note G_, 1
	note G#, 1
	note G_, 1
	note G#, 1
	note A#, 2
	note D#, 2
	note F_, 1
	note F_, 1
	note __, 1
	note F_, 1
	note F_, 4
	note A#, 1
	note A#, 1
	note A#, 2
	note D#, 2
	note A#, 2
	octave 3
	note C#, 2
	note C_, 2
	octave 2
	note A#, 2
	note G#, 2
	note G_, 1
	note G#, 1
	note G_, 1
	note G#, 1
	note A#, 2
	octave 3
	note C_, 2
	octave 2
	note A#, 1
	note A#, 1
	note __, 1
	note A#, 1
	note A#, 4
	note A#, 1
	note A#, 1
	note A#, 2
	note D#, 2
	note A#, 2
	octave 3
	note C#, 2
	note C_, 2
	octave 2
	note A#, 2
	note G#, 2
	note G_, 1
	note G#, 1
	note G_, 1
	note G#, 1
	note A#, 2
	note D#, 2
	note F_, 1
	note F_, 1
	note __, 1
	note F_, 1
	note F_, 4
	note A#, 1
	note A#, 1
	note A#, 2
	note D#, 2
	note A#, 2
	octave 3
	note C#, 2
	note C_, 2
	octave 2
	note A#, 2
	note G#, 2
	note G_, 1
	note G#, 1
	note G_, 1
	note G#, 1
	note A#, 2
	octave 3
	note C_, 2
	octave 2
	note A#, 1
	note A#, 1
	note __, 1
	note A#, 1
	note A#, 4
	note C#, 1
	note C#, 1
	octave 3
	note C#, 6
	octave 2
	note C_, 1
	note C_, 1
	octave 3
	note C_, 6
	octave 1
	note A#, 1
	note A#, 1
	octave 2
	note A#, 6
	octave 1
	note G#, 1
	note G#, 1
	octave 2
	note G#, 6
	octave 1
	note F_, 1
	note F_, 1
	octave 2
	note F_, 6
	octave 1
	note G_, 1
	note G_, 1
	octave 2
	note G_, 6
	octave 1
	note G#, 1
	note G#, 1
	octave 2
	note G#, 6
	octave 1
	note A#, 1
	note A#, 1
	octave 2
	note A#, 6
	octave 1
	note F_, 1
	note F_, 1
	octave 2
	note F_, 6
	octave 1
	note G_, 1
	note G_, 1
	octave 2
	note G_, 6
	octave 1
	note G#, 2
	octave 2
	note G#, 2
	note D#, 2
	note G#, 2
	octave 3
	note C_, 8
	octave 2
	note C_, 2
	octave 3
	note C_, 4
	note D#, 2
	note D#, 8
	octave 2
	note A#, 2
	note G#, 2
	note G_, 2
	note F_, 2
	octave 1
	note A#, 1
	note A#, 1
	octave 3
	note D#, 2
	note A#, 2
	note D#, 2
	octave 2
	note A#, 2
	octave 1
	note D#, 1
	note D#, 1
	octave 2
	note A#, 2
	octave 3
	note D#, 2
	octave 1
	note A#, 1
	note A#, 1
	octave 3
	note D#, 2
	note A#, 2
	note D#, 2
	octave 2
	note A#, 2
	octave 1
	note D#, 1
	note D#, 1
	octave 2
	note A#, 2
	octave 3
	note D#, 2
	octave 1
	note A#, 1
	note A#, 1
	octave 3
	note D#, 2
	note A#, 2
	note D#, 2
	octave 2
	note A#, 2
	octave 1
	note D#, 1
	note D#, 1
	octave 2
	note A#, 2
	octave 3
	note D#, 2
	octave 1
	note A#, 1
	note A#, 1
	octave 3
	note D#, 2
	note A#, 2
	note D#, 2
	octave 2
	note A#, 2
	octave 1
	note D#, 1
	note D#, 1
	octave 2
	note A#, 2
	octave 3
	note D#, 2
	octave 1
	note A#, 1
	note A#, 1
	octave 3
	note D#, 2
	note A#, 2
	note D#, 2
	octave 2
	note A#, 2
	octave 1
	note D#, 1
	note D#, 1
	octave 2
	note A#, 2
	octave 3
	note D#, 2
	octave 1
	note A#, 1
	note A#, 1
	octave 3
	note D#, 2
	note A#, 2
	note D#, 2
	octave 2
	note A#, 2
	octave 1
	note D#, 1
	note D#, 1
	octave 2
	note A#, 2
	octave 3
	note D#, 2
	octave 1
	note G#, 1
	note G#, 1
	octave 3
	note C#, 2
	note G#, 2
	note C#, 2
	octave 2
	note G#, 2
	octave 1
	note C#, 1
	note C#, 1
	octave 2
	note G#, 2
	octave 3
	note C#, 2
	octave 1
	note G#, 1
	note G#, 1
	octave 3
	note C#, 2
	note G#, 2
	note C#, 2
	octave 2
	note G#, 2
	octave 1
	note C#, 1
	note C#, 1
	octave 2
	note G#, 2
	octave 3
	note C#, 2
	octave 1
	note A#, 1
	note A#, 1
	octave 3
	note D#, 2
	note A#, 2
	note D#, 2
	octave 2
	note A#, 2
	octave 1
	note D#, 1
	note D#, 1
	octave 2
	note A#, 2
	octave 3
	note D#, 2
	octave 1
	note A#, 1
	note A#, 1
	octave 3
	note D#, 2
	note A#, 2
	note D#, 2
	octave 2
	note A#, 2
	octave 1
	note D#, 1
	note D#, 1
	octave 2
	note A#, 2
	octave 3
	note D#, 2
	octave 1
	note G#, 1
	note G#, 1
	octave 3
	note C#, 2
	note G#, 2
	note C#, 2
	octave 2
	note G#, 2
	octave 1
	note C#, 1
	note C#, 1
	octave 2
	note G#, 2
	octave 3
	note C#, 2
	octave 1
	note G#, 1
	note G#, 1
	octave 3
	note C#, 2
	note G#, 2
	note C#, 2
	octave 2
	note G#, 2
	octave 1
	note C#, 1
	note C#, 1
	octave 2
	note G#, 2
	octave 3
	note C#, 2
	octave 1
	note D#, 1
	note D#, 1
	octave 2
	note D#, 6
	octave 1
	note C#, 1
	note C#, 1
	octave 2
	note C#, 6
	octave 1
	note C_, 1
	note C_, 1
	octave 2
	note C_, 7
	octave 1
	note A#, 1
	note A#, 6
	note A#, 1
	note A#, 1
	octave 2
	note A#, 6
	octave 1
	note G#, 1
	note G#, 1
	octave 2
	note G#, 6
	octave 1
	note G_, 1
	note G_, 1
	octave 2
	note G_, 6
	octave 1
	note F_, 1
	note F_, 1
	octave 2
	note F_, 6
	octave 3
	note D#, 2
	note D#, 2
	octave 4
	note D#, 6
	octave 2
	note D#, 2
	octave 3
	note D#, 4
	octave 2
	note A#, 2
	note A#, 2
	octave 3
	note A#, 6
	octave 1
	note A#, 2
	octave 2
	note A#, 4
	note G_, 2
	note G_, 2
	octave 3
	note G_, 6
	octave 1
	note G_, 2
	octave 2
	note G_, 4
	note D#, 2
	note D#, 2
	octave 3
	note D#, 6
	octave 1
	note D#, 2
	octave 2
	note D#, 4
	note A_, 2
	note A_, 2
	octave 3
	note A_, 6
	octave 1
	note A_, 2
	octave 2
	note A_, 4
	octave 3
	note C_, 2
	note C_, 2
	octave 4
	note C_, 6
	octave 2
	note C_, 2
	octave 3
	note C_, 4
	octave 2
	note A#, 2
	note A#, 2
	octave 3
	note A#, 6
	octave 1
	note A#, 2
	octave 2
	note A#, 4
	octave 3
	note D_, 2
	note D_, 2
	octave 4
	note D_, 6
	octave 2
	note D_, 2
	octave 3
	note D_, 4
	loopchannel 0, Music_JohtoGSC_Loop2
Music_JohtoGSC_Ch3:
	notetype $C, 21
	vibrato $12, $23
	octave 2
	note D_, 1
	octave 4
	note D_, 1
	octave 3
	note D_, 2
	octave 2
	note C#, 1
	octave 4
	note C#, 1
	octave 3
	note C#, 2
	octave 2
	note C_, 1
	octave 4
	note C_, 1
	octave 3
	note C_, 2
	octave 1
	note B_, 1
	octave 3
	note B_, 1
	octave 2
	note B_, 2
	octave 1
	note A#, 1
	octave 3
	note A#, 1
	octave 2
	note A#, 2
	octave 1
	note A_, 1
	octave 3
	note A_, 1
	octave 2
	note A_, 2
	octave 1
	note G#, 1
	octave 3
	note G#, 1
	octave 2
	note G#, 2
	note G_, 1
	note G#, 1
	note A_, 2
	intensity 24
	octave 5
	note A_, 4
	octave 3
	note A_, 2
	octave 4
	note A_, 4
	octave 3
	note A_, 2
	octave 4
	note A_, 4
	note A_, 2
	octave 3
	note A_, 4
	octave 4
	note A_, 6
	note A#, 4
	note A_, 4
	octave 3
	note A_, 2
	octave 4
	note A_, 4
	octave 3
	note A_, 2
	octave 4
	note A_, 4
	note A_, 2
	octave 3
	note A_, 4
	octave 4
	note A_, 6
	note A#, 4
	octave 6
	note C_, 4
	octave 5
	note C_, 2
	octave 6
	note C_, 4
	octave 5
	note C_, 2
	octave 6
	note C_, 4
	note C_, 2
	octave 5
	note C_, 4
	octave 6
	note C_, 6
	note C#, 4
	intensity 16
	note C_, 2
	octave 4
	note E_, 2
	note A_, 2
	octave 6
	note C_, 2
	octave 4
	note E_, 2
	note A_, 2
	octave 6
	note C_, 2
	octave 4
	note E_, 2
	octave 6
	note C_, 2
	octave 4
	note E_, 2
	note B_, 2
	octave 6
	note C_, 2
	octave 5
	note C_, 2
	note E_, 2
	note B_, 4
Music_JohtoGSC_Loop3:
	intensity 21
	octave 4
	note A_, 6
	octave 5
	note E_, 6
	note D_, 2
	note E_, 2
	note G_, 4
	note F#, 4
	note E_, 4
	note D_, 4
	note F_, 4
	note __, 2
	note F_, 4
	note __, 2
	note F_, 4
	note A#, 4
	note __, 2
	note A#, 4
	note __, 2
	note A#, 4
	intensity 20
	octave 4
	note A_, 6
	octave 5
	note E_, 6
	note D_, 2
	note E_, 2
	note G_, 4
	note F#, 4
	note E_, 4
	note D_, 4
	note F_, 4
	note __, 2
	note F_, 4
	note __, 2
	note F_, 4
	note D_, 4
	octave 4
	note A#, 2
	octave 5
	note D_, 2
	note F_, 2
	note E_, 2
	note D_, 2
	note F_, 2
	note E_, 2
	note D_, 2
	note E_, 2
	note F_, 2
	note A#, 2
	note A_, 2
	note A#, 2
	octave 6
	note D_, 2
	note C#, 12
	octave 5
	note A#, 4
	note A_, 4
	octave 4
	note A_, 2
	octave 5
	note A_, 4
	octave 4
	note A_, 2
	octave 5
	note A_, 4
	note A_, 16
	intensity 16
	octave 4
	note A_, 2
	note G_, 2
	note A_, 2
	note A#, 4
	note A_, 2
	note G_, 2
	note A#, 2
	note A_, 2
	note G_, 2
	note A_, 2
	note A#, 4
	note A_, 2
	note G_, 2
	note A#, 2
	note A_, 2
	note G_, 2
	note A_, 2
	note A#, 4
	note A_, 2
	note G_, 2
	note A#, 2
	note A_, 1
	note __, 1
	octave 5
	note D_, 1
	note __, 1
	note C_, 1
	note __, 1
	octave 4
	note A#, 1
	note __, 1
	note A_, 1
	note __, 1
	note G_, 1
	note __, 1
	note A_, 1
	note __, 1
	note A#, 1
	note __, 1
	intensity 21
	note G_, 2
	note F_, 2
	note G_, 2
	note G#, 4
	note G_, 2
	note F_, 2
	note G#, 2
	note G_, 2
	note F_, 2
	note G_, 2
	note G#, 4
	note G_, 2
	note F_, 2
	note G#, 2
	note G_, 2
	note F_, 2
	note G_, 2
	note G#, 4
	note G_, 2
	note F_, 2
	note G#, 2
	note F_, 1
	note __, 1
	octave 5
	note C_, 1
	note __, 1
	octave 4
	note A#, 1
	note __, 1
	note G#, 1
	note __, 1
	note G_, 1
	note __, 1
	note F_, 1
	note __, 1
	note G_, 1
	note __, 1
	note G#, 1
	note __, 1
	intensity 24
	note G_, 4
	note D_, 2
	octave 5
	note D_, 6
	note C_, 2
	note D_, 2
	note F_, 4
	note E_, 4
	note D_, 4
	note C_, 4
	note D#, 16
	note G_, 16
	intensity 21
	octave 4
	note F_, 2
	note D#, 2
	note F_, 4
	note D#, 4
	note F_, 4
	note G_, 4
	note F_, 4
	note D#, 4
	note G_, 4
	note G#, 2
	note G_, 2
	note G#, 4
	note F_, 4
	note G_, 4
	note G#, 4
	note G_, 4
	note F_, 4
	note G#, 4
	note A_, 2
	note G#, 2
	note A_, 4
	note F#, 4
	note G#, 4
	note A_, 4
	note G#, 4
	note F#, 4
	note A_, 4
	note A#, 4
	note __, 2
	note A#, 4
	note __, 2
	note A#, 4
	octave 5
	note D#, 4
	note __, 2
	note D#, 4
	note __, 2
	note D#, 4
	intensity 36
	octave 4
	note A#, 1
	octave 3
	note A#, 1
	octave 4
	note D#, 1
	octave 3
	note A#, 1
	octave 5
	note D#, 1
	octave 3
	note A#, 1
	octave 4
	note D#, 1
	octave 3
	note A#, 1
	octave 4
	note A#, 1
	octave 3
	note A#, 1
	octave 4
	note D#, 1
	octave 3
	note A#, 1
	octave 5
	note D#, 1
	octave 3
	note A#, 1
	octave 4
	note D#, 1
	octave 3
	note A#, 1
	octave 4
	note A#, 1
	octave 3
	note A#, 1
	octave 4
	note D#, 1
	octave 3
	note A#, 1
	octave 5
	note D#, 1
	octave 3
	note A#, 1
	octave 4
	note D#, 1
	octave 3
	note A#, 1
	octave 4
	note A#, 1
	octave 3
	note A#, 1
	octave 4
	note D#, 1
	octave 3
	note A#, 1
	octave 5
	note D#, 1
	octave 3
	note A#, 1
	octave 4
	note D#, 1
	octave 3
	note A#, 1
	octave 5
	note D#, 1
	octave 4
	note D#, 1
	note A#, 1
	note D#, 1
	octave 5
	note G_, 1
	octave 4
	note D#, 1
	note A#, 1
	note D#, 1
	octave 5
	note D#, 1
	octave 4
	note D#, 1
	note A#, 1
	note D#, 1
	octave 5
	note G_, 1
	octave 4
	note D#, 1
	note A#, 1
	note D#, 1
	octave 5
	note D#, 1
	octave 4
	note D#, 1
	note A#, 1
	note D#, 1
	octave 5
	note G_, 1
	octave 4
	note D#, 1
	note A#, 1
	note D#, 1
	octave 5
	note D#, 1
	octave 4
	note D#, 1
	note A#, 1
	note D#, 1
	octave 5
	note G_, 1
	octave 4
	note D#, 1
	note A#, 1
	note D#, 1
	octave 5
	note D#, 1
	octave 4
	note D#, 1
	note A#, 1
	note D#, 1
	octave 5
	note G_, 1
	octave 4
	note D#, 1
	note A#, 1
	note D#, 1
	octave 5
	note D#, 1
	octave 4
	note D#, 1
	note A#, 1
	note D#, 1
	octave 5
	note G_, 1
	octave 4
	note D#, 1
	note A#, 1
	note D#, 1
	octave 5
	note D#, 1
	octave 4
	note D#, 1
	note A#, 1
	note D#, 1
	octave 5
	note G_, 1
	octave 4
	note D#, 1
	note A#, 1
	note D#, 1
	octave 5
	note D#, 1
	octave 4
	note D#, 1
	note A#, 1
	note D#, 1
	octave 5
	note G_, 1
	octave 4
	note D#, 1
	note A#, 1
	note D#, 1
	intensity 37
	octave 5
	note D#, 1
	octave 4
	note D#, 1
	note A#, 1
	note D#, 1
	octave 5
	note G_, 1
	octave 4
	note D#, 1
	note A#, 1
	note D#, 1
	octave 5
	note D#, 1
	octave 4
	note D#, 1
	note A#, 1
	note D#, 1
	octave 5
	note G_, 1
	octave 4
	note D#, 1
	note A#, 1
	note D#, 1
	octave 5
	note D#, 1
	octave 4
	note D#, 1
	note A#, 1
	note D#, 1
	octave 5
	note G_, 1
	octave 4
	note D#, 1
	note A#, 1
	note D#, 1
	octave 5
	note D#, 1
	octave 4
	note D#, 1
	note A#, 1
	note D#, 1
	octave 5
	note G_, 1
	octave 4
	note D#, 1
	note A#, 1
	note D#, 1
	octave 5
	note D#, 1
	octave 4
	note D#, 1
	note A#, 1
	note D#, 1
	octave 5
	note G_, 1
	octave 4
	note D#, 1
	note A#, 1
	note D#, 1
	octave 5
	note D#, 1
	octave 4
	note D#, 1
	note A#, 1
	note D#, 1
	octave 5
	note G_, 1
	octave 4
	note D#, 1
	note A#, 1
	note D#, 1
	octave 5
	note D#, 1
	octave 4
	note D#, 1
	note A#, 1
	note D#, 1
	octave 5
	note G_, 1
	octave 4
	note D#, 1
	note A#, 1
	note D#, 1
	octave 5
	note D#, 1
	octave 4
	note D#, 1
	note A#, 1
	note D#, 1
	octave 5
	note G_, 1
	octave 4
	note D#, 1
	note A#, 1
	note D#, 1
	intensity 16
	octave 5
	note F_, 2
	octave 4
	note F_, 2
	note A#, 2
	octave 5
	note F_, 2
	note G#, 2
	note G_, 2
	note F_, 2
	note D#, 2
	note D_, 1
	note D#, 1
	note D_, 1
	note D#, 1
	note F_, 2
	octave 4
	note A#, 2
	octave 5
	note C_, 8
	note F_, 2
	octave 4
	note F_, 2
	note A#, 2
	octave 5
	note F_, 2
	note G#, 2
	note G_, 2
	note F_, 2
	note D#, 2
	note D_, 1
	note D#, 1
	note D_, 1
	note D#, 1
	note F_, 2
	note G_, 2
	note F_, 8
	note F_, 2
	octave 4
	note F_, 2
	note A#, 2
	octave 5
	note F_, 2
	note G#, 2
	note G_, 2
	note F_, 2
	note D#, 2
	note D_, 1
	note D#, 1
	note D_, 1
	note D#, 1
	note F_, 2
	octave 4
	note A#, 2
	octave 5
	note C_, 16
	note D#, 16
	intensity 21
	octave 4
	note G_, 2
	note F_, 2
	note D#, 2
	note G_, 6
	note G_, 4
	note G_, 4
	note D#, 2
	note G_, 6
	note G#, 4
	note G_, 2
	note F_, 2
	note D#, 2
	note G_, 6
	note G_, 4
	note G_, 6
	note G_, 6
	note G#, 4
	intensity 24
	octave 5
	note D#, 2
	octave 4
	note D#, 2
	octave 5
	note D#, 2
	note A#, 6
	note G#, 2
	note G_, 2
	note G#, 2
	octave 4
	note G#, 2
	octave 5
	note G_, 4
	note F_, 4
	note D#, 4
	note F_, 4
	note __, 2
	note F_, 4
	note __, 2
	note F_, 4
	note G#, 4
	note __, 2
	note G#, 4
	note __, 2
	note G#, 4
	note D#, 2
	octave 4
	note D#, 2
	octave 5
	note D#, 2
	note A#, 6
	note G#, 2
	note G_, 2
	note G#, 2
	octave 4
	note G#, 2
	octave 5
	note G_, 4
	note F_, 4
	note D#, 4
	note C#, 4
	note __, 2
	note C#, 4
	note __, 2
	note C#, 4
	note C#, 4
	note C_, 4
	intensity 21
	octave 4
	note A#, 4
	note G#, 4
	note G_, 1
	note __, 1
	note G_, 4
	note D#, 2
	note A#, 8
	note A#, 1
	note __, 1
	note A#, 4
	note G_, 2
	octave 5
	note D#, 8
	note D#, 1
	note __, 1
	note D#, 4
	octave 4
	note A#, 2
	octave 5
	note G_, 8
	note G_, 1
	note __, 1
	note G_, 4
	note D#, 2
	note A#, 8
	note G_, 2
	octave 4
	note G_, 2
	octave 5
	note G_, 2
	note A#, 6
	note G#, 2
	note G_, 2
	note D#, 4
	note __, 2
	note D#, 4
	note __, 2
	note D#, 4
	intensity 20
	note D#, 2
	octave 4
	note D#, 2
	octave 5
	note D#, 2
	note A#, 6
	note G#, 2
	note G_, 2
	note D#, 4
	note __, 2
	note D#, 4
	note __, 2
	note D#, 4
	octave 4
	note A_, 4
	octave 3
	note A_, 2
	octave 5
	note E_, 6
	note D_, 2
	note E_, 2
	note G_, 2
	octave 4
	note G_, 2
	octave 5
	note F#, 4
	note E_, 4
	note D_, 4
	note F_, 4
	note __, 2
	note F_, 4
	note __, 2
	note F_, 4
	note A#, 4
	note __, 2
	note A#, 4
	note __, 2
	note A#, 4
	loopchannel 0, Music_JohtoGSC_Loop3
