Music_KantoGymLeaderRemix:
	dbw $80, Music_KantoGymLeaderRemix_Ch1
	dbw $01, Music_KantoGymLeaderRemix_Ch2
	dbw $02, Music_KantoGymLeaderRemix_Ch3

Music_KantoGymLeaderRemix_Ch1:
	ftempo 101
	volume $77
	dutycycle $3
	tone $0002
	vibrato $12, $15
	notetype $c, $b2
	octave 3
	note A#, 1
	note A_, 1
	note G#, 1
	note G_, 1
	note G#, 1
	note G_, 1
	note F#, 1
	note G_, 1
	note F#, 1
	note F_, 1
	note F#, 1
	note F_, 1
	note E_, 1
	note F_, 1
	note E_, 1
	note D#, 1
	note E_, 1
	note D#, 1
	note D_, 1
	note D#, 1
	note D_, 1
	note C#, 1
	note D_, 1
	note C#, 1
	note C_, 1
	note C#, 1
	note C_, 1
	octave 2
	note B_, 1
	octave 3
	note C_, 1
	octave 2
	note B_, 1
	note A#, 1
	note B_, 1
	note A#, 2
	note A#, 6
	note A#, 2
	note A#, 6
	note A#, 2
	note A#, 8
	intensity $b7
	note B_, 2
	intensity $b2
	note A#, 2
	note A#, 6
	note A#, 2
	note A#, 6
	note A#, 2
	note A#, 8
	intensity $b7
	octave 3
	note E_, 2
	intensity $b2
	octave 2
	note A#, 2
	note A#, 6
	note A#, 2
	note A#, 6
	note A#, 2
	note A#, 8
	intensity $b7
	note B_, 2
	intensity $b2
	note A#, 2
	note A#, 6
	note A#, 2
	note A#, 6
	note A#, 2
	intensity $b4
	octave 3
	note E_, 4
	note E_, 4
	note E_, 2
Music_KantoGymLeaderRemix_Loop1:
	octave 2
	note C#, 1
	note G#, 1
	octave 3
	note C#, 1
	octave 2
	note B_, 1
	note G#, 1
	octave 3
	note C#, 1
	octave 2
	note B_, 1
	note G#, 1
	octave 3
	note C#, 1
	octave 2
	note B_, 1
	note G#, 1
	octave 3
	note C#, 1
	octave 2
	note B_, 1
	note G#, 1
	octave 3
	note C#, 1
	octave 2
	note B_, 1
	note G#, 1
	octave 3
	note C#, 1
	octave 2
	note B_, 1
	note G#, 1
	octave 3
	note C#, 1
	octave 2
	note B_, 1
	note G#, 1
	octave 3
	note C#, 1
	octave 2
	note B_, 1
	note G#, 1
	octave 3
	note C#, 1
	octave 2
	note B_, 1
	note G#, 1
	octave 3
	note C#, 1
	octave 2
	note B_, 1
	note G#, 1
	note C#, 1
	note E_, 1
	note G#, 1
	note F#, 1
	note E_, 1
	note G#, 1
	note F#, 1
	note E_, 1
	note G#, 1
	note F#, 1
	note E_, 1
	note G#, 1
	note F#, 1
	note E_, 1
	note G#, 1
	note F#, 1
	note E_, 1
	note G#, 1
	note F#, 1
	note E_, 1
	note G#, 1
	note F#, 1
	note E_, 1
	note G#, 1
	note F#, 1
	note E_, 1
	note G#, 1
	note F#, 1
	note E_, 1
	note G#, 1
	note F#, 1
	note E_, 1
	note C#, 1
	note G#, 1
	octave 3
	note C#, 1
	octave 2
	note B_, 1
	note G#, 1
	octave 3
	note C#, 1
	octave 2
	note B_, 1
	note G#, 1
	octave 3
	note C#, 1
	octave 2
	note B_, 1
	note G#, 1
	octave 3
	note C#, 1
	octave 2
	note B_, 1
	note G#, 1
	octave 3
	note C#, 1
	octave 2
	note B_, 1
	note G#, 1
	octave 3
	note C#, 1
	octave 2
	note B_, 1
	note G#, 1
	octave 3
	note C#, 1
	octave 2
	note B_, 1
	note G#, 1
	octave 3
	note C#, 1
	octave 2
	note B_, 1
	note G#, 1
	octave 3
	note C#, 1
	octave 2
	note B_, 1
	note G#, 1
	octave 3
	note C#, 1
	octave 2
	note B_, 1
	note G#, 1
	note C#, 1
	note E_, 1
	note G#, 1
	note F#, 1
	note E_, 1
	note G#, 1
	note F#, 1
	note E_, 1
	note G#, 1
	note F#, 1
	note E_, 1
	note G#, 1
	note F#, 1
	note E_, 1
	note G#, 1
	note F#, 1
	note E_, 1
	note G#, 1
	note F#, 1
	note E_, 1
	note G#, 1
	note F#, 1
	note E_, 1
	note G#, 1
	note F#, 1
	note E_, 1
	note G#, 1
	note F#, 1
	note E_, 1
	note G#, 1
	note F#, 1
	note E_, 1
	note __, 4
	octave 1
	note A_, 4
	note __, 4
	note B_, 4
	note __, 4
	note A_, 4
	note __, 2
	note G#, 2
	note __, 4
	note A_, 4
	note __, 4
	note B_, 4
	note __, 4
	note A_, 4
	note __, 4
	note G#, 2
	note F#, 2
	note E_, 2
	note G#, 2
	note __, 4
	octave 2
	note G_, 1
	note F#, 1
	note E_, 1
	note F#, 1
	note G_, 1
	note F#, 1
	note E_, 1
	note F#, 1
	note G_, 1
	note F#, 1
	note E_, 1
	note F#, 1
	note G_, 1
	note F#, 1
	note E_, 1
	note F#, 1
	note G_, 1
	note F#, 1
	note E_, 1
	note F#, 1
	note G_, 1
	note F#, 1
	note E_, 1
	note F#, 1
	note G_, 1
	note F#, 1
	note E_, 1
	note F#, 1
	note G_, 1
	note F#, 1
	note E_, 1
	note F#, 1
	note G_, 1
	note F#, 1
	note E_, 1
	note F#, 1
	note G_, 1
	note F#, 1
	note E_, 1
	note F#, 1
	note G_, 1
	note F#, 1
	note E_, 1
	note F#, 1
	note G_, 1
	note G#, 1
	note A_, 1
	note A#, 1
	note B_, 1
	note A#, 1
	note A_, 1
	note G#, 1
	note G_, 1
	note F#, 1
	note F_, 1
	note E_, 1
	note D#, 1
	note D_, 1
	note C#, 1
	note D_, 1
	note D#, 1
	note E_, 1
	note F_, 1
	note F#, 1
	note G_, 1
	note F#, 1
	note E_, 1
	note F#, 1
	note G_, 1
	note F#, 1
	note E_, 1
	note F#, 1
	note G_, 1
	note F#, 1
	note E_, 1
	note F#, 1
	note G_, 1
	note F#, 1
	note E_, 1
	note F#, 1
	note G_, 1
	note F#, 1
	note E_, 1
	note F#, 1
	note G_, 1
	note F#, 1
	note E_, 1
	note F#, 1
	note G_, 1
	note F#, 1
	note E_, 1
	note F#, 1
	note G_, 1
	note F#, 1
	note E_, 1
	note F#, 1
	note G_, 1
	note F#, 1
	note E_, 1
	note F#, 1
	note G_, 1
	note F#, 1
	note E_, 1
	note F#, 1
	note G_, 1
	note F#, 1
	note E_, 1
	note F#, 1
	note G_, 1
	note F#, 1
	note E_, 1
	note F#, 1
	note G_, 1
	note F#, 1
	note E_, 1
	note F#, 1
	note G_, 1
	note F#, 1
	note E_, 1
	note F#, 1
	note G_, 1
	note F#, 1
	note E_, 1
	note F#, 1
	note __, 4
	note G#, 12
	note __, 4
	octave 3
	note E_, 12
	octave 2
	note A#, 4
	note G#, 4
	note A#, 4
	note B_, 2
	octave 3
	note C#, 4
	octave 2
	note F#, 2
	note A#, 2
	octave 3
	note C#, 2
	note F#, 2
	note C#, 2
	octave 2
	note A#, 2
	octave 3
	note C#, 2
	note __, 4
	note E_, 12
	octave 2
	note G#, 1
	note F#, 1
	note G#, 1
	note A#, 1
	note B_, 1
	note A#, 1
	note B_, 1
	octave 3
	note C#, 1
	note E_, 1
	note D#, 1
	note C#, 1
	note D#, 1
	note C#, 1
	octave 2
	note B_, 1
	note A#, 1
	note G#, 1
	note A#, 4
	note B_, 4
	note G#, 2
	note A#, 6
	octave 3
	note C#, 4
	octave 2
	note B_, 2
	note A#, 4
	note G#, 6
	note A#, 4
	note B_, 4
	note G#, 2
	note A#, 6
	octave 3
	note C#, 4
	note E_, 2
	note D#, 4
	octave 2
	note B_, 6
	note A#, 4
	note B_, 4
	note G#, 2
	note A#, 6
	note B_, 4
	note A#, 2
	note G#, 4
	note F#, 6
	note A#, 4
	note B_, 4
	note G#, 2
	note A#, 6
	octave 3
	note C#, 4
	note E_, 2
	note D#, 4
	octave 2
	note B_, 6
	loopchannel 0, Music_KantoGymLeaderRemix_Loop1
	
Music_KantoGymLeaderRemix_Ch2:
	dutycycle $3
	vibrato $8, $36
	tone $0001
	notetype $c, $c2

Music_KantoGymBattle_branch_ec852R: ; ec852
	octave 4
	note A#, 1
	note G#, 1
	note A#, 1
	octave 5
	note D#, 1
	loopchannel 8, Music_KantoGymBattle_branch_ec852R
	octave 3

Music_KantoGymBattle_branch_ec85dR: ; ec85d
	intensity $c2
	note D#, 2
	note D#, 2
	note F#, 1
	note E_, 1
	note D#, 1
	note F#, 1
	note D#, 2
	note D#, 2
	note A#, 1
	note G#, 1
	note F#, 1
	note A#, 1
	note D#, 2
	note D#, 2
	note B_, 1
	note A#, 1
	note G#, 1
	note B_, 1
	note D_, 2
	intensity $c7
	note E_, 2
	intensity $c2
	note D#, 2
	note D#, 2
	note F#, 1
	note E_, 1
	note D#, 1
	note F#, 1
	note D#, 2
	note D#, 2
	note A#, 1
	note G#, 1
	note F#, 1
	note A#, 1
	note D#, 2
	note D#, 2
	note B_, 1
	note A#, 1
	note G#, 1
	note B_, 1
	note G#, 2
	intensity $c7
	note B_, 2
	intensity $c2
	octave 4
	loopchannel 2, Music_KantoGymBattle_branch_ec85dR
Music_KantoGymLeaderRemix_Loop2:
	octave 1
	note F#, 2
	octave 2
	note C#, 2
	octave 1
	note F#, 2
	octave 2
	note C#, 2
	octave 1
	note F#, 2
	octave 2
	note C#, 2
	octave 1
	note F#, 2
	octave 2
	note C#, 2
	octave 1
	note F#, 2
	octave 2
	note C#, 2
	octave 1
	note F#, 2
	octave 2
	note C#, 2
	octave 1
	note F#, 2
	octave 2
	note C#, 2
	octave 1
	note F#, 2
	octave 2
	note C#, 2
	octave 1
	note E_, 2
	note B_, 2
	note E_, 2
	note B_, 2
	note E_, 2
	note B_, 2
	note E_, 2
	note B_, 2
	note E_, 2
	note B_, 2
	note E_, 2
	note B_, 2
	note E_, 2
	note B_, 2
	note E_, 2
	note B_, 2
	note F#, 2
	octave 2
	note C#, 2
	octave 1
	note F#, 2
	octave 2
	note C#, 2
	octave 1
	note F#, 2
	octave 2
	note C#, 2
	octave 1
	note F#, 2
	octave 2
	note C#, 2
	octave 1
	note F#, 2
	octave 2
	note C#, 2
	octave 1
	note F#, 2
	octave 2
	note C#, 2
	octave 1
	note F#, 2
	octave 2
	note C#, 2
	octave 1
	note F#, 2
	octave 2
	note C#, 2
	octave 1
	note E_, 2
	note B_, 2
	note E_, 2
	note B_, 2
	note E_, 2
	note B_, 2
	note E_, 2
	note B_, 2
	note E_, 2
	note B_, 2
	note E_, 2
	note B_, 2
	note E_, 2
	note B_, 2
	note E_, 2
	note B_, 2
	note F#, 1
	note __, 1
	note F#, 1
	note __, 1
	note A_, 4
	note F#, 1
	note __, 1
	note F#, 1
	note __, 1
	note B_, 4
	note F#, 1
	note __, 1
	note F#, 1
	note __, 1
	note A_, 4
	note F#, 1
	note __, 1
	note G#, 2
	note F#, 1
	note __, 1
	note F#, 1
	note __, 1
	note A_, 4
	note F#, 1
	note __, 1
	note F#, 1
	note __, 1
	note B_, 4
	note F#, 1
	note __, 1
	note F#, 1
	note __, 1
	note A_, 4
	note F#, 1
	note __, 1
	note F#, 1
	note __, 1
	note G#, 2
	note F#, 2
	note E_, 2
	note G#, 2
	note F#, 1
	note __, 1
	note F#, 1
	note __, 13
	note F#, 1
	note __, 1
	note F#, 1
	note __, 13
	note F#, 1
	note __, 1
	note F#, 1
	note __, 13
	note F#, 1
	note __, 1
	note F#, 1
	note __, 13
	note F#, 1
	note __, 1
	note F#, 1
	note __, 13
	note F#, 1
	note __, 1
	note F#, 1
	note __, 13
	note F#, 1
	note __, 1
	note F#, 1
	note __, 13
	note F#, 1
	note __, 1
	note F#, 1
	note __, 13
	note E_, 1
	note __, 1
	note E_, 1
	note __, 1
	note G#, 12
	note E_, 1
	note __, 1
	note E_, 1
	note __, 1
	note B_, 12
	note A#, 16
	note F#, 16
	note E_, 1
	note __, 1
	note E_, 1
	note __, 1
	note B_, 12
	note G#, 8
	note B_, 8
	note F#, 2
	octave 2
	note C#, 2
	octave 1
	note F#, 2
	octave 2
	note C#, 2
	octave 1
	note F#, 2
	octave 2
	note C#, 2
	octave 1
	note F#, 2
	octave 2
	note C#, 2
	octave 1
	note F#, 2
	octave 2
	note C#, 2
	octave 1
	note F#, 2
	octave 2
	note C#, 2
	octave 1
	note F#, 2
	note B_, 6
	note F#, 2
	octave 2
	note C#, 2
	octave 1
	note F#, 2
	octave 2
	note C#, 2
	octave 1
	note F#, 2
	octave 2
	note C#, 2
	octave 1
	note F#, 2
	octave 2
	note C#, 2
	octave 1
	note F#, 2
	octave 2
	note C#, 2
	octave 1
	note F#, 2
	octave 2
	note C#, 2
	octave 1
	note F#, 2
	octave 2
	note D_, 6
	octave 1
	note F#, 2
	octave 2
	note C#, 2
	octave 1
	note F#, 2
	octave 2
	note C#, 2
	octave 1
	note F#, 2
	octave 2
	note C#, 2
	octave 1
	note F#, 2
	octave 2
	note C#, 2
	octave 1
	note F#, 2
	octave 2
	note C#, 2
	octave 1
	note F#, 2
	octave 2
	note C#, 2
	octave 1
	note F#, 2
	note B_, 6
	note F#, 2
	octave 2
	note C#, 2
	octave 1
	note F#, 2
	octave 2
	note C#, 2
	octave 1
	note F#, 2
	octave 2
	note C#, 2
	octave 1
	note F#, 2
	octave 2
	note C#, 2
	octave 1
	note F#, 2
	octave 2
	note C#, 2
	octave 1
	note F#, 2
	octave 2
	note C#, 2
	octave 1
	note F#, 2
	octave 2
	note D_, 6
	loopchannel 0, Music_KantoGymLeaderRemix_Loop2
	
Music_KantoGymLeaderRemix_Ch3:
	notetype $c, $19
	octave 2
	note E_, 1
	note __, 1

Music_KantoGymBattle_branch_ec934R: ; ec934
	note B_, 3
	note __, 1
	loopchannel 6, Music_KantoGymBattle_branch_ec934R
	note B_, 2
	note G#, 2
	note B_, 2

Music_KantoGymBattle_branch_ec93dR: ; ec93d
	note D#, 1
	note __, 1
	note D#, 1
	note __, 1
	note F#, 4
	note D#, 1
	note __, 1
	note D#, 1
	note __, 1
	note A#, 4
	note D#, 1
	note __, 1
	note D#, 1
	note __, 1
	note B_, 4
	note D_, 1
	note __, 1
	note F_, 2
	note D#, 1
	note __, 1
	note D#, 1
	note __, 1
	note F#, 4
	note D#, 1
	note __, 1
	note D#, 1
	note __, 1
	note A#, 4
	note D#, 1
	note __, 1
	note D#, 1
	note __, 1
	note B_, 4
	note D#, 1
	note __, 1
	note E_, 2
	loopchannel 2, Music_KantoGymBattle_branch_ec93dR
Music_KantoGymLeaderRemix_Loop3:

	notetype $C, 21
	octave 4
	note A#, 4
	note G#, 4
	note A#, 4
	note B_, 2
	octave 5
	note C#, 4
	octave 4
	note B_, 4
	note A#, 2
	note G#, 2
	note F#, 2
	note G#, 2
	note A#, 2
	note E_, 8
	note G#, 8
	note B_, 10
	note G#, 6
	note A#, 4
	note G#, 4
	note A#, 4
	note B_, 2
	octave 5
	note C#, 4
	octave 4
	note B_, 4
	note A#, 2
	note G#, 2
	note F#, 2
	note G#, 2
	note A#, 2
	note G#, 8
	note F#, 8
	note E_, 8
	note B_, 4
	note B_, 2
	note G#, 2
	note __, 4
	intensity 20
	octave 3
	note A_, 1
	note G_, 1
	note F#, 1
	note A_, 1
	note __, 4
	note B_, 1
	note A_, 1
	note F#, 1
	note B_, 1
	note __, 4
	octave 4
	note C#, 1
	octave 3
	note B_, 1
	note F#, 1
	octave 4
	note C#, 1
	note __, 2
	octave 3
	note B_, 1
	note F#, 1
	note B_, 1
	note __, 1
	octave 4
	note C_, 1
	note __, 1
	octave 3
	note A_, 1
	note G#, 1
	note F#, 1
	note A_, 1
	note __, 4
	note B_, 1
	note A_, 1
	note F#, 1
	note B_, 1
	note __, 4
	octave 4
	note C#, 1
	octave 3
	note B_, 1
	note F#, 1
	octave 4
	note C#, 1
	octave 3
	note B_, 1
	note __, 1
	note G#, 1
	note __, 1
	note A_, 1
	note __, 1
	note G#, 1
	note __, 1
	octave 4
	note C#, 1
	note __, 1
	octave 3
	note B_, 1
	note __, 5
	intensity 21
	octave 4
	note F#, 4
	note G_, 4
	note E_, 4
	note F#, 4
	note G_, 4
	note E_, 4
	note D_, 4
	note C#, 16
	note __, 16
	note __, 4
	note F#, 4
	note G_, 4
	note E_, 4
	note F#, 4
	note G_, 4
	note E_, 4
	note G_, 4
	note F#, 16
	octave 5
	note C#, 16
	note __, 4
	intensity 16
	octave 4
	note E_, 12
	note __, 4
	note G#, 12
	note A#, 16
	note A#, 16
	note __, 4
	note G#, 12
	octave 5
	note E_, 8
	octave 4
	note B_, 8
	octave 5
	note F#, 16
	note F#, 16
	note __, 16
	note __, 12
	intensity 20
	octave 4
	note F#, 1
	note A#, 1
	octave 5
	note C#, 1
	note F_, 1
	note F#, 16
	note C#, 16
	note E_, 16
	note G#, 8
	note __, 2
	note E_, 6
	loopchannel 0, Music_KantoGymLeaderRemix_Loop3
