;Composed by LevusBevus for Koolboyman's Pokemon Prism
;revised by FroggestSpirit
Music_NaljoWildBattle:
	dbw $80, Music_NaljoWildBattle_Ch1
	dbw $01, Music_NaljoWildBattle_Ch2
	dbw $02, Music_NaljoWildBattle_Ch3


Music_NaljoWildBattle_Ch1:
	ftempo 104
	volume $77
	stereopanning $f
	dutycycle $3
	tone $0002
	vibrato $12, $15
	notetype $c, $b2
	octave 4
	note D_, 1
	note C#, 1
	note C_, 1
	octave 3
	note B_, 1
	octave 4
	note C#, 1
	note C_, 1
	octave 3
	note B_, 1
	note A#, 1
	octave 4
	note C_, 1
	octave 3
	note B_, 1
	note A#, 1
	note A_, 1
	note B_, 1
	note A#, 1
	note A_, 1
	note G#, 1
	note A#, 1
	note A_, 1
	note G#, 1
	note G_, 1
	note A_, 1
	note G#, 1
	note G_, 1
	note F#, 1
	note G#, 1
	note G_, 1
	note F#, 1
	note F_, 1
	note G_, 1
	note F#, 1
	note F_, 1
	note E_, 1
	octave 2
	intensity $b4
	note A_, 2
	note __, 2
	note D_, 2
	note F_, 2
	note __, 2
	octave 1
	note A_, 2
	octave 2
	note D_, 2
	note __, 2
	note A#, 6
	note A#, 2
	note A#, 4
	note A#, 4
	octave 2
	note A_, 2
	note __, 2
	note D_, 2
	note F_, 2
	note __, 2
	octave 1
	note A_, 2
	octave 2
	note D_, 2
	note __, 2
	note A_, 6
	note A_, 2
	note A_, 4
	note A_, 4
	octave 2
	note A_, 2
	note __, 2
	note D_, 2
	note F_, 2
	note __, 2
	octave 1
	note A_, 2
	octave 2
	note D_, 2
	note __, 2
	note A#, 6
	note A#, 2
	note A#, 4
	note A#, 4
	octave 2
	note A_, 2
	note __, 2
	note D_, 2
	note F_, 2
	note __, 2
	octave 1
	note A_, 2
	octave 2
	note D_, 2
	note __, 2
	intensity $b7
	note F_, 8
	note A_, 8

Music_NaljoWildBattle_branch_19f26b: 
	note D_, 6
	note G_, 6
	note D_, 4
	note A_, 6
	note G_, 6
	note D_, 4
	note C_, 6
	note G_, 6
	note C_, 4
	note A_, 6
	note G_, 6
	note C_, 4
	note D_, 6
	note G_, 6
	note D_, 4
	note A_, 6
	note G_, 6
	note D_, 4
	octave 1
	note A_, 6
	octave 2
	note C#, 6
	octave 1
	note A_, 4
	octave 2
	note E_, 6
	note C#, 6
	octave 1
	note A_, 4
	octave 2
	note D_, 6
	note G_, 6
	note D_, 4
	note A_, 6
	note G_, 6
	note D_, 4
	note C_, 6
	note G_, 6
	note C_, 4
	note A_, 6
	note G_, 6
	note C_, 4
	note D_, 6
	note G_, 6
	note D_, 4
	note A_, 6
	note G_, 6
	note D_, 4
	note D_, 6
	note G_, 6
	note D_, 4
	note A#, 6
	note G_, 6
	note D_, 4
	intensity $a2
	dutycycle 2
	octave 3
	note D_, 2
	note __, 2
	octave 4
	note D_, 2
	octave 3
	note D_, 2
	note __, 2
	octave 4
	note D_, 2
	octave 3
	note D_, 2
	octave 4
	note D_, 2
	octave 3
	note D_, 2
	note __, 2
	octave 4
	note D_, 2
	octave 3
	note D_, 2
	note __, 2
	octave 4
	note D_, 2
	octave 3
	note D_, 2
	octave 4
	note D_, 2
	octave 3
	note G_, 2
	note __, 2
	octave 4
	note G_, 2
	octave 3
	note G_, 2
	note __, 2
	octave 4
	note G_, 2
	octave 3
	note G_, 2
	octave 4
	note G_, 2
	octave 3
	note G_, 2
	note __, 2
	octave 4
	note G_, 2
	octave 3
	note G_, 2
	note __, 2
	octave 4
	note G_, 2
	octave 3
	note G_, 2
	octave 4
	note G_, 2
	octave 3
	note D_, 2
	note __, 2
	octave 4
	note D_, 2
	octave 3
	note D_, 2
	note __, 2
	octave 4
	note D_, 2
	octave 3
	note D_, 2
	octave 4
	note D_, 2
	octave 3
	note D_, 2
	note __, 2
	octave 4
	note D_, 2
	octave 3
	note D_, 2
	note __, 2
	octave 4
	note D_, 2
	octave 3
	note D_, 2
	octave 4
	note D_, 2
	octave 3
	note F_, 2
	note __, 2
	octave 4
	note F_, 2
	octave 3
	note F_, 2
	note __, 2
	octave 4
	note F_, 2
	octave 3
	note F_, 2
	octave 4
	note F_, 2
	octave 3
	note F_, 2
	note __, 2
	octave 4
	note F_, 2
	octave 3
	note F_, 2
	note __, 2
	octave 4
	note F_, 2
	octave 3
	note F_, 2
	octave 4
	note F_, 2
	octave 3
	note D_, 2
	note __, 2
	octave 4
	note D_, 2
	octave 3
	note D_, 2
	note __, 2
	octave 4
	note D_, 2
	octave 3
	note D_, 2
	octave 4
	note D_, 2
	octave 3
	note D_, 2
	note __, 2
	octave 4
	note D_, 2
	octave 3
	note D_, 2
	note __, 2
	octave 4
	note D_, 2
	octave 3
	note D_, 2
	octave 4
	note D_, 2
	intensity $b7
	dutycycle 3
	octave 2
	loopchannel 0, Music_NaljoWildBattle_branch_19f26b

Music_NaljoWildBattle_Ch2: 
	dutycycle $3
	tone $0001
	vibrato $8, $36
	notetype $c, $c2

Music_NaljoWildBattle_branch_19f11b:
	octave 3
	note D_, 1
	note C#, 1
	note C_, 1
	octave 2
	note B_, 1
	loopchannel 8, Music_NaljoWildBattle_branch_19f11b
	octave 3
	intensity $c4
	note D_, 2
	note __, 2
	octave 2
	note A_, 2
	octave 3
	note D_, 2
	note __, 2
	octave 2
	note A_, 2
	octave 3
	note D_, 2
	note __, 2
	note D#, 6
	note D#, 2
	note D#, 4
	note D#, 4
	octave 3
	note D_, 2
	note __, 2
	octave 2
	note A_, 2
	octave 3
	note D_, 2
	note __, 2
	octave 2
	note A_, 2
	octave 3
	note D_, 2
	note __, 2
	note E_, 6
	note E_, 2
	note E_, 4
	note E_, 4
	octave 3
	note D_, 2
	note __, 2
	octave 2
	note A_, 2
	octave 3
	note D_, 2
	note __, 2
	octave 2
	note A_, 2
	octave 3
	note D_, 2
	note __, 2
	note D#, 6
	note D#, 2
	note D#, 4
	note D#, 4
	octave 3
	note D_, 2
	note __, 2
	octave 2
	note A_, 2
	octave 3
	note D_, 2
	note __, 2
	octave 2
	note A_, 2
	octave 3
	note D_, 2
	note __, 2
	intensity $c7
	note F_, 8
	note D#, 8

Music_NaljoWildBattle_branch_19f167: 
	note D_, 6
	note A_, 4
	note G_, 1
	note A_, 1
	note A#, 2
	note A_, 2
	note G_, 2
	note A_, 2
	note A#, 4
	octave 4
	note C_, 4
	octave 3
	note A#, 4
	note A_, 16
	note F_, 16
	note D_, 6
	note A_, 4
	note G_, 1
	note A_, 1
	note A#, 2
	note A_, 2
	note G_, 2
	note A_, 2
	note A#, 4
	octave 4
	note C_, 4
	note C#, 4
	octave 3
	note A_, 16
	note E_, 16
	note D_, 6
	note A_, 4
	note G_, 1
	note A_, 1
	note A#, 2
	note A_, 2
	note G_, 2
	note A_, 2
	note A#, 4
	octave 4
	note C_, 4
	octave 3
	note A#, 4
	note A_, 16
	note F_, 16
	note D_, 6
	note A_, 4
	note G_, 1
	note A_, 1
	note A#, 2
	note A_, 2
	note G_, 2
	note A_, 2
	note A#, 4
	octave 4
	note C_, 4
	note C#, 4
	note D_, 16
	octave 3
	note D_, 16
	octave 4
	intensity $c2
	note D_, 2
	note D_, 2
	octave 3
	intensity $c7
	note A_, 8
	note __, 2
	intensity $c2
	note D#, 2
	note D_, 2
	note D_, 2
	octave 2
	intensity $c7
	note A_, 12
	octave 3
	note D_, 8
	intensity $c2
	note C_, 4
	octave 2
	note A#, 2
	note A#, 1
	note A_, 1
	intensity $c7
	note A#, 16
	octave 4
	intensity $c2
	note D_, 2
	note D_, 2
	octave 3
	intensity $c7
	note A_, 8
	note __, 2
	intensity $c2
	note D#, 2
	note D_, 2
	note D_, 2
	octave 2
	intensity $c7
	note A_, 12
	octave 3
	note C_, 8
	octave 2
	intensity $c2
	note F_, 3
	note G_, 3
	note A_, 2
	intensity $c7
	note G_, 8
	octave 3
	intensity $c2
	note C#, 1
	note D_, 1
	note D#, 1
	note F_, 1
	note G_, 1
	note A_, 1
	note A#, 1
	octave 4
	note C#, 1
	note D_, 2
	octave 3
	note D_, 2
	note D_, 2
	octave 4
	note D_, 2
	octave 3
	note D_, 2
	note D_, 2
	octave 4
	note D_, 2
	octave 3
	note D_, 2
	intensity $c7
	note F_, 8
	note D#, 8
	loopchannel 0, Music_NaljoWildBattle_branch_19f167


Music_NaljoWildBattle_Ch3: 
	notetype $c, $14
	octave 4
	note D_, 2
	note D_, 1
	note D_, 1
	note D#, 2
	note D#, 1
	note D_, 1
	note E_, 2
	note E_, 1
	note D#, 1
	note F_, 2
	note F_, 1
	note E_, 1
	note F#, 2
	note F#, 1
	note F_, 1
	note G_, 2
	note G_, 1
	note F#, 1
	note G#, 2
	note G#, 1
	note G_, 1
	note A_, 4
	octave 3
	note A_, 2
	octave 4
	note D_, 2
	octave 3
	note A_, 2
	octave 4
	note D_, 2
	octave 3
	note A_, 2
	octave 4
	note D_, 2
	note F_, 2
	note D_, 2
	octave 3
	note A#, 2
	octave 4
	note D#, 2
	octave 3
	note A#, 2
	octave 4
	note D#, 2
	octave 3
	note A#, 2
	octave 4
	note D#, 2
	note F#, 2
	note D#, 2
	octave 3
	note A_, 2
	octave 4
	note D_, 2
	octave 3
	note A_, 2
	octave 4
	note D_, 2
	octave 3
	note A_, 2
	octave 4
	note D_, 2
	note F_, 2
	note D_, 2
	octave 3
	note E_, 2
	note A_, 2
	note E_, 2
	note A_, 2
	note E_, 2
	note A_, 2
	octave 4
	note C#, 2
	octave 3
	note A_, 2
	octave 3
	note A_, 2
	octave 4
	note D_, 2
	octave 3
	note A_, 2
	octave 4
	note D_, 2
	octave 3
	note A_, 2
	octave 4
	note D_, 2
	note F_, 2
	note D_, 2
	octave 3
	note A#, 2
	octave 4
	note D#, 2
	octave 3
	note A#, 2
	octave 4
	note D#, 2
	octave 3
	note A#, 2
	octave 4
	note D#, 2
	note F#, 2
	note D#, 2
	octave 3
	note A_, 2
	octave 4
	note D_, 2
	octave 3
	note A_, 2
	octave 4
	note D_, 2
	octave 3
	note A_, 2
	octave 4
	note D_, 2
	note F_, 2
	note D_, 2
	note D_, 16

Music_NaljoWildBattle_branch_19f3ba: 
	octave 3
	note A_, 2
	octave 4
	note D_, 2
	loopchannel 8, Music_NaljoWildBattle_branch_19f3ba

Music_NaljoWildBattle_branch_19f3c2: 
	note C_, 2
	note F_, 2
	loopchannel 8, Music_NaljoWildBattle_branch_19f3c2

Music_NaljoWildBattle_branch_19f3c8: 
	octave 3
	note A_, 2
	octave 4
	note D_, 2
	loopchannel 8, Music_NaljoWildBattle_branch_19f3c8
	octave 3

Music_NaljoWildBattle_branch_19f3d1: 
	note E_, 2
	note A_, 2
	loopchannel 8, Music_NaljoWildBattle_branch_19f3d1

Music_NaljoWildBattle_branch_19f3d7: 
	octave 3
	note A_, 2
	octave 3
	note D_, 2
	loopchannel 8, Music_NaljoWildBattle_branch_19f3d7

Music_NaljoWildBattle_branch_19f3df: 
	note C_, 2
	note F_, 2
	loopchannel 8, Music_NaljoWildBattle_branch_19f3df

Music_NaljoWildBattle_branch_19f3e5: 
	octave 3
	note A_, 2
	octave 4
	note D_, 2
	loopchannel 8, Music_NaljoWildBattle_branch_19f3e5

Music_NaljoWildBattle_branch_19f3ed: 
	note D_, 2
	note G_, 2
	loopchannel 8, Music_NaljoWildBattle_branch_19f3ed
	octave 3
	note A_, 2
	octave 4
	note D_, 2
	octave 3
	note A_, 2
	octave 4
	note D_, 2
	note F_, 2
	note D_, 2
	octave 3
	note A_, 2
	octave 4
	note D_, 2
	octave 3
	note A_, 2
	octave 4
	note D_, 2
	octave 3
	note A_, 2
	octave 4
	note D_, 2
	note F_, 2
	note A_, 2
	note F_, 2
	note D_, 2
	note D_, 2
	note G_, 2
	note D_, 2
	note G_, 2
	note A#, 2
	note G_, 2
	note D_, 2
	note G_, 2
	note D_, 2
	note G_, 2
	note D_, 2
	note G_, 2
	note A#, 2
	octave 5
	note D_, 2
	octave 4
	note A#, 2
	note G_, 2
	octave 3
	note A_, 2
	octave 4
	note D_, 2
	octave 3
	note A_, 2
	octave 4
	note D_, 2
	note F_, 2
	note D_, 2
	octave 3
	note A_, 2
	octave 4
	note D_, 2
	octave 3
	note A_, 2
	octave 4
	note D_, 2
	octave 3
	note A_, 2
	octave 4
	note D_, 2
	note F_, 2
	note A_, 2
	note F_, 2
	note D_, 2
	octave 3
	note C_, 2
	note F_, 2
	note C_, 2
	note F_, 2
	note A_, 2
	note F_, 2
	note C_, 2
	note F_, 2
	note C_, 2
	note F_, 2
	note C_, 2
	note F_, 2
	note A_, 2
	octave 4
	note C_, 2
	octave 3
	note A_, 2
	note F_, 2
	octave 4
	note D_, 4
	note D_, 6
	octave 3
	note A_, 2
	note A#, 2
	octave 4
	note C#, 2
	note D_, 16
	loopchannel 0, Music_NaljoWildBattle_branch_19f3ba
	
