Music_PokeathelonFinal:
	dbw $C0, Music_PokeathelonFinal_Ch1
	dbw $01, Music_PokeathelonFinal_Ch2
	dbw $02, Music_PokeathelonFinal_Ch3
	dbw $03, Music_PokeathelonFinal_Ch4

Music_PokeathelonFinal_Ch1:
	tempo $84
	volume $77
	tone $0002
	notetype $2, $C3
	vibrato 8, $24
	dutycycle 2
	
	octave 4
	note D#, 1
	note D_, 1
	note C#, 2
	note C_, 1
	octave 3
	note B_, 1
	
	note A_, 1
	note G#, 1
	note G_, 2
	note F#, 1
	note F_, 1

	note D#, 1
	note D_, 1
	note C#, 2
	note C_, 1
	octave 2
	note B_, 1

	octave 1
	note D_, 1
	note C#, 1
	note C_, 4

	note D_, 1
	note C#, 1
	note C_, 4
	
	octave 4
	note D#, 1
	note D_, 1
	note C#, 2
	note C_, 1
	octave 3
	note B_, 1
	
	note A_, 1
	note G#, 1
	note G_, 2
	note F#, 1
	note F_, 1

	note D#, 1
	note D_, 1
	note C#, 2
	note C_, 1
	octave 2
	note B_, 1
	
	octave 1
	note D_, 1
	note C#, 1
	note C_, 4

	notetype $C, $C3
	note __, 7
	dutycycle 0
	octave 3
	note F_, 2
	octave 1
	intensity $81
	note A#, 1
	note A#, 1
	octave 2
	intensity $C3
	note F_, 2
	octave 1
	intensity $81
	note A#, 1
	note A#, 1
Music_PokeathelonFinal_Loop1:
	note A#, 1
	note A#, 1
	octave 2
	intensity $C3
	note F_, 2
	octave 3
	note F_, 2
	note G_, 2
	octave 1
	intensity $81
	note A#, 1
	note A#, 1
	note A#, 1
	note A#, 1
	octave 2
	intensity $C3
	note G_, 2
	octave 1
	intensity $81
	note A#, 1
	note A#, 1
	note A#, 1
	note A#, 1
	octave 2
	intensity $C3
	note G_, 2
	octave 3
	note G_, 2
	note F#, 2
	octave 1
	intensity $81
	note A#, 1
	note A#, 1
	note A#, 1
	note A#, 1
	octave 2
	intensity $C3
	note F#, 2
	octave 1
	intensity $81
	note A#, 1
	note A#, 1
	note A#, 1
	note A#, 1
	octave 2
	intensity $C3
	note F#, 2
	octave 3
	note F#, 2
	note C#, 2
	octave 1
	intensity $81
	note A#, 1
	note A#, 1
	note A#, 1
	note A#, 1
	octave 2
	intensity $C3
	note F_, 2
	octave 1
	intensity $81
	note A#, 1
	note A#, 1
	note A#, 1
	note A#, 1
	octave 2
	intensity $C3
	note F_, 2
	octave 1
	intensity $81
	note A#, 1
	note A#, 1
	octave 2
	intensity $C3
	note F_, 2
	octave 3
	note G_, 2
	octave 1
	intensity $81
	note A#, 1
	note A#, 1
	octave 2
	intensity $C3
	note D#, 2
	octave 1
	intensity $81
	note A#, 1
	note A#, 1
	note A#, 1
	note A#, 1
	octave 2
	intensity $C3
	note D#, 2
	octave 3
	note G_, 2
	note A#, 2
	octave 1
	intensity $81
	note A#, 1
	note A#, 1
	note A#, 1
	note A#, 1
	octave 2
	intensity $C3
	note G_, 2
	octave 1
	intensity $81
	note A#, 1
	note A#, 1
	note A#, 1
	note A#, 1
	octave 2
	intensity $C3
	note G_, 2
	octave 3
	note G_, 2
	note G#, 2
	octave 1
	intensity $81
	note A#, 1
	note A#, 1
	note A#, 1
	note A#, 1
	octave 2
	intensity $C3
	note G#, 2
	octave 1
	intensity $81
	note A#, 1
	note A#, 1
	note A#, 1
	note A#, 1
	octave 2
	intensity $C3
	note G#, 2
	octave 3
	note G#, 2
	note A#, 2
	octave 1
	intensity $81
	note A#, 1
	note A#, 1
	note A#, 1
	note A#, 1
	octave 2
	intensity $C3
	note A#, 2
	octave 1
	intensity $81
	note A#, 1
	note A#, 1
	note A#, 1
	note A#, 1
	intensity $C3
	octave 3
	note A_, 6
	note C#, 1
	intensity $81
	octave 2
	note A#, 1
	note A#, 1
	note A#, 1
	intensity $91
	octave 4
	note A#, 1
	intensity $81
	octave 2
	note A#, 1
	note A#, 1
	note A#, 1
	intensity $91
	octave 4
	note A#, 1
	intensity $81
	octave 2
	note A#, 1
	note A#, 1
	intensity $C3
	octave 3
	note C_, 1
	note C#, 2
	note D#, 1
	intensity $81
	octave 2
	note A#, 1
	intensity $91
	octave 4
	note A#, 1
	intensity $81
	octave 2
	note A#, 1
	note A#, 1
	note A#, 1
	intensity $91
	octave 4
	note A#, 1
	intensity $81
	octave 2
	note A#, 1
	note A#, 1
	note A#, 1
	intensity $91
	octave 4
	note A#, 1
	intensity $81
	octave 2
	note A#, 1
	note A#, 1
	intensity $C3
	octave 3
	note D_, 1
	note D#, 2
	note C#, 1
	intensity $81
	octave 2
	note A#, 1
	intensity $91
	octave 4
	note A#, 1
	intensity $81
	octave 2
	note A#, 1
	note A#, 1
	note A#, 1
	intensity $91
	octave 4
	note A#, 1
	intensity $81
	octave 2
	note A#, 1
	note A#, 1
	note A#, 1
	intensity $91
	octave 4
	note A#, 1
	intensity $81
	octave 2
	note A#, 1
	note A#, 1
	intensity $C3
	octave 3
	note C_, 1
	note C#, 2
	intensity $81
	octave 2
	note A#, 1
	note A#, 1
	intensity $91
	octave 4
	note A#, 1
	intensity $81
	octave 2
	note A#, 1
	note A#, 1
	note A#, 1
	intensity $91
	octave 4
	note A#, 1
	intensity $81
	octave 2
	note A#, 1
	note A#, 1
	note A#, 1
	intensity $91
	octave 4
	note A#, 1
	intensity $81
	octave 2
	note A#, 1
	note A#, 1
	note A#, 1
	intensity $91
	octave 4
	note A#, 1
	intensity $81
	octave 2
	note A#, 1
	note A#, 1
	note A#, 1
	intensity $C3
	octave 3
	note C_, 1
	intensity $81
	octave 2
	note A#, 1
	note A#, 1
	note A#, 1
	intensity $91
	octave 4
	note A#, 1
	intensity $81
	octave 2
	note A#, 1
	note A#, 1
	note A#, 1
	intensity $91
	octave 4
	note A#, 1
	intensity $81
	octave 2
	note A#, 1
	note A#, 1
	intensity $C3
	octave 3
	note C_, 1
	note C#, 2
	note D#, 1
	intensity $81
	octave 2
	note A#, 1
	intensity $91
	octave 4
	note A#, 1
	intensity $81
	octave 2
	note A#, 1
	note A#, 1
	note A#, 1
	intensity $91
	octave 4
	note A#, 1
	intensity $81
	octave 2
	note A#, 1
	note A#, 1
	note A#, 1
	intensity $91
	octave 4
	note A#, 1
	intensity $81
	octave 2
	note A#, 1
	note A#, 1
	intensity $C3
	note F#, 1
	note G_, 2
	intensity $81
	note A#, 1
	note A#, 1
	intensity $91
	octave 4
	note A#, 1
	intensity $81
	octave 2
	note A#, 1
	note A#, 1
	note A#, 1
	intensity $91
	octave 4
	note A#, 1
	intensity $81
	octave 2
	note A#, 1
	note A#, 1
	note A#, 1
	intensity $91
	octave 4
	note A#, 1
	intensity $81
	octave 2
	note A#, 1
	note A#, 1
	intensity $C3
	octave 3
	note E_, 1
	note F_, 2
	note F#, 1
	intensity $81
	octave 2
	note A#, 1
	intensity $91
	octave 4
	note A#, 1
	intensity $81
	octave 2
	note A#, 1
	note A#, 1
	note A#, 1
	intensity $91
	octave 4
	note A#, 1
	intensity $81
	octave 2
	note A#, 1
	note A#, 1
	note A#, 1
	intensity $91
	octave 4
	note A#, 1
	intensity $81
	octave 2
	note A#, 1
	note A#, 1
	note A#, 1
	intensity $91
	octave 4
	note A#, 1
	intensity $81
	octave 2
	note A#, 1
	note A#, 1
	note A#, 1
	intensity $C3
	octave 3
	note C#, 1
	intensity $A2
	octave 5
	note F_, 1
	octave 4
	note A#, 1
	octave 5
	note F_, 1
	octave 2
	note F_, 2
	octave 4
	note A#, 1
	octave 5
	note F_, 1
	octave 3
	note A#, 1
	octave 5
	note F_, 1
	octave 2
	note F_, 1
	intensity $C3
	octave 3
	note C_, 1
	note C#, 2
	intensity $A2
	note D#, 1
	octave 5
	note F_, 1
	octave 3
	note A#, 1
	octave 5
	note D#, 1
	octave 4
	note A#, 1
	octave 5
	note D#, 1
	intensity $C3
	octave 2
	note G_, 2
	intensity $A2
	octave 4
	note A#, 1
	octave 5
	note D#, 1
	octave 3
	note A#, 1
	octave 5
	note D#, 1
	octave 2
	note G_, 1
	intensity $C3
	octave 3
	note D_, 1
	note D#, 2
	intensity $A2
	note C#, 1
	octave 5
	note D#, 1
	octave 3
	note A#, 1
	octave 5
	note D#, 1
	octave 4
	note A#, 1
	octave 5
	note D#, 1
	intensity $C3
	octave 2
	note F#, 2
	intensity $A2
	octave 4
	note A#, 1
	octave 5
	note D#, 1
	octave 3
	note A#, 1
	octave 5
	note D#, 1
	octave 2
	note F#, 1
	intensity $C3
	octave 3
	note C_, 1
	note C#, 2
	intensity $A2
	octave 2
	note A#, 1
	intensity $C7
	dutycycle 1
	octave 4
	notetype $6, $C7
	note A#, 1
	note B_, 1
	notetype $C, $C7
	octave 5
	note C_, 6
	note C_, 1
	note C#, 1
	dutycycle 0
	note __, 2
	intensity $C3
	octave 2
	note F_, 4
	note F_, 2
	intensity $A2
	octave 3
	note C#, 1
	octave 5
	note F_, 1
	octave 4
	note A#, 1
	octave 5
	note F_, 1
	intensity $C3
	octave 2
	note C#, 2
	intensity $A2
	octave 4
	note A#, 1
	octave 5
	note F_, 1
	octave 3
	note A#, 1
	octave 5
	note F_, 1
	octave 2
	note C#, 1
	intensity $C3
	octave 3
	note C_, 1
	note C#, 2
	intensity $A2
	note D#, 1
	octave 5
	note F_, 1
	octave 3
	note A#, 1
	octave 5
	note D#, 1
	octave 4
	note A#, 1
	octave 5
	note D#, 1
	intensity $C3
	octave 2
	note D#, 2
	intensity $A2
	octave 4
	note A#, 1
	octave 5
	note D#, 1
	octave 3
	note A#, 1
	octave 5
	note D#, 1
	octave 2
	note D#, 1
	intensity $C3
	octave 3
	note D_, 1
	note D#, 2
	intensity $A2
	note F#, 1
	octave 5
	note D#, 1
	octave 3
	note A#, 1
	octave 5
	note D#, 1
	octave 4
	note A#, 1
	octave 5
	note D#, 1
	intensity $C3
	octave 2
	note F#, 2
	intensity $A2
	octave 4
	note A#, 1
	octave 5
	note D#, 1
	octave 3
	note A#, 1
	octave 5
	note D#, 1
	intensity $C3
	octave 2
	note F#, 1
	octave 3
	note E_, 1
	note F_, 2
	intensity $A2
	note F#, 1
	octave 5
	note D#, 1
	octave 3
	note A#, 1
	octave 5
	note F#, 1
	octave 4
	note A#, 1
	octave 5
	note F#, 1
	octave 2
	note F#, 2
	octave 4
	note A#, 1
	octave 5
	note F#, 1
	octave 3
	note A#, 1
	octave 5
	note F_, 1
	intensity $C3
	octave 2
	note F_, 2
	intensity $A2
	octave 3
	note A#, 1
	octave 5
	note F_, 1
	intensity $B0
	octave 3
	note B_, 1
	octave 4
	note C_, 1
	note D_, 6
	octave 3
	note B_, 6
	octave 4
	note D_, 4
	note C#, 6
	octave 3
	note A_, 6
	note G_, 4
	note F#, 6
	octave 4
	note C#, 6
	note D_, 4
	octave 3
	note E_, 14
	note E_, 1
	note F#, 1
	note G_, 6
	note G_, 6
	note A_, 4
	note F#, 6
	note E_, 6
	note D_, 4
	note E_, 6
	note C_, 6
	note E_, 4
	note F#, 6
	note G_, 1
	note F#, 1
	note E_, 4
	note F#, 4
	intensity $C3
	octave 2
	note G#, 2
	intensity $A1
	note C#, 1
	note C#, 1
	intensity $C3
	dutycycle 1
	note G#, 2
	intensity $A1
	dutycycle 0
	note E_, 1
	note E_, 1
	note E_, 1
	note E_, 1
	intensity $C3
	dutycycle 1
	note G#, 2
	intensity $A1
	dutycycle 0
	note C#, 1
	note C#, 1
	note C#, 1
	note C#, 1
	intensity $C3
	note B_, 2
	intensity $A1
	octave 1
	note B_, 1
	note B_, 1
	intensity $C3
	dutycycle 1
	octave 2
	note B_, 2
	intensity $A1
	dutycycle 0
	note F#, 1
	note F#, 1
	note F#, 1
	note F#, 1
	intensity $C3
	dutycycle 1
	note B_, 2
	intensity $A1
	dutycycle 0
	octave 1
	note B_, 1
	note B_, 1
	note B_, 1
	note B_, 1
	intensity $C3
	octave 2
	note B_, 2
	intensity $A1
	note E_, 1
	note E_, 1
	intensity $C3
	dutycycle 1
	note B_, 2
	intensity $A1
	dutycycle 0
	note E_, 1
	note E_, 1
	note E_, 1
	note E_, 1
	intensity $C3
	dutycycle 1
	note B_, 2
	intensity $A1
	dutycycle 0
	octave 1
	note G#, 1
	note G#, 1
	note G#, 1
	note G#, 1
	intensity $C3
	octave 3
	note C#, 2
	intensity $A1
	octave 1
	note A_, 1
	note A_, 1
	intensity $C3
	dutycycle 1
	octave 3
	note C#, 2
	intensity $A1
	dutycycle 0
	octave 1
	note A_, 1
	note A_, 1
	note A_, 1
	note A_, 1
	intensity $C3
	dutycycle 1
	octave 3
	note C#, 2
	intensity $A1
	dutycycle 0
	octave 1
	note A_, 1
	note A_, 1
	note A_, 1
	note A_, 1
	intensity $C3
	octave 2
	note A_, 2
	intensity $A1
	note C#, 1
	note C#, 1
	intensity $C3
	dutycycle 1
	note A_, 2
	intensity $A1
	dutycycle 0
	note C#, 1
	note C#, 1
	note C#, 1
	note C#, 1
	intensity $C3
	dutycycle 1
	note A_, 2
	intensity $A1
	dutycycle 0
	note C#, 1
	note C#, 1
	note C#, 1
	note C#, 1
	intensity $C3
	note B_, 2
	intensity $A1
	note D#, 1
	note D#, 1
	intensity $C3
	dutycycle 1
	note B_, 2
	intensity $A1
	dutycycle 0
	note D#, 1
	note D#, 1
	note D#, 1
	note D#, 1
	intensity $C3
	dutycycle 1
	note B_, 2
	intensity $A1
	dutycycle 0
	note D#, 1
	note D#, 1
	note D#, 1
	note D#, 1
	intensity $C3
	note G#, 2
	intensity $A1
	note E_, 1
	note E_, 1
	intensity $C3
	dutycycle 1
	note G#, 2
	intensity $A1
	dutycycle 0
	note E_, 1
	note E_, 1
	note E_, 1
	note E_, 1
	intensity $C3
	dutycycle 1
	note G#, 2
	intensity $A1
	dutycycle 0
	note E_, 1
	note E_, 1
	note E_, 1
	note E_, 1
	intensity $C3
	dutycycle 1
	note G#, 2
	intensity $A1
	dutycycle 0
	octave 1
	note E_, 1
	note E_, 1
	intensity $C3
	dutycycle 1
	octave 2
	note G#, 2
	intensity $A1
	dutycycle 0
	note E_, 1
	note E_, 1
	intensity $C3
	dutycycle 1
	note F_, 2
	intensity $A1
	dutycycle 0
	octave 1
	note A_, 1
	note A_, 1
	intensity $C3
	dutycycle 1
	octave 2
	note F_, 2
	intensity $A1
	dutycycle 0
	octave 1
	note A_, 1
	note A_, 1
	intensity $C3
	dutycycle 1
	octave 3
	note F_, 2
	dutycycle 0
	octave 1
	intensity $81
	note A#, 1
	note A#, 1
	dutycycle 1
	octave 2
	intensity $C3
	note F_, 2
	dutycycle 0
	octave 1
	intensity $81
	note A#, 1
	note A#, 1
	loopchannel 0, Music_PokeathelonFinal_Loop1
Music_PokeathelonFinal_Ch2:
	notetype $C, $E2
	tone $0001
	vibrato 8, $24
	dutycycle 1
	octave 3
	note __, 8
	note F_, 1
	note F#, 1
	note G#, 1
	octave 4
	note C_, 1
	note F_, 1
	note D#, 1
	note C#, 1
	note C_, 1
	intensity $C2
	note C#, 8
Music_PokeathelonFinal_Loop2:
	notetype $4, $C2
	note __, 11
	note C_, 1
	notetype $C, $C2
	note C#, 2
	note D#, 10
	notetype $4, $C2
	note __, 11
	note D_, 1
	notetype $C, $C2
	note D#, 2
	note C#, 10
	notetype $4, $C2
	note __, 11
	note C_, 1
	notetype $C, $C2
	note C#, 2
	octave 3
	note A#, 6
	intensity $B1
	dutycycle 2
	octave 4
	note A#, 1
	note F_, 1
	note A#, 1
	octave 5
	note C#, 1
	note F_, 1
	note D#, 1
	note C#, 1
	note C_, 1
	octave 4
	note A#, 1
	note A_, 1
	note A#, 1
	octave 5
	note C_, 1
	intensity $C2
	dutycycle 1
	octave 4
	note C#, 8
	notetype $4, $C2
	note __, 11
	note C_, 1
	notetype $C, $C2
	note C#, 2
	note D#, 10
	notetype $4, $C2
	note __, 11
	note D_, 1
	notetype $C, $C2
	note D#, 2
	note F_, 10
	notetype $4, $C2
	note __, 11
	note E_, 1
	notetype $C, $C2
	note F_, 2
	note F#, 10
	notetype $4, $C2
	octave 3
	note B_, 1
	octave 4
	note C_, 1
	note D_, 1
	note E_, 1
	note F_, 1
	note G_, 1
	notetype $C, $C2
	note G#, 6
	intensity $C8
	dutycycle 0
	octave 3
	note A#, 10
	note F_, 2
	note A#, 2
	note G#, 4
	note G_, 4
	note D#, 8
	note D#, 1
	note F_, 1
	note F#, 12
	note G#, 2
	note F_, 6
	intensity $B1
	dutycycle 2
	octave 4
	note A#, 1
	note F_, 1
	note A#, 1
	octave 5
	note C#, 1
	note F_, 1
	note D#, 1
	note C#, 1
	note C_, 1
	octave 4
	note A#, 1
	note A_, 1
	note A#, 1
	octave 5
	note C_, 1
	intensity $C8
	dutycycle 0
	octave 3
	note A#, 10
	note D#, 2
	note A#, 2
	note G#, 8
	note G_, 6
	note D#, 2
	note D#, 1
	note F_, 1
	note F#, 12
	note G#, 2
	note A#, 8
	note A_, 1
	note A#, 1
	octave 4
	note C_, 8
	dutycycle 1
	note A#, 10
	note F_, 2
	note A#, 2
	note G#, 4
	note G_, 4
	note D#, 8
	note D#, 1
	note F_, 1
	note F#, 12
	note G#, 2
	note F_, 10
	octave 5
	note D#, 1
	note F_, 1
	note D#, 1
	note C#, 1
	note C_, 1
	octave 4
	note A#, 1
	note G#, 1
	note F_, 1
	note A#, 10
	note D#, 2
	note A#, 2
	note G#, 8
	note G_, 6
	note D#, 1
	note __, 1
	note D#, 1
	note F_, 1
	note F#, 12
	note G#, 2
	note A#, 8
	intensity $C2
	note A_, 1
	note A#, 1
	octave 5
	note C_, 1
	note C_, 1
	octave 4
	note A_, 1
	note F_, 1
	note C_, 1
	note F_, 1
	dutycycle 2
	octave 3
	note G_, 1
	note A_, 1
	note B_, 2
	dutycycle 1
	note G_, 1
	note D_, 1
	octave 2
	note B_, 1
	octave 3
	note D_, 1
	dutycycle 2
	note G_, 2
	dutycycle 1
	note D_, 1
	octave 2
	note B_, 1
	note G_, 1
	note B_, 1
	dutycycle 2
	octave 3
	note B_, 2
	dutycycle 1
	note G_, 1
	note D_, 1
	dutycycle 2
	note A_, 2
	dutycycle 1
	note E_, 1
	note C#, 1
	octave 2
	note A_, 1
	octave 3
	note C#, 1
	dutycycle 2
	note E_, 2
	dutycycle 1
	note C#, 1
	octave 2
	note A_, 1
	note E_, 1
	note A_, 1
	dutycycle 2
	octave 3
	note E_, 2
	dutycycle 1
	note C#, 1
	octave 2
	note A_, 1
	dutycycle 2
	octave 3
	note D_, 2
	dutycycle 1
	octave 2
	note B_, 1
	note F#, 1
	note D_, 1
	note F#, 1
	dutycycle 2
	octave 3
	note A_, 2
	dutycycle 1
	note F#, 1
	note D_, 1
	octave 2
	note B_, 1
	octave 3
	note D_, 1
	dutycycle 2
	note B_, 2
	dutycycle 1
	note F#, 1
	note D_, 1
	dutycycle 2
	note C#, 2
	dutycycle 1
	octave 2
	note A_, 1
	note F#, 1
	octave 3
	note F#, 1
	note C#, 1
	octave 2
	note A_, 1
	octave 3
	note C#, 1
	note A_, 1
	note F#, 1
	note C#, 1
	note F#, 1
	octave 4
	note C#, 1
	octave 3
	note A_, 1
	dutycycle 2
	note C#, 1
	note D_, 1
	note E_, 2
	dutycycle 1
	note E_, 1
	note C_, 1
	octave 2
	note G_, 1
	octave 3
	note C_, 1
	dutycycle 2
	note E_, 2
	dutycycle 1
	note E_, 1
	note C_, 1
	octave 2
	note G_, 1
	octave 3
	note C_, 1
	dutycycle 2
	note F#, 2
	dutycycle 1
	note C_, 1
	octave 2
	note G_, 1
	dutycycle 2
	octave 3
	note D_, 2
	dutycycle 1
	note D_, 1
	octave 2
	note B_, 1
	note F#, 1
	note B_, 1
	dutycycle 2
	octave 3
	note C#, 2
	dutycycle 1
	octave 2
	note B_, 1
	note F#, 1
	note D_, 1
	note F#, 1
	dutycycle 2
	note B_, 2
	dutycycle 1
	note F#, 1
	note D_, 1
	dutycycle 2
	octave 3
	note C_, 2
	dutycycle 1
	note C_, 1
	octave 2
	note A_, 1
	note E_, 1
	note C_, 1
	dutycycle 2
	note A_, 2
	dutycycle 1
	note E_, 1
	note C_, 1
	note E_, 1
	note A_, 1
	dutycycle 2
	octave 3
	note C_, 2
	dutycycle 1
	octave 2
	note A_, 1
	note E_, 1
	dutycycle 2
	octave 3
	note D_, 2
	dutycycle 1
	octave 2
	note A_, 1
	note F#, 1
	note D_, 1
	note F#, 1
	dutycycle 2
	octave 3
	note E_, 1
	note D_, 1
	intensity $B0
	dutycycle 1
	octave 4
	note C#, 1
	octave 3
	note E_, 1
	note F#, 1
	note G#, 1
	note A#, 1
	note B_, 1
	octave 4
	note C#, 1
	note D#, 1
	note E_, 6
	note C#, 6
	note E_, 4
	note F#, 6
	octave 3
	note B_, 6
	octave 4
	notetype $6, $B0
	note F#, 8
	note G#, 1
	note A_, 11
	notetype $C, $B0
	note G#, 6
	note F#, 4
	note E_, 15
	notetype $6, $B0
	note F#, 1
	note G_, 1
	notetype $C, $B0
	note G#, 6
	note F#, 6
	note B_, 4
	note G#, 6
	note F#, 6
	note E_, 4
	note D#, 16
	note C#, 6
	intensity $C2
	note D#, 1
	note C#, 1
	note C_, 1
	octave 3
	note F_, 1
	note A_, 1
	octave 4
	note C_, 1
	note F_, 1
	note D#, 1
	note C#, 1
	note C_, 1
	note C#, 8
	loopchannel 0, Music_PokeathelonFinal_Loop2
Music_PokeathelonFinal_Ch3:
	notetype $C, $14
	note __, 16
	octave 1
	note A#, 1
	intensity $24
	note A#, 1
	intensity $14
	note A#, 1
	intensity $24
	note A#, 1
	intensity $14
	octave 2
	note A#, 1
	intensity $24
	note A#, 1
	intensity $14
	octave 1
	note A#, 1
	intensity $24
	note A#, 1
Music_PokeathelonFinal_Loop3:
	callchannel Music_PokeathelonFinal_Branch3A
	intensity $14
	note A#, 1
	intensity $24
	note A#, 1
	intensity $14
	octave 2
	note F#, 4
	octave 1
	note F_, 1
	note F_, 1
	note A#, 1
	intensity $24
	note A#, 1
	intensity $14
	note A#, 1
	intensity $24
	note A#, 1
	intensity $14
	octave 2
	note A#, 1
	intensity $24
	note A#, 1
	intensity $14
	octave 1
	note A#, 1
	intensity $24
	note A#, 1
	callchannel Music_PokeathelonFinal_Branch3A
	callchannel Music_PokeathelonFinal_Branch3A
	callchannel Music_PokeathelonFinal_Branch3B
	intensity $14
	note F_, 1
	intensity $24
	note F_, 1
	intensity $14
	octave 2
	note F_, 1
	intensity $24
	note F_, 1
	intensity $14
	octave 1
	note F_, 1
	intensity $24
	note F_, 1
	intensity $14
	octave 2
	note F_, 1
	intensity $24
	note F_, 1
	intensity $14
	octave 1
	note G_, 1
	intensity $20
	octave 6
	note B_, 1
	intensity $14
	octave 1
	note G_, 1
	intensity $20
	octave 5
	note B_, 1
	intensity $14
	octave 2
	note G_, 1
	intensity $20
	octave 5
	note B_, 1
	intensity $14
	octave 1
	note G_, 1
	intensity $20
	octave 6
	note B_, 1
	intensity $14
	octave 1
	note G_, 1
	intensity $20
	octave 5
	note B_, 1
	intensity $14
	octave 2
	note G_, 1
	intensity $20
	octave 6
	note B_, 1
	intensity $14
	octave 1
	note G_, 1
	intensity $20
	octave 5
	note B_, 1
	intensity $14
	octave 2
	note G_, 1
	intensity $20
	octave 5
	note B_, 1
	intensity $14
	octave 1
	note A_, 1
	intensity $20
	octave 7
	note E_, 1
	intensity $14
	octave 1
	note A_, 1
	intensity $20
	octave 7
	note E_, 1
	intensity $14
	octave 2
	note A_, 1
	intensity $20
	octave 6
	note E_, 1
	intensity $14
	octave 1
	note A_, 1
	intensity $20
	octave 7
	note E_, 1
	intensity $14
	octave 1
	note A_, 1
	intensity $20
	octave 6
	note E_, 1
	intensity $14
	octave 2
	note A_, 1
	intensity $20
	octave 6
	note E_, 1
	intensity $14
	octave 1
	note A_, 1
	intensity $20
	octave 7
	note E_, 1
	intensity $14
	octave 2
	note A_, 1
	intensity $20
	octave 7
	note E_, 1
	intensity $14
	octave 1
	note B_, 1
	intensity $20
	octave 5
	note B_, 1
	intensity $14
	octave 1
	note B_, 1
	intensity $20
	octave 6
	note B_, 1
	intensity $14
	octave 2
	note B_, 1
	intensity $20
	octave 5
	note B_, 1
	intensity $14
	octave 1
	note B_, 1
	intensity $20
	octave 6
	note B_, 1
	intensity $14
	octave 1
	note B_, 1
	intensity $20
	octave 6
	note B_, 1
	intensity $14
	octave 2
	note B_, 1
	intensity $20
	octave 5
	note B_, 1
	intensity $14
	octave 1
	note B_, 1
	intensity $20
	octave 6
	note B_, 1
	intensity $14
	octave 2
	note B_, 1
	intensity $20
	octave 5
	note B_, 1
	intensity $14
	octave 1
	note F#, 1
	intensity $20
	octave 6
	note A_, 1
	intensity $14
	octave 1
	note F#, 1
	intensity $20
	octave 5
	note A_, 1
	intensity $14
	octave 2
	note F#, 1
	intensity $20
	octave 6
	note A_, 1
	intensity $14
	octave 1
	note F#, 1
	intensity $20
	octave 6
	note A_, 1
	intensity $14
	octave 1
	note F#, 1
	intensity $20
	octave 5
	note A_, 1
	intensity $14
	octave 2
	note F#, 1
	intensity $20
	octave 6
	note A_, 1
	intensity $14
	octave 1
	note F#, 1
	intensity $20
	octave 5
	note A_, 1
	intensity $14
	octave 2
	note F#, 1
	intensity $20
	octave 5
	note A_, 1
	intensity $14
	octave 2
	note C_, 1
	intensity $20
	octave 6
	note B_, 1
	intensity $14
	octave 2
	note C_, 1
	intensity $20
	octave 6
	note B_, 1
	intensity $14
	octave 3
	note C_, 1
	intensity $20
	octave 5
	note B_, 1
	intensity $14
	octave 2
	note C_, 1
	intensity $20
	octave 6
	note B_, 1
	intensity $14
	octave 2
	note C_, 1
	intensity $20
	octave 5
	note B_, 1
	intensity $14
	octave 3
	note C_, 1
	intensity $20
	octave 6
	note B_, 1
	intensity $14
	octave 2
	note C_, 1
	intensity $20
	octave 5
	note B_, 1
	intensity $14
	octave 3
	note C_, 1
	intensity $20
	octave 5
	note B_, 1
	intensity $14
	octave 1
	note B_, 1
	intensity $20
	octave 6
	note B_, 1
	intensity $14
	octave 1
	note B_, 1
	intensity $20
	octave 5
	note B_, 1
	intensity $14
	octave 2
	note B_, 1
	intensity $20
	octave 6
	note B_, 1
	intensity $14
	octave 1
	note B_, 1
	intensity $20
	octave 6
	note B_, 1
	intensity $14
	octave 1
	note B_, 1
	intensity $20
	octave 5
	note B_, 1
	intensity $14
	octave 2
	note B_, 1
	intensity $20
	octave 5
	note B_, 1
	intensity $14
	octave 1
	note B_, 1
	intensity $20
	octave 6
	note B_, 1
	intensity $14
	octave 2
	note B_, 1
	intensity $20
	octave 5
	note B_, 1
	intensity $14
	octave 1
	note A_, 1
	intensity $20
	octave 5
	note A_, 1
	intensity $14
	octave 1
	note A_, 1
	intensity $20
	octave 6
	note A_, 1
	intensity $14
	octave 2
	note A_, 1
	intensity $20
	octave 6
	note A_, 1
	intensity $14
	octave 1
	note A_, 1
	intensity $20
	octave 5
	note A_, 1
	intensity $14
	octave 1
	note A_, 1
	intensity $20
	octave 6
	note A_, 1
	intensity $14
	octave 2
	note A_, 1
	intensity $20
	octave 5
	note A_, 1
	intensity $14
	octave 1
	note A_, 1
	intensity $20
	octave 6
	note A_, 1
	intensity $14
	octave 2
	note A_, 1
	intensity $20
	octave 6
	note A_, 1
	intensity $14
	octave 2
	note D_, 1
	intensity $20
	octave 6
	note D_, 1
	intensity $14
	octave 2
	note D_, 1
	intensity $20
	octave 7
	note D_, 1
	intensity $14
	octave 3
	note D_, 1
	intensity $20
	octave 7
	note D_, 1
	intensity $14
	octave 2
	note D_, 1
	intensity $20
	octave 6
	note D_, 1
	intensity $14
	octave 2
	note C#, 1
	intensity $20
	octave 6
	note F#, 1
	intensity $14
	octave 3
	note C#, 1
	intensity $20
	octave 6
	note F#, 1
	intensity $14
	octave 3
	note F#, 1
	intensity $20
	octave 2
	note F#, 1
	intensity $14
	note F#, 1
	intensity $20
	note F#, 1
	intensity $14
	note C#, 1
	intensity $20
	octave 6
	note G#, 1
	intensity $14
	octave 2
	note C#, 1
	intensity $20
	octave 4
	note G#, 1
	intensity $14
	octave 3
	note C#, 1
	intensity $20
	octave 6
	note G#, 1
	intensity $14
	octave 2
	note C#, 1
	intensity $20
	octave 6
	note G#, 1
	intensity $14
	octave 2
	note C#, 1
	intensity $20
	octave 4
	note G#, 1
	intensity $14
	octave 3
	note C#, 1
	intensity $20
	octave 4
	note G#, 1
	intensity $14
	octave 2
	note C#, 1
	intensity $20
	octave 6
	note G#, 1
	intensity $14
	octave 3
	note C#, 1
	intensity $20
	octave 6
	note G#, 1
	intensity $14
	octave 2
	note D#, 1
	intensity $20
	octave 4
	note B_, 1
	intensity $14
	octave 2
	note D#, 1
	intensity $20
	octave 6
	note B_, 1
	intensity $14
	octave 3
	note D#, 1
	intensity $20
	octave 6
	note B_, 1
	intensity $14
	octave 2
	note D#, 1
	intensity $20
	octave 4
	note B_, 1
	intensity $14
	octave 2
	note D#, 1
	intensity $20
	octave 6
	note B_, 1
	intensity $14
	octave 3
	note D#, 1
	intensity $20
	octave 6
	note B_, 1
	intensity $14
	octave 2
	note D#, 1
	intensity $20
	octave 4
	note B_, 1
	intensity $14
	octave 3
	note D#, 1
	intensity $20
	octave 6
	note B_, 1
	intensity $14
	octave 2
	note E_, 1
	intensity $20
	octave 4
	note B_, 1
	intensity $14
	octave 2
	note E_, 1
	intensity $20
	octave 4
	note B_, 1
	intensity $14
	octave 3
	note E_, 1
	intensity $20
	octave 6
	note B_, 1
	intensity $14
	octave 2
	note E_, 1
	intensity $20
	octave 4
	note B_, 1
	intensity $14
	octave 2
	note E_, 1
	intensity $20
	octave 6
	note B_, 1
	intensity $14
	octave 3
	note E_, 1
	intensity $20
	octave 4
	note B_, 1
	intensity $14
	octave 2
	note E_, 1
	intensity $20
	octave 4
	note B_, 1
	intensity $14
	octave 3
	note E_, 1
	intensity $20
	octave 6
	note B_, 1
	intensity $14
	octave 1
	note A_, 1
	intensity $20
	octave 7
	note C#, 1
	intensity $14
	octave 1
	note A_, 1
	intensity $20
	octave 5
	note C#, 1
	intensity $14
	octave 2
	note A_, 1
	intensity $20
	octave 7
	note C#, 1
	intensity $14
	octave 1
	note A_, 1
	intensity $20
	octave 5
	note C#, 1
	intensity $14
	octave 1
	note A_, 1
	intensity $20
	octave 5
	note C#, 1
	intensity $14
	octave 2
	note A_, 1
	intensity $20
	octave 7
	note C#, 1
	intensity $14
	octave 1
	note A_, 1
	intensity $20
	octave 5
	note C#, 1
	intensity $14
	octave 2
	note A_, 1
	intensity $20
	octave 7
	note C#, 1
	intensity $14
	octave 1
	note F#, 1
	intensity $20
	octave 7
	note C#, 1
	intensity $14
	octave 1
	note F#, 1
	intensity $20
	octave 5
	note C#, 1
	intensity $14
	octave 2
	note F#, 1
	intensity $20
	octave 5
	note C#, 1
	intensity $14
	octave 1
	note F#, 1
	intensity $20
	octave 7
	note C#, 1
	intensity $14
	octave 1
	note F#, 1
	intensity $20
	octave 5
	note C#, 1
	intensity $14
	octave 2
	note F#, 1
	intensity $20
	octave 7
	note C#, 1
	intensity $14
	octave 1
	note F#, 1
	intensity $20
	octave 7
	note C#, 1
	intensity $14
	octave 2
	note F#, 1
	intensity $20
	octave 5
	note C#, 1
	intensity $14
	octave 1
	note G#, 1
	intensity $20
	octave 6
	note B_, 1
	intensity $14
	octave 1
	note G#, 1
	intensity $20
	octave 6
	note B_, 1
	intensity $14
	octave 2
	note G#, 1
	intensity $20
	octave 4
	note B_, 1
	intensity $14
	octave 1
	note G#, 1
	intensity $20
	octave 6
	note B_, 1
	intensity $14
	octave 1
	note G#, 1
	intensity $20
	octave 4
	note B_, 1
	intensity $14
	octave 2
	note G#, 1
	intensity $20
	octave 4
	note B_, 1
	intensity $14
	octave 1
	note G#, 1
	intensity $20
	octave 6
	note B_, 1
	intensity $14
	octave 2
	note G#, 1
	intensity $20
	octave 4
	note B_, 1
	intensity $14
	octave 2
	note C#, 1
	intensity $20
	octave 6
	note G#, 1
	intensity $14
	octave 2
	note C#, 1
	intensity $20
	octave 4
	note G#, 1
	intensity $14
	octave 3
	note C#, 1
	intensity $20
	octave 6
	note G#, 1
	intensity $14
	octave 2
	note C#, 1
	intensity $20
	octave 6
	note G#, 1
	intensity $14
	octave 2
	note C#, 1
	intensity $20
	octave 4
	note G#, 1
	intensity $14
	octave 3
	note C#, 1
	intensity $20
	octave 6
	note G#, 1
	intensity $14
	octave 2
	note C#, 1
	intensity $20
	octave 4
	note G#, 1
	intensity $14
	octave 3
	note C#, 1
	intensity $20
	octave 4
	note G#, 1
	intensity $14
	octave 1
	note G#, 1
	intensity $20
	octave 7
	note C#, 1
	intensity $14
	octave 1
	note G#, 1
	intensity $20
	octave 5
	note C#, 1
	intensity $14
	octave 2
	note G#, 1
	intensity $20
	octave 7
	note C#, 1
	intensity $14
	octave 1
	note G#, 1
	intensity $20
	octave 5
	note C#, 1
	intensity $14
	octave 1
	note F_, 1
	intensity $20
	octave 6
	note F_, 1
	intensity $14
	octave 2
	note F_, 1
	intensity $20
	octave 4
	note F_, 1
	intensity $14
	octave 1
	note F_, 1
	intensity $20
	octave 4
	note F_, 1
	intensity $14
	octave 2
	note F_, 1
	intensity $20
	octave 6
	note F_, 1
	intensity $14
	octave 1
	note A#, 1
	intensity $24
	note A#, 1
	intensity $14
	note A#, 1
	intensity $24
	note A#, 1
	intensity $14
	octave 2
	note A#, 1
	intensity $24
	note A#, 1
	intensity $14
	octave 1
	note A#, 1
	intensity $24
	note A#, 1
	loopchannel 0, Music_PokeathelonFinal_Loop3
Music_PokeathelonFinal_Branch3A:
	intensity $14
	note A#, 1
	intensity $24
	note A#, 1
	intensity $14
	octave 2
	note A#, 1
	intensity $24
	note A#, 1
	intensity $14
	octave 1
	note A#, 1
	intensity $24
	note A#, 1
	intensity $14
	octave 2
	note A#, 1
	intensity $24
	note A#, 1
	intensity $14
	octave 1
	note A#, 1
	intensity $24
	note A#, 1
	intensity $14
	note A#, 1
	intensity $24
	note A#, 1
	intensity $14
	octave 2
	note A#, 1
	intensity $24
	note A#, 1
	intensity $14
	octave 1
	note A#, 1
	intensity $24
	note A#, 1
	loopchannel 7, Music_PokeathelonFinal_Branch3A
	db $FF
Music_PokeathelonFinal_Branch3B:
	intensity $14
	note A#, 1
	intensity $24
	note A#, 1
	intensity $14
	octave 2
	note A#, 1
	intensity $24
	note A#, 1
	intensity $14
	octave 1
	note A#, 1
	intensity $24
	note A#, 1
	intensity $14
	octave 2
	note A#, 1
	intensity $24
	note A#, 1
	intensity $14
	octave 1
	note A#, 1
	intensity $24
	note A#, 1
	intensity $14
	note A#, 1
	intensity $24
	note A#, 1
	intensity $14
	octave 2
	note A#, 1
	intensity $24
	note A#, 1
	intensity $14
	octave 1
	note A#, 1
	intensity $24
	note A#, 1
	db $FF
Music_PokeathelonFinal_Ch4:
	notetype $C
	togglenoise 1
	note F#, 3
	note F#, 3
	note F#, 3
	note D#, 1
	note D_, 1
	note C#, 1
	note C#, 1
	note C#, 1
	note C#, 1
	note C#, 1
	note F#, 2
	note A#, 1
	note A#, 1
	note C#, 1
	note B_, 1
	note A#, 1
	note A#, 1
Music_PokeathelonFinal_Loop4:
	callchannel Music_PokeathelonFinal_Branch4A
	note B_, 1
	note B_, 1
	note A#, 1
	note A#, 1
	note C#, 1
	note B_, 1
	note C#, 1
	note C#, 1
	note F#, 2
	note A#, 1
	note A#, 1
	note C#, 1
	note B_, 1
	note A#, 1
	note A#, 1
	note B_, 1
	note B_, 1
	note A#, 1
	note A#, 1
	note C#, 1
	note B_, 1
	note A#, 1
	note A#, 1
	note B_, 1
	note B_, 1
	note A#, 1
	note A#, 1
	note C#, 1
	note B_, 1
	note A#, 1
	note A#, 1
	note B_, 1
	note B_, 1
	note A#, 1
	note A#, 1
	note C#, 1
	note B_, 1
	note F#, 4
	note A#, 1
	note A#, 1
	note C#, 1
	note B_, 1
	note A#, 1
	note A#, 1
	note B_, 1
	note B_, 1
	note A#, 1
	note A#, 1
	note C#, 1
	note B_, 1
	note F#, 2
	note B_, 1
	note B_, 1
	note A#, 1
	note A#, 1
	note F#, 2
	note A#, 1
	note A#, 1
	note C#, 1
	note C#, 1
	note F#, 4
	note C#, 1
	note C#, 1
	note F#, 2
	note A#, 1
	note A#, 1
	note C#, 1
	note B_, 1
	note A#, 1
	note A#, 1
	callchannel Music_PokeathelonFinal_Branch4A
	note D_, 1
	note C#, 1
	note A#, 1
	note A#, 1
	note C#, 1
	note B_, 1
	note E_, 4
	note A#, 1
	note A#, 1
	note C#, 1
	note B_, 1
	note A#, 1
	note A#, 1
	callchannel Music_PokeathelonFinal_Branch4A
	note B_, 1
	note B_, 1
	note A#, 1
	note A#, 1
	note C#, 1
	note B_, 1
	note C#, 1
	note C#, 1
	note F#, 2
	note A#, 1
	note A#, 1
	note C#, 1
	note B_, 1
	note A#, 1
	note A#, 1
	callchannel Music_PokeathelonFinal_Branch4A
	note D_, 1
	note C#, 1
	note A#, 1
	note A#, 1
	note C#, 1
	note B_, 1
	note E_, 4
	note A#, 1
	note A#, 1
	note C#, 1
	note B_, 1
	note A#, 1
	note A#, 1
	callchannel Music_PokeathelonFinal_Branch4A
	note C#, 1
	note B_, 1
	note C#, 1
	note A#, 1
	note C#, 1
	note B_, 1
	note C#, 1
	note C#, 1
	note F#, 2
	note A_, 2
	note C#, 1
	note B_, 1
	note A_, 2
	callchannel Music_PokeathelonFinal_Branch4B
	note B_, 1
	note D_, 1
	note A_, 2
	note C#, 1
	note B_, 1
	note E_, 2
	note B_, 1
	note B_, 1
	note A_, 2
	note C#, 1
	note B_, 1
	note A_, 2
	callchannel Music_PokeathelonFinal_Branch4B
	note B_, 1
	note B_, 1
	note C#, 1
	note C#, 1
	note C#, 1
	note C#, 1
	note C#, 2
	note F#, 2
	note G_, 1
	note A_, 1
	note C#, 1
	note B_, 1
	note G_, 1
	note A_, 1
	callchannel Music_PokeathelonFinal_Branch4C
	note B_, 1
	note D_, 1
	note G_, 1
	note A_, 1
	note C#, 1
	note B_, 1
	note E_, 2
	note B_, 1
	note B_, 1
	note G_, 1
	note A_, 1
	note C#, 1
	note B_, 1
	note G_, 1
	note A_, 1
	callchannel Music_PokeathelonFinal_Branch4C
	note B_, 1
	note B_, 1
	note C#, 1
	note C#, 1
	note C#, 1
	note B_, 1
	note C#, 1
	note C#, 1
	note B_, 1
	note B_, 1
	note A#, 1
	note A#, 1
	note C#, 1
	note B_, 1
	note A#, 1
	note A#, 1
	loopchannel 0, Music_PokeathelonFinal_Loop4
Music_PokeathelonFinal_Branch4A:
	note B_, 1
	note B_, 1
	note A#, 1
	note A#, 1
	note C#, 1
	note B_, 1
	note A#, 1
	note A#, 1
	loopchannel 6, Music_PokeathelonFinal_Branch4A
	db $FF
Music_PokeathelonFinal_Branch4B:
	note B_, 1
	note B_, 1
	note A_, 2
	note C#, 1
	note B_, 1
	note A_, 2
	loopchannel 6, Music_PokeathelonFinal_Branch4B
	db $FF
Music_PokeathelonFinal_Branch4C:
	note B_, 1
	note B_, 1
	note G#, 1
	note A_, 1
	note C#, 1
	note B_, 1
	note G#, 1
	note A_, 1
	loopchannel 6, Music_PokeathelonFinal_Branch4C
	db $FF
